G04 #@! TF.GenerationSoftware,KiCad,Pcbnew,7.0.10*
G04 #@! TF.CreationDate,2024-04-07T15:42:10+09:00*
G04 #@! TF.ProjectId,first_keyboard,66697273-745f-46b6-9579-626f6172642e,rev?*
G04 #@! TF.SameCoordinates,Original*
G04 #@! TF.FileFunction,Legend,Top*
G04 #@! TF.FilePolarity,Positive*
%FSLAX46Y46*%
G04 Gerber Fmt 4.6, Leading zero omitted, Abs format (unit mm)*
G04 Created by KiCad (PCBNEW 7.0.10) date 2024-04-07 15:42:10*
%MOMM*%
%LPD*%
G01*
G04 APERTURE LIST*
%ADD10C,0.187500*%
G04 APERTURE END LIST*
D10*
G36*
X332889108Y-167870512D02*
G01*
X332922322Y-167903725D01*
X332922322Y-168254630D01*
X332889108Y-168287843D01*
X332779655Y-168342571D01*
X332681061Y-168342571D01*
X332571606Y-168287843D01*
X332521691Y-168237929D01*
X332466965Y-168128475D01*
X332466965Y-168029881D01*
X332521691Y-167920427D01*
X332571606Y-167870512D01*
X332681061Y-167815785D01*
X332779655Y-167815785D01*
X332889108Y-167870512D01*
G37*
G36*
X334565179Y-168449808D02*
G01*
X334493939Y-168485428D01*
X334181061Y-168485428D01*
X334085947Y-168437872D01*
X334038393Y-168342760D01*
X334038393Y-168244166D01*
X334085948Y-168149055D01*
X334181061Y-168101500D01*
X334516071Y-168101500D01*
X334536623Y-168094822D01*
X334557997Y-168091603D01*
X334565179Y-168088012D01*
X334565179Y-168449808D01*
G37*
G36*
X337922322Y-168449808D02*
G01*
X337851082Y-168485428D01*
X337538204Y-168485428D01*
X337443090Y-168437872D01*
X337395536Y-168342760D01*
X337395536Y-168244166D01*
X337443091Y-168149055D01*
X337538204Y-168101500D01*
X337873214Y-168101500D01*
X337893766Y-168094822D01*
X337915140Y-168091603D01*
X337922322Y-168088012D01*
X337922322Y-168449808D01*
G37*
G36*
X340531966Y-167227655D02*
G01*
X340645703Y-167341392D01*
X340708036Y-167590720D01*
X340708036Y-168067635D01*
X340645703Y-168316962D01*
X340531967Y-168430700D01*
X340422511Y-168485428D01*
X340181061Y-168485428D01*
X340071603Y-168430699D01*
X339957867Y-168316963D01*
X339895536Y-168067636D01*
X339895536Y-167590719D01*
X339957867Y-167341392D01*
X340071606Y-167227655D01*
X340181061Y-167172928D01*
X340422512Y-167172928D01*
X340531966Y-167227655D01*
G37*
G36*
X325743750Y-165293548D02*
G01*
X325743750Y-166034808D01*
X325672510Y-166070428D01*
X325431060Y-166070428D01*
X325321602Y-166015699D01*
X325271692Y-165965789D01*
X325216964Y-165856332D01*
X325216964Y-165472023D01*
X325271690Y-165362569D01*
X325321605Y-165312655D01*
X325431060Y-165257928D01*
X325672510Y-165257928D01*
X325743750Y-165293548D01*
G37*
G36*
X334210536Y-165455512D02*
G01*
X334243750Y-165488725D01*
X334243750Y-165839630D01*
X334210536Y-165872843D01*
X334101083Y-165927571D01*
X334002489Y-165927571D01*
X333893034Y-165872843D01*
X333843119Y-165822929D01*
X333788393Y-165713475D01*
X333788393Y-165614881D01*
X333843119Y-165505427D01*
X333893034Y-165455512D01*
X334002489Y-165400785D01*
X334101083Y-165400785D01*
X334210536Y-165455512D01*
G37*
G36*
X299386607Y-166034808D02*
G01*
X299315367Y-166070428D01*
X299002489Y-166070428D01*
X298907375Y-166022872D01*
X298859821Y-165927760D01*
X298859821Y-165829166D01*
X298907376Y-165734055D01*
X299002489Y-165686500D01*
X299337499Y-165686500D01*
X299358051Y-165679822D01*
X299379425Y-165676603D01*
X299386607Y-165673012D01*
X299386607Y-166034808D01*
G37*
G36*
X300743750Y-165293548D02*
G01*
X300743750Y-166034808D01*
X300672510Y-166070428D01*
X300431060Y-166070428D01*
X300321602Y-166015699D01*
X300271692Y-165965789D01*
X300216964Y-165856332D01*
X300216964Y-165472023D01*
X300271690Y-165362569D01*
X300321605Y-165312655D01*
X300431060Y-165257928D01*
X300672510Y-165257928D01*
X300743750Y-165293548D01*
G37*
G36*
X302067679Y-165312655D02*
G01*
X302117594Y-165362569D01*
X302172321Y-165472023D01*
X302172321Y-165856332D01*
X302117592Y-165965789D01*
X302067682Y-166015699D01*
X301958225Y-166070428D01*
X301716775Y-166070428D01*
X301645535Y-166034808D01*
X301645535Y-165293548D01*
X301716775Y-165257928D01*
X301958226Y-165257928D01*
X302067679Y-165312655D01*
G37*
G36*
X303458036Y-165293548D02*
G01*
X303458036Y-166034808D01*
X303386796Y-166070428D01*
X303145346Y-166070428D01*
X303035888Y-166015699D01*
X302985978Y-165965789D01*
X302931250Y-165856332D01*
X302931250Y-165472023D01*
X302985976Y-165362569D01*
X303035891Y-165312655D01*
X303145346Y-165257928D01*
X303386796Y-165257928D01*
X303458036Y-165293548D01*
G37*
G36*
X307067679Y-164812655D02*
G01*
X307117594Y-164862569D01*
X307177616Y-164982613D01*
X307243750Y-165247148D01*
X307243750Y-165581207D01*
X307177616Y-165845742D01*
X307117592Y-165965789D01*
X307067682Y-166015699D01*
X306958225Y-166070428D01*
X306859632Y-166070428D01*
X306750174Y-166015699D01*
X306700262Y-165965787D01*
X306640240Y-165845743D01*
X306574107Y-165581208D01*
X306574107Y-165247147D01*
X306640240Y-164982612D01*
X306700261Y-164862570D01*
X306750177Y-164812655D01*
X306859632Y-164757928D01*
X306958226Y-164757928D01*
X307067679Y-164812655D01*
G37*
G36*
X309210536Y-164812655D02*
G01*
X309260451Y-164862569D01*
X309320473Y-164982613D01*
X309386607Y-165247148D01*
X309386607Y-165581207D01*
X309320473Y-165845742D01*
X309260449Y-165965789D01*
X309210539Y-166015699D01*
X309101082Y-166070428D01*
X309002489Y-166070428D01*
X308893031Y-166015699D01*
X308843119Y-165965787D01*
X308783097Y-165845743D01*
X308716964Y-165581208D01*
X308716964Y-165247147D01*
X308783097Y-164982612D01*
X308843118Y-164862570D01*
X308893034Y-164812655D01*
X309002489Y-164757928D01*
X309101083Y-164757928D01*
X309210536Y-164812655D01*
G37*
G36*
X321001143Y-164817547D02*
G01*
X321117593Y-164933997D01*
X321177615Y-165054042D01*
X321243749Y-165318575D01*
X321243749Y-165509780D01*
X321177615Y-165774313D01*
X321117593Y-165894357D01*
X321001143Y-166010809D01*
X320822286Y-166070428D01*
X320574106Y-166070428D01*
X320574106Y-164757928D01*
X320822286Y-164757928D01*
X321001143Y-164817547D01*
G37*
G36*
X322481907Y-165305483D02*
G01*
X322529464Y-165400596D01*
X322529464Y-165444464D01*
X322002678Y-165549821D01*
X322002678Y-165400595D01*
X322050233Y-165305484D01*
X322145346Y-165257928D01*
X322386797Y-165257928D01*
X322481907Y-165305483D01*
G37*
G36*
X329567679Y-165312655D02*
G01*
X329617594Y-165362569D01*
X329672321Y-165472023D01*
X329672321Y-165856332D01*
X329617592Y-165965789D01*
X329567682Y-166015699D01*
X329458225Y-166070428D01*
X329216775Y-166070428D01*
X329145535Y-166034808D01*
X329145535Y-165293548D01*
X329216775Y-165257928D01*
X329458226Y-165257928D01*
X329567679Y-165312655D01*
G37*
G36*
X335886607Y-166034808D02*
G01*
X335815367Y-166070428D01*
X335502489Y-166070428D01*
X335407375Y-166022872D01*
X335359821Y-165927760D01*
X335359821Y-165829166D01*
X335407376Y-165734055D01*
X335502489Y-165686500D01*
X335837499Y-165686500D01*
X335858051Y-165679822D01*
X335879425Y-165676603D01*
X335886607Y-165673012D01*
X335886607Y-166034808D01*
G37*
G36*
X345395536Y-169098701D02*
G01*
X296529463Y-169098701D01*
X296529463Y-168582957D01*
X328565255Y-168582957D01*
X328585366Y-168637296D01*
X328633575Y-168669435D01*
X328691469Y-168667099D01*
X328736934Y-168631181D01*
X329158929Y-167998188D01*
X329580924Y-168631181D01*
X329626389Y-168667100D01*
X329684283Y-168669435D01*
X329732492Y-168637296D01*
X329752603Y-168582957D01*
X329736934Y-168527175D01*
X329733761Y-168522415D01*
X330066333Y-168522415D01*
X330073073Y-168535644D01*
X330075397Y-168550313D01*
X330085898Y-168560814D01*
X330092638Y-168574041D01*
X330164065Y-168645469D01*
X330177293Y-168652208D01*
X330187794Y-168662710D01*
X330195267Y-168663893D01*
X330201387Y-168668340D01*
X330208953Y-168668340D01*
X330215691Y-168671773D01*
X330230354Y-168669450D01*
X330245022Y-168671774D01*
X330251762Y-168668340D01*
X330259327Y-168668340D01*
X330265447Y-168663893D01*
X330272919Y-168662710D01*
X330283418Y-168652210D01*
X330296648Y-168645470D01*
X330368077Y-168574042D01*
X330374817Y-168560812D01*
X330385318Y-168550312D01*
X330387641Y-168535643D01*
X330394381Y-168522416D01*
X330392058Y-168507752D01*
X330394382Y-168493085D01*
X330387640Y-168479854D01*
X330385318Y-168465189D01*
X330374817Y-168454688D01*
X330368077Y-168441459D01*
X330296648Y-168370030D01*
X330283418Y-168363289D01*
X330272918Y-168352789D01*
X330265447Y-168351605D01*
X330259327Y-168347159D01*
X330251762Y-168347159D01*
X330245022Y-168343725D01*
X330230354Y-168346048D01*
X330215691Y-168343726D01*
X330208953Y-168347159D01*
X330201387Y-168347159D01*
X330195266Y-168351605D01*
X330187795Y-168352789D01*
X330177294Y-168363289D01*
X330164065Y-168370030D01*
X330092637Y-168441459D01*
X330085896Y-168454688D01*
X330075397Y-168465188D01*
X330073073Y-168479854D01*
X330066333Y-168493085D01*
X330068655Y-168507750D01*
X330066333Y-168522415D01*
X329733761Y-168522415D01*
X329453428Y-168101916D01*
X331925121Y-168101916D01*
X331996549Y-168387629D01*
X332005123Y-168401331D01*
X332009495Y-168416895D01*
X332152353Y-168631181D01*
X332166879Y-168642656D01*
X332178355Y-168657183D01*
X332392640Y-168800040D01*
X332408202Y-168804411D01*
X332421905Y-168812986D01*
X332707620Y-168884415D01*
X332730358Y-168882839D01*
X332753096Y-168884415D01*
X333038810Y-168812986D01*
X333052513Y-168804411D01*
X333068075Y-168800040D01*
X333141628Y-168751005D01*
X338284053Y-168751005D01*
X338318110Y-168797880D01*
X338373215Y-168815785D01*
X339516072Y-168815785D01*
X339571177Y-168797880D01*
X339605234Y-168751005D01*
X339605234Y-168693065D01*
X339571177Y-168646190D01*
X339516072Y-168628285D01*
X338373215Y-168628285D01*
X338318110Y-168646190D01*
X338284053Y-168693065D01*
X338284053Y-168751005D01*
X333141628Y-168751005D01*
X333282361Y-168657183D01*
X333318280Y-168611718D01*
X333320615Y-168553824D01*
X333288476Y-168505615D01*
X333234137Y-168485504D01*
X333178355Y-168501173D01*
X332977580Y-168635022D01*
X332730357Y-168696828D01*
X332483132Y-168635021D01*
X332297962Y-168511573D01*
X332174512Y-168326400D01*
X332112707Y-168079178D01*
X332174512Y-167831955D01*
X332297962Y-167646782D01*
X332483132Y-167523334D01*
X332730357Y-167461527D01*
X332977580Y-167523333D01*
X333162753Y-167646782D01*
X333279465Y-167821849D01*
X333279465Y-168128475D01*
X333231909Y-168223586D01*
X333136797Y-168271142D01*
X333126333Y-168271142D01*
X333109822Y-168254631D01*
X333109822Y-167722035D01*
X333091917Y-167666930D01*
X333045042Y-167632873D01*
X332987102Y-167632873D01*
X332940227Y-167666930D01*
X332934773Y-167683713D01*
X332843713Y-167638183D01*
X332822341Y-167634963D01*
X332801786Y-167628285D01*
X332658929Y-167628285D01*
X332638371Y-167634964D01*
X332617002Y-167638183D01*
X332474145Y-167709612D01*
X332463320Y-167720273D01*
X332449781Y-167727172D01*
X332378352Y-167798600D01*
X332371452Y-167812140D01*
X332360790Y-167822966D01*
X332289362Y-167965824D01*
X332286143Y-167987195D01*
X332279465Y-168007750D01*
X332279465Y-168150607D01*
X332286143Y-168171161D01*
X332289362Y-168192533D01*
X332360790Y-168335390D01*
X332371452Y-168346215D01*
X332378352Y-168359756D01*
X332449781Y-168431184D01*
X332463320Y-168438082D01*
X332474145Y-168448744D01*
X332617002Y-168520173D01*
X332638371Y-168523391D01*
X332658929Y-168530071D01*
X332801786Y-168530071D01*
X332822341Y-168523392D01*
X332843713Y-168520173D01*
X332986569Y-168448745D01*
X332997394Y-168438082D01*
X333010934Y-168431184D01*
X333016071Y-168426046D01*
X333021208Y-168431183D01*
X333027948Y-168434617D01*
X333032395Y-168440737D01*
X333053274Y-168447521D01*
X333072834Y-168457487D01*
X333080304Y-168456303D01*
X333087500Y-168458642D01*
X333158929Y-168458642D01*
X333179483Y-168451963D01*
X333200855Y-168448745D01*
X333343712Y-168377317D01*
X333344244Y-168376792D01*
X333344980Y-168376670D01*
X333356580Y-168364892D01*
X333850893Y-168364892D01*
X333857571Y-168385446D01*
X333860790Y-168406818D01*
X333932218Y-168549676D01*
X333932742Y-168550208D01*
X333932865Y-168550945D01*
X333953039Y-168570815D01*
X333972877Y-168590956D01*
X333973612Y-168591078D01*
X333974145Y-168591603D01*
X334117004Y-168663031D01*
X334138376Y-168666249D01*
X334158929Y-168672928D01*
X334516071Y-168672928D01*
X334536625Y-168666249D01*
X334557997Y-168663031D01*
X334596295Y-168643881D01*
X334629959Y-168668340D01*
X334687899Y-168668340D01*
X334734774Y-168634283D01*
X334752679Y-168579178D01*
X335279464Y-168579178D01*
X335297369Y-168634283D01*
X335344244Y-168668340D01*
X335402184Y-168668340D01*
X335449059Y-168634283D01*
X335466964Y-168579178D01*
X335466964Y-167760868D01*
X335500177Y-167727655D01*
X335609632Y-167672928D01*
X335779655Y-167672928D01*
X335874765Y-167720483D01*
X335922322Y-167815596D01*
X335922322Y-168579178D01*
X335940227Y-168634283D01*
X335987102Y-168668340D01*
X336045042Y-168668340D01*
X336091917Y-168634283D01*
X336109822Y-168579178D01*
X336109822Y-167815595D01*
X336157377Y-167720483D01*
X336252489Y-167672928D01*
X336422512Y-167672928D01*
X336517622Y-167720483D01*
X336565179Y-167815596D01*
X336565179Y-168579178D01*
X336583084Y-168634283D01*
X336629959Y-168668340D01*
X336687899Y-168668340D01*
X336734774Y-168634283D01*
X336752679Y-168579178D01*
X336752679Y-168364892D01*
X337208036Y-168364892D01*
X337214714Y-168385446D01*
X337217933Y-168406818D01*
X337289361Y-168549676D01*
X337289885Y-168550208D01*
X337290008Y-168550945D01*
X337310182Y-168570815D01*
X337330020Y-168590956D01*
X337330755Y-168591078D01*
X337331288Y-168591603D01*
X337474147Y-168663031D01*
X337495519Y-168666249D01*
X337516072Y-168672928D01*
X337873214Y-168672928D01*
X337893768Y-168666249D01*
X337915140Y-168663031D01*
X337953438Y-168643881D01*
X337987102Y-168668340D01*
X338045042Y-168668340D01*
X338091917Y-168634283D01*
X338109822Y-168579178D01*
X338109822Y-168079178D01*
X339708036Y-168079178D01*
X339711641Y-168090275D01*
X339710835Y-168101916D01*
X339782263Y-168387629D01*
X339795551Y-168408866D01*
X339806923Y-168431183D01*
X339949781Y-168574041D01*
X339963319Y-168580939D01*
X339974146Y-168591603D01*
X340117003Y-168663031D01*
X340138376Y-168666249D01*
X340158929Y-168672928D01*
X340444643Y-168672928D01*
X340465197Y-168666249D01*
X340486569Y-168663031D01*
X340629426Y-168591603D01*
X340640252Y-168580939D01*
X340653791Y-168574041D01*
X340663319Y-168564513D01*
X341209190Y-168564513D01*
X341212624Y-168586194D01*
X341212624Y-168608148D01*
X341217070Y-168614268D01*
X341218254Y-168621740D01*
X341233778Y-168637264D01*
X341246681Y-168655023D01*
X341253874Y-168657360D01*
X341259224Y-168662710D01*
X341280909Y-168666144D01*
X341301786Y-168672928D01*
X342230358Y-168672928D01*
X342285463Y-168655023D01*
X342319520Y-168608148D01*
X342319520Y-168550208D01*
X342285463Y-168503333D01*
X342230358Y-168485428D01*
X341528118Y-168485428D01*
X342225220Y-167788326D01*
X342227355Y-167784136D01*
X342708501Y-167784136D01*
X342714121Y-167809938D01*
X342718254Y-167836027D01*
X342720237Y-167838010D01*
X342720834Y-167840749D01*
X342740543Y-167858315D01*
X342759224Y-167876996D01*
X342761994Y-167877434D01*
X342764088Y-167879301D01*
X342790371Y-167881929D01*
X342816452Y-167886060D01*
X342818950Y-167884787D01*
X342821740Y-167885066D01*
X342844537Y-167871749D01*
X342868078Y-167859755D01*
X342928748Y-167799084D01*
X343038204Y-167744357D01*
X343351082Y-167744357D01*
X343460536Y-167799083D01*
X343510451Y-167848998D01*
X343565179Y-167958453D01*
X343565179Y-168271332D01*
X343510451Y-168380786D01*
X343460536Y-168430701D01*
X343351082Y-168485428D01*
X343038204Y-168485428D01*
X342928748Y-168430700D01*
X342868078Y-168370030D01*
X342816452Y-168343725D01*
X342759224Y-168352789D01*
X342718254Y-168393758D01*
X342709190Y-168450986D01*
X342735494Y-168502612D01*
X342806922Y-168574041D01*
X342820461Y-168580939D01*
X342831288Y-168591603D01*
X342974147Y-168663031D01*
X342995519Y-168666249D01*
X343016072Y-168672928D01*
X343373214Y-168672928D01*
X343393768Y-168666249D01*
X343415140Y-168663031D01*
X343557998Y-168591603D01*
X343568823Y-168580940D01*
X343582364Y-168574041D01*
X343653792Y-168502612D01*
X343660690Y-168489072D01*
X343671352Y-168478248D01*
X343742781Y-168335391D01*
X343745999Y-168314021D01*
X343752679Y-168293464D01*
X343752679Y-167936321D01*
X343745999Y-167915763D01*
X343742781Y-167894394D01*
X343687652Y-167784136D01*
X344137072Y-167784136D01*
X344142692Y-167809938D01*
X344146825Y-167836027D01*
X344148808Y-167838010D01*
X344149405Y-167840749D01*
X344169114Y-167858315D01*
X344187795Y-167876996D01*
X344190565Y-167877434D01*
X344192659Y-167879301D01*
X344218942Y-167881929D01*
X344245023Y-167886060D01*
X344247521Y-167884787D01*
X344250311Y-167885066D01*
X344273108Y-167871749D01*
X344296649Y-167859755D01*
X344357319Y-167799084D01*
X344466775Y-167744357D01*
X344779653Y-167744357D01*
X344889107Y-167799083D01*
X344939022Y-167848998D01*
X344993750Y-167958453D01*
X344993750Y-168271332D01*
X344939022Y-168380786D01*
X344889107Y-168430701D01*
X344779653Y-168485428D01*
X344466775Y-168485428D01*
X344357319Y-168430700D01*
X344296649Y-168370030D01*
X344245023Y-168343725D01*
X344187795Y-168352789D01*
X344146825Y-168393758D01*
X344137761Y-168450986D01*
X344164065Y-168502612D01*
X344235493Y-168574041D01*
X344249032Y-168580939D01*
X344259859Y-168591603D01*
X344402718Y-168663031D01*
X344424090Y-168666249D01*
X344444643Y-168672928D01*
X344801785Y-168672928D01*
X344822339Y-168666249D01*
X344843711Y-168663031D01*
X344986569Y-168591603D01*
X344997394Y-168580940D01*
X345010935Y-168574041D01*
X345082363Y-168502612D01*
X345089261Y-168489072D01*
X345099923Y-168478248D01*
X345171352Y-168335391D01*
X345174570Y-168314021D01*
X345181250Y-168293464D01*
X345181250Y-167936321D01*
X345174570Y-167915763D01*
X345171352Y-167894394D01*
X345099923Y-167751537D01*
X345089261Y-167740712D01*
X345082363Y-167727173D01*
X345010935Y-167655744D01*
X344997394Y-167648844D01*
X344986569Y-167638182D01*
X344843711Y-167566754D01*
X344822339Y-167563535D01*
X344801785Y-167556857D01*
X344444643Y-167556857D01*
X344424090Y-167563535D01*
X344402718Y-167566754D01*
X344344326Y-167595949D01*
X344386628Y-167172928D01*
X345016071Y-167172928D01*
X345071176Y-167155023D01*
X345105233Y-167108148D01*
X345105233Y-167050208D01*
X345071176Y-167003333D01*
X345016071Y-166985428D01*
X344301785Y-166985428D01*
X344292033Y-166988596D01*
X344281831Y-166987576D01*
X344265103Y-166997346D01*
X344246680Y-167003333D01*
X344240653Y-167011628D01*
X344231799Y-167016800D01*
X344224009Y-167034535D01*
X344212623Y-167050208D01*
X344212623Y-167060462D01*
X344208500Y-167069850D01*
X344137072Y-167784136D01*
X343687652Y-167784136D01*
X343671352Y-167751537D01*
X343660690Y-167740712D01*
X343653792Y-167727173D01*
X343582364Y-167655744D01*
X343568823Y-167648844D01*
X343557998Y-167638182D01*
X343415140Y-167566754D01*
X343393768Y-167563535D01*
X343373214Y-167556857D01*
X343016072Y-167556857D01*
X342995519Y-167563535D01*
X342974147Y-167566754D01*
X342915755Y-167595949D01*
X342958057Y-167172928D01*
X343587500Y-167172928D01*
X343642605Y-167155023D01*
X343676662Y-167108148D01*
X343676662Y-167050208D01*
X343642605Y-167003333D01*
X343587500Y-166985428D01*
X342873214Y-166985428D01*
X342863462Y-166988596D01*
X342853260Y-166987576D01*
X342836532Y-166997346D01*
X342818109Y-167003333D01*
X342812082Y-167011628D01*
X342803228Y-167016800D01*
X342795438Y-167034535D01*
X342784052Y-167050208D01*
X342784052Y-167060462D01*
X342779929Y-167069850D01*
X342708501Y-167784136D01*
X342227355Y-167784136D01*
X342235030Y-167769072D01*
X342247868Y-167751682D01*
X342319297Y-167537397D01*
X342319412Y-167522201D01*
X342324108Y-167507750D01*
X342324108Y-167364892D01*
X342317428Y-167344334D01*
X342314210Y-167322965D01*
X342242781Y-167180108D01*
X342232118Y-167169282D01*
X342225220Y-167155743D01*
X342153792Y-167084316D01*
X342140253Y-167077417D01*
X342129427Y-167066754D01*
X341986569Y-166995325D01*
X341965195Y-166992105D01*
X341944643Y-166985428D01*
X341587501Y-166985428D01*
X341566946Y-166992106D01*
X341545575Y-166995325D01*
X341402717Y-167066754D01*
X341391890Y-167077417D01*
X341378351Y-167084316D01*
X341306924Y-167155744D01*
X341280619Y-167207370D01*
X341289683Y-167264597D01*
X341330653Y-167305567D01*
X341387880Y-167314631D01*
X341439506Y-167288326D01*
X341500176Y-167227656D01*
X341609633Y-167172928D01*
X341922511Y-167172928D01*
X342031968Y-167227656D01*
X342081880Y-167277569D01*
X342136608Y-167387024D01*
X342136608Y-167492536D01*
X342076988Y-167671393D01*
X341235495Y-168512887D01*
X341225529Y-168532445D01*
X341212624Y-168550208D01*
X341212624Y-168557773D01*
X341209190Y-168564513D01*
X340663319Y-168564513D01*
X340796648Y-168431183D01*
X340808019Y-168408865D01*
X340821308Y-168387630D01*
X340892737Y-168101916D01*
X340891930Y-168090275D01*
X340895536Y-168079178D01*
X340895536Y-167579178D01*
X340891930Y-167568080D01*
X340892737Y-167556440D01*
X340821308Y-167270726D01*
X340808018Y-167249488D01*
X340796648Y-167227173D01*
X340653791Y-167084316D01*
X340640252Y-167077417D01*
X340629426Y-167066754D01*
X340486570Y-166995326D01*
X340465198Y-166992106D01*
X340444643Y-166985428D01*
X340158929Y-166985428D01*
X340138371Y-166992107D01*
X340117002Y-166995326D01*
X339974145Y-167066755D01*
X339963319Y-167077417D01*
X339949781Y-167084316D01*
X339806923Y-167227173D01*
X339795550Y-167249491D01*
X339782263Y-167270727D01*
X339710835Y-167556440D01*
X339711641Y-167568080D01*
X339708036Y-167579178D01*
X339708036Y-168079178D01*
X338109822Y-168079178D01*
X338109822Y-167793464D01*
X338103142Y-167772906D01*
X338099924Y-167751537D01*
X338028495Y-167608680D01*
X338027971Y-167608148D01*
X338027849Y-167607413D01*
X338007691Y-167587558D01*
X337987837Y-167567401D01*
X337987101Y-167567278D01*
X337986569Y-167566754D01*
X337843713Y-167495326D01*
X337822341Y-167492106D01*
X337801786Y-167485428D01*
X337516072Y-167485428D01*
X337495517Y-167492106D01*
X337474146Y-167495325D01*
X337331288Y-167566754D01*
X337290008Y-167607413D01*
X337280509Y-167664570D01*
X337306421Y-167716393D01*
X337357846Y-167743089D01*
X337415140Y-167734460D01*
X337538204Y-167672928D01*
X337779655Y-167672928D01*
X337874765Y-167720483D01*
X337922322Y-167815596D01*
X337922322Y-167878380D01*
X337851082Y-167914000D01*
X337516072Y-167914000D01*
X337495519Y-167920678D01*
X337474147Y-167923897D01*
X337331288Y-167995325D01*
X337330755Y-167995849D01*
X337330020Y-167995972D01*
X337310182Y-168016112D01*
X337290008Y-168035983D01*
X337289885Y-168036719D01*
X337289361Y-168037252D01*
X337217933Y-168180109D01*
X337214714Y-168201480D01*
X337208036Y-168222035D01*
X337208036Y-168364892D01*
X336752679Y-168364892D01*
X336752679Y-167793464D01*
X336745999Y-167772906D01*
X336742781Y-167751537D01*
X336671352Y-167608680D01*
X336670828Y-167608148D01*
X336670706Y-167607413D01*
X336650548Y-167587558D01*
X336630694Y-167567401D01*
X336629958Y-167567278D01*
X336629426Y-167566754D01*
X336486570Y-167495326D01*
X336465198Y-167492106D01*
X336444643Y-167485428D01*
X336230357Y-167485428D01*
X336209799Y-167492107D01*
X336188430Y-167495326D01*
X336045573Y-167566755D01*
X336045041Y-167567278D01*
X336044306Y-167567401D01*
X336024451Y-167587558D01*
X336016071Y-167595812D01*
X336007691Y-167587558D01*
X335987837Y-167567401D01*
X335987101Y-167567278D01*
X335986569Y-167566754D01*
X335843713Y-167495326D01*
X335822341Y-167492106D01*
X335801786Y-167485428D01*
X335587500Y-167485428D01*
X335566942Y-167492107D01*
X335545573Y-167495326D01*
X335454512Y-167540856D01*
X335449059Y-167524073D01*
X335402184Y-167490016D01*
X335344244Y-167490016D01*
X335297369Y-167524073D01*
X335279464Y-167579178D01*
X335279464Y-168579178D01*
X334752679Y-168579178D01*
X334752679Y-167793464D01*
X334745999Y-167772906D01*
X334742781Y-167751537D01*
X334671352Y-167608680D01*
X334670828Y-167608148D01*
X334670706Y-167607413D01*
X334650548Y-167587558D01*
X334630694Y-167567401D01*
X334629958Y-167567278D01*
X334629426Y-167566754D01*
X334486570Y-167495326D01*
X334465198Y-167492106D01*
X334444643Y-167485428D01*
X334158929Y-167485428D01*
X334138374Y-167492106D01*
X334117003Y-167495325D01*
X333974145Y-167566754D01*
X333932865Y-167607413D01*
X333923366Y-167664570D01*
X333949278Y-167716393D01*
X334000703Y-167743089D01*
X334057997Y-167734460D01*
X334181061Y-167672928D01*
X334422512Y-167672928D01*
X334517622Y-167720483D01*
X334565179Y-167815596D01*
X334565179Y-167878380D01*
X334493939Y-167914000D01*
X334158929Y-167914000D01*
X334138376Y-167920678D01*
X334117004Y-167923897D01*
X333974145Y-167995325D01*
X333973612Y-167995849D01*
X333972877Y-167995972D01*
X333953039Y-168016112D01*
X333932865Y-168035983D01*
X333932742Y-168036719D01*
X333932218Y-168037252D01*
X333860790Y-168180109D01*
X333857571Y-168201480D01*
X333850893Y-168222035D01*
X333850893Y-168364892D01*
X333356580Y-168364892D01*
X333364834Y-168356512D01*
X333384992Y-168336658D01*
X333385114Y-168335922D01*
X333385638Y-168335391D01*
X333457067Y-168192534D01*
X333460285Y-168171164D01*
X333466965Y-168150607D01*
X333466965Y-167793464D01*
X333458570Y-167767627D01*
X333451220Y-167741461D01*
X333308363Y-167527175D01*
X333293837Y-167515699D01*
X333282361Y-167501173D01*
X333068075Y-167358316D01*
X333052513Y-167353944D01*
X333038810Y-167345370D01*
X332753096Y-167273941D01*
X332730358Y-167275516D01*
X332707620Y-167273941D01*
X332421905Y-167345370D01*
X332408202Y-167353944D01*
X332392640Y-167358316D01*
X332178355Y-167501173D01*
X332166879Y-167515699D01*
X332152353Y-167527175D01*
X332009495Y-167741461D01*
X332005123Y-167757024D01*
X331996549Y-167770727D01*
X331925121Y-168056440D01*
X331926696Y-168079178D01*
X331925121Y-168101916D01*
X329453428Y-168101916D01*
X329271602Y-167829178D01*
X329333254Y-167736700D01*
X330066333Y-167736700D01*
X330073073Y-167749930D01*
X330075397Y-167764597D01*
X330085896Y-167775096D01*
X330092637Y-167788326D01*
X330164065Y-167859755D01*
X330177294Y-167866495D01*
X330187795Y-167876996D01*
X330195266Y-167878179D01*
X330201387Y-167882626D01*
X330208953Y-167882626D01*
X330215691Y-167886059D01*
X330230354Y-167883736D01*
X330245022Y-167886060D01*
X330251762Y-167882626D01*
X330259327Y-167882626D01*
X330265447Y-167878179D01*
X330272918Y-167876996D01*
X330283418Y-167866495D01*
X330296648Y-167859755D01*
X330368077Y-167788326D01*
X330374817Y-167775096D01*
X330385318Y-167764596D01*
X330387640Y-167749930D01*
X330394382Y-167736700D01*
X330392058Y-167722032D01*
X330394381Y-167707369D01*
X330387641Y-167694141D01*
X330385318Y-167679473D01*
X330374817Y-167668972D01*
X330368077Y-167655743D01*
X330296648Y-167584315D01*
X330283418Y-167577574D01*
X330272919Y-167567075D01*
X330265447Y-167565891D01*
X330259327Y-167561445D01*
X330251762Y-167561445D01*
X330245022Y-167558011D01*
X330230354Y-167560334D01*
X330215691Y-167558012D01*
X330208953Y-167561445D01*
X330201387Y-167561445D01*
X330195267Y-167565891D01*
X330187794Y-167567075D01*
X330177293Y-167577576D01*
X330164065Y-167584316D01*
X330092638Y-167655744D01*
X330085898Y-167668970D01*
X330075397Y-167679472D01*
X330073073Y-167694140D01*
X330066333Y-167707370D01*
X330068655Y-167722034D01*
X330066333Y-167736700D01*
X329333254Y-167736700D01*
X329736934Y-167131181D01*
X329752603Y-167075399D01*
X329732492Y-167021060D01*
X329684283Y-166988921D01*
X329626389Y-166991256D01*
X329580924Y-167027175D01*
X329158929Y-167660167D01*
X328736934Y-167027175D01*
X328691469Y-166991257D01*
X328633575Y-166988921D01*
X328585366Y-167021060D01*
X328565255Y-167075399D01*
X328580924Y-167131181D01*
X329046255Y-167829178D01*
X328580924Y-168527175D01*
X328565255Y-168582957D01*
X296529463Y-168582957D01*
X296529463Y-166164178D01*
X296743749Y-166164178D01*
X296761654Y-166219283D01*
X296808529Y-166253340D01*
X296866469Y-166253340D01*
X296913344Y-166219283D01*
X296931249Y-166164178D01*
X296931249Y-165345868D01*
X296964462Y-165312655D01*
X297073917Y-165257928D01*
X297243940Y-165257928D01*
X297339050Y-165305483D01*
X297386607Y-165400596D01*
X297386607Y-166164178D01*
X297404512Y-166219283D01*
X297451387Y-166253340D01*
X297509327Y-166253340D01*
X297556202Y-166219283D01*
X297574107Y-166164178D01*
X297574107Y-165400595D01*
X297621662Y-165305483D01*
X297716774Y-165257928D01*
X297886797Y-165257928D01*
X297981907Y-165305483D01*
X298029464Y-165400596D01*
X298029464Y-166164178D01*
X298047369Y-166219283D01*
X298094244Y-166253340D01*
X298152184Y-166253340D01*
X298199059Y-166219283D01*
X298216964Y-166164178D01*
X298216964Y-165949892D01*
X298672321Y-165949892D01*
X298678999Y-165970446D01*
X298682218Y-165991818D01*
X298753646Y-166134676D01*
X298754170Y-166135208D01*
X298754293Y-166135945D01*
X298774467Y-166155815D01*
X298794305Y-166175956D01*
X298795040Y-166176078D01*
X298795573Y-166176603D01*
X298938432Y-166248031D01*
X298959804Y-166251249D01*
X298980357Y-166257928D01*
X299337499Y-166257928D01*
X299358053Y-166251249D01*
X299379425Y-166248031D01*
X299417723Y-166228881D01*
X299451387Y-166253340D01*
X299509327Y-166253340D01*
X299556202Y-166219283D01*
X299574107Y-166164178D01*
X299574107Y-165878464D01*
X300029464Y-165878464D01*
X300036142Y-165899018D01*
X300039361Y-165920390D01*
X300110789Y-166063247D01*
X300121452Y-166074073D01*
X300128351Y-166087612D01*
X300199780Y-166159041D01*
X300213318Y-166165939D01*
X300224145Y-166176603D01*
X300367002Y-166248031D01*
X300388375Y-166251249D01*
X300408928Y-166257928D01*
X300694642Y-166257928D01*
X300715196Y-166251249D01*
X300736568Y-166248031D01*
X300774866Y-166228881D01*
X300808530Y-166253340D01*
X300866470Y-166253340D01*
X300913345Y-166219283D01*
X300931250Y-166164178D01*
X301458035Y-166164178D01*
X301475940Y-166219283D01*
X301522815Y-166253340D01*
X301580755Y-166253340D01*
X301614418Y-166228881D01*
X301652718Y-166248031D01*
X301674090Y-166251249D01*
X301694643Y-166257928D01*
X301980357Y-166257928D01*
X302000911Y-166251249D01*
X302022283Y-166248031D01*
X302165140Y-166176603D01*
X302175966Y-166165939D01*
X302189505Y-166159041D01*
X302260934Y-166087612D01*
X302267832Y-166074073D01*
X302278496Y-166063247D01*
X302349924Y-165920390D01*
X302353142Y-165899016D01*
X302359821Y-165878464D01*
X302743750Y-165878464D01*
X302750428Y-165899018D01*
X302753647Y-165920390D01*
X302825075Y-166063247D01*
X302835738Y-166074073D01*
X302842637Y-166087612D01*
X302914066Y-166159041D01*
X302927604Y-166165939D01*
X302938431Y-166176603D01*
X303081288Y-166248031D01*
X303102661Y-166251249D01*
X303123214Y-166257928D01*
X303408928Y-166257928D01*
X303429482Y-166251249D01*
X303450854Y-166248031D01*
X303489152Y-166228881D01*
X303522816Y-166253340D01*
X303580756Y-166253340D01*
X303627631Y-166219283D01*
X303645536Y-166164178D01*
X303645536Y-165137793D01*
X305176111Y-165137793D01*
X305177783Y-165195710D01*
X305534926Y-166195709D01*
X305551046Y-166216602D01*
X305565943Y-166238402D01*
X305568599Y-166239350D01*
X305570321Y-166241582D01*
X305595642Y-166249008D01*
X305620508Y-166257889D01*
X305623214Y-166257095D01*
X305625920Y-166257889D01*
X305650785Y-166249008D01*
X305676107Y-166241582D01*
X305677828Y-166239350D01*
X305680485Y-166238402D01*
X305695377Y-166216606D01*
X305711502Y-166195710D01*
X305926845Y-165592750D01*
X306386607Y-165592750D01*
X306390212Y-165603847D01*
X306389406Y-165615488D01*
X306460834Y-165901201D01*
X306466376Y-165910058D01*
X306467933Y-165920391D01*
X306539361Y-166063247D01*
X306550024Y-166074073D01*
X306556923Y-166087612D01*
X306628352Y-166159041D01*
X306641890Y-166165939D01*
X306652717Y-166176603D01*
X306795574Y-166248031D01*
X306816947Y-166251249D01*
X306837500Y-166257928D01*
X306980357Y-166257928D01*
X307000911Y-166251249D01*
X307022283Y-166248031D01*
X307165140Y-166176603D01*
X307175966Y-166165939D01*
X307189505Y-166159041D01*
X307241131Y-166107415D01*
X307816332Y-166107415D01*
X307823072Y-166120644D01*
X307825396Y-166135313D01*
X307835897Y-166145814D01*
X307842637Y-166159041D01*
X307914064Y-166230469D01*
X307927292Y-166237208D01*
X307937793Y-166247710D01*
X307945266Y-166248893D01*
X307951386Y-166253340D01*
X307958952Y-166253340D01*
X307965690Y-166256773D01*
X307980353Y-166254450D01*
X307995021Y-166256774D01*
X308001761Y-166253340D01*
X308009326Y-166253340D01*
X308015446Y-166248893D01*
X308022918Y-166247710D01*
X308033417Y-166237210D01*
X308046647Y-166230470D01*
X308118076Y-166159042D01*
X308124816Y-166145812D01*
X308135317Y-166135312D01*
X308137640Y-166120643D01*
X308144380Y-166107416D01*
X308142057Y-166092752D01*
X308144381Y-166078085D01*
X308137639Y-166064854D01*
X308135317Y-166050189D01*
X308124816Y-166039688D01*
X308118076Y-166026459D01*
X308046647Y-165955030D01*
X308033417Y-165948289D01*
X308022917Y-165937789D01*
X308015446Y-165936605D01*
X308009326Y-165932159D01*
X308001761Y-165932159D01*
X307995021Y-165928725D01*
X307980353Y-165931048D01*
X307965690Y-165928726D01*
X307958952Y-165932159D01*
X307951386Y-165932159D01*
X307945265Y-165936605D01*
X307937794Y-165937789D01*
X307927293Y-165948289D01*
X307914064Y-165955030D01*
X307842636Y-166026459D01*
X307835895Y-166039688D01*
X307825396Y-166050188D01*
X307823072Y-166064854D01*
X307816332Y-166078085D01*
X307818654Y-166092750D01*
X307816332Y-166107415D01*
X307241131Y-166107415D01*
X307260934Y-166087612D01*
X307267832Y-166074073D01*
X307278496Y-166063247D01*
X307349924Y-165920390D01*
X307351480Y-165910058D01*
X307357022Y-165901202D01*
X307428451Y-165615488D01*
X307427644Y-165603847D01*
X307431250Y-165592750D01*
X308529464Y-165592750D01*
X308533069Y-165603847D01*
X308532263Y-165615488D01*
X308603691Y-165901201D01*
X308609233Y-165910058D01*
X308610790Y-165920391D01*
X308682218Y-166063247D01*
X308692881Y-166074073D01*
X308699780Y-166087612D01*
X308771209Y-166159041D01*
X308784747Y-166165939D01*
X308795574Y-166176603D01*
X308938431Y-166248031D01*
X308959804Y-166251249D01*
X308980357Y-166257928D01*
X309123214Y-166257928D01*
X309143768Y-166251249D01*
X309165140Y-166248031D01*
X309307997Y-166176603D01*
X309318823Y-166165939D01*
X309332362Y-166159041D01*
X309383988Y-166107415D01*
X309959189Y-166107415D01*
X309965929Y-166120644D01*
X309968253Y-166135313D01*
X309978754Y-166145814D01*
X309985494Y-166159041D01*
X310056921Y-166230469D01*
X310070149Y-166237208D01*
X310080650Y-166247710D01*
X310088123Y-166248893D01*
X310094243Y-166253340D01*
X310101809Y-166253340D01*
X310108547Y-166256773D01*
X310123210Y-166254450D01*
X310137878Y-166256774D01*
X310144618Y-166253340D01*
X310152183Y-166253340D01*
X310158303Y-166248893D01*
X310165775Y-166247710D01*
X310176274Y-166237210D01*
X310189504Y-166230470D01*
X310260933Y-166159042D01*
X310265788Y-166149513D01*
X310602046Y-166149513D01*
X310605480Y-166171194D01*
X310605480Y-166193148D01*
X310609926Y-166199268D01*
X310611110Y-166206740D01*
X310626634Y-166222264D01*
X310639537Y-166240023D01*
X310646730Y-166242360D01*
X310652080Y-166247710D01*
X310673765Y-166251144D01*
X310694642Y-166257928D01*
X311623214Y-166257928D01*
X311678319Y-166240023D01*
X311712376Y-166193148D01*
X311712376Y-166164178D01*
X320386606Y-166164178D01*
X320391194Y-166178298D01*
X320391194Y-166193148D01*
X320399922Y-166205161D01*
X320404511Y-166219283D01*
X320416523Y-166228010D01*
X320425251Y-166240023D01*
X320439372Y-166244611D01*
X320451386Y-166253340D01*
X320466236Y-166253340D01*
X320480356Y-166257928D01*
X320837499Y-166257928D01*
X320851950Y-166253232D01*
X320867145Y-166253117D01*
X321081431Y-166181689D01*
X321098817Y-166168853D01*
X321118076Y-166159041D01*
X321260933Y-166016183D01*
X321267831Y-166002644D01*
X321278494Y-165991819D01*
X321299458Y-165949892D01*
X321815178Y-165949892D01*
X321821856Y-165970446D01*
X321825075Y-165991818D01*
X321896503Y-166134676D01*
X321897027Y-166135208D01*
X321897150Y-166135945D01*
X321917324Y-166155815D01*
X321937162Y-166175956D01*
X321937897Y-166176078D01*
X321938430Y-166176603D01*
X322081289Y-166248031D01*
X322102661Y-166251249D01*
X322123214Y-166257928D01*
X322408928Y-166257928D01*
X322429482Y-166251249D01*
X322450854Y-166248031D01*
X322593711Y-166176603D01*
X322634991Y-166135944D01*
X322644490Y-166078787D01*
X322618579Y-166026964D01*
X322567154Y-166000268D01*
X322509859Y-166008897D01*
X322386796Y-166070428D01*
X322145346Y-166070428D01*
X322050232Y-166022872D01*
X322002678Y-165927760D01*
X322002678Y-165741034D01*
X322641600Y-165613250D01*
X322646529Y-165610483D01*
X322652184Y-165610483D01*
X322671407Y-165596516D01*
X322692124Y-165584886D01*
X322694485Y-165579748D01*
X322699059Y-165576426D01*
X322706400Y-165553832D01*
X322716326Y-165532242D01*
X322715217Y-165526697D01*
X322716964Y-165521321D01*
X322716964Y-165449892D01*
X323100892Y-165449892D01*
X323107570Y-165470446D01*
X323110789Y-165491818D01*
X323182217Y-165634676D01*
X323182741Y-165635208D01*
X323182864Y-165635945D01*
X323203038Y-165655815D01*
X323222876Y-165675956D01*
X323223611Y-165676078D01*
X323224144Y-165676603D01*
X323367003Y-165748031D01*
X323388375Y-165751249D01*
X323408928Y-165757928D01*
X323601082Y-165757928D01*
X323696192Y-165805483D01*
X323743749Y-165900596D01*
X323743749Y-165927760D01*
X323696192Y-166022872D01*
X323601081Y-166070428D01*
X323359631Y-166070428D01*
X323236568Y-166008897D01*
X323179273Y-166000269D01*
X323127849Y-166026964D01*
X323101937Y-166078787D01*
X323111436Y-166135944D01*
X323152716Y-166176603D01*
X323295573Y-166248031D01*
X323316946Y-166251249D01*
X323337499Y-166257928D01*
X323623213Y-166257928D01*
X323643767Y-166251249D01*
X323665139Y-166248031D01*
X323807996Y-166176603D01*
X323808528Y-166176078D01*
X323809264Y-166175956D01*
X323820864Y-166164178D01*
X324386606Y-166164178D01*
X324404511Y-166219283D01*
X324451386Y-166253340D01*
X324509326Y-166253340D01*
X324556201Y-166219283D01*
X324574106Y-166164178D01*
X324574106Y-165878464D01*
X325029464Y-165878464D01*
X325036142Y-165899018D01*
X325039361Y-165920390D01*
X325110789Y-166063247D01*
X325121452Y-166074073D01*
X325128351Y-166087612D01*
X325199780Y-166159041D01*
X325213318Y-166165939D01*
X325224145Y-166176603D01*
X325367002Y-166248031D01*
X325388375Y-166251249D01*
X325408928Y-166257928D01*
X325694642Y-166257928D01*
X325715196Y-166251249D01*
X325736568Y-166248031D01*
X325743750Y-166244440D01*
X325743750Y-166356332D01*
X325689022Y-166465788D01*
X325639110Y-166515699D01*
X325529653Y-166570428D01*
X325359632Y-166570428D01*
X325236568Y-166508897D01*
X325179273Y-166500269D01*
X325127848Y-166526964D01*
X325101937Y-166578788D01*
X325111436Y-166635945D01*
X325152716Y-166676603D01*
X325295575Y-166748031D01*
X325316947Y-166751249D01*
X325337500Y-166757928D01*
X325551785Y-166757928D01*
X325572339Y-166751249D01*
X325593711Y-166748031D01*
X325733492Y-166678141D01*
X330173366Y-166678141D01*
X330199278Y-166729964D01*
X330250702Y-166756659D01*
X330307997Y-166748031D01*
X330450854Y-166676603D01*
X330461680Y-166665939D01*
X330475219Y-166659041D01*
X330546648Y-166587612D01*
X330555258Y-166570713D01*
X330567402Y-166556139D01*
X330710259Y-166198996D01*
X330710380Y-166197163D01*
X330711502Y-166195710D01*
X330743036Y-166107415D01*
X331387761Y-166107415D01*
X331394501Y-166120644D01*
X331396825Y-166135313D01*
X331407326Y-166145814D01*
X331414066Y-166159041D01*
X331485493Y-166230469D01*
X331498721Y-166237208D01*
X331509222Y-166247710D01*
X331516695Y-166248893D01*
X331522815Y-166253340D01*
X331530381Y-166253340D01*
X331537119Y-166256773D01*
X331551782Y-166254450D01*
X331566450Y-166256774D01*
X331573190Y-166253340D01*
X331580755Y-166253340D01*
X331586875Y-166248893D01*
X331594347Y-166247710D01*
X331604846Y-166237210D01*
X331618076Y-166230470D01*
X331689505Y-166159042D01*
X331696245Y-166145812D01*
X331706746Y-166135312D01*
X331709069Y-166120643D01*
X331715809Y-166107416D01*
X331713486Y-166092752D01*
X331715810Y-166078085D01*
X331709068Y-166064854D01*
X331706746Y-166050189D01*
X331696245Y-166039688D01*
X331689505Y-166026459D01*
X331618076Y-165955030D01*
X331604846Y-165948289D01*
X331594346Y-165937789D01*
X331586875Y-165936605D01*
X331580755Y-165932159D01*
X331573190Y-165932159D01*
X331566450Y-165928725D01*
X331551782Y-165931048D01*
X331537119Y-165928726D01*
X331530381Y-165932159D01*
X331522815Y-165932159D01*
X331516694Y-165936605D01*
X331509223Y-165937789D01*
X331498722Y-165948289D01*
X331485493Y-165955030D01*
X331414065Y-166026459D01*
X331407324Y-166039688D01*
X331396825Y-166050188D01*
X331394501Y-166064854D01*
X331387761Y-166078085D01*
X331390083Y-166092750D01*
X331387761Y-166107415D01*
X330743036Y-166107415D01*
X330893214Y-165686916D01*
X333246549Y-165686916D01*
X333317977Y-165972629D01*
X333326551Y-165986331D01*
X333330923Y-166001895D01*
X333473781Y-166216181D01*
X333488307Y-166227656D01*
X333499783Y-166242183D01*
X333714068Y-166385040D01*
X333729630Y-166389411D01*
X333743333Y-166397986D01*
X334029048Y-166469415D01*
X334051786Y-166467839D01*
X334074524Y-166469415D01*
X334360238Y-166397986D01*
X334373941Y-166389411D01*
X334389503Y-166385040D01*
X334603789Y-166242183D01*
X334639708Y-166196718D01*
X334642043Y-166138824D01*
X334609904Y-166090615D01*
X334555565Y-166070504D01*
X334499783Y-166086173D01*
X334299008Y-166220022D01*
X334051785Y-166281828D01*
X333804560Y-166220021D01*
X333619390Y-166096573D01*
X333495940Y-165911400D01*
X333434135Y-165664178D01*
X333495940Y-165416955D01*
X333619390Y-165231782D01*
X333804560Y-165108334D01*
X334051785Y-165046527D01*
X334299008Y-165108333D01*
X334484181Y-165231782D01*
X334600893Y-165406849D01*
X334600893Y-165713475D01*
X334553337Y-165808586D01*
X334458225Y-165856142D01*
X334447761Y-165856142D01*
X334431250Y-165839631D01*
X334431250Y-165307035D01*
X334413345Y-165251930D01*
X334366470Y-165217873D01*
X334308530Y-165217873D01*
X334261655Y-165251930D01*
X334256201Y-165268713D01*
X334165141Y-165223183D01*
X334143769Y-165219963D01*
X334123214Y-165213285D01*
X333980357Y-165213285D01*
X333959799Y-165219964D01*
X333938430Y-165223183D01*
X333795573Y-165294612D01*
X333784748Y-165305273D01*
X333771209Y-165312172D01*
X333699780Y-165383600D01*
X333692880Y-165397140D01*
X333682218Y-165407966D01*
X333610790Y-165550824D01*
X333607571Y-165572195D01*
X333600893Y-165592750D01*
X333600893Y-165735607D01*
X333607571Y-165756161D01*
X333610790Y-165777533D01*
X333682218Y-165920390D01*
X333692880Y-165931215D01*
X333699780Y-165944756D01*
X333771209Y-166016184D01*
X333784748Y-166023082D01*
X333795573Y-166033744D01*
X333938430Y-166105173D01*
X333959799Y-166108391D01*
X333980357Y-166115071D01*
X334123214Y-166115071D01*
X334143769Y-166108392D01*
X334165141Y-166105173D01*
X334307997Y-166033745D01*
X334318822Y-166023082D01*
X334332362Y-166016184D01*
X334337499Y-166011046D01*
X334342636Y-166016183D01*
X334349376Y-166019617D01*
X334353823Y-166025737D01*
X334374702Y-166032521D01*
X334394262Y-166042487D01*
X334401732Y-166041303D01*
X334408928Y-166043642D01*
X334480357Y-166043642D01*
X334500911Y-166036963D01*
X334522283Y-166033745D01*
X334665140Y-165962317D01*
X334665672Y-165961792D01*
X334666408Y-165961670D01*
X334678008Y-165949892D01*
X335172321Y-165949892D01*
X335178999Y-165970446D01*
X335182218Y-165991818D01*
X335253646Y-166134676D01*
X335254170Y-166135208D01*
X335254293Y-166135945D01*
X335274467Y-166155815D01*
X335294305Y-166175956D01*
X335295040Y-166176078D01*
X335295573Y-166176603D01*
X335438432Y-166248031D01*
X335459804Y-166251249D01*
X335480357Y-166257928D01*
X335837499Y-166257928D01*
X335858053Y-166251249D01*
X335879425Y-166248031D01*
X335917723Y-166228881D01*
X335951387Y-166253340D01*
X336009327Y-166253340D01*
X336056202Y-166219283D01*
X336074107Y-166164178D01*
X336600892Y-166164178D01*
X336618797Y-166219283D01*
X336665672Y-166253340D01*
X336723612Y-166253340D01*
X336770487Y-166219283D01*
X336788392Y-166164178D01*
X336788392Y-165345868D01*
X336821605Y-165312655D01*
X336931060Y-165257928D01*
X337101083Y-165257928D01*
X337196193Y-165305483D01*
X337243750Y-165400596D01*
X337243750Y-166164178D01*
X337261655Y-166219283D01*
X337308530Y-166253340D01*
X337366470Y-166253340D01*
X337413345Y-166219283D01*
X337431250Y-166164178D01*
X337431250Y-165400595D01*
X337478805Y-165305483D01*
X337573917Y-165257928D01*
X337743940Y-165257928D01*
X337839050Y-165305483D01*
X337886607Y-165400596D01*
X337886607Y-166164178D01*
X337904512Y-166219283D01*
X337951387Y-166253340D01*
X338009327Y-166253340D01*
X338056202Y-166219283D01*
X338074107Y-166164178D01*
X338600892Y-166164178D01*
X338618797Y-166219283D01*
X338665672Y-166253340D01*
X338723612Y-166253340D01*
X338770487Y-166219283D01*
X338788392Y-166164178D01*
X338788392Y-165774439D01*
X338827356Y-165735474D01*
X339191071Y-166220428D01*
X339238458Y-166253769D01*
X339296392Y-166252890D01*
X339342744Y-166218126D01*
X339359371Y-166164178D01*
X339815178Y-166164178D01*
X339833083Y-166219283D01*
X339879958Y-166253340D01*
X339937898Y-166253340D01*
X339984773Y-166219283D01*
X340002678Y-166164178D01*
X340002678Y-165774439D01*
X340041642Y-165735474D01*
X340405357Y-166220428D01*
X340452744Y-166253769D01*
X340510678Y-166252890D01*
X340557030Y-166218126D01*
X340573657Y-166164178D01*
X341029464Y-166164178D01*
X341047369Y-166219283D01*
X341094244Y-166253340D01*
X341152184Y-166253340D01*
X341199059Y-166219283D01*
X341216964Y-166164178D01*
X341216964Y-165472023D01*
X341271690Y-165362570D01*
X341321606Y-165312655D01*
X341431061Y-165257928D01*
X341551786Y-165257928D01*
X341606891Y-165240023D01*
X341640948Y-165193148D01*
X341640948Y-165135208D01*
X341606891Y-165088333D01*
X341551786Y-165070428D01*
X341408929Y-165070428D01*
X341388371Y-165077107D01*
X341367002Y-165080326D01*
X341224145Y-165151755D01*
X341215647Y-165160125D01*
X341199059Y-165109073D01*
X341152184Y-165075016D01*
X341094244Y-165075016D01*
X341047369Y-165109073D01*
X341029464Y-165164178D01*
X341029464Y-166164178D01*
X340573657Y-166164178D01*
X340574096Y-166162755D01*
X340555357Y-166107928D01*
X340175570Y-165601546D01*
X340546649Y-165230469D01*
X340572953Y-165178843D01*
X340563889Y-165121616D01*
X340522919Y-165080646D01*
X340465692Y-165071582D01*
X340414066Y-165097886D01*
X340002678Y-165509274D01*
X340002678Y-164664178D01*
X339984773Y-164609073D01*
X339937898Y-164575016D01*
X339879958Y-164575016D01*
X339833083Y-164609073D01*
X339815178Y-164664178D01*
X339815178Y-166164178D01*
X339359371Y-166164178D01*
X339359810Y-166162755D01*
X339341071Y-166107928D01*
X338961284Y-165601546D01*
X339332363Y-165230469D01*
X339358667Y-165178843D01*
X339349603Y-165121616D01*
X339308633Y-165080646D01*
X339251406Y-165071582D01*
X339199780Y-165097886D01*
X338788392Y-165509274D01*
X338788392Y-164664178D01*
X338770487Y-164609073D01*
X338723612Y-164575016D01*
X338665672Y-164575016D01*
X338618797Y-164609073D01*
X338600892Y-164664178D01*
X338600892Y-166164178D01*
X338074107Y-166164178D01*
X338074107Y-165378464D01*
X338067427Y-165357906D01*
X338064209Y-165336537D01*
X337992780Y-165193680D01*
X337992256Y-165193148D01*
X337992134Y-165192413D01*
X337971976Y-165172558D01*
X337952122Y-165152401D01*
X337951386Y-165152278D01*
X337950854Y-165151754D01*
X337807998Y-165080326D01*
X337786626Y-165077106D01*
X337766071Y-165070428D01*
X337551785Y-165070428D01*
X337531227Y-165077107D01*
X337509858Y-165080326D01*
X337367001Y-165151755D01*
X337366469Y-165152278D01*
X337365734Y-165152401D01*
X337345879Y-165172558D01*
X337337499Y-165180812D01*
X337329119Y-165172558D01*
X337309265Y-165152401D01*
X337308529Y-165152278D01*
X337307997Y-165151754D01*
X337165141Y-165080326D01*
X337143769Y-165077106D01*
X337123214Y-165070428D01*
X336908928Y-165070428D01*
X336888370Y-165077107D01*
X336867001Y-165080326D01*
X336775940Y-165125856D01*
X336770487Y-165109073D01*
X336723612Y-165075016D01*
X336665672Y-165075016D01*
X336618797Y-165109073D01*
X336600892Y-165164178D01*
X336600892Y-166164178D01*
X336074107Y-166164178D01*
X336074107Y-165378464D01*
X336067427Y-165357906D01*
X336064209Y-165336537D01*
X335992780Y-165193680D01*
X335992256Y-165193148D01*
X335992134Y-165192413D01*
X335971976Y-165172558D01*
X335952122Y-165152401D01*
X335951386Y-165152278D01*
X335950854Y-165151754D01*
X335807998Y-165080326D01*
X335786626Y-165077106D01*
X335766071Y-165070428D01*
X335480357Y-165070428D01*
X335459802Y-165077106D01*
X335438431Y-165080325D01*
X335295573Y-165151754D01*
X335254293Y-165192413D01*
X335244794Y-165249570D01*
X335270706Y-165301393D01*
X335322131Y-165328089D01*
X335379425Y-165319460D01*
X335502489Y-165257928D01*
X335743940Y-165257928D01*
X335839050Y-165305483D01*
X335886607Y-165400596D01*
X335886607Y-165463380D01*
X335815367Y-165499000D01*
X335480357Y-165499000D01*
X335459804Y-165505678D01*
X335438432Y-165508897D01*
X335295573Y-165580325D01*
X335295040Y-165580849D01*
X335294305Y-165580972D01*
X335274467Y-165601112D01*
X335254293Y-165620983D01*
X335254170Y-165621719D01*
X335253646Y-165622252D01*
X335182218Y-165765109D01*
X335178999Y-165786480D01*
X335172321Y-165807035D01*
X335172321Y-165949892D01*
X334678008Y-165949892D01*
X334686262Y-165941512D01*
X334706420Y-165921658D01*
X334706542Y-165920922D01*
X334707066Y-165920391D01*
X334778495Y-165777534D01*
X334781713Y-165756164D01*
X334788393Y-165735607D01*
X334788393Y-165378464D01*
X334779998Y-165352627D01*
X334772648Y-165326461D01*
X334629791Y-165112175D01*
X334615265Y-165100699D01*
X334603789Y-165086173D01*
X334389503Y-164943316D01*
X334373941Y-164938944D01*
X334360238Y-164930370D01*
X334074524Y-164858941D01*
X334051786Y-164860516D01*
X334029048Y-164858941D01*
X333743333Y-164930370D01*
X333729630Y-164938944D01*
X333714068Y-164943316D01*
X333499783Y-165086173D01*
X333488307Y-165100699D01*
X333473781Y-165112175D01*
X333330923Y-165326461D01*
X333326551Y-165342024D01*
X333317977Y-165355727D01*
X333246549Y-165641440D01*
X333248124Y-165664178D01*
X333246549Y-165686916D01*
X330893214Y-165686916D01*
X331023649Y-165321700D01*
X331387761Y-165321700D01*
X331394501Y-165334930D01*
X331396825Y-165349597D01*
X331407324Y-165360096D01*
X331414065Y-165373326D01*
X331485493Y-165444755D01*
X331498722Y-165451495D01*
X331509223Y-165461996D01*
X331516694Y-165463179D01*
X331522815Y-165467626D01*
X331530381Y-165467626D01*
X331537119Y-165471059D01*
X331551782Y-165468736D01*
X331566450Y-165471060D01*
X331573190Y-165467626D01*
X331580755Y-165467626D01*
X331586875Y-165463179D01*
X331594346Y-165461996D01*
X331604846Y-165451495D01*
X331618076Y-165444755D01*
X331689505Y-165373326D01*
X331696245Y-165360096D01*
X331706746Y-165349596D01*
X331709068Y-165334930D01*
X331715810Y-165321700D01*
X331713486Y-165307032D01*
X331715809Y-165292369D01*
X331709069Y-165279141D01*
X331706746Y-165264473D01*
X331696245Y-165253972D01*
X331689505Y-165240743D01*
X331618076Y-165169315D01*
X331604846Y-165162574D01*
X331594347Y-165152075D01*
X331586875Y-165150891D01*
X331580755Y-165146445D01*
X331573190Y-165146445D01*
X331566450Y-165143011D01*
X331551782Y-165145334D01*
X331537119Y-165143012D01*
X331530381Y-165146445D01*
X331522815Y-165146445D01*
X331516695Y-165150891D01*
X331509222Y-165152075D01*
X331498721Y-165162576D01*
X331485493Y-165169316D01*
X331414066Y-165240744D01*
X331407326Y-165253970D01*
X331396825Y-165264472D01*
X331394501Y-165279140D01*
X331387761Y-165292370D01*
X331390083Y-165307034D01*
X331387761Y-165321700D01*
X331023649Y-165321700D01*
X331068645Y-165195710D01*
X331070317Y-165137793D01*
X331037628Y-165089954D01*
X330983063Y-165070467D01*
X330927464Y-165086774D01*
X330892069Y-165132647D01*
X330623214Y-165885439D01*
X330354359Y-165132646D01*
X330318964Y-165086774D01*
X330263365Y-165070467D01*
X330208800Y-165089954D01*
X330176111Y-165137793D01*
X330177783Y-165195710D01*
X330522993Y-166162298D01*
X330400457Y-166468638D01*
X330353396Y-166515699D01*
X330224145Y-166580325D01*
X330182865Y-166620984D01*
X330173366Y-166678141D01*
X325733492Y-166678141D01*
X325736568Y-166676603D01*
X325747394Y-166665939D01*
X325760933Y-166659041D01*
X325832362Y-166587612D01*
X325839260Y-166574073D01*
X325849923Y-166563248D01*
X325921352Y-166420391D01*
X325924570Y-166399021D01*
X325931250Y-166378464D01*
X325931250Y-166164178D01*
X326458035Y-166164178D01*
X326475940Y-166219283D01*
X326522815Y-166253340D01*
X326580755Y-166253340D01*
X326627630Y-166219283D01*
X326645535Y-166164178D01*
X326645535Y-165345868D01*
X326678748Y-165312655D01*
X326788203Y-165257928D01*
X326958226Y-165257928D01*
X327053336Y-165305483D01*
X327100893Y-165400596D01*
X327100893Y-166164178D01*
X327118798Y-166219283D01*
X327165673Y-166253340D01*
X327223613Y-166253340D01*
X327270488Y-166219283D01*
X327288393Y-166164178D01*
X328958035Y-166164178D01*
X328975940Y-166219283D01*
X329022815Y-166253340D01*
X329080755Y-166253340D01*
X329114418Y-166228881D01*
X329152718Y-166248031D01*
X329174090Y-166251249D01*
X329194643Y-166257928D01*
X329480357Y-166257928D01*
X329500911Y-166251249D01*
X329522283Y-166248031D01*
X329665140Y-166176603D01*
X329675966Y-166165939D01*
X329689505Y-166159041D01*
X329760934Y-166087612D01*
X329767832Y-166074073D01*
X329778496Y-166063247D01*
X329849924Y-165920390D01*
X329853142Y-165899016D01*
X329859821Y-165878464D01*
X329859821Y-165449892D01*
X329853142Y-165429339D01*
X329849924Y-165407966D01*
X329778496Y-165265109D01*
X329767832Y-165254282D01*
X329760934Y-165240743D01*
X329689505Y-165169315D01*
X329675965Y-165162416D01*
X329665140Y-165151754D01*
X329522284Y-165080326D01*
X329500912Y-165077106D01*
X329480357Y-165070428D01*
X329194643Y-165070428D01*
X329174088Y-165077106D01*
X329152717Y-165080325D01*
X329145535Y-165083916D01*
X329145535Y-164664178D01*
X329127630Y-164609073D01*
X329080755Y-164575016D01*
X329022815Y-164575016D01*
X328975940Y-164609073D01*
X328958035Y-164664178D01*
X328958035Y-166164178D01*
X327288393Y-166164178D01*
X327288393Y-165378464D01*
X327281713Y-165357906D01*
X327278495Y-165336537D01*
X327207066Y-165193680D01*
X327206542Y-165193148D01*
X327206420Y-165192413D01*
X327186262Y-165172558D01*
X327166408Y-165152401D01*
X327165672Y-165152278D01*
X327165140Y-165151754D01*
X327022284Y-165080326D01*
X327000912Y-165077106D01*
X326980357Y-165070428D01*
X326766071Y-165070428D01*
X326745513Y-165077107D01*
X326724144Y-165080326D01*
X326633083Y-165125856D01*
X326627630Y-165109073D01*
X326580755Y-165075016D01*
X326522815Y-165075016D01*
X326475940Y-165109073D01*
X326458035Y-165164178D01*
X326458035Y-166164178D01*
X325931250Y-166164178D01*
X325931250Y-165164178D01*
X325913345Y-165109073D01*
X325866470Y-165075016D01*
X325808530Y-165075016D01*
X325774866Y-165099474D01*
X325736568Y-165080325D01*
X325715194Y-165077105D01*
X325694642Y-165070428D01*
X325408928Y-165070428D01*
X325388370Y-165077107D01*
X325367001Y-165080326D01*
X325224144Y-165151755D01*
X325213319Y-165162416D01*
X325199780Y-165169315D01*
X325128351Y-165240743D01*
X325121451Y-165254283D01*
X325110789Y-165265109D01*
X325039361Y-165407966D01*
X325036142Y-165429337D01*
X325029464Y-165449892D01*
X325029464Y-165878464D01*
X324574106Y-165878464D01*
X324574106Y-165164178D01*
X324556201Y-165109073D01*
X324509326Y-165075016D01*
X324451386Y-165075016D01*
X324404511Y-165109073D01*
X324386606Y-165164178D01*
X324386606Y-166164178D01*
X323820864Y-166164178D01*
X323829118Y-166155798D01*
X323849276Y-166135944D01*
X323849398Y-166135208D01*
X323849923Y-166134676D01*
X323921352Y-165991818D01*
X323924570Y-165970446D01*
X323931249Y-165949892D01*
X323931249Y-165878464D01*
X323924569Y-165857906D01*
X323921351Y-165836537D01*
X323849922Y-165693680D01*
X323849398Y-165693148D01*
X323849276Y-165692413D01*
X323829118Y-165672558D01*
X323809264Y-165652401D01*
X323808528Y-165652278D01*
X323807996Y-165651754D01*
X323665140Y-165580326D01*
X323643768Y-165577106D01*
X323623213Y-165570428D01*
X323431060Y-165570428D01*
X323335946Y-165522872D01*
X323288392Y-165427760D01*
X323288392Y-165400595D01*
X323335947Y-165305484D01*
X323431060Y-165257928D01*
X323601082Y-165257928D01*
X323724143Y-165319459D01*
X323781438Y-165328088D01*
X323832863Y-165301393D01*
X323858774Y-165249570D01*
X323849276Y-165192413D01*
X323807996Y-165151754D01*
X323665140Y-165080326D01*
X323643768Y-165077106D01*
X323623213Y-165070428D01*
X323408928Y-165070428D01*
X323388373Y-165077106D01*
X323367002Y-165080325D01*
X323224144Y-165151754D01*
X323223611Y-165152278D01*
X323222876Y-165152401D01*
X323203021Y-165172558D01*
X323182864Y-165192413D01*
X323182741Y-165193148D01*
X323182217Y-165193681D01*
X323110789Y-165336538D01*
X323107570Y-165357909D01*
X323100892Y-165378464D01*
X323100892Y-165449892D01*
X322716964Y-165449892D01*
X322716964Y-165378464D01*
X322710284Y-165357906D01*
X322707066Y-165336537D01*
X322635637Y-165193680D01*
X322635113Y-165193148D01*
X322634991Y-165192413D01*
X322614833Y-165172558D01*
X322594979Y-165152401D01*
X322594243Y-165152278D01*
X322593711Y-165151754D01*
X322450855Y-165080326D01*
X322429483Y-165077106D01*
X322408928Y-165070428D01*
X322123214Y-165070428D01*
X322102659Y-165077106D01*
X322081288Y-165080325D01*
X321938430Y-165151754D01*
X321937897Y-165152278D01*
X321937162Y-165152401D01*
X321917307Y-165172558D01*
X321897150Y-165192413D01*
X321897027Y-165193148D01*
X321896503Y-165193681D01*
X321825075Y-165336538D01*
X321821856Y-165357909D01*
X321815178Y-165378464D01*
X321815178Y-165949892D01*
X321299458Y-165949892D01*
X321349923Y-165848962D01*
X321351478Y-165838631D01*
X321357022Y-165829773D01*
X321428450Y-165544059D01*
X321427643Y-165532418D01*
X321431249Y-165521321D01*
X321431249Y-165307035D01*
X321427643Y-165295937D01*
X321428450Y-165284297D01*
X321357022Y-164998583D01*
X321351478Y-164989724D01*
X321349923Y-164979394D01*
X321278494Y-164836537D01*
X321267830Y-164825711D01*
X321260933Y-164812173D01*
X321199032Y-164750272D01*
X324316332Y-164750272D01*
X324323072Y-164763501D01*
X324325396Y-164778170D01*
X324335897Y-164788671D01*
X324342637Y-164801898D01*
X324414064Y-164873326D01*
X324427292Y-164880065D01*
X324437793Y-164890567D01*
X324445266Y-164891750D01*
X324451386Y-164896197D01*
X324458952Y-164896197D01*
X324465690Y-164899630D01*
X324480353Y-164897307D01*
X324495021Y-164899631D01*
X324501761Y-164896197D01*
X324509326Y-164896197D01*
X324515446Y-164891750D01*
X324522918Y-164890567D01*
X324533417Y-164880067D01*
X324546647Y-164873327D01*
X324618076Y-164801899D01*
X324624816Y-164788669D01*
X324635317Y-164778169D01*
X324637640Y-164763500D01*
X324644380Y-164750273D01*
X324642057Y-164735609D01*
X324644381Y-164720942D01*
X324637639Y-164707711D01*
X324635317Y-164693046D01*
X324624816Y-164682545D01*
X324618076Y-164669316D01*
X324546647Y-164597887D01*
X324533417Y-164591146D01*
X324522917Y-164580646D01*
X324515446Y-164579462D01*
X324509326Y-164575016D01*
X324501761Y-164575016D01*
X324495021Y-164571582D01*
X324480353Y-164573905D01*
X324465690Y-164571583D01*
X324458952Y-164575016D01*
X324451386Y-164575016D01*
X324445265Y-164579462D01*
X324437794Y-164580646D01*
X324427293Y-164591146D01*
X324414064Y-164597887D01*
X324342636Y-164669316D01*
X324335895Y-164682545D01*
X324325396Y-164693045D01*
X324323072Y-164707711D01*
X324316332Y-164720942D01*
X324318654Y-164735607D01*
X324316332Y-164750272D01*
X321199032Y-164750272D01*
X321118076Y-164669316D01*
X321098818Y-164659503D01*
X321081431Y-164646668D01*
X320867145Y-164575239D01*
X320851950Y-164575123D01*
X320837499Y-164570428D01*
X320480356Y-164570428D01*
X320466236Y-164575016D01*
X320451386Y-164575016D01*
X320439372Y-164583744D01*
X320425251Y-164588333D01*
X320416523Y-164600345D01*
X320404511Y-164609073D01*
X320399922Y-164623194D01*
X320391194Y-164635208D01*
X320391194Y-164650057D01*
X320386606Y-164664178D01*
X320386606Y-166164178D01*
X311712376Y-166164178D01*
X311712376Y-166135208D01*
X311678319Y-166088333D01*
X311623214Y-166070428D01*
X310920974Y-166070428D01*
X311618076Y-165373326D01*
X311627886Y-165354072D01*
X311640724Y-165336682D01*
X311712153Y-165122397D01*
X311712268Y-165107201D01*
X311716964Y-165092750D01*
X311716964Y-164949892D01*
X311710284Y-164929334D01*
X311707066Y-164907965D01*
X311635637Y-164765108D01*
X311624974Y-164754282D01*
X311618076Y-164740743D01*
X311546648Y-164669316D01*
X311533109Y-164662417D01*
X311522283Y-164651754D01*
X311379425Y-164580325D01*
X311358051Y-164577105D01*
X311337499Y-164570428D01*
X310980357Y-164570428D01*
X310959802Y-164577106D01*
X310938431Y-164580325D01*
X310795573Y-164651754D01*
X310784746Y-164662417D01*
X310771207Y-164669316D01*
X310699780Y-164740744D01*
X310673475Y-164792370D01*
X310682539Y-164849597D01*
X310723509Y-164890567D01*
X310780736Y-164899631D01*
X310832362Y-164873326D01*
X310893032Y-164812656D01*
X311002489Y-164757928D01*
X311315367Y-164757928D01*
X311424824Y-164812656D01*
X311474736Y-164862569D01*
X311529464Y-164972024D01*
X311529464Y-165077536D01*
X311469844Y-165256393D01*
X310628351Y-166097887D01*
X310618385Y-166117445D01*
X310605480Y-166135208D01*
X310605480Y-166142773D01*
X310602046Y-166149513D01*
X310265788Y-166149513D01*
X310267673Y-166145812D01*
X310278174Y-166135312D01*
X310280497Y-166120643D01*
X310287237Y-166107416D01*
X310284914Y-166092752D01*
X310287238Y-166078085D01*
X310280496Y-166064854D01*
X310278174Y-166050189D01*
X310267673Y-166039688D01*
X310260933Y-166026459D01*
X310189504Y-165955030D01*
X310176274Y-165948289D01*
X310165774Y-165937789D01*
X310158303Y-165936605D01*
X310152183Y-165932159D01*
X310144618Y-165932159D01*
X310137878Y-165928725D01*
X310123210Y-165931048D01*
X310108547Y-165928726D01*
X310101809Y-165932159D01*
X310094243Y-165932159D01*
X310088122Y-165936605D01*
X310080651Y-165937789D01*
X310070150Y-165948289D01*
X310056921Y-165955030D01*
X309985493Y-166026459D01*
X309978752Y-166039688D01*
X309968253Y-166050188D01*
X309965929Y-166064854D01*
X309959189Y-166078085D01*
X309961511Y-166092750D01*
X309959189Y-166107415D01*
X309383988Y-166107415D01*
X309403791Y-166087612D01*
X309410689Y-166074073D01*
X309421353Y-166063247D01*
X309492781Y-165920390D01*
X309494337Y-165910058D01*
X309499879Y-165901202D01*
X309571308Y-165615488D01*
X309570501Y-165603847D01*
X309574107Y-165592750D01*
X309574107Y-165235607D01*
X309570501Y-165224509D01*
X309571308Y-165212869D01*
X309499879Y-164927154D01*
X309494337Y-164918297D01*
X309492781Y-164907966D01*
X309421353Y-164765109D01*
X309410689Y-164754282D01*
X309403791Y-164740743D01*
X309332362Y-164669315D01*
X309318822Y-164662416D01*
X309307997Y-164651754D01*
X309165141Y-164580326D01*
X309143769Y-164577106D01*
X309123214Y-164570428D01*
X308980357Y-164570428D01*
X308959799Y-164577107D01*
X308938430Y-164580326D01*
X308795573Y-164651755D01*
X308784748Y-164662416D01*
X308771209Y-164669315D01*
X308699780Y-164740743D01*
X308692880Y-164754283D01*
X308682218Y-164765109D01*
X308610790Y-164907965D01*
X308609233Y-164918297D01*
X308603691Y-164927155D01*
X308532263Y-165212870D01*
X308533069Y-165224509D01*
X308529464Y-165235607D01*
X308529464Y-165592750D01*
X307431250Y-165592750D01*
X307431250Y-165235607D01*
X307427644Y-165224509D01*
X307428451Y-165212869D01*
X307357022Y-164927154D01*
X307351480Y-164918297D01*
X307349924Y-164907966D01*
X307278496Y-164765109D01*
X307267832Y-164754282D01*
X307260934Y-164740743D01*
X307189505Y-164669315D01*
X307175965Y-164662416D01*
X307165140Y-164651754D01*
X307022284Y-164580326D01*
X307000912Y-164577106D01*
X306980357Y-164570428D01*
X306837500Y-164570428D01*
X306816942Y-164577107D01*
X306795573Y-164580326D01*
X306652716Y-164651755D01*
X306641891Y-164662416D01*
X306628352Y-164669315D01*
X306556923Y-164740743D01*
X306550023Y-164754283D01*
X306539361Y-164765109D01*
X306467933Y-164907965D01*
X306466376Y-164918297D01*
X306460834Y-164927155D01*
X306389406Y-165212870D01*
X306390212Y-165224509D01*
X306386607Y-165235607D01*
X306386607Y-165592750D01*
X305926845Y-165592750D01*
X306068645Y-165195710D01*
X306070317Y-165137793D01*
X306037628Y-165089954D01*
X305983063Y-165070467D01*
X305927464Y-165086774D01*
X305892069Y-165132647D01*
X305623214Y-165885439D01*
X305354359Y-165132646D01*
X305318964Y-165086774D01*
X305263365Y-165070467D01*
X305208800Y-165089954D01*
X305176111Y-165137793D01*
X303645536Y-165137793D01*
X303645536Y-164664178D01*
X303627631Y-164609073D01*
X303580756Y-164575016D01*
X303522816Y-164575016D01*
X303475941Y-164609073D01*
X303458036Y-164664178D01*
X303458036Y-165083916D01*
X303450854Y-165080325D01*
X303429480Y-165077105D01*
X303408928Y-165070428D01*
X303123214Y-165070428D01*
X303102656Y-165077107D01*
X303081287Y-165080326D01*
X302938430Y-165151755D01*
X302927605Y-165162416D01*
X302914066Y-165169315D01*
X302842637Y-165240743D01*
X302835737Y-165254283D01*
X302825075Y-165265109D01*
X302753647Y-165407966D01*
X302750428Y-165429337D01*
X302743750Y-165449892D01*
X302743750Y-165878464D01*
X302359821Y-165878464D01*
X302359821Y-165449892D01*
X302353142Y-165429339D01*
X302349924Y-165407966D01*
X302278496Y-165265109D01*
X302267832Y-165254282D01*
X302260934Y-165240743D01*
X302189505Y-165169315D01*
X302175965Y-165162416D01*
X302165140Y-165151754D01*
X302022284Y-165080326D01*
X302000912Y-165077106D01*
X301980357Y-165070428D01*
X301694643Y-165070428D01*
X301674088Y-165077106D01*
X301652717Y-165080325D01*
X301645535Y-165083916D01*
X301645535Y-164664178D01*
X301627630Y-164609073D01*
X301580755Y-164575016D01*
X301522815Y-164575016D01*
X301475940Y-164609073D01*
X301458035Y-164664178D01*
X301458035Y-166164178D01*
X300931250Y-166164178D01*
X300931250Y-164664178D01*
X300913345Y-164609073D01*
X300866470Y-164575016D01*
X300808530Y-164575016D01*
X300761655Y-164609073D01*
X300743750Y-164664178D01*
X300743750Y-165083916D01*
X300736568Y-165080325D01*
X300715194Y-165077105D01*
X300694642Y-165070428D01*
X300408928Y-165070428D01*
X300388370Y-165077107D01*
X300367001Y-165080326D01*
X300224144Y-165151755D01*
X300213319Y-165162416D01*
X300199780Y-165169315D01*
X300128351Y-165240743D01*
X300121451Y-165254283D01*
X300110789Y-165265109D01*
X300039361Y-165407966D01*
X300036142Y-165429337D01*
X300029464Y-165449892D01*
X300029464Y-165878464D01*
X299574107Y-165878464D01*
X299574107Y-165378464D01*
X299567427Y-165357906D01*
X299564209Y-165336537D01*
X299492780Y-165193680D01*
X299492256Y-165193148D01*
X299492134Y-165192413D01*
X299471976Y-165172558D01*
X299452122Y-165152401D01*
X299451386Y-165152278D01*
X299450854Y-165151754D01*
X299307998Y-165080326D01*
X299286626Y-165077106D01*
X299266071Y-165070428D01*
X298980357Y-165070428D01*
X298959802Y-165077106D01*
X298938431Y-165080325D01*
X298795573Y-165151754D01*
X298754293Y-165192413D01*
X298744794Y-165249570D01*
X298770706Y-165301393D01*
X298822131Y-165328089D01*
X298879425Y-165319460D01*
X299002489Y-165257928D01*
X299243940Y-165257928D01*
X299339050Y-165305483D01*
X299386607Y-165400596D01*
X299386607Y-165463380D01*
X299315367Y-165499000D01*
X298980357Y-165499000D01*
X298959804Y-165505678D01*
X298938432Y-165508897D01*
X298795573Y-165580325D01*
X298795040Y-165580849D01*
X298794305Y-165580972D01*
X298774467Y-165601112D01*
X298754293Y-165620983D01*
X298754170Y-165621719D01*
X298753646Y-165622252D01*
X298682218Y-165765109D01*
X298678999Y-165786480D01*
X298672321Y-165807035D01*
X298672321Y-165949892D01*
X298216964Y-165949892D01*
X298216964Y-165378464D01*
X298210284Y-165357906D01*
X298207066Y-165336537D01*
X298135637Y-165193680D01*
X298135113Y-165193148D01*
X298134991Y-165192413D01*
X298114833Y-165172558D01*
X298094979Y-165152401D01*
X298094243Y-165152278D01*
X298093711Y-165151754D01*
X297950855Y-165080326D01*
X297929483Y-165077106D01*
X297908928Y-165070428D01*
X297694642Y-165070428D01*
X297674084Y-165077107D01*
X297652715Y-165080326D01*
X297509858Y-165151755D01*
X297509326Y-165152278D01*
X297508591Y-165152401D01*
X297488736Y-165172558D01*
X297480356Y-165180812D01*
X297471976Y-165172558D01*
X297452122Y-165152401D01*
X297451386Y-165152278D01*
X297450854Y-165151754D01*
X297307998Y-165080326D01*
X297286626Y-165077106D01*
X297266071Y-165070428D01*
X297051785Y-165070428D01*
X297031227Y-165077107D01*
X297009858Y-165080326D01*
X296918797Y-165125856D01*
X296913344Y-165109073D01*
X296866469Y-165075016D01*
X296808529Y-165075016D01*
X296761654Y-165109073D01*
X296743749Y-165164178D01*
X296743749Y-166164178D01*
X296529463Y-166164178D01*
X296529463Y-164356142D01*
X345395536Y-164356142D01*
X345395536Y-169098701D01*
G37*
M02*
