G04 #@! TF.GenerationSoftware,KiCad,Pcbnew,7.0.10*
G04 #@! TF.CreationDate,2024-03-22T12:38:25+09:00*
G04 #@! TF.ProjectId,first_keyboard,66697273-745f-46b6-9579-626f6172642e,rev?*
G04 #@! TF.SameCoordinates,Original*
G04 #@! TF.FileFunction,Copper,L2,Bot*
G04 #@! TF.FilePolarity,Positive*
%FSLAX46Y46*%
G04 Gerber Fmt 4.6, Leading zero omitted, Abs format (unit mm)*
G04 Created by KiCad (PCBNEW 7.0.10) date 2024-03-22 12:38:25*
%MOMM*%
%LPD*%
G01*
G04 APERTURE LIST*
G04 #@! TA.AperFunction,ComponentPad*
%ADD10R,1.397000X1.397000*%
G04 #@! TD*
G04 #@! TA.AperFunction,SMDPad,CuDef*
%ADD11R,0.950000X1.300000*%
G04 #@! TD*
G04 #@! TA.AperFunction,ComponentPad*
%ADD12C,1.397000*%
G04 #@! TD*
G04 #@! TA.AperFunction,ComponentPad*
%ADD13O,2.500000X2.000000*%
G04 #@! TD*
G04 #@! TA.AperFunction,ComponentPad*
%ADD14O,1.700000X1.700000*%
G04 #@! TD*
G04 #@! TA.AperFunction,ComponentPad*
%ADD15R,1.700000X1.700000*%
G04 #@! TD*
G04 #@! TA.AperFunction,ComponentPad*
%ADD16O,2.000000X2.500000*%
G04 #@! TD*
G04 #@! TA.AperFunction,ComponentPad*
%ADD17C,2.000000*%
G04 #@! TD*
G04 #@! TA.AperFunction,ViaPad*
%ADD18C,0.800000*%
G04 #@! TD*
G04 #@! TA.AperFunction,Conductor*
%ADD19C,0.250000*%
G04 #@! TD*
G04 APERTURE END LIST*
D10*
X204787500Y-46672500D03*
D11*
X204787500Y-44637500D03*
X204787500Y-41087500D03*
D12*
X204787500Y-39052500D03*
D13*
X210502500Y-80803700D03*
X216852500Y-78263700D03*
D10*
X109537500Y-104428700D03*
D11*
X109537500Y-102393700D03*
X109537500Y-98843700D03*
D12*
X109537500Y-96808700D03*
D10*
X185737500Y-103822500D03*
D11*
X185737500Y-101787500D03*
X185737500Y-98237500D03*
D12*
X185737500Y-96202500D03*
D10*
X14287500Y-84772500D03*
D11*
X14287500Y-82737500D03*
X14287500Y-79187500D03*
D12*
X14287500Y-77152500D03*
D13*
X58102500Y-42703700D03*
X64452500Y-40163700D03*
X39052500Y-61753700D03*
X45402500Y-59213700D03*
D14*
X138791300Y-37782500D03*
X138791300Y-40322500D03*
D15*
X138791300Y-42862500D03*
D14*
X138791300Y-45402500D03*
X138791300Y-47942500D03*
X138791300Y-50482500D03*
X138791300Y-53022500D03*
D15*
X138791300Y-55562500D03*
D14*
X138791300Y-58102500D03*
X138791300Y-60642500D03*
X138791300Y-63182500D03*
X138791300Y-65722500D03*
D15*
X138791300Y-68262500D03*
D14*
X138791300Y-70802500D03*
X138791300Y-73342500D03*
X138791300Y-75882500D03*
X138791300Y-78422500D03*
D15*
X138791300Y-80962500D03*
D14*
X138791300Y-83502500D03*
X138791300Y-86042500D03*
X156571300Y-86042500D03*
X156571300Y-83502500D03*
D15*
X156571300Y-80962500D03*
D14*
X156571300Y-78422500D03*
X156571300Y-75882500D03*
X156571300Y-73342500D03*
X156571300Y-70802500D03*
D15*
X156571300Y-68262500D03*
D14*
X156571300Y-65722500D03*
X156571300Y-63182500D03*
X156571300Y-60642500D03*
X156571300Y-58102500D03*
D15*
X156571300Y-55562500D03*
D14*
X156571300Y-53022500D03*
X156571300Y-50482500D03*
X156571300Y-47942500D03*
X156571300Y-45402500D03*
D15*
X156571300Y-42862500D03*
D14*
X156571300Y-40322500D03*
X156571300Y-37782500D03*
X145141300Y-85812500D03*
D15*
X147681300Y-85812500D03*
D14*
X150221300Y-85812500D03*
D13*
X20002500Y-42703700D03*
X26352500Y-40163700D03*
D10*
X185737500Y-46672500D03*
D11*
X185737500Y-44637500D03*
X185737500Y-41087500D03*
D12*
X185737500Y-39052500D03*
D13*
X210502500Y-42703700D03*
X216852500Y-40163700D03*
X210502500Y-61753700D03*
X216852500Y-59213700D03*
D10*
X71437500Y-84772500D03*
D11*
X71437500Y-82737500D03*
X71437500Y-79187500D03*
D12*
X71437500Y-77152500D03*
D13*
X191452500Y-42703700D03*
X197802500Y-40163700D03*
X191452500Y-99853700D03*
X197802500Y-97313700D03*
D10*
X109537500Y-65722500D03*
D11*
X109537500Y-63687500D03*
X109537500Y-60137500D03*
D12*
X109537500Y-58102500D03*
D10*
X242887500Y-46672500D03*
D11*
X242887500Y-44637500D03*
X242887500Y-41087500D03*
D12*
X242887500Y-39052500D03*
D10*
X109537500Y-84772500D03*
D11*
X109537500Y-82737500D03*
X109537500Y-79187500D03*
D12*
X109537500Y-77152500D03*
D10*
X14287500Y-46672500D03*
D11*
X14287500Y-44637500D03*
X14287500Y-41087500D03*
D12*
X14287500Y-39052500D03*
D13*
X172402500Y-80803700D03*
X178752500Y-78263700D03*
X20002500Y-61753700D03*
X26352500Y-59213700D03*
D10*
X223837500Y-84772500D03*
D11*
X223837500Y-82737500D03*
X223837500Y-79187500D03*
D12*
X223837500Y-77152500D03*
D13*
X115252500Y-42703700D03*
X121602500Y-40163700D03*
X115252500Y-61753700D03*
X121602500Y-59213700D03*
X267652500Y-42703700D03*
X274002500Y-40163700D03*
X96202500Y-42703700D03*
X102552500Y-40163700D03*
D10*
X71437500Y-65722500D03*
D11*
X71437500Y-63687500D03*
X71437500Y-60137500D03*
D12*
X71437500Y-58102500D03*
D10*
X242887500Y-84772500D03*
D11*
X242887500Y-82737500D03*
X242887500Y-79187500D03*
D12*
X242887500Y-77152500D03*
D10*
X109537500Y-46672500D03*
D11*
X109537500Y-44637500D03*
X109537500Y-41087500D03*
D12*
X109537500Y-39052500D03*
D13*
X39052500Y-80803700D03*
X45402500Y-78263700D03*
D16*
X268922500Y-77628700D03*
X266382500Y-71278700D03*
D10*
X90487500Y-46672500D03*
D11*
X90487500Y-44637500D03*
X90487500Y-41087500D03*
D12*
X90487500Y-39052500D03*
D10*
X33337500Y-84772500D03*
D11*
X33337500Y-82737500D03*
X33337500Y-79187500D03*
D12*
X33337500Y-77152500D03*
D10*
X90487500Y-84772500D03*
D11*
X90487500Y-82737500D03*
X90487500Y-79187500D03*
D12*
X90487500Y-77152500D03*
D13*
X191452500Y-80803700D03*
X197802500Y-78263700D03*
X58102500Y-61753700D03*
X64452500Y-59213700D03*
X77152500Y-80803700D03*
X83502500Y-78263700D03*
X172402500Y-99853700D03*
X178752500Y-97313700D03*
D10*
X223837500Y-46672500D03*
D11*
X223837500Y-44637500D03*
X223837500Y-41087500D03*
D12*
X223837500Y-39052500D03*
D13*
X248602500Y-80803700D03*
X254952500Y-78263700D03*
X248602500Y-61753700D03*
X254952500Y-59213700D03*
D10*
X166687500Y-104428700D03*
D11*
X166687500Y-102393700D03*
X166687500Y-98843700D03*
D12*
X166687500Y-96808700D03*
D10*
X242887500Y-65722500D03*
D11*
X242887500Y-63687500D03*
X242887500Y-60137500D03*
D12*
X242887500Y-58102500D03*
D10*
X33337500Y-65722500D03*
D11*
X33337500Y-63687500D03*
X33337500Y-60137500D03*
D12*
X33337500Y-58102500D03*
D13*
X96202500Y-80803700D03*
X102552500Y-78263700D03*
D10*
X204787500Y-84772500D03*
D11*
X204787500Y-82737500D03*
X204787500Y-79187500D03*
D12*
X204787500Y-77152500D03*
D10*
X90487500Y-65722500D03*
D11*
X90487500Y-63687500D03*
X90487500Y-60137500D03*
D12*
X90487500Y-58102500D03*
D10*
X52387500Y-65722500D03*
D11*
X52387500Y-63687500D03*
X52387500Y-60137500D03*
D12*
X52387500Y-58102500D03*
D10*
X166687500Y-65722500D03*
D11*
X166687500Y-63687500D03*
X166687500Y-60137500D03*
D12*
X166687500Y-58102500D03*
D13*
X96202500Y-99853700D03*
X102552500Y-97313700D03*
D10*
X259556300Y-77628700D03*
D11*
X259556300Y-75593700D03*
X259556300Y-72043700D03*
D12*
X259556300Y-70008700D03*
D10*
X223837500Y-65722500D03*
D11*
X223837500Y-63687500D03*
X223837500Y-60137500D03*
D12*
X223837500Y-58102500D03*
D10*
X90487500Y-103822500D03*
D11*
X90487500Y-101787500D03*
X90487500Y-98237500D03*
D12*
X90487500Y-96202500D03*
D13*
X248602500Y-42703700D03*
X254952500Y-40163700D03*
D10*
X185737500Y-84772500D03*
D11*
X185737500Y-82737500D03*
X185737500Y-79187500D03*
D12*
X185737500Y-77152500D03*
D13*
X115252500Y-80803700D03*
X121602500Y-78263700D03*
X58102500Y-80803700D03*
X64452500Y-78263700D03*
X172402500Y-42703700D03*
X178752500Y-40163700D03*
D10*
X166687500Y-84772500D03*
D11*
X166687500Y-82737500D03*
X166687500Y-79187500D03*
D12*
X166687500Y-77152500D03*
D13*
X20002500Y-80803700D03*
X26352500Y-78263700D03*
X172402500Y-61753700D03*
X178752500Y-59213700D03*
D10*
X166687500Y-46672500D03*
D11*
X166687500Y-44637500D03*
X166687500Y-41087500D03*
D12*
X166687500Y-39052500D03*
D17*
X144387500Y-104775000D03*
X150887500Y-104775000D03*
D10*
X261937500Y-46672500D03*
D11*
X261937500Y-44637500D03*
X261937500Y-41087500D03*
D12*
X261937500Y-39052500D03*
D10*
X204787500Y-65722500D03*
D11*
X204787500Y-63687500D03*
X204787500Y-60137500D03*
D12*
X204787500Y-58102500D03*
D13*
X96202500Y-61753700D03*
X102552500Y-59213700D03*
X39052500Y-42703700D03*
X45402500Y-40163700D03*
D10*
X185737500Y-65722500D03*
D11*
X185737500Y-63687500D03*
X185737500Y-60137500D03*
D12*
X185737500Y-58102500D03*
D13*
X77152500Y-61753700D03*
X83502500Y-59213700D03*
X229552500Y-80803700D03*
X235902500Y-78263700D03*
X229552500Y-42703700D03*
X235902500Y-40163700D03*
D10*
X52387500Y-84772500D03*
D11*
X52387500Y-82737500D03*
X52387500Y-79187500D03*
D12*
X52387500Y-77152500D03*
D10*
X52387500Y-46672500D03*
D11*
X52387500Y-44637500D03*
X52387500Y-41087500D03*
D12*
X52387500Y-39052500D03*
D13*
X77152500Y-42703700D03*
X83502500Y-40163700D03*
D10*
X14287500Y-65722500D03*
D11*
X14287500Y-63687500D03*
X14287500Y-60137500D03*
D12*
X14287500Y-58102500D03*
D10*
X71437500Y-46672500D03*
D11*
X71437500Y-44637500D03*
X71437500Y-41087500D03*
D12*
X71437500Y-39052500D03*
D13*
X229552500Y-61753700D03*
X235902500Y-59213700D03*
X115252500Y-99853700D03*
X121602500Y-97313700D03*
D10*
X33337500Y-46672500D03*
D11*
X33337500Y-44637500D03*
X33337500Y-41087500D03*
D12*
X33337500Y-39052500D03*
D13*
X191452500Y-61753700D03*
X197802500Y-59213700D03*
D18*
X135353100Y-84812000D03*
D19*
X26352500Y-40163700D02*
X16013200Y-40163700D01*
X15706000Y-40470900D02*
X15089400Y-41087500D01*
X16013200Y-40163700D02*
X15706000Y-40470900D01*
X14287500Y-41087500D02*
X15089400Y-41087500D01*
X15706000Y-40470900D02*
X14287500Y-39052500D01*
X137587500Y-56832500D02*
X148321100Y-56832500D01*
X52387500Y-44637500D02*
X52387500Y-46672500D01*
X71437500Y-44637500D02*
X71437500Y-46672500D01*
X223837500Y-44637500D02*
X223837500Y-46672500D01*
X113615700Y-41361200D02*
X118877300Y-41361200D01*
X121968200Y-45247500D02*
X133553200Y-56832500D01*
X137587500Y-63707600D02*
X138425500Y-64545600D01*
X138791300Y-65722500D02*
X138791300Y-64545600D01*
X109537500Y-44637500D02*
X109537500Y-46672500D01*
X137587500Y-56832500D02*
X137587500Y-63707600D01*
X242887500Y-44637500D02*
X242887500Y-46672500D01*
X138425500Y-64545600D02*
X138791300Y-64545600D01*
X155941100Y-49212500D02*
X163122100Y-49212500D01*
X118877300Y-41361200D02*
X121968200Y-44452100D01*
X204787500Y-44637500D02*
X204787500Y-46672500D01*
X133553200Y-56832500D02*
X137587500Y-56832500D01*
X166687500Y-44637500D02*
X166687500Y-46672500D01*
X261937500Y-44637500D02*
X261937500Y-46672500D01*
X185737500Y-44637500D02*
X185737500Y-46672500D01*
X110339400Y-44637500D02*
X113615700Y-41361200D01*
X90487500Y-44637500D02*
X90487500Y-46672500D01*
X163122100Y-49212500D02*
X165662100Y-46672500D01*
X14287500Y-44637500D02*
X14287500Y-46672500D01*
X148321100Y-56832500D02*
X155941100Y-49212500D01*
X166687500Y-46672500D02*
X165662100Y-46672500D01*
X33337500Y-44637500D02*
X33337500Y-46672500D01*
X109537500Y-44637500D02*
X110339400Y-44637500D01*
X121968200Y-44452100D02*
X121968200Y-45247500D01*
X14287500Y-58102500D02*
X14287500Y-60137500D01*
X90487500Y-63687500D02*
X90487500Y-65722500D01*
X14287500Y-63687500D02*
X14287500Y-65722500D01*
X185737500Y-63687500D02*
X185737500Y-65722500D01*
X242887500Y-63687500D02*
X242887500Y-65722500D01*
X15312900Y-65722500D02*
X16478200Y-66887800D01*
X14287500Y-65722500D02*
X15312900Y-65722500D01*
X223837500Y-63687500D02*
X223837500Y-65722500D01*
X166687500Y-63687500D02*
X166687500Y-65722500D01*
X259556300Y-75593700D02*
X259556300Y-77628700D01*
X31146800Y-66887800D02*
X32312100Y-65722500D01*
X33337500Y-65722500D02*
X32312100Y-65722500D01*
X242887500Y-65722500D02*
X243912900Y-65722500D01*
X109537500Y-63687500D02*
X109537500Y-65722500D01*
X33337500Y-63687500D02*
X33337500Y-65722500D01*
X259556300Y-75593700D02*
X253784100Y-75593700D01*
X52387500Y-63687500D02*
X52387500Y-65722500D01*
X253784100Y-75593700D02*
X243912900Y-65722500D01*
X16478200Y-66887800D02*
X31146800Y-66887800D01*
X71437500Y-63687500D02*
X71437500Y-65722500D01*
X204787500Y-63687500D02*
X204787500Y-65722500D01*
X26352500Y-78263700D02*
X16013200Y-78263700D01*
X15706000Y-78570900D02*
X15089400Y-79187500D01*
X14287500Y-79187500D02*
X15089400Y-79187500D01*
X16013200Y-78263700D02*
X15706000Y-78570900D01*
X15706000Y-78570900D02*
X14287500Y-77152500D01*
X185737500Y-84772500D02*
X184712100Y-84772500D01*
X139159100Y-61819400D02*
X139985300Y-62645600D01*
X204787500Y-82737500D02*
X204787500Y-84772500D01*
X31147500Y-85937100D02*
X16477500Y-85937100D01*
X183558400Y-85926200D02*
X184712100Y-84772500D01*
X52387500Y-82737500D02*
X52387500Y-84772500D01*
X168866600Y-85926200D02*
X183558400Y-85926200D01*
X139302000Y-87235800D02*
X137776900Y-87235800D01*
X14287500Y-82737500D02*
X14287500Y-84772500D01*
X52387500Y-84772500D02*
X53412900Y-84772500D01*
X32312100Y-84772500D02*
X31147500Y-85937100D01*
X139985300Y-62645600D02*
X139985300Y-86552500D01*
X33337500Y-84772500D02*
X32312100Y-84772500D01*
X33337500Y-82737500D02*
X33337500Y-84772500D01*
X14287500Y-84772500D02*
X15312900Y-84772500D01*
X70412100Y-84772500D02*
X69211100Y-85973500D01*
X139985300Y-86552500D02*
X139302000Y-87235800D01*
X223837500Y-82737500D02*
X223837500Y-84772500D01*
X223837500Y-84772500D02*
X222812100Y-84772500D01*
X109537500Y-82737500D02*
X109537500Y-84772500D01*
X69211100Y-85973500D02*
X54613900Y-85973500D01*
X138791300Y-60642500D02*
X138791300Y-61819400D01*
X71437500Y-84772500D02*
X70412100Y-84772500D01*
X90487500Y-82737500D02*
X90487500Y-84772500D01*
X206973000Y-85932600D02*
X221652000Y-85932600D01*
X71437500Y-82737500D02*
X71437500Y-84772500D01*
X166687500Y-82737500D02*
X166687500Y-84772500D01*
X185737500Y-82737500D02*
X185737500Y-84772500D01*
X204787500Y-84772500D02*
X205812900Y-84772500D01*
X138791300Y-61819400D02*
X139159100Y-61819400D01*
X137776900Y-87235800D02*
X135353100Y-84812000D01*
X242887500Y-82737500D02*
X242887500Y-84772500D01*
X167712900Y-84772500D02*
X168866600Y-85926200D01*
X16477500Y-85937100D02*
X15312900Y-84772500D01*
X166687500Y-84772500D02*
X167712900Y-84772500D01*
X54613900Y-85973500D02*
X53412900Y-84772500D01*
X205812900Y-84772500D02*
X206973000Y-85932600D01*
X221652000Y-85932600D02*
X222812100Y-84772500D01*
X90487500Y-96202500D02*
X90487500Y-98237500D01*
X140437200Y-104563600D02*
X140437200Y-60559500D01*
X185737500Y-101787500D02*
X185737500Y-103822500D01*
X109537500Y-104428700D02*
X108512100Y-104428700D01*
X139157100Y-59279400D02*
X138791300Y-59279400D01*
X107960600Y-104980200D02*
X92670600Y-104980200D01*
X90487500Y-101787500D02*
X90487500Y-103822500D01*
X109537500Y-102393700D02*
X109537500Y-104428700D01*
X111149700Y-105015500D02*
X139985300Y-105015500D01*
X165662100Y-104428700D02*
X163954900Y-106135900D01*
X109537500Y-104428700D02*
X110562900Y-104428700D01*
X90487500Y-103822500D02*
X91512900Y-103822500D01*
X110562900Y-104428700D02*
X111149700Y-105015500D01*
X92670600Y-104980200D02*
X91512900Y-103822500D01*
X138791300Y-58102500D02*
X138791300Y-59279400D01*
X140437200Y-60559500D02*
X139157100Y-59279400D01*
X163954900Y-106135900D02*
X142009500Y-106135900D01*
X142009500Y-106135900D02*
X140437200Y-104563600D01*
X139985300Y-105015500D02*
X140437200Y-104563600D01*
X166687500Y-104428700D02*
X165662100Y-104428700D01*
X166687500Y-104428700D02*
X166687500Y-102393700D01*
X108512100Y-104428700D02*
X107960600Y-104980200D01*
X33337500Y-41087500D02*
X34139400Y-41087500D01*
X34756000Y-40470900D02*
X34139400Y-41087500D01*
X45402500Y-40163700D02*
X35063200Y-40163700D01*
X35063200Y-40163700D02*
X34756000Y-40470900D01*
X34756000Y-40470900D02*
X33337500Y-39052500D01*
X33337500Y-58102500D02*
X33337500Y-60137500D01*
X33337500Y-77152500D02*
X33337500Y-79187500D01*
X109537500Y-96808700D02*
X109537500Y-98843700D01*
X53806000Y-40470900D02*
X53189400Y-41087500D01*
X54113200Y-40163700D02*
X53806000Y-40470900D01*
X52387500Y-41087500D02*
X53189400Y-41087500D01*
X64452500Y-40163700D02*
X54113200Y-40163700D01*
X53806000Y-40470900D02*
X52387500Y-39052500D01*
X52387500Y-58102500D02*
X52387500Y-60137500D01*
X52387500Y-78263700D02*
X62875600Y-78263700D01*
X52387500Y-77152500D02*
X52387500Y-78263700D01*
X52387500Y-78263700D02*
X52387500Y-79187500D01*
X64452500Y-78263700D02*
X62875600Y-78263700D01*
X166687500Y-97313700D02*
X166687500Y-96808700D01*
X166687500Y-98843700D02*
X166687500Y-97313700D01*
X166687500Y-97313700D02*
X178752500Y-97313700D01*
X72856000Y-40470900D02*
X71437500Y-39052500D01*
X73163200Y-40163700D02*
X72856000Y-40470900D01*
X83502500Y-40163700D02*
X73163200Y-40163700D01*
X71437500Y-41087500D02*
X72239400Y-41087500D01*
X72856000Y-40470900D02*
X72239400Y-41087500D01*
X71437500Y-58102500D02*
X71437500Y-60137500D01*
X71437500Y-77152500D02*
X71437500Y-79187500D01*
X185737500Y-96202500D02*
X185737500Y-98237500D01*
X91906000Y-40470900D02*
X91289400Y-41087500D01*
X92213200Y-40163700D02*
X91906000Y-40470900D01*
X91906000Y-40470900D02*
X90487500Y-39052500D01*
X102552500Y-40163700D02*
X92213200Y-40163700D01*
X90487500Y-41087500D02*
X91289400Y-41087500D01*
X90487500Y-58102500D02*
X90487500Y-60137500D01*
X90487500Y-77152500D02*
X90487500Y-79187500D01*
X110956000Y-40470900D02*
X109537500Y-39052500D01*
X111263200Y-40163700D02*
X110956000Y-40470900D01*
X110956000Y-40470900D02*
X110339400Y-41087500D01*
X109537500Y-41087500D02*
X110339400Y-41087500D01*
X121602500Y-40163700D02*
X111263200Y-40163700D01*
X109537500Y-58102500D02*
X109537500Y-60137500D01*
X109537500Y-77152500D02*
X109537500Y-79187500D01*
X166687500Y-39052500D02*
X166687500Y-41087500D01*
X166687500Y-58102500D02*
X166687500Y-60137500D01*
X166687500Y-77152500D02*
X166687500Y-79187500D01*
X187463200Y-40163700D02*
X187156000Y-40470900D01*
X185737500Y-41087500D02*
X186539400Y-41087500D01*
X197802500Y-40163700D02*
X187463200Y-40163700D01*
X187156000Y-40470900D02*
X186539400Y-41087500D01*
X187156000Y-40470900D02*
X185737500Y-39052500D01*
X185737500Y-58102500D02*
X185737500Y-60137500D01*
X185737500Y-77152500D02*
X185737500Y-79187500D01*
X206206000Y-40470900D02*
X204787500Y-39052500D01*
X206206000Y-40470900D02*
X205589400Y-41087500D01*
X216852500Y-40163700D02*
X206513200Y-40163700D01*
X204787500Y-41087500D02*
X205589400Y-41087500D01*
X206513200Y-40163700D02*
X206206000Y-40470900D01*
X204787500Y-58102500D02*
X204787500Y-60137500D01*
X204787500Y-77152500D02*
X204787500Y-79187500D01*
X225563200Y-40163700D02*
X225256000Y-40470900D01*
X225256000Y-40470900D02*
X224639400Y-41087500D01*
X223837500Y-41087500D02*
X224639400Y-41087500D01*
X225256000Y-40470900D02*
X223837500Y-39052500D01*
X235902500Y-40163700D02*
X225563200Y-40163700D01*
X223837500Y-58102500D02*
X223837500Y-60137500D01*
X223837500Y-77152500D02*
X223837500Y-79187500D01*
X244306000Y-40470900D02*
X243689400Y-41087500D01*
X244613200Y-40163700D02*
X244306000Y-40470900D01*
X242887500Y-41087500D02*
X243689400Y-41087500D01*
X254952500Y-40163700D02*
X244613200Y-40163700D01*
X244306000Y-40470900D02*
X242887500Y-39052500D01*
X242887500Y-58102500D02*
X242887500Y-60137500D01*
X242887500Y-77152500D02*
X242887500Y-79187500D01*
X263663200Y-40163700D02*
X263356000Y-40470900D01*
X263356000Y-40470900D02*
X261937500Y-39052500D01*
X261937500Y-41087500D02*
X262739400Y-41087500D01*
X263356000Y-40470900D02*
X262739400Y-41087500D01*
X274002500Y-40163700D02*
X263663200Y-40163700D01*
X259556300Y-72043700D02*
X260358200Y-72043700D01*
X266382500Y-71278700D02*
X261123200Y-71278700D01*
X260974800Y-71427100D02*
X260358200Y-72043700D01*
X259556300Y-70008700D02*
X260974800Y-71427100D01*
X261123200Y-71278700D02*
X260974800Y-71427100D01*
X148871900Y-71693100D02*
X156205600Y-64359400D01*
X144387500Y-104775000D02*
X148871900Y-100290600D01*
X156571300Y-63182500D02*
X156571300Y-64359400D01*
X156205600Y-64359400D02*
X156571300Y-64359400D01*
X148871900Y-100290600D02*
X148871900Y-71693100D01*
X137614400Y-70248400D02*
X138423400Y-69439400D01*
X139968200Y-44848400D02*
X139159200Y-44039400D01*
X156939100Y-56739400D02*
X157748200Y-57548500D01*
X156571300Y-56739400D02*
X156939100Y-56739400D01*
X138791300Y-54385600D02*
X139159100Y-54385600D01*
X139159200Y-44039400D02*
X138791300Y-44039400D01*
X156203400Y-69439400D02*
X156571300Y-69439400D01*
X156571300Y-81550900D02*
X156571300Y-82139400D01*
X156203400Y-82139400D02*
X156571300Y-82139400D01*
X156571300Y-80962500D02*
X156571300Y-81550900D01*
X138791300Y-68850900D02*
X138791300Y-69439400D01*
X139968200Y-53576500D02*
X139968200Y-44848400D01*
X156571300Y-81550900D02*
X155394400Y-80374000D01*
X150887500Y-104775000D02*
X150887500Y-87455300D01*
X157748200Y-66276600D02*
X156939200Y-67085600D01*
X156571300Y-68262500D02*
X156571300Y-69439400D01*
X155394400Y-80374000D02*
X155394400Y-70248400D01*
X150887500Y-87455300D02*
X156203400Y-82139400D01*
X139159100Y-54385600D02*
X139968200Y-53576500D01*
X138791300Y-79785600D02*
X138423500Y-79785600D01*
X138423400Y-69439400D02*
X138791300Y-69439400D01*
X138791300Y-42862500D02*
X138791300Y-44039400D01*
X157748200Y-57548500D02*
X157748200Y-66276600D01*
X156571300Y-68262500D02*
X156571300Y-67085600D01*
X138791300Y-55562500D02*
X138791300Y-54385600D01*
X156571300Y-55562500D02*
X156571300Y-56739400D01*
X155394400Y-70248400D02*
X156203400Y-69439400D01*
X138791300Y-68850900D02*
X138791300Y-68262500D01*
X137614400Y-78976500D02*
X137614400Y-70248400D01*
X156939200Y-67085600D02*
X156571300Y-67085600D01*
X138423500Y-79785600D02*
X137614400Y-78976500D01*
X138791300Y-80962500D02*
X138791300Y-79785600D01*
X20002500Y-42703700D02*
X20002500Y-44030600D01*
X20002500Y-60426800D02*
X20266300Y-60163000D01*
X20266300Y-60163000D02*
X20266300Y-44294400D01*
X20266300Y-44294400D02*
X20002500Y-44030600D01*
X20002500Y-61753700D02*
X20002500Y-60426800D01*
X39052500Y-44030600D02*
X39312600Y-44290700D01*
X39312600Y-60166700D02*
X39052500Y-60426800D01*
X39052500Y-61753700D02*
X39052500Y-63080600D01*
X39316300Y-79213000D02*
X39316300Y-63344400D01*
X39052500Y-42703700D02*
X39052500Y-44030600D01*
X39052500Y-61753700D02*
X39052500Y-60426800D01*
X39316300Y-63344400D02*
X39052500Y-63080600D01*
X39312600Y-44290700D02*
X39312600Y-60166700D01*
X39052500Y-80803700D02*
X39052500Y-79476800D01*
X39052500Y-79476800D02*
X39316300Y-79213000D01*
X58102500Y-61753700D02*
X58102500Y-60426800D01*
X52416400Y-80803700D02*
X51316200Y-79703500D01*
X58366300Y-44294400D02*
X58102500Y-44030600D01*
X58102500Y-42703700D02*
X58102500Y-44030600D01*
X58366300Y-60163000D02*
X58366300Y-44294400D01*
X58102500Y-61753700D02*
X58102500Y-63080600D01*
X58102500Y-80803700D02*
X52416400Y-80803700D01*
X51316200Y-79703500D02*
X51316200Y-74225200D01*
X58102500Y-60426800D02*
X58366300Y-60163000D01*
X51316200Y-74225200D02*
X58366300Y-67175100D01*
X58366300Y-67175100D02*
X58366300Y-63344400D01*
X58366300Y-63344400D02*
X58102500Y-63080600D01*
X77416300Y-60163000D02*
X77152500Y-60426800D01*
X77152500Y-44030600D02*
X77416300Y-44294400D01*
X77152500Y-42703700D02*
X77152500Y-44030600D01*
X77416300Y-79213000D02*
X77416300Y-63344400D01*
X77152500Y-79476800D02*
X77416300Y-79213000D01*
X77416300Y-44294400D02*
X77416300Y-60163000D01*
X77152500Y-61753700D02*
X77152500Y-63080600D01*
X77152500Y-80803700D02*
X77152500Y-79476800D01*
X77416300Y-63344400D02*
X77152500Y-63080600D01*
X77152500Y-61753700D02*
X77152500Y-60426800D01*
X96202500Y-61753700D02*
X96202500Y-60426800D01*
X96202500Y-99853700D02*
X96202500Y-98526800D01*
X96202500Y-80803700D02*
X96202500Y-79476800D01*
X96202500Y-80803700D02*
X96202500Y-82130600D01*
X96202500Y-98526800D02*
X96466300Y-98263000D01*
X96459400Y-79219900D02*
X96202500Y-79476800D01*
X96202500Y-42703700D02*
X96202500Y-44030600D01*
X96202500Y-60426800D02*
X96466300Y-60163000D01*
X96202500Y-62417100D02*
X96202500Y-63080600D01*
X96466300Y-98263000D02*
X96466300Y-82394400D01*
X96202500Y-62417100D02*
X96202500Y-61753700D01*
X96459400Y-63337500D02*
X96459400Y-79219900D01*
X96202500Y-63080600D02*
X96459400Y-63337500D01*
X96466300Y-44294400D02*
X96202500Y-44030600D01*
X96466300Y-82394400D02*
X96202500Y-82130600D01*
X96466300Y-60163000D02*
X96466300Y-44294400D01*
X115252500Y-62417100D02*
X115252500Y-63080600D01*
X116829400Y-80803700D02*
X116896800Y-80736300D01*
X115516300Y-80803700D02*
X115780100Y-80803700D01*
X115252500Y-80803700D02*
X115516300Y-80803700D01*
X115252500Y-99853700D02*
X115252500Y-98526800D01*
X115252500Y-60426800D02*
X115516300Y-60163000D01*
X115780100Y-80803700D02*
X116829400Y-80803700D01*
X115516300Y-44294400D02*
X115252500Y-44030600D01*
X115252500Y-61753700D02*
X115252500Y-60426800D01*
X115516300Y-60163000D02*
X115516300Y-44294400D01*
X115252500Y-98526800D02*
X115780100Y-97999200D01*
X132308200Y-80736300D02*
X137614400Y-86042500D01*
X115780100Y-97999200D02*
X115780100Y-80803700D01*
X116896800Y-80736300D02*
X132308200Y-80736300D01*
X115252500Y-42703700D02*
X115252500Y-44030600D01*
X115516300Y-80803700D02*
X115516300Y-63344400D01*
X115252500Y-62417100D02*
X115252500Y-61753700D01*
X138791300Y-86042500D02*
X137614400Y-86042500D01*
X115516300Y-63344400D02*
X115252500Y-63080600D01*
X172402500Y-63080600D02*
X172659400Y-63337500D01*
X172666300Y-60163000D02*
X172402500Y-60426800D01*
X172402500Y-42703700D02*
X172402500Y-44030600D01*
X172402500Y-80803700D02*
X172402500Y-79476800D01*
X172666300Y-44294400D02*
X172666300Y-60163000D01*
X172659400Y-79219900D02*
X172402500Y-79476800D01*
X172402500Y-61753700D02*
X172402500Y-60426800D01*
X172402500Y-61753700D02*
X172402500Y-63080600D01*
X172402500Y-44030600D02*
X172666300Y-44294400D01*
X172659400Y-63337500D02*
X172659400Y-79219900D01*
X191452500Y-99853700D02*
X191452500Y-98526800D01*
X191452500Y-62417100D02*
X191452500Y-61753700D01*
X191452500Y-60426800D02*
X191709400Y-60169900D01*
X191452500Y-80803700D02*
X191452500Y-79476800D01*
X191452500Y-42703700D02*
X191452500Y-44030600D01*
X191452500Y-63080600D02*
X191709400Y-63337500D01*
X191716300Y-82394400D02*
X191452500Y-82130600D01*
X191709400Y-60169900D02*
X191709400Y-44287500D01*
X191452500Y-80803700D02*
X191452500Y-82130600D01*
X191709400Y-44287500D02*
X191452500Y-44030600D01*
X191452500Y-98526800D02*
X191716300Y-98263000D01*
X191709400Y-79219900D02*
X191452500Y-79476800D01*
X191452500Y-62417100D02*
X191452500Y-63080600D01*
X191452500Y-61753700D02*
X191452500Y-60426800D01*
X191709400Y-63337500D02*
X191709400Y-79219900D01*
X191716300Y-98263000D02*
X191716300Y-82394400D01*
X210502500Y-63080600D02*
X210759400Y-63337500D01*
X210502500Y-80803700D02*
X210502500Y-79476800D01*
X210766300Y-60163000D02*
X210502500Y-60426800D01*
X210502500Y-44030600D02*
X210766300Y-44294400D01*
X210766300Y-44294400D02*
X210766300Y-60163000D01*
X210502500Y-61753700D02*
X210502500Y-63080600D01*
X210502500Y-42703700D02*
X210502500Y-44030600D01*
X210759400Y-63337500D02*
X210759400Y-79219900D01*
X210502500Y-61753700D02*
X210502500Y-60426800D01*
X210759400Y-79219900D02*
X210502500Y-79476800D01*
X229816300Y-44294400D02*
X229816300Y-60163000D01*
X229552500Y-44030600D02*
X229816300Y-44294400D01*
X229552500Y-80803700D02*
X229552500Y-79476800D01*
X229552500Y-61753700D02*
X229552500Y-63080600D01*
X229816300Y-60163000D02*
X229552500Y-60426800D01*
X229552500Y-42703700D02*
X229552500Y-44030600D01*
X229809400Y-63337500D02*
X229809400Y-79219900D01*
X229552500Y-61753700D02*
X229552500Y-60426800D01*
X229552500Y-63080600D02*
X229809400Y-63337500D01*
X229809400Y-79219900D02*
X229552500Y-79476800D01*
X248602500Y-80803700D02*
X248602500Y-79476800D01*
X248602500Y-44030600D02*
X248862600Y-44290700D01*
X248602500Y-79476800D02*
X241857300Y-72731600D01*
X248862600Y-44290700D02*
X248862600Y-60166700D01*
X248602500Y-42703700D02*
X248602500Y-44030600D01*
X243194500Y-61753700D02*
X248602500Y-61753700D01*
X241857300Y-63090900D02*
X243194500Y-61753700D01*
X248602500Y-61753700D02*
X248602500Y-60426800D01*
X241857300Y-72731600D02*
X241857300Y-63090900D01*
X248862600Y-60166700D02*
X248602500Y-60426800D01*
M02*
