M48
; DRILL file {KiCad 7.0.10} date Fri Mar 22 12:38:36 2024
; FORMAT={-:-/ absolute / metric / decimal}
; #@! TF.CreationDate,2024-03-22T12:38:36+09:00
; #@! TF.GenerationSoftware,Kicad,Pcbnew,7.0.10
; #@! TF.FileFunction,Plated,1,2,PTH
FMAT,2
METRIC
; #@! TA.AperFunction,Plated,PTH,ViaDrill
T1C0.400
; #@! TA.AperFunction,Plated,PTH,ComponentDrill
T2C0.800
; #@! TA.AperFunction,Plated,PTH,ComponentDrill
T3C0.813
; #@! TA.AperFunction,Plated,PTH,ComponentDrill
T4C1.020
; #@! TA.AperFunction,Plated,PTH,ComponentDrill
T5C1.300
%
G90
G05
T1
X135.353Y-84.812
T3
X14.287Y-39.052
X14.287Y-46.672
X14.287Y-58.102
X14.287Y-65.722
X14.287Y-77.153
X14.287Y-84.772
X33.337Y-39.052
X33.337Y-46.672
X33.337Y-58.102
X33.337Y-65.722
X33.337Y-77.153
X33.337Y-84.772
X52.387Y-39.052
X52.387Y-46.672
X52.387Y-58.102
X52.387Y-65.722
X52.387Y-77.153
X52.387Y-84.772
X71.438Y-39.052
X71.438Y-46.672
X71.438Y-58.102
X71.438Y-65.722
X71.438Y-77.153
X71.438Y-84.772
X90.487Y-39.052
X90.487Y-46.672
X90.487Y-58.102
X90.487Y-65.722
X90.487Y-77.153
X90.487Y-84.772
X90.487Y-96.203
X90.487Y-103.822
X109.537Y-39.052
X109.537Y-46.672
X109.537Y-58.102
X109.537Y-65.722
X109.537Y-77.153
X109.537Y-84.772
X109.537Y-96.809
X109.537Y-104.429
X166.688Y-39.052
X166.688Y-46.672
X166.688Y-58.102
X166.688Y-65.722
X166.688Y-77.153
X166.688Y-84.772
X166.688Y-96.809
X166.688Y-104.429
X185.737Y-39.052
X185.737Y-46.672
X185.737Y-58.102
X185.737Y-65.722
X185.737Y-77.153
X185.737Y-84.772
X185.737Y-96.203
X185.737Y-103.822
X204.787Y-39.052
X204.787Y-46.672
X204.787Y-58.102
X204.787Y-65.722
X204.787Y-77.153
X204.787Y-84.772
X223.837Y-39.052
X223.837Y-46.672
X223.837Y-58.102
X223.837Y-65.722
X223.837Y-77.153
X223.837Y-84.772
X242.887Y-39.052
X242.887Y-46.672
X242.887Y-58.102
X242.887Y-65.722
X242.887Y-77.153
X242.887Y-84.772
X259.556Y-70.009
X259.556Y-77.629
X261.938Y-39.052
X261.938Y-46.672
T4
X138.791Y-37.782
X138.791Y-40.322
X138.791Y-42.862
X138.791Y-45.402
X138.791Y-47.942
X138.791Y-50.482
X138.791Y-53.023
X138.791Y-55.562
X138.791Y-58.102
X138.791Y-60.642
X138.791Y-63.182
X138.791Y-65.722
X138.791Y-68.263
X138.791Y-70.802
X138.791Y-73.343
X138.791Y-75.882
X138.791Y-78.422
X138.791Y-80.962
X138.791Y-83.502
X138.791Y-86.042
X145.141Y-85.812
X147.681Y-85.812
X150.221Y-85.812
X156.571Y-37.782
X156.571Y-40.322
X156.571Y-42.862
X156.571Y-45.402
X156.571Y-47.942
X156.571Y-50.482
X156.571Y-53.023
X156.571Y-55.562
X156.571Y-58.102
X156.571Y-60.642
X156.571Y-63.182
X156.571Y-65.722
X156.571Y-68.263
X156.571Y-70.802
X156.571Y-73.343
X156.571Y-75.882
X156.571Y-78.422
X156.571Y-80.962
X156.571Y-83.502
X156.571Y-86.042
T5
X144.387Y-104.775
X150.887Y-104.775
T2
G00X19.802Y-42.704
M15
G01X20.203Y-42.704
M16
G05
G00X19.802Y-61.754
M15
G01X20.203Y-61.754
M16
G05
G00X19.802Y-80.804
M15
G01X20.203Y-80.804
M16
G05
G00X26.152Y-40.164
M15
G01X26.552Y-40.164
M16
G05
G00X26.152Y-59.214
M15
G01X26.552Y-59.214
M16
G05
G00X26.152Y-78.264
M15
G01X26.552Y-78.264
M16
G05
G00X38.852Y-42.704
M15
G01X39.252Y-42.704
M16
G05
G00X38.852Y-61.754
M15
G01X39.252Y-61.754
M16
G05
G00X38.852Y-80.804
M15
G01X39.252Y-80.804
M16
G05
G00X45.203Y-40.164
M15
G01X45.602Y-40.164
M16
G05
G00X45.203Y-59.214
M15
G01X45.602Y-59.214
M16
G05
G00X45.203Y-78.264
M15
G01X45.602Y-78.264
M16
G05
G00X57.902Y-42.704
M15
G01X58.302Y-42.704
M16
G05
G00X57.902Y-61.754
M15
G01X58.302Y-61.754
M16
G05
G00X57.902Y-80.804
M15
G01X58.302Y-80.804
M16
G05
G00X64.252Y-40.164
M15
G01X64.653Y-40.164
M16
G05
G00X64.252Y-59.214
M15
G01X64.653Y-59.214
M16
G05
G00X64.252Y-78.264
M15
G01X64.653Y-78.264
M16
G05
G00X76.953Y-42.704
M15
G01X77.352Y-42.704
M16
G05
G00X76.953Y-61.754
M15
G01X77.352Y-61.754
M16
G05
G00X76.953Y-80.804
M15
G01X77.352Y-80.804
M16
G05
G00X83.302Y-40.164
M15
G01X83.703Y-40.164
M16
G05
G00X83.302Y-59.214
M15
G01X83.703Y-59.214
M16
G05
G00X83.302Y-78.264
M15
G01X83.703Y-78.264
M16
G05
G00X96.002Y-42.704
M15
G01X96.402Y-42.704
M16
G05
G00X96.002Y-61.754
M15
G01X96.402Y-61.754
M16
G05
G00X96.002Y-80.804
M15
G01X96.402Y-80.804
M16
G05
G00X96.002Y-99.854
M15
G01X96.402Y-99.854
M16
G05
G00X102.352Y-40.164
M15
G01X102.752Y-40.164
M16
G05
G00X102.352Y-59.214
M15
G01X102.752Y-59.214
M16
G05
G00X102.352Y-78.264
M15
G01X102.752Y-78.264
M16
G05
G00X102.352Y-97.314
M15
G01X102.752Y-97.314
M16
G05
G00X115.052Y-42.704
M15
G01X115.453Y-42.704
M16
G05
G00X115.052Y-61.754
M15
G01X115.453Y-61.754
M16
G05
G00X115.052Y-80.804
M15
G01X115.453Y-80.804
M16
G05
G00X115.052Y-99.854
M15
G01X115.453Y-99.854
M16
G05
G00X121.402Y-40.164
M15
G01X121.802Y-40.164
M16
G05
G00X121.402Y-59.214
M15
G01X121.802Y-59.214
M16
G05
G00X121.402Y-78.264
M15
G01X121.802Y-78.264
M16
G05
G00X121.402Y-97.314
M15
G01X121.802Y-97.314
M16
G05
G00X172.202Y-42.704
M15
G01X172.602Y-42.704
M16
G05
G00X172.202Y-61.754
M15
G01X172.602Y-61.754
M16
G05
G00X172.202Y-80.804
M15
G01X172.602Y-80.804
M16
G05
G00X172.202Y-99.854
M15
G01X172.602Y-99.854
M16
G05
G00X178.552Y-40.164
M15
G01X178.952Y-40.164
M16
G05
G00X178.552Y-59.214
M15
G01X178.952Y-59.214
M16
G05
G00X178.552Y-78.264
M15
G01X178.952Y-78.264
M16
G05
G00X178.552Y-97.314
M15
G01X178.952Y-97.314
M16
G05
G00X191.252Y-42.704
M15
G01X191.653Y-42.704
M16
G05
G00X191.252Y-61.754
M15
G01X191.653Y-61.754
M16
G05
G00X191.252Y-80.804
M15
G01X191.653Y-80.804
M16
G05
G00X191.252Y-99.854
M15
G01X191.653Y-99.854
M16
G05
G00X197.602Y-40.164
M15
G01X198.002Y-40.164
M16
G05
G00X197.602Y-59.214
M15
G01X198.002Y-59.214
M16
G05
G00X197.602Y-78.264
M15
G01X198.002Y-78.264
M16
G05
G00X197.602Y-97.314
M15
G01X198.002Y-97.314
M16
G05
G00X210.302Y-42.704
M15
G01X210.702Y-42.704
M16
G05
G00X210.302Y-61.754
M15
G01X210.702Y-61.754
M16
G05
G00X210.302Y-80.804
M15
G01X210.702Y-80.804
M16
G05
G00X216.653Y-40.164
M15
G01X217.052Y-40.164
M16
G05
G00X216.653Y-59.214
M15
G01X217.052Y-59.214
M16
G05
G00X216.653Y-78.264
M15
G01X217.052Y-78.264
M16
G05
G00X229.352Y-42.704
M15
G01X229.752Y-42.704
M16
G05
G00X229.352Y-61.754
M15
G01X229.752Y-61.754
M16
G05
G00X229.352Y-80.804
M15
G01X229.752Y-80.804
M16
G05
G00X235.702Y-40.164
M15
G01X236.102Y-40.164
M16
G05
G00X235.702Y-59.214
M15
G01X236.102Y-59.214
M16
G05
G00X235.702Y-78.264
M15
G01X236.102Y-78.264
M16
G05
G00X248.402Y-42.704
M15
G01X248.802Y-42.704
M16
G05
G00X248.402Y-61.754
M15
G01X248.802Y-61.754
M16
G05
G00X248.402Y-80.804
M15
G01X248.802Y-80.804
M16
G05
G00X254.752Y-40.164
M15
G01X255.152Y-40.164
M16
G05
G00X254.752Y-59.214
M15
G01X255.152Y-59.214
M16
G05
G00X254.752Y-78.264
M15
G01X255.152Y-78.264
M16
G05
G00X266.382Y-71.479
M15
G01X266.382Y-71.079
M16
G05
G00X267.452Y-42.704
M15
G01X267.852Y-42.704
M16
G05
G00X268.923Y-77.829
M15
G01X268.923Y-77.429
M16
G05
G00X273.803Y-40.164
M15
G01X274.202Y-40.164
M16
G05
M30
