G04 #@! TF.GenerationSoftware,KiCad,Pcbnew,7.0.10*
G04 #@! TF.CreationDate,2024-03-22T12:38:25+09:00*
G04 #@! TF.ProjectId,first_keyboard,66697273-745f-46b6-9579-626f6172642e,rev?*
G04 #@! TF.SameCoordinates,Original*
G04 #@! TF.FileFunction,Soldermask,Bot*
G04 #@! TF.FilePolarity,Negative*
%FSLAX46Y46*%
G04 Gerber Fmt 4.6, Leading zero omitted, Abs format (unit mm)*
G04 Created by KiCad (PCBNEW 7.0.10) date 2024-03-22 12:38:25*
%MOMM*%
%LPD*%
G01*
G04 APERTURE LIST*
%ADD10R,1.397000X1.397000*%
%ADD11R,0.950000X1.300000*%
%ADD12C,1.397000*%
%ADD13C,1.900000*%
%ADD14C,4.000000*%
%ADD15O,2.500000X2.000000*%
%ADD16C,6.500000*%
%ADD17O,1.800000X1.800000*%
%ADD18O,1.500000X1.500000*%
%ADD19O,1.700000X1.700000*%
%ADD20R,1.700000X1.700000*%
%ADD21C,3.050000*%
%ADD22O,2.000000X2.500000*%
%ADD23C,2.000000*%
G04 APERTURE END LIST*
D10*
X204787500Y-46672500D03*
D11*
X204787500Y-44637500D03*
X204787500Y-41087500D03*
D12*
X204787500Y-39052500D03*
D13*
X209232500Y-83343700D03*
D14*
X214312500Y-83343700D03*
D13*
X219392500Y-83343700D03*
D15*
X210502500Y-80803700D03*
X216852500Y-78263700D03*
D10*
X109537500Y-104428700D03*
D11*
X109537500Y-102393700D03*
X109537500Y-98843700D03*
D12*
X109537500Y-96808700D03*
D10*
X185737500Y-103822500D03*
D11*
X185737500Y-101787500D03*
X185737500Y-98237500D03*
D12*
X185737500Y-96202500D03*
D10*
X14287500Y-84772500D03*
D11*
X14287500Y-82737500D03*
X14287500Y-79187500D03*
D12*
X14287500Y-77152500D03*
D13*
X56832500Y-45243700D03*
D14*
X61912500Y-45243700D03*
D13*
X66992500Y-45243700D03*
D15*
X58102500Y-42703700D03*
X64452500Y-40163700D03*
D13*
X37782500Y-64293700D03*
D14*
X42862500Y-64293700D03*
D13*
X47942500Y-64293700D03*
D15*
X39052500Y-61753700D03*
X45402500Y-59213700D03*
D16*
X274320000Y-32004000D03*
D17*
X144956300Y-37912500D03*
D18*
X145256300Y-40942500D03*
X150106300Y-40942500D03*
D17*
X150406300Y-37912500D03*
D19*
X138791300Y-37782500D03*
X138791300Y-40322500D03*
D20*
X138791300Y-42862500D03*
D19*
X138791300Y-45402500D03*
X138791300Y-47942500D03*
X138791300Y-50482500D03*
X138791300Y-53022500D03*
D20*
X138791300Y-55562500D03*
D19*
X138791300Y-58102500D03*
X138791300Y-60642500D03*
X138791300Y-63182500D03*
X138791300Y-65722500D03*
D20*
X138791300Y-68262500D03*
D19*
X138791300Y-70802500D03*
X138791300Y-73342500D03*
X138791300Y-75882500D03*
X138791300Y-78422500D03*
D20*
X138791300Y-80962500D03*
D19*
X138791300Y-83502500D03*
X138791300Y-86042500D03*
X156571300Y-86042500D03*
X156571300Y-83502500D03*
D20*
X156571300Y-80962500D03*
D19*
X156571300Y-78422500D03*
X156571300Y-75882500D03*
X156571300Y-73342500D03*
X156571300Y-70802500D03*
D20*
X156571300Y-68262500D03*
D19*
X156571300Y-65722500D03*
X156571300Y-63182500D03*
X156571300Y-60642500D03*
X156571300Y-58102500D03*
D20*
X156571300Y-55562500D03*
D19*
X156571300Y-53022500D03*
X156571300Y-50482500D03*
X156571300Y-47942500D03*
X156571300Y-45402500D03*
D20*
X156571300Y-42862500D03*
D19*
X156571300Y-40322500D03*
X156571300Y-37782500D03*
X145141300Y-85812500D03*
D20*
X147681300Y-85812500D03*
D19*
X150221300Y-85812500D03*
D13*
X18732500Y-45243700D03*
D14*
X23812500Y-45243700D03*
D13*
X28892500Y-45243700D03*
D15*
X20002500Y-42703700D03*
X26352500Y-40163700D03*
D10*
X185737500Y-46672500D03*
D11*
X185737500Y-44637500D03*
X185737500Y-41087500D03*
D12*
X185737500Y-39052500D03*
D13*
X209232500Y-45243700D03*
D14*
X214312500Y-45243700D03*
D13*
X219392500Y-45243700D03*
D15*
X210502500Y-42703700D03*
X216852500Y-40163700D03*
D13*
X209232500Y-64293700D03*
D14*
X214312500Y-64293700D03*
D13*
X219392500Y-64293700D03*
D15*
X210502500Y-61753700D03*
X216852500Y-59213700D03*
D10*
X71437500Y-84772500D03*
D11*
X71437500Y-82737500D03*
X71437500Y-79187500D03*
D12*
X71437500Y-77152500D03*
D13*
X190182500Y-45243700D03*
D14*
X195262500Y-45243700D03*
D13*
X200342500Y-45243700D03*
D15*
X191452500Y-42703700D03*
X197802500Y-40163700D03*
D13*
X190182500Y-102393700D03*
D14*
X195262500Y-102393700D03*
D13*
X200342500Y-102393700D03*
D15*
X191452500Y-99853700D03*
X197802500Y-97313700D03*
D10*
X109537500Y-65722500D03*
D11*
X109537500Y-63687500D03*
X109537500Y-60137500D03*
D12*
X109537500Y-58102500D03*
D10*
X242887500Y-46672500D03*
D11*
X242887500Y-44637500D03*
X242887500Y-41087500D03*
D12*
X242887500Y-39052500D03*
D10*
X109537500Y-84772500D03*
D11*
X109537500Y-82737500D03*
X109537500Y-79187500D03*
D12*
X109537500Y-77152500D03*
D10*
X14287500Y-46672500D03*
D11*
X14287500Y-44637500D03*
X14287500Y-41087500D03*
D12*
X14287500Y-39052500D03*
D13*
X171132500Y-83343700D03*
D14*
X176212500Y-83343700D03*
D13*
X181292500Y-83343700D03*
D15*
X172402500Y-80803700D03*
X178752500Y-78263700D03*
D13*
X18732500Y-64293700D03*
D14*
X23812500Y-64293700D03*
D13*
X28892500Y-64293700D03*
D15*
X20002500Y-61753700D03*
X26352500Y-59213700D03*
D10*
X223837500Y-84772500D03*
D11*
X223837500Y-82737500D03*
X223837500Y-79187500D03*
D12*
X223837500Y-77152500D03*
D13*
X113982500Y-45243700D03*
D14*
X119062500Y-45243700D03*
D13*
X124142500Y-45243700D03*
D15*
X115252500Y-42703700D03*
X121602500Y-40163700D03*
D13*
X113982500Y-64293700D03*
D14*
X119062500Y-64293700D03*
D13*
X124142500Y-64293700D03*
D15*
X115252500Y-61753700D03*
X121602500Y-59213700D03*
D16*
X159746300Y-111506000D03*
D13*
X266382500Y-45243700D03*
D14*
X271462500Y-45243700D03*
D13*
X276542500Y-45243700D03*
D15*
X267652500Y-42703700D03*
X274002500Y-40163700D03*
D13*
X94932500Y-45243700D03*
D14*
X100012500Y-45243700D03*
D13*
X105092500Y-45243700D03*
D15*
X96202500Y-42703700D03*
X102552500Y-40163700D03*
D10*
X71437500Y-65722500D03*
D11*
X71437500Y-63687500D03*
X71437500Y-60137500D03*
D12*
X71437500Y-58102500D03*
D10*
X242887500Y-84772500D03*
D11*
X242887500Y-82737500D03*
X242887500Y-79187500D03*
D12*
X242887500Y-77152500D03*
D10*
X109537500Y-46672500D03*
D11*
X109537500Y-44637500D03*
X109537500Y-41087500D03*
D12*
X109537500Y-39052500D03*
D13*
X37782500Y-83343700D03*
D14*
X42862500Y-83343700D03*
D13*
X47942500Y-83343700D03*
D15*
X39052500Y-80803700D03*
X45402500Y-78263700D03*
D21*
X264462500Y-85718700D03*
D14*
X279702500Y-85718700D03*
D13*
X271462500Y-78898700D03*
D14*
X271462500Y-73818700D03*
D13*
X271462500Y-68738700D03*
D21*
X264462500Y-61918700D03*
D14*
X279702500Y-61918700D03*
D22*
X268922500Y-77628700D03*
X266382500Y-71278700D03*
D10*
X90487500Y-46672500D03*
D11*
X90487500Y-44637500D03*
X90487500Y-41087500D03*
D12*
X90487500Y-39052500D03*
D10*
X33337500Y-84772500D03*
D11*
X33337500Y-82737500D03*
X33337500Y-79187500D03*
D12*
X33337500Y-77152500D03*
D10*
X90487500Y-84772500D03*
D11*
X90487500Y-82737500D03*
X90487500Y-79187500D03*
D12*
X90487500Y-77152500D03*
D13*
X190182500Y-83343700D03*
D14*
X195262500Y-83343700D03*
D13*
X200342500Y-83343700D03*
D15*
X191452500Y-80803700D03*
X197802500Y-78263700D03*
D13*
X56832500Y-64293700D03*
D14*
X61912500Y-64293700D03*
D13*
X66992500Y-64293700D03*
D15*
X58102500Y-61753700D03*
X64452500Y-59213700D03*
D16*
X274320000Y-97028000D03*
D13*
X75882500Y-83343700D03*
D14*
X80962500Y-83343700D03*
D13*
X86042500Y-83343700D03*
D15*
X77152500Y-80803700D03*
X83502500Y-78263700D03*
D13*
X171132500Y-102393700D03*
D14*
X176212500Y-102393700D03*
D13*
X181292500Y-102393700D03*
D15*
X172402500Y-99853700D03*
X178752500Y-97313700D03*
D10*
X223837500Y-46672500D03*
D11*
X223837500Y-44637500D03*
X223837500Y-41087500D03*
D12*
X223837500Y-39052500D03*
D13*
X247332500Y-83343700D03*
D14*
X252412500Y-83343700D03*
D13*
X257492500Y-83343700D03*
D15*
X248602500Y-80803700D03*
X254952500Y-78263700D03*
D13*
X247332500Y-64293700D03*
D14*
X252412500Y-64293700D03*
D13*
X257492500Y-64293700D03*
D15*
X248602500Y-61753700D03*
X254952500Y-59213700D03*
D16*
X135616300Y-111506000D03*
D10*
X166687500Y-104428700D03*
D11*
X166687500Y-102393700D03*
X166687500Y-98843700D03*
D12*
X166687500Y-96808700D03*
D10*
X242887500Y-65722500D03*
D11*
X242887500Y-63687500D03*
X242887500Y-60137500D03*
D12*
X242887500Y-58102500D03*
D10*
X33337500Y-65722500D03*
D11*
X33337500Y-63687500D03*
X33337500Y-60137500D03*
D12*
X33337500Y-58102500D03*
D13*
X94932500Y-83343700D03*
D14*
X100012500Y-83343700D03*
D13*
X105092500Y-83343700D03*
D15*
X96202500Y-80803700D03*
X102552500Y-78263700D03*
D16*
X120650000Y-32004000D03*
D10*
X204787500Y-84772500D03*
D11*
X204787500Y-82737500D03*
X204787500Y-79187500D03*
D12*
X204787500Y-77152500D03*
D10*
X90487500Y-65722500D03*
D11*
X90487500Y-63687500D03*
X90487500Y-60137500D03*
D12*
X90487500Y-58102500D03*
D10*
X52387500Y-65722500D03*
D11*
X52387500Y-63687500D03*
X52387500Y-60137500D03*
D12*
X52387500Y-58102500D03*
D10*
X166687500Y-65722500D03*
D11*
X166687500Y-63687500D03*
X166687500Y-60137500D03*
D12*
X166687500Y-58102500D03*
D16*
X171450000Y-32004000D03*
D13*
X94932500Y-102393700D03*
D14*
X100012500Y-102393700D03*
D13*
X105092500Y-102393700D03*
D15*
X96202500Y-99853700D03*
X102552500Y-97313700D03*
D10*
X259556300Y-77628700D03*
D11*
X259556300Y-75593700D03*
X259556300Y-72043700D03*
D12*
X259556300Y-70008700D03*
D10*
X223837500Y-65722500D03*
D11*
X223837500Y-63687500D03*
X223837500Y-60137500D03*
D12*
X223837500Y-58102500D03*
D10*
X90487500Y-103822500D03*
D11*
X90487500Y-101787500D03*
X90487500Y-98237500D03*
D12*
X90487500Y-96202500D03*
D13*
X247332500Y-45243700D03*
D14*
X252412500Y-45243700D03*
D13*
X257492500Y-45243700D03*
D15*
X248602500Y-42703700D03*
X254952500Y-40163700D03*
D10*
X185737500Y-84772500D03*
D11*
X185737500Y-82737500D03*
X185737500Y-79187500D03*
D12*
X185737500Y-77152500D03*
D13*
X113982500Y-83343700D03*
D14*
X119062500Y-83343700D03*
D13*
X124142500Y-83343700D03*
D15*
X115252500Y-80803700D03*
X121602500Y-78263700D03*
D13*
X56832500Y-83343700D03*
D14*
X61912500Y-83343700D03*
D13*
X66992500Y-83343700D03*
D15*
X58102500Y-80803700D03*
X64452500Y-78263700D03*
D13*
X171132500Y-45243700D03*
D14*
X176212500Y-45243700D03*
D13*
X181292500Y-45243700D03*
D15*
X172402500Y-42703700D03*
X178752500Y-40163700D03*
D10*
X166687500Y-84772500D03*
D11*
X166687500Y-82737500D03*
X166687500Y-79187500D03*
D12*
X166687500Y-77152500D03*
D13*
X18732500Y-83343700D03*
D14*
X23812500Y-83343700D03*
D13*
X28892500Y-83343700D03*
D15*
X20002500Y-80803700D03*
X26352500Y-78263700D03*
D13*
X171132500Y-64293700D03*
D14*
X176212500Y-64293700D03*
D13*
X181292500Y-64293700D03*
D15*
X172402500Y-61753700D03*
X178752500Y-59213700D03*
D16*
X20320000Y-97028000D03*
D10*
X166687500Y-46672500D03*
D11*
X166687500Y-44637500D03*
X166687500Y-41087500D03*
D12*
X166687500Y-39052500D03*
D23*
X144387500Y-104775000D03*
X150887500Y-104775000D03*
D10*
X261937500Y-46672500D03*
D11*
X261937500Y-44637500D03*
X261937500Y-41087500D03*
D12*
X261937500Y-39052500D03*
D10*
X204787500Y-65722500D03*
D11*
X204787500Y-63687500D03*
X204787500Y-60137500D03*
D12*
X204787500Y-58102500D03*
D13*
X94932500Y-64293700D03*
D14*
X100012500Y-64293700D03*
D13*
X105092500Y-64293700D03*
D15*
X96202500Y-61753700D03*
X102552500Y-59213700D03*
D13*
X37782500Y-45243700D03*
D14*
X42862500Y-45243700D03*
D13*
X47942500Y-45243700D03*
D15*
X39052500Y-42703700D03*
X45402500Y-40163700D03*
D10*
X185737500Y-65722500D03*
D11*
X185737500Y-63687500D03*
X185737500Y-60137500D03*
D12*
X185737500Y-58102500D03*
D13*
X75882500Y-64293700D03*
D14*
X80962500Y-64293700D03*
D13*
X86042500Y-64293700D03*
D15*
X77152500Y-61753700D03*
X83502500Y-59213700D03*
D13*
X228282500Y-83343700D03*
D14*
X233362500Y-83343700D03*
D13*
X238442500Y-83343700D03*
D15*
X229552500Y-80803700D03*
X235902500Y-78263700D03*
D13*
X228282500Y-45243700D03*
D14*
X233362500Y-45243700D03*
D13*
X238442500Y-45243700D03*
D15*
X229552500Y-42703700D03*
X235902500Y-40163700D03*
D16*
X20320000Y-32004000D03*
D10*
X52387500Y-84772500D03*
D11*
X52387500Y-82737500D03*
X52387500Y-79187500D03*
D12*
X52387500Y-77152500D03*
D10*
X52387500Y-46672500D03*
D11*
X52387500Y-44637500D03*
X52387500Y-41087500D03*
D12*
X52387500Y-39052500D03*
D13*
X75882500Y-45243700D03*
D14*
X80962500Y-45243700D03*
D13*
X86042500Y-45243700D03*
D15*
X77152500Y-42703700D03*
X83502500Y-40163700D03*
D10*
X14287500Y-65722500D03*
D11*
X14287500Y-63687500D03*
X14287500Y-60137500D03*
D12*
X14287500Y-58102500D03*
D10*
X71437500Y-46672500D03*
D11*
X71437500Y-44637500D03*
X71437500Y-41087500D03*
D12*
X71437500Y-39052500D03*
D13*
X228282500Y-64293700D03*
D14*
X233362500Y-64293700D03*
D13*
X238442500Y-64293700D03*
D15*
X229552500Y-61753700D03*
X235902500Y-59213700D03*
D13*
X113982500Y-102393700D03*
D14*
X119062500Y-102393700D03*
D13*
X124142500Y-102393700D03*
D15*
X115252500Y-99853700D03*
X121602500Y-97313700D03*
D10*
X33337500Y-46672500D03*
D11*
X33337500Y-44637500D03*
X33337500Y-41087500D03*
D12*
X33337500Y-39052500D03*
D13*
X190182500Y-64293700D03*
D14*
X195262500Y-64293700D03*
D13*
X200342500Y-64293700D03*
D15*
X191452500Y-61753700D03*
X197802500Y-59213700D03*
M02*
