M48
; DRILL file {KiCad 7.0.10} date Fri Mar 22 12:38:36 2024
; FORMAT={-:-/ absolute / metric / decimal}
; #@! TF.CreationDate,2024-03-22T12:38:36+09:00
; #@! TF.GenerationSoftware,Kicad,Pcbnew,7.0.10
; #@! TF.FileFunction,NonPlated,1,2,NPTH
FMAT,2
METRIC
; #@! TA.AperFunction,NonPlated,NPTH,ComponentDrill
T1C1.500
; #@! TA.AperFunction,NonPlated,NPTH,ComponentDrill
T2C1.800
; #@! TA.AperFunction,NonPlated,NPTH,ComponentDrill
T3C1.900
; #@! TA.AperFunction,NonPlated,NPTH,ComponentDrill
T4C3.050
; #@! TA.AperFunction,NonPlated,NPTH,ComponentDrill
T5C4.000
; #@! TA.AperFunction,NonPlated,NPTH,ComponentDrill
T6C6.500
%
G90
G05
T1
X145.256Y-40.942
X150.106Y-40.942
T2
X144.956Y-37.913
X150.406Y-37.913
T3
X18.732Y-45.244
X18.732Y-64.294
X18.732Y-83.344
X28.892Y-45.244
X28.892Y-64.294
X28.892Y-83.344
X37.782Y-45.244
X37.782Y-64.294
X37.782Y-83.344
X47.942Y-45.244
X47.942Y-64.294
X47.942Y-83.344
X56.832Y-45.244
X56.832Y-64.294
X56.832Y-83.344
X66.992Y-45.244
X66.992Y-64.294
X66.992Y-83.344
X75.882Y-45.244
X75.882Y-64.294
X75.882Y-83.344
X86.042Y-45.244
X86.042Y-64.294
X86.042Y-83.344
X94.932Y-45.244
X94.932Y-64.294
X94.932Y-83.344
X94.932Y-102.394
X105.093Y-45.244
X105.093Y-64.294
X105.093Y-83.344
X105.093Y-102.394
X113.983Y-45.244
X113.983Y-64.294
X113.983Y-83.344
X113.983Y-102.394
X124.142Y-45.244
X124.142Y-64.294
X124.142Y-83.344
X124.142Y-102.394
X171.132Y-45.244
X171.132Y-64.294
X171.132Y-83.344
X171.132Y-102.394
X181.292Y-45.244
X181.292Y-64.294
X181.292Y-83.344
X181.292Y-102.394
X190.183Y-45.244
X190.183Y-64.294
X190.183Y-83.344
X190.183Y-102.394
X200.343Y-45.244
X200.343Y-64.294
X200.343Y-83.344
X200.343Y-102.394
X209.232Y-45.244
X209.232Y-64.294
X209.232Y-83.344
X219.392Y-45.244
X219.392Y-64.294
X219.392Y-83.344
X228.282Y-45.244
X228.282Y-64.294
X228.282Y-83.344
X238.442Y-45.244
X238.442Y-64.294
X238.442Y-83.344
X247.332Y-45.244
X247.332Y-64.294
X247.332Y-83.344
X257.493Y-45.244
X257.493Y-64.294
X257.493Y-83.344
X266.382Y-45.244
X271.462Y-68.739
X271.462Y-78.899
X276.542Y-45.244
T4
X264.462Y-61.919
X264.462Y-85.719
T5
X23.812Y-45.244
X23.812Y-64.294
X23.812Y-83.344
X42.862Y-45.244
X42.862Y-64.294
X42.862Y-83.344
X61.912Y-45.244
X61.912Y-64.294
X61.912Y-83.344
X80.962Y-45.244
X80.962Y-64.294
X80.962Y-83.344
X100.012Y-45.244
X100.012Y-64.294
X100.012Y-83.344
X100.012Y-102.394
X119.062Y-45.244
X119.062Y-64.294
X119.062Y-83.344
X119.062Y-102.394
X176.213Y-45.244
X176.213Y-64.294
X176.213Y-83.344
X176.213Y-102.394
X195.262Y-45.244
X195.262Y-64.294
X195.262Y-83.344
X195.262Y-102.394
X214.312Y-45.244
X214.312Y-64.294
X214.312Y-83.344
X233.362Y-45.244
X233.362Y-64.294
X233.362Y-83.344
X252.412Y-45.244
X252.412Y-64.294
X252.412Y-83.344
X271.462Y-45.244
X271.462Y-73.819
X279.702Y-61.919
X279.702Y-85.719
T6
X20.32Y-32.004
X20.32Y-97.028
X120.65Y-32.004
X135.616Y-111.506
X159.746Y-111.506
X171.45Y-32.004
X274.32Y-32.004
X274.32Y-97.028
M30
