G04 #@! TF.GenerationSoftware,KiCad,Pcbnew,7.0.10*
G04 #@! TF.CreationDate,2024-03-22T12:38:25+09:00*
G04 #@! TF.ProjectId,first_keyboard,66697273-745f-46b6-9579-626f6172642e,rev?*
G04 #@! TF.SameCoordinates,Original*
G04 #@! TF.FileFunction,Legend,Bot*
G04 #@! TF.FilePolarity,Positive*
%FSLAX46Y46*%
G04 Gerber Fmt 4.6, Leading zero omitted, Abs format (unit mm)*
G04 Created by KiCad (PCBNEW 7.0.10) date 2024-03-22 12:38:25*
%MOMM*%
%LPD*%
G01*
G04 APERTURE LIST*
%ADD10C,0.150000*%
G04 APERTURE END LIST*
D10*
X214852023Y-78670900D02*
X214709166Y-78718519D01*
X214709166Y-78718519D02*
X214471071Y-78718519D01*
X214471071Y-78718519D02*
X214375833Y-78670900D01*
X214375833Y-78670900D02*
X214328214Y-78623280D01*
X214328214Y-78623280D02*
X214280595Y-78528042D01*
X214280595Y-78528042D02*
X214280595Y-78432804D01*
X214280595Y-78432804D02*
X214328214Y-78337566D01*
X214328214Y-78337566D02*
X214375833Y-78289947D01*
X214375833Y-78289947D02*
X214471071Y-78242328D01*
X214471071Y-78242328D02*
X214661547Y-78194709D01*
X214661547Y-78194709D02*
X214756785Y-78147090D01*
X214756785Y-78147090D02*
X214804404Y-78099471D01*
X214804404Y-78099471D02*
X214852023Y-78004233D01*
X214852023Y-78004233D02*
X214852023Y-77908995D01*
X214852023Y-77908995D02*
X214804404Y-77813757D01*
X214804404Y-77813757D02*
X214756785Y-77766138D01*
X214756785Y-77766138D02*
X214661547Y-77718519D01*
X214661547Y-77718519D02*
X214423452Y-77718519D01*
X214423452Y-77718519D02*
X214280595Y-77766138D01*
X213947261Y-77718519D02*
X213709166Y-78718519D01*
X213709166Y-78718519D02*
X213518690Y-78004233D01*
X213518690Y-78004233D02*
X213328214Y-78718519D01*
X213328214Y-78718519D02*
X213090119Y-77718519D01*
X212804404Y-77718519D02*
X212185357Y-77718519D01*
X212185357Y-77718519D02*
X212518690Y-78099471D01*
X212518690Y-78099471D02*
X212375833Y-78099471D01*
X212375833Y-78099471D02*
X212280595Y-78147090D01*
X212280595Y-78147090D02*
X212232976Y-78194709D01*
X212232976Y-78194709D02*
X212185357Y-78289947D01*
X212185357Y-78289947D02*
X212185357Y-78528042D01*
X212185357Y-78528042D02*
X212232976Y-78623280D01*
X212232976Y-78623280D02*
X212280595Y-78670900D01*
X212280595Y-78670900D02*
X212375833Y-78718519D01*
X212375833Y-78718519D02*
X212661547Y-78718519D01*
X212661547Y-78718519D02*
X212756785Y-78670900D01*
X212756785Y-78670900D02*
X212804404Y-78623280D01*
X211232976Y-78718519D02*
X211804404Y-78718519D01*
X211518690Y-78718519D02*
X211518690Y-77718519D01*
X211518690Y-77718519D02*
X211613928Y-77861376D01*
X211613928Y-77861376D02*
X211709166Y-77956614D01*
X211709166Y-77956614D02*
X211804404Y-78004233D01*
X61975832Y-40570900D02*
X61832975Y-40618519D01*
X61832975Y-40618519D02*
X61594880Y-40618519D01*
X61594880Y-40618519D02*
X61499642Y-40570900D01*
X61499642Y-40570900D02*
X61452023Y-40523280D01*
X61452023Y-40523280D02*
X61404404Y-40428042D01*
X61404404Y-40428042D02*
X61404404Y-40332804D01*
X61404404Y-40332804D02*
X61452023Y-40237566D01*
X61452023Y-40237566D02*
X61499642Y-40189947D01*
X61499642Y-40189947D02*
X61594880Y-40142328D01*
X61594880Y-40142328D02*
X61785356Y-40094709D01*
X61785356Y-40094709D02*
X61880594Y-40047090D01*
X61880594Y-40047090D02*
X61928213Y-39999471D01*
X61928213Y-39999471D02*
X61975832Y-39904233D01*
X61975832Y-39904233D02*
X61975832Y-39808995D01*
X61975832Y-39808995D02*
X61928213Y-39713757D01*
X61928213Y-39713757D02*
X61880594Y-39666138D01*
X61880594Y-39666138D02*
X61785356Y-39618519D01*
X61785356Y-39618519D02*
X61547261Y-39618519D01*
X61547261Y-39618519D02*
X61404404Y-39666138D01*
X61071070Y-39618519D02*
X60832975Y-40618519D01*
X60832975Y-40618519D02*
X60642499Y-39904233D01*
X60642499Y-39904233D02*
X60452023Y-40618519D01*
X60452023Y-40618519D02*
X60213928Y-39618519D01*
X59785356Y-40618519D02*
X59594880Y-40618519D01*
X59594880Y-40618519D02*
X59499642Y-40570900D01*
X59499642Y-40570900D02*
X59452023Y-40523280D01*
X59452023Y-40523280D02*
X59356785Y-40380423D01*
X59356785Y-40380423D02*
X59309166Y-40189947D01*
X59309166Y-40189947D02*
X59309166Y-39808995D01*
X59309166Y-39808995D02*
X59356785Y-39713757D01*
X59356785Y-39713757D02*
X59404404Y-39666138D01*
X59404404Y-39666138D02*
X59499642Y-39618519D01*
X59499642Y-39618519D02*
X59690118Y-39618519D01*
X59690118Y-39618519D02*
X59785356Y-39666138D01*
X59785356Y-39666138D02*
X59832975Y-39713757D01*
X59832975Y-39713757D02*
X59880594Y-39808995D01*
X59880594Y-39808995D02*
X59880594Y-40047090D01*
X59880594Y-40047090D02*
X59832975Y-40142328D01*
X59832975Y-40142328D02*
X59785356Y-40189947D01*
X59785356Y-40189947D02*
X59690118Y-40237566D01*
X59690118Y-40237566D02*
X59499642Y-40237566D01*
X59499642Y-40237566D02*
X59404404Y-40189947D01*
X59404404Y-40189947D02*
X59356785Y-40142328D01*
X59356785Y-40142328D02*
X59309166Y-40047090D01*
X42925832Y-59620900D02*
X42782975Y-59668519D01*
X42782975Y-59668519D02*
X42544880Y-59668519D01*
X42544880Y-59668519D02*
X42449642Y-59620900D01*
X42449642Y-59620900D02*
X42402023Y-59573280D01*
X42402023Y-59573280D02*
X42354404Y-59478042D01*
X42354404Y-59478042D02*
X42354404Y-59382804D01*
X42354404Y-59382804D02*
X42402023Y-59287566D01*
X42402023Y-59287566D02*
X42449642Y-59239947D01*
X42449642Y-59239947D02*
X42544880Y-59192328D01*
X42544880Y-59192328D02*
X42735356Y-59144709D01*
X42735356Y-59144709D02*
X42830594Y-59097090D01*
X42830594Y-59097090D02*
X42878213Y-59049471D01*
X42878213Y-59049471D02*
X42925832Y-58954233D01*
X42925832Y-58954233D02*
X42925832Y-58858995D01*
X42925832Y-58858995D02*
X42878213Y-58763757D01*
X42878213Y-58763757D02*
X42830594Y-58716138D01*
X42830594Y-58716138D02*
X42735356Y-58668519D01*
X42735356Y-58668519D02*
X42497261Y-58668519D01*
X42497261Y-58668519D02*
X42354404Y-58716138D01*
X42021070Y-58668519D02*
X41782975Y-59668519D01*
X41782975Y-59668519D02*
X41592499Y-58954233D01*
X41592499Y-58954233D02*
X41402023Y-59668519D01*
X41402023Y-59668519D02*
X41163928Y-58668519D01*
X40354404Y-58668519D02*
X40544880Y-58668519D01*
X40544880Y-58668519D02*
X40640118Y-58716138D01*
X40640118Y-58716138D02*
X40687737Y-58763757D01*
X40687737Y-58763757D02*
X40782975Y-58906614D01*
X40782975Y-58906614D02*
X40830594Y-59097090D01*
X40830594Y-59097090D02*
X40830594Y-59478042D01*
X40830594Y-59478042D02*
X40782975Y-59573280D01*
X40782975Y-59573280D02*
X40735356Y-59620900D01*
X40735356Y-59620900D02*
X40640118Y-59668519D01*
X40640118Y-59668519D02*
X40449642Y-59668519D01*
X40449642Y-59668519D02*
X40354404Y-59620900D01*
X40354404Y-59620900D02*
X40306785Y-59573280D01*
X40306785Y-59573280D02*
X40259166Y-59478042D01*
X40259166Y-59478042D02*
X40259166Y-59239947D01*
X40259166Y-59239947D02*
X40306785Y-59144709D01*
X40306785Y-59144709D02*
X40354404Y-59097090D01*
X40354404Y-59097090D02*
X40449642Y-59049471D01*
X40449642Y-59049471D02*
X40640118Y-59049471D01*
X40640118Y-59049471D02*
X40735356Y-59097090D01*
X40735356Y-59097090D02*
X40782975Y-59144709D01*
X40782975Y-59144709D02*
X40830594Y-59239947D01*
X23875832Y-40570900D02*
X23732975Y-40618519D01*
X23732975Y-40618519D02*
X23494880Y-40618519D01*
X23494880Y-40618519D02*
X23399642Y-40570900D01*
X23399642Y-40570900D02*
X23352023Y-40523280D01*
X23352023Y-40523280D02*
X23304404Y-40428042D01*
X23304404Y-40428042D02*
X23304404Y-40332804D01*
X23304404Y-40332804D02*
X23352023Y-40237566D01*
X23352023Y-40237566D02*
X23399642Y-40189947D01*
X23399642Y-40189947D02*
X23494880Y-40142328D01*
X23494880Y-40142328D02*
X23685356Y-40094709D01*
X23685356Y-40094709D02*
X23780594Y-40047090D01*
X23780594Y-40047090D02*
X23828213Y-39999471D01*
X23828213Y-39999471D02*
X23875832Y-39904233D01*
X23875832Y-39904233D02*
X23875832Y-39808995D01*
X23875832Y-39808995D02*
X23828213Y-39713757D01*
X23828213Y-39713757D02*
X23780594Y-39666138D01*
X23780594Y-39666138D02*
X23685356Y-39618519D01*
X23685356Y-39618519D02*
X23447261Y-39618519D01*
X23447261Y-39618519D02*
X23304404Y-39666138D01*
X22971070Y-39618519D02*
X22732975Y-40618519D01*
X22732975Y-40618519D02*
X22542499Y-39904233D01*
X22542499Y-39904233D02*
X22352023Y-40618519D01*
X22352023Y-40618519D02*
X22113928Y-39618519D01*
X21209166Y-40618519D02*
X21780594Y-40618519D01*
X21494880Y-40618519D02*
X21494880Y-39618519D01*
X21494880Y-39618519D02*
X21590118Y-39761376D01*
X21590118Y-39761376D02*
X21685356Y-39856614D01*
X21685356Y-39856614D02*
X21780594Y-39904233D01*
X214852023Y-40570900D02*
X214709166Y-40618519D01*
X214709166Y-40618519D02*
X214471071Y-40618519D01*
X214471071Y-40618519D02*
X214375833Y-40570900D01*
X214375833Y-40570900D02*
X214328214Y-40523280D01*
X214328214Y-40523280D02*
X214280595Y-40428042D01*
X214280595Y-40428042D02*
X214280595Y-40332804D01*
X214280595Y-40332804D02*
X214328214Y-40237566D01*
X214328214Y-40237566D02*
X214375833Y-40189947D01*
X214375833Y-40189947D02*
X214471071Y-40142328D01*
X214471071Y-40142328D02*
X214661547Y-40094709D01*
X214661547Y-40094709D02*
X214756785Y-40047090D01*
X214756785Y-40047090D02*
X214804404Y-39999471D01*
X214804404Y-39999471D02*
X214852023Y-39904233D01*
X214852023Y-39904233D02*
X214852023Y-39808995D01*
X214852023Y-39808995D02*
X214804404Y-39713757D01*
X214804404Y-39713757D02*
X214756785Y-39666138D01*
X214756785Y-39666138D02*
X214661547Y-39618519D01*
X214661547Y-39618519D02*
X214423452Y-39618519D01*
X214423452Y-39618519D02*
X214280595Y-39666138D01*
X213947261Y-39618519D02*
X213709166Y-40618519D01*
X213709166Y-40618519D02*
X213518690Y-39904233D01*
X213518690Y-39904233D02*
X213328214Y-40618519D01*
X213328214Y-40618519D02*
X213090119Y-39618519D01*
X212756785Y-39713757D02*
X212709166Y-39666138D01*
X212709166Y-39666138D02*
X212613928Y-39618519D01*
X212613928Y-39618519D02*
X212375833Y-39618519D01*
X212375833Y-39618519D02*
X212280595Y-39666138D01*
X212280595Y-39666138D02*
X212232976Y-39713757D01*
X212232976Y-39713757D02*
X212185357Y-39808995D01*
X212185357Y-39808995D02*
X212185357Y-39904233D01*
X212185357Y-39904233D02*
X212232976Y-40047090D01*
X212232976Y-40047090D02*
X212804404Y-40618519D01*
X212804404Y-40618519D02*
X212185357Y-40618519D01*
X211709166Y-40618519D02*
X211518690Y-40618519D01*
X211518690Y-40618519D02*
X211423452Y-40570900D01*
X211423452Y-40570900D02*
X211375833Y-40523280D01*
X211375833Y-40523280D02*
X211280595Y-40380423D01*
X211280595Y-40380423D02*
X211232976Y-40189947D01*
X211232976Y-40189947D02*
X211232976Y-39808995D01*
X211232976Y-39808995D02*
X211280595Y-39713757D01*
X211280595Y-39713757D02*
X211328214Y-39666138D01*
X211328214Y-39666138D02*
X211423452Y-39618519D01*
X211423452Y-39618519D02*
X211613928Y-39618519D01*
X211613928Y-39618519D02*
X211709166Y-39666138D01*
X211709166Y-39666138D02*
X211756785Y-39713757D01*
X211756785Y-39713757D02*
X211804404Y-39808995D01*
X211804404Y-39808995D02*
X211804404Y-40047090D01*
X211804404Y-40047090D02*
X211756785Y-40142328D01*
X211756785Y-40142328D02*
X211709166Y-40189947D01*
X211709166Y-40189947D02*
X211613928Y-40237566D01*
X211613928Y-40237566D02*
X211423452Y-40237566D01*
X211423452Y-40237566D02*
X211328214Y-40189947D01*
X211328214Y-40189947D02*
X211280595Y-40142328D01*
X211280595Y-40142328D02*
X211232976Y-40047090D01*
X214852023Y-59620900D02*
X214709166Y-59668519D01*
X214709166Y-59668519D02*
X214471071Y-59668519D01*
X214471071Y-59668519D02*
X214375833Y-59620900D01*
X214375833Y-59620900D02*
X214328214Y-59573280D01*
X214328214Y-59573280D02*
X214280595Y-59478042D01*
X214280595Y-59478042D02*
X214280595Y-59382804D01*
X214280595Y-59382804D02*
X214328214Y-59287566D01*
X214328214Y-59287566D02*
X214375833Y-59239947D01*
X214375833Y-59239947D02*
X214471071Y-59192328D01*
X214471071Y-59192328D02*
X214661547Y-59144709D01*
X214661547Y-59144709D02*
X214756785Y-59097090D01*
X214756785Y-59097090D02*
X214804404Y-59049471D01*
X214804404Y-59049471D02*
X214852023Y-58954233D01*
X214852023Y-58954233D02*
X214852023Y-58858995D01*
X214852023Y-58858995D02*
X214804404Y-58763757D01*
X214804404Y-58763757D02*
X214756785Y-58716138D01*
X214756785Y-58716138D02*
X214661547Y-58668519D01*
X214661547Y-58668519D02*
X214423452Y-58668519D01*
X214423452Y-58668519D02*
X214280595Y-58716138D01*
X213947261Y-58668519D02*
X213709166Y-59668519D01*
X213709166Y-59668519D02*
X213518690Y-58954233D01*
X213518690Y-58954233D02*
X213328214Y-59668519D01*
X213328214Y-59668519D02*
X213090119Y-58668519D01*
X212804404Y-58668519D02*
X212185357Y-58668519D01*
X212185357Y-58668519D02*
X212518690Y-59049471D01*
X212518690Y-59049471D02*
X212375833Y-59049471D01*
X212375833Y-59049471D02*
X212280595Y-59097090D01*
X212280595Y-59097090D02*
X212232976Y-59144709D01*
X212232976Y-59144709D02*
X212185357Y-59239947D01*
X212185357Y-59239947D02*
X212185357Y-59478042D01*
X212185357Y-59478042D02*
X212232976Y-59573280D01*
X212232976Y-59573280D02*
X212280595Y-59620900D01*
X212280595Y-59620900D02*
X212375833Y-59668519D01*
X212375833Y-59668519D02*
X212661547Y-59668519D01*
X212661547Y-59668519D02*
X212756785Y-59620900D01*
X212756785Y-59620900D02*
X212804404Y-59573280D01*
X211566309Y-58668519D02*
X211471071Y-58668519D01*
X211471071Y-58668519D02*
X211375833Y-58716138D01*
X211375833Y-58716138D02*
X211328214Y-58763757D01*
X211328214Y-58763757D02*
X211280595Y-58858995D01*
X211280595Y-58858995D02*
X211232976Y-59049471D01*
X211232976Y-59049471D02*
X211232976Y-59287566D01*
X211232976Y-59287566D02*
X211280595Y-59478042D01*
X211280595Y-59478042D02*
X211328214Y-59573280D01*
X211328214Y-59573280D02*
X211375833Y-59620900D01*
X211375833Y-59620900D02*
X211471071Y-59668519D01*
X211471071Y-59668519D02*
X211566309Y-59668519D01*
X211566309Y-59668519D02*
X211661547Y-59620900D01*
X211661547Y-59620900D02*
X211709166Y-59573280D01*
X211709166Y-59573280D02*
X211756785Y-59478042D01*
X211756785Y-59478042D02*
X211804404Y-59287566D01*
X211804404Y-59287566D02*
X211804404Y-59049471D01*
X211804404Y-59049471D02*
X211756785Y-58858995D01*
X211756785Y-58858995D02*
X211709166Y-58763757D01*
X211709166Y-58763757D02*
X211661547Y-58716138D01*
X211661547Y-58716138D02*
X211566309Y-58668519D01*
X195802023Y-40570900D02*
X195659166Y-40618519D01*
X195659166Y-40618519D02*
X195421071Y-40618519D01*
X195421071Y-40618519D02*
X195325833Y-40570900D01*
X195325833Y-40570900D02*
X195278214Y-40523280D01*
X195278214Y-40523280D02*
X195230595Y-40428042D01*
X195230595Y-40428042D02*
X195230595Y-40332804D01*
X195230595Y-40332804D02*
X195278214Y-40237566D01*
X195278214Y-40237566D02*
X195325833Y-40189947D01*
X195325833Y-40189947D02*
X195421071Y-40142328D01*
X195421071Y-40142328D02*
X195611547Y-40094709D01*
X195611547Y-40094709D02*
X195706785Y-40047090D01*
X195706785Y-40047090D02*
X195754404Y-39999471D01*
X195754404Y-39999471D02*
X195802023Y-39904233D01*
X195802023Y-39904233D02*
X195802023Y-39808995D01*
X195802023Y-39808995D02*
X195754404Y-39713757D01*
X195754404Y-39713757D02*
X195706785Y-39666138D01*
X195706785Y-39666138D02*
X195611547Y-39618519D01*
X195611547Y-39618519D02*
X195373452Y-39618519D01*
X195373452Y-39618519D02*
X195230595Y-39666138D01*
X194897261Y-39618519D02*
X194659166Y-40618519D01*
X194659166Y-40618519D02*
X194468690Y-39904233D01*
X194468690Y-39904233D02*
X194278214Y-40618519D01*
X194278214Y-40618519D02*
X194040119Y-39618519D01*
X193706785Y-39713757D02*
X193659166Y-39666138D01*
X193659166Y-39666138D02*
X193563928Y-39618519D01*
X193563928Y-39618519D02*
X193325833Y-39618519D01*
X193325833Y-39618519D02*
X193230595Y-39666138D01*
X193230595Y-39666138D02*
X193182976Y-39713757D01*
X193182976Y-39713757D02*
X193135357Y-39808995D01*
X193135357Y-39808995D02*
X193135357Y-39904233D01*
X193135357Y-39904233D02*
X193182976Y-40047090D01*
X193182976Y-40047090D02*
X193754404Y-40618519D01*
X193754404Y-40618519D02*
X193135357Y-40618519D01*
X192278214Y-39618519D02*
X192468690Y-39618519D01*
X192468690Y-39618519D02*
X192563928Y-39666138D01*
X192563928Y-39666138D02*
X192611547Y-39713757D01*
X192611547Y-39713757D02*
X192706785Y-39856614D01*
X192706785Y-39856614D02*
X192754404Y-40047090D01*
X192754404Y-40047090D02*
X192754404Y-40428042D01*
X192754404Y-40428042D02*
X192706785Y-40523280D01*
X192706785Y-40523280D02*
X192659166Y-40570900D01*
X192659166Y-40570900D02*
X192563928Y-40618519D01*
X192563928Y-40618519D02*
X192373452Y-40618519D01*
X192373452Y-40618519D02*
X192278214Y-40570900D01*
X192278214Y-40570900D02*
X192230595Y-40523280D01*
X192230595Y-40523280D02*
X192182976Y-40428042D01*
X192182976Y-40428042D02*
X192182976Y-40189947D01*
X192182976Y-40189947D02*
X192230595Y-40094709D01*
X192230595Y-40094709D02*
X192278214Y-40047090D01*
X192278214Y-40047090D02*
X192373452Y-39999471D01*
X192373452Y-39999471D02*
X192563928Y-39999471D01*
X192563928Y-39999471D02*
X192659166Y-40047090D01*
X192659166Y-40047090D02*
X192706785Y-40094709D01*
X192706785Y-40094709D02*
X192754404Y-40189947D01*
X195802023Y-97720900D02*
X195659166Y-97768519D01*
X195659166Y-97768519D02*
X195421071Y-97768519D01*
X195421071Y-97768519D02*
X195325833Y-97720900D01*
X195325833Y-97720900D02*
X195278214Y-97673280D01*
X195278214Y-97673280D02*
X195230595Y-97578042D01*
X195230595Y-97578042D02*
X195230595Y-97482804D01*
X195230595Y-97482804D02*
X195278214Y-97387566D01*
X195278214Y-97387566D02*
X195325833Y-97339947D01*
X195325833Y-97339947D02*
X195421071Y-97292328D01*
X195421071Y-97292328D02*
X195611547Y-97244709D01*
X195611547Y-97244709D02*
X195706785Y-97197090D01*
X195706785Y-97197090D02*
X195754404Y-97149471D01*
X195754404Y-97149471D02*
X195802023Y-97054233D01*
X195802023Y-97054233D02*
X195802023Y-96958995D01*
X195802023Y-96958995D02*
X195754404Y-96863757D01*
X195754404Y-96863757D02*
X195706785Y-96816138D01*
X195706785Y-96816138D02*
X195611547Y-96768519D01*
X195611547Y-96768519D02*
X195373452Y-96768519D01*
X195373452Y-96768519D02*
X195230595Y-96816138D01*
X194897261Y-96768519D02*
X194659166Y-97768519D01*
X194659166Y-97768519D02*
X194468690Y-97054233D01*
X194468690Y-97054233D02*
X194278214Y-97768519D01*
X194278214Y-97768519D02*
X194040119Y-96768519D01*
X193135357Y-97768519D02*
X193706785Y-97768519D01*
X193421071Y-97768519D02*
X193421071Y-96768519D01*
X193421071Y-96768519D02*
X193516309Y-96911376D01*
X193516309Y-96911376D02*
X193611547Y-97006614D01*
X193611547Y-97006614D02*
X193706785Y-97054233D01*
X192278214Y-96768519D02*
X192468690Y-96768519D01*
X192468690Y-96768519D02*
X192563928Y-96816138D01*
X192563928Y-96816138D02*
X192611547Y-96863757D01*
X192611547Y-96863757D02*
X192706785Y-97006614D01*
X192706785Y-97006614D02*
X192754404Y-97197090D01*
X192754404Y-97197090D02*
X192754404Y-97578042D01*
X192754404Y-97578042D02*
X192706785Y-97673280D01*
X192706785Y-97673280D02*
X192659166Y-97720900D01*
X192659166Y-97720900D02*
X192563928Y-97768519D01*
X192563928Y-97768519D02*
X192373452Y-97768519D01*
X192373452Y-97768519D02*
X192278214Y-97720900D01*
X192278214Y-97720900D02*
X192230595Y-97673280D01*
X192230595Y-97673280D02*
X192182976Y-97578042D01*
X192182976Y-97578042D02*
X192182976Y-97339947D01*
X192182976Y-97339947D02*
X192230595Y-97244709D01*
X192230595Y-97244709D02*
X192278214Y-97197090D01*
X192278214Y-97197090D02*
X192373452Y-97149471D01*
X192373452Y-97149471D02*
X192563928Y-97149471D01*
X192563928Y-97149471D02*
X192659166Y-97197090D01*
X192659166Y-97197090D02*
X192706785Y-97244709D01*
X192706785Y-97244709D02*
X192754404Y-97339947D01*
X176752023Y-78670900D02*
X176609166Y-78718519D01*
X176609166Y-78718519D02*
X176371071Y-78718519D01*
X176371071Y-78718519D02*
X176275833Y-78670900D01*
X176275833Y-78670900D02*
X176228214Y-78623280D01*
X176228214Y-78623280D02*
X176180595Y-78528042D01*
X176180595Y-78528042D02*
X176180595Y-78432804D01*
X176180595Y-78432804D02*
X176228214Y-78337566D01*
X176228214Y-78337566D02*
X176275833Y-78289947D01*
X176275833Y-78289947D02*
X176371071Y-78242328D01*
X176371071Y-78242328D02*
X176561547Y-78194709D01*
X176561547Y-78194709D02*
X176656785Y-78147090D01*
X176656785Y-78147090D02*
X176704404Y-78099471D01*
X176704404Y-78099471D02*
X176752023Y-78004233D01*
X176752023Y-78004233D02*
X176752023Y-77908995D01*
X176752023Y-77908995D02*
X176704404Y-77813757D01*
X176704404Y-77813757D02*
X176656785Y-77766138D01*
X176656785Y-77766138D02*
X176561547Y-77718519D01*
X176561547Y-77718519D02*
X176323452Y-77718519D01*
X176323452Y-77718519D02*
X176180595Y-77766138D01*
X175847261Y-77718519D02*
X175609166Y-78718519D01*
X175609166Y-78718519D02*
X175418690Y-78004233D01*
X175418690Y-78004233D02*
X175228214Y-78718519D01*
X175228214Y-78718519D02*
X174990119Y-77718519D01*
X174656785Y-77813757D02*
X174609166Y-77766138D01*
X174609166Y-77766138D02*
X174513928Y-77718519D01*
X174513928Y-77718519D02*
X174275833Y-77718519D01*
X174275833Y-77718519D02*
X174180595Y-77766138D01*
X174180595Y-77766138D02*
X174132976Y-77813757D01*
X174132976Y-77813757D02*
X174085357Y-77908995D01*
X174085357Y-77908995D02*
X174085357Y-78004233D01*
X174085357Y-78004233D02*
X174132976Y-78147090D01*
X174132976Y-78147090D02*
X174704404Y-78718519D01*
X174704404Y-78718519D02*
X174085357Y-78718519D01*
X173180595Y-77718519D02*
X173656785Y-77718519D01*
X173656785Y-77718519D02*
X173704404Y-78194709D01*
X173704404Y-78194709D02*
X173656785Y-78147090D01*
X173656785Y-78147090D02*
X173561547Y-78099471D01*
X173561547Y-78099471D02*
X173323452Y-78099471D01*
X173323452Y-78099471D02*
X173228214Y-78147090D01*
X173228214Y-78147090D02*
X173180595Y-78194709D01*
X173180595Y-78194709D02*
X173132976Y-78289947D01*
X173132976Y-78289947D02*
X173132976Y-78528042D01*
X173132976Y-78528042D02*
X173180595Y-78623280D01*
X173180595Y-78623280D02*
X173228214Y-78670900D01*
X173228214Y-78670900D02*
X173323452Y-78718519D01*
X173323452Y-78718519D02*
X173561547Y-78718519D01*
X173561547Y-78718519D02*
X173656785Y-78670900D01*
X173656785Y-78670900D02*
X173704404Y-78623280D01*
X23875832Y-59620900D02*
X23732975Y-59668519D01*
X23732975Y-59668519D02*
X23494880Y-59668519D01*
X23494880Y-59668519D02*
X23399642Y-59620900D01*
X23399642Y-59620900D02*
X23352023Y-59573280D01*
X23352023Y-59573280D02*
X23304404Y-59478042D01*
X23304404Y-59478042D02*
X23304404Y-59382804D01*
X23304404Y-59382804D02*
X23352023Y-59287566D01*
X23352023Y-59287566D02*
X23399642Y-59239947D01*
X23399642Y-59239947D02*
X23494880Y-59192328D01*
X23494880Y-59192328D02*
X23685356Y-59144709D01*
X23685356Y-59144709D02*
X23780594Y-59097090D01*
X23780594Y-59097090D02*
X23828213Y-59049471D01*
X23828213Y-59049471D02*
X23875832Y-58954233D01*
X23875832Y-58954233D02*
X23875832Y-58858995D01*
X23875832Y-58858995D02*
X23828213Y-58763757D01*
X23828213Y-58763757D02*
X23780594Y-58716138D01*
X23780594Y-58716138D02*
X23685356Y-58668519D01*
X23685356Y-58668519D02*
X23447261Y-58668519D01*
X23447261Y-58668519D02*
X23304404Y-58716138D01*
X22971070Y-58668519D02*
X22732975Y-59668519D01*
X22732975Y-59668519D02*
X22542499Y-58954233D01*
X22542499Y-58954233D02*
X22352023Y-59668519D01*
X22352023Y-59668519D02*
X22113928Y-58668519D01*
X21780594Y-58763757D02*
X21732975Y-58716138D01*
X21732975Y-58716138D02*
X21637737Y-58668519D01*
X21637737Y-58668519D02*
X21399642Y-58668519D01*
X21399642Y-58668519D02*
X21304404Y-58716138D01*
X21304404Y-58716138D02*
X21256785Y-58763757D01*
X21256785Y-58763757D02*
X21209166Y-58858995D01*
X21209166Y-58858995D02*
X21209166Y-58954233D01*
X21209166Y-58954233D02*
X21256785Y-59097090D01*
X21256785Y-59097090D02*
X21828213Y-59668519D01*
X21828213Y-59668519D02*
X21209166Y-59668519D01*
X119602023Y-40570900D02*
X119459166Y-40618519D01*
X119459166Y-40618519D02*
X119221071Y-40618519D01*
X119221071Y-40618519D02*
X119125833Y-40570900D01*
X119125833Y-40570900D02*
X119078214Y-40523280D01*
X119078214Y-40523280D02*
X119030595Y-40428042D01*
X119030595Y-40428042D02*
X119030595Y-40332804D01*
X119030595Y-40332804D02*
X119078214Y-40237566D01*
X119078214Y-40237566D02*
X119125833Y-40189947D01*
X119125833Y-40189947D02*
X119221071Y-40142328D01*
X119221071Y-40142328D02*
X119411547Y-40094709D01*
X119411547Y-40094709D02*
X119506785Y-40047090D01*
X119506785Y-40047090D02*
X119554404Y-39999471D01*
X119554404Y-39999471D02*
X119602023Y-39904233D01*
X119602023Y-39904233D02*
X119602023Y-39808995D01*
X119602023Y-39808995D02*
X119554404Y-39713757D01*
X119554404Y-39713757D02*
X119506785Y-39666138D01*
X119506785Y-39666138D02*
X119411547Y-39618519D01*
X119411547Y-39618519D02*
X119173452Y-39618519D01*
X119173452Y-39618519D02*
X119030595Y-39666138D01*
X118697261Y-39618519D02*
X118459166Y-40618519D01*
X118459166Y-40618519D02*
X118268690Y-39904233D01*
X118268690Y-39904233D02*
X118078214Y-40618519D01*
X118078214Y-40618519D02*
X117840119Y-39618519D01*
X117506785Y-39713757D02*
X117459166Y-39666138D01*
X117459166Y-39666138D02*
X117363928Y-39618519D01*
X117363928Y-39618519D02*
X117125833Y-39618519D01*
X117125833Y-39618519D02*
X117030595Y-39666138D01*
X117030595Y-39666138D02*
X116982976Y-39713757D01*
X116982976Y-39713757D02*
X116935357Y-39808995D01*
X116935357Y-39808995D02*
X116935357Y-39904233D01*
X116935357Y-39904233D02*
X116982976Y-40047090D01*
X116982976Y-40047090D02*
X117554404Y-40618519D01*
X117554404Y-40618519D02*
X116935357Y-40618519D01*
X116316309Y-39618519D02*
X116221071Y-39618519D01*
X116221071Y-39618519D02*
X116125833Y-39666138D01*
X116125833Y-39666138D02*
X116078214Y-39713757D01*
X116078214Y-39713757D02*
X116030595Y-39808995D01*
X116030595Y-39808995D02*
X115982976Y-39999471D01*
X115982976Y-39999471D02*
X115982976Y-40237566D01*
X115982976Y-40237566D02*
X116030595Y-40428042D01*
X116030595Y-40428042D02*
X116078214Y-40523280D01*
X116078214Y-40523280D02*
X116125833Y-40570900D01*
X116125833Y-40570900D02*
X116221071Y-40618519D01*
X116221071Y-40618519D02*
X116316309Y-40618519D01*
X116316309Y-40618519D02*
X116411547Y-40570900D01*
X116411547Y-40570900D02*
X116459166Y-40523280D01*
X116459166Y-40523280D02*
X116506785Y-40428042D01*
X116506785Y-40428042D02*
X116554404Y-40237566D01*
X116554404Y-40237566D02*
X116554404Y-39999471D01*
X116554404Y-39999471D02*
X116506785Y-39808995D01*
X116506785Y-39808995D02*
X116459166Y-39713757D01*
X116459166Y-39713757D02*
X116411547Y-39666138D01*
X116411547Y-39666138D02*
X116316309Y-39618519D01*
X119602023Y-59620900D02*
X119459166Y-59668519D01*
X119459166Y-59668519D02*
X119221071Y-59668519D01*
X119221071Y-59668519D02*
X119125833Y-59620900D01*
X119125833Y-59620900D02*
X119078214Y-59573280D01*
X119078214Y-59573280D02*
X119030595Y-59478042D01*
X119030595Y-59478042D02*
X119030595Y-59382804D01*
X119030595Y-59382804D02*
X119078214Y-59287566D01*
X119078214Y-59287566D02*
X119125833Y-59239947D01*
X119125833Y-59239947D02*
X119221071Y-59192328D01*
X119221071Y-59192328D02*
X119411547Y-59144709D01*
X119411547Y-59144709D02*
X119506785Y-59097090D01*
X119506785Y-59097090D02*
X119554404Y-59049471D01*
X119554404Y-59049471D02*
X119602023Y-58954233D01*
X119602023Y-58954233D02*
X119602023Y-58858995D01*
X119602023Y-58858995D02*
X119554404Y-58763757D01*
X119554404Y-58763757D02*
X119506785Y-58716138D01*
X119506785Y-58716138D02*
X119411547Y-58668519D01*
X119411547Y-58668519D02*
X119173452Y-58668519D01*
X119173452Y-58668519D02*
X119030595Y-58716138D01*
X118697261Y-58668519D02*
X118459166Y-59668519D01*
X118459166Y-59668519D02*
X118268690Y-58954233D01*
X118268690Y-58954233D02*
X118078214Y-59668519D01*
X118078214Y-59668519D02*
X117840119Y-58668519D01*
X117506785Y-58763757D02*
X117459166Y-58716138D01*
X117459166Y-58716138D02*
X117363928Y-58668519D01*
X117363928Y-58668519D02*
X117125833Y-58668519D01*
X117125833Y-58668519D02*
X117030595Y-58716138D01*
X117030595Y-58716138D02*
X116982976Y-58763757D01*
X116982976Y-58763757D02*
X116935357Y-58858995D01*
X116935357Y-58858995D02*
X116935357Y-58954233D01*
X116935357Y-58954233D02*
X116982976Y-59097090D01*
X116982976Y-59097090D02*
X117554404Y-59668519D01*
X117554404Y-59668519D02*
X116935357Y-59668519D01*
X115982976Y-59668519D02*
X116554404Y-59668519D01*
X116268690Y-59668519D02*
X116268690Y-58668519D01*
X116268690Y-58668519D02*
X116363928Y-58811376D01*
X116363928Y-58811376D02*
X116459166Y-58906614D01*
X116459166Y-58906614D02*
X116554404Y-58954233D01*
X272002023Y-40570900D02*
X271859166Y-40618519D01*
X271859166Y-40618519D02*
X271621071Y-40618519D01*
X271621071Y-40618519D02*
X271525833Y-40570900D01*
X271525833Y-40570900D02*
X271478214Y-40523280D01*
X271478214Y-40523280D02*
X271430595Y-40428042D01*
X271430595Y-40428042D02*
X271430595Y-40332804D01*
X271430595Y-40332804D02*
X271478214Y-40237566D01*
X271478214Y-40237566D02*
X271525833Y-40189947D01*
X271525833Y-40189947D02*
X271621071Y-40142328D01*
X271621071Y-40142328D02*
X271811547Y-40094709D01*
X271811547Y-40094709D02*
X271906785Y-40047090D01*
X271906785Y-40047090D02*
X271954404Y-39999471D01*
X271954404Y-39999471D02*
X272002023Y-39904233D01*
X272002023Y-39904233D02*
X272002023Y-39808995D01*
X272002023Y-39808995D02*
X271954404Y-39713757D01*
X271954404Y-39713757D02*
X271906785Y-39666138D01*
X271906785Y-39666138D02*
X271811547Y-39618519D01*
X271811547Y-39618519D02*
X271573452Y-39618519D01*
X271573452Y-39618519D02*
X271430595Y-39666138D01*
X271097261Y-39618519D02*
X270859166Y-40618519D01*
X270859166Y-40618519D02*
X270668690Y-39904233D01*
X270668690Y-39904233D02*
X270478214Y-40618519D01*
X270478214Y-40618519D02*
X270240119Y-39618519D01*
X269954404Y-39618519D02*
X269335357Y-39618519D01*
X269335357Y-39618519D02*
X269668690Y-39999471D01*
X269668690Y-39999471D02*
X269525833Y-39999471D01*
X269525833Y-39999471D02*
X269430595Y-40047090D01*
X269430595Y-40047090D02*
X269382976Y-40094709D01*
X269382976Y-40094709D02*
X269335357Y-40189947D01*
X269335357Y-40189947D02*
X269335357Y-40428042D01*
X269335357Y-40428042D02*
X269382976Y-40523280D01*
X269382976Y-40523280D02*
X269430595Y-40570900D01*
X269430595Y-40570900D02*
X269525833Y-40618519D01*
X269525833Y-40618519D02*
X269811547Y-40618519D01*
X269811547Y-40618519D02*
X269906785Y-40570900D01*
X269906785Y-40570900D02*
X269954404Y-40523280D01*
X268763928Y-40047090D02*
X268859166Y-39999471D01*
X268859166Y-39999471D02*
X268906785Y-39951852D01*
X268906785Y-39951852D02*
X268954404Y-39856614D01*
X268954404Y-39856614D02*
X268954404Y-39808995D01*
X268954404Y-39808995D02*
X268906785Y-39713757D01*
X268906785Y-39713757D02*
X268859166Y-39666138D01*
X268859166Y-39666138D02*
X268763928Y-39618519D01*
X268763928Y-39618519D02*
X268573452Y-39618519D01*
X268573452Y-39618519D02*
X268478214Y-39666138D01*
X268478214Y-39666138D02*
X268430595Y-39713757D01*
X268430595Y-39713757D02*
X268382976Y-39808995D01*
X268382976Y-39808995D02*
X268382976Y-39856614D01*
X268382976Y-39856614D02*
X268430595Y-39951852D01*
X268430595Y-39951852D02*
X268478214Y-39999471D01*
X268478214Y-39999471D02*
X268573452Y-40047090D01*
X268573452Y-40047090D02*
X268763928Y-40047090D01*
X268763928Y-40047090D02*
X268859166Y-40094709D01*
X268859166Y-40094709D02*
X268906785Y-40142328D01*
X268906785Y-40142328D02*
X268954404Y-40237566D01*
X268954404Y-40237566D02*
X268954404Y-40428042D01*
X268954404Y-40428042D02*
X268906785Y-40523280D01*
X268906785Y-40523280D02*
X268859166Y-40570900D01*
X268859166Y-40570900D02*
X268763928Y-40618519D01*
X268763928Y-40618519D02*
X268573452Y-40618519D01*
X268573452Y-40618519D02*
X268478214Y-40570900D01*
X268478214Y-40570900D02*
X268430595Y-40523280D01*
X268430595Y-40523280D02*
X268382976Y-40428042D01*
X268382976Y-40428042D02*
X268382976Y-40237566D01*
X268382976Y-40237566D02*
X268430595Y-40142328D01*
X268430595Y-40142328D02*
X268478214Y-40094709D01*
X268478214Y-40094709D02*
X268573452Y-40047090D01*
X100552023Y-40570900D02*
X100409166Y-40618519D01*
X100409166Y-40618519D02*
X100171071Y-40618519D01*
X100171071Y-40618519D02*
X100075833Y-40570900D01*
X100075833Y-40570900D02*
X100028214Y-40523280D01*
X100028214Y-40523280D02*
X99980595Y-40428042D01*
X99980595Y-40428042D02*
X99980595Y-40332804D01*
X99980595Y-40332804D02*
X100028214Y-40237566D01*
X100028214Y-40237566D02*
X100075833Y-40189947D01*
X100075833Y-40189947D02*
X100171071Y-40142328D01*
X100171071Y-40142328D02*
X100361547Y-40094709D01*
X100361547Y-40094709D02*
X100456785Y-40047090D01*
X100456785Y-40047090D02*
X100504404Y-39999471D01*
X100504404Y-39999471D02*
X100552023Y-39904233D01*
X100552023Y-39904233D02*
X100552023Y-39808995D01*
X100552023Y-39808995D02*
X100504404Y-39713757D01*
X100504404Y-39713757D02*
X100456785Y-39666138D01*
X100456785Y-39666138D02*
X100361547Y-39618519D01*
X100361547Y-39618519D02*
X100123452Y-39618519D01*
X100123452Y-39618519D02*
X99980595Y-39666138D01*
X99647261Y-39618519D02*
X99409166Y-40618519D01*
X99409166Y-40618519D02*
X99218690Y-39904233D01*
X99218690Y-39904233D02*
X99028214Y-40618519D01*
X99028214Y-40618519D02*
X98790119Y-39618519D01*
X97885357Y-40618519D02*
X98456785Y-40618519D01*
X98171071Y-40618519D02*
X98171071Y-39618519D01*
X98171071Y-39618519D02*
X98266309Y-39761376D01*
X98266309Y-39761376D02*
X98361547Y-39856614D01*
X98361547Y-39856614D02*
X98456785Y-39904233D01*
X97552023Y-39618519D02*
X96885357Y-39618519D01*
X96885357Y-39618519D02*
X97313928Y-40618519D01*
X42925832Y-78670900D02*
X42782975Y-78718519D01*
X42782975Y-78718519D02*
X42544880Y-78718519D01*
X42544880Y-78718519D02*
X42449642Y-78670900D01*
X42449642Y-78670900D02*
X42402023Y-78623280D01*
X42402023Y-78623280D02*
X42354404Y-78528042D01*
X42354404Y-78528042D02*
X42354404Y-78432804D01*
X42354404Y-78432804D02*
X42402023Y-78337566D01*
X42402023Y-78337566D02*
X42449642Y-78289947D01*
X42449642Y-78289947D02*
X42544880Y-78242328D01*
X42544880Y-78242328D02*
X42735356Y-78194709D01*
X42735356Y-78194709D02*
X42830594Y-78147090D01*
X42830594Y-78147090D02*
X42878213Y-78099471D01*
X42878213Y-78099471D02*
X42925832Y-78004233D01*
X42925832Y-78004233D02*
X42925832Y-77908995D01*
X42925832Y-77908995D02*
X42878213Y-77813757D01*
X42878213Y-77813757D02*
X42830594Y-77766138D01*
X42830594Y-77766138D02*
X42735356Y-77718519D01*
X42735356Y-77718519D02*
X42497261Y-77718519D01*
X42497261Y-77718519D02*
X42354404Y-77766138D01*
X42021070Y-77718519D02*
X41782975Y-78718519D01*
X41782975Y-78718519D02*
X41592499Y-78004233D01*
X41592499Y-78004233D02*
X41402023Y-78718519D01*
X41402023Y-78718519D02*
X41163928Y-77718519D01*
X40878213Y-77718519D02*
X40211547Y-77718519D01*
X40211547Y-77718519D02*
X40640118Y-78718519D01*
X266789700Y-73279176D02*
X266837319Y-73422033D01*
X266837319Y-73422033D02*
X266837319Y-73660128D01*
X266837319Y-73660128D02*
X266789700Y-73755366D01*
X266789700Y-73755366D02*
X266742080Y-73802985D01*
X266742080Y-73802985D02*
X266646842Y-73850604D01*
X266646842Y-73850604D02*
X266551604Y-73850604D01*
X266551604Y-73850604D02*
X266456366Y-73802985D01*
X266456366Y-73802985D02*
X266408747Y-73755366D01*
X266408747Y-73755366D02*
X266361128Y-73660128D01*
X266361128Y-73660128D02*
X266313509Y-73469652D01*
X266313509Y-73469652D02*
X266265890Y-73374414D01*
X266265890Y-73374414D02*
X266218271Y-73326795D01*
X266218271Y-73326795D02*
X266123033Y-73279176D01*
X266123033Y-73279176D02*
X266027795Y-73279176D01*
X266027795Y-73279176D02*
X265932557Y-73326795D01*
X265932557Y-73326795D02*
X265884938Y-73374414D01*
X265884938Y-73374414D02*
X265837319Y-73469652D01*
X265837319Y-73469652D02*
X265837319Y-73707747D01*
X265837319Y-73707747D02*
X265884938Y-73850604D01*
X265837319Y-74183938D02*
X266837319Y-74422033D01*
X266837319Y-74422033D02*
X266123033Y-74612509D01*
X266123033Y-74612509D02*
X266837319Y-74802985D01*
X266837319Y-74802985D02*
X265837319Y-75041081D01*
X265837319Y-75326795D02*
X265837319Y-75945842D01*
X265837319Y-75945842D02*
X266218271Y-75612509D01*
X266218271Y-75612509D02*
X266218271Y-75755366D01*
X266218271Y-75755366D02*
X266265890Y-75850604D01*
X266265890Y-75850604D02*
X266313509Y-75898223D01*
X266313509Y-75898223D02*
X266408747Y-75945842D01*
X266408747Y-75945842D02*
X266646842Y-75945842D01*
X266646842Y-75945842D02*
X266742080Y-75898223D01*
X266742080Y-75898223D02*
X266789700Y-75850604D01*
X266789700Y-75850604D02*
X266837319Y-75755366D01*
X266837319Y-75755366D02*
X266837319Y-75469652D01*
X266837319Y-75469652D02*
X266789700Y-75374414D01*
X266789700Y-75374414D02*
X266742080Y-75326795D01*
X266837319Y-76422033D02*
X266837319Y-76612509D01*
X266837319Y-76612509D02*
X266789700Y-76707747D01*
X266789700Y-76707747D02*
X266742080Y-76755366D01*
X266742080Y-76755366D02*
X266599223Y-76850604D01*
X266599223Y-76850604D02*
X266408747Y-76898223D01*
X266408747Y-76898223D02*
X266027795Y-76898223D01*
X266027795Y-76898223D02*
X265932557Y-76850604D01*
X265932557Y-76850604D02*
X265884938Y-76802985D01*
X265884938Y-76802985D02*
X265837319Y-76707747D01*
X265837319Y-76707747D02*
X265837319Y-76517271D01*
X265837319Y-76517271D02*
X265884938Y-76422033D01*
X265884938Y-76422033D02*
X265932557Y-76374414D01*
X265932557Y-76374414D02*
X266027795Y-76326795D01*
X266027795Y-76326795D02*
X266265890Y-76326795D01*
X266265890Y-76326795D02*
X266361128Y-76374414D01*
X266361128Y-76374414D02*
X266408747Y-76422033D01*
X266408747Y-76422033D02*
X266456366Y-76517271D01*
X266456366Y-76517271D02*
X266456366Y-76707747D01*
X266456366Y-76707747D02*
X266408747Y-76802985D01*
X266408747Y-76802985D02*
X266361128Y-76850604D01*
X266361128Y-76850604D02*
X266265890Y-76898223D01*
X195802023Y-78670900D02*
X195659166Y-78718519D01*
X195659166Y-78718519D02*
X195421071Y-78718519D01*
X195421071Y-78718519D02*
X195325833Y-78670900D01*
X195325833Y-78670900D02*
X195278214Y-78623280D01*
X195278214Y-78623280D02*
X195230595Y-78528042D01*
X195230595Y-78528042D02*
X195230595Y-78432804D01*
X195230595Y-78432804D02*
X195278214Y-78337566D01*
X195278214Y-78337566D02*
X195325833Y-78289947D01*
X195325833Y-78289947D02*
X195421071Y-78242328D01*
X195421071Y-78242328D02*
X195611547Y-78194709D01*
X195611547Y-78194709D02*
X195706785Y-78147090D01*
X195706785Y-78147090D02*
X195754404Y-78099471D01*
X195754404Y-78099471D02*
X195802023Y-78004233D01*
X195802023Y-78004233D02*
X195802023Y-77908995D01*
X195802023Y-77908995D02*
X195754404Y-77813757D01*
X195754404Y-77813757D02*
X195706785Y-77766138D01*
X195706785Y-77766138D02*
X195611547Y-77718519D01*
X195611547Y-77718519D02*
X195373452Y-77718519D01*
X195373452Y-77718519D02*
X195230595Y-77766138D01*
X194897261Y-77718519D02*
X194659166Y-78718519D01*
X194659166Y-78718519D02*
X194468690Y-78004233D01*
X194468690Y-78004233D02*
X194278214Y-78718519D01*
X194278214Y-78718519D02*
X194040119Y-77718519D01*
X193706785Y-77813757D02*
X193659166Y-77766138D01*
X193659166Y-77766138D02*
X193563928Y-77718519D01*
X193563928Y-77718519D02*
X193325833Y-77718519D01*
X193325833Y-77718519D02*
X193230595Y-77766138D01*
X193230595Y-77766138D02*
X193182976Y-77813757D01*
X193182976Y-77813757D02*
X193135357Y-77908995D01*
X193135357Y-77908995D02*
X193135357Y-78004233D01*
X193135357Y-78004233D02*
X193182976Y-78147090D01*
X193182976Y-78147090D02*
X193754404Y-78718519D01*
X193754404Y-78718519D02*
X193135357Y-78718519D01*
X192563928Y-78147090D02*
X192659166Y-78099471D01*
X192659166Y-78099471D02*
X192706785Y-78051852D01*
X192706785Y-78051852D02*
X192754404Y-77956614D01*
X192754404Y-77956614D02*
X192754404Y-77908995D01*
X192754404Y-77908995D02*
X192706785Y-77813757D01*
X192706785Y-77813757D02*
X192659166Y-77766138D01*
X192659166Y-77766138D02*
X192563928Y-77718519D01*
X192563928Y-77718519D02*
X192373452Y-77718519D01*
X192373452Y-77718519D02*
X192278214Y-77766138D01*
X192278214Y-77766138D02*
X192230595Y-77813757D01*
X192230595Y-77813757D02*
X192182976Y-77908995D01*
X192182976Y-77908995D02*
X192182976Y-77956614D01*
X192182976Y-77956614D02*
X192230595Y-78051852D01*
X192230595Y-78051852D02*
X192278214Y-78099471D01*
X192278214Y-78099471D02*
X192373452Y-78147090D01*
X192373452Y-78147090D02*
X192563928Y-78147090D01*
X192563928Y-78147090D02*
X192659166Y-78194709D01*
X192659166Y-78194709D02*
X192706785Y-78242328D01*
X192706785Y-78242328D02*
X192754404Y-78337566D01*
X192754404Y-78337566D02*
X192754404Y-78528042D01*
X192754404Y-78528042D02*
X192706785Y-78623280D01*
X192706785Y-78623280D02*
X192659166Y-78670900D01*
X192659166Y-78670900D02*
X192563928Y-78718519D01*
X192563928Y-78718519D02*
X192373452Y-78718519D01*
X192373452Y-78718519D02*
X192278214Y-78670900D01*
X192278214Y-78670900D02*
X192230595Y-78623280D01*
X192230595Y-78623280D02*
X192182976Y-78528042D01*
X192182976Y-78528042D02*
X192182976Y-78337566D01*
X192182976Y-78337566D02*
X192230595Y-78242328D01*
X192230595Y-78242328D02*
X192278214Y-78194709D01*
X192278214Y-78194709D02*
X192373452Y-78147090D01*
X62452023Y-59620900D02*
X62309166Y-59668519D01*
X62309166Y-59668519D02*
X62071071Y-59668519D01*
X62071071Y-59668519D02*
X61975833Y-59620900D01*
X61975833Y-59620900D02*
X61928214Y-59573280D01*
X61928214Y-59573280D02*
X61880595Y-59478042D01*
X61880595Y-59478042D02*
X61880595Y-59382804D01*
X61880595Y-59382804D02*
X61928214Y-59287566D01*
X61928214Y-59287566D02*
X61975833Y-59239947D01*
X61975833Y-59239947D02*
X62071071Y-59192328D01*
X62071071Y-59192328D02*
X62261547Y-59144709D01*
X62261547Y-59144709D02*
X62356785Y-59097090D01*
X62356785Y-59097090D02*
X62404404Y-59049471D01*
X62404404Y-59049471D02*
X62452023Y-58954233D01*
X62452023Y-58954233D02*
X62452023Y-58858995D01*
X62452023Y-58858995D02*
X62404404Y-58763757D01*
X62404404Y-58763757D02*
X62356785Y-58716138D01*
X62356785Y-58716138D02*
X62261547Y-58668519D01*
X62261547Y-58668519D02*
X62023452Y-58668519D01*
X62023452Y-58668519D02*
X61880595Y-58716138D01*
X61547261Y-58668519D02*
X61309166Y-59668519D01*
X61309166Y-59668519D02*
X61118690Y-58954233D01*
X61118690Y-58954233D02*
X60928214Y-59668519D01*
X60928214Y-59668519D02*
X60690119Y-58668519D01*
X59785357Y-59668519D02*
X60356785Y-59668519D01*
X60071071Y-59668519D02*
X60071071Y-58668519D01*
X60071071Y-58668519D02*
X60166309Y-58811376D01*
X60166309Y-58811376D02*
X60261547Y-58906614D01*
X60261547Y-58906614D02*
X60356785Y-58954233D01*
X59166309Y-58668519D02*
X59071071Y-58668519D01*
X59071071Y-58668519D02*
X58975833Y-58716138D01*
X58975833Y-58716138D02*
X58928214Y-58763757D01*
X58928214Y-58763757D02*
X58880595Y-58858995D01*
X58880595Y-58858995D02*
X58832976Y-59049471D01*
X58832976Y-59049471D02*
X58832976Y-59287566D01*
X58832976Y-59287566D02*
X58880595Y-59478042D01*
X58880595Y-59478042D02*
X58928214Y-59573280D01*
X58928214Y-59573280D02*
X58975833Y-59620900D01*
X58975833Y-59620900D02*
X59071071Y-59668519D01*
X59071071Y-59668519D02*
X59166309Y-59668519D01*
X59166309Y-59668519D02*
X59261547Y-59620900D01*
X59261547Y-59620900D02*
X59309166Y-59573280D01*
X59309166Y-59573280D02*
X59356785Y-59478042D01*
X59356785Y-59478042D02*
X59404404Y-59287566D01*
X59404404Y-59287566D02*
X59404404Y-59049471D01*
X59404404Y-59049471D02*
X59356785Y-58858995D01*
X59356785Y-58858995D02*
X59309166Y-58763757D01*
X59309166Y-58763757D02*
X59261547Y-58716138D01*
X59261547Y-58716138D02*
X59166309Y-58668519D01*
X81502023Y-78670900D02*
X81359166Y-78718519D01*
X81359166Y-78718519D02*
X81121071Y-78718519D01*
X81121071Y-78718519D02*
X81025833Y-78670900D01*
X81025833Y-78670900D02*
X80978214Y-78623280D01*
X80978214Y-78623280D02*
X80930595Y-78528042D01*
X80930595Y-78528042D02*
X80930595Y-78432804D01*
X80930595Y-78432804D02*
X80978214Y-78337566D01*
X80978214Y-78337566D02*
X81025833Y-78289947D01*
X81025833Y-78289947D02*
X81121071Y-78242328D01*
X81121071Y-78242328D02*
X81311547Y-78194709D01*
X81311547Y-78194709D02*
X81406785Y-78147090D01*
X81406785Y-78147090D02*
X81454404Y-78099471D01*
X81454404Y-78099471D02*
X81502023Y-78004233D01*
X81502023Y-78004233D02*
X81502023Y-77908995D01*
X81502023Y-77908995D02*
X81454404Y-77813757D01*
X81454404Y-77813757D02*
X81406785Y-77766138D01*
X81406785Y-77766138D02*
X81311547Y-77718519D01*
X81311547Y-77718519D02*
X81073452Y-77718519D01*
X81073452Y-77718519D02*
X80930595Y-77766138D01*
X80597261Y-77718519D02*
X80359166Y-78718519D01*
X80359166Y-78718519D02*
X80168690Y-78004233D01*
X80168690Y-78004233D02*
X79978214Y-78718519D01*
X79978214Y-78718519D02*
X79740119Y-77718519D01*
X78835357Y-78718519D02*
X79406785Y-78718519D01*
X79121071Y-78718519D02*
X79121071Y-77718519D01*
X79121071Y-77718519D02*
X79216309Y-77861376D01*
X79216309Y-77861376D02*
X79311547Y-77956614D01*
X79311547Y-77956614D02*
X79406785Y-78004233D01*
X77930595Y-77718519D02*
X78406785Y-77718519D01*
X78406785Y-77718519D02*
X78454404Y-78194709D01*
X78454404Y-78194709D02*
X78406785Y-78147090D01*
X78406785Y-78147090D02*
X78311547Y-78099471D01*
X78311547Y-78099471D02*
X78073452Y-78099471D01*
X78073452Y-78099471D02*
X77978214Y-78147090D01*
X77978214Y-78147090D02*
X77930595Y-78194709D01*
X77930595Y-78194709D02*
X77882976Y-78289947D01*
X77882976Y-78289947D02*
X77882976Y-78528042D01*
X77882976Y-78528042D02*
X77930595Y-78623280D01*
X77930595Y-78623280D02*
X77978214Y-78670900D01*
X77978214Y-78670900D02*
X78073452Y-78718519D01*
X78073452Y-78718519D02*
X78311547Y-78718519D01*
X78311547Y-78718519D02*
X78406785Y-78670900D01*
X78406785Y-78670900D02*
X78454404Y-78623280D01*
X176752023Y-97720900D02*
X176609166Y-97768519D01*
X176609166Y-97768519D02*
X176371071Y-97768519D01*
X176371071Y-97768519D02*
X176275833Y-97720900D01*
X176275833Y-97720900D02*
X176228214Y-97673280D01*
X176228214Y-97673280D02*
X176180595Y-97578042D01*
X176180595Y-97578042D02*
X176180595Y-97482804D01*
X176180595Y-97482804D02*
X176228214Y-97387566D01*
X176228214Y-97387566D02*
X176275833Y-97339947D01*
X176275833Y-97339947D02*
X176371071Y-97292328D01*
X176371071Y-97292328D02*
X176561547Y-97244709D01*
X176561547Y-97244709D02*
X176656785Y-97197090D01*
X176656785Y-97197090D02*
X176704404Y-97149471D01*
X176704404Y-97149471D02*
X176752023Y-97054233D01*
X176752023Y-97054233D02*
X176752023Y-96958995D01*
X176752023Y-96958995D02*
X176704404Y-96863757D01*
X176704404Y-96863757D02*
X176656785Y-96816138D01*
X176656785Y-96816138D02*
X176561547Y-96768519D01*
X176561547Y-96768519D02*
X176323452Y-96768519D01*
X176323452Y-96768519D02*
X176180595Y-96816138D01*
X175847261Y-96768519D02*
X175609166Y-97768519D01*
X175609166Y-97768519D02*
X175418690Y-97054233D01*
X175418690Y-97054233D02*
X175228214Y-97768519D01*
X175228214Y-97768519D02*
X174990119Y-96768519D01*
X174085357Y-97768519D02*
X174656785Y-97768519D01*
X174371071Y-97768519D02*
X174371071Y-96768519D01*
X174371071Y-96768519D02*
X174466309Y-96911376D01*
X174466309Y-96911376D02*
X174561547Y-97006614D01*
X174561547Y-97006614D02*
X174656785Y-97054233D01*
X173704404Y-96863757D02*
X173656785Y-96816138D01*
X173656785Y-96816138D02*
X173561547Y-96768519D01*
X173561547Y-96768519D02*
X173323452Y-96768519D01*
X173323452Y-96768519D02*
X173228214Y-96816138D01*
X173228214Y-96816138D02*
X173180595Y-96863757D01*
X173180595Y-96863757D02*
X173132976Y-96958995D01*
X173132976Y-96958995D02*
X173132976Y-97054233D01*
X173132976Y-97054233D02*
X173180595Y-97197090D01*
X173180595Y-97197090D02*
X173752023Y-97768519D01*
X173752023Y-97768519D02*
X173132976Y-97768519D01*
X252952023Y-78670900D02*
X252809166Y-78718519D01*
X252809166Y-78718519D02*
X252571071Y-78718519D01*
X252571071Y-78718519D02*
X252475833Y-78670900D01*
X252475833Y-78670900D02*
X252428214Y-78623280D01*
X252428214Y-78623280D02*
X252380595Y-78528042D01*
X252380595Y-78528042D02*
X252380595Y-78432804D01*
X252380595Y-78432804D02*
X252428214Y-78337566D01*
X252428214Y-78337566D02*
X252475833Y-78289947D01*
X252475833Y-78289947D02*
X252571071Y-78242328D01*
X252571071Y-78242328D02*
X252761547Y-78194709D01*
X252761547Y-78194709D02*
X252856785Y-78147090D01*
X252856785Y-78147090D02*
X252904404Y-78099471D01*
X252904404Y-78099471D02*
X252952023Y-78004233D01*
X252952023Y-78004233D02*
X252952023Y-77908995D01*
X252952023Y-77908995D02*
X252904404Y-77813757D01*
X252904404Y-77813757D02*
X252856785Y-77766138D01*
X252856785Y-77766138D02*
X252761547Y-77718519D01*
X252761547Y-77718519D02*
X252523452Y-77718519D01*
X252523452Y-77718519D02*
X252380595Y-77766138D01*
X252047261Y-77718519D02*
X251809166Y-78718519D01*
X251809166Y-78718519D02*
X251618690Y-78004233D01*
X251618690Y-78004233D02*
X251428214Y-78718519D01*
X251428214Y-78718519D02*
X251190119Y-77718519D01*
X250904404Y-77718519D02*
X250285357Y-77718519D01*
X250285357Y-77718519D02*
X250618690Y-78099471D01*
X250618690Y-78099471D02*
X250475833Y-78099471D01*
X250475833Y-78099471D02*
X250380595Y-78147090D01*
X250380595Y-78147090D02*
X250332976Y-78194709D01*
X250332976Y-78194709D02*
X250285357Y-78289947D01*
X250285357Y-78289947D02*
X250285357Y-78528042D01*
X250285357Y-78528042D02*
X250332976Y-78623280D01*
X250332976Y-78623280D02*
X250380595Y-78670900D01*
X250380595Y-78670900D02*
X250475833Y-78718519D01*
X250475833Y-78718519D02*
X250761547Y-78718519D01*
X250761547Y-78718519D02*
X250856785Y-78670900D01*
X250856785Y-78670900D02*
X250904404Y-78623280D01*
X249952023Y-77718519D02*
X249285357Y-77718519D01*
X249285357Y-77718519D02*
X249713928Y-78718519D01*
X252952023Y-59620900D02*
X252809166Y-59668519D01*
X252809166Y-59668519D02*
X252571071Y-59668519D01*
X252571071Y-59668519D02*
X252475833Y-59620900D01*
X252475833Y-59620900D02*
X252428214Y-59573280D01*
X252428214Y-59573280D02*
X252380595Y-59478042D01*
X252380595Y-59478042D02*
X252380595Y-59382804D01*
X252380595Y-59382804D02*
X252428214Y-59287566D01*
X252428214Y-59287566D02*
X252475833Y-59239947D01*
X252475833Y-59239947D02*
X252571071Y-59192328D01*
X252571071Y-59192328D02*
X252761547Y-59144709D01*
X252761547Y-59144709D02*
X252856785Y-59097090D01*
X252856785Y-59097090D02*
X252904404Y-59049471D01*
X252904404Y-59049471D02*
X252952023Y-58954233D01*
X252952023Y-58954233D02*
X252952023Y-58858995D01*
X252952023Y-58858995D02*
X252904404Y-58763757D01*
X252904404Y-58763757D02*
X252856785Y-58716138D01*
X252856785Y-58716138D02*
X252761547Y-58668519D01*
X252761547Y-58668519D02*
X252523452Y-58668519D01*
X252523452Y-58668519D02*
X252380595Y-58716138D01*
X252047261Y-58668519D02*
X251809166Y-59668519D01*
X251809166Y-59668519D02*
X251618690Y-58954233D01*
X251618690Y-58954233D02*
X251428214Y-59668519D01*
X251428214Y-59668519D02*
X251190119Y-58668519D01*
X250904404Y-58668519D02*
X250285357Y-58668519D01*
X250285357Y-58668519D02*
X250618690Y-59049471D01*
X250618690Y-59049471D02*
X250475833Y-59049471D01*
X250475833Y-59049471D02*
X250380595Y-59097090D01*
X250380595Y-59097090D02*
X250332976Y-59144709D01*
X250332976Y-59144709D02*
X250285357Y-59239947D01*
X250285357Y-59239947D02*
X250285357Y-59478042D01*
X250285357Y-59478042D02*
X250332976Y-59573280D01*
X250332976Y-59573280D02*
X250380595Y-59620900D01*
X250380595Y-59620900D02*
X250475833Y-59668519D01*
X250475833Y-59668519D02*
X250761547Y-59668519D01*
X250761547Y-59668519D02*
X250856785Y-59620900D01*
X250856785Y-59620900D02*
X250904404Y-59573280D01*
X249428214Y-58668519D02*
X249618690Y-58668519D01*
X249618690Y-58668519D02*
X249713928Y-58716138D01*
X249713928Y-58716138D02*
X249761547Y-58763757D01*
X249761547Y-58763757D02*
X249856785Y-58906614D01*
X249856785Y-58906614D02*
X249904404Y-59097090D01*
X249904404Y-59097090D02*
X249904404Y-59478042D01*
X249904404Y-59478042D02*
X249856785Y-59573280D01*
X249856785Y-59573280D02*
X249809166Y-59620900D01*
X249809166Y-59620900D02*
X249713928Y-59668519D01*
X249713928Y-59668519D02*
X249523452Y-59668519D01*
X249523452Y-59668519D02*
X249428214Y-59620900D01*
X249428214Y-59620900D02*
X249380595Y-59573280D01*
X249380595Y-59573280D02*
X249332976Y-59478042D01*
X249332976Y-59478042D02*
X249332976Y-59239947D01*
X249332976Y-59239947D02*
X249380595Y-59144709D01*
X249380595Y-59144709D02*
X249428214Y-59097090D01*
X249428214Y-59097090D02*
X249523452Y-59049471D01*
X249523452Y-59049471D02*
X249713928Y-59049471D01*
X249713928Y-59049471D02*
X249809166Y-59097090D01*
X249809166Y-59097090D02*
X249856785Y-59144709D01*
X249856785Y-59144709D02*
X249904404Y-59239947D01*
X100552023Y-78670900D02*
X100409166Y-78718519D01*
X100409166Y-78718519D02*
X100171071Y-78718519D01*
X100171071Y-78718519D02*
X100075833Y-78670900D01*
X100075833Y-78670900D02*
X100028214Y-78623280D01*
X100028214Y-78623280D02*
X99980595Y-78528042D01*
X99980595Y-78528042D02*
X99980595Y-78432804D01*
X99980595Y-78432804D02*
X100028214Y-78337566D01*
X100028214Y-78337566D02*
X100075833Y-78289947D01*
X100075833Y-78289947D02*
X100171071Y-78242328D01*
X100171071Y-78242328D02*
X100361547Y-78194709D01*
X100361547Y-78194709D02*
X100456785Y-78147090D01*
X100456785Y-78147090D02*
X100504404Y-78099471D01*
X100504404Y-78099471D02*
X100552023Y-78004233D01*
X100552023Y-78004233D02*
X100552023Y-77908995D01*
X100552023Y-77908995D02*
X100504404Y-77813757D01*
X100504404Y-77813757D02*
X100456785Y-77766138D01*
X100456785Y-77766138D02*
X100361547Y-77718519D01*
X100361547Y-77718519D02*
X100123452Y-77718519D01*
X100123452Y-77718519D02*
X99980595Y-77766138D01*
X99647261Y-77718519D02*
X99409166Y-78718519D01*
X99409166Y-78718519D02*
X99218690Y-78004233D01*
X99218690Y-78004233D02*
X99028214Y-78718519D01*
X99028214Y-78718519D02*
X98790119Y-77718519D01*
X97885357Y-78718519D02*
X98456785Y-78718519D01*
X98171071Y-78718519D02*
X98171071Y-77718519D01*
X98171071Y-77718519D02*
X98266309Y-77861376D01*
X98266309Y-77861376D02*
X98361547Y-77956614D01*
X98361547Y-77956614D02*
X98456785Y-78004233D01*
X97409166Y-78718519D02*
X97218690Y-78718519D01*
X97218690Y-78718519D02*
X97123452Y-78670900D01*
X97123452Y-78670900D02*
X97075833Y-78623280D01*
X97075833Y-78623280D02*
X96980595Y-78480423D01*
X96980595Y-78480423D02*
X96932976Y-78289947D01*
X96932976Y-78289947D02*
X96932976Y-77908995D01*
X96932976Y-77908995D02*
X96980595Y-77813757D01*
X96980595Y-77813757D02*
X97028214Y-77766138D01*
X97028214Y-77766138D02*
X97123452Y-77718519D01*
X97123452Y-77718519D02*
X97313928Y-77718519D01*
X97313928Y-77718519D02*
X97409166Y-77766138D01*
X97409166Y-77766138D02*
X97456785Y-77813757D01*
X97456785Y-77813757D02*
X97504404Y-77908995D01*
X97504404Y-77908995D02*
X97504404Y-78147090D01*
X97504404Y-78147090D02*
X97456785Y-78242328D01*
X97456785Y-78242328D02*
X97409166Y-78289947D01*
X97409166Y-78289947D02*
X97313928Y-78337566D01*
X97313928Y-78337566D02*
X97123452Y-78337566D01*
X97123452Y-78337566D02*
X97028214Y-78289947D01*
X97028214Y-78289947D02*
X96980595Y-78242328D01*
X96980595Y-78242328D02*
X96932976Y-78147090D01*
X100075832Y-97720900D02*
X99932975Y-97768519D01*
X99932975Y-97768519D02*
X99694880Y-97768519D01*
X99694880Y-97768519D02*
X99599642Y-97720900D01*
X99599642Y-97720900D02*
X99552023Y-97673280D01*
X99552023Y-97673280D02*
X99504404Y-97578042D01*
X99504404Y-97578042D02*
X99504404Y-97482804D01*
X99504404Y-97482804D02*
X99552023Y-97387566D01*
X99552023Y-97387566D02*
X99599642Y-97339947D01*
X99599642Y-97339947D02*
X99694880Y-97292328D01*
X99694880Y-97292328D02*
X99885356Y-97244709D01*
X99885356Y-97244709D02*
X99980594Y-97197090D01*
X99980594Y-97197090D02*
X100028213Y-97149471D01*
X100028213Y-97149471D02*
X100075832Y-97054233D01*
X100075832Y-97054233D02*
X100075832Y-96958995D01*
X100075832Y-96958995D02*
X100028213Y-96863757D01*
X100028213Y-96863757D02*
X99980594Y-96816138D01*
X99980594Y-96816138D02*
X99885356Y-96768519D01*
X99885356Y-96768519D02*
X99647261Y-96768519D01*
X99647261Y-96768519D02*
X99504404Y-96816138D01*
X99171070Y-96768519D02*
X98932975Y-97768519D01*
X98932975Y-97768519D02*
X98742499Y-97054233D01*
X98742499Y-97054233D02*
X98552023Y-97768519D01*
X98552023Y-97768519D02*
X98313928Y-96768519D01*
X97504404Y-97101852D02*
X97504404Y-97768519D01*
X97742499Y-96720900D02*
X97980594Y-97435185D01*
X97980594Y-97435185D02*
X97361547Y-97435185D01*
X252952023Y-40570900D02*
X252809166Y-40618519D01*
X252809166Y-40618519D02*
X252571071Y-40618519D01*
X252571071Y-40618519D02*
X252475833Y-40570900D01*
X252475833Y-40570900D02*
X252428214Y-40523280D01*
X252428214Y-40523280D02*
X252380595Y-40428042D01*
X252380595Y-40428042D02*
X252380595Y-40332804D01*
X252380595Y-40332804D02*
X252428214Y-40237566D01*
X252428214Y-40237566D02*
X252475833Y-40189947D01*
X252475833Y-40189947D02*
X252571071Y-40142328D01*
X252571071Y-40142328D02*
X252761547Y-40094709D01*
X252761547Y-40094709D02*
X252856785Y-40047090D01*
X252856785Y-40047090D02*
X252904404Y-39999471D01*
X252904404Y-39999471D02*
X252952023Y-39904233D01*
X252952023Y-39904233D02*
X252952023Y-39808995D01*
X252952023Y-39808995D02*
X252904404Y-39713757D01*
X252904404Y-39713757D02*
X252856785Y-39666138D01*
X252856785Y-39666138D02*
X252761547Y-39618519D01*
X252761547Y-39618519D02*
X252523452Y-39618519D01*
X252523452Y-39618519D02*
X252380595Y-39666138D01*
X252047261Y-39618519D02*
X251809166Y-40618519D01*
X251809166Y-40618519D02*
X251618690Y-39904233D01*
X251618690Y-39904233D02*
X251428214Y-40618519D01*
X251428214Y-40618519D02*
X251190119Y-39618519D01*
X250904404Y-39618519D02*
X250285357Y-39618519D01*
X250285357Y-39618519D02*
X250618690Y-39999471D01*
X250618690Y-39999471D02*
X250475833Y-39999471D01*
X250475833Y-39999471D02*
X250380595Y-40047090D01*
X250380595Y-40047090D02*
X250332976Y-40094709D01*
X250332976Y-40094709D02*
X250285357Y-40189947D01*
X250285357Y-40189947D02*
X250285357Y-40428042D01*
X250285357Y-40428042D02*
X250332976Y-40523280D01*
X250332976Y-40523280D02*
X250380595Y-40570900D01*
X250380595Y-40570900D02*
X250475833Y-40618519D01*
X250475833Y-40618519D02*
X250761547Y-40618519D01*
X250761547Y-40618519D02*
X250856785Y-40570900D01*
X250856785Y-40570900D02*
X250904404Y-40523280D01*
X249380595Y-39618519D02*
X249856785Y-39618519D01*
X249856785Y-39618519D02*
X249904404Y-40094709D01*
X249904404Y-40094709D02*
X249856785Y-40047090D01*
X249856785Y-40047090D02*
X249761547Y-39999471D01*
X249761547Y-39999471D02*
X249523452Y-39999471D01*
X249523452Y-39999471D02*
X249428214Y-40047090D01*
X249428214Y-40047090D02*
X249380595Y-40094709D01*
X249380595Y-40094709D02*
X249332976Y-40189947D01*
X249332976Y-40189947D02*
X249332976Y-40428042D01*
X249332976Y-40428042D02*
X249380595Y-40523280D01*
X249380595Y-40523280D02*
X249428214Y-40570900D01*
X249428214Y-40570900D02*
X249523452Y-40618519D01*
X249523452Y-40618519D02*
X249761547Y-40618519D01*
X249761547Y-40618519D02*
X249856785Y-40570900D01*
X249856785Y-40570900D02*
X249904404Y-40523280D01*
X119602023Y-78670900D02*
X119459166Y-78718519D01*
X119459166Y-78718519D02*
X119221071Y-78718519D01*
X119221071Y-78718519D02*
X119125833Y-78670900D01*
X119125833Y-78670900D02*
X119078214Y-78623280D01*
X119078214Y-78623280D02*
X119030595Y-78528042D01*
X119030595Y-78528042D02*
X119030595Y-78432804D01*
X119030595Y-78432804D02*
X119078214Y-78337566D01*
X119078214Y-78337566D02*
X119125833Y-78289947D01*
X119125833Y-78289947D02*
X119221071Y-78242328D01*
X119221071Y-78242328D02*
X119411547Y-78194709D01*
X119411547Y-78194709D02*
X119506785Y-78147090D01*
X119506785Y-78147090D02*
X119554404Y-78099471D01*
X119554404Y-78099471D02*
X119602023Y-78004233D01*
X119602023Y-78004233D02*
X119602023Y-77908995D01*
X119602023Y-77908995D02*
X119554404Y-77813757D01*
X119554404Y-77813757D02*
X119506785Y-77766138D01*
X119506785Y-77766138D02*
X119411547Y-77718519D01*
X119411547Y-77718519D02*
X119173452Y-77718519D01*
X119173452Y-77718519D02*
X119030595Y-77766138D01*
X118697261Y-77718519D02*
X118459166Y-78718519D01*
X118459166Y-78718519D02*
X118268690Y-78004233D01*
X118268690Y-78004233D02*
X118078214Y-78718519D01*
X118078214Y-78718519D02*
X117840119Y-77718519D01*
X117506785Y-77813757D02*
X117459166Y-77766138D01*
X117459166Y-77766138D02*
X117363928Y-77718519D01*
X117363928Y-77718519D02*
X117125833Y-77718519D01*
X117125833Y-77718519D02*
X117030595Y-77766138D01*
X117030595Y-77766138D02*
X116982976Y-77813757D01*
X116982976Y-77813757D02*
X116935357Y-77908995D01*
X116935357Y-77908995D02*
X116935357Y-78004233D01*
X116935357Y-78004233D02*
X116982976Y-78147090D01*
X116982976Y-78147090D02*
X117554404Y-78718519D01*
X117554404Y-78718519D02*
X116935357Y-78718519D01*
X116554404Y-77813757D02*
X116506785Y-77766138D01*
X116506785Y-77766138D02*
X116411547Y-77718519D01*
X116411547Y-77718519D02*
X116173452Y-77718519D01*
X116173452Y-77718519D02*
X116078214Y-77766138D01*
X116078214Y-77766138D02*
X116030595Y-77813757D01*
X116030595Y-77813757D02*
X115982976Y-77908995D01*
X115982976Y-77908995D02*
X115982976Y-78004233D01*
X115982976Y-78004233D02*
X116030595Y-78147090D01*
X116030595Y-78147090D02*
X116602023Y-78718519D01*
X116602023Y-78718519D02*
X115982976Y-78718519D01*
X62452023Y-78670900D02*
X62309166Y-78718519D01*
X62309166Y-78718519D02*
X62071071Y-78718519D01*
X62071071Y-78718519D02*
X61975833Y-78670900D01*
X61975833Y-78670900D02*
X61928214Y-78623280D01*
X61928214Y-78623280D02*
X61880595Y-78528042D01*
X61880595Y-78528042D02*
X61880595Y-78432804D01*
X61880595Y-78432804D02*
X61928214Y-78337566D01*
X61928214Y-78337566D02*
X61975833Y-78289947D01*
X61975833Y-78289947D02*
X62071071Y-78242328D01*
X62071071Y-78242328D02*
X62261547Y-78194709D01*
X62261547Y-78194709D02*
X62356785Y-78147090D01*
X62356785Y-78147090D02*
X62404404Y-78099471D01*
X62404404Y-78099471D02*
X62452023Y-78004233D01*
X62452023Y-78004233D02*
X62452023Y-77908995D01*
X62452023Y-77908995D02*
X62404404Y-77813757D01*
X62404404Y-77813757D02*
X62356785Y-77766138D01*
X62356785Y-77766138D02*
X62261547Y-77718519D01*
X62261547Y-77718519D02*
X62023452Y-77718519D01*
X62023452Y-77718519D02*
X61880595Y-77766138D01*
X61547261Y-77718519D02*
X61309166Y-78718519D01*
X61309166Y-78718519D02*
X61118690Y-78004233D01*
X61118690Y-78004233D02*
X60928214Y-78718519D01*
X60928214Y-78718519D02*
X60690119Y-77718519D01*
X59785357Y-78718519D02*
X60356785Y-78718519D01*
X60071071Y-78718519D02*
X60071071Y-77718519D01*
X60071071Y-77718519D02*
X60166309Y-77861376D01*
X60166309Y-77861376D02*
X60261547Y-77956614D01*
X60261547Y-77956614D02*
X60356785Y-78004233D01*
X58832976Y-78718519D02*
X59404404Y-78718519D01*
X59118690Y-78718519D02*
X59118690Y-77718519D01*
X59118690Y-77718519D02*
X59213928Y-77861376D01*
X59213928Y-77861376D02*
X59309166Y-77956614D01*
X59309166Y-77956614D02*
X59404404Y-78004233D01*
X176752023Y-40570900D02*
X176609166Y-40618519D01*
X176609166Y-40618519D02*
X176371071Y-40618519D01*
X176371071Y-40618519D02*
X176275833Y-40570900D01*
X176275833Y-40570900D02*
X176228214Y-40523280D01*
X176228214Y-40523280D02*
X176180595Y-40428042D01*
X176180595Y-40428042D02*
X176180595Y-40332804D01*
X176180595Y-40332804D02*
X176228214Y-40237566D01*
X176228214Y-40237566D02*
X176275833Y-40189947D01*
X176275833Y-40189947D02*
X176371071Y-40142328D01*
X176371071Y-40142328D02*
X176561547Y-40094709D01*
X176561547Y-40094709D02*
X176656785Y-40047090D01*
X176656785Y-40047090D02*
X176704404Y-39999471D01*
X176704404Y-39999471D02*
X176752023Y-39904233D01*
X176752023Y-39904233D02*
X176752023Y-39808995D01*
X176752023Y-39808995D02*
X176704404Y-39713757D01*
X176704404Y-39713757D02*
X176656785Y-39666138D01*
X176656785Y-39666138D02*
X176561547Y-39618519D01*
X176561547Y-39618519D02*
X176323452Y-39618519D01*
X176323452Y-39618519D02*
X176180595Y-39666138D01*
X175847261Y-39618519D02*
X175609166Y-40618519D01*
X175609166Y-40618519D02*
X175418690Y-39904233D01*
X175418690Y-39904233D02*
X175228214Y-40618519D01*
X175228214Y-40618519D02*
X174990119Y-39618519D01*
X174656785Y-39713757D02*
X174609166Y-39666138D01*
X174609166Y-39666138D02*
X174513928Y-39618519D01*
X174513928Y-39618519D02*
X174275833Y-39618519D01*
X174275833Y-39618519D02*
X174180595Y-39666138D01*
X174180595Y-39666138D02*
X174132976Y-39713757D01*
X174132976Y-39713757D02*
X174085357Y-39808995D01*
X174085357Y-39808995D02*
X174085357Y-39904233D01*
X174085357Y-39904233D02*
X174132976Y-40047090D01*
X174132976Y-40047090D02*
X174704404Y-40618519D01*
X174704404Y-40618519D02*
X174085357Y-40618519D01*
X173752023Y-39618519D02*
X173132976Y-39618519D01*
X173132976Y-39618519D02*
X173466309Y-39999471D01*
X173466309Y-39999471D02*
X173323452Y-39999471D01*
X173323452Y-39999471D02*
X173228214Y-40047090D01*
X173228214Y-40047090D02*
X173180595Y-40094709D01*
X173180595Y-40094709D02*
X173132976Y-40189947D01*
X173132976Y-40189947D02*
X173132976Y-40428042D01*
X173132976Y-40428042D02*
X173180595Y-40523280D01*
X173180595Y-40523280D02*
X173228214Y-40570900D01*
X173228214Y-40570900D02*
X173323452Y-40618519D01*
X173323452Y-40618519D02*
X173609166Y-40618519D01*
X173609166Y-40618519D02*
X173704404Y-40570900D01*
X173704404Y-40570900D02*
X173752023Y-40523280D01*
X23875832Y-78670900D02*
X23732975Y-78718519D01*
X23732975Y-78718519D02*
X23494880Y-78718519D01*
X23494880Y-78718519D02*
X23399642Y-78670900D01*
X23399642Y-78670900D02*
X23352023Y-78623280D01*
X23352023Y-78623280D02*
X23304404Y-78528042D01*
X23304404Y-78528042D02*
X23304404Y-78432804D01*
X23304404Y-78432804D02*
X23352023Y-78337566D01*
X23352023Y-78337566D02*
X23399642Y-78289947D01*
X23399642Y-78289947D02*
X23494880Y-78242328D01*
X23494880Y-78242328D02*
X23685356Y-78194709D01*
X23685356Y-78194709D02*
X23780594Y-78147090D01*
X23780594Y-78147090D02*
X23828213Y-78099471D01*
X23828213Y-78099471D02*
X23875832Y-78004233D01*
X23875832Y-78004233D02*
X23875832Y-77908995D01*
X23875832Y-77908995D02*
X23828213Y-77813757D01*
X23828213Y-77813757D02*
X23780594Y-77766138D01*
X23780594Y-77766138D02*
X23685356Y-77718519D01*
X23685356Y-77718519D02*
X23447261Y-77718519D01*
X23447261Y-77718519D02*
X23304404Y-77766138D01*
X22971070Y-77718519D02*
X22732975Y-78718519D01*
X22732975Y-78718519D02*
X22542499Y-78004233D01*
X22542499Y-78004233D02*
X22352023Y-78718519D01*
X22352023Y-78718519D02*
X22113928Y-77718519D01*
X21828213Y-77718519D02*
X21209166Y-77718519D01*
X21209166Y-77718519D02*
X21542499Y-78099471D01*
X21542499Y-78099471D02*
X21399642Y-78099471D01*
X21399642Y-78099471D02*
X21304404Y-78147090D01*
X21304404Y-78147090D02*
X21256785Y-78194709D01*
X21256785Y-78194709D02*
X21209166Y-78289947D01*
X21209166Y-78289947D02*
X21209166Y-78528042D01*
X21209166Y-78528042D02*
X21256785Y-78623280D01*
X21256785Y-78623280D02*
X21304404Y-78670900D01*
X21304404Y-78670900D02*
X21399642Y-78718519D01*
X21399642Y-78718519D02*
X21685356Y-78718519D01*
X21685356Y-78718519D02*
X21780594Y-78670900D01*
X21780594Y-78670900D02*
X21828213Y-78623280D01*
X176752023Y-59620900D02*
X176609166Y-59668519D01*
X176609166Y-59668519D02*
X176371071Y-59668519D01*
X176371071Y-59668519D02*
X176275833Y-59620900D01*
X176275833Y-59620900D02*
X176228214Y-59573280D01*
X176228214Y-59573280D02*
X176180595Y-59478042D01*
X176180595Y-59478042D02*
X176180595Y-59382804D01*
X176180595Y-59382804D02*
X176228214Y-59287566D01*
X176228214Y-59287566D02*
X176275833Y-59239947D01*
X176275833Y-59239947D02*
X176371071Y-59192328D01*
X176371071Y-59192328D02*
X176561547Y-59144709D01*
X176561547Y-59144709D02*
X176656785Y-59097090D01*
X176656785Y-59097090D02*
X176704404Y-59049471D01*
X176704404Y-59049471D02*
X176752023Y-58954233D01*
X176752023Y-58954233D02*
X176752023Y-58858995D01*
X176752023Y-58858995D02*
X176704404Y-58763757D01*
X176704404Y-58763757D02*
X176656785Y-58716138D01*
X176656785Y-58716138D02*
X176561547Y-58668519D01*
X176561547Y-58668519D02*
X176323452Y-58668519D01*
X176323452Y-58668519D02*
X176180595Y-58716138D01*
X175847261Y-58668519D02*
X175609166Y-59668519D01*
X175609166Y-59668519D02*
X175418690Y-58954233D01*
X175418690Y-58954233D02*
X175228214Y-59668519D01*
X175228214Y-59668519D02*
X174990119Y-58668519D01*
X174656785Y-58763757D02*
X174609166Y-58716138D01*
X174609166Y-58716138D02*
X174513928Y-58668519D01*
X174513928Y-58668519D02*
X174275833Y-58668519D01*
X174275833Y-58668519D02*
X174180595Y-58716138D01*
X174180595Y-58716138D02*
X174132976Y-58763757D01*
X174132976Y-58763757D02*
X174085357Y-58858995D01*
X174085357Y-58858995D02*
X174085357Y-58954233D01*
X174085357Y-58954233D02*
X174132976Y-59097090D01*
X174132976Y-59097090D02*
X174704404Y-59668519D01*
X174704404Y-59668519D02*
X174085357Y-59668519D01*
X173228214Y-59001852D02*
X173228214Y-59668519D01*
X173466309Y-58620900D02*
X173704404Y-59335185D01*
X173704404Y-59335185D02*
X173085357Y-59335185D01*
X148962881Y-105229819D02*
X149296214Y-104753628D01*
X149534309Y-105229819D02*
X149534309Y-104229819D01*
X149534309Y-104229819D02*
X149153357Y-104229819D01*
X149153357Y-104229819D02*
X149058119Y-104277438D01*
X149058119Y-104277438D02*
X149010500Y-104325057D01*
X149010500Y-104325057D02*
X148962881Y-104420295D01*
X148962881Y-104420295D02*
X148962881Y-104563152D01*
X148962881Y-104563152D02*
X149010500Y-104658390D01*
X149010500Y-104658390D02*
X149058119Y-104706009D01*
X149058119Y-104706009D02*
X149153357Y-104753628D01*
X149153357Y-104753628D02*
X149534309Y-104753628D01*
X148534309Y-104706009D02*
X148200976Y-104706009D01*
X148058119Y-105229819D02*
X148534309Y-105229819D01*
X148534309Y-105229819D02*
X148534309Y-104229819D01*
X148534309Y-104229819D02*
X148058119Y-104229819D01*
X147677166Y-105182200D02*
X147534309Y-105229819D01*
X147534309Y-105229819D02*
X147296214Y-105229819D01*
X147296214Y-105229819D02*
X147200976Y-105182200D01*
X147200976Y-105182200D02*
X147153357Y-105134580D01*
X147153357Y-105134580D02*
X147105738Y-105039342D01*
X147105738Y-105039342D02*
X147105738Y-104944104D01*
X147105738Y-104944104D02*
X147153357Y-104848866D01*
X147153357Y-104848866D02*
X147200976Y-104801247D01*
X147200976Y-104801247D02*
X147296214Y-104753628D01*
X147296214Y-104753628D02*
X147486690Y-104706009D01*
X147486690Y-104706009D02*
X147581928Y-104658390D01*
X147581928Y-104658390D02*
X147629547Y-104610771D01*
X147629547Y-104610771D02*
X147677166Y-104515533D01*
X147677166Y-104515533D02*
X147677166Y-104420295D01*
X147677166Y-104420295D02*
X147629547Y-104325057D01*
X147629547Y-104325057D02*
X147581928Y-104277438D01*
X147581928Y-104277438D02*
X147486690Y-104229819D01*
X147486690Y-104229819D02*
X147248595Y-104229819D01*
X147248595Y-104229819D02*
X147105738Y-104277438D01*
X146677166Y-104706009D02*
X146343833Y-104706009D01*
X146200976Y-105229819D02*
X146677166Y-105229819D01*
X146677166Y-105229819D02*
X146677166Y-104229819D01*
X146677166Y-104229819D02*
X146200976Y-104229819D01*
X145915261Y-104229819D02*
X145343833Y-104229819D01*
X145629547Y-105229819D02*
X145629547Y-104229819D01*
X100552023Y-59620900D02*
X100409166Y-59668519D01*
X100409166Y-59668519D02*
X100171071Y-59668519D01*
X100171071Y-59668519D02*
X100075833Y-59620900D01*
X100075833Y-59620900D02*
X100028214Y-59573280D01*
X100028214Y-59573280D02*
X99980595Y-59478042D01*
X99980595Y-59478042D02*
X99980595Y-59382804D01*
X99980595Y-59382804D02*
X100028214Y-59287566D01*
X100028214Y-59287566D02*
X100075833Y-59239947D01*
X100075833Y-59239947D02*
X100171071Y-59192328D01*
X100171071Y-59192328D02*
X100361547Y-59144709D01*
X100361547Y-59144709D02*
X100456785Y-59097090D01*
X100456785Y-59097090D02*
X100504404Y-59049471D01*
X100504404Y-59049471D02*
X100552023Y-58954233D01*
X100552023Y-58954233D02*
X100552023Y-58858995D01*
X100552023Y-58858995D02*
X100504404Y-58763757D01*
X100504404Y-58763757D02*
X100456785Y-58716138D01*
X100456785Y-58716138D02*
X100361547Y-58668519D01*
X100361547Y-58668519D02*
X100123452Y-58668519D01*
X100123452Y-58668519D02*
X99980595Y-58716138D01*
X99647261Y-58668519D02*
X99409166Y-59668519D01*
X99409166Y-59668519D02*
X99218690Y-58954233D01*
X99218690Y-58954233D02*
X99028214Y-59668519D01*
X99028214Y-59668519D02*
X98790119Y-58668519D01*
X97885357Y-59668519D02*
X98456785Y-59668519D01*
X98171071Y-59668519D02*
X98171071Y-58668519D01*
X98171071Y-58668519D02*
X98266309Y-58811376D01*
X98266309Y-58811376D02*
X98361547Y-58906614D01*
X98361547Y-58906614D02*
X98456785Y-58954233D01*
X97313928Y-59097090D02*
X97409166Y-59049471D01*
X97409166Y-59049471D02*
X97456785Y-59001852D01*
X97456785Y-59001852D02*
X97504404Y-58906614D01*
X97504404Y-58906614D02*
X97504404Y-58858995D01*
X97504404Y-58858995D02*
X97456785Y-58763757D01*
X97456785Y-58763757D02*
X97409166Y-58716138D01*
X97409166Y-58716138D02*
X97313928Y-58668519D01*
X97313928Y-58668519D02*
X97123452Y-58668519D01*
X97123452Y-58668519D02*
X97028214Y-58716138D01*
X97028214Y-58716138D02*
X96980595Y-58763757D01*
X96980595Y-58763757D02*
X96932976Y-58858995D01*
X96932976Y-58858995D02*
X96932976Y-58906614D01*
X96932976Y-58906614D02*
X96980595Y-59001852D01*
X96980595Y-59001852D02*
X97028214Y-59049471D01*
X97028214Y-59049471D02*
X97123452Y-59097090D01*
X97123452Y-59097090D02*
X97313928Y-59097090D01*
X97313928Y-59097090D02*
X97409166Y-59144709D01*
X97409166Y-59144709D02*
X97456785Y-59192328D01*
X97456785Y-59192328D02*
X97504404Y-59287566D01*
X97504404Y-59287566D02*
X97504404Y-59478042D01*
X97504404Y-59478042D02*
X97456785Y-59573280D01*
X97456785Y-59573280D02*
X97409166Y-59620900D01*
X97409166Y-59620900D02*
X97313928Y-59668519D01*
X97313928Y-59668519D02*
X97123452Y-59668519D01*
X97123452Y-59668519D02*
X97028214Y-59620900D01*
X97028214Y-59620900D02*
X96980595Y-59573280D01*
X96980595Y-59573280D02*
X96932976Y-59478042D01*
X96932976Y-59478042D02*
X96932976Y-59287566D01*
X96932976Y-59287566D02*
X96980595Y-59192328D01*
X96980595Y-59192328D02*
X97028214Y-59144709D01*
X97028214Y-59144709D02*
X97123452Y-59097090D01*
X42925832Y-40570900D02*
X42782975Y-40618519D01*
X42782975Y-40618519D02*
X42544880Y-40618519D01*
X42544880Y-40618519D02*
X42449642Y-40570900D01*
X42449642Y-40570900D02*
X42402023Y-40523280D01*
X42402023Y-40523280D02*
X42354404Y-40428042D01*
X42354404Y-40428042D02*
X42354404Y-40332804D01*
X42354404Y-40332804D02*
X42402023Y-40237566D01*
X42402023Y-40237566D02*
X42449642Y-40189947D01*
X42449642Y-40189947D02*
X42544880Y-40142328D01*
X42544880Y-40142328D02*
X42735356Y-40094709D01*
X42735356Y-40094709D02*
X42830594Y-40047090D01*
X42830594Y-40047090D02*
X42878213Y-39999471D01*
X42878213Y-39999471D02*
X42925832Y-39904233D01*
X42925832Y-39904233D02*
X42925832Y-39808995D01*
X42925832Y-39808995D02*
X42878213Y-39713757D01*
X42878213Y-39713757D02*
X42830594Y-39666138D01*
X42830594Y-39666138D02*
X42735356Y-39618519D01*
X42735356Y-39618519D02*
X42497261Y-39618519D01*
X42497261Y-39618519D02*
X42354404Y-39666138D01*
X42021070Y-39618519D02*
X41782975Y-40618519D01*
X41782975Y-40618519D02*
X41592499Y-39904233D01*
X41592499Y-39904233D02*
X41402023Y-40618519D01*
X41402023Y-40618519D02*
X41163928Y-39618519D01*
X40306785Y-39618519D02*
X40782975Y-39618519D01*
X40782975Y-39618519D02*
X40830594Y-40094709D01*
X40830594Y-40094709D02*
X40782975Y-40047090D01*
X40782975Y-40047090D02*
X40687737Y-39999471D01*
X40687737Y-39999471D02*
X40449642Y-39999471D01*
X40449642Y-39999471D02*
X40354404Y-40047090D01*
X40354404Y-40047090D02*
X40306785Y-40094709D01*
X40306785Y-40094709D02*
X40259166Y-40189947D01*
X40259166Y-40189947D02*
X40259166Y-40428042D01*
X40259166Y-40428042D02*
X40306785Y-40523280D01*
X40306785Y-40523280D02*
X40354404Y-40570900D01*
X40354404Y-40570900D02*
X40449642Y-40618519D01*
X40449642Y-40618519D02*
X40687737Y-40618519D01*
X40687737Y-40618519D02*
X40782975Y-40570900D01*
X40782975Y-40570900D02*
X40830594Y-40523280D01*
X81502023Y-59620900D02*
X81359166Y-59668519D01*
X81359166Y-59668519D02*
X81121071Y-59668519D01*
X81121071Y-59668519D02*
X81025833Y-59620900D01*
X81025833Y-59620900D02*
X80978214Y-59573280D01*
X80978214Y-59573280D02*
X80930595Y-59478042D01*
X80930595Y-59478042D02*
X80930595Y-59382804D01*
X80930595Y-59382804D02*
X80978214Y-59287566D01*
X80978214Y-59287566D02*
X81025833Y-59239947D01*
X81025833Y-59239947D02*
X81121071Y-59192328D01*
X81121071Y-59192328D02*
X81311547Y-59144709D01*
X81311547Y-59144709D02*
X81406785Y-59097090D01*
X81406785Y-59097090D02*
X81454404Y-59049471D01*
X81454404Y-59049471D02*
X81502023Y-58954233D01*
X81502023Y-58954233D02*
X81502023Y-58858995D01*
X81502023Y-58858995D02*
X81454404Y-58763757D01*
X81454404Y-58763757D02*
X81406785Y-58716138D01*
X81406785Y-58716138D02*
X81311547Y-58668519D01*
X81311547Y-58668519D02*
X81073452Y-58668519D01*
X81073452Y-58668519D02*
X80930595Y-58716138D01*
X80597261Y-58668519D02*
X80359166Y-59668519D01*
X80359166Y-59668519D02*
X80168690Y-58954233D01*
X80168690Y-58954233D02*
X79978214Y-59668519D01*
X79978214Y-59668519D02*
X79740119Y-58668519D01*
X78835357Y-59668519D02*
X79406785Y-59668519D01*
X79121071Y-59668519D02*
X79121071Y-58668519D01*
X79121071Y-58668519D02*
X79216309Y-58811376D01*
X79216309Y-58811376D02*
X79311547Y-58906614D01*
X79311547Y-58906614D02*
X79406785Y-58954233D01*
X77978214Y-59001852D02*
X77978214Y-59668519D01*
X78216309Y-58620900D02*
X78454404Y-59335185D01*
X78454404Y-59335185D02*
X77835357Y-59335185D01*
X233902023Y-78670900D02*
X233759166Y-78718519D01*
X233759166Y-78718519D02*
X233521071Y-78718519D01*
X233521071Y-78718519D02*
X233425833Y-78670900D01*
X233425833Y-78670900D02*
X233378214Y-78623280D01*
X233378214Y-78623280D02*
X233330595Y-78528042D01*
X233330595Y-78528042D02*
X233330595Y-78432804D01*
X233330595Y-78432804D02*
X233378214Y-78337566D01*
X233378214Y-78337566D02*
X233425833Y-78289947D01*
X233425833Y-78289947D02*
X233521071Y-78242328D01*
X233521071Y-78242328D02*
X233711547Y-78194709D01*
X233711547Y-78194709D02*
X233806785Y-78147090D01*
X233806785Y-78147090D02*
X233854404Y-78099471D01*
X233854404Y-78099471D02*
X233902023Y-78004233D01*
X233902023Y-78004233D02*
X233902023Y-77908995D01*
X233902023Y-77908995D02*
X233854404Y-77813757D01*
X233854404Y-77813757D02*
X233806785Y-77766138D01*
X233806785Y-77766138D02*
X233711547Y-77718519D01*
X233711547Y-77718519D02*
X233473452Y-77718519D01*
X233473452Y-77718519D02*
X233330595Y-77766138D01*
X232997261Y-77718519D02*
X232759166Y-78718519D01*
X232759166Y-78718519D02*
X232568690Y-78004233D01*
X232568690Y-78004233D02*
X232378214Y-78718519D01*
X232378214Y-78718519D02*
X232140119Y-77718519D01*
X231854404Y-77718519D02*
X231235357Y-77718519D01*
X231235357Y-77718519D02*
X231568690Y-78099471D01*
X231568690Y-78099471D02*
X231425833Y-78099471D01*
X231425833Y-78099471D02*
X231330595Y-78147090D01*
X231330595Y-78147090D02*
X231282976Y-78194709D01*
X231282976Y-78194709D02*
X231235357Y-78289947D01*
X231235357Y-78289947D02*
X231235357Y-78528042D01*
X231235357Y-78528042D02*
X231282976Y-78623280D01*
X231282976Y-78623280D02*
X231330595Y-78670900D01*
X231330595Y-78670900D02*
X231425833Y-78718519D01*
X231425833Y-78718519D02*
X231711547Y-78718519D01*
X231711547Y-78718519D02*
X231806785Y-78670900D01*
X231806785Y-78670900D02*
X231854404Y-78623280D01*
X230378214Y-78051852D02*
X230378214Y-78718519D01*
X230616309Y-77670900D02*
X230854404Y-78385185D01*
X230854404Y-78385185D02*
X230235357Y-78385185D01*
X233902023Y-40570900D02*
X233759166Y-40618519D01*
X233759166Y-40618519D02*
X233521071Y-40618519D01*
X233521071Y-40618519D02*
X233425833Y-40570900D01*
X233425833Y-40570900D02*
X233378214Y-40523280D01*
X233378214Y-40523280D02*
X233330595Y-40428042D01*
X233330595Y-40428042D02*
X233330595Y-40332804D01*
X233330595Y-40332804D02*
X233378214Y-40237566D01*
X233378214Y-40237566D02*
X233425833Y-40189947D01*
X233425833Y-40189947D02*
X233521071Y-40142328D01*
X233521071Y-40142328D02*
X233711547Y-40094709D01*
X233711547Y-40094709D02*
X233806785Y-40047090D01*
X233806785Y-40047090D02*
X233854404Y-39999471D01*
X233854404Y-39999471D02*
X233902023Y-39904233D01*
X233902023Y-39904233D02*
X233902023Y-39808995D01*
X233902023Y-39808995D02*
X233854404Y-39713757D01*
X233854404Y-39713757D02*
X233806785Y-39666138D01*
X233806785Y-39666138D02*
X233711547Y-39618519D01*
X233711547Y-39618519D02*
X233473452Y-39618519D01*
X233473452Y-39618519D02*
X233330595Y-39666138D01*
X232997261Y-39618519D02*
X232759166Y-40618519D01*
X232759166Y-40618519D02*
X232568690Y-39904233D01*
X232568690Y-39904233D02*
X232378214Y-40618519D01*
X232378214Y-40618519D02*
X232140119Y-39618519D01*
X231854404Y-39618519D02*
X231235357Y-39618519D01*
X231235357Y-39618519D02*
X231568690Y-39999471D01*
X231568690Y-39999471D02*
X231425833Y-39999471D01*
X231425833Y-39999471D02*
X231330595Y-40047090D01*
X231330595Y-40047090D02*
X231282976Y-40094709D01*
X231282976Y-40094709D02*
X231235357Y-40189947D01*
X231235357Y-40189947D02*
X231235357Y-40428042D01*
X231235357Y-40428042D02*
X231282976Y-40523280D01*
X231282976Y-40523280D02*
X231330595Y-40570900D01*
X231330595Y-40570900D02*
X231425833Y-40618519D01*
X231425833Y-40618519D02*
X231711547Y-40618519D01*
X231711547Y-40618519D02*
X231806785Y-40570900D01*
X231806785Y-40570900D02*
X231854404Y-40523280D01*
X230854404Y-39713757D02*
X230806785Y-39666138D01*
X230806785Y-39666138D02*
X230711547Y-39618519D01*
X230711547Y-39618519D02*
X230473452Y-39618519D01*
X230473452Y-39618519D02*
X230378214Y-39666138D01*
X230378214Y-39666138D02*
X230330595Y-39713757D01*
X230330595Y-39713757D02*
X230282976Y-39808995D01*
X230282976Y-39808995D02*
X230282976Y-39904233D01*
X230282976Y-39904233D02*
X230330595Y-40047090D01*
X230330595Y-40047090D02*
X230902023Y-40618519D01*
X230902023Y-40618519D02*
X230282976Y-40618519D01*
X81502023Y-40570900D02*
X81359166Y-40618519D01*
X81359166Y-40618519D02*
X81121071Y-40618519D01*
X81121071Y-40618519D02*
X81025833Y-40570900D01*
X81025833Y-40570900D02*
X80978214Y-40523280D01*
X80978214Y-40523280D02*
X80930595Y-40428042D01*
X80930595Y-40428042D02*
X80930595Y-40332804D01*
X80930595Y-40332804D02*
X80978214Y-40237566D01*
X80978214Y-40237566D02*
X81025833Y-40189947D01*
X81025833Y-40189947D02*
X81121071Y-40142328D01*
X81121071Y-40142328D02*
X81311547Y-40094709D01*
X81311547Y-40094709D02*
X81406785Y-40047090D01*
X81406785Y-40047090D02*
X81454404Y-39999471D01*
X81454404Y-39999471D02*
X81502023Y-39904233D01*
X81502023Y-39904233D02*
X81502023Y-39808995D01*
X81502023Y-39808995D02*
X81454404Y-39713757D01*
X81454404Y-39713757D02*
X81406785Y-39666138D01*
X81406785Y-39666138D02*
X81311547Y-39618519D01*
X81311547Y-39618519D02*
X81073452Y-39618519D01*
X81073452Y-39618519D02*
X80930595Y-39666138D01*
X80597261Y-39618519D02*
X80359166Y-40618519D01*
X80359166Y-40618519D02*
X80168690Y-39904233D01*
X80168690Y-39904233D02*
X79978214Y-40618519D01*
X79978214Y-40618519D02*
X79740119Y-39618519D01*
X78835357Y-40618519D02*
X79406785Y-40618519D01*
X79121071Y-40618519D02*
X79121071Y-39618519D01*
X79121071Y-39618519D02*
X79216309Y-39761376D01*
X79216309Y-39761376D02*
X79311547Y-39856614D01*
X79311547Y-39856614D02*
X79406785Y-39904233D01*
X78502023Y-39618519D02*
X77882976Y-39618519D01*
X77882976Y-39618519D02*
X78216309Y-39999471D01*
X78216309Y-39999471D02*
X78073452Y-39999471D01*
X78073452Y-39999471D02*
X77978214Y-40047090D01*
X77978214Y-40047090D02*
X77930595Y-40094709D01*
X77930595Y-40094709D02*
X77882976Y-40189947D01*
X77882976Y-40189947D02*
X77882976Y-40428042D01*
X77882976Y-40428042D02*
X77930595Y-40523280D01*
X77930595Y-40523280D02*
X77978214Y-40570900D01*
X77978214Y-40570900D02*
X78073452Y-40618519D01*
X78073452Y-40618519D02*
X78359166Y-40618519D01*
X78359166Y-40618519D02*
X78454404Y-40570900D01*
X78454404Y-40570900D02*
X78502023Y-40523280D01*
X233902023Y-59620900D02*
X233759166Y-59668519D01*
X233759166Y-59668519D02*
X233521071Y-59668519D01*
X233521071Y-59668519D02*
X233425833Y-59620900D01*
X233425833Y-59620900D02*
X233378214Y-59573280D01*
X233378214Y-59573280D02*
X233330595Y-59478042D01*
X233330595Y-59478042D02*
X233330595Y-59382804D01*
X233330595Y-59382804D02*
X233378214Y-59287566D01*
X233378214Y-59287566D02*
X233425833Y-59239947D01*
X233425833Y-59239947D02*
X233521071Y-59192328D01*
X233521071Y-59192328D02*
X233711547Y-59144709D01*
X233711547Y-59144709D02*
X233806785Y-59097090D01*
X233806785Y-59097090D02*
X233854404Y-59049471D01*
X233854404Y-59049471D02*
X233902023Y-58954233D01*
X233902023Y-58954233D02*
X233902023Y-58858995D01*
X233902023Y-58858995D02*
X233854404Y-58763757D01*
X233854404Y-58763757D02*
X233806785Y-58716138D01*
X233806785Y-58716138D02*
X233711547Y-58668519D01*
X233711547Y-58668519D02*
X233473452Y-58668519D01*
X233473452Y-58668519D02*
X233330595Y-58716138D01*
X232997261Y-58668519D02*
X232759166Y-59668519D01*
X232759166Y-59668519D02*
X232568690Y-58954233D01*
X232568690Y-58954233D02*
X232378214Y-59668519D01*
X232378214Y-59668519D02*
X232140119Y-58668519D01*
X231854404Y-58668519D02*
X231235357Y-58668519D01*
X231235357Y-58668519D02*
X231568690Y-59049471D01*
X231568690Y-59049471D02*
X231425833Y-59049471D01*
X231425833Y-59049471D02*
X231330595Y-59097090D01*
X231330595Y-59097090D02*
X231282976Y-59144709D01*
X231282976Y-59144709D02*
X231235357Y-59239947D01*
X231235357Y-59239947D02*
X231235357Y-59478042D01*
X231235357Y-59478042D02*
X231282976Y-59573280D01*
X231282976Y-59573280D02*
X231330595Y-59620900D01*
X231330595Y-59620900D02*
X231425833Y-59668519D01*
X231425833Y-59668519D02*
X231711547Y-59668519D01*
X231711547Y-59668519D02*
X231806785Y-59620900D01*
X231806785Y-59620900D02*
X231854404Y-59573280D01*
X230902023Y-58668519D02*
X230282976Y-58668519D01*
X230282976Y-58668519D02*
X230616309Y-59049471D01*
X230616309Y-59049471D02*
X230473452Y-59049471D01*
X230473452Y-59049471D02*
X230378214Y-59097090D01*
X230378214Y-59097090D02*
X230330595Y-59144709D01*
X230330595Y-59144709D02*
X230282976Y-59239947D01*
X230282976Y-59239947D02*
X230282976Y-59478042D01*
X230282976Y-59478042D02*
X230330595Y-59573280D01*
X230330595Y-59573280D02*
X230378214Y-59620900D01*
X230378214Y-59620900D02*
X230473452Y-59668519D01*
X230473452Y-59668519D02*
X230759166Y-59668519D01*
X230759166Y-59668519D02*
X230854404Y-59620900D01*
X230854404Y-59620900D02*
X230902023Y-59573280D01*
X119125832Y-97720900D02*
X118982975Y-97768519D01*
X118982975Y-97768519D02*
X118744880Y-97768519D01*
X118744880Y-97768519D02*
X118649642Y-97720900D01*
X118649642Y-97720900D02*
X118602023Y-97673280D01*
X118602023Y-97673280D02*
X118554404Y-97578042D01*
X118554404Y-97578042D02*
X118554404Y-97482804D01*
X118554404Y-97482804D02*
X118602023Y-97387566D01*
X118602023Y-97387566D02*
X118649642Y-97339947D01*
X118649642Y-97339947D02*
X118744880Y-97292328D01*
X118744880Y-97292328D02*
X118935356Y-97244709D01*
X118935356Y-97244709D02*
X119030594Y-97197090D01*
X119030594Y-97197090D02*
X119078213Y-97149471D01*
X119078213Y-97149471D02*
X119125832Y-97054233D01*
X119125832Y-97054233D02*
X119125832Y-96958995D01*
X119125832Y-96958995D02*
X119078213Y-96863757D01*
X119078213Y-96863757D02*
X119030594Y-96816138D01*
X119030594Y-96816138D02*
X118935356Y-96768519D01*
X118935356Y-96768519D02*
X118697261Y-96768519D01*
X118697261Y-96768519D02*
X118554404Y-96816138D01*
X118221070Y-96768519D02*
X117982975Y-97768519D01*
X117982975Y-97768519D02*
X117792499Y-97054233D01*
X117792499Y-97054233D02*
X117602023Y-97768519D01*
X117602023Y-97768519D02*
X117363928Y-96768519D01*
X116840118Y-97197090D02*
X116935356Y-97149471D01*
X116935356Y-97149471D02*
X116982975Y-97101852D01*
X116982975Y-97101852D02*
X117030594Y-97006614D01*
X117030594Y-97006614D02*
X117030594Y-96958995D01*
X117030594Y-96958995D02*
X116982975Y-96863757D01*
X116982975Y-96863757D02*
X116935356Y-96816138D01*
X116935356Y-96816138D02*
X116840118Y-96768519D01*
X116840118Y-96768519D02*
X116649642Y-96768519D01*
X116649642Y-96768519D02*
X116554404Y-96816138D01*
X116554404Y-96816138D02*
X116506785Y-96863757D01*
X116506785Y-96863757D02*
X116459166Y-96958995D01*
X116459166Y-96958995D02*
X116459166Y-97006614D01*
X116459166Y-97006614D02*
X116506785Y-97101852D01*
X116506785Y-97101852D02*
X116554404Y-97149471D01*
X116554404Y-97149471D02*
X116649642Y-97197090D01*
X116649642Y-97197090D02*
X116840118Y-97197090D01*
X116840118Y-97197090D02*
X116935356Y-97244709D01*
X116935356Y-97244709D02*
X116982975Y-97292328D01*
X116982975Y-97292328D02*
X117030594Y-97387566D01*
X117030594Y-97387566D02*
X117030594Y-97578042D01*
X117030594Y-97578042D02*
X116982975Y-97673280D01*
X116982975Y-97673280D02*
X116935356Y-97720900D01*
X116935356Y-97720900D02*
X116840118Y-97768519D01*
X116840118Y-97768519D02*
X116649642Y-97768519D01*
X116649642Y-97768519D02*
X116554404Y-97720900D01*
X116554404Y-97720900D02*
X116506785Y-97673280D01*
X116506785Y-97673280D02*
X116459166Y-97578042D01*
X116459166Y-97578042D02*
X116459166Y-97387566D01*
X116459166Y-97387566D02*
X116506785Y-97292328D01*
X116506785Y-97292328D02*
X116554404Y-97244709D01*
X116554404Y-97244709D02*
X116649642Y-97197090D01*
X195802023Y-59620900D02*
X195659166Y-59668519D01*
X195659166Y-59668519D02*
X195421071Y-59668519D01*
X195421071Y-59668519D02*
X195325833Y-59620900D01*
X195325833Y-59620900D02*
X195278214Y-59573280D01*
X195278214Y-59573280D02*
X195230595Y-59478042D01*
X195230595Y-59478042D02*
X195230595Y-59382804D01*
X195230595Y-59382804D02*
X195278214Y-59287566D01*
X195278214Y-59287566D02*
X195325833Y-59239947D01*
X195325833Y-59239947D02*
X195421071Y-59192328D01*
X195421071Y-59192328D02*
X195611547Y-59144709D01*
X195611547Y-59144709D02*
X195706785Y-59097090D01*
X195706785Y-59097090D02*
X195754404Y-59049471D01*
X195754404Y-59049471D02*
X195802023Y-58954233D01*
X195802023Y-58954233D02*
X195802023Y-58858995D01*
X195802023Y-58858995D02*
X195754404Y-58763757D01*
X195754404Y-58763757D02*
X195706785Y-58716138D01*
X195706785Y-58716138D02*
X195611547Y-58668519D01*
X195611547Y-58668519D02*
X195373452Y-58668519D01*
X195373452Y-58668519D02*
X195230595Y-58716138D01*
X194897261Y-58668519D02*
X194659166Y-59668519D01*
X194659166Y-59668519D02*
X194468690Y-58954233D01*
X194468690Y-58954233D02*
X194278214Y-59668519D01*
X194278214Y-59668519D02*
X194040119Y-58668519D01*
X193706785Y-58763757D02*
X193659166Y-58716138D01*
X193659166Y-58716138D02*
X193563928Y-58668519D01*
X193563928Y-58668519D02*
X193325833Y-58668519D01*
X193325833Y-58668519D02*
X193230595Y-58716138D01*
X193230595Y-58716138D02*
X193182976Y-58763757D01*
X193182976Y-58763757D02*
X193135357Y-58858995D01*
X193135357Y-58858995D02*
X193135357Y-58954233D01*
X193135357Y-58954233D02*
X193182976Y-59097090D01*
X193182976Y-59097090D02*
X193754404Y-59668519D01*
X193754404Y-59668519D02*
X193135357Y-59668519D01*
X192802023Y-58668519D02*
X192135357Y-58668519D01*
X192135357Y-58668519D02*
X192563928Y-59668519D01*
X204037500Y-45562500D02*
X205537500Y-45562500D01*
X205537500Y-45562500D02*
X205537500Y-40162500D01*
X204287500Y-43362500D02*
X205287500Y-43362500D01*
X204787500Y-43262500D02*
X204287500Y-42362500D01*
X204287500Y-42362500D02*
X205287500Y-42362500D01*
X205287500Y-42362500D02*
X204787500Y-43262500D01*
X204037500Y-40162500D02*
X204037500Y-45562500D01*
X205537500Y-40162500D02*
X204037500Y-40162500D01*
X108787500Y-103318700D02*
X110287500Y-103318700D01*
X110287500Y-103318700D02*
X110287500Y-97918700D01*
X109037500Y-101118700D02*
X110037500Y-101118700D01*
X109537500Y-101018700D02*
X109037500Y-100118700D01*
X109037500Y-100118700D02*
X110037500Y-100118700D01*
X110037500Y-100118700D02*
X109537500Y-101018700D01*
X108787500Y-97918700D02*
X108787500Y-103318700D01*
X110287500Y-97918700D02*
X108787500Y-97918700D01*
X184987500Y-102712500D02*
X186487500Y-102712500D01*
X186487500Y-102712500D02*
X186487500Y-97312500D01*
X185237500Y-100512500D02*
X186237500Y-100512500D01*
X185737500Y-100412500D02*
X185237500Y-99512500D01*
X185237500Y-99512500D02*
X186237500Y-99512500D01*
X186237500Y-99512500D02*
X185737500Y-100412500D01*
X184987500Y-97312500D02*
X184987500Y-102712500D01*
X186487500Y-97312500D02*
X184987500Y-97312500D01*
X13537500Y-83662500D02*
X15037500Y-83662500D01*
X15037500Y-83662500D02*
X15037500Y-78262500D01*
X13787500Y-81462500D02*
X14787500Y-81462500D01*
X14287500Y-81362500D02*
X13787500Y-80462500D01*
X13787500Y-80462500D02*
X14787500Y-80462500D01*
X14787500Y-80462500D02*
X14287500Y-81362500D01*
X13537500Y-78262500D02*
X13537500Y-83662500D01*
X15037500Y-78262500D02*
X13537500Y-78262500D01*
X184987500Y-45562500D02*
X186487500Y-45562500D01*
X186487500Y-45562500D02*
X186487500Y-40162500D01*
X185237500Y-43362500D02*
X186237500Y-43362500D01*
X185737500Y-43262500D02*
X185237500Y-42362500D01*
X185237500Y-42362500D02*
X186237500Y-42362500D01*
X186237500Y-42362500D02*
X185737500Y-43262500D01*
X184987500Y-40162500D02*
X184987500Y-45562500D01*
X186487500Y-40162500D02*
X184987500Y-40162500D01*
X70687500Y-83662500D02*
X72187500Y-83662500D01*
X72187500Y-83662500D02*
X72187500Y-78262500D01*
X70937500Y-81462500D02*
X71937500Y-81462500D01*
X71437500Y-81362500D02*
X70937500Y-80462500D01*
X70937500Y-80462500D02*
X71937500Y-80462500D01*
X71937500Y-80462500D02*
X71437500Y-81362500D01*
X70687500Y-78262500D02*
X70687500Y-83662500D01*
X72187500Y-78262500D02*
X70687500Y-78262500D01*
X108787500Y-64612500D02*
X110287500Y-64612500D01*
X110287500Y-64612500D02*
X110287500Y-59212500D01*
X109037500Y-62412500D02*
X110037500Y-62412500D01*
X109537500Y-62312500D02*
X109037500Y-61412500D01*
X109037500Y-61412500D02*
X110037500Y-61412500D01*
X110037500Y-61412500D02*
X109537500Y-62312500D01*
X108787500Y-59212500D02*
X108787500Y-64612500D01*
X110287500Y-59212500D02*
X108787500Y-59212500D01*
X242137500Y-45562500D02*
X243637500Y-45562500D01*
X243637500Y-45562500D02*
X243637500Y-40162500D01*
X242387500Y-43362500D02*
X243387500Y-43362500D01*
X242887500Y-43262500D02*
X242387500Y-42362500D01*
X242387500Y-42362500D02*
X243387500Y-42362500D01*
X243387500Y-42362500D02*
X242887500Y-43262500D01*
X242137500Y-40162500D02*
X242137500Y-45562500D01*
X243637500Y-40162500D02*
X242137500Y-40162500D01*
X108787500Y-83662500D02*
X110287500Y-83662500D01*
X110287500Y-83662500D02*
X110287500Y-78262500D01*
X109037500Y-81462500D02*
X110037500Y-81462500D01*
X109537500Y-81362500D02*
X109037500Y-80462500D01*
X109037500Y-80462500D02*
X110037500Y-80462500D01*
X110037500Y-80462500D02*
X109537500Y-81362500D01*
X108787500Y-78262500D02*
X108787500Y-83662500D01*
X110287500Y-78262500D02*
X108787500Y-78262500D01*
X13537500Y-45562500D02*
X15037500Y-45562500D01*
X15037500Y-45562500D02*
X15037500Y-40162500D01*
X13787500Y-43362500D02*
X14787500Y-43362500D01*
X14287500Y-43262500D02*
X13787500Y-42362500D01*
X13787500Y-42362500D02*
X14787500Y-42362500D01*
X14787500Y-42362500D02*
X14287500Y-43262500D01*
X13537500Y-40162500D02*
X13537500Y-45562500D01*
X15037500Y-40162500D02*
X13537500Y-40162500D01*
X223087500Y-83662500D02*
X224587500Y-83662500D01*
X224587500Y-83662500D02*
X224587500Y-78262500D01*
X223337500Y-81462500D02*
X224337500Y-81462500D01*
X223837500Y-81362500D02*
X223337500Y-80462500D01*
X223337500Y-80462500D02*
X224337500Y-80462500D01*
X224337500Y-80462500D02*
X223837500Y-81362500D01*
X223087500Y-78262500D02*
X223087500Y-83662500D01*
X224587500Y-78262500D02*
X223087500Y-78262500D01*
X70687500Y-64612500D02*
X72187500Y-64612500D01*
X72187500Y-64612500D02*
X72187500Y-59212500D01*
X70937500Y-62412500D02*
X71937500Y-62412500D01*
X71437500Y-62312500D02*
X70937500Y-61412500D01*
X70937500Y-61412500D02*
X71937500Y-61412500D01*
X71937500Y-61412500D02*
X71437500Y-62312500D01*
X70687500Y-59212500D02*
X70687500Y-64612500D01*
X72187500Y-59212500D02*
X70687500Y-59212500D01*
X242137500Y-83662500D02*
X243637500Y-83662500D01*
X243637500Y-83662500D02*
X243637500Y-78262500D01*
X242387500Y-81462500D02*
X243387500Y-81462500D01*
X242887500Y-81362500D02*
X242387500Y-80462500D01*
X242387500Y-80462500D02*
X243387500Y-80462500D01*
X243387500Y-80462500D02*
X242887500Y-81362500D01*
X242137500Y-78262500D02*
X242137500Y-83662500D01*
X243637500Y-78262500D02*
X242137500Y-78262500D01*
X108787500Y-45562500D02*
X110287500Y-45562500D01*
X110287500Y-45562500D02*
X110287500Y-40162500D01*
X109037500Y-43362500D02*
X110037500Y-43362500D01*
X109537500Y-43262500D02*
X109037500Y-42362500D01*
X109037500Y-42362500D02*
X110037500Y-42362500D01*
X110037500Y-42362500D02*
X109537500Y-43262500D01*
X108787500Y-40162500D02*
X108787500Y-45562500D01*
X110287500Y-40162500D02*
X108787500Y-40162500D01*
X89737500Y-45562500D02*
X91237500Y-45562500D01*
X91237500Y-45562500D02*
X91237500Y-40162500D01*
X89987500Y-43362500D02*
X90987500Y-43362500D01*
X90487500Y-43262500D02*
X89987500Y-42362500D01*
X89987500Y-42362500D02*
X90987500Y-42362500D01*
X90987500Y-42362500D02*
X90487500Y-43262500D01*
X89737500Y-40162500D02*
X89737500Y-45562500D01*
X91237500Y-40162500D02*
X89737500Y-40162500D01*
X32587500Y-83662500D02*
X34087500Y-83662500D01*
X34087500Y-83662500D02*
X34087500Y-78262500D01*
X32837500Y-81462500D02*
X33837500Y-81462500D01*
X33337500Y-81362500D02*
X32837500Y-80462500D01*
X32837500Y-80462500D02*
X33837500Y-80462500D01*
X33837500Y-80462500D02*
X33337500Y-81362500D01*
X32587500Y-78262500D02*
X32587500Y-83662500D01*
X34087500Y-78262500D02*
X32587500Y-78262500D01*
X89737500Y-83662500D02*
X91237500Y-83662500D01*
X91237500Y-83662500D02*
X91237500Y-78262500D01*
X89987500Y-81462500D02*
X90987500Y-81462500D01*
X90487500Y-81362500D02*
X89987500Y-80462500D01*
X89987500Y-80462500D02*
X90987500Y-80462500D01*
X90987500Y-80462500D02*
X90487500Y-81362500D01*
X89737500Y-78262500D02*
X89737500Y-83662500D01*
X91237500Y-78262500D02*
X89737500Y-78262500D01*
X223087500Y-45562500D02*
X224587500Y-45562500D01*
X224587500Y-45562500D02*
X224587500Y-40162500D01*
X223337500Y-43362500D02*
X224337500Y-43362500D01*
X223837500Y-43262500D02*
X223337500Y-42362500D01*
X223337500Y-42362500D02*
X224337500Y-42362500D01*
X224337500Y-42362500D02*
X223837500Y-43262500D01*
X223087500Y-40162500D02*
X223087500Y-45562500D01*
X224587500Y-40162500D02*
X223087500Y-40162500D01*
X165937500Y-103318700D02*
X167437500Y-103318700D01*
X167437500Y-103318700D02*
X167437500Y-97918700D01*
X166187500Y-101118700D02*
X167187500Y-101118700D01*
X166687500Y-101018700D02*
X166187500Y-100118700D01*
X166187500Y-100118700D02*
X167187500Y-100118700D01*
X167187500Y-100118700D02*
X166687500Y-101018700D01*
X165937500Y-97918700D02*
X165937500Y-103318700D01*
X167437500Y-97918700D02*
X165937500Y-97918700D01*
X242137500Y-64612500D02*
X243637500Y-64612500D01*
X243637500Y-64612500D02*
X243637500Y-59212500D01*
X242387500Y-62412500D02*
X243387500Y-62412500D01*
X242887500Y-62312500D02*
X242387500Y-61412500D01*
X242387500Y-61412500D02*
X243387500Y-61412500D01*
X243387500Y-61412500D02*
X242887500Y-62312500D01*
X242137500Y-59212500D02*
X242137500Y-64612500D01*
X243637500Y-59212500D02*
X242137500Y-59212500D01*
X32587500Y-64612500D02*
X34087500Y-64612500D01*
X34087500Y-64612500D02*
X34087500Y-59212500D01*
X32837500Y-62412500D02*
X33837500Y-62412500D01*
X33337500Y-62312500D02*
X32837500Y-61412500D01*
X32837500Y-61412500D02*
X33837500Y-61412500D01*
X33837500Y-61412500D02*
X33337500Y-62312500D01*
X32587500Y-59212500D02*
X32587500Y-64612500D01*
X34087500Y-59212500D02*
X32587500Y-59212500D01*
X204037500Y-83662500D02*
X205537500Y-83662500D01*
X205537500Y-83662500D02*
X205537500Y-78262500D01*
X204287500Y-81462500D02*
X205287500Y-81462500D01*
X204787500Y-81362500D02*
X204287500Y-80462500D01*
X204287500Y-80462500D02*
X205287500Y-80462500D01*
X205287500Y-80462500D02*
X204787500Y-81362500D01*
X204037500Y-78262500D02*
X204037500Y-83662500D01*
X205537500Y-78262500D02*
X204037500Y-78262500D01*
X89737500Y-64612500D02*
X91237500Y-64612500D01*
X91237500Y-64612500D02*
X91237500Y-59212500D01*
X89987500Y-62412500D02*
X90987500Y-62412500D01*
X90487500Y-62312500D02*
X89987500Y-61412500D01*
X89987500Y-61412500D02*
X90987500Y-61412500D01*
X90987500Y-61412500D02*
X90487500Y-62312500D01*
X89737500Y-59212500D02*
X89737500Y-64612500D01*
X91237500Y-59212500D02*
X89737500Y-59212500D01*
X51637500Y-64612500D02*
X53137500Y-64612500D01*
X53137500Y-64612500D02*
X53137500Y-59212500D01*
X51887500Y-62412500D02*
X52887500Y-62412500D01*
X52387500Y-62312500D02*
X51887500Y-61412500D01*
X51887500Y-61412500D02*
X52887500Y-61412500D01*
X52887500Y-61412500D02*
X52387500Y-62312500D01*
X51637500Y-59212500D02*
X51637500Y-64612500D01*
X53137500Y-59212500D02*
X51637500Y-59212500D01*
X165937500Y-64612500D02*
X167437500Y-64612500D01*
X167437500Y-64612500D02*
X167437500Y-59212500D01*
X166187500Y-62412500D02*
X167187500Y-62412500D01*
X166687500Y-62312500D02*
X166187500Y-61412500D01*
X166187500Y-61412500D02*
X167187500Y-61412500D01*
X167187500Y-61412500D02*
X166687500Y-62312500D01*
X165937500Y-59212500D02*
X165937500Y-64612500D01*
X167437500Y-59212500D02*
X165937500Y-59212500D01*
X258806300Y-76518700D02*
X260306300Y-76518700D01*
X260306300Y-76518700D02*
X260306300Y-71118700D01*
X259056300Y-74318700D02*
X260056300Y-74318700D01*
X259556300Y-74218700D02*
X259056300Y-73318700D01*
X259056300Y-73318700D02*
X260056300Y-73318700D01*
X260056300Y-73318700D02*
X259556300Y-74218700D01*
X258806300Y-71118700D02*
X258806300Y-76518700D01*
X260306300Y-71118700D02*
X258806300Y-71118700D01*
X223087500Y-64612500D02*
X224587500Y-64612500D01*
X224587500Y-64612500D02*
X224587500Y-59212500D01*
X223337500Y-62412500D02*
X224337500Y-62412500D01*
X223837500Y-62312500D02*
X223337500Y-61412500D01*
X223337500Y-61412500D02*
X224337500Y-61412500D01*
X224337500Y-61412500D02*
X223837500Y-62312500D01*
X223087500Y-59212500D02*
X223087500Y-64612500D01*
X224587500Y-59212500D02*
X223087500Y-59212500D01*
X89737500Y-102712500D02*
X91237500Y-102712500D01*
X91237500Y-102712500D02*
X91237500Y-97312500D01*
X89987500Y-100512500D02*
X90987500Y-100512500D01*
X90487500Y-100412500D02*
X89987500Y-99512500D01*
X89987500Y-99512500D02*
X90987500Y-99512500D01*
X90987500Y-99512500D02*
X90487500Y-100412500D01*
X89737500Y-97312500D02*
X89737500Y-102712500D01*
X91237500Y-97312500D02*
X89737500Y-97312500D01*
X184987500Y-83662500D02*
X186487500Y-83662500D01*
X186487500Y-83662500D02*
X186487500Y-78262500D01*
X185237500Y-81462500D02*
X186237500Y-81462500D01*
X185737500Y-81362500D02*
X185237500Y-80462500D01*
X185237500Y-80462500D02*
X186237500Y-80462500D01*
X186237500Y-80462500D02*
X185737500Y-81362500D01*
X184987500Y-78262500D02*
X184987500Y-83662500D01*
X186487500Y-78262500D02*
X184987500Y-78262500D01*
X165937500Y-83662500D02*
X167437500Y-83662500D01*
X167437500Y-83662500D02*
X167437500Y-78262500D01*
X166187500Y-81462500D02*
X167187500Y-81462500D01*
X166687500Y-81362500D02*
X166187500Y-80462500D01*
X166187500Y-80462500D02*
X167187500Y-80462500D01*
X167187500Y-80462500D02*
X166687500Y-81362500D01*
X165937500Y-78262500D02*
X165937500Y-83662500D01*
X167437500Y-78262500D02*
X165937500Y-78262500D01*
X165937500Y-45562500D02*
X167437500Y-45562500D01*
X167437500Y-45562500D02*
X167437500Y-40162500D01*
X166187500Y-43362500D02*
X167187500Y-43362500D01*
X166687500Y-43262500D02*
X166187500Y-42362500D01*
X166187500Y-42362500D02*
X167187500Y-42362500D01*
X167187500Y-42362500D02*
X166687500Y-43262500D01*
X165937500Y-40162500D02*
X165937500Y-45562500D01*
X167437500Y-40162500D02*
X165937500Y-40162500D01*
X150637500Y-106525000D02*
X144637500Y-106525000D01*
X150637500Y-106275000D02*
X150637500Y-106525000D01*
X150637500Y-103025000D02*
X150637500Y-103275000D01*
X144637500Y-106525000D02*
X144637500Y-106275000D01*
X144637500Y-103275000D02*
X144637500Y-103025000D01*
X144637500Y-103025000D02*
X150637500Y-103025000D01*
X261187500Y-45562500D02*
X262687500Y-45562500D01*
X262687500Y-45562500D02*
X262687500Y-40162500D01*
X261437500Y-43362500D02*
X262437500Y-43362500D01*
X261937500Y-43262500D02*
X261437500Y-42362500D01*
X261437500Y-42362500D02*
X262437500Y-42362500D01*
X262437500Y-42362500D02*
X261937500Y-43262500D01*
X261187500Y-40162500D02*
X261187500Y-45562500D01*
X262687500Y-40162500D02*
X261187500Y-40162500D01*
X204037500Y-64612500D02*
X205537500Y-64612500D01*
X205537500Y-64612500D02*
X205537500Y-59212500D01*
X204287500Y-62412500D02*
X205287500Y-62412500D01*
X204787500Y-62312500D02*
X204287500Y-61412500D01*
X204287500Y-61412500D02*
X205287500Y-61412500D01*
X205287500Y-61412500D02*
X204787500Y-62312500D01*
X204037500Y-59212500D02*
X204037500Y-64612500D01*
X205537500Y-59212500D02*
X204037500Y-59212500D01*
X184987500Y-64612500D02*
X186487500Y-64612500D01*
X186487500Y-64612500D02*
X186487500Y-59212500D01*
X185237500Y-62412500D02*
X186237500Y-62412500D01*
X185737500Y-62312500D02*
X185237500Y-61412500D01*
X185237500Y-61412500D02*
X186237500Y-61412500D01*
X186237500Y-61412500D02*
X185737500Y-62312500D01*
X184987500Y-59212500D02*
X184987500Y-64612500D01*
X186487500Y-59212500D02*
X184987500Y-59212500D01*
X51637500Y-83662500D02*
X53137500Y-83662500D01*
X53137500Y-83662500D02*
X53137500Y-78262500D01*
X51887500Y-81462500D02*
X52887500Y-81462500D01*
X52387500Y-81362500D02*
X51887500Y-80462500D01*
X51887500Y-80462500D02*
X52887500Y-80462500D01*
X52887500Y-80462500D02*
X52387500Y-81362500D01*
X51637500Y-78262500D02*
X51637500Y-83662500D01*
X53137500Y-78262500D02*
X51637500Y-78262500D01*
X51637500Y-45562500D02*
X53137500Y-45562500D01*
X53137500Y-45562500D02*
X53137500Y-40162500D01*
X51887500Y-43362500D02*
X52887500Y-43362500D01*
X52387500Y-43262500D02*
X51887500Y-42362500D01*
X51887500Y-42362500D02*
X52887500Y-42362500D01*
X52887500Y-42362500D02*
X52387500Y-43262500D01*
X51637500Y-40162500D02*
X51637500Y-45562500D01*
X53137500Y-40162500D02*
X51637500Y-40162500D01*
X13537500Y-64612500D02*
X15037500Y-64612500D01*
X15037500Y-64612500D02*
X15037500Y-59212500D01*
X13787500Y-62412500D02*
X14787500Y-62412500D01*
X14287500Y-62312500D02*
X13787500Y-61412500D01*
X13787500Y-61412500D02*
X14787500Y-61412500D01*
X14787500Y-61412500D02*
X14287500Y-62312500D01*
X13537500Y-59212500D02*
X13537500Y-64612500D01*
X15037500Y-59212500D02*
X13537500Y-59212500D01*
X70687500Y-45562500D02*
X72187500Y-45562500D01*
X72187500Y-45562500D02*
X72187500Y-40162500D01*
X70937500Y-43362500D02*
X71937500Y-43362500D01*
X71437500Y-43262500D02*
X70937500Y-42362500D01*
X70937500Y-42362500D02*
X71937500Y-42362500D01*
X71937500Y-42362500D02*
X71437500Y-43262500D01*
X70687500Y-40162500D02*
X70687500Y-45562500D01*
X72187500Y-40162500D02*
X70687500Y-40162500D01*
X32587500Y-45562500D02*
X34087500Y-45562500D01*
X34087500Y-45562500D02*
X34087500Y-40162500D01*
X32837500Y-43362500D02*
X33837500Y-43362500D01*
X33337500Y-43262500D02*
X32837500Y-42362500D01*
X32837500Y-42362500D02*
X33837500Y-42362500D01*
X33837500Y-42362500D02*
X33337500Y-43262500D01*
X32587500Y-40162500D02*
X32587500Y-45562500D01*
X34087500Y-40162500D02*
X32587500Y-40162500D01*
M02*
