G04 #@! TF.GenerationSoftware,KiCad,Pcbnew,7.0.10*
G04 #@! TF.CreationDate,2024-04-07T15:44:14+09:00*
G04 #@! TF.ProjectId,first_keyboard,66697273-745f-46b6-9579-626f6172642e,rev?*
G04 #@! TF.SameCoordinates,Original*
G04 #@! TF.FileFunction,Soldermask,Top*
G04 #@! TF.FilePolarity,Negative*
%FSLAX46Y46*%
G04 Gerber Fmt 4.6, Leading zero omitted, Abs format (unit mm)*
G04 Created by KiCad (PCBNEW 7.0.10) date 2024-04-07 15:44:14*
%MOMM*%
%LPD*%
G01*
G04 APERTURE LIST*
%ADD10C,2.000000*%
%ADD11C,3.000000*%
%ADD12C,4.000000*%
%ADD13C,6.500000*%
%ADD14C,3.050000*%
%ADD15C,1.800000*%
%ADD16R,1.397000X1.397000*%
%ADD17R,0.950000X1.300000*%
%ADD18C,1.397000*%
%ADD19O,1.800000X1.800000*%
%ADD20O,1.500000X1.500000*%
%ADD21O,1.700000X1.700000*%
%ADD22R,1.700000X1.700000*%
G04 APERTURE END LIST*
D10*
X256540000Y-115843700D03*
D11*
X257810000Y-113303700D03*
D12*
X261620000Y-115843700D03*
D11*
X264160000Y-110763700D03*
D10*
X266700000Y-115843700D03*
X332740000Y-115843700D03*
D11*
X334010000Y-113303700D03*
D12*
X337820000Y-115843700D03*
D11*
X340360000Y-110763700D03*
D10*
X342900000Y-115843700D03*
X106665000Y-153943700D03*
D11*
X107935000Y-151403700D03*
D12*
X111745000Y-153943700D03*
D11*
X114285000Y-148863700D03*
D10*
X116825000Y-153943700D03*
X275590000Y-115843700D03*
D11*
X276860000Y-113303700D03*
D12*
X280670000Y-115843700D03*
D11*
X283210000Y-110763700D03*
D10*
X285750000Y-115843700D03*
X49515000Y-153943700D03*
D11*
X50785000Y-151403700D03*
D12*
X54595000Y-153943700D03*
D11*
X57135000Y-148863700D03*
D10*
X59675000Y-153943700D03*
D13*
X309562500Y-173831200D03*
D10*
X87615000Y-153943700D03*
D11*
X88885000Y-151403700D03*
D12*
X92695000Y-153943700D03*
D11*
X95235000Y-148863700D03*
D10*
X97775000Y-153943700D03*
X106665000Y-115843700D03*
D11*
X107935000Y-113303700D03*
D12*
X111745000Y-115843700D03*
D11*
X114285000Y-110763700D03*
D10*
X116825000Y-115843700D03*
D13*
X47625000Y-100012500D03*
X102393800Y-173831200D03*
D10*
X49515000Y-115843700D03*
D11*
X50785000Y-113303700D03*
D12*
X54595000Y-115843700D03*
D11*
X57135000Y-110763700D03*
D10*
X59675000Y-115843700D03*
X237490000Y-172993700D03*
D11*
X238760000Y-170453700D03*
D12*
X242570000Y-172993700D03*
D11*
X245110000Y-167913700D03*
D10*
X247650000Y-172993700D03*
X125715000Y-172993700D03*
D11*
X126985000Y-170453700D03*
D12*
X130795000Y-172993700D03*
D11*
X133335000Y-167913700D03*
D10*
X135875000Y-172993700D03*
X294640000Y-134893700D03*
D11*
X295910000Y-132353700D03*
D12*
X299720000Y-134893700D03*
D11*
X302260000Y-129813700D03*
D10*
X304800000Y-134893700D03*
X275590000Y-153943700D03*
D11*
X276860000Y-151403700D03*
D12*
X280670000Y-153943700D03*
D11*
X283210000Y-148863700D03*
D10*
X285750000Y-153943700D03*
X87615000Y-115843700D03*
D11*
X88885000Y-113303700D03*
D12*
X92695000Y-115843700D03*
D11*
X95235000Y-110763700D03*
D10*
X97775000Y-115843700D03*
X68565000Y-153943700D03*
D11*
X69835000Y-151403700D03*
D12*
X73645000Y-153943700D03*
D11*
X76185000Y-148863700D03*
D10*
X78725000Y-153943700D03*
X275590000Y-172993700D03*
D11*
X276860000Y-170453700D03*
D12*
X280670000Y-172993700D03*
D11*
X283210000Y-167913700D03*
D10*
X285750000Y-172993700D03*
X87615000Y-134893700D03*
D11*
X88885000Y-132353700D03*
D12*
X92695000Y-134893700D03*
D11*
X95235000Y-129813700D03*
D10*
X97775000Y-134893700D03*
X125715000Y-134893700D03*
D11*
X126985000Y-132353700D03*
D12*
X130795000Y-134893700D03*
D11*
X133335000Y-129813700D03*
D10*
X135875000Y-134893700D03*
X256540000Y-153943700D03*
D11*
X257810000Y-151403700D03*
D12*
X261620000Y-153943700D03*
D11*
X264160000Y-148863700D03*
D10*
X266700000Y-153943700D03*
X125715000Y-153943700D03*
D11*
X126985000Y-151403700D03*
D12*
X130795000Y-153943700D03*
D11*
X133335000Y-148863700D03*
D10*
X135875000Y-153943700D03*
X294640000Y-115843700D03*
D11*
X295910000Y-113303700D03*
D12*
X299720000Y-115843700D03*
D11*
X302260000Y-110763700D03*
D10*
X304800000Y-115843700D03*
X294640000Y-153943700D03*
D11*
X295910000Y-151403700D03*
D12*
X299720000Y-153943700D03*
D11*
X302260000Y-148863700D03*
D10*
X304800000Y-153943700D03*
X125715000Y-115843700D03*
D11*
X126985000Y-113303700D03*
D12*
X130795000Y-115843700D03*
D11*
X133335000Y-110763700D03*
D10*
X135875000Y-115843700D03*
X332740000Y-134893700D03*
D11*
X334010000Y-132353700D03*
D12*
X337820000Y-134893700D03*
D11*
X340360000Y-129813700D03*
D10*
X342900000Y-134893700D03*
D14*
X363870000Y-132518700D03*
D12*
X348630000Y-132518700D03*
D15*
X356870000Y-139338700D03*
D11*
X359410000Y-140608700D03*
D12*
X356870000Y-144418700D03*
D11*
X361950000Y-146958700D03*
D15*
X356870000Y-149498700D03*
D14*
X363870000Y-156318700D03*
D12*
X348630000Y-156318700D03*
D10*
X256540000Y-134893700D03*
D11*
X257810000Y-132353700D03*
D12*
X261620000Y-134893700D03*
D11*
X264160000Y-129813700D03*
D10*
X266700000Y-134893700D03*
D13*
X364331300Y-100012500D03*
D10*
X163815000Y-172993700D03*
D11*
X165085000Y-170453700D03*
D12*
X168895000Y-172993700D03*
D11*
X171435000Y-167913700D03*
D10*
X173975000Y-172993700D03*
X313690000Y-115843700D03*
D11*
X314960000Y-113303700D03*
D12*
X318770000Y-115843700D03*
D11*
X321310000Y-110763700D03*
D10*
X323850000Y-115843700D03*
X256540000Y-172993700D03*
D11*
X257810000Y-170453700D03*
D12*
X261620000Y-172993700D03*
D11*
X264160000Y-167913700D03*
D10*
X266700000Y-172993700D03*
X68565000Y-115843700D03*
D11*
X69835000Y-113303700D03*
D12*
X73645000Y-115843700D03*
D11*
X76185000Y-110763700D03*
D10*
X78725000Y-115843700D03*
X275590000Y-134893700D03*
D11*
X276860000Y-132353700D03*
D12*
X280670000Y-134893700D03*
D11*
X283210000Y-129813700D03*
D10*
X285750000Y-134893700D03*
X49515000Y-134893700D03*
D11*
X50785000Y-132353700D03*
D12*
X54595000Y-134893700D03*
D11*
X57135000Y-129813700D03*
D10*
X59675000Y-134893700D03*
X68565000Y-134893700D03*
D11*
X69835000Y-132353700D03*
D12*
X73645000Y-134893700D03*
D11*
X76185000Y-129813700D03*
D10*
X78725000Y-134893700D03*
X144765000Y-115843700D03*
D11*
X146035000Y-113303700D03*
D12*
X149845000Y-115843700D03*
D11*
X152385000Y-110763700D03*
D10*
X154925000Y-115843700D03*
X144765000Y-134893700D03*
D11*
X146035000Y-132353700D03*
D12*
X149845000Y-134893700D03*
D11*
X152385000Y-129813700D03*
D10*
X154925000Y-134893700D03*
X332740000Y-153943700D03*
D11*
X334010000Y-151403700D03*
D12*
X337820000Y-153943700D03*
D11*
X340360000Y-148863700D03*
D10*
X342900000Y-153943700D03*
D13*
X171450000Y-114300000D03*
D10*
X106665000Y-134893700D03*
D11*
X107935000Y-132353700D03*
D12*
X111745000Y-134893700D03*
D11*
X114285000Y-129813700D03*
D10*
X116825000Y-134893700D03*
X144765000Y-153943700D03*
D11*
X146035000Y-151403700D03*
D12*
X149845000Y-153943700D03*
D11*
X152385000Y-148863700D03*
D10*
X154925000Y-153943700D03*
D13*
X240506300Y-114300000D03*
D10*
X144765000Y-172993700D03*
D11*
X146035000Y-170453700D03*
D12*
X149845000Y-172993700D03*
D11*
X152385000Y-167913700D03*
D10*
X154925000Y-172993700D03*
X210245000Y-168231200D03*
X203745000Y-168231200D03*
X351790000Y-115843700D03*
D11*
X353060000Y-113303700D03*
D12*
X356870000Y-115843700D03*
D11*
X359410000Y-110763700D03*
D10*
X361950000Y-115843700D03*
X313690000Y-153943700D03*
D11*
X314960000Y-151403700D03*
D12*
X318770000Y-153943700D03*
D11*
X321310000Y-148863700D03*
D10*
X323850000Y-153943700D03*
X313690000Y-134893700D03*
D11*
X314960000Y-132353700D03*
D12*
X318770000Y-134893700D03*
D11*
X321310000Y-129813700D03*
D10*
X323850000Y-134893700D03*
D16*
X252238800Y-163122400D03*
D17*
X252238800Y-161087400D03*
X252238800Y-157537400D03*
D18*
X252238800Y-155502400D03*
D16*
X290338800Y-163122400D03*
D17*
X290338800Y-161087400D03*
X290338800Y-157537400D03*
D18*
X290338800Y-155502400D03*
D16*
X83170000Y-163122400D03*
D17*
X83170000Y-161087400D03*
X83170000Y-157537400D03*
D18*
X83170000Y-155502400D03*
D16*
X271288800Y-125022400D03*
D17*
X271288800Y-122987400D03*
X271288800Y-119437400D03*
D18*
X271288800Y-117402400D03*
D16*
X64120000Y-144072400D03*
D17*
X64120000Y-142037400D03*
X64120000Y-138487400D03*
D18*
X64120000Y-136452400D03*
D16*
X328438800Y-125022400D03*
D17*
X328438800Y-122987400D03*
X328438800Y-119437400D03*
D18*
X328438800Y-117402400D03*
D16*
X140320000Y-144072400D03*
D17*
X140320000Y-142037400D03*
X140320000Y-138487400D03*
D18*
X140320000Y-136452400D03*
D16*
X121270000Y-163122400D03*
D17*
X121270000Y-161087400D03*
X121270000Y-157537400D03*
D18*
X121270000Y-155502400D03*
D16*
X140320000Y-163122400D03*
D17*
X140320000Y-161087400D03*
X140320000Y-157537400D03*
D18*
X140320000Y-155502400D03*
D16*
X271288800Y-163122400D03*
D17*
X271288800Y-161087400D03*
X271288800Y-157537400D03*
D18*
X271288800Y-155502400D03*
D16*
X64120000Y-163122400D03*
D17*
X64120000Y-161087400D03*
X64120000Y-157537400D03*
D18*
X64120000Y-155502400D03*
D16*
X121270000Y-182172400D03*
D17*
X121270000Y-180137400D03*
X121270000Y-176587400D03*
D18*
X121270000Y-174552400D03*
D16*
X140320000Y-182172400D03*
D17*
X140320000Y-180137400D03*
X140320000Y-176587400D03*
D18*
X140320000Y-174552400D03*
D16*
X83170000Y-144072400D03*
D17*
X83170000Y-142037400D03*
X83170000Y-138487400D03*
D18*
X83170000Y-136452400D03*
D16*
X309388800Y-163122400D03*
D17*
X309388800Y-161087400D03*
X309388800Y-157537400D03*
D18*
X309388800Y-155502400D03*
D16*
X271288800Y-144072400D03*
D17*
X271288800Y-142037400D03*
X271288800Y-138487400D03*
D18*
X271288800Y-136452400D03*
D16*
X45070000Y-144072400D03*
D17*
X45070000Y-142037400D03*
X45070000Y-138487400D03*
D18*
X45070000Y-136452400D03*
D16*
X121270000Y-125022400D03*
D17*
X121270000Y-122987400D03*
X121270000Y-119437400D03*
D18*
X121270000Y-117402400D03*
D16*
X252238800Y-182172400D03*
D17*
X252238800Y-180137400D03*
X252238800Y-176587400D03*
D18*
X252238800Y-174552400D03*
D16*
X290338800Y-144072400D03*
D17*
X290338800Y-142037400D03*
X290338800Y-138487400D03*
D18*
X290338800Y-136452400D03*
D16*
X252238800Y-144072400D03*
D17*
X252238800Y-142037400D03*
X252238800Y-138487400D03*
D18*
X252238800Y-136452400D03*
D16*
X328438800Y-163122400D03*
D17*
X328438800Y-161087400D03*
X328438800Y-157537400D03*
D18*
X328438800Y-155502400D03*
D16*
X102220000Y-144072400D03*
D17*
X102220000Y-142037400D03*
X102220000Y-138487400D03*
D18*
X102220000Y-136452400D03*
D16*
X45070000Y-125022400D03*
D17*
X45070000Y-122987400D03*
X45070000Y-119437400D03*
D18*
X45070000Y-117402400D03*
D16*
X140320000Y-125022400D03*
D17*
X140320000Y-122987400D03*
X140320000Y-119437400D03*
D18*
X140320000Y-117402400D03*
D16*
X347488800Y-144072400D03*
D17*
X347488800Y-142037400D03*
X347488800Y-138487400D03*
D18*
X347488800Y-136452400D03*
D16*
X271288800Y-182172400D03*
D17*
X271288800Y-180137400D03*
X271288800Y-176587400D03*
D18*
X271288800Y-174552400D03*
D16*
X328438800Y-144072400D03*
D17*
X328438800Y-142037400D03*
X328438800Y-138487400D03*
D18*
X328438800Y-136452400D03*
D16*
X102220000Y-125022400D03*
D17*
X102220000Y-122987400D03*
X102220000Y-119437400D03*
D18*
X102220000Y-117402400D03*
D16*
X252238800Y-125022400D03*
D17*
X252238800Y-122987400D03*
X252238800Y-119437400D03*
D18*
X252238800Y-117402400D03*
D16*
X64120000Y-125022400D03*
D17*
X64120000Y-122987400D03*
X64120000Y-119437400D03*
D18*
X64120000Y-117402400D03*
D16*
X290338800Y-125022400D03*
D17*
X290338800Y-122987400D03*
X290338800Y-119437400D03*
D18*
X290338800Y-117402400D03*
D16*
X233188800Y-182172400D03*
D17*
X233188800Y-180137400D03*
X233188800Y-176587400D03*
D18*
X233188800Y-174552400D03*
D16*
X45070000Y-163122400D03*
D17*
X45070000Y-161087400D03*
X45070000Y-157537400D03*
D18*
X45070000Y-155502400D03*
D16*
X347488800Y-125022400D03*
D17*
X347488800Y-122987400D03*
X347488800Y-119437400D03*
D18*
X347488800Y-117402400D03*
D16*
X159370000Y-182172400D03*
D17*
X159370000Y-180137400D03*
X159370000Y-176587400D03*
D18*
X159370000Y-174552400D03*
D16*
X102220000Y-163122400D03*
D17*
X102220000Y-161087400D03*
X102220000Y-157537400D03*
D18*
X102220000Y-155502400D03*
D19*
X209720000Y-106131200D03*
D20*
X209420000Y-109161200D03*
X204570000Y-109161200D03*
D19*
X204270000Y-106131200D03*
D21*
X215885000Y-106001200D03*
X215885000Y-108541200D03*
D22*
X215885000Y-111081200D03*
D21*
X215885000Y-113621200D03*
X215885000Y-116161200D03*
X215885000Y-118701200D03*
X215885000Y-121241200D03*
D22*
X215885000Y-123781200D03*
D21*
X215885000Y-126321200D03*
X215885000Y-128861200D03*
X215885000Y-131401200D03*
X215885000Y-133941200D03*
D22*
X215885000Y-136481200D03*
D21*
X215885000Y-139021200D03*
X215885000Y-141561200D03*
X215885000Y-144101200D03*
X215885000Y-146641200D03*
D22*
X215885000Y-149181200D03*
D21*
X215885000Y-151721200D03*
X215885000Y-154261200D03*
X198105000Y-154261200D03*
X198105000Y-151721200D03*
D22*
X198105000Y-149181200D03*
D21*
X198105000Y-146641200D03*
X198105000Y-144101200D03*
X198105000Y-141561200D03*
X198105000Y-139021200D03*
D22*
X198105000Y-136481200D03*
D21*
X198105000Y-133941200D03*
X198105000Y-131401200D03*
X198105000Y-128861200D03*
X198105000Y-126321200D03*
D22*
X198105000Y-123781200D03*
D21*
X198105000Y-121241200D03*
X198105000Y-118701200D03*
X198105000Y-116161200D03*
X198105000Y-113621200D03*
D22*
X198105000Y-111081200D03*
D21*
X198105000Y-108541200D03*
X198105000Y-106001200D03*
X209535000Y-154031200D03*
D22*
X206995000Y-154031200D03*
D21*
X204455000Y-154031200D03*
D16*
X309388800Y-144072400D03*
D17*
X309388800Y-142037400D03*
X309388800Y-138487400D03*
D18*
X309388800Y-136452400D03*
D16*
X121270000Y-144072400D03*
D17*
X121270000Y-142037400D03*
X121270000Y-138487400D03*
D18*
X121270000Y-136452400D03*
D16*
X83170000Y-125022400D03*
D17*
X83170000Y-122987400D03*
X83170000Y-119437400D03*
D18*
X83170000Y-117402400D03*
D16*
X309388800Y-125022400D03*
D17*
X309388800Y-122987400D03*
X309388800Y-119437400D03*
D18*
X309388800Y-117402400D03*
M02*
