M48
; DRILL file {KiCad 7.0.10} date Sun Apr  7 15:44:25 2024
; FORMAT={-:-/ absolute / metric / decimal}
; #@! TF.CreationDate,2024-04-07T15:44:25+09:00
; #@! TF.GenerationSoftware,Kicad,Pcbnew,7.0.10
; #@! TF.FileFunction,NonPlated,1,2,NPTH
FMAT,2
METRIC
; #@! TA.AperFunction,NonPlated,NPTH,ComponentDrill
T1C1.500
; #@! TA.AperFunction,NonPlated,NPTH,ComponentDrill
T2C1.800
; #@! TA.AperFunction,NonPlated,NPTH,ComponentDrill
T3C2.000
; #@! TA.AperFunction,NonPlated,NPTH,ComponentDrill
T4C3.000
; #@! TA.AperFunction,NonPlated,NPTH,ComponentDrill
T5C3.050
; #@! TA.AperFunction,NonPlated,NPTH,ComponentDrill
T6C4.000
; #@! TA.AperFunction,NonPlated,NPTH,ComponentDrill
T7C6.500
%
G90
G05
T1
X204.57Y-109.161
X209.42Y-109.161
T2
X204.27Y-106.131
X209.72Y-106.131
X356.87Y-139.339
X356.87Y-149.499
T3
X49.515Y-115.844
X49.515Y-134.894
X49.515Y-153.944
X59.675Y-115.844
X59.675Y-134.894
X59.675Y-153.944
X68.565Y-115.844
X68.565Y-134.894
X68.565Y-153.944
X78.725Y-115.844
X78.725Y-134.894
X78.725Y-153.944
X87.615Y-115.844
X87.615Y-134.894
X87.615Y-153.944
X97.775Y-115.844
X97.775Y-134.894
X97.775Y-153.944
X106.665Y-115.844
X106.665Y-134.894
X106.665Y-153.944
X116.825Y-115.844
X116.825Y-134.894
X116.825Y-153.944
X125.715Y-115.844
X125.715Y-134.894
X125.715Y-153.944
X125.715Y-172.994
X135.875Y-115.844
X135.875Y-134.894
X135.875Y-153.944
X135.875Y-172.994
X144.765Y-115.844
X144.765Y-134.894
X144.765Y-153.944
X144.765Y-172.994
X154.925Y-115.844
X154.925Y-134.894
X154.925Y-153.944
X154.925Y-172.994
X163.815Y-172.994
X173.975Y-172.994
X237.49Y-172.994
X247.65Y-172.994
X256.54Y-115.844
X256.54Y-134.894
X256.54Y-153.944
X256.54Y-172.994
X266.7Y-115.844
X266.7Y-134.894
X266.7Y-153.944
X266.7Y-172.994
X275.59Y-115.844
X275.59Y-134.894
X275.59Y-153.944
X275.59Y-172.994
X285.75Y-115.844
X285.75Y-134.894
X285.75Y-153.944
X285.75Y-172.994
X294.64Y-115.844
X294.64Y-134.894
X294.64Y-153.944
X304.8Y-115.844
X304.8Y-134.894
X304.8Y-153.944
X313.69Y-115.844
X313.69Y-134.894
X313.69Y-153.944
X323.85Y-115.844
X323.85Y-134.894
X323.85Y-153.944
X332.74Y-115.844
X332.74Y-134.894
X332.74Y-153.944
X342.9Y-115.844
X342.9Y-134.894
X342.9Y-153.944
X351.79Y-115.844
X361.95Y-115.844
T4
X50.785Y-113.304
X50.785Y-132.354
X50.785Y-151.404
X57.135Y-110.764
X57.135Y-129.814
X57.135Y-148.864
X69.835Y-113.304
X69.835Y-132.354
X69.835Y-151.404
X76.185Y-110.764
X76.185Y-129.814
X76.185Y-148.864
X88.885Y-113.304
X88.885Y-132.354
X88.885Y-151.404
X95.235Y-110.764
X95.235Y-129.814
X95.235Y-148.864
X107.935Y-113.304
X107.935Y-132.354
X107.935Y-151.404
X114.285Y-110.764
X114.285Y-129.814
X114.285Y-148.864
X126.985Y-113.304
X126.985Y-132.354
X126.985Y-151.404
X126.985Y-170.454
X133.335Y-110.764
X133.335Y-129.814
X133.335Y-148.864
X133.335Y-167.914
X146.035Y-113.304
X146.035Y-132.354
X146.035Y-151.404
X146.035Y-170.454
X152.385Y-110.764
X152.385Y-129.814
X152.385Y-148.864
X152.385Y-167.914
X165.085Y-170.454
X171.435Y-167.914
X238.76Y-170.454
X245.11Y-167.914
X257.81Y-113.304
X257.81Y-132.354
X257.81Y-151.404
X257.81Y-170.454
X264.16Y-110.764
X264.16Y-129.814
X264.16Y-148.864
X264.16Y-167.914
X276.86Y-113.304
X276.86Y-132.354
X276.86Y-151.404
X276.86Y-170.454
X283.21Y-110.764
X283.21Y-129.814
X283.21Y-148.864
X283.21Y-167.914
X295.91Y-113.304
X295.91Y-132.354
X295.91Y-151.404
X302.26Y-110.764
X302.26Y-129.814
X302.26Y-148.864
X314.96Y-113.304
X314.96Y-132.354
X314.96Y-151.404
X321.31Y-110.764
X321.31Y-129.814
X321.31Y-148.864
X334.01Y-113.304
X334.01Y-132.354
X334.01Y-151.404
X340.36Y-110.764
X340.36Y-129.814
X340.36Y-148.864
X353.06Y-113.304
X359.41Y-110.764
X359.41Y-140.609
X361.95Y-146.959
T5
X363.87Y-132.519
X363.87Y-156.319
T6
X54.595Y-115.844
X54.595Y-134.894
X54.595Y-153.944
X73.645Y-115.844
X73.645Y-134.894
X73.645Y-153.944
X92.695Y-115.844
X92.695Y-134.894
X92.695Y-153.944
X111.745Y-115.844
X111.745Y-134.894
X111.745Y-153.944
X130.795Y-115.844
X130.795Y-134.894
X130.795Y-153.944
X130.795Y-172.994
X149.845Y-115.844
X149.845Y-134.894
X149.845Y-153.944
X149.845Y-172.994
X168.895Y-172.994
X242.57Y-172.994
X261.62Y-115.844
X261.62Y-134.894
X261.62Y-153.944
X261.62Y-172.994
X280.67Y-115.844
X280.67Y-134.894
X280.67Y-153.944
X280.67Y-172.994
X299.72Y-115.844
X299.72Y-134.894
X299.72Y-153.944
X318.77Y-115.844
X318.77Y-134.894
X318.77Y-153.944
X337.82Y-115.844
X337.82Y-134.894
X337.82Y-153.944
X348.63Y-132.519
X348.63Y-156.319
X356.87Y-115.844
X356.87Y-144.419
T7
X47.625Y-100.012
X102.394Y-173.831
X171.45Y-114.3
X240.506Y-114.3
X309.562Y-173.831
X364.331Y-100.012
M30
