G04 #@! TF.GenerationSoftware,KiCad,Pcbnew,7.0.10*
G04 #@! TF.CreationDate,2024-04-07T15:44:14+09:00*
G04 #@! TF.ProjectId,first_keyboard,66697273-745f-46b6-9579-626f6172642e,rev?*
G04 #@! TF.SameCoordinates,Original*
G04 #@! TF.FileFunction,Copper,L2,Bot*
G04 #@! TF.FilePolarity,Positive*
%FSLAX46Y46*%
G04 Gerber Fmt 4.6, Leading zero omitted, Abs format (unit mm)*
G04 Created by KiCad (PCBNEW 7.0.10) date 2024-04-07 15:44:14*
%MOMM*%
%LPD*%
G01*
G04 APERTURE LIST*
G04 #@! TA.AperFunction,SMDPad,CuDef*
%ADD10R,3.300000X3.000000*%
G04 #@! TD*
G04 #@! TA.AperFunction,SMDPad,CuDef*
%ADD11R,3.000000X3.300000*%
G04 #@! TD*
G04 #@! TA.AperFunction,ComponentPad*
%ADD12C,2.000000*%
G04 #@! TD*
G04 #@! TA.AperFunction,ComponentPad*
%ADD13R,1.397000X1.397000*%
G04 #@! TD*
G04 #@! TA.AperFunction,ComponentPad*
%ADD14C,1.397000*%
G04 #@! TD*
G04 #@! TA.AperFunction,ComponentPad*
%ADD15O,1.700000X1.700000*%
G04 #@! TD*
G04 #@! TA.AperFunction,SMDPad,CuDef*
%ADD16R,3.500000X1.700000*%
G04 #@! TD*
G04 #@! TA.AperFunction,ComponentPad*
%ADD17R,1.700000X1.700000*%
G04 #@! TD*
G04 #@! TA.AperFunction,SMDPad,CuDef*
%ADD18R,1.700000X3.500000*%
G04 #@! TD*
G04 #@! TA.AperFunction,ViaPad*
%ADD19C,0.800000*%
G04 #@! TD*
G04 #@! TA.AperFunction,Conductor*
%ADD20C,0.500000*%
G04 #@! TD*
G04 APERTURE END LIST*
D10*
X254170000Y-113263700D03*
X267770000Y-110723700D03*
X330370000Y-113263700D03*
X343970000Y-110723700D03*
X104295000Y-151363700D03*
X117895000Y-148823700D03*
X273220000Y-113263700D03*
X286820000Y-110723700D03*
X47145000Y-151363700D03*
X60745000Y-148823700D03*
X85245000Y-151363700D03*
X98845000Y-148823700D03*
X104295000Y-113263700D03*
X117895000Y-110723700D03*
X47145000Y-113263700D03*
X60745000Y-110723700D03*
X235120000Y-170413700D03*
X248720000Y-167873700D03*
X123345000Y-170413700D03*
X136945000Y-167873700D03*
X292270000Y-132313700D03*
X305870000Y-129773700D03*
X273220000Y-151363700D03*
X286820000Y-148823700D03*
X85245000Y-113263700D03*
X98845000Y-110723700D03*
X66195000Y-151363700D03*
X79795000Y-148823700D03*
X273220000Y-170413700D03*
X286820000Y-167873700D03*
X85245000Y-132313700D03*
X98845000Y-129773700D03*
X123345000Y-132313700D03*
X136945000Y-129773700D03*
X254170000Y-151363700D03*
X267770000Y-148823700D03*
X123345000Y-151363700D03*
X136945000Y-148823700D03*
X292270000Y-113263700D03*
X305870000Y-110723700D03*
X292270000Y-151363700D03*
X305870000Y-148823700D03*
X123345000Y-113263700D03*
X136945000Y-110723700D03*
X330370000Y-132313700D03*
X343970000Y-129773700D03*
D11*
X359410000Y-137018700D03*
X361950000Y-150518700D03*
D10*
X254170000Y-132313700D03*
X267770000Y-129773700D03*
X161445000Y-170413700D03*
X175045000Y-167873700D03*
X311320000Y-113263700D03*
X324920000Y-110723700D03*
X254170000Y-170413700D03*
X267770000Y-167873700D03*
X66195000Y-113263700D03*
X79795000Y-110723700D03*
X273220000Y-132313700D03*
X286820000Y-129773700D03*
X47145000Y-132313700D03*
X60745000Y-129773700D03*
X66195000Y-132313700D03*
X79795000Y-129773700D03*
X142395000Y-113263700D03*
X155995000Y-110723700D03*
X142395000Y-132313700D03*
X155995000Y-129773700D03*
X330370000Y-151363700D03*
X343970000Y-148823700D03*
X104295000Y-132313700D03*
X117895000Y-129773700D03*
X142395000Y-151363700D03*
X155995000Y-148823700D03*
X142395000Y-170413700D03*
X155995000Y-167873700D03*
D12*
X210245000Y-168231200D03*
X203745000Y-168231200D03*
D10*
X349420000Y-113263700D03*
X363020000Y-110723700D03*
X311320000Y-151363700D03*
X324920000Y-148823700D03*
X311320000Y-132313700D03*
X324920000Y-129773700D03*
D13*
X252238800Y-163122400D03*
D14*
X252238800Y-155502400D03*
D13*
X290338800Y-163122400D03*
D14*
X290338800Y-155502400D03*
D13*
X83170000Y-163122400D03*
D14*
X83170000Y-155502400D03*
D13*
X271288800Y-125022400D03*
D14*
X271288800Y-117402400D03*
D13*
X64120000Y-144072400D03*
D14*
X64120000Y-136452400D03*
D13*
X328438800Y-125022400D03*
D14*
X328438800Y-117402400D03*
D13*
X140320000Y-144072400D03*
D14*
X140320000Y-136452400D03*
D13*
X121270000Y-163122400D03*
D14*
X121270000Y-155502400D03*
D13*
X140320000Y-163122400D03*
D14*
X140320000Y-155502400D03*
D13*
X271288800Y-163122400D03*
D14*
X271288800Y-155502400D03*
D13*
X64120000Y-163122400D03*
D14*
X64120000Y-155502400D03*
D13*
X121270000Y-182172400D03*
D14*
X121270000Y-174552400D03*
D13*
X140320000Y-182172400D03*
D14*
X140320000Y-174552400D03*
D13*
X83170000Y-144072400D03*
D14*
X83170000Y-136452400D03*
D13*
X309388800Y-163122400D03*
D14*
X309388800Y-155502400D03*
D13*
X271288800Y-144072400D03*
D14*
X271288800Y-136452400D03*
D13*
X45070000Y-144072400D03*
D14*
X45070000Y-136452400D03*
D13*
X121270000Y-125022400D03*
D14*
X121270000Y-117402400D03*
D13*
X252238800Y-182172400D03*
D14*
X252238800Y-174552400D03*
D13*
X290338800Y-144072400D03*
D14*
X290338800Y-136452400D03*
D13*
X252238800Y-144072400D03*
D14*
X252238800Y-136452400D03*
D13*
X328438800Y-163122400D03*
D14*
X328438800Y-155502400D03*
D13*
X102220000Y-144072400D03*
D14*
X102220000Y-136452400D03*
D13*
X45070000Y-125022400D03*
D14*
X45070000Y-117402400D03*
D13*
X140320000Y-125022400D03*
D14*
X140320000Y-117402400D03*
D13*
X347488800Y-144072400D03*
D14*
X347488800Y-136452400D03*
D13*
X271288800Y-182172400D03*
D14*
X271288800Y-174552400D03*
D13*
X328438800Y-144072400D03*
D14*
X328438800Y-136452400D03*
D13*
X102220000Y-125022400D03*
D14*
X102220000Y-117402400D03*
D13*
X252238800Y-125022400D03*
D14*
X252238800Y-117402400D03*
D13*
X64120000Y-125022400D03*
D14*
X64120000Y-117402400D03*
D13*
X290338800Y-125022400D03*
D14*
X290338800Y-117402400D03*
D13*
X233188800Y-182172400D03*
D14*
X233188800Y-174552400D03*
D13*
X45070000Y-163122400D03*
D14*
X45070000Y-155502400D03*
D13*
X347488800Y-125022400D03*
D14*
X347488800Y-117402400D03*
D13*
X159370000Y-182172400D03*
D14*
X159370000Y-174552400D03*
D13*
X102220000Y-163122400D03*
D14*
X102220000Y-155502400D03*
D15*
X215885000Y-106001200D03*
D16*
X216785000Y-106001200D03*
D15*
X215885000Y-108541200D03*
D16*
X216785000Y-108541200D03*
D17*
X215885000Y-111081200D03*
D16*
X216785000Y-111081200D03*
D15*
X215885000Y-113621200D03*
D16*
X216785000Y-113621200D03*
D15*
X215885000Y-116161200D03*
D16*
X216785000Y-116161200D03*
D15*
X215885000Y-118701200D03*
D16*
X216785000Y-118701200D03*
D15*
X215885000Y-121241200D03*
D16*
X216785000Y-121241200D03*
D17*
X215885000Y-123781200D03*
D16*
X216785000Y-123781200D03*
D15*
X215885000Y-126321200D03*
D16*
X216785000Y-126321200D03*
D15*
X215885000Y-128861200D03*
D16*
X216785000Y-128861200D03*
D15*
X215885000Y-131401200D03*
D16*
X216785000Y-131401200D03*
D15*
X215885000Y-133941200D03*
D16*
X216785000Y-133941200D03*
D17*
X215885000Y-136481200D03*
D16*
X216785000Y-136481200D03*
D15*
X215885000Y-139021200D03*
D16*
X216785000Y-139021200D03*
D15*
X215885000Y-141561200D03*
D16*
X216785000Y-141561200D03*
D15*
X215885000Y-144101200D03*
D16*
X216785000Y-144101200D03*
D15*
X215885000Y-146641200D03*
D16*
X216785000Y-146641200D03*
D17*
X215885000Y-149181200D03*
D16*
X216785000Y-149181200D03*
D15*
X215885000Y-151721200D03*
D16*
X216785000Y-151721200D03*
D15*
X215885000Y-154261200D03*
D16*
X216785000Y-154261200D03*
D15*
X198105000Y-154261200D03*
D16*
X197205000Y-154261200D03*
D15*
X198105000Y-151721200D03*
D16*
X197205000Y-151721200D03*
D17*
X198105000Y-149181200D03*
D16*
X197205000Y-149181200D03*
D15*
X198105000Y-146641200D03*
D16*
X197205000Y-146641200D03*
D15*
X198105000Y-144101200D03*
D16*
X197205000Y-144101200D03*
D15*
X198105000Y-141561200D03*
D16*
X197205000Y-141561200D03*
D15*
X198105000Y-139021200D03*
D16*
X197205000Y-139021200D03*
D17*
X198105000Y-136481200D03*
D16*
X197205000Y-136481200D03*
D15*
X198105000Y-133941200D03*
D16*
X197205000Y-133941200D03*
D15*
X198105000Y-131401200D03*
D16*
X197205000Y-131401200D03*
D15*
X198105000Y-128861200D03*
D16*
X197205000Y-128861200D03*
D15*
X198105000Y-126321200D03*
D16*
X197205000Y-126321200D03*
D17*
X198105000Y-123781200D03*
D16*
X197205000Y-123781200D03*
D15*
X198105000Y-121241200D03*
D16*
X197205000Y-121241200D03*
D15*
X198105000Y-118701200D03*
D16*
X197205000Y-118701200D03*
D15*
X198105000Y-116161200D03*
D16*
X197205000Y-116161200D03*
D15*
X198105000Y-113621200D03*
D16*
X197205000Y-113621200D03*
D17*
X198105000Y-111081200D03*
D16*
X197205000Y-111081200D03*
D15*
X198105000Y-108541200D03*
D16*
X197205000Y-108541200D03*
D15*
X198105000Y-106001200D03*
D16*
X197205000Y-106001200D03*
D15*
X209535000Y-154031200D03*
D18*
X209535000Y-154931200D03*
D17*
X206995000Y-154031200D03*
D18*
X206995000Y-154931200D03*
D15*
X204455000Y-154031200D03*
D18*
X204455000Y-154931200D03*
D13*
X309388800Y-144072400D03*
D14*
X309388800Y-136452400D03*
D13*
X121270000Y-144072400D03*
D14*
X121270000Y-136452400D03*
D13*
X83170000Y-125022400D03*
D14*
X83170000Y-117402400D03*
D13*
X309388800Y-125022400D03*
D14*
X309388800Y-117402400D03*
D19*
X217500800Y-155750200D03*
X217949600Y-162367800D03*
X197120600Y-156233100D03*
X286369900Y-131906600D03*
X48260100Y-145919500D03*
X67703700Y-146798700D03*
X105950800Y-163117200D03*
X127883900Y-164372900D03*
X156513400Y-163709400D03*
X207839400Y-148976800D03*
X178046600Y-162345300D03*
X212722400Y-146283100D03*
X251075600Y-142158100D03*
X274864500Y-139197500D03*
X308223400Y-126888300D03*
X323282300Y-121840100D03*
X344543300Y-118737900D03*
D20*
X46215800Y-118548200D02*
X55724500Y-118548200D01*
X55724500Y-118548200D02*
X57387300Y-116885400D01*
X45070000Y-117402400D02*
X46215800Y-118548200D01*
X57387300Y-116885400D02*
X57387300Y-113631400D01*
X57387300Y-113631400D02*
X60295000Y-110723700D01*
X212624600Y-125803500D02*
X212624600Y-106886300D01*
X212624600Y-106886300D02*
X214811600Y-104699300D01*
X221833800Y-104699300D02*
X242156900Y-125022400D01*
X199406900Y-139021200D02*
X212624600Y-125803500D01*
X214811600Y-104699300D02*
X221833800Y-104699300D01*
X198105000Y-139021200D02*
X199406900Y-139021200D01*
X242156900Y-125022400D02*
X252238800Y-125022400D01*
X57387300Y-135935400D02*
X57387300Y-132681400D01*
X57387300Y-132681400D02*
X60295000Y-129773700D01*
X46215800Y-137598200D02*
X55724500Y-137598200D01*
X55724500Y-137598200D02*
X57387300Y-135935400D01*
X45070000Y-136452400D02*
X46215800Y-137598200D01*
X209173700Y-149962900D02*
X214961000Y-155750200D01*
X198105000Y-141561200D02*
X199406900Y-141561200D01*
X207620800Y-149962900D02*
X209173700Y-149962900D01*
X214961000Y-155750200D02*
X217500800Y-155750200D01*
X199406900Y-141561200D02*
X199406900Y-141749000D01*
X199406900Y-141749000D02*
X207620800Y-149962900D01*
X57387300Y-155018400D02*
X57387300Y-151731400D01*
X55689400Y-156716300D02*
X57387300Y-155018400D01*
X57387300Y-151731400D02*
X60295000Y-148823700D01*
X45070000Y-155502400D02*
X46283900Y-156716300D01*
X46283900Y-156716300D02*
X55689400Y-156716300D01*
X199406900Y-144101200D02*
X199406900Y-156233100D01*
X205541600Y-162367800D02*
X217949600Y-162367800D01*
X199406900Y-156233100D02*
X197120600Y-156233100D01*
X198105000Y-144101200D02*
X199406900Y-144101200D01*
X199406900Y-156233100D02*
X205541600Y-162367800D01*
X64120000Y-117402400D02*
X65265800Y-118548200D01*
X76437300Y-116885400D02*
X76437300Y-113631400D01*
X65265800Y-118548200D02*
X74774500Y-118548200D01*
X76437300Y-113631400D02*
X79345000Y-110723700D01*
X74774500Y-118548200D02*
X76437300Y-116885400D01*
X211714300Y-179126300D02*
X163566500Y-179126300D01*
X233188800Y-182172400D02*
X232038400Y-182172400D01*
X195003100Y-146641200D02*
X195003100Y-155341800D01*
X228992300Y-179126300D02*
X211714300Y-179126300D01*
X163566500Y-179126300D02*
X160520400Y-182172400D01*
X207588200Y-163472200D02*
X211714300Y-167598300D01*
X198105000Y-146641200D02*
X195003100Y-146641200D01*
X159370000Y-182172400D02*
X160520400Y-182172400D01*
X232038400Y-182172400D02*
X228992300Y-179126300D01*
X211714300Y-167598300D02*
X211714300Y-179126300D01*
X195003100Y-155341800D02*
X203133500Y-163472200D01*
X203133500Y-163472200D02*
X207588200Y-163472200D01*
X65265800Y-137598200D02*
X74774500Y-137598200D01*
X74774500Y-137598200D02*
X76437300Y-135935400D01*
X76437300Y-132681400D02*
X79345000Y-129773700D01*
X76437300Y-135935400D02*
X76437300Y-132681400D01*
X64120000Y-136452400D02*
X65265800Y-137598200D01*
X76437300Y-155018400D02*
X76437300Y-151731400D01*
X64120000Y-155502400D02*
X65333900Y-156716300D01*
X76437300Y-151731400D02*
X79345000Y-148823700D01*
X74739400Y-156716300D02*
X76437300Y-155018400D01*
X65333900Y-156716300D02*
X74739400Y-156716300D01*
X95487300Y-113631400D02*
X98395000Y-110723700D01*
X95487300Y-116885400D02*
X95487300Y-113631400D01*
X83170000Y-117402400D02*
X84315800Y-118548200D01*
X84315800Y-118548200D02*
X93824500Y-118548200D01*
X93824500Y-118548200D02*
X95487300Y-116885400D01*
X95487300Y-132681400D02*
X95487300Y-135935400D01*
X84315800Y-137598200D02*
X83170000Y-136452400D01*
X93824500Y-137598200D02*
X84315800Y-137598200D01*
X95487300Y-135935400D02*
X93824500Y-137598200D01*
X98395000Y-129773700D02*
X95487300Y-132681400D01*
X84355900Y-156688300D02*
X93808500Y-156688300D01*
X95487300Y-151731400D02*
X98395000Y-148823700D01*
X83170000Y-155502400D02*
X84355900Y-156688300D01*
X93808500Y-156688300D02*
X95487300Y-155009500D01*
X95487300Y-155009500D02*
X95487300Y-151731400D01*
X102220000Y-117402400D02*
X103365800Y-118548200D01*
X114537300Y-113631400D02*
X117445000Y-110723700D01*
X114537300Y-116885400D02*
X114537300Y-113631400D01*
X103365800Y-118548200D02*
X112874500Y-118548200D01*
X112874500Y-118548200D02*
X114537300Y-116885400D01*
X114537300Y-132681400D02*
X117445000Y-129773700D01*
X102220000Y-136452400D02*
X103365800Y-137598200D01*
X114537300Y-135935400D02*
X114537300Y-132681400D01*
X112874500Y-137598200D02*
X114537300Y-135935400D01*
X103365800Y-137598200D02*
X112874500Y-137598200D01*
X102220000Y-155502400D02*
X103366300Y-156648700D01*
X114537300Y-154985600D02*
X114537300Y-151731400D01*
X112874200Y-156648700D02*
X114537300Y-154985600D01*
X103366300Y-156648700D02*
X112874200Y-156648700D01*
X114537300Y-151731400D02*
X117445000Y-148823700D01*
X122447700Y-175730100D02*
X131889700Y-175730100D01*
X131889700Y-175730100D02*
X133587300Y-174032500D01*
X133587300Y-174032500D02*
X133587300Y-170781400D01*
X133587300Y-170781400D02*
X136495000Y-167873700D01*
X121270000Y-174552400D02*
X122447700Y-175730100D01*
X133587300Y-113631400D02*
X136495000Y-110723700D01*
X131924500Y-118548200D02*
X133587300Y-116885400D01*
X133587300Y-116885400D02*
X133587300Y-113631400D01*
X122415800Y-118548200D02*
X131924500Y-118548200D01*
X121270000Y-117402400D02*
X122415800Y-118548200D01*
X122415800Y-137598200D02*
X131924500Y-137598200D01*
X133587300Y-135935400D02*
X133587300Y-132681400D01*
X121270000Y-136452400D02*
X122415800Y-137598200D01*
X131924500Y-137598200D02*
X133587300Y-135935400D01*
X133587300Y-132681400D02*
X136495000Y-129773700D01*
X121270000Y-155502400D02*
X122415800Y-156648200D01*
X122415800Y-156648200D02*
X131924500Y-156648200D01*
X133587300Y-154985400D02*
X133587300Y-151731400D01*
X133587300Y-151731400D02*
X136495000Y-148823700D01*
X131924500Y-156648200D02*
X133587300Y-154985400D01*
X150939700Y-175730100D02*
X152637300Y-174032500D01*
X140320000Y-174552400D02*
X141497700Y-175730100D01*
X141497700Y-175730100D02*
X150939700Y-175730100D01*
X152637300Y-170781400D02*
X155545000Y-167873700D01*
X152637300Y-174032500D02*
X152637300Y-170781400D01*
X152637300Y-113631400D02*
X155545000Y-110723700D01*
X141465800Y-118548200D02*
X150974500Y-118548200D01*
X152637300Y-116885400D02*
X152637300Y-113631400D01*
X150974500Y-118548200D02*
X152637300Y-116885400D01*
X140320000Y-117402400D02*
X141465800Y-118548200D01*
X152637300Y-135935400D02*
X152637300Y-132681400D01*
X152637300Y-132681400D02*
X155545000Y-129773700D01*
X140320000Y-136452400D02*
X141465800Y-137598200D01*
X141465800Y-137598200D02*
X150974500Y-137598200D01*
X150974500Y-137598200D02*
X152637300Y-135935400D01*
X141465800Y-156648200D02*
X150974500Y-156648200D01*
X152637300Y-151731400D02*
X155545000Y-148823700D01*
X150974500Y-156648200D02*
X152637300Y-154985400D01*
X140320000Y-155502400D02*
X141465800Y-156648200D01*
X152637300Y-154985400D02*
X152637300Y-151731400D01*
X171687300Y-174032500D02*
X171687300Y-170781400D01*
X169989700Y-175730100D02*
X171687300Y-174032500D01*
X160547700Y-175730100D02*
X169989700Y-175730100D01*
X159370000Y-174552400D02*
X160547700Y-175730100D01*
X171687300Y-170781400D02*
X174595000Y-167873700D01*
X262749500Y-118548200D02*
X264412300Y-116885400D01*
X264412300Y-116885400D02*
X264412300Y-113631400D01*
X264412300Y-113631400D02*
X267320000Y-110723700D01*
X252238800Y-117402400D02*
X253384600Y-118548200D01*
X253384600Y-118548200D02*
X262749500Y-118548200D01*
X264412300Y-132681400D02*
X267320000Y-129773700D01*
X252238800Y-136452400D02*
X253384600Y-137598200D01*
X253384600Y-137598200D02*
X262749500Y-137598200D01*
X262749500Y-137598200D02*
X264412300Y-135935400D01*
X264412300Y-135935400D02*
X264412300Y-132681400D01*
X253404000Y-156667600D02*
X262745900Y-156667600D01*
X252238800Y-155502400D02*
X253404000Y-156667600D01*
X264412300Y-151731400D02*
X267320000Y-148823700D01*
X264412300Y-155001200D02*
X264412300Y-151731400D01*
X262745900Y-156667600D02*
X264412300Y-155001200D01*
X234366500Y-175730100D02*
X243664700Y-175730100D01*
X245362300Y-170781400D02*
X248270000Y-167873700D01*
X243664700Y-175730100D02*
X245362300Y-174032500D01*
X245362300Y-174032500D02*
X245362300Y-170781400D01*
X233188800Y-174552400D02*
X234366500Y-175730100D01*
X281799500Y-118548200D02*
X283462300Y-116885400D01*
X271288800Y-117402400D02*
X272434600Y-118548200D01*
X283462300Y-113631400D02*
X286370000Y-110723700D01*
X283462300Y-116885400D02*
X283462300Y-113631400D01*
X272434600Y-118548200D02*
X281799500Y-118548200D01*
X286370000Y-131906500D02*
X286370000Y-129773700D01*
X286369900Y-131906600D02*
X286370000Y-131906500D01*
X281799500Y-156648200D02*
X283462300Y-154985400D01*
X283462300Y-154985400D02*
X283462300Y-151731400D01*
X272434600Y-156648200D02*
X281799500Y-156648200D01*
X271288800Y-155502400D02*
X272434600Y-156648200D01*
X283462300Y-151731400D02*
X286370000Y-148823700D01*
X252238800Y-174552400D02*
X253416500Y-175730100D01*
X264412300Y-170781400D02*
X267320000Y-167873700D01*
X253416500Y-175730100D02*
X262714700Y-175730100D01*
X264412300Y-174032500D02*
X264412300Y-170781400D01*
X262714700Y-175730100D02*
X264412300Y-174032500D01*
X290338800Y-117402400D02*
X291484600Y-118548200D01*
X300849500Y-118548200D02*
X302512300Y-116885400D01*
X302512300Y-116885400D02*
X302512300Y-113631400D01*
X291484600Y-118548200D02*
X300849500Y-118548200D01*
X302512300Y-113631400D02*
X305420000Y-110723700D01*
X290338800Y-136452400D02*
X290140700Y-136254300D01*
X290140700Y-130590400D02*
X290588300Y-130142800D01*
X303142600Y-132051100D02*
X305420000Y-129773700D01*
X290140700Y-136254300D02*
X290140700Y-130590400D01*
X290588300Y-130142800D02*
X298941800Y-130142800D01*
X300850100Y-132051100D02*
X303142600Y-132051100D01*
X298941800Y-130142800D02*
X300850100Y-132051100D01*
X302512300Y-155039000D02*
X302512300Y-151731400D01*
X302512300Y-151731400D02*
X305420000Y-148823700D01*
X300851400Y-156699900D02*
X302512300Y-155039000D01*
X290338800Y-155502400D02*
X291536300Y-156699900D01*
X291536300Y-156699900D02*
X300851400Y-156699900D01*
X283462300Y-170781400D02*
X286370000Y-167873700D01*
X281764700Y-175730100D02*
X283462300Y-174032500D01*
X272466500Y-175730100D02*
X281764700Y-175730100D01*
X271288800Y-174552400D02*
X272466500Y-175730100D01*
X283462300Y-174032500D02*
X283462300Y-170781400D01*
X309388800Y-117402400D02*
X310534600Y-118548200D01*
X319899500Y-118548200D02*
X321562300Y-116885400D01*
X310534600Y-118548200D02*
X319899500Y-118548200D01*
X321562300Y-113631400D02*
X324470000Y-110723700D01*
X321562300Y-116885400D02*
X321562300Y-113631400D01*
X321562300Y-135935400D02*
X321562300Y-132681400D01*
X321562300Y-132681400D02*
X324470000Y-129773700D01*
X309388800Y-136452400D02*
X310534600Y-137598200D01*
X319899500Y-137598200D02*
X321562300Y-135935400D01*
X310534600Y-137598200D02*
X319899500Y-137598200D01*
X321562300Y-151731400D02*
X324470000Y-148823700D01*
X310602700Y-156716300D02*
X319864400Y-156716300D01*
X309388800Y-155502400D02*
X310602700Y-156716300D01*
X319864400Y-156716300D02*
X321562300Y-155018400D01*
X321562300Y-155018400D02*
X321562300Y-151731400D01*
X340612300Y-116885400D02*
X340612300Y-113631400D01*
X329584600Y-118548200D02*
X338949500Y-118548200D01*
X340612300Y-113631400D02*
X343520000Y-110723700D01*
X328438800Y-117402400D02*
X329584600Y-118548200D01*
X338949500Y-118548200D02*
X340612300Y-116885400D01*
X340612300Y-135935400D02*
X340612300Y-132681400D01*
X329584600Y-137598200D02*
X338949500Y-137598200D01*
X328438800Y-136452400D02*
X329584600Y-137598200D01*
X340612300Y-132681400D02*
X343520000Y-129773700D01*
X338949500Y-137598200D02*
X340612300Y-135935400D01*
X329652700Y-156716300D02*
X338914400Y-156716300D01*
X328438800Y-155502400D02*
X329652700Y-156716300D01*
X340612300Y-151731400D02*
X343520000Y-148823700D01*
X340612300Y-155018400D02*
X340612300Y-151731400D01*
X338914400Y-156716300D02*
X340612300Y-155018400D01*
X198105000Y-131401200D02*
X195003100Y-131401200D01*
X195003100Y-131401200D02*
X194301200Y-132103100D01*
X194301200Y-132103100D02*
X194301200Y-155723500D01*
X206808900Y-168231200D02*
X210245000Y-168231200D01*
X194301200Y-155723500D02*
X206808900Y-168231200D01*
X47595000Y-132313700D02*
X45043100Y-132313700D01*
X43885900Y-114420900D02*
X45043100Y-113263700D01*
X43885900Y-131156500D02*
X43885900Y-114420900D01*
X45043100Y-132313700D02*
X43901900Y-133454900D01*
X47595000Y-151363700D02*
X47595000Y-149411800D01*
X48260100Y-142626900D02*
X48260100Y-145919500D01*
X45043100Y-132313700D02*
X43885900Y-131156500D01*
X48260100Y-148746700D02*
X47595000Y-149411800D01*
X48260100Y-145919500D02*
X48260100Y-148746700D01*
X47595000Y-113263700D02*
X45043100Y-113263700D01*
X43901900Y-133454900D02*
X43901900Y-138268700D01*
X43901900Y-138268700D02*
X48260100Y-142626900D01*
X67703700Y-143020500D02*
X67703700Y-146798700D01*
X66645000Y-113263700D02*
X64093100Y-113263700D01*
X62962300Y-134720500D02*
X62962300Y-138279100D01*
X66645000Y-132313700D02*
X65369100Y-132313700D01*
X65369100Y-132313700D02*
X62924300Y-129868900D01*
X62924300Y-114432500D02*
X64093100Y-113263700D01*
X62962300Y-138279100D02*
X67703700Y-143020500D01*
X67703700Y-146798700D02*
X67703700Y-148353100D01*
X66645000Y-151363700D02*
X66645000Y-149411800D01*
X62924300Y-129868900D02*
X62924300Y-114432500D01*
X67703700Y-148353100D02*
X66645000Y-149411800D01*
X65369100Y-132313700D02*
X62962300Y-134720500D01*
X81973400Y-150194000D02*
X83143100Y-151363700D01*
X101982700Y-159149100D02*
X85183100Y-159149100D01*
X85695000Y-132313700D02*
X83143100Y-132313700D01*
X105950800Y-163117200D02*
X101982700Y-159149100D01*
X83143100Y-132313700D02*
X81973400Y-133483400D01*
X81988800Y-155954800D02*
X81988800Y-152518000D01*
X81988800Y-152518000D02*
X83143100Y-151363700D01*
X85695000Y-113263700D02*
X83143100Y-113263700D01*
X85695000Y-151363700D02*
X83143100Y-151363700D01*
X85183100Y-159149100D02*
X81988800Y-155954800D01*
X81973400Y-133483400D02*
X81973400Y-150194000D01*
X81973400Y-131144000D02*
X83143100Y-132313700D01*
X83143100Y-113263700D02*
X81973400Y-114433400D01*
X81973400Y-114433400D02*
X81973400Y-131144000D01*
X104745000Y-113263700D02*
X102193100Y-113263700D01*
X123795000Y-170413700D02*
X123795000Y-168461800D01*
X101023400Y-150194000D02*
X102193100Y-151363700D01*
X102193100Y-113263700D02*
X101023400Y-114433400D01*
X101038800Y-152518000D02*
X102193100Y-151363700D01*
X101038800Y-155969100D02*
X101038800Y-152518000D01*
X127883900Y-164372900D02*
X125839500Y-166417300D01*
X123795000Y-166417300D02*
X111487000Y-166417300D01*
X111487000Y-166417300D02*
X101038800Y-155969100D01*
X125839500Y-166417300D02*
X123795000Y-166417300D01*
X101023400Y-133483400D02*
X101023400Y-150194000D01*
X123795000Y-166417300D02*
X123795000Y-168461800D01*
X104745000Y-151363700D02*
X102193100Y-151363700D01*
X102193100Y-132313700D02*
X101023400Y-133483400D01*
X101023400Y-114433400D02*
X101023400Y-131144000D01*
X104745000Y-132313700D02*
X102193100Y-132313700D01*
X101023400Y-131144000D02*
X102193100Y-132313700D01*
X123795000Y-132313700D02*
X123795000Y-130361800D01*
X156513400Y-163709400D02*
X146323900Y-163709400D01*
X146323900Y-163709400D02*
X142845000Y-167188300D01*
X123795000Y-151363700D02*
X122519100Y-151363700D01*
X120074300Y-155954600D02*
X123223400Y-159103700D01*
X142845000Y-167188300D02*
X142845000Y-168532700D01*
X120074300Y-133482500D02*
X121243100Y-132313700D01*
X212247500Y-148976800D02*
X207839400Y-148976800D01*
X120112300Y-126679100D02*
X123795000Y-130361800D01*
X214583100Y-146641200D02*
X212247500Y-148976800D01*
X215885000Y-146641200D02*
X214583100Y-146641200D01*
X122519100Y-151363700D02*
X120074300Y-153808500D01*
X121243100Y-113263700D02*
X120112300Y-114394500D01*
X123795000Y-132313700D02*
X121243100Y-132313700D01*
X120074300Y-153808500D02*
X120074300Y-155954600D01*
X122519100Y-151363700D02*
X120074300Y-148918900D01*
X123795000Y-113263700D02*
X121243100Y-113263700D01*
X120112300Y-114394500D02*
X120112300Y-126679100D01*
X120074300Y-148918900D02*
X120074300Y-133482500D01*
X123223400Y-159103700D02*
X133486900Y-159103700D01*
X133486900Y-159103700D02*
X141571500Y-167188300D01*
X141571500Y-167188300D02*
X142845000Y-167188300D01*
X142845000Y-170413700D02*
X142845000Y-168532700D01*
X141569100Y-151363700D02*
X140293100Y-151363700D01*
X214583100Y-144101200D02*
X214583100Y-144422400D01*
X139124300Y-133482500D02*
X140293100Y-132313700D01*
X141569100Y-132313700D02*
X140293100Y-132313700D01*
X178046600Y-162345300D02*
X167435900Y-162345300D01*
X161895000Y-168461800D02*
X161895000Y-167886200D01*
X139138800Y-155954800D02*
X139138800Y-152518000D01*
X161895000Y-167886200D02*
X153077300Y-159068500D01*
X215885000Y-144101200D02*
X214583100Y-144101200D01*
X167435900Y-162345300D02*
X161895000Y-167886200D01*
X139124300Y-114432500D02*
X140293100Y-113263700D01*
X214583100Y-144422400D02*
X212722400Y-146283100D01*
X161895000Y-170413700D02*
X161895000Y-168461800D01*
X139124300Y-148918900D02*
X139124300Y-133482500D01*
X142845000Y-132313700D02*
X141569100Y-132313700D01*
X153077300Y-159068500D02*
X142252500Y-159068500D01*
X142252500Y-159068500D02*
X139138800Y-155954800D01*
X142845000Y-151363700D02*
X141569100Y-151363700D01*
X141569100Y-151363700D02*
X139124300Y-148918900D01*
X139124300Y-129868900D02*
X139124300Y-114432500D01*
X141569100Y-132313700D02*
X139124300Y-129868900D01*
X142845000Y-113263700D02*
X140293100Y-113263700D01*
X139138800Y-152518000D02*
X140293100Y-151363700D01*
X251075600Y-145867400D02*
X251075600Y-142158100D01*
X251075600Y-135980100D02*
X252790100Y-134265600D01*
X254620000Y-132313700D02*
X254620000Y-121731000D01*
X252790100Y-134265600D02*
X254620000Y-134265600D01*
X251041400Y-118152400D02*
X251041400Y-116924200D01*
X235570000Y-170413700D02*
X235570000Y-168461800D01*
X218986900Y-141561200D02*
X218986900Y-151878700D01*
X215885000Y-141561200D02*
X218986900Y-141561200D01*
X254620000Y-113263700D02*
X254620000Y-115215600D01*
X254620000Y-151363700D02*
X254620000Y-149411800D01*
X218986900Y-151878700D02*
X235570000Y-168461800D01*
X254620000Y-132313700D02*
X254620000Y-134265600D01*
X252750000Y-115215600D02*
X254620000Y-115215600D01*
X251075600Y-142158100D02*
X251075600Y-135980100D01*
X254620000Y-121731000D02*
X251041400Y-118152400D01*
X251041400Y-116924200D02*
X252750000Y-115215600D01*
X254620000Y-149411800D02*
X251075600Y-145867400D01*
X272394100Y-151363700D02*
X271118100Y-151363700D01*
X254620000Y-170413700D02*
X254620000Y-168532700D01*
X254893600Y-168188200D02*
X271118100Y-151963700D01*
X273670000Y-151363700D02*
X272394100Y-151363700D01*
X215885000Y-139021200D02*
X225453000Y-139021200D01*
X271118100Y-151963700D02*
X271118100Y-151363700D01*
X272394100Y-151363700D02*
X273670000Y-150087800D01*
X273670000Y-130361800D02*
X270123400Y-126815200D01*
X271840100Y-115215600D02*
X273670000Y-115215600D01*
X270123400Y-116932300D02*
X271840100Y-115215600D01*
X273670000Y-113263700D02*
X273670000Y-115215600D01*
X254620000Y-168532700D02*
X254620000Y-168188200D01*
X254620000Y-168188200D02*
X254893600Y-168188200D01*
X270123400Y-126815200D02*
X270123400Y-116932300D01*
X273670000Y-150087800D02*
X273670000Y-132313700D01*
X225453000Y-139021200D02*
X254620000Y-168188200D01*
X273670000Y-132313700D02*
X273670000Y-130361800D01*
X292720000Y-135704300D02*
X292720000Y-132313700D01*
X292720000Y-151677700D02*
X292720000Y-151363700D01*
X273670000Y-170413700D02*
X290768100Y-153315600D01*
X290815700Y-137608600D02*
X292720000Y-135704300D01*
X292720000Y-113263700D02*
X292720000Y-115215600D01*
X292720000Y-151363700D02*
X292720000Y-144365400D01*
X290890100Y-115215600D02*
X292720000Y-115215600D01*
X287552100Y-139197500D02*
X289141000Y-137608600D01*
X292720000Y-151677700D02*
X292720000Y-153315600D01*
X289141000Y-116964700D02*
X290890100Y-115215600D01*
X289141000Y-137608600D02*
X289141000Y-116964700D01*
X289141000Y-137608600D02*
X290815700Y-137608600D01*
X274864500Y-139197500D02*
X287552100Y-139197500D01*
X292720000Y-144365400D02*
X287552100Y-139197500D01*
X290768100Y-153315600D02*
X292720000Y-153315600D01*
X311770000Y-113263700D02*
X311770000Y-115215600D01*
X309940100Y-115215600D02*
X311770000Y-115215600D01*
X308238400Y-145880200D02*
X311770000Y-149411800D01*
X311696900Y-130361800D02*
X311770000Y-130361800D01*
X308238400Y-135967300D02*
X308238400Y-145880200D01*
X308223400Y-126888300D02*
X311696900Y-130361800D01*
X311770000Y-132313700D02*
X311770000Y-130361800D01*
X311770000Y-134265600D02*
X309940100Y-134265600D01*
X309940100Y-134265600D02*
X308238400Y-135967300D01*
X311770000Y-132313700D02*
X311770000Y-134265600D01*
X308223400Y-116932300D02*
X309940100Y-115215600D01*
X308223400Y-126888300D02*
X308223400Y-116932300D01*
X311770000Y-151363700D02*
X311770000Y-149411800D01*
X328990100Y-134265600D02*
X330820000Y-134265600D01*
X323282300Y-120923400D02*
X328990100Y-115215600D01*
X330820000Y-113263700D02*
X330820000Y-115215600D01*
X330820000Y-132313700D02*
X330820000Y-134265600D01*
X330820000Y-132313700D02*
X330820000Y-130361800D01*
X328990100Y-115215600D02*
X330820000Y-115215600D01*
X327273400Y-135982300D02*
X328990100Y-134265600D01*
X330820000Y-130361800D02*
X323282300Y-122824100D01*
X327273400Y-145865200D02*
X327273400Y-135982300D01*
X323282300Y-121840100D02*
X323282300Y-120923400D01*
X330820000Y-151363700D02*
X330820000Y-149411800D01*
X330820000Y-149411800D02*
X327273400Y-145865200D01*
X323282300Y-122824100D02*
X323282300Y-121840100D01*
X344543300Y-118737900D02*
X344543300Y-118677200D01*
X359410000Y-137518700D02*
X359410000Y-133604600D01*
X359410000Y-133604600D02*
X344543300Y-118737900D01*
X344543300Y-118677200D02*
X348004900Y-115215600D01*
X349870000Y-113263700D02*
X349870000Y-115215600D01*
X348004900Y-115215600D02*
X349870000Y-115215600D01*
X359662300Y-116882700D02*
X359662300Y-113631400D01*
X357968000Y-118577000D02*
X359662300Y-116882700D01*
X347488800Y-117402400D02*
X348663400Y-118577000D01*
X348663400Y-118577000D02*
X357968000Y-118577000D01*
X359662300Y-113631400D02*
X362570000Y-110723700D01*
X347488800Y-136452400D02*
X347488800Y-138865900D01*
X347488800Y-138865900D02*
X355883900Y-147261000D01*
X355883900Y-147261000D02*
X357240400Y-147261000D01*
X361950000Y-150018700D02*
X359998100Y-150018700D01*
X357240400Y-147261000D02*
X359998100Y-150018700D01*
M02*
