M48
; DRILL file {KiCad 7.0.10} date Sun Apr  7 15:44:25 2024
; FORMAT={-:-/ absolute / metric / decimal}
; #@! TF.CreationDate,2024-04-07T15:44:25+09:00
; #@! TF.GenerationSoftware,Kicad,Pcbnew,7.0.10
; #@! TF.FileFunction,Plated,1,2,PTH
FMAT,2
METRIC
; #@! TA.AperFunction,Plated,PTH,ViaDrill
T1C0.400
; #@! TA.AperFunction,Plated,PTH,ComponentDrill
T2C0.813
; #@! TA.AperFunction,Plated,PTH,ComponentDrill
T3C1.020
; #@! TA.AperFunction,Plated,PTH,ComponentDrill
T4C1.300
%
G90
G05
T1
X48.26Y-145.919
X67.704Y-146.799
X105.951Y-163.117
X127.884Y-164.373
X156.513Y-163.709
X178.047Y-162.345
X197.121Y-156.233
X207.839Y-148.977
X212.722Y-146.283
X217.501Y-155.75
X217.95Y-162.368
X251.076Y-142.158
X274.864Y-139.197
X286.37Y-131.907
X308.223Y-126.888
X323.282Y-121.84
X344.543Y-118.738
T2
X45.07Y-117.402
X45.07Y-125.022
X45.07Y-136.452
X45.07Y-144.072
X45.07Y-155.502
X45.07Y-163.122
X64.12Y-117.402
X64.12Y-125.022
X64.12Y-136.452
X64.12Y-144.072
X64.12Y-155.502
X64.12Y-163.122
X83.17Y-117.402
X83.17Y-125.022
X83.17Y-136.452
X83.17Y-144.072
X83.17Y-155.502
X83.17Y-163.122
X102.22Y-117.402
X102.22Y-125.022
X102.22Y-136.452
X102.22Y-144.072
X102.22Y-155.502
X102.22Y-163.122
X121.27Y-117.402
X121.27Y-125.022
X121.27Y-136.452
X121.27Y-144.072
X121.27Y-155.502
X121.27Y-163.122
X121.27Y-174.552
X121.27Y-182.172
X140.32Y-117.402
X140.32Y-125.022
X140.32Y-136.452
X140.32Y-144.072
X140.32Y-155.502
X140.32Y-163.122
X140.32Y-174.552
X140.32Y-182.172
X159.37Y-174.552
X159.37Y-182.172
X233.189Y-174.552
X233.189Y-182.172
X252.239Y-117.402
X252.239Y-125.022
X252.239Y-136.452
X252.239Y-144.072
X252.239Y-155.502
X252.239Y-163.122
X252.239Y-174.552
X252.239Y-182.172
X271.289Y-117.402
X271.289Y-125.022
X271.289Y-136.452
X271.289Y-144.072
X271.289Y-155.502
X271.289Y-163.122
X271.289Y-174.552
X271.289Y-182.172
X290.339Y-117.402
X290.339Y-125.022
X290.339Y-136.452
X290.339Y-144.072
X290.339Y-155.502
X290.339Y-163.122
X309.389Y-117.402
X309.389Y-125.022
X309.389Y-136.452
X309.389Y-144.072
X309.389Y-155.502
X309.389Y-163.122
X328.439Y-117.402
X328.439Y-125.022
X328.439Y-136.452
X328.439Y-144.072
X328.439Y-155.502
X328.439Y-163.122
X347.489Y-117.402
X347.489Y-125.022
X347.489Y-136.452
X347.489Y-144.072
T3
X198.105Y-106.001
X198.105Y-108.541
X198.105Y-111.081
X198.105Y-113.621
X198.105Y-116.161
X198.105Y-118.701
X198.105Y-121.241
X198.105Y-123.781
X198.105Y-126.321
X198.105Y-128.861
X198.105Y-131.401
X198.105Y-133.941
X198.105Y-136.481
X198.105Y-139.021
X198.105Y-141.561
X198.105Y-144.101
X198.105Y-146.641
X198.105Y-149.181
X198.105Y-151.721
X198.105Y-154.261
X204.455Y-154.031
X206.995Y-154.031
X209.535Y-154.031
X215.885Y-106.001
X215.885Y-108.541
X215.885Y-111.081
X215.885Y-113.621
X215.885Y-116.161
X215.885Y-118.701
X215.885Y-121.241
X215.885Y-123.781
X215.885Y-126.321
X215.885Y-128.861
X215.885Y-131.401
X215.885Y-133.941
X215.885Y-136.481
X215.885Y-139.021
X215.885Y-141.561
X215.885Y-144.101
X215.885Y-146.641
X215.885Y-149.181
X215.885Y-151.721
X215.885Y-154.261
T4
X203.745Y-168.231
X210.245Y-168.231
M30
