G04 #@! TF.GenerationSoftware,KiCad,Pcbnew,7.0.10*
G04 #@! TF.CreationDate,2024-04-07T15:44:14+09:00*
G04 #@! TF.ProjectId,first_keyboard,66697273-745f-46b6-9579-626f6172642e,rev?*
G04 #@! TF.SameCoordinates,Original*
G04 #@! TF.FileFunction,Legend,Top*
G04 #@! TF.FilePolarity,Positive*
%FSLAX46Y46*%
G04 Gerber Fmt 4.6, Leading zero omitted, Abs format (unit mm)*
G04 Created by KiCad (PCBNEW 7.0.10) date 2024-04-07 15:44:14*
%MOMM*%
%LPD*%
G01*
G04 APERTURE LIST*
%ADD10C,0.125000*%
%ADD11C,0.150000*%
%ADD12C,2.000000*%
%ADD13C,4.000000*%
G04 APERTURE END LIST*
D10*
X254324919Y-160526685D02*
X253324919Y-160526685D01*
X253324919Y-160526685D02*
X253324919Y-160288590D01*
X253324919Y-160288590D02*
X253372538Y-160145733D01*
X253372538Y-160145733D02*
X253467776Y-160050495D01*
X253467776Y-160050495D02*
X253563014Y-160002876D01*
X253563014Y-160002876D02*
X253753490Y-159955257D01*
X253753490Y-159955257D02*
X253896347Y-159955257D01*
X253896347Y-159955257D02*
X254086823Y-160002876D01*
X254086823Y-160002876D02*
X254182061Y-160050495D01*
X254182061Y-160050495D02*
X254277300Y-160145733D01*
X254277300Y-160145733D02*
X254324919Y-160288590D01*
X254324919Y-160288590D02*
X254324919Y-160526685D01*
X253420157Y-159574304D02*
X253372538Y-159526685D01*
X253372538Y-159526685D02*
X253324919Y-159431447D01*
X253324919Y-159431447D02*
X253324919Y-159193352D01*
X253324919Y-159193352D02*
X253372538Y-159098114D01*
X253372538Y-159098114D02*
X253420157Y-159050495D01*
X253420157Y-159050495D02*
X253515395Y-159002876D01*
X253515395Y-159002876D02*
X253610633Y-159002876D01*
X253610633Y-159002876D02*
X253753490Y-159050495D01*
X253753490Y-159050495D02*
X254324919Y-159621923D01*
X254324919Y-159621923D02*
X254324919Y-159002876D01*
X253658252Y-158145733D02*
X254324919Y-158145733D01*
X253277300Y-158383828D02*
X253991585Y-158621923D01*
X253991585Y-158621923D02*
X253991585Y-158002876D01*
X292424919Y-160526685D02*
X291424919Y-160526685D01*
X291424919Y-160526685D02*
X291424919Y-160288590D01*
X291424919Y-160288590D02*
X291472538Y-160145733D01*
X291472538Y-160145733D02*
X291567776Y-160050495D01*
X291567776Y-160050495D02*
X291663014Y-160002876D01*
X291663014Y-160002876D02*
X291853490Y-159955257D01*
X291853490Y-159955257D02*
X291996347Y-159955257D01*
X291996347Y-159955257D02*
X292186823Y-160002876D01*
X292186823Y-160002876D02*
X292282061Y-160050495D01*
X292282061Y-160050495D02*
X292377300Y-160145733D01*
X292377300Y-160145733D02*
X292424919Y-160288590D01*
X292424919Y-160288590D02*
X292424919Y-160526685D01*
X291424919Y-159621923D02*
X291424919Y-159002876D01*
X291424919Y-159002876D02*
X291805871Y-159336209D01*
X291805871Y-159336209D02*
X291805871Y-159193352D01*
X291805871Y-159193352D02*
X291853490Y-159098114D01*
X291853490Y-159098114D02*
X291901109Y-159050495D01*
X291901109Y-159050495D02*
X291996347Y-159002876D01*
X291996347Y-159002876D02*
X292234442Y-159002876D01*
X292234442Y-159002876D02*
X292329680Y-159050495D01*
X292329680Y-159050495D02*
X292377300Y-159098114D01*
X292377300Y-159098114D02*
X292424919Y-159193352D01*
X292424919Y-159193352D02*
X292424919Y-159479066D01*
X292424919Y-159479066D02*
X292377300Y-159574304D01*
X292377300Y-159574304D02*
X292329680Y-159621923D01*
X291520157Y-158621923D02*
X291472538Y-158574304D01*
X291472538Y-158574304D02*
X291424919Y-158479066D01*
X291424919Y-158479066D02*
X291424919Y-158240971D01*
X291424919Y-158240971D02*
X291472538Y-158145733D01*
X291472538Y-158145733D02*
X291520157Y-158098114D01*
X291520157Y-158098114D02*
X291615395Y-158050495D01*
X291615395Y-158050495D02*
X291710633Y-158050495D01*
X291710633Y-158050495D02*
X291853490Y-158098114D01*
X291853490Y-158098114D02*
X292424919Y-158669542D01*
X292424919Y-158669542D02*
X292424919Y-158050495D01*
X85256119Y-160050494D02*
X84256119Y-160050494D01*
X84256119Y-160050494D02*
X84256119Y-159812399D01*
X84256119Y-159812399D02*
X84303738Y-159669542D01*
X84303738Y-159669542D02*
X84398976Y-159574304D01*
X84398976Y-159574304D02*
X84494214Y-159526685D01*
X84494214Y-159526685D02*
X84684690Y-159479066D01*
X84684690Y-159479066D02*
X84827547Y-159479066D01*
X84827547Y-159479066D02*
X85018023Y-159526685D01*
X85018023Y-159526685D02*
X85113261Y-159574304D01*
X85113261Y-159574304D02*
X85208500Y-159669542D01*
X85208500Y-159669542D02*
X85256119Y-159812399D01*
X85256119Y-159812399D02*
X85256119Y-160050494D01*
X85256119Y-159002875D02*
X85256119Y-158812399D01*
X85256119Y-158812399D02*
X85208500Y-158717161D01*
X85208500Y-158717161D02*
X85160880Y-158669542D01*
X85160880Y-158669542D02*
X85018023Y-158574304D01*
X85018023Y-158574304D02*
X84827547Y-158526685D01*
X84827547Y-158526685D02*
X84446595Y-158526685D01*
X84446595Y-158526685D02*
X84351357Y-158574304D01*
X84351357Y-158574304D02*
X84303738Y-158621923D01*
X84303738Y-158621923D02*
X84256119Y-158717161D01*
X84256119Y-158717161D02*
X84256119Y-158907637D01*
X84256119Y-158907637D02*
X84303738Y-159002875D01*
X84303738Y-159002875D02*
X84351357Y-159050494D01*
X84351357Y-159050494D02*
X84446595Y-159098113D01*
X84446595Y-159098113D02*
X84684690Y-159098113D01*
X84684690Y-159098113D02*
X84779928Y-159050494D01*
X84779928Y-159050494D02*
X84827547Y-159002875D01*
X84827547Y-159002875D02*
X84875166Y-158907637D01*
X84875166Y-158907637D02*
X84875166Y-158717161D01*
X84875166Y-158717161D02*
X84827547Y-158621923D01*
X84827547Y-158621923D02*
X84779928Y-158574304D01*
X84779928Y-158574304D02*
X84684690Y-158526685D01*
X273374919Y-122426685D02*
X272374919Y-122426685D01*
X272374919Y-122426685D02*
X272374919Y-122188590D01*
X272374919Y-122188590D02*
X272422538Y-122045733D01*
X272422538Y-122045733D02*
X272517776Y-121950495D01*
X272517776Y-121950495D02*
X272613014Y-121902876D01*
X272613014Y-121902876D02*
X272803490Y-121855257D01*
X272803490Y-121855257D02*
X272946347Y-121855257D01*
X272946347Y-121855257D02*
X273136823Y-121902876D01*
X273136823Y-121902876D02*
X273232061Y-121950495D01*
X273232061Y-121950495D02*
X273327300Y-122045733D01*
X273327300Y-122045733D02*
X273374919Y-122188590D01*
X273374919Y-122188590D02*
X273374919Y-122426685D01*
X272470157Y-121474304D02*
X272422538Y-121426685D01*
X272422538Y-121426685D02*
X272374919Y-121331447D01*
X272374919Y-121331447D02*
X272374919Y-121093352D01*
X272374919Y-121093352D02*
X272422538Y-120998114D01*
X272422538Y-120998114D02*
X272470157Y-120950495D01*
X272470157Y-120950495D02*
X272565395Y-120902876D01*
X272565395Y-120902876D02*
X272660633Y-120902876D01*
X272660633Y-120902876D02*
X272803490Y-120950495D01*
X272803490Y-120950495D02*
X273374919Y-121521923D01*
X273374919Y-121521923D02*
X273374919Y-120902876D01*
X272374919Y-120045733D02*
X272374919Y-120236209D01*
X272374919Y-120236209D02*
X272422538Y-120331447D01*
X272422538Y-120331447D02*
X272470157Y-120379066D01*
X272470157Y-120379066D02*
X272613014Y-120474304D01*
X272613014Y-120474304D02*
X272803490Y-120521923D01*
X272803490Y-120521923D02*
X273184442Y-120521923D01*
X273184442Y-120521923D02*
X273279680Y-120474304D01*
X273279680Y-120474304D02*
X273327300Y-120426685D01*
X273327300Y-120426685D02*
X273374919Y-120331447D01*
X273374919Y-120331447D02*
X273374919Y-120140971D01*
X273374919Y-120140971D02*
X273327300Y-120045733D01*
X273327300Y-120045733D02*
X273279680Y-119998114D01*
X273279680Y-119998114D02*
X273184442Y-119950495D01*
X273184442Y-119950495D02*
X272946347Y-119950495D01*
X272946347Y-119950495D02*
X272851109Y-119998114D01*
X272851109Y-119998114D02*
X272803490Y-120045733D01*
X272803490Y-120045733D02*
X272755871Y-120140971D01*
X272755871Y-120140971D02*
X272755871Y-120331447D01*
X272755871Y-120331447D02*
X272803490Y-120426685D01*
X272803490Y-120426685D02*
X272851109Y-120474304D01*
X272851109Y-120474304D02*
X272946347Y-120521923D01*
X66206119Y-141000494D02*
X65206119Y-141000494D01*
X65206119Y-141000494D02*
X65206119Y-140762399D01*
X65206119Y-140762399D02*
X65253738Y-140619542D01*
X65253738Y-140619542D02*
X65348976Y-140524304D01*
X65348976Y-140524304D02*
X65444214Y-140476685D01*
X65444214Y-140476685D02*
X65634690Y-140429066D01*
X65634690Y-140429066D02*
X65777547Y-140429066D01*
X65777547Y-140429066D02*
X65968023Y-140476685D01*
X65968023Y-140476685D02*
X66063261Y-140524304D01*
X66063261Y-140524304D02*
X66158500Y-140619542D01*
X66158500Y-140619542D02*
X66206119Y-140762399D01*
X66206119Y-140762399D02*
X66206119Y-141000494D01*
X65206119Y-139524304D02*
X65206119Y-140000494D01*
X65206119Y-140000494D02*
X65682309Y-140048113D01*
X65682309Y-140048113D02*
X65634690Y-140000494D01*
X65634690Y-140000494D02*
X65587071Y-139905256D01*
X65587071Y-139905256D02*
X65587071Y-139667161D01*
X65587071Y-139667161D02*
X65634690Y-139571923D01*
X65634690Y-139571923D02*
X65682309Y-139524304D01*
X65682309Y-139524304D02*
X65777547Y-139476685D01*
X65777547Y-139476685D02*
X66015642Y-139476685D01*
X66015642Y-139476685D02*
X66110880Y-139524304D01*
X66110880Y-139524304D02*
X66158500Y-139571923D01*
X66158500Y-139571923D02*
X66206119Y-139667161D01*
X66206119Y-139667161D02*
X66206119Y-139905256D01*
X66206119Y-139905256D02*
X66158500Y-140000494D01*
X66158500Y-140000494D02*
X66110880Y-140048113D01*
X330524919Y-122426685D02*
X329524919Y-122426685D01*
X329524919Y-122426685D02*
X329524919Y-122188590D01*
X329524919Y-122188590D02*
X329572538Y-122045733D01*
X329572538Y-122045733D02*
X329667776Y-121950495D01*
X329667776Y-121950495D02*
X329763014Y-121902876D01*
X329763014Y-121902876D02*
X329953490Y-121855257D01*
X329953490Y-121855257D02*
X330096347Y-121855257D01*
X330096347Y-121855257D02*
X330286823Y-121902876D01*
X330286823Y-121902876D02*
X330382061Y-121950495D01*
X330382061Y-121950495D02*
X330477300Y-122045733D01*
X330477300Y-122045733D02*
X330524919Y-122188590D01*
X330524919Y-122188590D02*
X330524919Y-122426685D01*
X329524919Y-121521923D02*
X329524919Y-120902876D01*
X329524919Y-120902876D02*
X329905871Y-121236209D01*
X329905871Y-121236209D02*
X329905871Y-121093352D01*
X329905871Y-121093352D02*
X329953490Y-120998114D01*
X329953490Y-120998114D02*
X330001109Y-120950495D01*
X330001109Y-120950495D02*
X330096347Y-120902876D01*
X330096347Y-120902876D02*
X330334442Y-120902876D01*
X330334442Y-120902876D02*
X330429680Y-120950495D01*
X330429680Y-120950495D02*
X330477300Y-120998114D01*
X330477300Y-120998114D02*
X330524919Y-121093352D01*
X330524919Y-121093352D02*
X330524919Y-121379066D01*
X330524919Y-121379066D02*
X330477300Y-121474304D01*
X330477300Y-121474304D02*
X330429680Y-121521923D01*
X329524919Y-120569542D02*
X329524919Y-119902876D01*
X329524919Y-119902876D02*
X330524919Y-120331447D01*
X142406119Y-141476685D02*
X141406119Y-141476685D01*
X141406119Y-141476685D02*
X141406119Y-141238590D01*
X141406119Y-141238590D02*
X141453738Y-141095733D01*
X141453738Y-141095733D02*
X141548976Y-141000495D01*
X141548976Y-141000495D02*
X141644214Y-140952876D01*
X141644214Y-140952876D02*
X141834690Y-140905257D01*
X141834690Y-140905257D02*
X141977547Y-140905257D01*
X141977547Y-140905257D02*
X142168023Y-140952876D01*
X142168023Y-140952876D02*
X142263261Y-141000495D01*
X142263261Y-141000495D02*
X142358500Y-141095733D01*
X142358500Y-141095733D02*
X142406119Y-141238590D01*
X142406119Y-141238590D02*
X142406119Y-141476685D01*
X142406119Y-139952876D02*
X142406119Y-140524304D01*
X142406119Y-140238590D02*
X141406119Y-140238590D01*
X141406119Y-140238590D02*
X141548976Y-140333828D01*
X141548976Y-140333828D02*
X141644214Y-140429066D01*
X141644214Y-140429066D02*
X141691833Y-140524304D01*
X142406119Y-139476685D02*
X142406119Y-139286209D01*
X142406119Y-139286209D02*
X142358500Y-139190971D01*
X142358500Y-139190971D02*
X142310880Y-139143352D01*
X142310880Y-139143352D02*
X142168023Y-139048114D01*
X142168023Y-139048114D02*
X141977547Y-139000495D01*
X141977547Y-139000495D02*
X141596595Y-139000495D01*
X141596595Y-139000495D02*
X141501357Y-139048114D01*
X141501357Y-139048114D02*
X141453738Y-139095733D01*
X141453738Y-139095733D02*
X141406119Y-139190971D01*
X141406119Y-139190971D02*
X141406119Y-139381447D01*
X141406119Y-139381447D02*
X141453738Y-139476685D01*
X141453738Y-139476685D02*
X141501357Y-139524304D01*
X141501357Y-139524304D02*
X141596595Y-139571923D01*
X141596595Y-139571923D02*
X141834690Y-139571923D01*
X141834690Y-139571923D02*
X141929928Y-139524304D01*
X141929928Y-139524304D02*
X141977547Y-139476685D01*
X141977547Y-139476685D02*
X142025166Y-139381447D01*
X142025166Y-139381447D02*
X142025166Y-139190971D01*
X142025166Y-139190971D02*
X141977547Y-139095733D01*
X141977547Y-139095733D02*
X141929928Y-139048114D01*
X141929928Y-139048114D02*
X141834690Y-139000495D01*
X123356119Y-160526685D02*
X122356119Y-160526685D01*
X122356119Y-160526685D02*
X122356119Y-160288590D01*
X122356119Y-160288590D02*
X122403738Y-160145733D01*
X122403738Y-160145733D02*
X122498976Y-160050495D01*
X122498976Y-160050495D02*
X122594214Y-160002876D01*
X122594214Y-160002876D02*
X122784690Y-159955257D01*
X122784690Y-159955257D02*
X122927547Y-159955257D01*
X122927547Y-159955257D02*
X123118023Y-160002876D01*
X123118023Y-160002876D02*
X123213261Y-160050495D01*
X123213261Y-160050495D02*
X123308500Y-160145733D01*
X123308500Y-160145733D02*
X123356119Y-160288590D01*
X123356119Y-160288590D02*
X123356119Y-160526685D01*
X123356119Y-159002876D02*
X123356119Y-159574304D01*
X123356119Y-159288590D02*
X122356119Y-159288590D01*
X122356119Y-159288590D02*
X122498976Y-159383828D01*
X122498976Y-159383828D02*
X122594214Y-159479066D01*
X122594214Y-159479066D02*
X122641833Y-159574304D01*
X122356119Y-158145733D02*
X122356119Y-158336209D01*
X122356119Y-158336209D02*
X122403738Y-158431447D01*
X122403738Y-158431447D02*
X122451357Y-158479066D01*
X122451357Y-158479066D02*
X122594214Y-158574304D01*
X122594214Y-158574304D02*
X122784690Y-158621923D01*
X122784690Y-158621923D02*
X123165642Y-158621923D01*
X123165642Y-158621923D02*
X123260880Y-158574304D01*
X123260880Y-158574304D02*
X123308500Y-158526685D01*
X123308500Y-158526685D02*
X123356119Y-158431447D01*
X123356119Y-158431447D02*
X123356119Y-158240971D01*
X123356119Y-158240971D02*
X123308500Y-158145733D01*
X123308500Y-158145733D02*
X123260880Y-158098114D01*
X123260880Y-158098114D02*
X123165642Y-158050495D01*
X123165642Y-158050495D02*
X122927547Y-158050495D01*
X122927547Y-158050495D02*
X122832309Y-158098114D01*
X122832309Y-158098114D02*
X122784690Y-158145733D01*
X122784690Y-158145733D02*
X122737071Y-158240971D01*
X122737071Y-158240971D02*
X122737071Y-158431447D01*
X122737071Y-158431447D02*
X122784690Y-158526685D01*
X122784690Y-158526685D02*
X122832309Y-158574304D01*
X122832309Y-158574304D02*
X122927547Y-158621923D01*
X142406119Y-160526685D02*
X141406119Y-160526685D01*
X141406119Y-160526685D02*
X141406119Y-160288590D01*
X141406119Y-160288590D02*
X141453738Y-160145733D01*
X141453738Y-160145733D02*
X141548976Y-160050495D01*
X141548976Y-160050495D02*
X141644214Y-160002876D01*
X141644214Y-160002876D02*
X141834690Y-159955257D01*
X141834690Y-159955257D02*
X141977547Y-159955257D01*
X141977547Y-159955257D02*
X142168023Y-160002876D01*
X142168023Y-160002876D02*
X142263261Y-160050495D01*
X142263261Y-160050495D02*
X142358500Y-160145733D01*
X142358500Y-160145733D02*
X142406119Y-160288590D01*
X142406119Y-160288590D02*
X142406119Y-160526685D01*
X141501357Y-159574304D02*
X141453738Y-159526685D01*
X141453738Y-159526685D02*
X141406119Y-159431447D01*
X141406119Y-159431447D02*
X141406119Y-159193352D01*
X141406119Y-159193352D02*
X141453738Y-159098114D01*
X141453738Y-159098114D02*
X141501357Y-159050495D01*
X141501357Y-159050495D02*
X141596595Y-159002876D01*
X141596595Y-159002876D02*
X141691833Y-159002876D01*
X141691833Y-159002876D02*
X141834690Y-159050495D01*
X141834690Y-159050495D02*
X142406119Y-159621923D01*
X142406119Y-159621923D02*
X142406119Y-159002876D01*
X141406119Y-158383828D02*
X141406119Y-158288590D01*
X141406119Y-158288590D02*
X141453738Y-158193352D01*
X141453738Y-158193352D02*
X141501357Y-158145733D01*
X141501357Y-158145733D02*
X141596595Y-158098114D01*
X141596595Y-158098114D02*
X141787071Y-158050495D01*
X141787071Y-158050495D02*
X142025166Y-158050495D01*
X142025166Y-158050495D02*
X142215642Y-158098114D01*
X142215642Y-158098114D02*
X142310880Y-158145733D01*
X142310880Y-158145733D02*
X142358500Y-158193352D01*
X142358500Y-158193352D02*
X142406119Y-158288590D01*
X142406119Y-158288590D02*
X142406119Y-158383828D01*
X142406119Y-158383828D02*
X142358500Y-158479066D01*
X142358500Y-158479066D02*
X142310880Y-158526685D01*
X142310880Y-158526685D02*
X142215642Y-158574304D01*
X142215642Y-158574304D02*
X142025166Y-158621923D01*
X142025166Y-158621923D02*
X141787071Y-158621923D01*
X141787071Y-158621923D02*
X141596595Y-158574304D01*
X141596595Y-158574304D02*
X141501357Y-158526685D01*
X141501357Y-158526685D02*
X141453738Y-158479066D01*
X141453738Y-158479066D02*
X141406119Y-158383828D01*
X273374919Y-160526685D02*
X272374919Y-160526685D01*
X272374919Y-160526685D02*
X272374919Y-160288590D01*
X272374919Y-160288590D02*
X272422538Y-160145733D01*
X272422538Y-160145733D02*
X272517776Y-160050495D01*
X272517776Y-160050495D02*
X272613014Y-160002876D01*
X272613014Y-160002876D02*
X272803490Y-159955257D01*
X272803490Y-159955257D02*
X272946347Y-159955257D01*
X272946347Y-159955257D02*
X273136823Y-160002876D01*
X273136823Y-160002876D02*
X273232061Y-160050495D01*
X273232061Y-160050495D02*
X273327300Y-160145733D01*
X273327300Y-160145733D02*
X273374919Y-160288590D01*
X273374919Y-160288590D02*
X273374919Y-160526685D01*
X272470157Y-159574304D02*
X272422538Y-159526685D01*
X272422538Y-159526685D02*
X272374919Y-159431447D01*
X272374919Y-159431447D02*
X272374919Y-159193352D01*
X272374919Y-159193352D02*
X272422538Y-159098114D01*
X272422538Y-159098114D02*
X272470157Y-159050495D01*
X272470157Y-159050495D02*
X272565395Y-159002876D01*
X272565395Y-159002876D02*
X272660633Y-159002876D01*
X272660633Y-159002876D02*
X272803490Y-159050495D01*
X272803490Y-159050495D02*
X273374919Y-159621923D01*
X273374919Y-159621923D02*
X273374919Y-159002876D01*
X272803490Y-158431447D02*
X272755871Y-158526685D01*
X272755871Y-158526685D02*
X272708252Y-158574304D01*
X272708252Y-158574304D02*
X272613014Y-158621923D01*
X272613014Y-158621923D02*
X272565395Y-158621923D01*
X272565395Y-158621923D02*
X272470157Y-158574304D01*
X272470157Y-158574304D02*
X272422538Y-158526685D01*
X272422538Y-158526685D02*
X272374919Y-158431447D01*
X272374919Y-158431447D02*
X272374919Y-158240971D01*
X272374919Y-158240971D02*
X272422538Y-158145733D01*
X272422538Y-158145733D02*
X272470157Y-158098114D01*
X272470157Y-158098114D02*
X272565395Y-158050495D01*
X272565395Y-158050495D02*
X272613014Y-158050495D01*
X272613014Y-158050495D02*
X272708252Y-158098114D01*
X272708252Y-158098114D02*
X272755871Y-158145733D01*
X272755871Y-158145733D02*
X272803490Y-158240971D01*
X272803490Y-158240971D02*
X272803490Y-158431447D01*
X272803490Y-158431447D02*
X272851109Y-158526685D01*
X272851109Y-158526685D02*
X272898728Y-158574304D01*
X272898728Y-158574304D02*
X272993966Y-158621923D01*
X272993966Y-158621923D02*
X273184442Y-158621923D01*
X273184442Y-158621923D02*
X273279680Y-158574304D01*
X273279680Y-158574304D02*
X273327300Y-158526685D01*
X273327300Y-158526685D02*
X273374919Y-158431447D01*
X273374919Y-158431447D02*
X273374919Y-158240971D01*
X273374919Y-158240971D02*
X273327300Y-158145733D01*
X273327300Y-158145733D02*
X273279680Y-158098114D01*
X273279680Y-158098114D02*
X273184442Y-158050495D01*
X273184442Y-158050495D02*
X272993966Y-158050495D01*
X272993966Y-158050495D02*
X272898728Y-158098114D01*
X272898728Y-158098114D02*
X272851109Y-158145733D01*
X272851109Y-158145733D02*
X272803490Y-158240971D01*
X66206119Y-160050494D02*
X65206119Y-160050494D01*
X65206119Y-160050494D02*
X65206119Y-159812399D01*
X65206119Y-159812399D02*
X65253738Y-159669542D01*
X65253738Y-159669542D02*
X65348976Y-159574304D01*
X65348976Y-159574304D02*
X65444214Y-159526685D01*
X65444214Y-159526685D02*
X65634690Y-159479066D01*
X65634690Y-159479066D02*
X65777547Y-159479066D01*
X65777547Y-159479066D02*
X65968023Y-159526685D01*
X65968023Y-159526685D02*
X66063261Y-159574304D01*
X66063261Y-159574304D02*
X66158500Y-159669542D01*
X66158500Y-159669542D02*
X66206119Y-159812399D01*
X66206119Y-159812399D02*
X66206119Y-160050494D01*
X65206119Y-158621923D02*
X65206119Y-158812399D01*
X65206119Y-158812399D02*
X65253738Y-158907637D01*
X65253738Y-158907637D02*
X65301357Y-158955256D01*
X65301357Y-158955256D02*
X65444214Y-159050494D01*
X65444214Y-159050494D02*
X65634690Y-159098113D01*
X65634690Y-159098113D02*
X66015642Y-159098113D01*
X66015642Y-159098113D02*
X66110880Y-159050494D01*
X66110880Y-159050494D02*
X66158500Y-159002875D01*
X66158500Y-159002875D02*
X66206119Y-158907637D01*
X66206119Y-158907637D02*
X66206119Y-158717161D01*
X66206119Y-158717161D02*
X66158500Y-158621923D01*
X66158500Y-158621923D02*
X66110880Y-158574304D01*
X66110880Y-158574304D02*
X66015642Y-158526685D01*
X66015642Y-158526685D02*
X65777547Y-158526685D01*
X65777547Y-158526685D02*
X65682309Y-158574304D01*
X65682309Y-158574304D02*
X65634690Y-158621923D01*
X65634690Y-158621923D02*
X65587071Y-158717161D01*
X65587071Y-158717161D02*
X65587071Y-158907637D01*
X65587071Y-158907637D02*
X65634690Y-159002875D01*
X65634690Y-159002875D02*
X65682309Y-159050494D01*
X65682309Y-159050494D02*
X65777547Y-159098113D01*
X123356119Y-179576685D02*
X122356119Y-179576685D01*
X122356119Y-179576685D02*
X122356119Y-179338590D01*
X122356119Y-179338590D02*
X122403738Y-179195733D01*
X122403738Y-179195733D02*
X122498976Y-179100495D01*
X122498976Y-179100495D02*
X122594214Y-179052876D01*
X122594214Y-179052876D02*
X122784690Y-179005257D01*
X122784690Y-179005257D02*
X122927547Y-179005257D01*
X122927547Y-179005257D02*
X123118023Y-179052876D01*
X123118023Y-179052876D02*
X123213261Y-179100495D01*
X123213261Y-179100495D02*
X123308500Y-179195733D01*
X123308500Y-179195733D02*
X123356119Y-179338590D01*
X123356119Y-179338590D02*
X123356119Y-179576685D01*
X123356119Y-178052876D02*
X123356119Y-178624304D01*
X123356119Y-178338590D02*
X122356119Y-178338590D01*
X122356119Y-178338590D02*
X122498976Y-178433828D01*
X122498976Y-178433828D02*
X122594214Y-178529066D01*
X122594214Y-178529066D02*
X122641833Y-178624304D01*
X122356119Y-177719542D02*
X122356119Y-177100495D01*
X122356119Y-177100495D02*
X122737071Y-177433828D01*
X122737071Y-177433828D02*
X122737071Y-177290971D01*
X122737071Y-177290971D02*
X122784690Y-177195733D01*
X122784690Y-177195733D02*
X122832309Y-177148114D01*
X122832309Y-177148114D02*
X122927547Y-177100495D01*
X122927547Y-177100495D02*
X123165642Y-177100495D01*
X123165642Y-177100495D02*
X123260880Y-177148114D01*
X123260880Y-177148114D02*
X123308500Y-177195733D01*
X123308500Y-177195733D02*
X123356119Y-177290971D01*
X123356119Y-177290971D02*
X123356119Y-177576685D01*
X123356119Y-177576685D02*
X123308500Y-177671923D01*
X123308500Y-177671923D02*
X123260880Y-177719542D01*
X142406119Y-179576685D02*
X141406119Y-179576685D01*
X141406119Y-179576685D02*
X141406119Y-179338590D01*
X141406119Y-179338590D02*
X141453738Y-179195733D01*
X141453738Y-179195733D02*
X141548976Y-179100495D01*
X141548976Y-179100495D02*
X141644214Y-179052876D01*
X141644214Y-179052876D02*
X141834690Y-179005257D01*
X141834690Y-179005257D02*
X141977547Y-179005257D01*
X141977547Y-179005257D02*
X142168023Y-179052876D01*
X142168023Y-179052876D02*
X142263261Y-179100495D01*
X142263261Y-179100495D02*
X142358500Y-179195733D01*
X142358500Y-179195733D02*
X142406119Y-179338590D01*
X142406119Y-179338590D02*
X142406119Y-179576685D01*
X142406119Y-178052876D02*
X142406119Y-178624304D01*
X142406119Y-178338590D02*
X141406119Y-178338590D01*
X141406119Y-178338590D02*
X141548976Y-178433828D01*
X141548976Y-178433828D02*
X141644214Y-178529066D01*
X141644214Y-178529066D02*
X141691833Y-178624304D01*
X141406119Y-177719542D02*
X141406119Y-177052876D01*
X141406119Y-177052876D02*
X142406119Y-177481447D01*
X85256119Y-141000494D02*
X84256119Y-141000494D01*
X84256119Y-141000494D02*
X84256119Y-140762399D01*
X84256119Y-140762399D02*
X84303738Y-140619542D01*
X84303738Y-140619542D02*
X84398976Y-140524304D01*
X84398976Y-140524304D02*
X84494214Y-140476685D01*
X84494214Y-140476685D02*
X84684690Y-140429066D01*
X84684690Y-140429066D02*
X84827547Y-140429066D01*
X84827547Y-140429066D02*
X85018023Y-140476685D01*
X85018023Y-140476685D02*
X85113261Y-140524304D01*
X85113261Y-140524304D02*
X85208500Y-140619542D01*
X85208500Y-140619542D02*
X85256119Y-140762399D01*
X85256119Y-140762399D02*
X85256119Y-141000494D01*
X84684690Y-139857637D02*
X84637071Y-139952875D01*
X84637071Y-139952875D02*
X84589452Y-140000494D01*
X84589452Y-140000494D02*
X84494214Y-140048113D01*
X84494214Y-140048113D02*
X84446595Y-140048113D01*
X84446595Y-140048113D02*
X84351357Y-140000494D01*
X84351357Y-140000494D02*
X84303738Y-139952875D01*
X84303738Y-139952875D02*
X84256119Y-139857637D01*
X84256119Y-139857637D02*
X84256119Y-139667161D01*
X84256119Y-139667161D02*
X84303738Y-139571923D01*
X84303738Y-139571923D02*
X84351357Y-139524304D01*
X84351357Y-139524304D02*
X84446595Y-139476685D01*
X84446595Y-139476685D02*
X84494214Y-139476685D01*
X84494214Y-139476685D02*
X84589452Y-139524304D01*
X84589452Y-139524304D02*
X84637071Y-139571923D01*
X84637071Y-139571923D02*
X84684690Y-139667161D01*
X84684690Y-139667161D02*
X84684690Y-139857637D01*
X84684690Y-139857637D02*
X84732309Y-139952875D01*
X84732309Y-139952875D02*
X84779928Y-140000494D01*
X84779928Y-140000494D02*
X84875166Y-140048113D01*
X84875166Y-140048113D02*
X85065642Y-140048113D01*
X85065642Y-140048113D02*
X85160880Y-140000494D01*
X85160880Y-140000494D02*
X85208500Y-139952875D01*
X85208500Y-139952875D02*
X85256119Y-139857637D01*
X85256119Y-139857637D02*
X85256119Y-139667161D01*
X85256119Y-139667161D02*
X85208500Y-139571923D01*
X85208500Y-139571923D02*
X85160880Y-139524304D01*
X85160880Y-139524304D02*
X85065642Y-139476685D01*
X85065642Y-139476685D02*
X84875166Y-139476685D01*
X84875166Y-139476685D02*
X84779928Y-139524304D01*
X84779928Y-139524304D02*
X84732309Y-139571923D01*
X84732309Y-139571923D02*
X84684690Y-139667161D01*
X311474919Y-160526685D02*
X310474919Y-160526685D01*
X310474919Y-160526685D02*
X310474919Y-160288590D01*
X310474919Y-160288590D02*
X310522538Y-160145733D01*
X310522538Y-160145733D02*
X310617776Y-160050495D01*
X310617776Y-160050495D02*
X310713014Y-160002876D01*
X310713014Y-160002876D02*
X310903490Y-159955257D01*
X310903490Y-159955257D02*
X311046347Y-159955257D01*
X311046347Y-159955257D02*
X311236823Y-160002876D01*
X311236823Y-160002876D02*
X311332061Y-160050495D01*
X311332061Y-160050495D02*
X311427300Y-160145733D01*
X311427300Y-160145733D02*
X311474919Y-160288590D01*
X311474919Y-160288590D02*
X311474919Y-160526685D01*
X310474919Y-159621923D02*
X310474919Y-159002876D01*
X310474919Y-159002876D02*
X310855871Y-159336209D01*
X310855871Y-159336209D02*
X310855871Y-159193352D01*
X310855871Y-159193352D02*
X310903490Y-159098114D01*
X310903490Y-159098114D02*
X310951109Y-159050495D01*
X310951109Y-159050495D02*
X311046347Y-159002876D01*
X311046347Y-159002876D02*
X311284442Y-159002876D01*
X311284442Y-159002876D02*
X311379680Y-159050495D01*
X311379680Y-159050495D02*
X311427300Y-159098114D01*
X311427300Y-159098114D02*
X311474919Y-159193352D01*
X311474919Y-159193352D02*
X311474919Y-159479066D01*
X311474919Y-159479066D02*
X311427300Y-159574304D01*
X311427300Y-159574304D02*
X311379680Y-159621923D01*
X310474919Y-158145733D02*
X310474919Y-158336209D01*
X310474919Y-158336209D02*
X310522538Y-158431447D01*
X310522538Y-158431447D02*
X310570157Y-158479066D01*
X310570157Y-158479066D02*
X310713014Y-158574304D01*
X310713014Y-158574304D02*
X310903490Y-158621923D01*
X310903490Y-158621923D02*
X311284442Y-158621923D01*
X311284442Y-158621923D02*
X311379680Y-158574304D01*
X311379680Y-158574304D02*
X311427300Y-158526685D01*
X311427300Y-158526685D02*
X311474919Y-158431447D01*
X311474919Y-158431447D02*
X311474919Y-158240971D01*
X311474919Y-158240971D02*
X311427300Y-158145733D01*
X311427300Y-158145733D02*
X311379680Y-158098114D01*
X311379680Y-158098114D02*
X311284442Y-158050495D01*
X311284442Y-158050495D02*
X311046347Y-158050495D01*
X311046347Y-158050495D02*
X310951109Y-158098114D01*
X310951109Y-158098114D02*
X310903490Y-158145733D01*
X310903490Y-158145733D02*
X310855871Y-158240971D01*
X310855871Y-158240971D02*
X310855871Y-158431447D01*
X310855871Y-158431447D02*
X310903490Y-158526685D01*
X310903490Y-158526685D02*
X310951109Y-158574304D01*
X310951109Y-158574304D02*
X311046347Y-158621923D01*
X273374919Y-141476685D02*
X272374919Y-141476685D01*
X272374919Y-141476685D02*
X272374919Y-141238590D01*
X272374919Y-141238590D02*
X272422538Y-141095733D01*
X272422538Y-141095733D02*
X272517776Y-141000495D01*
X272517776Y-141000495D02*
X272613014Y-140952876D01*
X272613014Y-140952876D02*
X272803490Y-140905257D01*
X272803490Y-140905257D02*
X272946347Y-140905257D01*
X272946347Y-140905257D02*
X273136823Y-140952876D01*
X273136823Y-140952876D02*
X273232061Y-141000495D01*
X273232061Y-141000495D02*
X273327300Y-141095733D01*
X273327300Y-141095733D02*
X273374919Y-141238590D01*
X273374919Y-141238590D02*
X273374919Y-141476685D01*
X272470157Y-140524304D02*
X272422538Y-140476685D01*
X272422538Y-140476685D02*
X272374919Y-140381447D01*
X272374919Y-140381447D02*
X272374919Y-140143352D01*
X272374919Y-140143352D02*
X272422538Y-140048114D01*
X272422538Y-140048114D02*
X272470157Y-140000495D01*
X272470157Y-140000495D02*
X272565395Y-139952876D01*
X272565395Y-139952876D02*
X272660633Y-139952876D01*
X272660633Y-139952876D02*
X272803490Y-140000495D01*
X272803490Y-140000495D02*
X273374919Y-140571923D01*
X273374919Y-140571923D02*
X273374919Y-139952876D01*
X272374919Y-139619542D02*
X272374919Y-138952876D01*
X272374919Y-138952876D02*
X273374919Y-139381447D01*
X47156119Y-141000494D02*
X46156119Y-141000494D01*
X46156119Y-141000494D02*
X46156119Y-140762399D01*
X46156119Y-140762399D02*
X46203738Y-140619542D01*
X46203738Y-140619542D02*
X46298976Y-140524304D01*
X46298976Y-140524304D02*
X46394214Y-140476685D01*
X46394214Y-140476685D02*
X46584690Y-140429066D01*
X46584690Y-140429066D02*
X46727547Y-140429066D01*
X46727547Y-140429066D02*
X46918023Y-140476685D01*
X46918023Y-140476685D02*
X47013261Y-140524304D01*
X47013261Y-140524304D02*
X47108500Y-140619542D01*
X47108500Y-140619542D02*
X47156119Y-140762399D01*
X47156119Y-140762399D02*
X47156119Y-141000494D01*
X46251357Y-140048113D02*
X46203738Y-140000494D01*
X46203738Y-140000494D02*
X46156119Y-139905256D01*
X46156119Y-139905256D02*
X46156119Y-139667161D01*
X46156119Y-139667161D02*
X46203738Y-139571923D01*
X46203738Y-139571923D02*
X46251357Y-139524304D01*
X46251357Y-139524304D02*
X46346595Y-139476685D01*
X46346595Y-139476685D02*
X46441833Y-139476685D01*
X46441833Y-139476685D02*
X46584690Y-139524304D01*
X46584690Y-139524304D02*
X47156119Y-140095732D01*
X47156119Y-140095732D02*
X47156119Y-139476685D01*
X123356119Y-122426685D02*
X122356119Y-122426685D01*
X122356119Y-122426685D02*
X122356119Y-122188590D01*
X122356119Y-122188590D02*
X122403738Y-122045733D01*
X122403738Y-122045733D02*
X122498976Y-121950495D01*
X122498976Y-121950495D02*
X122594214Y-121902876D01*
X122594214Y-121902876D02*
X122784690Y-121855257D01*
X122784690Y-121855257D02*
X122927547Y-121855257D01*
X122927547Y-121855257D02*
X123118023Y-121902876D01*
X123118023Y-121902876D02*
X123213261Y-121950495D01*
X123213261Y-121950495D02*
X123308500Y-122045733D01*
X123308500Y-122045733D02*
X123356119Y-122188590D01*
X123356119Y-122188590D02*
X123356119Y-122426685D01*
X123356119Y-120902876D02*
X123356119Y-121474304D01*
X123356119Y-121188590D02*
X122356119Y-121188590D01*
X122356119Y-121188590D02*
X122498976Y-121283828D01*
X122498976Y-121283828D02*
X122594214Y-121379066D01*
X122594214Y-121379066D02*
X122641833Y-121474304D01*
X122689452Y-120045733D02*
X123356119Y-120045733D01*
X122308500Y-120283828D02*
X123022785Y-120521923D01*
X123022785Y-120521923D02*
X123022785Y-119902876D01*
X254324919Y-179576685D02*
X253324919Y-179576685D01*
X253324919Y-179576685D02*
X253324919Y-179338590D01*
X253324919Y-179338590D02*
X253372538Y-179195733D01*
X253372538Y-179195733D02*
X253467776Y-179100495D01*
X253467776Y-179100495D02*
X253563014Y-179052876D01*
X253563014Y-179052876D02*
X253753490Y-179005257D01*
X253753490Y-179005257D02*
X253896347Y-179005257D01*
X253896347Y-179005257D02*
X254086823Y-179052876D01*
X254086823Y-179052876D02*
X254182061Y-179100495D01*
X254182061Y-179100495D02*
X254277300Y-179195733D01*
X254277300Y-179195733D02*
X254324919Y-179338590D01*
X254324919Y-179338590D02*
X254324919Y-179576685D01*
X253420157Y-178624304D02*
X253372538Y-178576685D01*
X253372538Y-178576685D02*
X253324919Y-178481447D01*
X253324919Y-178481447D02*
X253324919Y-178243352D01*
X253324919Y-178243352D02*
X253372538Y-178148114D01*
X253372538Y-178148114D02*
X253420157Y-178100495D01*
X253420157Y-178100495D02*
X253515395Y-178052876D01*
X253515395Y-178052876D02*
X253610633Y-178052876D01*
X253610633Y-178052876D02*
X253753490Y-178100495D01*
X253753490Y-178100495D02*
X254324919Y-178671923D01*
X254324919Y-178671923D02*
X254324919Y-178052876D01*
X254324919Y-177576685D02*
X254324919Y-177386209D01*
X254324919Y-177386209D02*
X254277300Y-177290971D01*
X254277300Y-177290971D02*
X254229680Y-177243352D01*
X254229680Y-177243352D02*
X254086823Y-177148114D01*
X254086823Y-177148114D02*
X253896347Y-177100495D01*
X253896347Y-177100495D02*
X253515395Y-177100495D01*
X253515395Y-177100495D02*
X253420157Y-177148114D01*
X253420157Y-177148114D02*
X253372538Y-177195733D01*
X253372538Y-177195733D02*
X253324919Y-177290971D01*
X253324919Y-177290971D02*
X253324919Y-177481447D01*
X253324919Y-177481447D02*
X253372538Y-177576685D01*
X253372538Y-177576685D02*
X253420157Y-177624304D01*
X253420157Y-177624304D02*
X253515395Y-177671923D01*
X253515395Y-177671923D02*
X253753490Y-177671923D01*
X253753490Y-177671923D02*
X253848728Y-177624304D01*
X253848728Y-177624304D02*
X253896347Y-177576685D01*
X253896347Y-177576685D02*
X253943966Y-177481447D01*
X253943966Y-177481447D02*
X253943966Y-177290971D01*
X253943966Y-177290971D02*
X253896347Y-177195733D01*
X253896347Y-177195733D02*
X253848728Y-177148114D01*
X253848728Y-177148114D02*
X253753490Y-177100495D01*
X292424919Y-141476685D02*
X291424919Y-141476685D01*
X291424919Y-141476685D02*
X291424919Y-141238590D01*
X291424919Y-141238590D02*
X291472538Y-141095733D01*
X291472538Y-141095733D02*
X291567776Y-141000495D01*
X291567776Y-141000495D02*
X291663014Y-140952876D01*
X291663014Y-140952876D02*
X291853490Y-140905257D01*
X291853490Y-140905257D02*
X291996347Y-140905257D01*
X291996347Y-140905257D02*
X292186823Y-140952876D01*
X292186823Y-140952876D02*
X292282061Y-141000495D01*
X292282061Y-141000495D02*
X292377300Y-141095733D01*
X292377300Y-141095733D02*
X292424919Y-141238590D01*
X292424919Y-141238590D02*
X292424919Y-141476685D01*
X291424919Y-140571923D02*
X291424919Y-139952876D01*
X291424919Y-139952876D02*
X291805871Y-140286209D01*
X291805871Y-140286209D02*
X291805871Y-140143352D01*
X291805871Y-140143352D02*
X291853490Y-140048114D01*
X291853490Y-140048114D02*
X291901109Y-140000495D01*
X291901109Y-140000495D02*
X291996347Y-139952876D01*
X291996347Y-139952876D02*
X292234442Y-139952876D01*
X292234442Y-139952876D02*
X292329680Y-140000495D01*
X292329680Y-140000495D02*
X292377300Y-140048114D01*
X292377300Y-140048114D02*
X292424919Y-140143352D01*
X292424919Y-140143352D02*
X292424919Y-140429066D01*
X292424919Y-140429066D02*
X292377300Y-140524304D01*
X292377300Y-140524304D02*
X292329680Y-140571923D01*
X292424919Y-139000495D02*
X292424919Y-139571923D01*
X292424919Y-139286209D02*
X291424919Y-139286209D01*
X291424919Y-139286209D02*
X291567776Y-139381447D01*
X291567776Y-139381447D02*
X291663014Y-139476685D01*
X291663014Y-139476685D02*
X291710633Y-139571923D01*
X254324919Y-141476685D02*
X253324919Y-141476685D01*
X253324919Y-141476685D02*
X253324919Y-141238590D01*
X253324919Y-141238590D02*
X253372538Y-141095733D01*
X253372538Y-141095733D02*
X253467776Y-141000495D01*
X253467776Y-141000495D02*
X253563014Y-140952876D01*
X253563014Y-140952876D02*
X253753490Y-140905257D01*
X253753490Y-140905257D02*
X253896347Y-140905257D01*
X253896347Y-140905257D02*
X254086823Y-140952876D01*
X254086823Y-140952876D02*
X254182061Y-141000495D01*
X254182061Y-141000495D02*
X254277300Y-141095733D01*
X254277300Y-141095733D02*
X254324919Y-141238590D01*
X254324919Y-141238590D02*
X254324919Y-141476685D01*
X253420157Y-140524304D02*
X253372538Y-140476685D01*
X253372538Y-140476685D02*
X253324919Y-140381447D01*
X253324919Y-140381447D02*
X253324919Y-140143352D01*
X253324919Y-140143352D02*
X253372538Y-140048114D01*
X253372538Y-140048114D02*
X253420157Y-140000495D01*
X253420157Y-140000495D02*
X253515395Y-139952876D01*
X253515395Y-139952876D02*
X253610633Y-139952876D01*
X253610633Y-139952876D02*
X253753490Y-140000495D01*
X253753490Y-140000495D02*
X254324919Y-140571923D01*
X254324919Y-140571923D02*
X254324919Y-139952876D01*
X253324919Y-139619542D02*
X253324919Y-139000495D01*
X253324919Y-139000495D02*
X253705871Y-139333828D01*
X253705871Y-139333828D02*
X253705871Y-139190971D01*
X253705871Y-139190971D02*
X253753490Y-139095733D01*
X253753490Y-139095733D02*
X253801109Y-139048114D01*
X253801109Y-139048114D02*
X253896347Y-139000495D01*
X253896347Y-139000495D02*
X254134442Y-139000495D01*
X254134442Y-139000495D02*
X254229680Y-139048114D01*
X254229680Y-139048114D02*
X254277300Y-139095733D01*
X254277300Y-139095733D02*
X254324919Y-139190971D01*
X254324919Y-139190971D02*
X254324919Y-139476685D01*
X254324919Y-139476685D02*
X254277300Y-139571923D01*
X254277300Y-139571923D02*
X254229680Y-139619542D01*
X330524919Y-160526685D02*
X329524919Y-160526685D01*
X329524919Y-160526685D02*
X329524919Y-160288590D01*
X329524919Y-160288590D02*
X329572538Y-160145733D01*
X329572538Y-160145733D02*
X329667776Y-160050495D01*
X329667776Y-160050495D02*
X329763014Y-160002876D01*
X329763014Y-160002876D02*
X329953490Y-159955257D01*
X329953490Y-159955257D02*
X330096347Y-159955257D01*
X330096347Y-159955257D02*
X330286823Y-160002876D01*
X330286823Y-160002876D02*
X330382061Y-160050495D01*
X330382061Y-160050495D02*
X330477300Y-160145733D01*
X330477300Y-160145733D02*
X330524919Y-160288590D01*
X330524919Y-160288590D02*
X330524919Y-160526685D01*
X329524919Y-159621923D02*
X329524919Y-159002876D01*
X329524919Y-159002876D02*
X329905871Y-159336209D01*
X329905871Y-159336209D02*
X329905871Y-159193352D01*
X329905871Y-159193352D02*
X329953490Y-159098114D01*
X329953490Y-159098114D02*
X330001109Y-159050495D01*
X330001109Y-159050495D02*
X330096347Y-159002876D01*
X330096347Y-159002876D02*
X330334442Y-159002876D01*
X330334442Y-159002876D02*
X330429680Y-159050495D01*
X330429680Y-159050495D02*
X330477300Y-159098114D01*
X330477300Y-159098114D02*
X330524919Y-159193352D01*
X330524919Y-159193352D02*
X330524919Y-159479066D01*
X330524919Y-159479066D02*
X330477300Y-159574304D01*
X330477300Y-159574304D02*
X330429680Y-159621923D01*
X330524919Y-158526685D02*
X330524919Y-158336209D01*
X330524919Y-158336209D02*
X330477300Y-158240971D01*
X330477300Y-158240971D02*
X330429680Y-158193352D01*
X330429680Y-158193352D02*
X330286823Y-158098114D01*
X330286823Y-158098114D02*
X330096347Y-158050495D01*
X330096347Y-158050495D02*
X329715395Y-158050495D01*
X329715395Y-158050495D02*
X329620157Y-158098114D01*
X329620157Y-158098114D02*
X329572538Y-158145733D01*
X329572538Y-158145733D02*
X329524919Y-158240971D01*
X329524919Y-158240971D02*
X329524919Y-158431447D01*
X329524919Y-158431447D02*
X329572538Y-158526685D01*
X329572538Y-158526685D02*
X329620157Y-158574304D01*
X329620157Y-158574304D02*
X329715395Y-158621923D01*
X329715395Y-158621923D02*
X329953490Y-158621923D01*
X329953490Y-158621923D02*
X330048728Y-158574304D01*
X330048728Y-158574304D02*
X330096347Y-158526685D01*
X330096347Y-158526685D02*
X330143966Y-158431447D01*
X330143966Y-158431447D02*
X330143966Y-158240971D01*
X330143966Y-158240971D02*
X330096347Y-158145733D01*
X330096347Y-158145733D02*
X330048728Y-158098114D01*
X330048728Y-158098114D02*
X329953490Y-158050495D01*
X104306119Y-141476685D02*
X103306119Y-141476685D01*
X103306119Y-141476685D02*
X103306119Y-141238590D01*
X103306119Y-141238590D02*
X103353738Y-141095733D01*
X103353738Y-141095733D02*
X103448976Y-141000495D01*
X103448976Y-141000495D02*
X103544214Y-140952876D01*
X103544214Y-140952876D02*
X103734690Y-140905257D01*
X103734690Y-140905257D02*
X103877547Y-140905257D01*
X103877547Y-140905257D02*
X104068023Y-140952876D01*
X104068023Y-140952876D02*
X104163261Y-141000495D01*
X104163261Y-141000495D02*
X104258500Y-141095733D01*
X104258500Y-141095733D02*
X104306119Y-141238590D01*
X104306119Y-141238590D02*
X104306119Y-141476685D01*
X104306119Y-139952876D02*
X104306119Y-140524304D01*
X104306119Y-140238590D02*
X103306119Y-140238590D01*
X103306119Y-140238590D02*
X103448976Y-140333828D01*
X103448976Y-140333828D02*
X103544214Y-140429066D01*
X103544214Y-140429066D02*
X103591833Y-140524304D01*
X104306119Y-139000495D02*
X104306119Y-139571923D01*
X104306119Y-139286209D02*
X103306119Y-139286209D01*
X103306119Y-139286209D02*
X103448976Y-139381447D01*
X103448976Y-139381447D02*
X103544214Y-139476685D01*
X103544214Y-139476685D02*
X103591833Y-139571923D01*
X47156119Y-121950494D02*
X46156119Y-121950494D01*
X46156119Y-121950494D02*
X46156119Y-121712399D01*
X46156119Y-121712399D02*
X46203738Y-121569542D01*
X46203738Y-121569542D02*
X46298976Y-121474304D01*
X46298976Y-121474304D02*
X46394214Y-121426685D01*
X46394214Y-121426685D02*
X46584690Y-121379066D01*
X46584690Y-121379066D02*
X46727547Y-121379066D01*
X46727547Y-121379066D02*
X46918023Y-121426685D01*
X46918023Y-121426685D02*
X47013261Y-121474304D01*
X47013261Y-121474304D02*
X47108500Y-121569542D01*
X47108500Y-121569542D02*
X47156119Y-121712399D01*
X47156119Y-121712399D02*
X47156119Y-121950494D01*
X47156119Y-120426685D02*
X47156119Y-120998113D01*
X47156119Y-120712399D02*
X46156119Y-120712399D01*
X46156119Y-120712399D02*
X46298976Y-120807637D01*
X46298976Y-120807637D02*
X46394214Y-120902875D01*
X46394214Y-120902875D02*
X46441833Y-120998113D01*
X142406119Y-122426685D02*
X141406119Y-122426685D01*
X141406119Y-122426685D02*
X141406119Y-122188590D01*
X141406119Y-122188590D02*
X141453738Y-122045733D01*
X141453738Y-122045733D02*
X141548976Y-121950495D01*
X141548976Y-121950495D02*
X141644214Y-121902876D01*
X141644214Y-121902876D02*
X141834690Y-121855257D01*
X141834690Y-121855257D02*
X141977547Y-121855257D01*
X141977547Y-121855257D02*
X142168023Y-121902876D01*
X142168023Y-121902876D02*
X142263261Y-121950495D01*
X142263261Y-121950495D02*
X142358500Y-122045733D01*
X142358500Y-122045733D02*
X142406119Y-122188590D01*
X142406119Y-122188590D02*
X142406119Y-122426685D01*
X142406119Y-120902876D02*
X142406119Y-121474304D01*
X142406119Y-121188590D02*
X141406119Y-121188590D01*
X141406119Y-121188590D02*
X141548976Y-121283828D01*
X141548976Y-121283828D02*
X141644214Y-121379066D01*
X141644214Y-121379066D02*
X141691833Y-121474304D01*
X141834690Y-120331447D02*
X141787071Y-120426685D01*
X141787071Y-120426685D02*
X141739452Y-120474304D01*
X141739452Y-120474304D02*
X141644214Y-120521923D01*
X141644214Y-120521923D02*
X141596595Y-120521923D01*
X141596595Y-120521923D02*
X141501357Y-120474304D01*
X141501357Y-120474304D02*
X141453738Y-120426685D01*
X141453738Y-120426685D02*
X141406119Y-120331447D01*
X141406119Y-120331447D02*
X141406119Y-120140971D01*
X141406119Y-120140971D02*
X141453738Y-120045733D01*
X141453738Y-120045733D02*
X141501357Y-119998114D01*
X141501357Y-119998114D02*
X141596595Y-119950495D01*
X141596595Y-119950495D02*
X141644214Y-119950495D01*
X141644214Y-119950495D02*
X141739452Y-119998114D01*
X141739452Y-119998114D02*
X141787071Y-120045733D01*
X141787071Y-120045733D02*
X141834690Y-120140971D01*
X141834690Y-120140971D02*
X141834690Y-120331447D01*
X141834690Y-120331447D02*
X141882309Y-120426685D01*
X141882309Y-120426685D02*
X141929928Y-120474304D01*
X141929928Y-120474304D02*
X142025166Y-120521923D01*
X142025166Y-120521923D02*
X142215642Y-120521923D01*
X142215642Y-120521923D02*
X142310880Y-120474304D01*
X142310880Y-120474304D02*
X142358500Y-120426685D01*
X142358500Y-120426685D02*
X142406119Y-120331447D01*
X142406119Y-120331447D02*
X142406119Y-120140971D01*
X142406119Y-120140971D02*
X142358500Y-120045733D01*
X142358500Y-120045733D02*
X142310880Y-119998114D01*
X142310880Y-119998114D02*
X142215642Y-119950495D01*
X142215642Y-119950495D02*
X142025166Y-119950495D01*
X142025166Y-119950495D02*
X141929928Y-119998114D01*
X141929928Y-119998114D02*
X141882309Y-120045733D01*
X141882309Y-120045733D02*
X141834690Y-120140971D01*
X349574919Y-141476685D02*
X348574919Y-141476685D01*
X348574919Y-141476685D02*
X348574919Y-141238590D01*
X348574919Y-141238590D02*
X348622538Y-141095733D01*
X348622538Y-141095733D02*
X348717776Y-141000495D01*
X348717776Y-141000495D02*
X348813014Y-140952876D01*
X348813014Y-140952876D02*
X349003490Y-140905257D01*
X349003490Y-140905257D02*
X349146347Y-140905257D01*
X349146347Y-140905257D02*
X349336823Y-140952876D01*
X349336823Y-140952876D02*
X349432061Y-141000495D01*
X349432061Y-141000495D02*
X349527300Y-141095733D01*
X349527300Y-141095733D02*
X349574919Y-141238590D01*
X349574919Y-141238590D02*
X349574919Y-141476685D01*
X348908252Y-140048114D02*
X349574919Y-140048114D01*
X348527300Y-140286209D02*
X349241585Y-140524304D01*
X349241585Y-140524304D02*
X349241585Y-139905257D01*
X349574919Y-139000495D02*
X349574919Y-139571923D01*
X349574919Y-139286209D02*
X348574919Y-139286209D01*
X348574919Y-139286209D02*
X348717776Y-139381447D01*
X348717776Y-139381447D02*
X348813014Y-139476685D01*
X348813014Y-139476685D02*
X348860633Y-139571923D01*
X273374919Y-179576685D02*
X272374919Y-179576685D01*
X272374919Y-179576685D02*
X272374919Y-179338590D01*
X272374919Y-179338590D02*
X272422538Y-179195733D01*
X272422538Y-179195733D02*
X272517776Y-179100495D01*
X272517776Y-179100495D02*
X272613014Y-179052876D01*
X272613014Y-179052876D02*
X272803490Y-179005257D01*
X272803490Y-179005257D02*
X272946347Y-179005257D01*
X272946347Y-179005257D02*
X273136823Y-179052876D01*
X273136823Y-179052876D02*
X273232061Y-179100495D01*
X273232061Y-179100495D02*
X273327300Y-179195733D01*
X273327300Y-179195733D02*
X273374919Y-179338590D01*
X273374919Y-179338590D02*
X273374919Y-179576685D01*
X272374919Y-178671923D02*
X272374919Y-178052876D01*
X272374919Y-178052876D02*
X272755871Y-178386209D01*
X272755871Y-178386209D02*
X272755871Y-178243352D01*
X272755871Y-178243352D02*
X272803490Y-178148114D01*
X272803490Y-178148114D02*
X272851109Y-178100495D01*
X272851109Y-178100495D02*
X272946347Y-178052876D01*
X272946347Y-178052876D02*
X273184442Y-178052876D01*
X273184442Y-178052876D02*
X273279680Y-178100495D01*
X273279680Y-178100495D02*
X273327300Y-178148114D01*
X273327300Y-178148114D02*
X273374919Y-178243352D01*
X273374919Y-178243352D02*
X273374919Y-178529066D01*
X273374919Y-178529066D02*
X273327300Y-178624304D01*
X273327300Y-178624304D02*
X273279680Y-178671923D01*
X272374919Y-177719542D02*
X272374919Y-177100495D01*
X272374919Y-177100495D02*
X272755871Y-177433828D01*
X272755871Y-177433828D02*
X272755871Y-177290971D01*
X272755871Y-177290971D02*
X272803490Y-177195733D01*
X272803490Y-177195733D02*
X272851109Y-177148114D01*
X272851109Y-177148114D02*
X272946347Y-177100495D01*
X272946347Y-177100495D02*
X273184442Y-177100495D01*
X273184442Y-177100495D02*
X273279680Y-177148114D01*
X273279680Y-177148114D02*
X273327300Y-177195733D01*
X273327300Y-177195733D02*
X273374919Y-177290971D01*
X273374919Y-177290971D02*
X273374919Y-177576685D01*
X273374919Y-177576685D02*
X273327300Y-177671923D01*
X273327300Y-177671923D02*
X273279680Y-177719542D01*
X330524919Y-141476685D02*
X329524919Y-141476685D01*
X329524919Y-141476685D02*
X329524919Y-141238590D01*
X329524919Y-141238590D02*
X329572538Y-141095733D01*
X329572538Y-141095733D02*
X329667776Y-141000495D01*
X329667776Y-141000495D02*
X329763014Y-140952876D01*
X329763014Y-140952876D02*
X329953490Y-140905257D01*
X329953490Y-140905257D02*
X330096347Y-140905257D01*
X330096347Y-140905257D02*
X330286823Y-140952876D01*
X330286823Y-140952876D02*
X330382061Y-141000495D01*
X330382061Y-141000495D02*
X330477300Y-141095733D01*
X330477300Y-141095733D02*
X330524919Y-141238590D01*
X330524919Y-141238590D02*
X330524919Y-141476685D01*
X329524919Y-140571923D02*
X329524919Y-139952876D01*
X329524919Y-139952876D02*
X329905871Y-140286209D01*
X329905871Y-140286209D02*
X329905871Y-140143352D01*
X329905871Y-140143352D02*
X329953490Y-140048114D01*
X329953490Y-140048114D02*
X330001109Y-140000495D01*
X330001109Y-140000495D02*
X330096347Y-139952876D01*
X330096347Y-139952876D02*
X330334442Y-139952876D01*
X330334442Y-139952876D02*
X330429680Y-140000495D01*
X330429680Y-140000495D02*
X330477300Y-140048114D01*
X330477300Y-140048114D02*
X330524919Y-140143352D01*
X330524919Y-140143352D02*
X330524919Y-140429066D01*
X330524919Y-140429066D02*
X330477300Y-140524304D01*
X330477300Y-140524304D02*
X330429680Y-140571923D01*
X329953490Y-139381447D02*
X329905871Y-139476685D01*
X329905871Y-139476685D02*
X329858252Y-139524304D01*
X329858252Y-139524304D02*
X329763014Y-139571923D01*
X329763014Y-139571923D02*
X329715395Y-139571923D01*
X329715395Y-139571923D02*
X329620157Y-139524304D01*
X329620157Y-139524304D02*
X329572538Y-139476685D01*
X329572538Y-139476685D02*
X329524919Y-139381447D01*
X329524919Y-139381447D02*
X329524919Y-139190971D01*
X329524919Y-139190971D02*
X329572538Y-139095733D01*
X329572538Y-139095733D02*
X329620157Y-139048114D01*
X329620157Y-139048114D02*
X329715395Y-139000495D01*
X329715395Y-139000495D02*
X329763014Y-139000495D01*
X329763014Y-139000495D02*
X329858252Y-139048114D01*
X329858252Y-139048114D02*
X329905871Y-139095733D01*
X329905871Y-139095733D02*
X329953490Y-139190971D01*
X329953490Y-139190971D02*
X329953490Y-139381447D01*
X329953490Y-139381447D02*
X330001109Y-139476685D01*
X330001109Y-139476685D02*
X330048728Y-139524304D01*
X330048728Y-139524304D02*
X330143966Y-139571923D01*
X330143966Y-139571923D02*
X330334442Y-139571923D01*
X330334442Y-139571923D02*
X330429680Y-139524304D01*
X330429680Y-139524304D02*
X330477300Y-139476685D01*
X330477300Y-139476685D02*
X330524919Y-139381447D01*
X330524919Y-139381447D02*
X330524919Y-139190971D01*
X330524919Y-139190971D02*
X330477300Y-139095733D01*
X330477300Y-139095733D02*
X330429680Y-139048114D01*
X330429680Y-139048114D02*
X330334442Y-139000495D01*
X330334442Y-139000495D02*
X330143966Y-139000495D01*
X330143966Y-139000495D02*
X330048728Y-139048114D01*
X330048728Y-139048114D02*
X330001109Y-139095733D01*
X330001109Y-139095733D02*
X329953490Y-139190971D01*
X104306119Y-122426685D02*
X103306119Y-122426685D01*
X103306119Y-122426685D02*
X103306119Y-122188590D01*
X103306119Y-122188590D02*
X103353738Y-122045733D01*
X103353738Y-122045733D02*
X103448976Y-121950495D01*
X103448976Y-121950495D02*
X103544214Y-121902876D01*
X103544214Y-121902876D02*
X103734690Y-121855257D01*
X103734690Y-121855257D02*
X103877547Y-121855257D01*
X103877547Y-121855257D02*
X104068023Y-121902876D01*
X104068023Y-121902876D02*
X104163261Y-121950495D01*
X104163261Y-121950495D02*
X104258500Y-122045733D01*
X104258500Y-122045733D02*
X104306119Y-122188590D01*
X104306119Y-122188590D02*
X104306119Y-122426685D01*
X104306119Y-120902876D02*
X104306119Y-121474304D01*
X104306119Y-121188590D02*
X103306119Y-121188590D01*
X103306119Y-121188590D02*
X103448976Y-121283828D01*
X103448976Y-121283828D02*
X103544214Y-121379066D01*
X103544214Y-121379066D02*
X103591833Y-121474304D01*
X103306119Y-120283828D02*
X103306119Y-120188590D01*
X103306119Y-120188590D02*
X103353738Y-120093352D01*
X103353738Y-120093352D02*
X103401357Y-120045733D01*
X103401357Y-120045733D02*
X103496595Y-119998114D01*
X103496595Y-119998114D02*
X103687071Y-119950495D01*
X103687071Y-119950495D02*
X103925166Y-119950495D01*
X103925166Y-119950495D02*
X104115642Y-119998114D01*
X104115642Y-119998114D02*
X104210880Y-120045733D01*
X104210880Y-120045733D02*
X104258500Y-120093352D01*
X104258500Y-120093352D02*
X104306119Y-120188590D01*
X104306119Y-120188590D02*
X104306119Y-120283828D01*
X104306119Y-120283828D02*
X104258500Y-120379066D01*
X104258500Y-120379066D02*
X104210880Y-120426685D01*
X104210880Y-120426685D02*
X104115642Y-120474304D01*
X104115642Y-120474304D02*
X103925166Y-120521923D01*
X103925166Y-120521923D02*
X103687071Y-120521923D01*
X103687071Y-120521923D02*
X103496595Y-120474304D01*
X103496595Y-120474304D02*
X103401357Y-120426685D01*
X103401357Y-120426685D02*
X103353738Y-120379066D01*
X103353738Y-120379066D02*
X103306119Y-120283828D01*
X254324919Y-122426685D02*
X253324919Y-122426685D01*
X253324919Y-122426685D02*
X253324919Y-122188590D01*
X253324919Y-122188590D02*
X253372538Y-122045733D01*
X253372538Y-122045733D02*
X253467776Y-121950495D01*
X253467776Y-121950495D02*
X253563014Y-121902876D01*
X253563014Y-121902876D02*
X253753490Y-121855257D01*
X253753490Y-121855257D02*
X253896347Y-121855257D01*
X253896347Y-121855257D02*
X254086823Y-121902876D01*
X254086823Y-121902876D02*
X254182061Y-121950495D01*
X254182061Y-121950495D02*
X254277300Y-122045733D01*
X254277300Y-122045733D02*
X254324919Y-122188590D01*
X254324919Y-122188590D02*
X254324919Y-122426685D01*
X253420157Y-121474304D02*
X253372538Y-121426685D01*
X253372538Y-121426685D02*
X253324919Y-121331447D01*
X253324919Y-121331447D02*
X253324919Y-121093352D01*
X253324919Y-121093352D02*
X253372538Y-120998114D01*
X253372538Y-120998114D02*
X253420157Y-120950495D01*
X253420157Y-120950495D02*
X253515395Y-120902876D01*
X253515395Y-120902876D02*
X253610633Y-120902876D01*
X253610633Y-120902876D02*
X253753490Y-120950495D01*
X253753490Y-120950495D02*
X254324919Y-121521923D01*
X254324919Y-121521923D02*
X254324919Y-120902876D01*
X253420157Y-120521923D02*
X253372538Y-120474304D01*
X253372538Y-120474304D02*
X253324919Y-120379066D01*
X253324919Y-120379066D02*
X253324919Y-120140971D01*
X253324919Y-120140971D02*
X253372538Y-120045733D01*
X253372538Y-120045733D02*
X253420157Y-119998114D01*
X253420157Y-119998114D02*
X253515395Y-119950495D01*
X253515395Y-119950495D02*
X253610633Y-119950495D01*
X253610633Y-119950495D02*
X253753490Y-119998114D01*
X253753490Y-119998114D02*
X254324919Y-120569542D01*
X254324919Y-120569542D02*
X254324919Y-119950495D01*
X66206119Y-121950494D02*
X65206119Y-121950494D01*
X65206119Y-121950494D02*
X65206119Y-121712399D01*
X65206119Y-121712399D02*
X65253738Y-121569542D01*
X65253738Y-121569542D02*
X65348976Y-121474304D01*
X65348976Y-121474304D02*
X65444214Y-121426685D01*
X65444214Y-121426685D02*
X65634690Y-121379066D01*
X65634690Y-121379066D02*
X65777547Y-121379066D01*
X65777547Y-121379066D02*
X65968023Y-121426685D01*
X65968023Y-121426685D02*
X66063261Y-121474304D01*
X66063261Y-121474304D02*
X66158500Y-121569542D01*
X66158500Y-121569542D02*
X66206119Y-121712399D01*
X66206119Y-121712399D02*
X66206119Y-121950494D01*
X65539452Y-120521923D02*
X66206119Y-120521923D01*
X65158500Y-120760018D02*
X65872785Y-120998113D01*
X65872785Y-120998113D02*
X65872785Y-120379066D01*
X292424919Y-122426685D02*
X291424919Y-122426685D01*
X291424919Y-122426685D02*
X291424919Y-122188590D01*
X291424919Y-122188590D02*
X291472538Y-122045733D01*
X291472538Y-122045733D02*
X291567776Y-121950495D01*
X291567776Y-121950495D02*
X291663014Y-121902876D01*
X291663014Y-121902876D02*
X291853490Y-121855257D01*
X291853490Y-121855257D02*
X291996347Y-121855257D01*
X291996347Y-121855257D02*
X292186823Y-121902876D01*
X292186823Y-121902876D02*
X292282061Y-121950495D01*
X292282061Y-121950495D02*
X292377300Y-122045733D01*
X292377300Y-122045733D02*
X292424919Y-122188590D01*
X292424919Y-122188590D02*
X292424919Y-122426685D01*
X291424919Y-121521923D02*
X291424919Y-120902876D01*
X291424919Y-120902876D02*
X291805871Y-121236209D01*
X291805871Y-121236209D02*
X291805871Y-121093352D01*
X291805871Y-121093352D02*
X291853490Y-120998114D01*
X291853490Y-120998114D02*
X291901109Y-120950495D01*
X291901109Y-120950495D02*
X291996347Y-120902876D01*
X291996347Y-120902876D02*
X292234442Y-120902876D01*
X292234442Y-120902876D02*
X292329680Y-120950495D01*
X292329680Y-120950495D02*
X292377300Y-120998114D01*
X292377300Y-120998114D02*
X292424919Y-121093352D01*
X292424919Y-121093352D02*
X292424919Y-121379066D01*
X292424919Y-121379066D02*
X292377300Y-121474304D01*
X292377300Y-121474304D02*
X292329680Y-121521923D01*
X291424919Y-120283828D02*
X291424919Y-120188590D01*
X291424919Y-120188590D02*
X291472538Y-120093352D01*
X291472538Y-120093352D02*
X291520157Y-120045733D01*
X291520157Y-120045733D02*
X291615395Y-119998114D01*
X291615395Y-119998114D02*
X291805871Y-119950495D01*
X291805871Y-119950495D02*
X292043966Y-119950495D01*
X292043966Y-119950495D02*
X292234442Y-119998114D01*
X292234442Y-119998114D02*
X292329680Y-120045733D01*
X292329680Y-120045733D02*
X292377300Y-120093352D01*
X292377300Y-120093352D02*
X292424919Y-120188590D01*
X292424919Y-120188590D02*
X292424919Y-120283828D01*
X292424919Y-120283828D02*
X292377300Y-120379066D01*
X292377300Y-120379066D02*
X292329680Y-120426685D01*
X292329680Y-120426685D02*
X292234442Y-120474304D01*
X292234442Y-120474304D02*
X292043966Y-120521923D01*
X292043966Y-120521923D02*
X291805871Y-120521923D01*
X291805871Y-120521923D02*
X291615395Y-120474304D01*
X291615395Y-120474304D02*
X291520157Y-120426685D01*
X291520157Y-120426685D02*
X291472538Y-120379066D01*
X291472538Y-120379066D02*
X291424919Y-120283828D01*
X235274919Y-179576685D02*
X234274919Y-179576685D01*
X234274919Y-179576685D02*
X234274919Y-179338590D01*
X234274919Y-179338590D02*
X234322538Y-179195733D01*
X234322538Y-179195733D02*
X234417776Y-179100495D01*
X234417776Y-179100495D02*
X234513014Y-179052876D01*
X234513014Y-179052876D02*
X234703490Y-179005257D01*
X234703490Y-179005257D02*
X234846347Y-179005257D01*
X234846347Y-179005257D02*
X235036823Y-179052876D01*
X235036823Y-179052876D02*
X235132061Y-179100495D01*
X235132061Y-179100495D02*
X235227300Y-179195733D01*
X235227300Y-179195733D02*
X235274919Y-179338590D01*
X235274919Y-179338590D02*
X235274919Y-179576685D01*
X234370157Y-178624304D02*
X234322538Y-178576685D01*
X234322538Y-178576685D02*
X234274919Y-178481447D01*
X234274919Y-178481447D02*
X234274919Y-178243352D01*
X234274919Y-178243352D02*
X234322538Y-178148114D01*
X234322538Y-178148114D02*
X234370157Y-178100495D01*
X234370157Y-178100495D02*
X234465395Y-178052876D01*
X234465395Y-178052876D02*
X234560633Y-178052876D01*
X234560633Y-178052876D02*
X234703490Y-178100495D01*
X234703490Y-178100495D02*
X235274919Y-178671923D01*
X235274919Y-178671923D02*
X235274919Y-178052876D01*
X234274919Y-177148114D02*
X234274919Y-177624304D01*
X234274919Y-177624304D02*
X234751109Y-177671923D01*
X234751109Y-177671923D02*
X234703490Y-177624304D01*
X234703490Y-177624304D02*
X234655871Y-177529066D01*
X234655871Y-177529066D02*
X234655871Y-177290971D01*
X234655871Y-177290971D02*
X234703490Y-177195733D01*
X234703490Y-177195733D02*
X234751109Y-177148114D01*
X234751109Y-177148114D02*
X234846347Y-177100495D01*
X234846347Y-177100495D02*
X235084442Y-177100495D01*
X235084442Y-177100495D02*
X235179680Y-177148114D01*
X235179680Y-177148114D02*
X235227300Y-177195733D01*
X235227300Y-177195733D02*
X235274919Y-177290971D01*
X235274919Y-177290971D02*
X235274919Y-177529066D01*
X235274919Y-177529066D02*
X235227300Y-177624304D01*
X235227300Y-177624304D02*
X235179680Y-177671923D01*
X47156119Y-160050494D02*
X46156119Y-160050494D01*
X46156119Y-160050494D02*
X46156119Y-159812399D01*
X46156119Y-159812399D02*
X46203738Y-159669542D01*
X46203738Y-159669542D02*
X46298976Y-159574304D01*
X46298976Y-159574304D02*
X46394214Y-159526685D01*
X46394214Y-159526685D02*
X46584690Y-159479066D01*
X46584690Y-159479066D02*
X46727547Y-159479066D01*
X46727547Y-159479066D02*
X46918023Y-159526685D01*
X46918023Y-159526685D02*
X47013261Y-159574304D01*
X47013261Y-159574304D02*
X47108500Y-159669542D01*
X47108500Y-159669542D02*
X47156119Y-159812399D01*
X47156119Y-159812399D02*
X47156119Y-160050494D01*
X46156119Y-159145732D02*
X46156119Y-158526685D01*
X46156119Y-158526685D02*
X46537071Y-158860018D01*
X46537071Y-158860018D02*
X46537071Y-158717161D01*
X46537071Y-158717161D02*
X46584690Y-158621923D01*
X46584690Y-158621923D02*
X46632309Y-158574304D01*
X46632309Y-158574304D02*
X46727547Y-158526685D01*
X46727547Y-158526685D02*
X46965642Y-158526685D01*
X46965642Y-158526685D02*
X47060880Y-158574304D01*
X47060880Y-158574304D02*
X47108500Y-158621923D01*
X47108500Y-158621923D02*
X47156119Y-158717161D01*
X47156119Y-158717161D02*
X47156119Y-159002875D01*
X47156119Y-159002875D02*
X47108500Y-159098113D01*
X47108500Y-159098113D02*
X47060880Y-159145732D01*
X349574919Y-122426685D02*
X348574919Y-122426685D01*
X348574919Y-122426685D02*
X348574919Y-122188590D01*
X348574919Y-122188590D02*
X348622538Y-122045733D01*
X348622538Y-122045733D02*
X348717776Y-121950495D01*
X348717776Y-121950495D02*
X348813014Y-121902876D01*
X348813014Y-121902876D02*
X349003490Y-121855257D01*
X349003490Y-121855257D02*
X349146347Y-121855257D01*
X349146347Y-121855257D02*
X349336823Y-121902876D01*
X349336823Y-121902876D02*
X349432061Y-121950495D01*
X349432061Y-121950495D02*
X349527300Y-122045733D01*
X349527300Y-122045733D02*
X349574919Y-122188590D01*
X349574919Y-122188590D02*
X349574919Y-122426685D01*
X348908252Y-120998114D02*
X349574919Y-120998114D01*
X348527300Y-121236209D02*
X349241585Y-121474304D01*
X349241585Y-121474304D02*
X349241585Y-120855257D01*
X348574919Y-120283828D02*
X348574919Y-120188590D01*
X348574919Y-120188590D02*
X348622538Y-120093352D01*
X348622538Y-120093352D02*
X348670157Y-120045733D01*
X348670157Y-120045733D02*
X348765395Y-119998114D01*
X348765395Y-119998114D02*
X348955871Y-119950495D01*
X348955871Y-119950495D02*
X349193966Y-119950495D01*
X349193966Y-119950495D02*
X349384442Y-119998114D01*
X349384442Y-119998114D02*
X349479680Y-120045733D01*
X349479680Y-120045733D02*
X349527300Y-120093352D01*
X349527300Y-120093352D02*
X349574919Y-120188590D01*
X349574919Y-120188590D02*
X349574919Y-120283828D01*
X349574919Y-120283828D02*
X349527300Y-120379066D01*
X349527300Y-120379066D02*
X349479680Y-120426685D01*
X349479680Y-120426685D02*
X349384442Y-120474304D01*
X349384442Y-120474304D02*
X349193966Y-120521923D01*
X349193966Y-120521923D02*
X348955871Y-120521923D01*
X348955871Y-120521923D02*
X348765395Y-120474304D01*
X348765395Y-120474304D02*
X348670157Y-120426685D01*
X348670157Y-120426685D02*
X348622538Y-120379066D01*
X348622538Y-120379066D02*
X348574919Y-120283828D01*
X161456119Y-179576685D02*
X160456119Y-179576685D01*
X160456119Y-179576685D02*
X160456119Y-179338590D01*
X160456119Y-179338590D02*
X160503738Y-179195733D01*
X160503738Y-179195733D02*
X160598976Y-179100495D01*
X160598976Y-179100495D02*
X160694214Y-179052876D01*
X160694214Y-179052876D02*
X160884690Y-179005257D01*
X160884690Y-179005257D02*
X161027547Y-179005257D01*
X161027547Y-179005257D02*
X161218023Y-179052876D01*
X161218023Y-179052876D02*
X161313261Y-179100495D01*
X161313261Y-179100495D02*
X161408500Y-179195733D01*
X161408500Y-179195733D02*
X161456119Y-179338590D01*
X161456119Y-179338590D02*
X161456119Y-179576685D01*
X160551357Y-178624304D02*
X160503738Y-178576685D01*
X160503738Y-178576685D02*
X160456119Y-178481447D01*
X160456119Y-178481447D02*
X160456119Y-178243352D01*
X160456119Y-178243352D02*
X160503738Y-178148114D01*
X160503738Y-178148114D02*
X160551357Y-178100495D01*
X160551357Y-178100495D02*
X160646595Y-178052876D01*
X160646595Y-178052876D02*
X160741833Y-178052876D01*
X160741833Y-178052876D02*
X160884690Y-178100495D01*
X160884690Y-178100495D02*
X161456119Y-178671923D01*
X161456119Y-178671923D02*
X161456119Y-178052876D01*
X161456119Y-177100495D02*
X161456119Y-177671923D01*
X161456119Y-177386209D02*
X160456119Y-177386209D01*
X160456119Y-177386209D02*
X160598976Y-177481447D01*
X160598976Y-177481447D02*
X160694214Y-177576685D01*
X160694214Y-177576685D02*
X160741833Y-177671923D01*
X104306119Y-160526685D02*
X103306119Y-160526685D01*
X103306119Y-160526685D02*
X103306119Y-160288590D01*
X103306119Y-160288590D02*
X103353738Y-160145733D01*
X103353738Y-160145733D02*
X103448976Y-160050495D01*
X103448976Y-160050495D02*
X103544214Y-160002876D01*
X103544214Y-160002876D02*
X103734690Y-159955257D01*
X103734690Y-159955257D02*
X103877547Y-159955257D01*
X103877547Y-159955257D02*
X104068023Y-160002876D01*
X104068023Y-160002876D02*
X104163261Y-160050495D01*
X104163261Y-160050495D02*
X104258500Y-160145733D01*
X104258500Y-160145733D02*
X104306119Y-160288590D01*
X104306119Y-160288590D02*
X104306119Y-160526685D01*
X104306119Y-159002876D02*
X104306119Y-159574304D01*
X104306119Y-159288590D02*
X103306119Y-159288590D01*
X103306119Y-159288590D02*
X103448976Y-159383828D01*
X103448976Y-159383828D02*
X103544214Y-159479066D01*
X103544214Y-159479066D02*
X103591833Y-159574304D01*
X103401357Y-158621923D02*
X103353738Y-158574304D01*
X103353738Y-158574304D02*
X103306119Y-158479066D01*
X103306119Y-158479066D02*
X103306119Y-158240971D01*
X103306119Y-158240971D02*
X103353738Y-158145733D01*
X103353738Y-158145733D02*
X103401357Y-158098114D01*
X103401357Y-158098114D02*
X103496595Y-158050495D01*
X103496595Y-158050495D02*
X103591833Y-158050495D01*
X103591833Y-158050495D02*
X103734690Y-158098114D01*
X103734690Y-158098114D02*
X104306119Y-158669542D01*
X104306119Y-158669542D02*
X104306119Y-158050495D01*
X311474919Y-141476685D02*
X310474919Y-141476685D01*
X310474919Y-141476685D02*
X310474919Y-141238590D01*
X310474919Y-141238590D02*
X310522538Y-141095733D01*
X310522538Y-141095733D02*
X310617776Y-141000495D01*
X310617776Y-141000495D02*
X310713014Y-140952876D01*
X310713014Y-140952876D02*
X310903490Y-140905257D01*
X310903490Y-140905257D02*
X311046347Y-140905257D01*
X311046347Y-140905257D02*
X311236823Y-140952876D01*
X311236823Y-140952876D02*
X311332061Y-141000495D01*
X311332061Y-141000495D02*
X311427300Y-141095733D01*
X311427300Y-141095733D02*
X311474919Y-141238590D01*
X311474919Y-141238590D02*
X311474919Y-141476685D01*
X310474919Y-140571923D02*
X310474919Y-139952876D01*
X310474919Y-139952876D02*
X310855871Y-140286209D01*
X310855871Y-140286209D02*
X310855871Y-140143352D01*
X310855871Y-140143352D02*
X310903490Y-140048114D01*
X310903490Y-140048114D02*
X310951109Y-140000495D01*
X310951109Y-140000495D02*
X311046347Y-139952876D01*
X311046347Y-139952876D02*
X311284442Y-139952876D01*
X311284442Y-139952876D02*
X311379680Y-140000495D01*
X311379680Y-140000495D02*
X311427300Y-140048114D01*
X311427300Y-140048114D02*
X311474919Y-140143352D01*
X311474919Y-140143352D02*
X311474919Y-140429066D01*
X311474919Y-140429066D02*
X311427300Y-140524304D01*
X311427300Y-140524304D02*
X311379680Y-140571923D01*
X310474919Y-139048114D02*
X310474919Y-139524304D01*
X310474919Y-139524304D02*
X310951109Y-139571923D01*
X310951109Y-139571923D02*
X310903490Y-139524304D01*
X310903490Y-139524304D02*
X310855871Y-139429066D01*
X310855871Y-139429066D02*
X310855871Y-139190971D01*
X310855871Y-139190971D02*
X310903490Y-139095733D01*
X310903490Y-139095733D02*
X310951109Y-139048114D01*
X310951109Y-139048114D02*
X311046347Y-139000495D01*
X311046347Y-139000495D02*
X311284442Y-139000495D01*
X311284442Y-139000495D02*
X311379680Y-139048114D01*
X311379680Y-139048114D02*
X311427300Y-139095733D01*
X311427300Y-139095733D02*
X311474919Y-139190971D01*
X311474919Y-139190971D02*
X311474919Y-139429066D01*
X311474919Y-139429066D02*
X311427300Y-139524304D01*
X311427300Y-139524304D02*
X311379680Y-139571923D01*
X123356119Y-141476685D02*
X122356119Y-141476685D01*
X122356119Y-141476685D02*
X122356119Y-141238590D01*
X122356119Y-141238590D02*
X122403738Y-141095733D01*
X122403738Y-141095733D02*
X122498976Y-141000495D01*
X122498976Y-141000495D02*
X122594214Y-140952876D01*
X122594214Y-140952876D02*
X122784690Y-140905257D01*
X122784690Y-140905257D02*
X122927547Y-140905257D01*
X122927547Y-140905257D02*
X123118023Y-140952876D01*
X123118023Y-140952876D02*
X123213261Y-141000495D01*
X123213261Y-141000495D02*
X123308500Y-141095733D01*
X123308500Y-141095733D02*
X123356119Y-141238590D01*
X123356119Y-141238590D02*
X123356119Y-141476685D01*
X123356119Y-139952876D02*
X123356119Y-140524304D01*
X123356119Y-140238590D02*
X122356119Y-140238590D01*
X122356119Y-140238590D02*
X122498976Y-140333828D01*
X122498976Y-140333828D02*
X122594214Y-140429066D01*
X122594214Y-140429066D02*
X122641833Y-140524304D01*
X122356119Y-139048114D02*
X122356119Y-139524304D01*
X122356119Y-139524304D02*
X122832309Y-139571923D01*
X122832309Y-139571923D02*
X122784690Y-139524304D01*
X122784690Y-139524304D02*
X122737071Y-139429066D01*
X122737071Y-139429066D02*
X122737071Y-139190971D01*
X122737071Y-139190971D02*
X122784690Y-139095733D01*
X122784690Y-139095733D02*
X122832309Y-139048114D01*
X122832309Y-139048114D02*
X122927547Y-139000495D01*
X122927547Y-139000495D02*
X123165642Y-139000495D01*
X123165642Y-139000495D02*
X123260880Y-139048114D01*
X123260880Y-139048114D02*
X123308500Y-139095733D01*
X123308500Y-139095733D02*
X123356119Y-139190971D01*
X123356119Y-139190971D02*
X123356119Y-139429066D01*
X123356119Y-139429066D02*
X123308500Y-139524304D01*
X123308500Y-139524304D02*
X123260880Y-139571923D01*
X85256119Y-121950494D02*
X84256119Y-121950494D01*
X84256119Y-121950494D02*
X84256119Y-121712399D01*
X84256119Y-121712399D02*
X84303738Y-121569542D01*
X84303738Y-121569542D02*
X84398976Y-121474304D01*
X84398976Y-121474304D02*
X84494214Y-121426685D01*
X84494214Y-121426685D02*
X84684690Y-121379066D01*
X84684690Y-121379066D02*
X84827547Y-121379066D01*
X84827547Y-121379066D02*
X85018023Y-121426685D01*
X85018023Y-121426685D02*
X85113261Y-121474304D01*
X85113261Y-121474304D02*
X85208500Y-121569542D01*
X85208500Y-121569542D02*
X85256119Y-121712399D01*
X85256119Y-121712399D02*
X85256119Y-121950494D01*
X84256119Y-121045732D02*
X84256119Y-120379066D01*
X84256119Y-120379066D02*
X85256119Y-120807637D01*
X311474919Y-122426685D02*
X310474919Y-122426685D01*
X310474919Y-122426685D02*
X310474919Y-122188590D01*
X310474919Y-122188590D02*
X310522538Y-122045733D01*
X310522538Y-122045733D02*
X310617776Y-121950495D01*
X310617776Y-121950495D02*
X310713014Y-121902876D01*
X310713014Y-121902876D02*
X310903490Y-121855257D01*
X310903490Y-121855257D02*
X311046347Y-121855257D01*
X311046347Y-121855257D02*
X311236823Y-121902876D01*
X311236823Y-121902876D02*
X311332061Y-121950495D01*
X311332061Y-121950495D02*
X311427300Y-122045733D01*
X311427300Y-122045733D02*
X311474919Y-122188590D01*
X311474919Y-122188590D02*
X311474919Y-122426685D01*
X310474919Y-121521923D02*
X310474919Y-120902876D01*
X310474919Y-120902876D02*
X310855871Y-121236209D01*
X310855871Y-121236209D02*
X310855871Y-121093352D01*
X310855871Y-121093352D02*
X310903490Y-120998114D01*
X310903490Y-120998114D02*
X310951109Y-120950495D01*
X310951109Y-120950495D02*
X311046347Y-120902876D01*
X311046347Y-120902876D02*
X311284442Y-120902876D01*
X311284442Y-120902876D02*
X311379680Y-120950495D01*
X311379680Y-120950495D02*
X311427300Y-120998114D01*
X311427300Y-120998114D02*
X311474919Y-121093352D01*
X311474919Y-121093352D02*
X311474919Y-121379066D01*
X311474919Y-121379066D02*
X311427300Y-121474304D01*
X311427300Y-121474304D02*
X311379680Y-121521923D01*
X310808252Y-120045733D02*
X311474919Y-120045733D01*
X310427300Y-120283828D02*
X311141585Y-120521923D01*
X311141585Y-120521923D02*
X311141585Y-119902876D01*
D11*
X251488800Y-162012400D02*
X251488800Y-156612400D01*
X252988800Y-162012400D02*
X251488800Y-162012400D01*
X252738800Y-159812400D02*
X251738800Y-159812400D01*
X252238800Y-159712400D02*
X252738800Y-158812400D01*
X251738800Y-158812400D02*
X252238800Y-159712400D01*
X252738800Y-158812400D02*
X251738800Y-158812400D01*
X251488800Y-156612400D02*
X252988800Y-156612400D01*
X252988800Y-156612400D02*
X252988800Y-162012400D01*
X289588800Y-162012400D02*
X289588800Y-156612400D01*
X291088800Y-162012400D02*
X289588800Y-162012400D01*
X290838800Y-159812400D02*
X289838800Y-159812400D01*
X290338800Y-159712400D02*
X290838800Y-158812400D01*
X289838800Y-158812400D02*
X290338800Y-159712400D01*
X290838800Y-158812400D02*
X289838800Y-158812400D01*
X289588800Y-156612400D02*
X291088800Y-156612400D01*
X291088800Y-156612400D02*
X291088800Y-162012400D01*
X82420000Y-162012400D02*
X82420000Y-156612400D01*
X83920000Y-162012400D02*
X82420000Y-162012400D01*
X83670000Y-159812400D02*
X82670000Y-159812400D01*
X83170000Y-159712400D02*
X83670000Y-158812400D01*
X82670000Y-158812400D02*
X83170000Y-159712400D01*
X83670000Y-158812400D02*
X82670000Y-158812400D01*
X82420000Y-156612400D02*
X83920000Y-156612400D01*
X83920000Y-156612400D02*
X83920000Y-162012400D01*
X270538800Y-123912400D02*
X270538800Y-118512400D01*
X272038800Y-123912400D02*
X270538800Y-123912400D01*
X271788800Y-121712400D02*
X270788800Y-121712400D01*
X271288800Y-121612400D02*
X271788800Y-120712400D01*
X270788800Y-120712400D02*
X271288800Y-121612400D01*
X271788800Y-120712400D02*
X270788800Y-120712400D01*
X270538800Y-118512400D02*
X272038800Y-118512400D01*
X272038800Y-118512400D02*
X272038800Y-123912400D01*
X63370000Y-142962400D02*
X63370000Y-137562400D01*
X64870000Y-142962400D02*
X63370000Y-142962400D01*
X64620000Y-140762400D02*
X63620000Y-140762400D01*
X64120000Y-140662400D02*
X64620000Y-139762400D01*
X63620000Y-139762400D02*
X64120000Y-140662400D01*
X64620000Y-139762400D02*
X63620000Y-139762400D01*
X63370000Y-137562400D02*
X64870000Y-137562400D01*
X64870000Y-137562400D02*
X64870000Y-142962400D01*
X327688800Y-123912400D02*
X327688800Y-118512400D01*
X329188800Y-123912400D02*
X327688800Y-123912400D01*
X328938800Y-121712400D02*
X327938800Y-121712400D01*
X328438800Y-121612400D02*
X328938800Y-120712400D01*
X327938800Y-120712400D02*
X328438800Y-121612400D01*
X328938800Y-120712400D02*
X327938800Y-120712400D01*
X327688800Y-118512400D02*
X329188800Y-118512400D01*
X329188800Y-118512400D02*
X329188800Y-123912400D01*
X139570000Y-142962400D02*
X139570000Y-137562400D01*
X141070000Y-142962400D02*
X139570000Y-142962400D01*
X140820000Y-140762400D02*
X139820000Y-140762400D01*
X140320000Y-140662400D02*
X140820000Y-139762400D01*
X139820000Y-139762400D02*
X140320000Y-140662400D01*
X140820000Y-139762400D02*
X139820000Y-139762400D01*
X139570000Y-137562400D02*
X141070000Y-137562400D01*
X141070000Y-137562400D02*
X141070000Y-142962400D01*
X120520000Y-162012400D02*
X120520000Y-156612400D01*
X122020000Y-162012400D02*
X120520000Y-162012400D01*
X121770000Y-159812400D02*
X120770000Y-159812400D01*
X121270000Y-159712400D02*
X121770000Y-158812400D01*
X120770000Y-158812400D02*
X121270000Y-159712400D01*
X121770000Y-158812400D02*
X120770000Y-158812400D01*
X120520000Y-156612400D02*
X122020000Y-156612400D01*
X122020000Y-156612400D02*
X122020000Y-162012400D01*
X139570000Y-162012400D02*
X139570000Y-156612400D01*
X141070000Y-162012400D02*
X139570000Y-162012400D01*
X140820000Y-159812400D02*
X139820000Y-159812400D01*
X140320000Y-159712400D02*
X140820000Y-158812400D01*
X139820000Y-158812400D02*
X140320000Y-159712400D01*
X140820000Y-158812400D02*
X139820000Y-158812400D01*
X139570000Y-156612400D02*
X141070000Y-156612400D01*
X141070000Y-156612400D02*
X141070000Y-162012400D01*
X270538800Y-162012400D02*
X270538800Y-156612400D01*
X272038800Y-162012400D02*
X270538800Y-162012400D01*
X271788800Y-159812400D02*
X270788800Y-159812400D01*
X271288800Y-159712400D02*
X271788800Y-158812400D01*
X270788800Y-158812400D02*
X271288800Y-159712400D01*
X271788800Y-158812400D02*
X270788800Y-158812400D01*
X270538800Y-156612400D02*
X272038800Y-156612400D01*
X272038800Y-156612400D02*
X272038800Y-162012400D01*
X63370000Y-162012400D02*
X63370000Y-156612400D01*
X64870000Y-162012400D02*
X63370000Y-162012400D01*
X64620000Y-159812400D02*
X63620000Y-159812400D01*
X64120000Y-159712400D02*
X64620000Y-158812400D01*
X63620000Y-158812400D02*
X64120000Y-159712400D01*
X64620000Y-158812400D02*
X63620000Y-158812400D01*
X63370000Y-156612400D02*
X64870000Y-156612400D01*
X64870000Y-156612400D02*
X64870000Y-162012400D01*
X120520000Y-181062400D02*
X120520000Y-175662400D01*
X122020000Y-181062400D02*
X120520000Y-181062400D01*
X121770000Y-178862400D02*
X120770000Y-178862400D01*
X121270000Y-178762400D02*
X121770000Y-177862400D01*
X120770000Y-177862400D02*
X121270000Y-178762400D01*
X121770000Y-177862400D02*
X120770000Y-177862400D01*
X120520000Y-175662400D02*
X122020000Y-175662400D01*
X122020000Y-175662400D02*
X122020000Y-181062400D01*
X139570000Y-181062400D02*
X139570000Y-175662400D01*
X141070000Y-181062400D02*
X139570000Y-181062400D01*
X140820000Y-178862400D02*
X139820000Y-178862400D01*
X140320000Y-178762400D02*
X140820000Y-177862400D01*
X139820000Y-177862400D02*
X140320000Y-178762400D01*
X140820000Y-177862400D02*
X139820000Y-177862400D01*
X139570000Y-175662400D02*
X141070000Y-175662400D01*
X141070000Y-175662400D02*
X141070000Y-181062400D01*
X82420000Y-142962400D02*
X82420000Y-137562400D01*
X83920000Y-142962400D02*
X82420000Y-142962400D01*
X83670000Y-140762400D02*
X82670000Y-140762400D01*
X83170000Y-140662400D02*
X83670000Y-139762400D01*
X82670000Y-139762400D02*
X83170000Y-140662400D01*
X83670000Y-139762400D02*
X82670000Y-139762400D01*
X82420000Y-137562400D02*
X83920000Y-137562400D01*
X83920000Y-137562400D02*
X83920000Y-142962400D01*
X308638800Y-162012400D02*
X308638800Y-156612400D01*
X310138800Y-162012400D02*
X308638800Y-162012400D01*
X309888800Y-159812400D02*
X308888800Y-159812400D01*
X309388800Y-159712400D02*
X309888800Y-158812400D01*
X308888800Y-158812400D02*
X309388800Y-159712400D01*
X309888800Y-158812400D02*
X308888800Y-158812400D01*
X308638800Y-156612400D02*
X310138800Y-156612400D01*
X310138800Y-156612400D02*
X310138800Y-162012400D01*
X270538800Y-142962400D02*
X270538800Y-137562400D01*
X272038800Y-142962400D02*
X270538800Y-142962400D01*
X271788800Y-140762400D02*
X270788800Y-140762400D01*
X271288800Y-140662400D02*
X271788800Y-139762400D01*
X270788800Y-139762400D02*
X271288800Y-140662400D01*
X271788800Y-139762400D02*
X270788800Y-139762400D01*
X270538800Y-137562400D02*
X272038800Y-137562400D01*
X272038800Y-137562400D02*
X272038800Y-142962400D01*
X44320000Y-142962400D02*
X44320000Y-137562400D01*
X45820000Y-142962400D02*
X44320000Y-142962400D01*
X45570000Y-140762400D02*
X44570000Y-140762400D01*
X45070000Y-140662400D02*
X45570000Y-139762400D01*
X44570000Y-139762400D02*
X45070000Y-140662400D01*
X45570000Y-139762400D02*
X44570000Y-139762400D01*
X44320000Y-137562400D02*
X45820000Y-137562400D01*
X45820000Y-137562400D02*
X45820000Y-142962400D01*
X120520000Y-123912400D02*
X120520000Y-118512400D01*
X122020000Y-123912400D02*
X120520000Y-123912400D01*
X121770000Y-121712400D02*
X120770000Y-121712400D01*
X121270000Y-121612400D02*
X121770000Y-120712400D01*
X120770000Y-120712400D02*
X121270000Y-121612400D01*
X121770000Y-120712400D02*
X120770000Y-120712400D01*
X120520000Y-118512400D02*
X122020000Y-118512400D01*
X122020000Y-118512400D02*
X122020000Y-123912400D01*
X251488800Y-181062400D02*
X251488800Y-175662400D01*
X252988800Y-181062400D02*
X251488800Y-181062400D01*
X252738800Y-178862400D02*
X251738800Y-178862400D01*
X252238800Y-178762400D02*
X252738800Y-177862400D01*
X251738800Y-177862400D02*
X252238800Y-178762400D01*
X252738800Y-177862400D02*
X251738800Y-177862400D01*
X251488800Y-175662400D02*
X252988800Y-175662400D01*
X252988800Y-175662400D02*
X252988800Y-181062400D01*
X289588800Y-142962400D02*
X289588800Y-137562400D01*
X291088800Y-142962400D02*
X289588800Y-142962400D01*
X290838800Y-140762400D02*
X289838800Y-140762400D01*
X290338800Y-140662400D02*
X290838800Y-139762400D01*
X289838800Y-139762400D02*
X290338800Y-140662400D01*
X290838800Y-139762400D02*
X289838800Y-139762400D01*
X289588800Y-137562400D02*
X291088800Y-137562400D01*
X291088800Y-137562400D02*
X291088800Y-142962400D01*
X251488800Y-142962400D02*
X251488800Y-137562400D01*
X252988800Y-142962400D02*
X251488800Y-142962400D01*
X252738800Y-140762400D02*
X251738800Y-140762400D01*
X252238800Y-140662400D02*
X252738800Y-139762400D01*
X251738800Y-139762400D02*
X252238800Y-140662400D01*
X252738800Y-139762400D02*
X251738800Y-139762400D01*
X251488800Y-137562400D02*
X252988800Y-137562400D01*
X252988800Y-137562400D02*
X252988800Y-142962400D01*
X327688800Y-162012400D02*
X327688800Y-156612400D01*
X329188800Y-162012400D02*
X327688800Y-162012400D01*
X328938800Y-159812400D02*
X327938800Y-159812400D01*
X328438800Y-159712400D02*
X328938800Y-158812400D01*
X327938800Y-158812400D02*
X328438800Y-159712400D01*
X328938800Y-158812400D02*
X327938800Y-158812400D01*
X327688800Y-156612400D02*
X329188800Y-156612400D01*
X329188800Y-156612400D02*
X329188800Y-162012400D01*
X101470000Y-142962400D02*
X101470000Y-137562400D01*
X102970000Y-142962400D02*
X101470000Y-142962400D01*
X102720000Y-140762400D02*
X101720000Y-140762400D01*
X102220000Y-140662400D02*
X102720000Y-139762400D01*
X101720000Y-139762400D02*
X102220000Y-140662400D01*
X102720000Y-139762400D02*
X101720000Y-139762400D01*
X101470000Y-137562400D02*
X102970000Y-137562400D01*
X102970000Y-137562400D02*
X102970000Y-142962400D01*
X44320000Y-123912400D02*
X44320000Y-118512400D01*
X45820000Y-123912400D02*
X44320000Y-123912400D01*
X45570000Y-121712400D02*
X44570000Y-121712400D01*
X45070000Y-121612400D02*
X45570000Y-120712400D01*
X44570000Y-120712400D02*
X45070000Y-121612400D01*
X45570000Y-120712400D02*
X44570000Y-120712400D01*
X44320000Y-118512400D02*
X45820000Y-118512400D01*
X45820000Y-118512400D02*
X45820000Y-123912400D01*
X139570000Y-123912400D02*
X139570000Y-118512400D01*
X141070000Y-123912400D02*
X139570000Y-123912400D01*
X140820000Y-121712400D02*
X139820000Y-121712400D01*
X140320000Y-121612400D02*
X140820000Y-120712400D01*
X139820000Y-120712400D02*
X140320000Y-121612400D01*
X140820000Y-120712400D02*
X139820000Y-120712400D01*
X139570000Y-118512400D02*
X141070000Y-118512400D01*
X141070000Y-118512400D02*
X141070000Y-123912400D01*
X346738800Y-142962400D02*
X346738800Y-137562400D01*
X348238800Y-142962400D02*
X346738800Y-142962400D01*
X347988800Y-140762400D02*
X346988800Y-140762400D01*
X347488800Y-140662400D02*
X347988800Y-139762400D01*
X346988800Y-139762400D02*
X347488800Y-140662400D01*
X347988800Y-139762400D02*
X346988800Y-139762400D01*
X346738800Y-137562400D02*
X348238800Y-137562400D01*
X348238800Y-137562400D02*
X348238800Y-142962400D01*
X270538800Y-181062400D02*
X270538800Y-175662400D01*
X272038800Y-181062400D02*
X270538800Y-181062400D01*
X271788800Y-178862400D02*
X270788800Y-178862400D01*
X271288800Y-178762400D02*
X271788800Y-177862400D01*
X270788800Y-177862400D02*
X271288800Y-178762400D01*
X271788800Y-177862400D02*
X270788800Y-177862400D01*
X270538800Y-175662400D02*
X272038800Y-175662400D01*
X272038800Y-175662400D02*
X272038800Y-181062400D01*
X327688800Y-142962400D02*
X327688800Y-137562400D01*
X329188800Y-142962400D02*
X327688800Y-142962400D01*
X328938800Y-140762400D02*
X327938800Y-140762400D01*
X328438800Y-140662400D02*
X328938800Y-139762400D01*
X327938800Y-139762400D02*
X328438800Y-140662400D01*
X328938800Y-139762400D02*
X327938800Y-139762400D01*
X327688800Y-137562400D02*
X329188800Y-137562400D01*
X329188800Y-137562400D02*
X329188800Y-142962400D01*
X101470000Y-123912400D02*
X101470000Y-118512400D01*
X102970000Y-123912400D02*
X101470000Y-123912400D01*
X102720000Y-121712400D02*
X101720000Y-121712400D01*
X102220000Y-121612400D02*
X102720000Y-120712400D01*
X101720000Y-120712400D02*
X102220000Y-121612400D01*
X102720000Y-120712400D02*
X101720000Y-120712400D01*
X101470000Y-118512400D02*
X102970000Y-118512400D01*
X102970000Y-118512400D02*
X102970000Y-123912400D01*
X251488800Y-123912400D02*
X251488800Y-118512400D01*
X252988800Y-123912400D02*
X251488800Y-123912400D01*
X252738800Y-121712400D02*
X251738800Y-121712400D01*
X252238800Y-121612400D02*
X252738800Y-120712400D01*
X251738800Y-120712400D02*
X252238800Y-121612400D01*
X252738800Y-120712400D02*
X251738800Y-120712400D01*
X251488800Y-118512400D02*
X252988800Y-118512400D01*
X252988800Y-118512400D02*
X252988800Y-123912400D01*
X63370000Y-123912400D02*
X63370000Y-118512400D01*
X64870000Y-123912400D02*
X63370000Y-123912400D01*
X64620000Y-121712400D02*
X63620000Y-121712400D01*
X64120000Y-121612400D02*
X64620000Y-120712400D01*
X63620000Y-120712400D02*
X64120000Y-121612400D01*
X64620000Y-120712400D02*
X63620000Y-120712400D01*
X63370000Y-118512400D02*
X64870000Y-118512400D01*
X64870000Y-118512400D02*
X64870000Y-123912400D01*
X289588800Y-123912400D02*
X289588800Y-118512400D01*
X291088800Y-123912400D02*
X289588800Y-123912400D01*
X290838800Y-121712400D02*
X289838800Y-121712400D01*
X290338800Y-121612400D02*
X290838800Y-120712400D01*
X289838800Y-120712400D02*
X290338800Y-121612400D01*
X290838800Y-120712400D02*
X289838800Y-120712400D01*
X289588800Y-118512400D02*
X291088800Y-118512400D01*
X291088800Y-118512400D02*
X291088800Y-123912400D01*
X232438800Y-181062400D02*
X232438800Y-175662400D01*
X233938800Y-181062400D02*
X232438800Y-181062400D01*
X233688800Y-178862400D02*
X232688800Y-178862400D01*
X233188800Y-178762400D02*
X233688800Y-177862400D01*
X232688800Y-177862400D02*
X233188800Y-178762400D01*
X233688800Y-177862400D02*
X232688800Y-177862400D01*
X232438800Y-175662400D02*
X233938800Y-175662400D01*
X233938800Y-175662400D02*
X233938800Y-181062400D01*
X44320000Y-162012400D02*
X44320000Y-156612400D01*
X45820000Y-162012400D02*
X44320000Y-162012400D01*
X45570000Y-159812400D02*
X44570000Y-159812400D01*
X45070000Y-159712400D02*
X45570000Y-158812400D01*
X44570000Y-158812400D02*
X45070000Y-159712400D01*
X45570000Y-158812400D02*
X44570000Y-158812400D01*
X44320000Y-156612400D02*
X45820000Y-156612400D01*
X45820000Y-156612400D02*
X45820000Y-162012400D01*
X346738800Y-123912400D02*
X346738800Y-118512400D01*
X348238800Y-123912400D02*
X346738800Y-123912400D01*
X347988800Y-121712400D02*
X346988800Y-121712400D01*
X347488800Y-121612400D02*
X347988800Y-120712400D01*
X346988800Y-120712400D02*
X347488800Y-121612400D01*
X347988800Y-120712400D02*
X346988800Y-120712400D01*
X346738800Y-118512400D02*
X348238800Y-118512400D01*
X348238800Y-118512400D02*
X348238800Y-123912400D01*
X158620000Y-181062400D02*
X158620000Y-175662400D01*
X160120000Y-181062400D02*
X158620000Y-181062400D01*
X159870000Y-178862400D02*
X158870000Y-178862400D01*
X159370000Y-178762400D02*
X159870000Y-177862400D01*
X158870000Y-177862400D02*
X159370000Y-178762400D01*
X159870000Y-177862400D02*
X158870000Y-177862400D01*
X158620000Y-175662400D02*
X160120000Y-175662400D01*
X160120000Y-175662400D02*
X160120000Y-181062400D01*
X101470000Y-162012400D02*
X101470000Y-156612400D01*
X102970000Y-162012400D02*
X101470000Y-162012400D01*
X102720000Y-159812400D02*
X101720000Y-159812400D01*
X102220000Y-159712400D02*
X102720000Y-158812400D01*
X101720000Y-158812400D02*
X102220000Y-159712400D01*
X102720000Y-158812400D02*
X101720000Y-158812400D01*
X101470000Y-156612400D02*
X102970000Y-156612400D01*
X102970000Y-156612400D02*
X102970000Y-162012400D01*
X308638800Y-142962400D02*
X308638800Y-137562400D01*
X310138800Y-142962400D02*
X308638800Y-142962400D01*
X309888800Y-140762400D02*
X308888800Y-140762400D01*
X309388800Y-140662400D02*
X309888800Y-139762400D01*
X308888800Y-139762400D02*
X309388800Y-140662400D01*
X309888800Y-139762400D02*
X308888800Y-139762400D01*
X308638800Y-137562400D02*
X310138800Y-137562400D01*
X310138800Y-137562400D02*
X310138800Y-142962400D01*
X120520000Y-142962400D02*
X120520000Y-137562400D01*
X122020000Y-142962400D02*
X120520000Y-142962400D01*
X121770000Y-140762400D02*
X120770000Y-140762400D01*
X121270000Y-140662400D02*
X121770000Y-139762400D01*
X120770000Y-139762400D02*
X121270000Y-140662400D01*
X121770000Y-139762400D02*
X120770000Y-139762400D01*
X120520000Y-137562400D02*
X122020000Y-137562400D01*
X122020000Y-137562400D02*
X122020000Y-142962400D01*
X82420000Y-123912400D02*
X82420000Y-118512400D01*
X83920000Y-123912400D02*
X82420000Y-123912400D01*
X83670000Y-121712400D02*
X82670000Y-121712400D01*
X83170000Y-121612400D02*
X83670000Y-120712400D01*
X82670000Y-120712400D02*
X83170000Y-121612400D01*
X83670000Y-120712400D02*
X82670000Y-120712400D01*
X82420000Y-118512400D02*
X83920000Y-118512400D01*
X83920000Y-118512400D02*
X83920000Y-123912400D01*
X308638800Y-123912400D02*
X308638800Y-118512400D01*
X310138800Y-123912400D02*
X308638800Y-123912400D01*
X309888800Y-121712400D02*
X308888800Y-121712400D01*
X309388800Y-121612400D02*
X309888800Y-120712400D01*
X308888800Y-120712400D02*
X309388800Y-121612400D01*
X309888800Y-120712400D02*
X308888800Y-120712400D01*
X308638800Y-118512400D02*
X310138800Y-118512400D01*
X310138800Y-118512400D02*
X310138800Y-123912400D01*
D12*
X256540000Y-115843700D03*
D13*
X261620000Y-115843700D03*
D12*
X266700000Y-115843700D03*
X332740000Y-115843700D03*
D13*
X337820000Y-115843700D03*
D12*
X342900000Y-115843700D03*
X106665000Y-153943700D03*
D13*
X111745000Y-153943700D03*
D12*
X116825000Y-153943700D03*
X275590000Y-115843700D03*
D13*
X280670000Y-115843700D03*
D12*
X285750000Y-115843700D03*
X49515000Y-153943700D03*
D13*
X54595000Y-153943700D03*
D12*
X59675000Y-153943700D03*
X87615000Y-153943700D03*
D13*
X92695000Y-153943700D03*
D12*
X97775000Y-153943700D03*
X106665000Y-115843700D03*
D13*
X111745000Y-115843700D03*
D12*
X116825000Y-115843700D03*
X49515000Y-115843700D03*
D13*
X54595000Y-115843700D03*
D12*
X59675000Y-115843700D03*
X237490000Y-172993700D03*
D13*
X242570000Y-172993700D03*
D12*
X247650000Y-172993700D03*
X125715000Y-172993700D03*
D13*
X130795000Y-172993700D03*
D12*
X135875000Y-172993700D03*
X294640000Y-134893700D03*
D13*
X299720000Y-134893700D03*
D12*
X304800000Y-134893700D03*
X275590000Y-153943700D03*
D13*
X280670000Y-153943700D03*
D12*
X285750000Y-153943700D03*
X87615000Y-115843700D03*
D13*
X92695000Y-115843700D03*
D12*
X97775000Y-115843700D03*
X68565000Y-153943700D03*
D13*
X73645000Y-153943700D03*
D12*
X78725000Y-153943700D03*
X275590000Y-172993700D03*
D13*
X280670000Y-172993700D03*
D12*
X285750000Y-172993700D03*
X87615000Y-134893700D03*
D13*
X92695000Y-134893700D03*
D12*
X97775000Y-134893700D03*
X125715000Y-134893700D03*
D13*
X130795000Y-134893700D03*
D12*
X135875000Y-134893700D03*
X256540000Y-153943700D03*
D13*
X261620000Y-153943700D03*
D12*
X266700000Y-153943700D03*
X125715000Y-153943700D03*
D13*
X130795000Y-153943700D03*
D12*
X135875000Y-153943700D03*
X294640000Y-115843700D03*
D13*
X299720000Y-115843700D03*
D12*
X304800000Y-115843700D03*
X294640000Y-153943700D03*
D13*
X299720000Y-153943700D03*
D12*
X304800000Y-153943700D03*
X125715000Y-115843700D03*
D13*
X130795000Y-115843700D03*
D12*
X135875000Y-115843700D03*
X332740000Y-134893700D03*
D13*
X337820000Y-134893700D03*
D12*
X342900000Y-134893700D03*
X256540000Y-134893700D03*
D13*
X261620000Y-134893700D03*
D12*
X266700000Y-134893700D03*
X163815000Y-172993700D03*
D13*
X168895000Y-172993700D03*
D12*
X173975000Y-172993700D03*
X313690000Y-115843700D03*
D13*
X318770000Y-115843700D03*
D12*
X323850000Y-115843700D03*
X256540000Y-172993700D03*
D13*
X261620000Y-172993700D03*
D12*
X266700000Y-172993700D03*
X68565000Y-115843700D03*
D13*
X73645000Y-115843700D03*
D12*
X78725000Y-115843700D03*
X275590000Y-134893700D03*
D13*
X280670000Y-134893700D03*
D12*
X285750000Y-134893700D03*
X49515000Y-134893700D03*
D13*
X54595000Y-134893700D03*
D12*
X59675000Y-134893700D03*
X68565000Y-134893700D03*
D13*
X73645000Y-134893700D03*
D12*
X78725000Y-134893700D03*
X144765000Y-115843700D03*
D13*
X149845000Y-115843700D03*
D12*
X154925000Y-115843700D03*
X144765000Y-134893700D03*
D13*
X149845000Y-134893700D03*
D12*
X154925000Y-134893700D03*
X332740000Y-153943700D03*
D13*
X337820000Y-153943700D03*
D12*
X342900000Y-153943700D03*
X106665000Y-134893700D03*
D13*
X111745000Y-134893700D03*
D12*
X116825000Y-134893700D03*
X144765000Y-153943700D03*
D13*
X149845000Y-153943700D03*
D12*
X154925000Y-153943700D03*
X144765000Y-172993700D03*
D13*
X149845000Y-172993700D03*
D12*
X154925000Y-172993700D03*
X210245000Y-168231200D03*
X203745000Y-168231200D03*
X351790000Y-115843700D03*
D13*
X356870000Y-115843700D03*
D12*
X361950000Y-115843700D03*
X313690000Y-153943700D03*
D13*
X318770000Y-153943700D03*
D12*
X323850000Y-153943700D03*
X313690000Y-134893700D03*
D13*
X318770000Y-134893700D03*
D12*
X323850000Y-134893700D03*
M02*
