G04 #@! TF.GenerationSoftware,KiCad,Pcbnew,7.0.10*
G04 #@! TF.CreationDate,2024-03-22T12:33:34+09:00*
G04 #@! TF.ProjectId,first_keyboard,66697273-745f-46b6-9579-626f6172642e,rev?*
G04 #@! TF.SameCoordinates,Original*
G04 #@! TF.FileFunction,Profile,NP*
%FSLAX46Y46*%
G04 Gerber Fmt 4.6, Leading zero omitted, Abs format (unit mm)*
G04 Created by KiCad (PCBNEW 7.0.10) date 2024-03-22 12:33:34*
%MOMM*%
%LPD*%
G01*
G04 APERTURE LIST*
G04 #@! TA.AperFunction,Profile*
%ADD10C,0.200000*%
G04 #@! TD*
G04 #@! TA.AperFunction,Profile*
%ADD11C,0.150000*%
G04 #@! TD*
G04 #@! TA.AperFunction,Profile*
%ADD12C,0.120000*%
G04 #@! TD*
G04 APERTURE END LIST*
D10*
X282368750Y-100012500D02*
X207168750Y-116681250D01*
X283368750Y-29075000D02*
X283368750Y-99012500D01*
X283368750Y-99012500D02*
X282368750Y-100012500D01*
X282368750Y-28075000D02*
X283368750Y-29075000D01*
X11906250Y-99012500D02*
X11906250Y-29075000D01*
X207168750Y-116681250D02*
X88106250Y-116681250D01*
X88106250Y-116681250D02*
X12906250Y-100012500D01*
X12906250Y-28075000D02*
X282368750Y-28075000D01*
X12906250Y-28075000D02*
X11906250Y-29075000D01*
X11906250Y-99012500D02*
X12906250Y-100012500D01*
D11*
X207262500Y-76293750D02*
X221362500Y-76293750D01*
X207262500Y-90393750D02*
X207262500Y-76293750D01*
X221362500Y-76293750D02*
X221362500Y-90393750D01*
X221362500Y-90393750D02*
X207262500Y-90393750D01*
X54862500Y-38193750D02*
X68962500Y-38193750D01*
X54862500Y-52293750D02*
X54862500Y-38193750D01*
X68962500Y-38193750D02*
X68962500Y-52293750D01*
X68962500Y-52293750D02*
X54862500Y-52293750D01*
X35812500Y-57243750D02*
X49912500Y-57243750D01*
X35812500Y-71343750D02*
X35812500Y-57243750D01*
X49912500Y-57243750D02*
X49912500Y-71343750D01*
X49912500Y-71343750D02*
X35812500Y-71343750D01*
X16762500Y-38193750D02*
X30862500Y-38193750D01*
X16762500Y-52293750D02*
X16762500Y-38193750D01*
X30862500Y-38193750D02*
X30862500Y-52293750D01*
X30862500Y-52293750D02*
X16762500Y-52293750D01*
X207262500Y-38193750D02*
X221362500Y-38193750D01*
X207262500Y-52293750D02*
X207262500Y-38193750D01*
X221362500Y-38193750D02*
X221362500Y-52293750D01*
X221362500Y-52293750D02*
X207262500Y-52293750D01*
X207262500Y-57243750D02*
X221362500Y-57243750D01*
X207262500Y-71343750D02*
X207262500Y-57243750D01*
X221362500Y-57243750D02*
X221362500Y-71343750D01*
X221362500Y-71343750D02*
X207262500Y-71343750D01*
X188212500Y-38193750D02*
X202312500Y-38193750D01*
X188212500Y-52293750D02*
X188212500Y-38193750D01*
X202312500Y-38193750D02*
X202312500Y-52293750D01*
X202312500Y-52293750D02*
X188212500Y-52293750D01*
X188212500Y-95343750D02*
X202312500Y-95343750D01*
X188212500Y-109443750D02*
X188212500Y-95343750D01*
X202312500Y-95343750D02*
X202312500Y-109443750D01*
X202312500Y-109443750D02*
X188212500Y-109443750D01*
X169162500Y-76293750D02*
X183262500Y-76293750D01*
X169162500Y-90393750D02*
X169162500Y-76293750D01*
X183262500Y-76293750D02*
X183262500Y-90393750D01*
X183262500Y-90393750D02*
X169162500Y-90393750D01*
X16762500Y-57243750D02*
X30862500Y-57243750D01*
X16762500Y-71343750D02*
X16762500Y-57243750D01*
X30862500Y-57243750D02*
X30862500Y-71343750D01*
X30862500Y-71343750D02*
X16762500Y-71343750D01*
X112012500Y-38193750D02*
X126112500Y-38193750D01*
X112012500Y-52293750D02*
X112012500Y-38193750D01*
X126112500Y-38193750D02*
X126112500Y-52293750D01*
X126112500Y-52293750D02*
X112012500Y-52293750D01*
X112012500Y-57243750D02*
X126112500Y-57243750D01*
X112012500Y-71343750D02*
X112012500Y-57243750D01*
X126112500Y-57243750D02*
X126112500Y-71343750D01*
X126112500Y-71343750D02*
X112012500Y-71343750D01*
X264412500Y-38193750D02*
X278512500Y-38193750D01*
X264412500Y-52293750D02*
X264412500Y-38193750D01*
X278512500Y-38193750D02*
X278512500Y-52293750D01*
X278512500Y-52293750D02*
X264412500Y-52293750D01*
X92962500Y-38193750D02*
X107062500Y-38193750D01*
X92962500Y-52293750D02*
X92962500Y-38193750D01*
X107062500Y-38193750D02*
X107062500Y-52293750D01*
X107062500Y-52293750D02*
X92962500Y-52293750D01*
X35812500Y-76293750D02*
X49912500Y-76293750D01*
X35812500Y-90393750D02*
X35812500Y-76293750D01*
X49912500Y-76293750D02*
X49912500Y-90393750D01*
X49912500Y-90393750D02*
X35812500Y-90393750D01*
D12*
X265462500Y-89218750D02*
X265462500Y-82218750D01*
X280262500Y-89218750D02*
X265462500Y-89218750D01*
X265462500Y-82218750D02*
X280262500Y-82218750D01*
X280262500Y-82218750D02*
X280262500Y-89218750D01*
D11*
X264412500Y-80868750D02*
X264412500Y-66768750D01*
X278512500Y-80868750D02*
X264412500Y-80868750D01*
X264412500Y-66768750D02*
X278512500Y-66768750D01*
X278512500Y-66768750D02*
X278512500Y-80868750D01*
D12*
X265462500Y-65418750D02*
X280262500Y-65418750D01*
X280262500Y-65418750D02*
X280262500Y-58418750D01*
X265462500Y-58418750D02*
X265462500Y-65418750D01*
X280262500Y-58418750D02*
X265462500Y-58418750D01*
D11*
X188212500Y-76293750D02*
X202312500Y-76293750D01*
X188212500Y-90393750D02*
X188212500Y-76293750D01*
X202312500Y-76293750D02*
X202312500Y-90393750D01*
X202312500Y-90393750D02*
X188212500Y-90393750D01*
X54862500Y-57243750D02*
X68962500Y-57243750D01*
X54862500Y-71343750D02*
X54862500Y-57243750D01*
X68962500Y-57243750D02*
X68962500Y-71343750D01*
X68962500Y-71343750D02*
X54862500Y-71343750D01*
X73912500Y-76293750D02*
X88012500Y-76293750D01*
X73912500Y-90393750D02*
X73912500Y-76293750D01*
X88012500Y-76293750D02*
X88012500Y-90393750D01*
X88012500Y-90393750D02*
X73912500Y-90393750D01*
X169162500Y-95343750D02*
X183262500Y-95343750D01*
X169162500Y-109443750D02*
X169162500Y-95343750D01*
X183262500Y-95343750D02*
X183262500Y-109443750D01*
X183262500Y-109443750D02*
X169162500Y-109443750D01*
X245362500Y-76293750D02*
X259462500Y-76293750D01*
X245362500Y-90393750D02*
X245362500Y-76293750D01*
X259462500Y-76293750D02*
X259462500Y-90393750D01*
X259462500Y-90393750D02*
X245362500Y-90393750D01*
X245362500Y-57243750D02*
X259462500Y-57243750D01*
X245362500Y-71343750D02*
X245362500Y-57243750D01*
X259462500Y-57243750D02*
X259462500Y-71343750D01*
X259462500Y-71343750D02*
X245362500Y-71343750D01*
X92962500Y-76293750D02*
X107062500Y-76293750D01*
X92962500Y-90393750D02*
X92962500Y-76293750D01*
X107062500Y-76293750D02*
X107062500Y-90393750D01*
X107062500Y-90393750D02*
X92962500Y-90393750D01*
X92962500Y-95343750D02*
X107062500Y-95343750D01*
X92962500Y-109443750D02*
X92962500Y-95343750D01*
X107062500Y-95343750D02*
X107062500Y-109443750D01*
X107062500Y-109443750D02*
X92962500Y-109443750D01*
X245362500Y-38193750D02*
X259462500Y-38193750D01*
X245362500Y-52293750D02*
X245362500Y-38193750D01*
X259462500Y-38193750D02*
X259462500Y-52293750D01*
X259462500Y-52293750D02*
X245362500Y-52293750D01*
X112012500Y-76293750D02*
X126112500Y-76293750D01*
X112012500Y-90393750D02*
X112012500Y-76293750D01*
X126112500Y-76293750D02*
X126112500Y-90393750D01*
X126112500Y-90393750D02*
X112012500Y-90393750D01*
X54862500Y-76293750D02*
X68962500Y-76293750D01*
X54862500Y-90393750D02*
X54862500Y-76293750D01*
X68962500Y-76293750D02*
X68962500Y-90393750D01*
X68962500Y-90393750D02*
X54862500Y-90393750D01*
X169162500Y-38193750D02*
X183262500Y-38193750D01*
X169162500Y-52293750D02*
X169162500Y-38193750D01*
X183262500Y-38193750D02*
X183262500Y-52293750D01*
X183262500Y-52293750D02*
X169162500Y-52293750D01*
X16762500Y-76293750D02*
X30862500Y-76293750D01*
X16762500Y-90393750D02*
X16762500Y-76293750D01*
X30862500Y-76293750D02*
X30862500Y-90393750D01*
X30862500Y-90393750D02*
X16762500Y-90393750D01*
X169162500Y-57243750D02*
X183262500Y-57243750D01*
X169162500Y-71343750D02*
X169162500Y-57243750D01*
X183262500Y-57243750D02*
X183262500Y-71343750D01*
X183262500Y-71343750D02*
X169162500Y-71343750D01*
X92962500Y-57243750D02*
X107062500Y-57243750D01*
X92962500Y-71343750D02*
X92962500Y-57243750D01*
X107062500Y-57243750D02*
X107062500Y-71343750D01*
X107062500Y-71343750D02*
X92962500Y-71343750D01*
X35812500Y-38193750D02*
X49912500Y-38193750D01*
X35812500Y-52293750D02*
X35812500Y-38193750D01*
X49912500Y-38193750D02*
X49912500Y-52293750D01*
X49912500Y-52293750D02*
X35812500Y-52293750D01*
X73912500Y-57243750D02*
X88012500Y-57243750D01*
X73912500Y-71343750D02*
X73912500Y-57243750D01*
X88012500Y-57243750D02*
X88012500Y-71343750D01*
X88012500Y-71343750D02*
X73912500Y-71343750D01*
X226312500Y-76293750D02*
X240412500Y-76293750D01*
X226312500Y-90393750D02*
X226312500Y-76293750D01*
X240412500Y-76293750D02*
X240412500Y-90393750D01*
X240412500Y-90393750D02*
X226312500Y-90393750D01*
X226312500Y-38193750D02*
X240412500Y-38193750D01*
X226312500Y-52293750D02*
X226312500Y-38193750D01*
X240412500Y-38193750D02*
X240412500Y-52293750D01*
X240412500Y-52293750D02*
X226312500Y-52293750D01*
X73912500Y-38193750D02*
X88012500Y-38193750D01*
X73912500Y-52293750D02*
X73912500Y-38193750D01*
X88012500Y-38193750D02*
X88012500Y-52293750D01*
X88012500Y-52293750D02*
X73912500Y-52293750D01*
X226312500Y-57243750D02*
X240412500Y-57243750D01*
X226312500Y-71343750D02*
X226312500Y-57243750D01*
X240412500Y-57243750D02*
X240412500Y-71343750D01*
X240412500Y-71343750D02*
X226312500Y-71343750D01*
X112012500Y-95343750D02*
X126112500Y-95343750D01*
X112012500Y-109443750D02*
X112012500Y-95343750D01*
X126112500Y-95343750D02*
X126112500Y-109443750D01*
X126112500Y-109443750D02*
X112012500Y-109443750D01*
X188212500Y-57243750D02*
X202312500Y-57243750D01*
X188212500Y-71343750D02*
X188212500Y-57243750D01*
X202312500Y-57243750D02*
X202312500Y-71343750D01*
X202312500Y-71343750D02*
X188212500Y-71343750D01*
M02*
