G04 #@! TF.GenerationSoftware,KiCad,Pcbnew,9.0.6*
G04 #@! TF.CreationDate,2025-12-20T22:56:38+09:00*
G04 #@! TF.ProjectId,first_keyboard,66697273-745f-46b6-9579-626f6172642e,rev?*
G04 #@! TF.SameCoordinates,Original*
G04 #@! TF.FileFunction,Legend,Top*
G04 #@! TF.FilePolarity,Positive*
%FSLAX46Y46*%
G04 Gerber Fmt 4.6, Leading zero omitted, Abs format (unit mm)*
G04 Created by KiCad (PCBNEW 9.0.6) date 2025-12-20 22:56:38*
%MOMM*%
%LPD*%
G01*
G04 APERTURE LIST*
%ADD10C,2.000000*%
%ADD11C,4.000000*%
%ADD12R,1.397000X1.397000*%
%ADD13C,1.397000*%
G04 APERTURE END LIST*
D10*
X63023800Y-119062500D03*
D11*
X68103800Y-119062500D03*
D10*
X73183800Y-119062500D03*
D12*
X272891300Y-156210000D03*
D13*
X272891300Y-148590000D03*
D10*
X63023800Y-61912500D03*
D11*
X68103800Y-61912500D03*
D10*
X73183800Y-61912500D03*
X43973800Y-119062500D03*
D11*
X49053800Y-119062500D03*
D10*
X54133800Y-119062500D03*
D12*
X58578800Y-127635000D03*
D13*
X58578800Y-120015000D03*
D10*
X296386300Y-80962500D03*
D11*
X301466300Y-80962500D03*
D10*
X306546300Y-80962500D03*
D12*
X215741300Y-94297500D03*
D13*
X215741300Y-86677500D03*
D10*
X182086300Y-80962500D03*
D11*
X187166300Y-80962500D03*
D10*
X192246300Y-80962500D03*
D12*
X330041300Y-108585000D03*
D13*
X330041300Y-100965000D03*
D10*
X101123800Y-100012500D03*
D11*
X106203800Y-100012500D03*
D10*
X111283800Y-100012500D03*
D12*
X349091300Y-94297500D03*
D13*
X349091300Y-86677500D03*
D12*
X58578800Y-89535000D03*
D13*
X58578800Y-81915000D03*
D10*
X163036300Y-80962500D03*
D11*
X168116300Y-80962500D03*
D10*
X173196300Y-80962500D03*
D12*
X77628800Y-146685000D03*
D13*
X77628800Y-139065000D03*
D10*
X163036300Y-100012500D03*
D11*
X168116300Y-100012500D03*
D10*
X173196300Y-100012500D03*
X334486300Y-80962500D03*
D11*
X339566300Y-80962500D03*
D10*
X344646300Y-80962500D03*
D12*
X196691300Y-127635000D03*
D13*
X196691300Y-120015000D03*
D10*
X296386300Y-119062500D03*
D11*
X301466300Y-119062500D03*
D10*
X306546300Y-119062500D03*
X124936300Y-85725000D03*
D11*
X130016300Y-85725000D03*
D10*
X135096300Y-85725000D03*
D12*
X115728800Y-127635000D03*
D13*
X115728800Y-120015000D03*
D12*
X291941300Y-151447500D03*
D13*
X291941300Y-143827500D03*
D12*
X234791300Y-132397500D03*
D13*
X234791300Y-124777500D03*
D10*
X182086300Y-119062500D03*
D11*
X187166300Y-119062500D03*
D10*
X192246300Y-119062500D03*
D12*
X330041300Y-127635000D03*
D13*
X330041300Y-120015000D03*
D10*
X201136300Y-138112500D03*
D11*
X206216300Y-138112500D03*
D10*
X211296300Y-138112500D03*
X277336300Y-142875000D03*
D11*
X282416300Y-142875000D03*
D10*
X287496300Y-142875000D03*
X220186300Y-123825000D03*
D11*
X225266300Y-123825000D03*
D10*
X230346300Y-123825000D03*
D12*
X58578800Y-70485000D03*
D13*
X58578800Y-62865000D03*
D12*
X368141300Y-113347500D03*
D13*
X368141300Y-105727500D03*
D12*
X330041300Y-89535000D03*
D13*
X330041300Y-81915000D03*
D10*
X143986300Y-104775000D03*
D11*
X149066300Y-104775000D03*
D10*
X154146300Y-104775000D03*
D12*
X291941300Y-113347500D03*
D13*
X291941300Y-105727500D03*
D10*
X353536300Y-104775000D03*
D11*
X358616300Y-104775000D03*
D10*
X363696300Y-104775000D03*
D12*
X177641300Y-108585000D03*
D13*
X177641300Y-100965000D03*
D12*
X96678800Y-70485000D03*
D13*
X96678800Y-62865000D03*
D12*
X349091300Y-132397500D03*
D13*
X349091300Y-124777500D03*
D10*
X220186300Y-85725000D03*
D11*
X225266300Y-85725000D03*
D10*
X230346300Y-85725000D03*
D12*
X368141300Y-94297500D03*
D13*
X368141300Y-86677500D03*
D10*
X82073800Y-119062500D03*
D11*
X87153800Y-119062500D03*
D10*
X92233800Y-119062500D03*
X277336300Y-85725000D03*
D11*
X282416300Y-85725000D03*
D10*
X287496300Y-85725000D03*
X163036300Y-119062500D03*
D11*
X168116300Y-119062500D03*
D10*
X173196300Y-119062500D03*
X258286300Y-147637500D03*
D11*
X263366300Y-147637500D03*
D10*
X268446300Y-147637500D03*
X124936300Y-123825000D03*
D11*
X130016300Y-123825000D03*
D10*
X135096300Y-123825000D03*
D12*
X215741300Y-132397500D03*
D13*
X215741300Y-124777500D03*
D12*
X58578800Y-108585000D03*
D13*
X58578800Y-100965000D03*
D10*
X143986300Y-123825000D03*
D11*
X149066300Y-123825000D03*
D10*
X154146300Y-123825000D03*
D12*
X139541300Y-94297500D03*
D13*
X139541300Y-86677500D03*
D10*
X334486300Y-100012500D03*
D11*
X339566300Y-100012500D03*
D10*
X344646300Y-100012500D03*
X220186300Y-104775000D03*
D11*
X225266300Y-104775000D03*
D10*
X230346300Y-104775000D03*
D12*
X158591300Y-94297500D03*
D13*
X158591300Y-86677500D03*
D10*
X143986300Y-85725000D03*
D11*
X149066300Y-85725000D03*
D10*
X154146300Y-85725000D03*
X277336300Y-104775000D03*
D11*
X282416300Y-104775000D03*
D10*
X287496300Y-104775000D03*
X43973800Y-100012500D03*
D11*
X49053800Y-100012500D03*
D10*
X54133800Y-100012500D03*
X124936300Y-104775000D03*
D11*
X130016300Y-104775000D03*
D10*
X135096300Y-104775000D03*
X101123800Y-80962500D03*
D11*
X106203800Y-80962500D03*
D10*
X111283800Y-80962500D03*
D12*
X77628800Y-127635000D03*
D13*
X77628800Y-120015000D03*
D10*
X201136300Y-80962500D03*
D11*
X206216300Y-80962500D03*
D10*
X211296300Y-80962500D03*
X82073800Y-138112500D03*
D11*
X87153800Y-138112500D03*
D10*
X92233800Y-138112500D03*
X201136300Y-100012500D03*
D11*
X206216300Y-100012500D03*
D10*
X211296300Y-100012500D03*
D12*
X158591300Y-113347500D03*
D13*
X158591300Y-105727500D03*
D10*
X315436300Y-100012500D03*
D11*
X320516300Y-100012500D03*
D10*
X325596300Y-100012500D03*
D12*
X234791300Y-113347500D03*
D13*
X234791300Y-105727500D03*
D12*
X291941300Y-132397500D03*
D13*
X291941300Y-124777500D03*
D12*
X310991300Y-127635000D03*
D13*
X310991300Y-120015000D03*
D12*
X196691300Y-108585000D03*
D13*
X196691300Y-100965000D03*
D12*
X77628800Y-89535000D03*
D13*
X77628800Y-81915000D03*
D12*
X115728800Y-70485000D03*
D13*
X115728800Y-62865000D03*
D10*
X296386300Y-138112500D03*
D11*
X301466300Y-138112500D03*
D10*
X306546300Y-138112500D03*
D12*
X196691300Y-89535000D03*
D13*
X196691300Y-81915000D03*
D10*
X201136300Y-119062500D03*
D11*
X206216300Y-119062500D03*
D10*
X211296300Y-119062500D03*
D12*
X96678800Y-89535000D03*
D13*
X96678800Y-81915000D03*
D12*
X96678800Y-108585000D03*
D13*
X96678800Y-100965000D03*
D12*
X381476300Y-95250000D03*
D13*
X373856300Y-95250000D03*
D12*
X177641300Y-89535000D03*
D13*
X177641300Y-81915000D03*
D10*
X82073800Y-61912500D03*
D11*
X87153800Y-61912500D03*
D10*
X92233800Y-61912500D03*
X82073800Y-80962500D03*
D11*
X87153800Y-80962500D03*
D10*
X92233800Y-80962500D03*
X220186300Y-142875000D03*
D11*
X225266300Y-142875000D03*
D10*
X230346300Y-142875000D03*
D12*
X310991300Y-146685000D03*
D13*
X310991300Y-139065000D03*
D12*
X310991300Y-108585000D03*
D13*
X310991300Y-100965000D03*
D10*
X101123800Y-61912500D03*
D11*
X106203800Y-61912500D03*
D10*
X111283800Y-61912500D03*
D12*
X215741300Y-151447500D03*
D13*
X215741300Y-143827500D03*
D12*
X139541300Y-132397500D03*
D13*
X139541300Y-124777500D03*
D10*
X315436300Y-119062500D03*
D11*
X320516300Y-119062500D03*
D10*
X325596300Y-119062500D03*
X239236300Y-147637500D03*
D11*
X244316300Y-147637500D03*
D10*
X249396300Y-147637500D03*
X101123800Y-119062500D03*
D11*
X106203800Y-119062500D03*
D10*
X111283800Y-119062500D03*
D12*
X381476300Y-133350000D03*
D13*
X373856300Y-133350000D03*
D12*
X96678800Y-146685000D03*
D13*
X96678800Y-139065000D03*
D10*
X353536300Y-123825000D03*
D11*
X358616300Y-123825000D03*
D10*
X363696300Y-123825000D03*
X43973800Y-80962500D03*
D11*
X49053800Y-80962500D03*
D10*
X54133800Y-80962500D03*
D12*
X158591300Y-132397500D03*
D13*
X158591300Y-124777500D03*
D10*
X296386300Y-100012500D03*
D11*
X301466300Y-100012500D03*
D10*
X306546300Y-100012500D03*
X277336300Y-123825000D03*
D11*
X282416300Y-123825000D03*
D10*
X287496300Y-123825000D03*
D12*
X253841300Y-156210000D03*
D13*
X253841300Y-148590000D03*
D12*
X96678800Y-127635000D03*
D13*
X96678800Y-120015000D03*
D12*
X234791300Y-94297500D03*
D13*
X234791300Y-86677500D03*
D12*
X234791300Y-156210000D03*
D13*
X234791300Y-148590000D03*
D12*
X177641300Y-127635000D03*
D13*
X177641300Y-120015000D03*
D12*
X387191300Y-94297500D03*
D13*
X387191300Y-86677500D03*
D10*
X82073800Y-100012500D03*
D11*
X87153800Y-100012500D03*
D10*
X92233800Y-100012500D03*
X315436300Y-80962500D03*
D11*
X320516300Y-80962500D03*
D10*
X325596300Y-80962500D03*
D12*
X115728800Y-89535000D03*
D13*
X115728800Y-81915000D03*
D10*
X63023800Y-80962500D03*
D11*
X68103800Y-80962500D03*
D10*
X73183800Y-80962500D03*
D12*
X115728800Y-146685000D03*
D13*
X115728800Y-139065000D03*
D12*
X215741300Y-113347500D03*
D13*
X215741300Y-105727500D03*
D12*
X310991300Y-89535000D03*
D13*
X310991300Y-81915000D03*
D12*
X115728800Y-108585000D03*
D13*
X115728800Y-100965000D03*
D12*
X77628800Y-70485000D03*
D13*
X77628800Y-62865000D03*
D10*
X353536300Y-85725000D03*
D11*
X358616300Y-85725000D03*
D10*
X363696300Y-85725000D03*
X182086300Y-100012500D03*
D11*
X187166300Y-100012500D03*
D10*
X192246300Y-100012500D03*
X372586300Y-85725000D03*
D11*
X377666300Y-85725000D03*
D10*
X382746300Y-85725000D03*
X63023800Y-100012500D03*
D11*
X68103800Y-100012500D03*
D10*
X73183800Y-100012500D03*
X334486300Y-119062500D03*
D11*
X339566300Y-119062500D03*
D10*
X344646300Y-119062500D03*
X101123800Y-138112500D03*
D11*
X106203800Y-138112500D03*
D10*
X111283800Y-138112500D03*
D12*
X291941300Y-94297500D03*
D13*
X291941300Y-86677500D03*
D10*
X43973800Y-61912500D03*
D11*
X49053800Y-61912500D03*
D10*
X54133800Y-61912500D03*
D12*
X349091300Y-113347500D03*
D13*
X349091300Y-105727500D03*
D12*
X77628800Y-108585000D03*
D13*
X77628800Y-100965000D03*
D12*
X139541300Y-113347500D03*
D13*
X139541300Y-105727500D03*
M02*
