G04 #@! TF.GenerationSoftware,KiCad,Pcbnew,9.0.6*
G04 #@! TF.CreationDate,2025-12-20T22:56:38+09:00*
G04 #@! TF.ProjectId,first_keyboard,66697273-745f-46b6-9579-626f6172642e,rev?*
G04 #@! TF.SameCoordinates,Original*
G04 #@! TF.FileFunction,Copper,L1,Top*
G04 #@! TF.FilePolarity,Positive*
%FSLAX46Y46*%
G04 Gerber Fmt 4.6, Leading zero omitted, Abs format (unit mm)*
G04 Created by KiCad (PCBNEW 9.0.6) date 2025-12-20 22:56:38*
%MOMM*%
%LPD*%
G01*
G04 APERTURE LIST*
G04 #@! TA.AperFunction,ComponentPad*
%ADD10R,1.397000X1.397000*%
G04 #@! TD*
G04 #@! TA.AperFunction,ComponentPad*
%ADD11C,1.397000*%
G04 #@! TD*
G04 #@! TA.AperFunction,ComponentPad*
%ADD12O,1.700000X1.700000*%
G04 #@! TD*
G04 #@! TA.AperFunction,ComponentPad*
%ADD13R,1.700000X1.700000*%
G04 #@! TD*
G04 #@! TA.AperFunction,ViaPad*
%ADD14C,0.800000*%
G04 #@! TD*
G04 #@! TA.AperFunction,Conductor*
%ADD15C,0.250000*%
G04 #@! TD*
G04 APERTURE END LIST*
D10*
X272891300Y-156210000D03*
D11*
X272891300Y-148590000D03*
D10*
X58578800Y-127635000D03*
D11*
X58578800Y-120015000D03*
D10*
X215741300Y-94297500D03*
D11*
X215741300Y-86677500D03*
D10*
X330041300Y-108585000D03*
D11*
X330041300Y-100965000D03*
D10*
X349091300Y-94297500D03*
D11*
X349091300Y-86677500D03*
D10*
X58578800Y-89535000D03*
D11*
X58578800Y-81915000D03*
D10*
X77628800Y-146685000D03*
D11*
X77628800Y-139065000D03*
D10*
X196691300Y-127635000D03*
D11*
X196691300Y-120015000D03*
D10*
X115728800Y-127635000D03*
D11*
X115728800Y-120015000D03*
D10*
X291941300Y-151447500D03*
D11*
X291941300Y-143827500D03*
D10*
X234791300Y-132397500D03*
D11*
X234791300Y-124777500D03*
D10*
X330041300Y-127635000D03*
D11*
X330041300Y-120015000D03*
D10*
X58578800Y-70485000D03*
D11*
X58578800Y-62865000D03*
D10*
X368141300Y-113347500D03*
D11*
X368141300Y-105727500D03*
D10*
X330041300Y-89535000D03*
D11*
X330041300Y-81915000D03*
D10*
X291941300Y-113347500D03*
D11*
X291941300Y-105727500D03*
D10*
X177641300Y-108585000D03*
D11*
X177641300Y-100965000D03*
D10*
X96678800Y-70485000D03*
D11*
X96678800Y-62865000D03*
D10*
X349091300Y-132397500D03*
D11*
X349091300Y-124777500D03*
D10*
X368141300Y-94297500D03*
D11*
X368141300Y-86677500D03*
D10*
X215741300Y-132397500D03*
D11*
X215741300Y-124777500D03*
D10*
X58578800Y-108585000D03*
D11*
X58578800Y-100965000D03*
D10*
X139541300Y-94297500D03*
D11*
X139541300Y-86677500D03*
D10*
X158591300Y-94297500D03*
D11*
X158591300Y-86677500D03*
D10*
X77628800Y-127635000D03*
D11*
X77628800Y-120015000D03*
D10*
X158591300Y-113347500D03*
D11*
X158591300Y-105727500D03*
D10*
X234791300Y-113347500D03*
D11*
X234791300Y-105727500D03*
D10*
X291941300Y-132397500D03*
D11*
X291941300Y-124777500D03*
D10*
X310991300Y-127635000D03*
D11*
X310991300Y-120015000D03*
D10*
X196691300Y-108585000D03*
D11*
X196691300Y-100965000D03*
D10*
X77628800Y-89535000D03*
D11*
X77628800Y-81915000D03*
D10*
X115728800Y-70485000D03*
D11*
X115728800Y-62865000D03*
D10*
X196691300Y-89535000D03*
D11*
X196691300Y-81915000D03*
D10*
X96678800Y-89535000D03*
D11*
X96678800Y-81915000D03*
D10*
X96678800Y-108585000D03*
D11*
X96678800Y-100965000D03*
D10*
X381476300Y-95250000D03*
D11*
X373856300Y-95250000D03*
D10*
X177641300Y-89535000D03*
D11*
X177641300Y-81915000D03*
D10*
X310991300Y-146685000D03*
D11*
X310991300Y-139065000D03*
D10*
X310991300Y-108585000D03*
D11*
X310991300Y-100965000D03*
D10*
X215741300Y-151447500D03*
D11*
X215741300Y-143827500D03*
D10*
X139541300Y-132397500D03*
D11*
X139541300Y-124777500D03*
D10*
X381476300Y-133350000D03*
D11*
X373856300Y-133350000D03*
D10*
X96678800Y-146685000D03*
D11*
X96678800Y-139065000D03*
D10*
X158591300Y-132397500D03*
D11*
X158591300Y-124777500D03*
D10*
X253841300Y-156210000D03*
D11*
X253841300Y-148590000D03*
D10*
X96678800Y-127635000D03*
D11*
X96678800Y-120015000D03*
D10*
X234791300Y-94297500D03*
D11*
X234791300Y-86677500D03*
D10*
X234791300Y-156210000D03*
D11*
X234791300Y-148590000D03*
D10*
X177641300Y-127635000D03*
D11*
X177641300Y-120015000D03*
D10*
X387191300Y-94297500D03*
D11*
X387191300Y-86677500D03*
D10*
X115728800Y-89535000D03*
D11*
X115728800Y-81915000D03*
D10*
X115728800Y-146685000D03*
D11*
X115728800Y-139065000D03*
D10*
X215741300Y-113347500D03*
D11*
X215741300Y-105727500D03*
D10*
X310991300Y-89535000D03*
D11*
X310991300Y-81915000D03*
D10*
X115728800Y-108585000D03*
D11*
X115728800Y-100965000D03*
D10*
X77628800Y-70485000D03*
D11*
X77628800Y-62865000D03*
D10*
X291941300Y-94297500D03*
D11*
X291941300Y-86677500D03*
D10*
X349091300Y-113347500D03*
D11*
X349091300Y-105727500D03*
D10*
X77628800Y-108585000D03*
D11*
X77628800Y-100965000D03*
D10*
X139541300Y-113347500D03*
D11*
X139541300Y-105727500D03*
D12*
X262731300Y-73501200D03*
X262731300Y-76041200D03*
D13*
X262731300Y-78581200D03*
D12*
X262731300Y-81121200D03*
X262731300Y-83661200D03*
X262731300Y-86201200D03*
X262731300Y-88741200D03*
D13*
X262731300Y-91281200D03*
D12*
X262731300Y-93821200D03*
X262731300Y-96361200D03*
X262731300Y-98901200D03*
X262731300Y-101441200D03*
D13*
X262731300Y-103981200D03*
D12*
X262731300Y-106521200D03*
X262731300Y-109061200D03*
X262731300Y-111601200D03*
X262731300Y-114141200D03*
D13*
X262731300Y-116681200D03*
D12*
X262731300Y-119221200D03*
X262731300Y-121761200D03*
X244951300Y-121761200D03*
X244951300Y-119221200D03*
D13*
X244951300Y-116681200D03*
D12*
X244951300Y-114141200D03*
X244951300Y-111601200D03*
X244951300Y-109061200D03*
X244951300Y-106521200D03*
D13*
X244951300Y-103981200D03*
D12*
X244951300Y-101441200D03*
X244951300Y-98901200D03*
X244951300Y-96361200D03*
X244951300Y-93821200D03*
D13*
X244951300Y-91281200D03*
D12*
X244951300Y-88741200D03*
X244951300Y-86201200D03*
X244951300Y-83661200D03*
X244951300Y-81121200D03*
D13*
X244951300Y-78581200D03*
D12*
X244951300Y-76041200D03*
X244951300Y-73501200D03*
X256381300Y-121531200D03*
D13*
X253841300Y-121531200D03*
D12*
X251301300Y-121531200D03*
D14*
X183011900Y-111890400D03*
X100163700Y-92770600D03*
X113790600Y-122541900D03*
X67198400Y-91337900D03*
X49542000Y-88509800D03*
D15*
X210344500Y-111890400D02*
X183011900Y-111890400D01*
X212878700Y-114424600D02*
X210344500Y-111890400D01*
X243491200Y-114424600D02*
X212878700Y-114424600D01*
X243774600Y-114141200D02*
X243491200Y-114424600D01*
X244951300Y-114141200D02*
X243774600Y-114141200D01*
X211844100Y-92770600D02*
X100163700Y-92770600D01*
X214981900Y-95908400D02*
X211844100Y-92770600D01*
X238241800Y-95908400D02*
X214981900Y-95908400D01*
X243774600Y-101441200D02*
X238241800Y-95908400D01*
X244951300Y-101441200D02*
X243774600Y-101441200D01*
X121857900Y-122541900D02*
X113790600Y-122541900D01*
X136997200Y-107402600D02*
X121857900Y-122541900D01*
X230023300Y-107402600D02*
X136997200Y-107402600D01*
X234639000Y-102786900D02*
X230023300Y-107402600D01*
X245361000Y-102786900D02*
X234639000Y-102786900D01*
X246170000Y-101977900D02*
X245361000Y-102786900D01*
X246170000Y-98388900D02*
X246170000Y-101977900D01*
X245319000Y-97537900D02*
X246170000Y-98388900D01*
X244951300Y-97537900D02*
X245319000Y-97537900D01*
X244951300Y-96361200D02*
X244951300Y-97537900D01*
X244951300Y-93821200D02*
X243774600Y-93821200D01*
X241291300Y-91337900D02*
X67198400Y-91337900D01*
X243774600Y-93821200D02*
X241291300Y-91337900D01*
X244951300Y-88741200D02*
X243774600Y-88741200D01*
X243543200Y-88509800D02*
X49542000Y-88509800D01*
X243774600Y-88741200D02*
X243543200Y-88509800D01*
X244951300Y-119221200D02*
X243774600Y-119221200D01*
X115728800Y-146685000D02*
X115728800Y-146172400D01*
X115728800Y-146172400D02*
X115728800Y-145659800D01*
X98216600Y-146172400D02*
X97704000Y-146685000D01*
X115728800Y-146172400D02*
X98216600Y-146172400D01*
X96678800Y-146685000D02*
X97704000Y-146685000D01*
X116754000Y-144634600D02*
X115728800Y-145659800D01*
X116754000Y-137964800D02*
X116754000Y-144634600D01*
X128295900Y-126422900D02*
X116754000Y-137964800D01*
X236572900Y-126422900D02*
X128295900Y-126422900D01*
X243774600Y-119221200D02*
X236572900Y-126422900D01*
X58578800Y-127635000D02*
X59604000Y-127635000D01*
X77628800Y-127635000D02*
X59604000Y-127635000D01*
X77628800Y-127635000D02*
X78654000Y-127635000D01*
X115728800Y-127635000D02*
X96678800Y-127635000D01*
X96678800Y-127635000D02*
X78654000Y-127635000D01*
X158591300Y-132397500D02*
X139541300Y-132397500D01*
X58578800Y-108585000D02*
X59604000Y-108585000D01*
X96678800Y-108585000D02*
X77628800Y-108585000D01*
X77628800Y-108585000D02*
X59604000Y-108585000D01*
X96678800Y-108585000D02*
X115728800Y-108585000D01*
X310991300Y-127635000D02*
X330041300Y-127635000D01*
X196691300Y-127635000D02*
X177641300Y-127635000D01*
X262731300Y-121761200D02*
X261554600Y-121761200D01*
X274544300Y-132397500D02*
X263908000Y-121761200D01*
X291941300Y-132397500D02*
X274544300Y-132397500D01*
X262731300Y-121761200D02*
X263908000Y-121761200D01*
X250918300Y-132397500D02*
X234791300Y-132397500D01*
X261554600Y-121761200D02*
X250918300Y-132397500D01*
X234791300Y-132397500D02*
X215741300Y-132397500D01*
X96678800Y-89535000D02*
X78654000Y-89535000D01*
X78141400Y-89535000D02*
X78654000Y-89535000D01*
X78141400Y-89535000D02*
X77628800Y-89535000D01*
X77628800Y-89535000D02*
X58578800Y-89535000D01*
X196691300Y-108585000D02*
X177641300Y-108585000D01*
X158591300Y-113347500D02*
X157566100Y-113347500D01*
X139541300Y-113347500D02*
X140566500Y-113347500D01*
X215741300Y-113347500D02*
X214716100Y-113347500D01*
X196691300Y-108585000D02*
X197716500Y-108585000D01*
X115728800Y-89535000D02*
X96678800Y-89535000D01*
X157566100Y-113347500D02*
X140566500Y-113347500D01*
X209953600Y-108585000D02*
X197716500Y-108585000D01*
X214716100Y-113347500D02*
X209953600Y-108585000D01*
X310991300Y-108585000D02*
X330041300Y-108585000D01*
X343303600Y-108585000D02*
X348066100Y-113347500D01*
X330041300Y-108585000D02*
X343303600Y-108585000D01*
X349091300Y-113347500D02*
X348066100Y-113347500D01*
X215741300Y-113347500D02*
X234791300Y-113347500D01*
X236208600Y-112955400D02*
X235816500Y-113347500D01*
X255288800Y-112955400D02*
X236208600Y-112955400D01*
X261554600Y-119221200D02*
X255288800Y-112955400D01*
X234791300Y-113347500D02*
X235816500Y-113347500D01*
X262143000Y-119221200D02*
X261554600Y-119221200D01*
X262143000Y-119221200D02*
X262731300Y-119221200D01*
X269781700Y-113347500D02*
X291941300Y-113347500D01*
X263908000Y-119221200D02*
X269781700Y-113347500D01*
X262731300Y-119221200D02*
X263908000Y-119221200D01*
X349091300Y-113347500D02*
X368141300Y-113347500D01*
X381476300Y-95250000D02*
X381476300Y-96275200D01*
X368141300Y-109610200D02*
X381476300Y-96275200D01*
X368141300Y-113347500D02*
X368141300Y-109610200D01*
X310991300Y-89535000D02*
X330041300Y-89535000D01*
X158591300Y-94297500D02*
X139541300Y-94297500D01*
X115728800Y-70485000D02*
X96678800Y-70485000D01*
X215741300Y-94297500D02*
X234791300Y-94297500D01*
X234791300Y-94297500D02*
X235816500Y-94297500D01*
X58578800Y-70485000D02*
X59604000Y-70485000D01*
X96678800Y-70485000D02*
X77628800Y-70485000D01*
X77628800Y-70485000D02*
X59604000Y-70485000D01*
X196691300Y-89535000D02*
X177641300Y-89535000D01*
X262363500Y-112964500D02*
X262731300Y-112964500D01*
X261554600Y-112155600D02*
X262363500Y-112964500D01*
X261554600Y-111281600D02*
X261554600Y-112155600D01*
X245364200Y-95091200D02*
X261554600Y-111281600D01*
X236610200Y-95091200D02*
X245364200Y-95091200D01*
X235816500Y-94297500D02*
X236610200Y-95091200D01*
X283604600Y-94297500D02*
X291941300Y-94297500D01*
X263908000Y-113994100D02*
X283604600Y-94297500D01*
X263908000Y-114141200D02*
X263908000Y-113994100D01*
X262731300Y-114141200D02*
X263908000Y-114141200D01*
X262731300Y-114141200D02*
X262731300Y-112964500D01*
X349091300Y-94297500D02*
X368141300Y-94297500D01*
X386068700Y-94200100D02*
X386166100Y-94297500D01*
X369263900Y-94200100D02*
X386068700Y-94200100D01*
X369166500Y-94297500D02*
X369263900Y-94200100D01*
X368141300Y-94297500D02*
X369166500Y-94297500D01*
X387191300Y-94297500D02*
X386166100Y-94297500D01*
M02*
