M48
; DRILL file {KiCad 9.0.6} date 2025-12-20T22:57:20+0900
; FORMAT={-:-/ absolute / metric / decimal}
; #@! TF.CreationDate,2025-12-20T22:57:20+09:00
; #@! TF.GenerationSoftware,Kicad,Pcbnew,9.0.6
; #@! TF.FileFunction,Plated,1,2,PTH
FMAT,2
METRIC
; #@! TA.AperFunction,Plated,PTH,ViaDrill
T1C0.400
; #@! TA.AperFunction,Plated,PTH,ComponentDrill
T2C0.813
; #@! TA.AperFunction,Plated,PTH,ComponentDrill
T3C1.020
%
G90
G05
T1
X49.542Y-88.51
X67.198Y-91.338
X100.164Y-92.771
X113.791Y-122.542
X183.012Y-111.89
T2
X58.579Y-62.865
X58.579Y-70.485
X58.579Y-81.915
X58.579Y-89.535
X58.579Y-100.965
X58.579Y-108.585
X58.579Y-120.015
X58.579Y-127.635
X77.629Y-62.865
X77.629Y-70.485
X77.629Y-81.915
X77.629Y-89.535
X77.629Y-100.965
X77.629Y-108.585
X77.629Y-120.015
X77.629Y-127.635
X77.629Y-139.065
X77.629Y-146.685
X96.679Y-62.865
X96.679Y-70.485
X96.679Y-81.915
X96.679Y-89.535
X96.679Y-100.965
X96.679Y-108.585
X96.679Y-120.015
X96.679Y-127.635
X96.679Y-139.065
X96.679Y-146.685
X115.729Y-62.865
X115.729Y-70.485
X115.729Y-81.915
X115.729Y-89.535
X115.729Y-100.965
X115.729Y-108.585
X115.729Y-120.015
X115.729Y-127.635
X115.729Y-139.065
X115.729Y-146.685
X139.541Y-86.677
X139.541Y-94.297
X139.541Y-105.727
X139.541Y-113.347
X139.541Y-124.777
X139.541Y-132.398
X158.591Y-86.677
X158.591Y-94.297
X158.591Y-105.727
X158.591Y-113.347
X158.591Y-124.777
X158.591Y-132.398
X177.641Y-81.915
X177.641Y-89.535
X177.641Y-100.965
X177.641Y-108.585
X177.641Y-120.015
X177.641Y-127.635
X196.691Y-81.915
X196.691Y-89.535
X196.691Y-100.965
X196.691Y-108.585
X196.691Y-120.015
X196.691Y-127.635
X215.741Y-86.677
X215.741Y-94.297
X215.741Y-105.727
X215.741Y-113.347
X215.741Y-124.777
X215.741Y-132.398
X215.741Y-143.827
X215.741Y-151.447
X234.791Y-86.677
X234.791Y-94.297
X234.791Y-105.727
X234.791Y-113.347
X234.791Y-124.777
X234.791Y-132.398
X234.791Y-148.59
X234.791Y-156.21
X253.841Y-148.59
X253.841Y-156.21
X272.891Y-148.59
X272.891Y-156.21
X291.941Y-86.677
X291.941Y-94.297
X291.941Y-105.727
X291.941Y-113.347
X291.941Y-124.777
X291.941Y-132.398
X291.941Y-143.827
X291.941Y-151.447
X310.991Y-81.915
X310.991Y-89.535
X310.991Y-100.965
X310.991Y-108.585
X310.991Y-120.015
X310.991Y-127.635
X310.991Y-139.065
X310.991Y-146.685
X330.041Y-81.915
X330.041Y-89.535
X330.041Y-100.965
X330.041Y-108.585
X330.041Y-120.015
X330.041Y-127.635
X349.091Y-86.677
X349.091Y-94.297
X349.091Y-105.727
X349.091Y-113.347
X349.091Y-124.777
X349.091Y-132.398
X368.141Y-86.677
X368.141Y-94.297
X368.141Y-105.727
X368.141Y-113.347
X373.856Y-95.25
X373.856Y-133.35
X381.476Y-95.25
X381.476Y-133.35
X387.191Y-86.677
X387.191Y-94.297
T3
X244.951Y-73.501
X244.951Y-76.041
X244.951Y-78.581
X244.951Y-81.121
X244.951Y-83.661
X244.951Y-86.201
X244.951Y-88.741
X244.951Y-91.281
X244.951Y-93.821
X244.951Y-96.361
X244.951Y-98.901
X244.951Y-101.441
X244.951Y-103.981
X244.951Y-106.521
X244.951Y-109.061
X244.951Y-111.601
X244.951Y-114.141
X244.951Y-116.681
X244.951Y-119.221
X244.951Y-121.761
X251.301Y-121.531
X253.841Y-121.531
X256.381Y-121.531
X262.731Y-73.501
X262.731Y-76.041
X262.731Y-78.581
X262.731Y-81.121
X262.731Y-83.661
X262.731Y-86.201
X262.731Y-88.741
X262.731Y-91.281
X262.731Y-93.821
X262.731Y-96.361
X262.731Y-98.901
X262.731Y-101.441
X262.731Y-103.981
X262.731Y-106.521
X262.731Y-109.061
X262.731Y-111.601
X262.731Y-114.141
X262.731Y-116.681
X262.731Y-119.221
X262.731Y-121.761
M30
