M48
; DRILL file {KiCad 9.0.6} date 2025-12-01T16:15:15+0900
; FORMAT={-:-/ absolute / metric / decimal}
; #@! TF.CreationDate,2025-12-01T16:15:15+09:00
; #@! TF.GenerationSoftware,Kicad,Pcbnew,9.0.6
; #@! TF.FileFunction,NonPlated,1,2,NPTH
FMAT,2
METRIC
; #@! TA.AperFunction,NonPlated,NPTH,ComponentDrill
T1C1.500
; #@! TA.AperFunction,NonPlated,NPTH,ComponentDrill
T2C1.800
; #@! TA.AperFunction,NonPlated,NPTH,ComponentDrill
T3C2.000
; #@! TA.AperFunction,NonPlated,NPTH,ComponentDrill
T4C3.000
; #@! TA.AperFunction,NonPlated,NPTH,ComponentDrill
T5C3.050
; #@! TA.AperFunction,NonPlated,NPTH,ComponentDrill
T6C4.000
%
G90
G05
T1
X251.416Y-76.661
X256.266Y-76.661
T2
X53.499Y-138.112
X63.659Y-138.112
X251.116Y-73.631
X256.566Y-73.631
X377.666Y-109.22
X377.666Y-119.38
T3
X43.974Y-61.912
X43.974Y-80.962
X43.974Y-100.012
X43.974Y-119.062
X54.134Y-61.912
X54.134Y-80.962
X54.134Y-100.012
X54.134Y-119.062
X63.024Y-61.912
X63.024Y-80.962
X63.024Y-100.012
X63.024Y-119.062
X73.184Y-61.912
X73.184Y-80.962
X73.184Y-100.012
X73.184Y-119.062
X82.074Y-61.912
X82.074Y-80.962
X82.074Y-100.012
X82.074Y-119.062
X82.074Y-138.112
X92.234Y-61.912
X92.234Y-80.962
X92.234Y-100.012
X92.234Y-119.062
X92.234Y-138.112
X101.124Y-61.912
X101.124Y-80.962
X101.124Y-100.012
X101.124Y-119.062
X101.124Y-138.112
X111.284Y-61.912
X111.284Y-80.962
X111.284Y-100.012
X111.284Y-119.062
X111.284Y-138.112
X124.936Y-85.725
X124.936Y-104.775
X124.936Y-123.825
X135.096Y-85.725
X135.096Y-104.775
X135.096Y-123.825
X143.986Y-85.725
X143.986Y-104.775
X143.986Y-123.825
X154.146Y-85.725
X154.146Y-104.775
X154.146Y-123.825
X163.036Y-80.962
X163.036Y-100.012
X163.036Y-119.062
X173.196Y-80.962
X173.196Y-100.012
X173.196Y-119.062
X182.086Y-80.962
X182.086Y-100.012
X182.086Y-119.062
X192.246Y-80.962
X192.246Y-100.012
X192.246Y-119.062
X201.136Y-80.962
X201.136Y-100.012
X201.136Y-119.062
X201.136Y-138.112
X211.296Y-80.962
X211.296Y-100.012
X211.296Y-119.062
X211.296Y-138.112
X220.186Y-85.725
X220.186Y-104.775
X220.186Y-123.825
X220.186Y-142.875
X230.346Y-85.725
X230.346Y-104.775
X230.346Y-123.825
X230.346Y-142.875
X239.236Y-147.637
X249.396Y-147.637
X258.286Y-147.637
X268.446Y-147.637
X277.336Y-85.725
X277.336Y-104.775
X277.336Y-123.825
X277.336Y-142.875
X287.496Y-85.725
X287.496Y-104.775
X287.496Y-123.825
X287.496Y-142.875
X296.386Y-80.962
X296.386Y-100.012
X296.386Y-119.062
X296.386Y-138.112
X306.546Y-80.962
X306.546Y-100.012
X306.546Y-119.062
X306.546Y-138.112
X315.436Y-80.962
X315.436Y-100.012
X315.436Y-119.062
X325.596Y-80.962
X325.596Y-100.012
X325.596Y-119.062
X334.486Y-80.962
X334.486Y-100.012
X334.486Y-119.062
X344.646Y-80.962
X344.646Y-100.012
X344.646Y-119.062
X353.536Y-85.725
X353.536Y-104.775
X353.536Y-123.825
X363.696Y-85.725
X363.696Y-104.775
X363.696Y-123.825
X372.586Y-85.725
X382.746Y-85.725
T4
X45.244Y-59.372
X45.244Y-78.422
X45.244Y-97.472
X45.244Y-116.522
X51.594Y-56.832
X51.594Y-75.882
X51.594Y-94.932
X51.594Y-113.983
X54.769Y-135.572
X61.119Y-133.032
X64.294Y-59.372
X64.294Y-78.422
X64.294Y-97.472
X64.294Y-116.522
X70.644Y-56.832
X70.644Y-75.882
X70.644Y-94.932
X70.644Y-113.983
X83.344Y-59.372
X83.344Y-78.422
X83.344Y-97.472
X83.344Y-116.522
X83.344Y-135.572
X89.694Y-56.832
X89.694Y-75.882
X89.694Y-94.932
X89.694Y-113.983
X89.694Y-133.032
X102.394Y-59.372
X102.394Y-78.422
X102.394Y-97.472
X102.394Y-116.522
X102.394Y-135.572
X108.744Y-56.832
X108.744Y-75.882
X108.744Y-94.932
X108.744Y-113.983
X108.744Y-133.032
X126.206Y-83.185
X126.206Y-102.235
X126.206Y-121.285
X132.556Y-80.645
X132.556Y-99.695
X132.556Y-118.745
X145.256Y-83.185
X145.256Y-102.235
X145.256Y-121.285
X151.606Y-80.645
X151.606Y-99.695
X151.606Y-118.745
X164.306Y-78.422
X164.306Y-97.472
X164.306Y-116.522
X170.656Y-75.882
X170.656Y-94.932
X170.656Y-113.983
X183.356Y-78.422
X183.356Y-97.472
X183.356Y-116.522
X189.706Y-75.882
X189.706Y-94.932
X189.706Y-113.983
X202.406Y-78.422
X202.406Y-97.472
X202.406Y-116.522
X202.406Y-135.572
X208.756Y-75.882
X208.756Y-94.932
X208.756Y-113.983
X208.756Y-133.032
X221.456Y-83.185
X221.456Y-102.235
X221.456Y-121.285
X221.456Y-140.335
X227.806Y-80.645
X227.806Y-99.695
X227.806Y-118.745
X227.806Y-137.795
X240.506Y-145.097
X246.856Y-142.558
X259.556Y-145.097
X265.906Y-142.558
X278.606Y-83.185
X278.606Y-102.235
X278.606Y-121.285
X278.606Y-140.335
X284.956Y-80.645
X284.956Y-99.695
X284.956Y-118.745
X284.956Y-137.795
X297.656Y-78.422
X297.656Y-97.472
X297.656Y-116.522
X297.656Y-135.572
X304.006Y-75.882
X304.006Y-94.932
X304.006Y-113.983
X304.006Y-133.032
X316.706Y-78.422
X316.706Y-97.472
X316.706Y-116.522
X323.056Y-75.882
X323.056Y-94.932
X323.056Y-113.983
X335.756Y-78.422
X335.756Y-97.472
X335.756Y-116.522
X342.106Y-75.882
X342.106Y-94.932
X342.106Y-113.983
X354.806Y-83.185
X354.806Y-102.235
X354.806Y-121.285
X361.156Y-80.645
X361.156Y-99.695
X361.156Y-118.745
X372.586Y-111.76
X373.856Y-83.185
X375.126Y-118.11
X380.206Y-80.645
T5
X46.679Y-131.112
X70.479Y-131.112
X370.666Y-102.4
X370.666Y-126.2
T6
X46.679Y-146.352
X49.054Y-61.912
X49.054Y-80.962
X49.054Y-100.012
X49.054Y-119.062
X58.579Y-138.112
X68.104Y-61.912
X68.104Y-80.962
X68.104Y-100.012
X68.104Y-119.062
X70.479Y-146.352
X87.154Y-61.912
X87.154Y-80.962
X87.154Y-100.012
X87.154Y-119.062
X87.154Y-138.112
X106.204Y-61.912
X106.204Y-80.962
X106.204Y-100.012
X106.204Y-119.062
X106.204Y-138.112
X130.016Y-85.725
X130.016Y-104.775
X130.016Y-123.825
X149.066Y-85.725
X149.066Y-104.775
X149.066Y-123.825
X168.116Y-80.962
X168.116Y-100.012
X168.116Y-119.062
X187.166Y-80.962
X187.166Y-100.012
X187.166Y-119.062
X206.216Y-80.962
X206.216Y-100.012
X206.216Y-119.062
X206.216Y-138.112
X225.266Y-85.725
X225.266Y-104.775
X225.266Y-123.825
X225.266Y-142.875
X244.316Y-147.637
X263.366Y-147.637
X282.416Y-85.725
X282.416Y-104.775
X282.416Y-123.825
X282.416Y-142.875
X301.466Y-80.962
X301.466Y-100.012
X301.466Y-119.062
X301.466Y-138.112
X320.516Y-80.962
X320.516Y-100.012
X320.516Y-119.062
X339.566Y-80.962
X339.566Y-100.012
X339.566Y-119.062
X358.616Y-85.725
X358.616Y-104.775
X358.616Y-123.825
X377.666Y-85.725
X377.666Y-114.3
X385.906Y-102.4
X385.906Y-126.2
M30
