G04 #@! TF.GenerationSoftware,KiCad,Pcbnew,9.0.6*
G04 #@! TF.CreationDate,2025-12-20T22:56:38+09:00*
G04 #@! TF.ProjectId,first_keyboard,66697273-745f-46b6-9579-626f6172642e,rev?*
G04 #@! TF.SameCoordinates,Original*
G04 #@! TF.FileFunction,Profile,NP*
%FSLAX46Y46*%
G04 Gerber Fmt 4.6, Leading zero omitted, Abs format (unit mm)*
G04 Created by KiCad (PCBNEW 9.0.6) date 2025-12-20 22:56:38*
%MOMM*%
%LPD*%
G01*
G04 APERTURE LIST*
G04 #@! TA.AperFunction,Profile*
%ADD10C,0.100000*%
G04 #@! TD*
%ADD11C,0.100000*%
G04 APERTURE END LIST*
D10*
X120491250Y-73818750D02*
G75*
G02*
X118109950Y-71437500I50J2381350D01*
G01*
X37147500Y-52387500D02*
G75*
G02*
X39528750Y-50006250I2381210J40D01*
G01*
X387191200Y-73818750D02*
X353853750Y-73818750D01*
X389572500Y-133350000D02*
X389572500Y-76200000D01*
X37147500Y-52387500D02*
X37147500Y-147637500D01*
X156210000Y-71437500D02*
G75*
G02*
X158591250Y-69056300I2381200J0D01*
G01*
X289560002Y-70042596D02*
X218122501Y-70042596D01*
X39528750Y-150018750D02*
G75*
G02*
X37147450Y-147637500I50J2381350D01*
G01*
D11*
X349091250Y-135731250D02*
X347333000Y-136390585D01*
X346474395Y-136712540D01*
X345629252Y-137029427D01*
X344797408Y-137341299D01*
X343978699Y-137648211D01*
X343172961Y-137950219D01*
X342380032Y-138247375D01*
X341599747Y-138539736D01*
X340831943Y-138827355D01*
X340076457Y-139110286D01*
X339703282Y-139250011D01*
X339333125Y-139388585D01*
X338965965Y-139526014D01*
X338601783Y-139662305D01*
X338240558Y-139797466D01*
X337882268Y-139931502D01*
X337526895Y-140064421D01*
X337174417Y-140196230D01*
X336824815Y-140326935D01*
X336478066Y-140456543D01*
X336134152Y-140585061D01*
X335793052Y-140712496D01*
X335454745Y-140838854D01*
X335119210Y-140964143D01*
X334786428Y-141088369D01*
X334456378Y-141211539D01*
X334129040Y-141333659D01*
X333804392Y-141454738D01*
X333482416Y-141574781D01*
X333163089Y-141693795D01*
X332846392Y-141811787D01*
X332532304Y-141928764D01*
X332220806Y-142044733D01*
X331911875Y-142159700D01*
X331605493Y-142273673D01*
X331301638Y-142386658D01*
X331000291Y-142498661D01*
X330701430Y-142609691D01*
X330405035Y-142719753D01*
X330111086Y-142828855D01*
X329819562Y-142937002D01*
X329530444Y-143044203D01*
X329243709Y-143150464D01*
X328959339Y-143255791D01*
X328677313Y-143360191D01*
X328397609Y-143463672D01*
X328120209Y-143566240D01*
X327845090Y-143667902D01*
X327572234Y-143768665D01*
X327301619Y-143868535D01*
X327033225Y-143967519D01*
X326767031Y-144065625D01*
X326503018Y-144162859D01*
X326241164Y-144259227D01*
X325981449Y-144354737D01*
X325723854Y-144449395D01*
X325468356Y-144543209D01*
X325214937Y-144636184D01*
X324963575Y-144728329D01*
X324714250Y-144819649D01*
X324466941Y-144910151D01*
X324221629Y-144999843D01*
X323978292Y-145088731D01*
X323736911Y-145176822D01*
X323616947Y-145220570D01*
X323497465Y-145264122D01*
X323378460Y-145307478D01*
X323259932Y-145350639D01*
X323141878Y-145393606D01*
X323024294Y-145436380D01*
X322907179Y-145478961D01*
X322790530Y-145521350D01*
X322674344Y-145563549D01*
X322558618Y-145605558D01*
X322443351Y-145647377D01*
X322328539Y-145689009D01*
X322214181Y-145730453D01*
X322100273Y-145771711D01*
X321986813Y-145812783D01*
X321873798Y-145853670D01*
X321761226Y-145894373D01*
X321649094Y-145934893D01*
X321537401Y-145975231D01*
X321426142Y-146015388D01*
X321315316Y-146055364D01*
X321204920Y-146095160D01*
X321094951Y-146134778D01*
X320985407Y-146174217D01*
X320876286Y-146213480D01*
X320767585Y-146252566D01*
X320659301Y-146291476D01*
X320551431Y-146330212D01*
X320443974Y-146368775D01*
X320336927Y-146407164D01*
X320230286Y-146445382D01*
X320124050Y-146483428D01*
X320018216Y-146521304D01*
X319912781Y-146559010D01*
X319807744Y-146596548D01*
X319703100Y-146633918D01*
X319598848Y-146671122D01*
X319494986Y-146708159D01*
X319391510Y-146745031D01*
X319288418Y-146781738D01*
X319185708Y-146818282D01*
X319083376Y-146854664D01*
X318981421Y-146890883D01*
X318879840Y-146926942D01*
X318778630Y-146962841D01*
X318677789Y-146998580D01*
X318577314Y-147034161D01*
X318477203Y-147069584D01*
X318377453Y-147104851D01*
X318278061Y-147139962D01*
X318179025Y-147174917D01*
X318080343Y-147209719D01*
X317982012Y-147244367D01*
X317884029Y-147278863D01*
X317786391Y-147313208D01*
X317689097Y-147347401D01*
X317592143Y-147381445D01*
X317495528Y-147415340D01*
X317399248Y-147449086D01*
X317303301Y-147482686D01*
X317207685Y-147516138D01*
X317112396Y-147549446D01*
X317017433Y-147582608D01*
X316922792Y-147615626D01*
X316828472Y-147648502D01*
X316734469Y-147681235D01*
X316640781Y-147713827D01*
X316547406Y-147746278D01*
X316454341Y-147778589D01*
X316361583Y-147810762D01*
X316269130Y-147842797D01*
X316176980Y-147874695D01*
X316085129Y-147906456D01*
X315993576Y-147938082D01*
X315902317Y-147969574D01*
X315811350Y-148000932D01*
X315720673Y-148032157D01*
X315630283Y-148063250D01*
X315540177Y-148094211D01*
X315450353Y-148125043D01*
X315360808Y-148155745D01*
X315271540Y-148186318D01*
X315182547Y-148216764D01*
X315093825Y-148247083D01*
X315005372Y-148277276D01*
X314917186Y-148307344D01*
X314829263Y-148337287D01*
X314741602Y-148367107D01*
X314654201Y-148396804D01*
X314567055Y-148426379D01*
X314480163Y-148455834D01*
X314393522Y-148485168D01*
X314307130Y-148514383D01*
X314220985Y-148543480D01*
X314135082Y-148572459D01*
X314049421Y-148601322D01*
X313963998Y-148630069D01*
X313878811Y-148658701D01*
X313793857Y-148687218D01*
X313709135Y-148715623D01*
X313624640Y-148743915D01*
X313540371Y-148772095D01*
X313456325Y-148800165D01*
X313372500Y-148828125D01*
X313288893Y-148855976D01*
X313205501Y-148883719D01*
X313122322Y-148911354D01*
X313039354Y-148938883D01*
X312956593Y-148966307D01*
X312874037Y-148993625D01*
X312791684Y-149020840D01*
X312709532Y-149047952D01*
X312627577Y-149074961D01*
X312545816Y-149101869D01*
X312464249Y-149128677D01*
X312382871Y-149155385D01*
X312301681Y-149181994D01*
X312220675Y-149208506D01*
X312139852Y-149234920D01*
X312059208Y-149261238D01*
X311978742Y-149287461D01*
X311898450Y-149313589D01*
X311818330Y-149339623D01*
X311738379Y-149365565D01*
X311658596Y-149391415D01*
X311578976Y-149417173D01*
X311499519Y-149442841D01*
X311420221Y-149468420D01*
X311341079Y-149493910D01*
X311262092Y-149519313D01*
X311183256Y-149544629D01*
X311104570Y-149569858D01*
X311026030Y-149595003D01*
X310947633Y-149620063D01*
X310869378Y-149645040D01*
X310791262Y-149669934D01*
X310713282Y-149694746D01*
X310635436Y-149719478D01*
X310557721Y-149744129D01*
X310480135Y-149768702D01*
X310402674Y-149793196D01*
X310325337Y-149817612D01*
X310248122Y-149841952D01*
X310171024Y-149866216D01*
X310094042Y-149890405D01*
X310017174Y-149914520D01*
X309940416Y-149938561D01*
X309863766Y-149962531D01*
X309787222Y-149986428D01*
X309710781Y-150010256D01*
X309634441Y-150034013D01*
X309558198Y-150057701D01*
X309482051Y-150081321D01*
X309405996Y-150104874D01*
X309330032Y-150128361D01*
X309254156Y-150151781D01*
X309178365Y-150175138D01*
X309102656Y-150198430D01*
X309027027Y-150221659D01*
X308951476Y-150244826D01*
X308876000Y-150267932D01*
X308800596Y-150290977D01*
X308725262Y-150313963D01*
X308649996Y-150336890D01*
X308574794Y-150359759D01*
X308499654Y-150382571D01*
X308424574Y-150405327D01*
X308349551Y-150428027D01*
X308274582Y-150450673D01*
X308199666Y-150473266D01*
X308124798Y-150495805D01*
X308049978Y-150518293D01*
X307975202Y-150540729D01*
X307900467Y-150563115D01*
X307825772Y-150585452D01*
X307751113Y-150607740D01*
X307676489Y-150629981D01*
X307601896Y-150652174D01*
X307527332Y-150674322D01*
X307452794Y-150696425D01*
X307378280Y-150718483D01*
X307303788Y-150740498D01*
X307229314Y-150762470D01*
X307154856Y-150784401D01*
X307080412Y-150806291D01*
X307005979Y-150828140D01*
X306931555Y-150849951D01*
X306857136Y-150871723D01*
X306782721Y-150893458D01*
X306708307Y-150915156D01*
X306633891Y-150936818D01*
X306559471Y-150958446D01*
X306485044Y-150980039D01*
X306410608Y-151001599D01*
X306336159Y-151023127D01*
X306261697Y-151044623D01*
X306187217Y-151066089D01*
X306112718Y-151087524D01*
X306038196Y-151108931D01*
X305963650Y-151130310D01*
X305889076Y-151151662D01*
X305814473Y-151172987D01*
X305739838Y-151194286D01*
X305665167Y-151215561D01*
X305590459Y-151236812D01*
X305515711Y-151258040D01*
X305440920Y-151279246D01*
X305366085Y-151300430D01*
X305291201Y-151321595D01*
X305216268Y-151342739D01*
X305141281Y-151363865D01*
X305066239Y-151384973D01*
X304991139Y-151406064D01*
X304915979Y-151427139D01*
X304840756Y-151448198D01*
X304765467Y-151469243D01*
X304690110Y-151490274D01*
X304614683Y-151511293D01*
X304539182Y-151532299D01*
X304463605Y-151553295D01*
X304387950Y-151574280D01*
X304312214Y-151595256D01*
X304236395Y-151616223D01*
X304160490Y-151637183D01*
X304084496Y-151658136D01*
X304008411Y-151679083D01*
X303932232Y-151700025D01*
X303855957Y-151720963D01*
X303779583Y-151741897D01*
X303703108Y-151762828D01*
X303626529Y-151783758D01*
X303549844Y-151804688D01*
X303473049Y-151825617D01*
X303396143Y-151846547D01*
X303319123Y-151867478D01*
X303241986Y-151888412D01*
X303164730Y-151909350D01*
X303087353Y-151930292D01*
X303009851Y-151951239D01*
X302932222Y-151972192D01*
X302854463Y-151993152D01*
X302776573Y-152014119D01*
X302698548Y-152035095D01*
X302620386Y-152056080D01*
X302542084Y-152077076D01*
X302463640Y-152098082D01*
X302385051Y-152119101D01*
X302306315Y-152140132D01*
X302227429Y-152161177D01*
X302148391Y-152182236D01*
X302069197Y-152203311D01*
X301989846Y-152224402D01*
X301910335Y-152245510D01*
X301830662Y-152266636D01*
X301750823Y-152287780D01*
X301670816Y-152308945D01*
X301590639Y-152330129D01*
X301510289Y-152351335D01*
X301429764Y-152372563D01*
X301349061Y-152393814D01*
X301268177Y-152415089D01*
X301187110Y-152436388D01*
X301105857Y-152457713D01*
X301024417Y-152479065D01*
X300942785Y-152500444D01*
X300860960Y-152521851D01*
X300778939Y-152543286D01*
X300696720Y-152564752D01*
X300614300Y-152586248D01*
X300531677Y-152607776D01*
X300448847Y-152629336D01*
X300365808Y-152650929D01*
X300199096Y-152694219D01*
X300031517Y-152737652D01*
X299863054Y-152781235D01*
X299693684Y-152824974D01*
X299523387Y-152868877D01*
X299352144Y-152912950D01*
X299179933Y-152957201D01*
X299006734Y-153001635D01*
X298832527Y-153046260D01*
X298657292Y-153091082D01*
X298481007Y-153136109D01*
X298303652Y-153181348D01*
X298125208Y-153226804D01*
X297945653Y-153272485D01*
X297764967Y-153318398D01*
X297583129Y-153364549D01*
X297400120Y-153410945D01*
X297215919Y-153457594D01*
X297030505Y-153504501D01*
X296843858Y-153551674D01*
X296655957Y-153599119D01*
X296466782Y-153646844D01*
X296276313Y-153694855D01*
X296084529Y-153743159D01*
X295891410Y-153791763D01*
X295696935Y-153840673D01*
X295501083Y-153889897D01*
X295303835Y-153939441D01*
X295105170Y-153989312D01*
X294905068Y-154039517D01*
X294703508Y-154090062D01*
X294500469Y-154140955D01*
X294089874Y-154243810D01*
X293673121Y-154348137D01*
X293250045Y-154453990D01*
X292820484Y-154561423D01*
X291941250Y-154781250D01*
D10*
X118110000Y-147637500D02*
X118110000Y-138112500D01*
X39528750Y-150018750D02*
X115728750Y-150018750D01*
X120491250Y-73818750D02*
X153828750Y-73818750D01*
X349091250Y-69056250D02*
X291941250Y-69056250D01*
X39528750Y-50006250D02*
X115728750Y-50006250D01*
D11*
X215741250Y-154781250D02*
X216620411Y-155001022D01*
X217049800Y-155108326D01*
X217472540Y-155213927D01*
X217888739Y-155317838D01*
X218298507Y-155420074D01*
X218501013Y-155470567D01*
X218701952Y-155520647D01*
X218901338Y-155570314D01*
X219099185Y-155619571D01*
X219295505Y-155668419D01*
X219490313Y-155716860D01*
X219683622Y-155764896D01*
X219875445Y-155812528D01*
X220065798Y-155859758D01*
X220254692Y-155906588D01*
X220442142Y-155953019D01*
X220628161Y-155999054D01*
X220812763Y-156044693D01*
X220995962Y-156089939D01*
X221177771Y-156134793D01*
X221358204Y-156179257D01*
X221537274Y-156223333D01*
X221714995Y-156267022D01*
X221891381Y-156310326D01*
X222066445Y-156353247D01*
X222240202Y-156395787D01*
X222412663Y-156437946D01*
X222583844Y-156479728D01*
X222753758Y-156521133D01*
X222922418Y-156562163D01*
X223089839Y-156602821D01*
X223256032Y-156643107D01*
X223421014Y-156683023D01*
X223584796Y-156722572D01*
X223747393Y-156761755D01*
X223828251Y-156781209D01*
X223908818Y-156800573D01*
X223989095Y-156819845D01*
X224069085Y-156839028D01*
X224148788Y-156858120D01*
X224228207Y-156877122D01*
X224307343Y-156896034D01*
X224386198Y-156914857D01*
X224464774Y-156933590D01*
X224543072Y-156952234D01*
X224621095Y-156970789D01*
X224698843Y-156989255D01*
X224776318Y-157007632D01*
X224853523Y-157025922D01*
X224930459Y-157044123D01*
X225007127Y-157062236D01*
X225083530Y-157080261D01*
X225159668Y-157098199D01*
X225235544Y-157116050D01*
X225311160Y-157133814D01*
X225386517Y-157151490D01*
X225461616Y-157169080D01*
X225536461Y-157186584D01*
X225611051Y-157204001D01*
X225685389Y-157221333D01*
X225759477Y-157238578D01*
X225833316Y-157255738D01*
X225906909Y-157272813D01*
X225980256Y-157289803D01*
X226053359Y-157306707D01*
X226126221Y-157323527D01*
X226198842Y-157340262D01*
X226271225Y-157356913D01*
X226343371Y-157373480D01*
X226415283Y-157389963D01*
X226486960Y-157406362D01*
X226558407Y-157422678D01*
X226629623Y-157438911D01*
X226700611Y-157455060D01*
X226771373Y-157471127D01*
X226841909Y-157487111D01*
X226912223Y-157503013D01*
X226982315Y-157518833D01*
X227052188Y-157534570D01*
X227121842Y-157550226D01*
X227191280Y-157565801D01*
X227260504Y-157581294D01*
X227329514Y-157596705D01*
X227398314Y-157612036D01*
X227466904Y-157627287D01*
X227535286Y-157642457D01*
X227603462Y-157657546D01*
X227671434Y-157672556D01*
X227739203Y-157687485D01*
X227806771Y-157702335D01*
X227874140Y-157717106D01*
X227941311Y-157731797D01*
X228008286Y-157746410D01*
X228075067Y-157760944D01*
X228141656Y-157775399D01*
X228208054Y-157789775D01*
X228274263Y-157804074D01*
X228340284Y-157818295D01*
X228406120Y-157832438D01*
X228471772Y-157846503D01*
X228537242Y-157860491D01*
X228602531Y-157874403D01*
X228667641Y-157888237D01*
X228732574Y-157901995D01*
X228797332Y-157915676D01*
X228861916Y-157929281D01*
X228926328Y-157942810D01*
X228990570Y-157956263D01*
X229054643Y-157969641D01*
X229118549Y-157982943D01*
X229182290Y-157996170D01*
X229245867Y-158009322D01*
X229309283Y-158022400D01*
X229372539Y-158035403D01*
X229435636Y-158048331D01*
X229498576Y-158061186D01*
X229561362Y-158073966D01*
X229623994Y-158086673D01*
X229686474Y-158099307D01*
X229748805Y-158111867D01*
X229810988Y-158124355D01*
X229873024Y-158136769D01*
X229934915Y-158149111D01*
X229996663Y-158161380D01*
X230058270Y-158173578D01*
X230119737Y-158185703D01*
X230181066Y-158197757D01*
X230242259Y-158209739D01*
X230303318Y-158221649D01*
X230364243Y-158233489D01*
X230425038Y-158245258D01*
X230485703Y-158256956D01*
X230546240Y-158268583D01*
X230606651Y-158280141D01*
X230666938Y-158291628D01*
X230727102Y-158303045D01*
X230787145Y-158314393D01*
X230847069Y-158325672D01*
X230906876Y-158336881D01*
X230966567Y-158348021D01*
X231026143Y-158359093D01*
X231085607Y-158370096D01*
X231144961Y-158381030D01*
X231204205Y-158391897D01*
X231263343Y-158402695D01*
X231322374Y-158413426D01*
X231381302Y-158424090D01*
X231440127Y-158434686D01*
X231498852Y-158445215D01*
X231557479Y-158455677D01*
X231616008Y-158466072D01*
X231674442Y-158476401D01*
X231732782Y-158486664D01*
X231791030Y-158496861D01*
X231849188Y-158506992D01*
X231907257Y-158517058D01*
X231965239Y-158527058D01*
X232023137Y-158536993D01*
X232080950Y-158546863D01*
X232138682Y-158556669D01*
X232196334Y-158566409D01*
X232253908Y-158576086D01*
X232311405Y-158585698D01*
X232368827Y-158595247D01*
X232426176Y-158604732D01*
X232483453Y-158614154D01*
X232540661Y-158623512D01*
X232597800Y-158632807D01*
X232654873Y-158642040D01*
X232711881Y-158651209D01*
X232768826Y-158660317D01*
X232825710Y-158669362D01*
X232882534Y-158678346D01*
X232939301Y-158687267D01*
X232996011Y-158696127D01*
X233052666Y-158704926D01*
X233109269Y-158713664D01*
X233165821Y-158722341D01*
X233222323Y-158730957D01*
X233278778Y-158739512D01*
X233335187Y-158748008D01*
X233391551Y-158756443D01*
X233447873Y-158764819D01*
X233504154Y-158773135D01*
X233560395Y-158781391D01*
X233616600Y-158789588D01*
X233672768Y-158797727D01*
X233728903Y-158805806D01*
X233785005Y-158813827D01*
X233841076Y-158821790D01*
X233897119Y-158829695D01*
X233953134Y-158837541D01*
X234009123Y-158845330D01*
X234065089Y-158853062D01*
X234121033Y-158860736D01*
X234176956Y-158868353D01*
X234232861Y-158875914D01*
X234288748Y-158883417D01*
X234344620Y-158890865D01*
X234400479Y-158898256D01*
X234456325Y-158905591D01*
X234512162Y-158912870D01*
X234567990Y-158920094D01*
X234623811Y-158927262D01*
X234679627Y-158934376D01*
X234735439Y-158941434D01*
X234791250Y-158948438D01*
X234847061Y-158955387D01*
X234902873Y-158962281D01*
X234958689Y-158969122D01*
X235014510Y-158975909D01*
X235070338Y-158982642D01*
X235126175Y-158989322D01*
X235182021Y-158995949D01*
X235237880Y-159002522D01*
X235293752Y-159009043D01*
X235349639Y-159015511D01*
X235405544Y-159021927D01*
X235461467Y-159028290D01*
X235517411Y-159034602D01*
X235573377Y-159040862D01*
X235629366Y-159047071D01*
X235685381Y-159053228D01*
X235741424Y-159059334D01*
X235797495Y-159065389D01*
X235853597Y-159071393D01*
X235909732Y-159077347D01*
X235965900Y-159083251D01*
X236022105Y-159089105D01*
X236078346Y-159094909D01*
X236134627Y-159100663D01*
X236190949Y-159106368D01*
X236247313Y-159112024D01*
X236303722Y-159117630D01*
X236360177Y-159123188D01*
X236416679Y-159128698D01*
X236473231Y-159134159D01*
X236529834Y-159139572D01*
X236586489Y-159144937D01*
X236643199Y-159150255D01*
X236699966Y-159155525D01*
X236756790Y-159160747D01*
X236813674Y-159165923D01*
X236870619Y-159171052D01*
X236927627Y-159176134D01*
X236984700Y-159181170D01*
X237041839Y-159186159D01*
X237099047Y-159191103D01*
X237156324Y-159196001D01*
X237213673Y-159200853D01*
X237271095Y-159205660D01*
X237328592Y-159210421D01*
X237386166Y-159215138D01*
X237443818Y-159219810D01*
X237501550Y-159224438D01*
X237559363Y-159229021D01*
X237617261Y-159233561D01*
X237675243Y-159238056D01*
X237733312Y-159242508D01*
X237791470Y-159246916D01*
X237849718Y-159251281D01*
X237908058Y-159255604D01*
X237966492Y-159259883D01*
X238025021Y-159264120D01*
X238083648Y-159268314D01*
X238142373Y-159272466D01*
X238201198Y-159276577D01*
X238260126Y-159280645D01*
X238319157Y-159284672D01*
X238378295Y-159288658D01*
X238437539Y-159292603D01*
X238496893Y-159296506D01*
X238556357Y-159300369D01*
X238615933Y-159304192D01*
X238675624Y-159307975D01*
X238735431Y-159311717D01*
X238795355Y-159315419D01*
X238855398Y-159319082D01*
X238915562Y-159322706D01*
X238975849Y-159326291D01*
X239036260Y-159329836D01*
X239096797Y-159333343D01*
X239157462Y-159336811D01*
X239218257Y-159340241D01*
X239279182Y-159343632D01*
X239340241Y-159346986D01*
X239401434Y-159350303D01*
X239462763Y-159353581D01*
X239524230Y-159356823D01*
X239585837Y-159360027D01*
X239647585Y-159363195D01*
X239709476Y-159366326D01*
X239771512Y-159369420D01*
X239833695Y-159372478D01*
X239896026Y-159375501D01*
X239958506Y-159378487D01*
X240021138Y-159381438D01*
X240083924Y-159384354D01*
X240146864Y-159387235D01*
X240209961Y-159390080D01*
X240273217Y-159392891D01*
X240336633Y-159395668D01*
X240400210Y-159398410D01*
X240463951Y-159401118D01*
X240527857Y-159403792D01*
X240591930Y-159406433D01*
X240656172Y-159409040D01*
X240720584Y-159411614D01*
X240785168Y-159414155D01*
X240849926Y-159416664D01*
X240914859Y-159419139D01*
X240979969Y-159421582D01*
X241045258Y-159423994D01*
X241110728Y-159426373D01*
X241176380Y-159428720D01*
X241242216Y-159431036D01*
X241308237Y-159433321D01*
X241374446Y-159435574D01*
X241440844Y-159437797D01*
X241507433Y-159439989D01*
X241574214Y-159442151D01*
X241641189Y-159444282D01*
X241708360Y-159446384D01*
X241775729Y-159448455D01*
X241843297Y-159450497D01*
X241911066Y-159452510D01*
X241979038Y-159454493D01*
X242047214Y-159456448D01*
X242115596Y-159458373D01*
X242184186Y-159460270D01*
X242252986Y-159462139D01*
X242321996Y-159463980D01*
X242391220Y-159465793D01*
X242460658Y-159467578D01*
X242530313Y-159469336D01*
X242600185Y-159471066D01*
X242670277Y-159472770D01*
X242740591Y-159474447D01*
X242811127Y-159476097D01*
X242881889Y-159477720D01*
X242952877Y-159479318D01*
X243024093Y-159480889D01*
X243095540Y-159482435D01*
X243167217Y-159483955D01*
X243239129Y-159485450D01*
X243311275Y-159486919D01*
X243383658Y-159488364D01*
X243456279Y-159489784D01*
X243529141Y-159491180D01*
X243602244Y-159492551D01*
X243675591Y-159493898D01*
X243749184Y-159495222D01*
X243823023Y-159496522D01*
X243897111Y-159497798D01*
X243971449Y-159499051D01*
X244046039Y-159500281D01*
X244120884Y-159501489D01*
X244195983Y-159502674D01*
X244271340Y-159503836D01*
X244346956Y-159504976D01*
X244422832Y-159506095D01*
X244498970Y-159507191D01*
X244575373Y-159508267D01*
X244652041Y-159509321D01*
X244728977Y-159510353D01*
X244806182Y-159511365D01*
X244883657Y-159512357D01*
X244961405Y-159513327D01*
X245039428Y-159514278D01*
X245117726Y-159515209D01*
X245196302Y-159516120D01*
X245275157Y-159517011D01*
X245354293Y-159517883D01*
X245433712Y-159518735D01*
X245513415Y-159519569D01*
X245593405Y-159520384D01*
X245673682Y-159521181D01*
X245754249Y-159521959D01*
X245835107Y-159522719D01*
X245916258Y-159523461D01*
X245997704Y-159524186D01*
X246161486Y-159525583D01*
X246326468Y-159526911D01*
X246492661Y-159528174D01*
X246660082Y-159529371D01*
X246828742Y-159530506D01*
X246998656Y-159531579D01*
X247169837Y-159532593D01*
X247342298Y-159533549D01*
X247516055Y-159534448D01*
X247691119Y-159535293D01*
X247867505Y-159536086D01*
X248045226Y-159536827D01*
X248224296Y-159537519D01*
X248404729Y-159538163D01*
X248586538Y-159538761D01*
X248769737Y-159539315D01*
X248954339Y-159539826D01*
X249140358Y-159540296D01*
X249327808Y-159540727D01*
X249516702Y-159541121D01*
X249707055Y-159541479D01*
X249898878Y-159541803D01*
X250092187Y-159542094D01*
X250286995Y-159542355D01*
X250483315Y-159542587D01*
X250681162Y-159542792D01*
X250880548Y-159542971D01*
X251081487Y-159543126D01*
X251283993Y-159543259D01*
X251488080Y-159543372D01*
X251693761Y-159543466D01*
X252109960Y-159543605D01*
X252532700Y-159543689D01*
X252962089Y-159543732D01*
X253841250Y-159543750D01*
X158591250Y-135731250D02*
X160349500Y-136390585D01*
X161208105Y-136712540D01*
X162053248Y-137029427D01*
X162885092Y-137341299D01*
X163703801Y-137648211D01*
X164509539Y-137950219D01*
X165302468Y-138247375D01*
X166082753Y-138539736D01*
X166850557Y-138827355D01*
X167606043Y-139110286D01*
X167979218Y-139250011D01*
X168349375Y-139388585D01*
X168716535Y-139526014D01*
X169080717Y-139662305D01*
X169441942Y-139797466D01*
X169800232Y-139931502D01*
X170155605Y-140064421D01*
X170508083Y-140196230D01*
X170857685Y-140326935D01*
X171204434Y-140456543D01*
X171548348Y-140585061D01*
X171889448Y-140712496D01*
X172227755Y-140838854D01*
X172563290Y-140964143D01*
X172896072Y-141088369D01*
X173226122Y-141211539D01*
X173553460Y-141333659D01*
X173878108Y-141454738D01*
X174200084Y-141574781D01*
X174519411Y-141693795D01*
X174836108Y-141811787D01*
X175150196Y-141928764D01*
X175461694Y-142044733D01*
X175770625Y-142159700D01*
X176077007Y-142273673D01*
X176380862Y-142386658D01*
X176682209Y-142498661D01*
X176981070Y-142609691D01*
X177277465Y-142719753D01*
X177571414Y-142828855D01*
X177862938Y-142937002D01*
X178152056Y-143044203D01*
X178438791Y-143150464D01*
X178723161Y-143255791D01*
X179005187Y-143360191D01*
X179284891Y-143463672D01*
X179562291Y-143566240D01*
X179837410Y-143667902D01*
X180110266Y-143768665D01*
X180380881Y-143868535D01*
X180649275Y-143967519D01*
X180915469Y-144065625D01*
X181179482Y-144162859D01*
X181441336Y-144259227D01*
X181701051Y-144354737D01*
X181958646Y-144449395D01*
X182214144Y-144543209D01*
X182467563Y-144636184D01*
X182718925Y-144728329D01*
X182968250Y-144819649D01*
X183215559Y-144910151D01*
X183460871Y-144999843D01*
X183704208Y-145088731D01*
X183945589Y-145176822D01*
X184065553Y-145220570D01*
X184185035Y-145264122D01*
X184304040Y-145307478D01*
X184422568Y-145350639D01*
X184540622Y-145393606D01*
X184658206Y-145436380D01*
X184775321Y-145478961D01*
X184891970Y-145521350D01*
X185008156Y-145563549D01*
X185123882Y-145605558D01*
X185239149Y-145647377D01*
X185353961Y-145689009D01*
X185468319Y-145730453D01*
X185582227Y-145771711D01*
X185695687Y-145812783D01*
X185808702Y-145853670D01*
X185921274Y-145894373D01*
X186033406Y-145934893D01*
X186145099Y-145975231D01*
X186256358Y-146015388D01*
X186367184Y-146055364D01*
X186477580Y-146095160D01*
X186587549Y-146134778D01*
X186697093Y-146174217D01*
X186806214Y-146213480D01*
X186914915Y-146252566D01*
X187023199Y-146291476D01*
X187131069Y-146330212D01*
X187238526Y-146368775D01*
X187345573Y-146407164D01*
X187452214Y-146445382D01*
X187558450Y-146483428D01*
X187664284Y-146521304D01*
X187769719Y-146559010D01*
X187874756Y-146596548D01*
X187979400Y-146633918D01*
X188083652Y-146671122D01*
X188187514Y-146708159D01*
X188290990Y-146745031D01*
X188394082Y-146781738D01*
X188496792Y-146818282D01*
X188599124Y-146854664D01*
X188701079Y-146890883D01*
X188802660Y-146926942D01*
X188903870Y-146962841D01*
X189004711Y-146998580D01*
X189105186Y-147034161D01*
X189205297Y-147069584D01*
X189305047Y-147104851D01*
X189404439Y-147139962D01*
X189503475Y-147174917D01*
X189602157Y-147209719D01*
X189700488Y-147244367D01*
X189798471Y-147278863D01*
X189896109Y-147313208D01*
X189993403Y-147347401D01*
X190090357Y-147381445D01*
X190186972Y-147415340D01*
X190283252Y-147449086D01*
X190379199Y-147482686D01*
X190474815Y-147516138D01*
X190570104Y-147549446D01*
X190665067Y-147582608D01*
X190759708Y-147615626D01*
X190854028Y-147648502D01*
X190948031Y-147681235D01*
X191041719Y-147713827D01*
X191135094Y-147746278D01*
X191228159Y-147778589D01*
X191320917Y-147810762D01*
X191413370Y-147842797D01*
X191505520Y-147874695D01*
X191597371Y-147906456D01*
X191688924Y-147938082D01*
X191780183Y-147969574D01*
X191871150Y-148000932D01*
X191961827Y-148032157D01*
X192052217Y-148063250D01*
X192142323Y-148094211D01*
X192232147Y-148125043D01*
X192321692Y-148155745D01*
X192410960Y-148186318D01*
X192499953Y-148216764D01*
X192588675Y-148247083D01*
X192677128Y-148277276D01*
X192765314Y-148307344D01*
X192853237Y-148337287D01*
X192940898Y-148367107D01*
X193028299Y-148396804D01*
X193115445Y-148426379D01*
X193202337Y-148455834D01*
X193288978Y-148485168D01*
X193375370Y-148514383D01*
X193461515Y-148543480D01*
X193547418Y-148572459D01*
X193633079Y-148601322D01*
X193718502Y-148630069D01*
X193803689Y-148658701D01*
X193888643Y-148687218D01*
X193973365Y-148715623D01*
X194057860Y-148743915D01*
X194142129Y-148772095D01*
X194226175Y-148800165D01*
X194310000Y-148828125D01*
X194393607Y-148855976D01*
X194476999Y-148883719D01*
X194560178Y-148911354D01*
X194643146Y-148938883D01*
X194725907Y-148966307D01*
X194808463Y-148993625D01*
X194890816Y-149020840D01*
X194972968Y-149047952D01*
X195054923Y-149074961D01*
X195136684Y-149101869D01*
X195218251Y-149128677D01*
X195299629Y-149155385D01*
X195380819Y-149181994D01*
X195461825Y-149208506D01*
X195542648Y-149234920D01*
X195623292Y-149261238D01*
X195703758Y-149287461D01*
X195784050Y-149313589D01*
X195864170Y-149339623D01*
X195944121Y-149365565D01*
X196023904Y-149391415D01*
X196103524Y-149417173D01*
X196182981Y-149442841D01*
X196262279Y-149468420D01*
X196341421Y-149493910D01*
X196420408Y-149519313D01*
X196499244Y-149544629D01*
X196577930Y-149569858D01*
X196656470Y-149595003D01*
X196734867Y-149620063D01*
X196813122Y-149645040D01*
X196891238Y-149669934D01*
X196969218Y-149694746D01*
X197047064Y-149719478D01*
X197124779Y-149744129D01*
X197202365Y-149768702D01*
X197279826Y-149793196D01*
X197357163Y-149817612D01*
X197434378Y-149841952D01*
X197511476Y-149866216D01*
X197588458Y-149890405D01*
X197665326Y-149914520D01*
X197742084Y-149938561D01*
X197818734Y-149962531D01*
X197895278Y-149986428D01*
X197971719Y-150010256D01*
X198048059Y-150034013D01*
X198124302Y-150057701D01*
X198200449Y-150081321D01*
X198276504Y-150104874D01*
X198352468Y-150128361D01*
X198428344Y-150151781D01*
X198504135Y-150175138D01*
X198579844Y-150198430D01*
X198655473Y-150221659D01*
X198731024Y-150244826D01*
X198806500Y-150267932D01*
X198881904Y-150290977D01*
X198957238Y-150313963D01*
X199032504Y-150336890D01*
X199107706Y-150359759D01*
X199182846Y-150382571D01*
X199257926Y-150405327D01*
X199332949Y-150428027D01*
X199407918Y-150450673D01*
X199482834Y-150473266D01*
X199557702Y-150495805D01*
X199632522Y-150518293D01*
X199707298Y-150540729D01*
X199782033Y-150563115D01*
X199856728Y-150585452D01*
X199931387Y-150607740D01*
X200006011Y-150629981D01*
X200080604Y-150652174D01*
X200155168Y-150674322D01*
X200229706Y-150696425D01*
X200304220Y-150718483D01*
X200378712Y-150740498D01*
X200453186Y-150762470D01*
X200527644Y-150784401D01*
X200602088Y-150806291D01*
X200676521Y-150828140D01*
X200750945Y-150849951D01*
X200825364Y-150871723D01*
X200899779Y-150893458D01*
X200974193Y-150915156D01*
X201048609Y-150936818D01*
X201123029Y-150958446D01*
X201197456Y-150980039D01*
X201271892Y-151001599D01*
X201346341Y-151023127D01*
X201420803Y-151044623D01*
X201495283Y-151066089D01*
X201569782Y-151087524D01*
X201644304Y-151108931D01*
X201718850Y-151130310D01*
X201793424Y-151151662D01*
X201868027Y-151172987D01*
X201942662Y-151194286D01*
X202017333Y-151215561D01*
X202092041Y-151236812D01*
X202166789Y-151258040D01*
X202241580Y-151279246D01*
X202316415Y-151300430D01*
X202391299Y-151321595D01*
X202466232Y-151342739D01*
X202541219Y-151363865D01*
X202616261Y-151384973D01*
X202691361Y-151406064D01*
X202766521Y-151427139D01*
X202841744Y-151448198D01*
X202917033Y-151469243D01*
X202992390Y-151490274D01*
X203067817Y-151511293D01*
X203143318Y-151532299D01*
X203218895Y-151553295D01*
X203294550Y-151574280D01*
X203370286Y-151595256D01*
X203446105Y-151616223D01*
X203522010Y-151637183D01*
X203598004Y-151658136D01*
X203674089Y-151679083D01*
X203750268Y-151700025D01*
X203826543Y-151720963D01*
X203902917Y-151741897D01*
X203979392Y-151762828D01*
X204055971Y-151783758D01*
X204132656Y-151804688D01*
X204209451Y-151825617D01*
X204286357Y-151846547D01*
X204363377Y-151867478D01*
X204440514Y-151888412D01*
X204517770Y-151909350D01*
X204595147Y-151930292D01*
X204672649Y-151951239D01*
X204750278Y-151972192D01*
X204828037Y-151993152D01*
X204905927Y-152014119D01*
X204983952Y-152035095D01*
X205062114Y-152056080D01*
X205140416Y-152077076D01*
X205218860Y-152098082D01*
X205297449Y-152119101D01*
X205376185Y-152140132D01*
X205455071Y-152161177D01*
X205534109Y-152182236D01*
X205613303Y-152203311D01*
X205692654Y-152224402D01*
X205772165Y-152245510D01*
X205851838Y-152266636D01*
X205931677Y-152287780D01*
X206011684Y-152308945D01*
X206091861Y-152330129D01*
X206172211Y-152351335D01*
X206252736Y-152372563D01*
X206333439Y-152393814D01*
X206414323Y-152415089D01*
X206495390Y-152436388D01*
X206576643Y-152457713D01*
X206658083Y-152479065D01*
X206739715Y-152500444D01*
X206821540Y-152521851D01*
X206903561Y-152543286D01*
X206985780Y-152564752D01*
X207068200Y-152586248D01*
X207150823Y-152607776D01*
X207233653Y-152629336D01*
X207316692Y-152650929D01*
X207483404Y-152694219D01*
X207650983Y-152737652D01*
X207819446Y-152781235D01*
X207988816Y-152824974D01*
X208159113Y-152868877D01*
X208330356Y-152912950D01*
X208502567Y-152957201D01*
X208675766Y-153001635D01*
X208849973Y-153046260D01*
X209025208Y-153091082D01*
X209201493Y-153136109D01*
X209378848Y-153181348D01*
X209557292Y-153226804D01*
X209736847Y-153272485D01*
X209917533Y-153318398D01*
X210099371Y-153364549D01*
X210282380Y-153410945D01*
X210466581Y-153457594D01*
X210651995Y-153504501D01*
X210838642Y-153551674D01*
X211026543Y-153599119D01*
X211215718Y-153646844D01*
X211406187Y-153694855D01*
X211597971Y-153743159D01*
X211791090Y-153791763D01*
X211985565Y-153840673D01*
X212181417Y-153889897D01*
X212378665Y-153939441D01*
X212577330Y-153989312D01*
X212777432Y-154039517D01*
X212978992Y-154090062D01*
X213182031Y-154140955D01*
X213592626Y-154243810D01*
X214009379Y-154348137D01*
X214432455Y-154453990D01*
X214862016Y-154561423D01*
X215741250Y-154781250D01*
D10*
X349091250Y-69056250D02*
G75*
G02*
X351472550Y-71437500I-50J-2381350D01*
G01*
X389572500Y-133350000D02*
G75*
G02*
X387191250Y-135731200I-2381200J0D01*
G01*
X387191250Y-73818750D02*
G75*
G02*
X389572550Y-76200000I-50J-2381350D01*
G01*
X289560000Y-70042596D02*
G75*
G02*
X291941250Y-69056255I2381100J-2380904D01*
G01*
D11*
X291941250Y-154781250D02*
X291062089Y-155001022D01*
X290632700Y-155108326D01*
X290209960Y-155213927D01*
X289793761Y-155317838D01*
X289383993Y-155420074D01*
X289181487Y-155470567D01*
X288980548Y-155520647D01*
X288781162Y-155570314D01*
X288583315Y-155619571D01*
X288386995Y-155668419D01*
X288192187Y-155716860D01*
X287998878Y-155764896D01*
X287807055Y-155812528D01*
X287616702Y-155859758D01*
X287427808Y-155906588D01*
X287240358Y-155953019D01*
X287054339Y-155999054D01*
X286869737Y-156044693D01*
X286686538Y-156089939D01*
X286504729Y-156134793D01*
X286324296Y-156179257D01*
X286145226Y-156223333D01*
X285967505Y-156267022D01*
X285791119Y-156310326D01*
X285616055Y-156353247D01*
X285442298Y-156395787D01*
X285269837Y-156437946D01*
X285098656Y-156479728D01*
X284928742Y-156521133D01*
X284760082Y-156562163D01*
X284592661Y-156602821D01*
X284426468Y-156643107D01*
X284261486Y-156683023D01*
X284097704Y-156722572D01*
X283935107Y-156761755D01*
X283854249Y-156781209D01*
X283773682Y-156800573D01*
X283693405Y-156819845D01*
X283613415Y-156839028D01*
X283533712Y-156858120D01*
X283454293Y-156877122D01*
X283375157Y-156896034D01*
X283296302Y-156914857D01*
X283217726Y-156933590D01*
X283139428Y-156952234D01*
X283061405Y-156970789D01*
X282983657Y-156989255D01*
X282906182Y-157007632D01*
X282828977Y-157025922D01*
X282752041Y-157044123D01*
X282675373Y-157062236D01*
X282598970Y-157080261D01*
X282522832Y-157098199D01*
X282446956Y-157116050D01*
X282371340Y-157133814D01*
X282295983Y-157151490D01*
X282220884Y-157169080D01*
X282146039Y-157186584D01*
X282071449Y-157204001D01*
X281997111Y-157221333D01*
X281923023Y-157238578D01*
X281849184Y-157255738D01*
X281775591Y-157272813D01*
X281702244Y-157289803D01*
X281629141Y-157306707D01*
X281556279Y-157323527D01*
X281483658Y-157340262D01*
X281411275Y-157356913D01*
X281339129Y-157373480D01*
X281267217Y-157389963D01*
X281195540Y-157406362D01*
X281124093Y-157422678D01*
X281052877Y-157438911D01*
X280981889Y-157455060D01*
X280911127Y-157471127D01*
X280840591Y-157487111D01*
X280770277Y-157503013D01*
X280700185Y-157518833D01*
X280630313Y-157534570D01*
X280560658Y-157550226D01*
X280491220Y-157565801D01*
X280421996Y-157581294D01*
X280352986Y-157596705D01*
X280284186Y-157612036D01*
X280215596Y-157627287D01*
X280147214Y-157642457D01*
X280079038Y-157657546D01*
X280011066Y-157672556D01*
X279943297Y-157687485D01*
X279875729Y-157702335D01*
X279808360Y-157717106D01*
X279741189Y-157731797D01*
X279674214Y-157746410D01*
X279607433Y-157760944D01*
X279540844Y-157775399D01*
X279474446Y-157789775D01*
X279408237Y-157804074D01*
X279342216Y-157818295D01*
X279276380Y-157832438D01*
X279210728Y-157846503D01*
X279145258Y-157860491D01*
X279079969Y-157874403D01*
X279014859Y-157888237D01*
X278949926Y-157901995D01*
X278885168Y-157915676D01*
X278820584Y-157929281D01*
X278756172Y-157942810D01*
X278691930Y-157956263D01*
X278627857Y-157969641D01*
X278563951Y-157982943D01*
X278500210Y-157996170D01*
X278436633Y-158009322D01*
X278373217Y-158022400D01*
X278309961Y-158035403D01*
X278246864Y-158048331D01*
X278183924Y-158061186D01*
X278121138Y-158073966D01*
X278058506Y-158086673D01*
X277996026Y-158099307D01*
X277933695Y-158111867D01*
X277871512Y-158124355D01*
X277809476Y-158136769D01*
X277747585Y-158149111D01*
X277685837Y-158161380D01*
X277624230Y-158173578D01*
X277562763Y-158185703D01*
X277501434Y-158197757D01*
X277440241Y-158209739D01*
X277379182Y-158221649D01*
X277318257Y-158233489D01*
X277257462Y-158245258D01*
X277196797Y-158256956D01*
X277136260Y-158268583D01*
X277075849Y-158280141D01*
X277015562Y-158291628D01*
X276955398Y-158303045D01*
X276895355Y-158314393D01*
X276835431Y-158325672D01*
X276775624Y-158336881D01*
X276715933Y-158348021D01*
X276656357Y-158359093D01*
X276596893Y-158370096D01*
X276537539Y-158381030D01*
X276478295Y-158391897D01*
X276419157Y-158402695D01*
X276360126Y-158413426D01*
X276301198Y-158424090D01*
X276242373Y-158434686D01*
X276183648Y-158445215D01*
X276125021Y-158455677D01*
X276066492Y-158466072D01*
X276008058Y-158476401D01*
X275949718Y-158486664D01*
X275891470Y-158496861D01*
X275833312Y-158506992D01*
X275775243Y-158517058D01*
X275717261Y-158527058D01*
X275659363Y-158536993D01*
X275601550Y-158546863D01*
X275543818Y-158556669D01*
X275486166Y-158566409D01*
X275428592Y-158576086D01*
X275371095Y-158585698D01*
X275313673Y-158595247D01*
X275256324Y-158604732D01*
X275199047Y-158614154D01*
X275141839Y-158623512D01*
X275084700Y-158632807D01*
X275027627Y-158642040D01*
X274970619Y-158651209D01*
X274913674Y-158660317D01*
X274856790Y-158669362D01*
X274799966Y-158678346D01*
X274743199Y-158687267D01*
X274686489Y-158696127D01*
X274629834Y-158704926D01*
X274573231Y-158713664D01*
X274516679Y-158722341D01*
X274460177Y-158730957D01*
X274403722Y-158739512D01*
X274347313Y-158748008D01*
X274290949Y-158756443D01*
X274234627Y-158764819D01*
X274178346Y-158773135D01*
X274122105Y-158781391D01*
X274065900Y-158789588D01*
X274009732Y-158797727D01*
X273953597Y-158805806D01*
X273897495Y-158813827D01*
X273841424Y-158821790D01*
X273785381Y-158829695D01*
X273729366Y-158837541D01*
X273673377Y-158845330D01*
X273617411Y-158853062D01*
X273561467Y-158860736D01*
X273505544Y-158868353D01*
X273449639Y-158875914D01*
X273393752Y-158883417D01*
X273337880Y-158890865D01*
X273282021Y-158898256D01*
X273226175Y-158905591D01*
X273170338Y-158912870D01*
X273114510Y-158920094D01*
X273058689Y-158927262D01*
X273002873Y-158934376D01*
X272947061Y-158941434D01*
X272891250Y-158948438D01*
X272835439Y-158955387D01*
X272779627Y-158962281D01*
X272723811Y-158969122D01*
X272667990Y-158975909D01*
X272612162Y-158982642D01*
X272556325Y-158989322D01*
X272500479Y-158995949D01*
X272444620Y-159002522D01*
X272388748Y-159009043D01*
X272332861Y-159015511D01*
X272276956Y-159021927D01*
X272221033Y-159028290D01*
X272165089Y-159034602D01*
X272109123Y-159040862D01*
X272053134Y-159047071D01*
X271997119Y-159053228D01*
X271941076Y-159059334D01*
X271885005Y-159065389D01*
X271828903Y-159071393D01*
X271772768Y-159077347D01*
X271716600Y-159083251D01*
X271660395Y-159089105D01*
X271604154Y-159094909D01*
X271547873Y-159100663D01*
X271491551Y-159106368D01*
X271435187Y-159112024D01*
X271378778Y-159117630D01*
X271322323Y-159123188D01*
X271265821Y-159128698D01*
X271209269Y-159134159D01*
X271152666Y-159139572D01*
X271096011Y-159144937D01*
X271039301Y-159150255D01*
X270982534Y-159155525D01*
X270925710Y-159160747D01*
X270868826Y-159165923D01*
X270811881Y-159171052D01*
X270754873Y-159176134D01*
X270697800Y-159181170D01*
X270640661Y-159186159D01*
X270583453Y-159191103D01*
X270526176Y-159196001D01*
X270468827Y-159200853D01*
X270411405Y-159205660D01*
X270353908Y-159210421D01*
X270296334Y-159215138D01*
X270238682Y-159219810D01*
X270180950Y-159224438D01*
X270123137Y-159229021D01*
X270065239Y-159233561D01*
X270007257Y-159238056D01*
X269949188Y-159242508D01*
X269891030Y-159246916D01*
X269832782Y-159251281D01*
X269774442Y-159255604D01*
X269716008Y-159259883D01*
X269657479Y-159264120D01*
X269598852Y-159268314D01*
X269540127Y-159272466D01*
X269481302Y-159276577D01*
X269422374Y-159280645D01*
X269363343Y-159284672D01*
X269304205Y-159288658D01*
X269244961Y-159292603D01*
X269185607Y-159296506D01*
X269126143Y-159300369D01*
X269066567Y-159304192D01*
X269006876Y-159307975D01*
X268947069Y-159311717D01*
X268887145Y-159315419D01*
X268827102Y-159319082D01*
X268766938Y-159322706D01*
X268706651Y-159326291D01*
X268646240Y-159329836D01*
X268585703Y-159333343D01*
X268525038Y-159336811D01*
X268464243Y-159340241D01*
X268403318Y-159343632D01*
X268342259Y-159346986D01*
X268281066Y-159350303D01*
X268219737Y-159353581D01*
X268158270Y-159356823D01*
X268096663Y-159360027D01*
X268034915Y-159363195D01*
X267973024Y-159366326D01*
X267910988Y-159369420D01*
X267848805Y-159372478D01*
X267786474Y-159375501D01*
X267723994Y-159378487D01*
X267661362Y-159381438D01*
X267598576Y-159384354D01*
X267535636Y-159387235D01*
X267472539Y-159390080D01*
X267409283Y-159392891D01*
X267345867Y-159395668D01*
X267282290Y-159398410D01*
X267218549Y-159401118D01*
X267154643Y-159403792D01*
X267090570Y-159406433D01*
X267026328Y-159409040D01*
X266961916Y-159411614D01*
X266897332Y-159414155D01*
X266832574Y-159416664D01*
X266767641Y-159419139D01*
X266702531Y-159421582D01*
X266637242Y-159423994D01*
X266571772Y-159426373D01*
X266506120Y-159428720D01*
X266440284Y-159431036D01*
X266374263Y-159433321D01*
X266308054Y-159435574D01*
X266241656Y-159437797D01*
X266175067Y-159439989D01*
X266108286Y-159442151D01*
X266041311Y-159444282D01*
X265974140Y-159446384D01*
X265906771Y-159448455D01*
X265839203Y-159450497D01*
X265771434Y-159452510D01*
X265703462Y-159454493D01*
X265635286Y-159456448D01*
X265566904Y-159458373D01*
X265498314Y-159460270D01*
X265429514Y-159462139D01*
X265360504Y-159463980D01*
X265291280Y-159465793D01*
X265221842Y-159467578D01*
X265152188Y-159469336D01*
X265082315Y-159471066D01*
X265012223Y-159472770D01*
X264941909Y-159474447D01*
X264871373Y-159476097D01*
X264800611Y-159477720D01*
X264729623Y-159479318D01*
X264658407Y-159480889D01*
X264586960Y-159482435D01*
X264515283Y-159483955D01*
X264443371Y-159485450D01*
X264371225Y-159486919D01*
X264298842Y-159488364D01*
X264226221Y-159489784D01*
X264153359Y-159491180D01*
X264080256Y-159492551D01*
X264006909Y-159493898D01*
X263933316Y-159495222D01*
X263859477Y-159496522D01*
X263785389Y-159497798D01*
X263711051Y-159499051D01*
X263636461Y-159500281D01*
X263561616Y-159501489D01*
X263486517Y-159502674D01*
X263411160Y-159503836D01*
X263335544Y-159504976D01*
X263259668Y-159506095D01*
X263183530Y-159507191D01*
X263107127Y-159508267D01*
X263030459Y-159509321D01*
X262953523Y-159510353D01*
X262876318Y-159511365D01*
X262798843Y-159512357D01*
X262721095Y-159513327D01*
X262643072Y-159514278D01*
X262564774Y-159515209D01*
X262486198Y-159516120D01*
X262407343Y-159517011D01*
X262328207Y-159517883D01*
X262248788Y-159518735D01*
X262169085Y-159519569D01*
X262089095Y-159520384D01*
X262008818Y-159521181D01*
X261928251Y-159521959D01*
X261847393Y-159522719D01*
X261766242Y-159523461D01*
X261684796Y-159524186D01*
X261521014Y-159525583D01*
X261356032Y-159526911D01*
X261189839Y-159528174D01*
X261022418Y-159529371D01*
X260853758Y-159530506D01*
X260683844Y-159531579D01*
X260512663Y-159532593D01*
X260340202Y-159533549D01*
X260166445Y-159534448D01*
X259991381Y-159535293D01*
X259814995Y-159536086D01*
X259637274Y-159536827D01*
X259458204Y-159537519D01*
X259277771Y-159538163D01*
X259095962Y-159538761D01*
X258912763Y-159539315D01*
X258728161Y-159539826D01*
X258542142Y-159540296D01*
X258354692Y-159540727D01*
X258165798Y-159541121D01*
X257975445Y-159541479D01*
X257783622Y-159541803D01*
X257590313Y-159542094D01*
X257395505Y-159542355D01*
X257199185Y-159542587D01*
X257001338Y-159542792D01*
X256801952Y-159542971D01*
X256601013Y-159543126D01*
X256398507Y-159543259D01*
X256194420Y-159543372D01*
X255988739Y-159543466D01*
X255572540Y-159543605D01*
X255149800Y-159543689D01*
X254720411Y-159543732D01*
X253841250Y-159543750D01*
D10*
X349091250Y-135731250D02*
X387191250Y-135731250D01*
X120491250Y-135731250D02*
X158591250Y-135731250D01*
X118110000Y-138112500D02*
G75*
G02*
X120491250Y-135731300I2381200J0D01*
G01*
X115728750Y-50006250D02*
G75*
G02*
X118109950Y-52387500I-50J-2381250D01*
G01*
X353853750Y-73818750D02*
G75*
G02*
X351472450Y-71437500I50J2381350D01*
G01*
X158591250Y-69056301D02*
X215741250Y-69056250D01*
X118110000Y-52387500D02*
X118110000Y-71437500D01*
X118110000Y-147637500D02*
G75*
G02*
X115728750Y-150018800I-2381400J100D01*
G01*
X215741250Y-69056250D02*
G75*
G02*
X218122478Y-70042618I-150J-3367850D01*
G01*
X156210000Y-71437500D02*
G75*
G02*
X153828750Y-73818700I-2381200J0D01*
G01*
X38013800Y-51505000D02*
X38013800Y-53905000D01*
X38013800Y-53905000D02*
X40163800Y-55105000D01*
X40163800Y-50305000D02*
X38013800Y-51505000D01*
X40163800Y-55105000D02*
X42313800Y-53905000D01*
X42313800Y-51505000D02*
X40163800Y-50305000D01*
X42313800Y-53905000D02*
X42313800Y-51505000D01*
X366376300Y-76835000D02*
X367576300Y-78985000D01*
X367576300Y-74685000D02*
X366376300Y-76835000D01*
X367576300Y-78985000D02*
X369976300Y-78985000D01*
X369976300Y-74685000D02*
X367576300Y-74685000D01*
X369976300Y-78985000D02*
X371176300Y-76835000D01*
X371176300Y-76835000D02*
X369976300Y-74685000D01*
X37763800Y-146685000D02*
X38963800Y-148835000D01*
X38963800Y-144535000D02*
X37763800Y-146685000D01*
X38963800Y-148835000D02*
X41363800Y-148835000D01*
X41363800Y-144535000D02*
X38963800Y-144535000D01*
X41363800Y-148835000D02*
X42563800Y-146685000D01*
X42563800Y-146685000D02*
X41363800Y-144535000D01*
X115233800Y-131445000D02*
X116433800Y-133595000D01*
X116433800Y-129295000D02*
X115233800Y-131445000D01*
X116433800Y-133595000D02*
X118833800Y-133595000D01*
X118833800Y-129295000D02*
X116433800Y-129295000D01*
X118833800Y-133595000D02*
X120033800Y-131445000D01*
X120033800Y-131445000D02*
X118833800Y-129295000D01*
X274936300Y-154305000D02*
X276136300Y-156455000D01*
X276136300Y-152155000D02*
X274936300Y-154305000D01*
X276136300Y-156455000D02*
X278536300Y-156455000D01*
X278536300Y-152155000D02*
X276136300Y-152155000D01*
X278536300Y-156455000D02*
X279736300Y-154305000D01*
X279736300Y-154305000D02*
X278536300Y-152155000D01*
X112693800Y-52705000D02*
X113893800Y-54855000D01*
X113893800Y-50555000D02*
X112693800Y-52705000D01*
X113893800Y-54855000D02*
X116293800Y-54855000D01*
X116293800Y-50555000D02*
X113893800Y-50555000D01*
X116293800Y-54855000D02*
X117493800Y-52705000D01*
X117493800Y-52705000D02*
X116293800Y-50555000D01*
X342246300Y-131445000D02*
X343446300Y-133595000D01*
X343446300Y-129295000D02*
X342246300Y-131445000D01*
X343446300Y-133595000D02*
X345846300Y-133595000D01*
X345846300Y-129295000D02*
X343446300Y-129295000D01*
X345846300Y-133595000D02*
X347046300Y-131445000D01*
X347046300Y-131445000D02*
X345846300Y-129295000D01*
X286366300Y-73025000D02*
X287566300Y-75175000D01*
X287566300Y-70875000D02*
X286366300Y-73025000D01*
X287566300Y-75175000D02*
X289966300Y-75175000D01*
X289966300Y-70875000D02*
X287566300Y-70875000D01*
X289966300Y-75175000D02*
X291166300Y-73025000D01*
X291166300Y-73025000D02*
X289966300Y-70875000D01*
X154603800Y-75565000D02*
X155803800Y-77715000D01*
X155803800Y-73415000D02*
X154603800Y-75565000D01*
X155803800Y-77715000D02*
X158203800Y-77715000D01*
X158203800Y-73415000D02*
X155803800Y-73415000D01*
X158203800Y-77715000D02*
X159403800Y-75565000D01*
X159403800Y-75565000D02*
X158203800Y-73415000D01*
X160953800Y-131445000D02*
X162153800Y-133595000D01*
X162153800Y-129295000D02*
X160953800Y-131445000D01*
X162153800Y-133595000D02*
X164553800Y-133595000D01*
X164553800Y-129295000D02*
X162153800Y-129295000D01*
X164553800Y-133595000D02*
X165753800Y-131445000D01*
X165753800Y-131445000D02*
X164553800Y-129295000D01*
X216833800Y-73025000D02*
X218033800Y-75175000D01*
X218033800Y-70875000D02*
X216833800Y-73025000D01*
X218033800Y-75175000D02*
X220433800Y-75175000D01*
X220433800Y-70875000D02*
X218033800Y-70875000D01*
X220433800Y-75175000D02*
X221633800Y-73025000D01*
X221633800Y-73025000D02*
X220433800Y-70875000D01*
X228263800Y-154305000D02*
X229463800Y-156455000D01*
X229463800Y-152155000D02*
X228263800Y-154305000D01*
X229463800Y-156455000D02*
X231863800Y-156455000D01*
X231863800Y-152155000D02*
X229463800Y-152155000D01*
X231863800Y-156455000D02*
X233063800Y-154305000D01*
X233063800Y-154305000D02*
X231863800Y-152155000D01*
M02*
