G04 #@! TF.GenerationSoftware,KiCad,Pcbnew,8.0.4*
G04 #@! TF.CreationDate,2024-09-08T19:46:39+09:00*
G04 #@! TF.ProjectId,first_keyboard,66697273-745f-46b6-9579-626f6172642e,rev?*
G04 #@! TF.SameCoordinates,Original*
G04 #@! TF.FileFunction,Copper,L2,Bot*
G04 #@! TF.FilePolarity,Positive*
%FSLAX46Y46*%
G04 Gerber Fmt 4.6, Leading zero omitted, Abs format (unit mm)*
G04 Created by KiCad (PCBNEW 8.0.4) date 2024-09-08 19:46:39*
%MOMM*%
%LPD*%
G01*
G04 APERTURE LIST*
G04 APERTURE END LIST*
G04 #@! TA.AperFunction,NonConductor*
G36*
X159399289Y-112438935D02*
G01*
X159445044Y-112491739D01*
X159456250Y-112543250D01*
X159456250Y-115500500D01*
X159436565Y-115567539D01*
X159383761Y-115613294D01*
X159332250Y-115624500D01*
X154580250Y-115624500D01*
X154513211Y-115604815D01*
X154467456Y-115552011D01*
X154456250Y-115500500D01*
X154456250Y-112543250D01*
X154475935Y-112476211D01*
X154528739Y-112430456D01*
X154580250Y-112419250D01*
X159332250Y-112419250D01*
X159399289Y-112438935D01*
G37*
G04 #@! TD.AperFunction*
G04 #@! TA.AperFunction,NonConductor*
G36*
X139399289Y-112438935D02*
G01*
X139445044Y-112491739D01*
X139456250Y-112543250D01*
X139456250Y-115500500D01*
X139436565Y-115567539D01*
X139383761Y-115613294D01*
X139332250Y-115624500D01*
X134580250Y-115624500D01*
X134513211Y-115604815D01*
X134467456Y-115552011D01*
X134456250Y-115500500D01*
X134456250Y-112543250D01*
X134475935Y-112476211D01*
X134528739Y-112430456D01*
X134580250Y-112419250D01*
X139332250Y-112419250D01*
X139399289Y-112438935D01*
G37*
G04 #@! TD.AperFunction*
G04 #@! TA.AperFunction,NonConductor*
G36*
X119399289Y-112438935D02*
G01*
X119445044Y-112491739D01*
X119456250Y-112543250D01*
X119456250Y-115500500D01*
X119436565Y-115567539D01*
X119383761Y-115613294D01*
X119332250Y-115624500D01*
X114580250Y-115624500D01*
X114513211Y-115604815D01*
X114467456Y-115552011D01*
X114456250Y-115500500D01*
X114456250Y-112543250D01*
X114475935Y-112476211D01*
X114528739Y-112430456D01*
X114580250Y-112419250D01*
X119332250Y-112419250D01*
X119399289Y-112438935D01*
G37*
G04 #@! TD.AperFunction*
G04 #@! TA.AperFunction,NonConductor*
G36*
X99399289Y-112438935D02*
G01*
X99445044Y-112491739D01*
X99456250Y-112543250D01*
X99456250Y-115500500D01*
X99436565Y-115567539D01*
X99383761Y-115613294D01*
X99332250Y-115624500D01*
X94580250Y-115624500D01*
X94513211Y-115604815D01*
X94467456Y-115552011D01*
X94456250Y-115500500D01*
X94456250Y-112543250D01*
X94475935Y-112476211D01*
X94528739Y-112430456D01*
X94580250Y-112419250D01*
X99332250Y-112419250D01*
X99399289Y-112438935D01*
G37*
G04 #@! TD.AperFunction*
G04 #@! TA.AperFunction,NonConductor*
G36*
X239397527Y-113346544D02*
G01*
X239444163Y-113398572D01*
X239456250Y-113451971D01*
X239456250Y-115838868D01*
X239436565Y-115905907D01*
X239383761Y-115951662D01*
X239314603Y-115961606D01*
X239259365Y-115939187D01*
X239164063Y-115869947D01*
X239049454Y-115811550D01*
X238998659Y-115763576D01*
X238981750Y-115701066D01*
X238981750Y-114096134D01*
X238983594Y-114079295D01*
X238983560Y-114079292D01*
X238984268Y-114071197D01*
X238982486Y-114030413D01*
X238982486Y-114019587D01*
X238984268Y-113978803D01*
X238983560Y-113970711D01*
X238983594Y-113970707D01*
X238981750Y-113953866D01*
X238981750Y-113602971D01*
X239001435Y-113535932D01*
X239036964Y-113499799D01*
X239263469Y-113348796D01*
X239330166Y-113327989D01*
X239397527Y-113346544D01*
G37*
G04 #@! TD.AperFunction*
G04 #@! TA.AperFunction,NonConductor*
G36*
X316584206Y-112438935D02*
G01*
X316585950Y-112440076D01*
X319401034Y-114316798D01*
X319445894Y-114370362D01*
X319456250Y-114419971D01*
X319456250Y-115836748D01*
X319436565Y-115903787D01*
X319389509Y-115946736D01*
X319387809Y-115947621D01*
X319319255Y-115961117D01*
X319257665Y-115937952D01*
X319164065Y-115869948D01*
X318974664Y-115773444D01*
X318974663Y-115773443D01*
X318974662Y-115773443D01*
X318772493Y-115707754D01*
X318772491Y-115707753D01*
X318772490Y-115707753D01*
X318611207Y-115682208D01*
X318562537Y-115674500D01*
X318349963Y-115674500D01*
X318301292Y-115682208D01*
X318140010Y-115707753D01*
X317937835Y-115773444D01*
X317748429Y-115869951D01*
X317576462Y-115994891D01*
X317576008Y-115995280D01*
X317575799Y-115995373D01*
X317572516Y-115997759D01*
X317572015Y-115997069D01*
X317512251Y-116023859D01*
X317495465Y-116025000D01*
X315101086Y-116025000D01*
X315034047Y-116005315D01*
X315013405Y-115988681D01*
X314945898Y-115921174D01*
X314945896Y-115921172D01*
X314786655Y-115805476D01*
X314771641Y-115797826D01*
X314611279Y-115716117D01*
X314564956Y-115701066D01*
X314541929Y-115693584D01*
X314484256Y-115654147D01*
X314457058Y-115589788D01*
X314456250Y-115575654D01*
X314456250Y-112543250D01*
X314475935Y-112476211D01*
X314528739Y-112430456D01*
X314580250Y-112419250D01*
X316517167Y-112419250D01*
X316584206Y-112438935D01*
G37*
G04 #@! TD.AperFunction*
G04 #@! TA.AperFunction,NonConductor*
G36*
X299399289Y-112438935D02*
G01*
X299445044Y-112491739D01*
X299456250Y-112543250D01*
X299456250Y-115830164D01*
X299436565Y-115897203D01*
X299419931Y-115917845D01*
X299349095Y-115988681D01*
X299287772Y-116022166D01*
X299261414Y-116025000D01*
X296051086Y-116025000D01*
X295984047Y-116005315D01*
X295963405Y-115988681D01*
X295895898Y-115921174D01*
X295895896Y-115921172D01*
X295736655Y-115805476D01*
X295721641Y-115797826D01*
X295561279Y-115716117D01*
X295374076Y-115655290D01*
X295179672Y-115624500D01*
X295179667Y-115624500D01*
X294580250Y-115624500D01*
X294513211Y-115604815D01*
X294467456Y-115552011D01*
X294456250Y-115500500D01*
X294456250Y-112543250D01*
X294475935Y-112476211D01*
X294528739Y-112430456D01*
X294580250Y-112419250D01*
X299332250Y-112419250D01*
X299399289Y-112438935D01*
G37*
G04 #@! TD.AperFunction*
G04 #@! TA.AperFunction,NonConductor*
G36*
X279399289Y-112438935D02*
G01*
X279445044Y-112491739D01*
X279456250Y-112543250D01*
X279456250Y-115901000D01*
X279436565Y-115968039D01*
X279383761Y-116013794D01*
X279332250Y-116025000D01*
X277001086Y-116025000D01*
X276934047Y-116005315D01*
X276913405Y-115988681D01*
X276845898Y-115921174D01*
X276845896Y-115921172D01*
X276686655Y-115805476D01*
X276671641Y-115797826D01*
X276511279Y-115716117D01*
X276324076Y-115655290D01*
X276129672Y-115624500D01*
X276129667Y-115624500D01*
X274580250Y-115624500D01*
X274513211Y-115604815D01*
X274467456Y-115552011D01*
X274456250Y-115500500D01*
X274456250Y-112543250D01*
X274475935Y-112476211D01*
X274528739Y-112430456D01*
X274580250Y-112419250D01*
X279332250Y-112419250D01*
X279399289Y-112438935D01*
G37*
G04 #@! TD.AperFunction*
G04 #@! TA.AperFunction,NonConductor*
G36*
X259399289Y-112438935D02*
G01*
X259445044Y-112491739D01*
X259456250Y-112543250D01*
X259456250Y-115901000D01*
X259436565Y-115968039D01*
X259383761Y-116013794D01*
X259332250Y-116025000D01*
X257951086Y-116025000D01*
X257884047Y-116005315D01*
X257863405Y-115988681D01*
X257795898Y-115921174D01*
X257795896Y-115921172D01*
X257636655Y-115805476D01*
X257621641Y-115797826D01*
X257461279Y-115716117D01*
X257274076Y-115655290D01*
X257079672Y-115624500D01*
X257079667Y-115624500D01*
X254580250Y-115624500D01*
X254513211Y-115604815D01*
X254467456Y-115552011D01*
X254456250Y-115500500D01*
X254456250Y-112543250D01*
X254475935Y-112476211D01*
X254528739Y-112430456D01*
X254580250Y-112419250D01*
X259332250Y-112419250D01*
X259399289Y-112438935D01*
G37*
G04 #@! TD.AperFunction*
G04 #@! TA.AperFunction,NonConductor*
G36*
X236948014Y-114979552D02*
G01*
X236974158Y-115001204D01*
X236989046Y-115017451D01*
X236989047Y-115017452D01*
X237105744Y-115091796D01*
X237237706Y-115133404D01*
X237375941Y-115139439D01*
X237511029Y-115109490D01*
X237749494Y-114985352D01*
X237818047Y-114971858D01*
X237883014Y-114997568D01*
X237923768Y-115054321D01*
X237930750Y-115095342D01*
X237930750Y-115701066D01*
X237911065Y-115768105D01*
X237863046Y-115811550D01*
X237748432Y-115869949D01*
X237576462Y-115994891D01*
X237576008Y-115995280D01*
X237575799Y-115995373D01*
X237572516Y-115997759D01*
X237572015Y-115997069D01*
X237512251Y-116023859D01*
X237495465Y-116025000D01*
X235658708Y-116025000D01*
X235591669Y-116005315D01*
X235545914Y-115952511D01*
X235535970Y-115883353D01*
X235564995Y-115819797D01*
X235589925Y-115797826D01*
X236035913Y-115500500D01*
X236813956Y-114981804D01*
X236880653Y-114960997D01*
X236948014Y-114979552D01*
G37*
G04 #@! TD.AperFunction*
G04 #@! TA.AperFunction,NonConductor*
G36*
X321992831Y-116044685D02*
G01*
X321994575Y-116045826D01*
X322072070Y-116097489D01*
X322175807Y-116166647D01*
X322235222Y-116206257D01*
X322255229Y-116219595D01*
X322334325Y-116272326D01*
X322379186Y-116325891D01*
X322387966Y-116395207D01*
X322357877Y-116458266D01*
X322298473Y-116495047D01*
X322265542Y-116499500D01*
X320233769Y-116499500D01*
X320166730Y-116479815D01*
X320120975Y-116427011D01*
X320113856Y-116400026D01*
X320112532Y-116400320D01*
X320080824Y-116257301D01*
X320080823Y-116257296D01*
X320054254Y-116206257D01*
X320040759Y-116137703D01*
X320066469Y-116072736D01*
X320123222Y-116031982D01*
X320164243Y-116025000D01*
X321925792Y-116025000D01*
X321992831Y-116044685D01*
G37*
G04 #@! TD.AperFunction*
G04 #@! TA.AperFunction,NonConductor*
G36*
X84399289Y-116044685D02*
G01*
X84445044Y-116097489D01*
X84456250Y-116149000D01*
X84456250Y-116375500D01*
X84436565Y-116442539D01*
X84383761Y-116488294D01*
X84332250Y-116499500D01*
X82546958Y-116499500D01*
X82479919Y-116479815D01*
X82434164Y-116427011D01*
X82424220Y-116357853D01*
X82453245Y-116294297D01*
X82478175Y-116272326D01*
X82557272Y-116219595D01*
X82577279Y-116206257D01*
X82636694Y-116166647D01*
X82740431Y-116097489D01*
X82817925Y-116045826D01*
X82884624Y-116025018D01*
X82886708Y-116025000D01*
X84332250Y-116025000D01*
X84399289Y-116044685D01*
G37*
G04 #@! TD.AperFunction*
G04 #@! TA.AperFunction,NonConductor*
G36*
X324399289Y-117570185D02*
G01*
X324445044Y-117622989D01*
X324456250Y-117674500D01*
X324456250Y-120263000D01*
X324436565Y-120330039D01*
X324383761Y-120375794D01*
X324332250Y-120387000D01*
X319580250Y-120387000D01*
X319513211Y-120367315D01*
X319467456Y-120314511D01*
X319456250Y-120263000D01*
X319456250Y-118261649D01*
X319475935Y-118194610D01*
X319528739Y-118148855D01*
X319574838Y-118137767D01*
X319674793Y-118133403D01*
X319806756Y-118091796D01*
X319923453Y-118017451D01*
X320016933Y-117915436D01*
X320080823Y-117792704D01*
X320107029Y-117674500D01*
X320112532Y-117649680D01*
X320115464Y-117650330D01*
X320135704Y-117598611D01*
X320192300Y-117557640D01*
X320233769Y-117550500D01*
X324332250Y-117550500D01*
X324399289Y-117570185D01*
G37*
G04 #@! TD.AperFunction*
G04 #@! TA.AperFunction,NonConductor*
G36*
X84399289Y-117570185D02*
G01*
X84445044Y-117622989D01*
X84456250Y-117674500D01*
X84456250Y-120263000D01*
X84436565Y-120330039D01*
X84383761Y-120375794D01*
X84332250Y-120387000D01*
X79580250Y-120387000D01*
X79513211Y-120367315D01*
X79467456Y-120314511D01*
X79456250Y-120263000D01*
X79456250Y-117674500D01*
X79475935Y-117607461D01*
X79528739Y-117561706D01*
X79580250Y-117550500D01*
X84332250Y-117550500D01*
X84399289Y-117570185D01*
G37*
G04 #@! TD.AperFunction*
G04 #@! TA.AperFunction,NonConductor*
G36*
X304399289Y-118145185D02*
G01*
X304445044Y-118197989D01*
X304456250Y-118249500D01*
X304456250Y-120901000D01*
X304436565Y-120968039D01*
X304383761Y-121013794D01*
X304332250Y-121025000D01*
X301605750Y-121025000D01*
X301538711Y-121005315D01*
X301492956Y-120952511D01*
X301481750Y-120901000D01*
X301481750Y-118249500D01*
X301501435Y-118182461D01*
X301554239Y-118136706D01*
X301605750Y-118125500D01*
X304332250Y-118125500D01*
X304399289Y-118145185D01*
G37*
G04 #@! TD.AperFunction*
G04 #@! TA.AperFunction,NonConductor*
G36*
X284399289Y-118145185D02*
G01*
X284445044Y-118197989D01*
X284456250Y-118249500D01*
X284456250Y-120901000D01*
X284436565Y-120968039D01*
X284383761Y-121013794D01*
X284332250Y-121025000D01*
X282555750Y-121025000D01*
X282488711Y-121005315D01*
X282442956Y-120952511D01*
X282431750Y-120901000D01*
X282431750Y-118249500D01*
X282451435Y-118182461D01*
X282504239Y-118136706D01*
X282555750Y-118125500D01*
X284332250Y-118125500D01*
X284399289Y-118145185D01*
G37*
G04 #@! TD.AperFunction*
G04 #@! TA.AperFunction,NonConductor*
G36*
X280076783Y-116044685D02*
G01*
X280122538Y-116097489D01*
X280132482Y-116166647D01*
X280112991Y-116214654D01*
X280114272Y-116215439D01*
X280111730Y-116219586D01*
X280022367Y-116394970D01*
X279961540Y-116582173D01*
X279930750Y-116776577D01*
X279930750Y-120901000D01*
X279911065Y-120968039D01*
X279858261Y-121013794D01*
X279806750Y-121025000D01*
X279580250Y-121025000D01*
X279513211Y-121005315D01*
X279467456Y-120952511D01*
X279456250Y-120901000D01*
X279456250Y-116149000D01*
X279475935Y-116081961D01*
X279528739Y-116036206D01*
X279580250Y-116025000D01*
X280009744Y-116025000D01*
X280076783Y-116044685D01*
G37*
G04 #@! TD.AperFunction*
G04 #@! TA.AperFunction,NonConductor*
G36*
X264399289Y-118145185D02*
G01*
X264445044Y-118197989D01*
X264456250Y-118249500D01*
X264456250Y-120901000D01*
X264436565Y-120968039D01*
X264383761Y-121013794D01*
X264332250Y-121025000D01*
X263505750Y-121025000D01*
X263438711Y-121005315D01*
X263392956Y-120952511D01*
X263381750Y-120901000D01*
X263381750Y-118249500D01*
X263401435Y-118182461D01*
X263454239Y-118136706D01*
X263505750Y-118125500D01*
X264332250Y-118125500D01*
X264399289Y-118145185D01*
G37*
G04 #@! TD.AperFunction*
G04 #@! TA.AperFunction,NonConductor*
G36*
X261026783Y-116044685D02*
G01*
X261072538Y-116097489D01*
X261082482Y-116166647D01*
X261062991Y-116214654D01*
X261064272Y-116215439D01*
X261061730Y-116219586D01*
X260972367Y-116394970D01*
X260911540Y-116582173D01*
X260880750Y-116776577D01*
X260880750Y-120901000D01*
X260861065Y-120968039D01*
X260808261Y-121013794D01*
X260756750Y-121025000D01*
X259580250Y-121025000D01*
X259513211Y-121005315D01*
X259467456Y-120952511D01*
X259456250Y-120901000D01*
X259456250Y-116149000D01*
X259475935Y-116081961D01*
X259528739Y-116036206D01*
X259580250Y-116025000D01*
X260959744Y-116025000D01*
X261026783Y-116044685D01*
G37*
G04 #@! TD.AperFunction*
G04 #@! TA.AperFunction,NonConductor*
G36*
X241976783Y-116044685D02*
G01*
X242022538Y-116097489D01*
X242032482Y-116166647D01*
X242012991Y-116214654D01*
X242014272Y-116215439D01*
X242011730Y-116219586D01*
X241922367Y-116394970D01*
X241861540Y-116582173D01*
X241830750Y-116776577D01*
X241830750Y-120901000D01*
X241811065Y-120968039D01*
X241758261Y-121013794D01*
X241706750Y-121025000D01*
X239580250Y-121025000D01*
X239513211Y-121005315D01*
X239467456Y-120952511D01*
X239456250Y-120901000D01*
X239456250Y-117985785D01*
X239475935Y-117918746D01*
X239485970Y-117905242D01*
X239486358Y-117904787D01*
X239611298Y-117732820D01*
X239611297Y-117732820D01*
X239611301Y-117732816D01*
X239707807Y-117543412D01*
X239773496Y-117341243D01*
X239806750Y-117131287D01*
X239806750Y-116918713D01*
X239773496Y-116708757D01*
X239707807Y-116506588D01*
X239611301Y-116317184D01*
X239542063Y-116221885D01*
X239518584Y-116156078D01*
X239534410Y-116088024D01*
X239584516Y-116039330D01*
X239642382Y-116025000D01*
X241909744Y-116025000D01*
X241976783Y-116044685D01*
G37*
G04 #@! TD.AperFunction*
G04 #@! TA.AperFunction,NonConductor*
G36*
X224399289Y-117201435D02*
G01*
X224445044Y-117254239D01*
X224456250Y-117305750D01*
X224456250Y-120263000D01*
X224436565Y-120330039D01*
X224383761Y-120375794D01*
X224332250Y-120387000D01*
X223932828Y-120387000D01*
X223738423Y-120417790D01*
X223551220Y-120478617D01*
X223375844Y-120567976D01*
X223284991Y-120633985D01*
X223216604Y-120683672D01*
X223216602Y-120683674D01*
X223216601Y-120683674D01*
X223077423Y-120822852D01*
X222967690Y-120973886D01*
X222912359Y-121016551D01*
X222867372Y-121025000D01*
X219580250Y-121025000D01*
X219513211Y-121005315D01*
X219467456Y-120952511D01*
X219456250Y-120901000D01*
X219456250Y-117305750D01*
X219475935Y-117238711D01*
X219528739Y-117192956D01*
X219580250Y-117181750D01*
X224332250Y-117181750D01*
X224399289Y-117201435D01*
G37*
G04 #@! TD.AperFunction*
G04 #@! TA.AperFunction,NonConductor*
G36*
X184399289Y-117201435D02*
G01*
X184445044Y-117254239D01*
X184456250Y-117305750D01*
X184456250Y-120901000D01*
X184436565Y-120968039D01*
X184383761Y-121013794D01*
X184332250Y-121025000D01*
X181945128Y-121025000D01*
X181878089Y-121005315D01*
X181844810Y-120973886D01*
X181791855Y-120901000D01*
X181735078Y-120822854D01*
X181595896Y-120683672D01*
X181436655Y-120567976D01*
X181261279Y-120478617D01*
X181074076Y-120417790D01*
X180879672Y-120387000D01*
X180879667Y-120387000D01*
X179580250Y-120387000D01*
X179513211Y-120367315D01*
X179467456Y-120314511D01*
X179456250Y-120263000D01*
X179456250Y-117305750D01*
X179475935Y-117238711D01*
X179528739Y-117192956D01*
X179580250Y-117181750D01*
X184332250Y-117181750D01*
X184399289Y-117201435D01*
G37*
G04 #@! TD.AperFunction*
G04 #@! TA.AperFunction,NonConductor*
G36*
X164399289Y-116044685D02*
G01*
X164445044Y-116097489D01*
X164456250Y-116149000D01*
X164456250Y-120901000D01*
X164436565Y-120968039D01*
X164383761Y-121013794D01*
X164332250Y-121025000D01*
X163105750Y-121025000D01*
X163038711Y-121005315D01*
X162992956Y-120952511D01*
X162981750Y-120901000D01*
X162981750Y-116776577D01*
X162950959Y-116582173D01*
X162917700Y-116479815D01*
X162890134Y-116394975D01*
X162890132Y-116394972D01*
X162890132Y-116394970D01*
X162838836Y-116294297D01*
X162800774Y-116219595D01*
X162800772Y-116219593D01*
X162800769Y-116219586D01*
X162798228Y-116215439D01*
X162799800Y-116214475D01*
X162778960Y-116156102D01*
X162794772Y-116088046D01*
X162844868Y-116039341D01*
X162902756Y-116025000D01*
X164332250Y-116025000D01*
X164399289Y-116044685D01*
G37*
G04 #@! TD.AperFunction*
G04 #@! TA.AperFunction,NonConductor*
G36*
X160423789Y-118145185D02*
G01*
X160469544Y-118197989D01*
X160480750Y-118249500D01*
X160480750Y-120901000D01*
X160461065Y-120968039D01*
X160408261Y-121013794D01*
X160356750Y-121025000D01*
X159580250Y-121025000D01*
X159513211Y-121005315D01*
X159467456Y-120952511D01*
X159456250Y-120901000D01*
X159456250Y-118249500D01*
X159475935Y-118182461D01*
X159528739Y-118136706D01*
X159580250Y-118125500D01*
X160356750Y-118125500D01*
X160423789Y-118145185D01*
G37*
G04 #@! TD.AperFunction*
G04 #@! TA.AperFunction,NonConductor*
G36*
X144399289Y-116044685D02*
G01*
X144445044Y-116097489D01*
X144456250Y-116149000D01*
X144456250Y-120901000D01*
X144436565Y-120968039D01*
X144383761Y-121013794D01*
X144332250Y-121025000D01*
X144055750Y-121025000D01*
X143988711Y-121005315D01*
X143942956Y-120952511D01*
X143931750Y-120901000D01*
X143931750Y-116776577D01*
X143900959Y-116582173D01*
X143867700Y-116479815D01*
X143840134Y-116394975D01*
X143840132Y-116394972D01*
X143840132Y-116394970D01*
X143788836Y-116294297D01*
X143750774Y-116219595D01*
X143750772Y-116219593D01*
X143750769Y-116219586D01*
X143748228Y-116215439D01*
X143749800Y-116214475D01*
X143728960Y-116156102D01*
X143744772Y-116088046D01*
X143794868Y-116039341D01*
X143852756Y-116025000D01*
X144332250Y-116025000D01*
X144399289Y-116044685D01*
G37*
G04 #@! TD.AperFunction*
G04 #@! TA.AperFunction,NonConductor*
G36*
X141373789Y-118145185D02*
G01*
X141419544Y-118197989D01*
X141430750Y-118249500D01*
X141430750Y-120901000D01*
X141411065Y-120968039D01*
X141358261Y-121013794D01*
X141306750Y-121025000D01*
X139580250Y-121025000D01*
X139513211Y-121005315D01*
X139467456Y-120952511D01*
X139456250Y-120901000D01*
X139456250Y-118249500D01*
X139475935Y-118182461D01*
X139528739Y-118136706D01*
X139580250Y-118125500D01*
X141306750Y-118125500D01*
X141373789Y-118145185D01*
G37*
G04 #@! TD.AperFunction*
G04 #@! TA.AperFunction,NonConductor*
G36*
X122323789Y-118145185D02*
G01*
X122369544Y-118197989D01*
X122380750Y-118249500D01*
X122380750Y-120901000D01*
X122361065Y-120968039D01*
X122308261Y-121013794D01*
X122256750Y-121025000D01*
X119580250Y-121025000D01*
X119513211Y-121005315D01*
X119467456Y-120952511D01*
X119456250Y-120901000D01*
X119456250Y-118249500D01*
X119475935Y-118182461D01*
X119528739Y-118136706D01*
X119580250Y-118125500D01*
X122256750Y-118125500D01*
X122323789Y-118145185D01*
G37*
G04 #@! TD.AperFunction*
G04 #@! TA.AperFunction,NonConductor*
G36*
X103273789Y-118145185D02*
G01*
X103319544Y-118197989D01*
X103330750Y-118249500D01*
X103330750Y-120901000D01*
X103311065Y-120968039D01*
X103258261Y-121013794D01*
X103206750Y-121025000D01*
X99580250Y-121025000D01*
X99513211Y-121005315D01*
X99467456Y-120952511D01*
X99456250Y-120901000D01*
X99456250Y-118249500D01*
X99475935Y-118182461D01*
X99528739Y-118136706D01*
X99580250Y-118125500D01*
X103206750Y-118125500D01*
X103273789Y-118145185D01*
G37*
G04 #@! TD.AperFunction*
G04 #@! TA.AperFunction,NonConductor*
G36*
X329399289Y-122907685D02*
G01*
X329445044Y-122960489D01*
X329456250Y-123012000D01*
X329456250Y-125901000D01*
X329436565Y-125968039D01*
X329383761Y-126013794D01*
X329332250Y-126025000D01*
X324580250Y-126025000D01*
X324513211Y-126005315D01*
X324467456Y-125952511D01*
X324456250Y-125901000D01*
X324456250Y-123012000D01*
X324475935Y-122944961D01*
X324528739Y-122899206D01*
X324580250Y-122888000D01*
X329332250Y-122888000D01*
X329399289Y-122907685D01*
G37*
G04 #@! TD.AperFunction*
G04 #@! TA.AperFunction,NonConductor*
G36*
X309399289Y-121044685D02*
G01*
X309445044Y-121097489D01*
X309456250Y-121149000D01*
X309456250Y-125901000D01*
X309436565Y-125968039D01*
X309383761Y-126013794D01*
X309332250Y-126025000D01*
X304580250Y-126025000D01*
X304513211Y-126005315D01*
X304467456Y-125952511D01*
X304456250Y-125901000D01*
X304456250Y-121149000D01*
X304475935Y-121081961D01*
X304528739Y-121036206D01*
X304580250Y-121025000D01*
X309332250Y-121025000D01*
X309399289Y-121044685D01*
G37*
G04 #@! TD.AperFunction*
G04 #@! TA.AperFunction,NonConductor*
G36*
X289399289Y-121044685D02*
G01*
X289445044Y-121097489D01*
X289456250Y-121149000D01*
X289456250Y-125901000D01*
X289436565Y-125968039D01*
X289383761Y-126013794D01*
X289332250Y-126025000D01*
X284580250Y-126025000D01*
X284513211Y-126005315D01*
X284467456Y-125952511D01*
X284456250Y-125901000D01*
X284456250Y-121149000D01*
X284475935Y-121081961D01*
X284528739Y-121036206D01*
X284580250Y-121025000D01*
X289332250Y-121025000D01*
X289399289Y-121044685D01*
G37*
G04 #@! TD.AperFunction*
G04 #@! TA.AperFunction,NonConductor*
G36*
X269399289Y-121044685D02*
G01*
X269445044Y-121097489D01*
X269456250Y-121149000D01*
X269456250Y-125901000D01*
X269436565Y-125968039D01*
X269383761Y-126013794D01*
X269332250Y-126025000D01*
X264580250Y-126025000D01*
X264513211Y-126005315D01*
X264467456Y-125952511D01*
X264456250Y-125901000D01*
X264456250Y-121149000D01*
X264475935Y-121081961D01*
X264528739Y-121036206D01*
X264580250Y-121025000D01*
X269332250Y-121025000D01*
X269399289Y-121044685D01*
G37*
G04 #@! TD.AperFunction*
G04 #@! TA.AperFunction,NonConductor*
G36*
X249399289Y-121044685D02*
G01*
X249445044Y-121097489D01*
X249456250Y-121149000D01*
X249456250Y-125901000D01*
X249436565Y-125968039D01*
X249383761Y-126013794D01*
X249332250Y-126025000D01*
X244580250Y-126025000D01*
X244513211Y-126005315D01*
X244467456Y-125952511D01*
X244456250Y-125901000D01*
X244456250Y-121149000D01*
X244475935Y-121081961D01*
X244528739Y-121036206D01*
X244580250Y-121025000D01*
X249332250Y-121025000D01*
X249399289Y-121044685D01*
G37*
G04 #@! TD.AperFunction*
G04 #@! TA.AperFunction,NonConductor*
G36*
X229399289Y-122907685D02*
G01*
X229445044Y-122960489D01*
X229456250Y-123012000D01*
X229456250Y-125901000D01*
X229436565Y-125968039D01*
X229383761Y-126013794D01*
X229332250Y-126025000D01*
X225405750Y-126025000D01*
X225338711Y-126005315D01*
X225292956Y-125952511D01*
X225281750Y-125901000D01*
X225281750Y-123012000D01*
X225301435Y-122944961D01*
X225354239Y-122899206D01*
X225405750Y-122888000D01*
X229332250Y-122888000D01*
X229399289Y-122907685D01*
G37*
G04 #@! TD.AperFunction*
G04 #@! TA.AperFunction,NonConductor*
G36*
X187561289Y-121044685D02*
G01*
X187607044Y-121097489D01*
X187618250Y-121149000D01*
X187618250Y-125901000D01*
X187598565Y-125968039D01*
X187545761Y-126013794D01*
X187494250Y-126025000D01*
X184580250Y-126025000D01*
X184513211Y-126005315D01*
X184467456Y-125952511D01*
X184456250Y-125901000D01*
X184456250Y-121149000D01*
X184475935Y-121081961D01*
X184528739Y-121036206D01*
X184580250Y-121025000D01*
X187494250Y-121025000D01*
X187561289Y-121044685D01*
G37*
G04 #@! TD.AperFunction*
G04 #@! TA.AperFunction,NonConductor*
G36*
X169399289Y-122907685D02*
G01*
X169445044Y-122960489D01*
X169456250Y-123012000D01*
X169456250Y-125901000D01*
X169436565Y-125968039D01*
X169383761Y-126013794D01*
X169332250Y-126025000D01*
X168255750Y-126025000D01*
X168188711Y-126005315D01*
X168142956Y-125952511D01*
X168131750Y-125901000D01*
X168131750Y-123012000D01*
X168151435Y-122944961D01*
X168204239Y-122899206D01*
X168255750Y-122888000D01*
X169332250Y-122888000D01*
X169399289Y-122907685D01*
G37*
G04 #@! TD.AperFunction*
G04 #@! TA.AperFunction,NonConductor*
G36*
X165661778Y-121044685D02*
G01*
X165707533Y-121097489D01*
X165717477Y-121166647D01*
X165712672Y-121187308D01*
X165691182Y-121253448D01*
X165661540Y-121344673D01*
X165630750Y-121539077D01*
X165630750Y-125901000D01*
X165611065Y-125968039D01*
X165558261Y-126013794D01*
X165506750Y-126025000D01*
X164580250Y-126025000D01*
X164513211Y-126005315D01*
X164467456Y-125952511D01*
X164456250Y-125901000D01*
X164456250Y-121149000D01*
X164475935Y-121081961D01*
X164528739Y-121036206D01*
X164580250Y-121025000D01*
X165594739Y-121025000D01*
X165661778Y-121044685D01*
G37*
G04 #@! TD.AperFunction*
G04 #@! TA.AperFunction,NonConductor*
G36*
X149399289Y-121044685D02*
G01*
X149445044Y-121097489D01*
X149456250Y-121149000D01*
X149456250Y-125901000D01*
X149436565Y-125968039D01*
X149383761Y-126013794D01*
X149332250Y-126025000D01*
X149205750Y-126025000D01*
X149138711Y-126005315D01*
X149092956Y-125952511D01*
X149081750Y-125901000D01*
X149081750Y-121149000D01*
X149101435Y-121081961D01*
X149154239Y-121036206D01*
X149205750Y-121025000D01*
X149332250Y-121025000D01*
X149399289Y-121044685D01*
G37*
G04 #@! TD.AperFunction*
G04 #@! TA.AperFunction,NonConductor*
G36*
X146523789Y-121044685D02*
G01*
X146569544Y-121097489D01*
X146580750Y-121149000D01*
X146580750Y-125901000D01*
X146561065Y-125968039D01*
X146508261Y-126013794D01*
X146456750Y-126025000D01*
X144580250Y-126025000D01*
X144513211Y-126005315D01*
X144467456Y-125952511D01*
X144456250Y-125901000D01*
X144456250Y-121149000D01*
X144475935Y-121081961D01*
X144528739Y-121036206D01*
X144580250Y-121025000D01*
X146456750Y-121025000D01*
X146523789Y-121044685D01*
G37*
G04 #@! TD.AperFunction*
G04 #@! TA.AperFunction,NonConductor*
G36*
X127473789Y-121044685D02*
G01*
X127519544Y-121097489D01*
X127530750Y-121149000D01*
X127530750Y-125901000D01*
X127511065Y-125968039D01*
X127458261Y-126013794D01*
X127406750Y-126025000D01*
X125005750Y-126025000D01*
X124938711Y-126005315D01*
X124892956Y-125952511D01*
X124881750Y-125901000D01*
X124881750Y-121149000D01*
X124901435Y-121081961D01*
X124954239Y-121036206D01*
X125005750Y-121025000D01*
X127406750Y-121025000D01*
X127473789Y-121044685D01*
G37*
G04 #@! TD.AperFunction*
G04 #@! TA.AperFunction,NonConductor*
G36*
X108423789Y-121044685D02*
G01*
X108469544Y-121097489D01*
X108480750Y-121149000D01*
X108480750Y-125901000D01*
X108461065Y-125968039D01*
X108408261Y-126013794D01*
X108356750Y-126025000D01*
X105955750Y-126025000D01*
X105888711Y-126005315D01*
X105842956Y-125952511D01*
X105831750Y-125901000D01*
X105831750Y-121149000D01*
X105851435Y-121081961D01*
X105904239Y-121036206D01*
X105955750Y-121025000D01*
X108356750Y-121025000D01*
X108423789Y-121044685D01*
G37*
G04 #@! TD.AperFunction*
G04 #@! TA.AperFunction,NonConductor*
G36*
X89373789Y-121044685D02*
G01*
X89419544Y-121097489D01*
X89430750Y-121149000D01*
X89430750Y-125901000D01*
X89411065Y-125968039D01*
X89358261Y-126013794D01*
X89306750Y-126025000D01*
X86905750Y-126025000D01*
X86838711Y-126005315D01*
X86792956Y-125952511D01*
X86781750Y-125901000D01*
X86781750Y-121539077D01*
X86750959Y-121344673D01*
X86738034Y-121304896D01*
X86699829Y-121187315D01*
X86697835Y-121117478D01*
X86733915Y-121057645D01*
X86796615Y-121026816D01*
X86817761Y-121025000D01*
X89306750Y-121025000D01*
X89373789Y-121044685D01*
G37*
G04 #@! TD.AperFunction*
G04 #@! TA.AperFunction,NonConductor*
G36*
X69399289Y-121044685D02*
G01*
X69445044Y-121097489D01*
X69456250Y-121149000D01*
X69456250Y-125901000D01*
X69436565Y-125968039D01*
X69383761Y-126013794D01*
X69332250Y-126025000D01*
X67299500Y-126025000D01*
X67232461Y-126005315D01*
X67186706Y-125952511D01*
X67175500Y-125901000D01*
X67175500Y-121149000D01*
X67195185Y-121081961D01*
X67247989Y-121036206D01*
X67299500Y-121025000D01*
X69332250Y-121025000D01*
X69399289Y-121044685D01*
G37*
G04 #@! TD.AperFunction*
G04 #@! TA.AperFunction,NonConductor*
G36*
X312823789Y-126044685D02*
G01*
X312869544Y-126097489D01*
X312880750Y-126149000D01*
X312880750Y-129400500D01*
X312861065Y-129467539D01*
X312808261Y-129513294D01*
X312756750Y-129524500D01*
X309580250Y-129524500D01*
X309513211Y-129504815D01*
X309467456Y-129452011D01*
X309456250Y-129400500D01*
X309456250Y-126149000D01*
X309475935Y-126081961D01*
X309528739Y-126036206D01*
X309580250Y-126025000D01*
X312756750Y-126025000D01*
X312823789Y-126044685D01*
G37*
G04 #@! TD.AperFunction*
G04 #@! TA.AperFunction,NonConductor*
G36*
X293773789Y-126044685D02*
G01*
X293819544Y-126097489D01*
X293830750Y-126149000D01*
X293830750Y-129400500D01*
X293811065Y-129467539D01*
X293758261Y-129513294D01*
X293706750Y-129524500D01*
X289580250Y-129524500D01*
X289513211Y-129504815D01*
X289467456Y-129452011D01*
X289456250Y-129400500D01*
X289456250Y-126149000D01*
X289475935Y-126081961D01*
X289528739Y-126036206D01*
X289580250Y-126025000D01*
X293706750Y-126025000D01*
X293773789Y-126044685D01*
G37*
G04 #@! TD.AperFunction*
G04 #@! TA.AperFunction,NonConductor*
G36*
X274399289Y-126044685D02*
G01*
X274445044Y-126097489D01*
X274456250Y-126149000D01*
X274456250Y-129400500D01*
X274436565Y-129467539D01*
X274383761Y-129513294D01*
X274332250Y-129524500D01*
X269580250Y-129524500D01*
X269513211Y-129504815D01*
X269467456Y-129452011D01*
X269456250Y-129400500D01*
X269456250Y-126149000D01*
X269475935Y-126081961D01*
X269528739Y-126036206D01*
X269580250Y-126025000D01*
X274332250Y-126025000D01*
X274399289Y-126044685D01*
G37*
G04 #@! TD.AperFunction*
G04 #@! TA.AperFunction,NonConductor*
G36*
X254399289Y-126044685D02*
G01*
X254445044Y-126097489D01*
X254456250Y-126149000D01*
X254456250Y-129400500D01*
X254436565Y-129467539D01*
X254383761Y-129513294D01*
X254332250Y-129524500D01*
X249580250Y-129524500D01*
X249513211Y-129504815D01*
X249467456Y-129452011D01*
X249456250Y-129400500D01*
X249456250Y-126149000D01*
X249475935Y-126081961D01*
X249528739Y-126036206D01*
X249580250Y-126025000D01*
X254332250Y-126025000D01*
X254399289Y-126044685D01*
G37*
G04 #@! TD.AperFunction*
G04 #@! TA.AperFunction,NonConductor*
G36*
X154399289Y-126044685D02*
G01*
X154445044Y-126097489D01*
X154456250Y-126149000D01*
X154456250Y-129400500D01*
X154436565Y-129467539D01*
X154383761Y-129513294D01*
X154332250Y-129524500D01*
X149580250Y-129524500D01*
X149513211Y-129504815D01*
X149467456Y-129452011D01*
X149456250Y-129400500D01*
X149456250Y-126149000D01*
X149475935Y-126081961D01*
X149528739Y-126036206D01*
X149580250Y-126025000D01*
X154332250Y-126025000D01*
X154399289Y-126044685D01*
G37*
G04 #@! TD.AperFunction*
G04 #@! TA.AperFunction,NonConductor*
G36*
X134399289Y-126044685D02*
G01*
X134445044Y-126097489D01*
X134456250Y-126149000D01*
X134456250Y-129400500D01*
X134436565Y-129467539D01*
X134383761Y-129513294D01*
X134332250Y-129524500D01*
X130155750Y-129524500D01*
X130088711Y-129504815D01*
X130042956Y-129452011D01*
X130031750Y-129400500D01*
X130031750Y-126149000D01*
X130051435Y-126081961D01*
X130104239Y-126036206D01*
X130155750Y-126025000D01*
X134332250Y-126025000D01*
X134399289Y-126044685D01*
G37*
G04 #@! TD.AperFunction*
G04 #@! TA.AperFunction,NonConductor*
G36*
X114399289Y-126044685D02*
G01*
X114445044Y-126097489D01*
X114456250Y-126149000D01*
X114456250Y-129400500D01*
X114436565Y-129467539D01*
X114383761Y-129513294D01*
X114332250Y-129524500D01*
X111105750Y-129524500D01*
X111038711Y-129504815D01*
X110992956Y-129452011D01*
X110981750Y-129400500D01*
X110981750Y-126149000D01*
X111001435Y-126081961D01*
X111054239Y-126036206D01*
X111105750Y-126025000D01*
X114332250Y-126025000D01*
X114399289Y-126044685D01*
G37*
G04 #@! TD.AperFunction*
G04 #@! TA.AperFunction,NonConductor*
G36*
X94399289Y-126044685D02*
G01*
X94445044Y-126097489D01*
X94456250Y-126149000D01*
X94456250Y-129400500D01*
X94436565Y-129467539D01*
X94383761Y-129513294D01*
X94332250Y-129524500D01*
X92055750Y-129524500D01*
X91988711Y-129504815D01*
X91942956Y-129452011D01*
X91931750Y-129400500D01*
X91931750Y-126149000D01*
X91951435Y-126081961D01*
X92004239Y-126036206D01*
X92055750Y-126025000D01*
X94332250Y-126025000D01*
X94399289Y-126044685D01*
G37*
G04 #@! TD.AperFunction*
G04 #@! TA.AperFunction,NonConductor*
G36*
X331873789Y-126044685D02*
G01*
X331919544Y-126097489D01*
X331930750Y-126149000D01*
X331930750Y-130901000D01*
X331911065Y-130968039D01*
X331858261Y-131013794D01*
X331806750Y-131025000D01*
X329580250Y-131025000D01*
X329513211Y-131005315D01*
X329467456Y-130952511D01*
X329456250Y-130901000D01*
X329456250Y-126149000D01*
X329475935Y-126081961D01*
X329528739Y-126036206D01*
X329580250Y-126025000D01*
X331806750Y-126025000D01*
X331873789Y-126044685D01*
G37*
G04 #@! TD.AperFunction*
G04 #@! TA.AperFunction,NonConductor*
G36*
X234399289Y-126044685D02*
G01*
X234445044Y-126097489D01*
X234456250Y-126149000D01*
X234456250Y-130901000D01*
X234436565Y-130968039D01*
X234383761Y-131013794D01*
X234332250Y-131025000D01*
X229580250Y-131025000D01*
X229513211Y-131005315D01*
X229467456Y-130952511D01*
X229456250Y-130901000D01*
X229456250Y-126149000D01*
X229475935Y-126081961D01*
X229528739Y-126036206D01*
X229580250Y-126025000D01*
X234332250Y-126025000D01*
X234399289Y-126044685D01*
G37*
G04 #@! TD.AperFunction*
G04 #@! TA.AperFunction,NonConductor*
G36*
X174399289Y-126044685D02*
G01*
X174445044Y-126097489D01*
X174456250Y-126149000D01*
X174456250Y-130901000D01*
X174436565Y-130968039D01*
X174383761Y-131013794D01*
X174332250Y-131025000D01*
X169580250Y-131025000D01*
X169513211Y-131005315D01*
X169467456Y-130952511D01*
X169456250Y-130901000D01*
X169456250Y-126149000D01*
X169475935Y-126081961D01*
X169528739Y-126036206D01*
X169580250Y-126025000D01*
X174332250Y-126025000D01*
X174399289Y-126044685D01*
G37*
G04 #@! TD.AperFunction*
G04 #@! TA.AperFunction,NonConductor*
G36*
X74399289Y-126044685D02*
G01*
X74445044Y-126097489D01*
X74456250Y-126149000D01*
X74456250Y-130901000D01*
X74436565Y-130968039D01*
X74383761Y-131013794D01*
X74332250Y-131025000D01*
X73005750Y-131025000D01*
X72938711Y-131005315D01*
X72892956Y-130952511D01*
X72881750Y-130901000D01*
X72881750Y-126149000D01*
X72901435Y-126081961D01*
X72954239Y-126036206D01*
X73005750Y-126025000D01*
X74332250Y-126025000D01*
X74399289Y-126044685D01*
G37*
G04 #@! TD.AperFunction*
G04 #@! TA.AperFunction,NonConductor*
G36*
X70323789Y-126044685D02*
G01*
X70369544Y-126097489D01*
X70380750Y-126149000D01*
X70380750Y-130901000D01*
X70361065Y-130968039D01*
X70308261Y-131013794D01*
X70256750Y-131025000D01*
X69580250Y-131025000D01*
X69513211Y-131005315D01*
X69467456Y-130952511D01*
X69456250Y-130901000D01*
X69456250Y-126149000D01*
X69475935Y-126081961D01*
X69528739Y-126036206D01*
X69580250Y-126025000D01*
X70256750Y-126025000D01*
X70323789Y-126044685D01*
G37*
G04 #@! TD.AperFunction*
G04 #@! TA.AperFunction,NonConductor*
G36*
X236623789Y-131044685D02*
G01*
X236669544Y-131097489D01*
X236680750Y-131149000D01*
X236680750Y-134163000D01*
X236661065Y-134230039D01*
X236608261Y-134275794D01*
X236556750Y-134287000D01*
X234580250Y-134287000D01*
X234513211Y-134267315D01*
X234467456Y-134214511D01*
X234456250Y-134163000D01*
X234456250Y-131149000D01*
X234475935Y-131081961D01*
X234528739Y-131036206D01*
X234580250Y-131025000D01*
X236556750Y-131025000D01*
X236623789Y-131044685D01*
G37*
G04 #@! TD.AperFunction*
G04 #@! TA.AperFunction,NonConductor*
G36*
X179399289Y-131044685D02*
G01*
X179445044Y-131097489D01*
X179456250Y-131149000D01*
X179456250Y-134163000D01*
X179436565Y-134230039D01*
X179383761Y-134275794D01*
X179332250Y-134287000D01*
X174580250Y-134287000D01*
X174513211Y-134267315D01*
X174467456Y-134214511D01*
X174456250Y-134163000D01*
X174456250Y-131149000D01*
X174475935Y-131081961D01*
X174528739Y-131036206D01*
X174580250Y-131025000D01*
X179332250Y-131025000D01*
X179399289Y-131044685D01*
G37*
G04 #@! TD.AperFunction*
G04 #@! TA.AperFunction,NonConductor*
G36*
X79399289Y-131044685D02*
G01*
X79445044Y-131097489D01*
X79456250Y-131149000D01*
X79456250Y-134163000D01*
X79436565Y-134230039D01*
X79383761Y-134275794D01*
X79332250Y-134287000D01*
X74580250Y-134287000D01*
X74513211Y-134267315D01*
X74467456Y-134214511D01*
X74456250Y-134163000D01*
X74456250Y-131149000D01*
X74475935Y-131081961D01*
X74528739Y-131036206D01*
X74580250Y-131025000D01*
X79332250Y-131025000D01*
X79399289Y-131044685D01*
G37*
G04 #@! TD.AperFunction*
G04 #@! TA.AperFunction,NonConductor*
G36*
X159399289Y-132045185D02*
G01*
X159445044Y-132097989D01*
X159456250Y-132149500D01*
X159456250Y-134550500D01*
X159436565Y-134617539D01*
X159383761Y-134663294D01*
X159332250Y-134674500D01*
X154580250Y-134674500D01*
X154513211Y-134654815D01*
X154467456Y-134602011D01*
X154456250Y-134550500D01*
X154456250Y-132149500D01*
X154475935Y-132082461D01*
X154528739Y-132036706D01*
X154580250Y-132025500D01*
X159332250Y-132025500D01*
X159399289Y-132045185D01*
G37*
G04 #@! TD.AperFunction*
G04 #@! TA.AperFunction,NonConductor*
G36*
X139399289Y-132045185D02*
G01*
X139445044Y-132097989D01*
X139456250Y-132149500D01*
X139456250Y-134550500D01*
X139436565Y-134617539D01*
X139383761Y-134663294D01*
X139332250Y-134674500D01*
X134580250Y-134674500D01*
X134513211Y-134654815D01*
X134467456Y-134602011D01*
X134456250Y-134550500D01*
X134456250Y-132149500D01*
X134475935Y-132082461D01*
X134528739Y-132036706D01*
X134580250Y-132025500D01*
X139332250Y-132025500D01*
X139399289Y-132045185D01*
G37*
G04 #@! TD.AperFunction*
G04 #@! TA.AperFunction,NonConductor*
G36*
X119399289Y-132045185D02*
G01*
X119445044Y-132097989D01*
X119456250Y-132149500D01*
X119456250Y-134550500D01*
X119436565Y-134617539D01*
X119383761Y-134663294D01*
X119332250Y-134674500D01*
X114580250Y-134674500D01*
X114513211Y-134654815D01*
X114467456Y-134602011D01*
X114456250Y-134550500D01*
X114456250Y-132149500D01*
X114475935Y-132082461D01*
X114528739Y-132036706D01*
X114580250Y-132025500D01*
X119332250Y-132025500D01*
X119399289Y-132045185D01*
G37*
G04 #@! TD.AperFunction*
G04 #@! TA.AperFunction,NonConductor*
G36*
X99399289Y-132045185D02*
G01*
X99445044Y-132097989D01*
X99456250Y-132149500D01*
X99456250Y-134550500D01*
X99436565Y-134617539D01*
X99383761Y-134663294D01*
X99332250Y-134674500D01*
X94580250Y-134674500D01*
X94513211Y-134654815D01*
X94467456Y-134602011D01*
X94456250Y-134550500D01*
X94456250Y-132149500D01*
X94475935Y-132082461D01*
X94528739Y-132036706D01*
X94580250Y-132025500D01*
X99332250Y-132025500D01*
X99399289Y-132045185D01*
G37*
G04 #@! TD.AperFunction*
G04 #@! TA.AperFunction,NonConductor*
G36*
X337580039Y-131044685D02*
G01*
X337625794Y-131097489D01*
X337637000Y-131149000D01*
X337637000Y-135901000D01*
X337617315Y-135968039D01*
X337564511Y-136013794D01*
X337513000Y-136025000D01*
X334580250Y-136025000D01*
X334513211Y-136005315D01*
X334467456Y-135952511D01*
X334456250Y-135901000D01*
X334456250Y-131149000D01*
X334475935Y-131081961D01*
X334528739Y-131036206D01*
X334580250Y-131025000D01*
X337513000Y-131025000D01*
X337580039Y-131044685D01*
G37*
G04 #@! TD.AperFunction*
G04 #@! TA.AperFunction,NonConductor*
G36*
X317973789Y-131044685D02*
G01*
X318019544Y-131097489D01*
X318030750Y-131149000D01*
X318030750Y-135635922D01*
X318061541Y-135830327D01*
X318061542Y-135830333D01*
X318072053Y-135862680D01*
X318074050Y-135932521D01*
X318037970Y-135992355D01*
X317975269Y-136023184D01*
X317954123Y-136025000D01*
X315505750Y-136025000D01*
X315438711Y-136005315D01*
X315392956Y-135952511D01*
X315381750Y-135901000D01*
X315381750Y-135826577D01*
X315350959Y-135632173D01*
X315290132Y-135444970D01*
X315200773Y-135269594D01*
X315085078Y-135110354D01*
X314945896Y-134971172D01*
X314786655Y-134855476D01*
X314611279Y-134766117D01*
X314580538Y-134756129D01*
X314541929Y-134743584D01*
X314484256Y-134704147D01*
X314457058Y-134639788D01*
X314456250Y-134625654D01*
X314456250Y-132074345D01*
X314475935Y-132007306D01*
X314528739Y-131961551D01*
X314541919Y-131956418D01*
X314611275Y-131933884D01*
X314786655Y-131844524D01*
X314945896Y-131728828D01*
X315085078Y-131589646D01*
X315200774Y-131430405D01*
X315290134Y-131255025D01*
X315337034Y-131110681D01*
X315376472Y-131053006D01*
X315440830Y-131025808D01*
X315454965Y-131025000D01*
X317906750Y-131025000D01*
X317973789Y-131044685D01*
G37*
G04 #@! TD.AperFunction*
G04 #@! TA.AperFunction,NonConductor*
G36*
X298974574Y-131044685D02*
G01*
X299020329Y-131097489D01*
X299025465Y-131110679D01*
X299072366Y-131255025D01*
X299161726Y-131430405D01*
X299277422Y-131589646D01*
X299277424Y-131589648D01*
X299419931Y-131732155D01*
X299453416Y-131793478D01*
X299456250Y-131819836D01*
X299456250Y-134880164D01*
X299436565Y-134947203D01*
X299419931Y-134967845D01*
X299277424Y-135110351D01*
X299277424Y-135110352D01*
X299277422Y-135110354D01*
X299227735Y-135178741D01*
X299161726Y-135269594D01*
X299072367Y-135444970D01*
X299011540Y-135632173D01*
X298980750Y-135826577D01*
X298980750Y-135901000D01*
X298961065Y-135968039D01*
X298908261Y-136013794D01*
X298856750Y-136025000D01*
X296455750Y-136025000D01*
X296388711Y-136005315D01*
X296342956Y-135952511D01*
X296331750Y-135901000D01*
X296331750Y-135826577D01*
X296300959Y-135632173D01*
X296240132Y-135444970D01*
X296150773Y-135269594D01*
X296035078Y-135110354D01*
X295895896Y-134971172D01*
X295736655Y-134855476D01*
X295561279Y-134766117D01*
X295374076Y-134705290D01*
X295179672Y-134674500D01*
X295179667Y-134674500D01*
X294580250Y-134674500D01*
X294513211Y-134654815D01*
X294467456Y-134602011D01*
X294456250Y-134550500D01*
X294456250Y-132149500D01*
X294475935Y-132082461D01*
X294528739Y-132036706D01*
X294580250Y-132025500D01*
X295179672Y-132025500D01*
X295374076Y-131994709D01*
X295406253Y-131984254D01*
X295561275Y-131933884D01*
X295736655Y-131844524D01*
X295895896Y-131728828D01*
X296035078Y-131589646D01*
X296150774Y-131430405D01*
X296240134Y-131255025D01*
X296287034Y-131110681D01*
X296326472Y-131053006D01*
X296390830Y-131025808D01*
X296404965Y-131025000D01*
X298907535Y-131025000D01*
X298974574Y-131044685D01*
G37*
G04 #@! TD.AperFunction*
G04 #@! TA.AperFunction,NonConductor*
G36*
X279399289Y-131044685D02*
G01*
X279445044Y-131097489D01*
X279456250Y-131149000D01*
X279456250Y-135901000D01*
X279436565Y-135968039D01*
X279383761Y-136013794D01*
X279332250Y-136025000D01*
X277405750Y-136025000D01*
X277338711Y-136005315D01*
X277292956Y-135952511D01*
X277281750Y-135901000D01*
X277281750Y-135826577D01*
X277250959Y-135632173D01*
X277190132Y-135444970D01*
X277100773Y-135269594D01*
X276985078Y-135110354D01*
X276845896Y-134971172D01*
X276686655Y-134855476D01*
X276511279Y-134766117D01*
X276324076Y-134705290D01*
X276129672Y-134674500D01*
X276129667Y-134674500D01*
X274580250Y-134674500D01*
X274513211Y-134654815D01*
X274467456Y-134602011D01*
X274456250Y-134550500D01*
X274456250Y-132149500D01*
X274475935Y-132082461D01*
X274528739Y-132036706D01*
X274580250Y-132025500D01*
X276129672Y-132025500D01*
X276324076Y-131994709D01*
X276356253Y-131984254D01*
X276511275Y-131933884D01*
X276686655Y-131844524D01*
X276845896Y-131728828D01*
X276985078Y-131589646D01*
X277100774Y-131430405D01*
X277190134Y-131255025D01*
X277237034Y-131110681D01*
X277276472Y-131053006D01*
X277340830Y-131025808D01*
X277354965Y-131025000D01*
X279332250Y-131025000D01*
X279399289Y-131044685D01*
G37*
G04 #@! TD.AperFunction*
G04 #@! TA.AperFunction,NonConductor*
G36*
X259399289Y-131044685D02*
G01*
X259445044Y-131097489D01*
X259456250Y-131149000D01*
X259456250Y-135901000D01*
X259436565Y-135968039D01*
X259383761Y-136013794D01*
X259332250Y-136025000D01*
X258355750Y-136025000D01*
X258288711Y-136005315D01*
X258242956Y-135952511D01*
X258231750Y-135901000D01*
X258231750Y-135826577D01*
X258200959Y-135632173D01*
X258140132Y-135444970D01*
X258050773Y-135269594D01*
X257935078Y-135110354D01*
X257795896Y-134971172D01*
X257636655Y-134855476D01*
X257461279Y-134766117D01*
X257274076Y-134705290D01*
X257079672Y-134674500D01*
X257079667Y-134674500D01*
X254580250Y-134674500D01*
X254513211Y-134654815D01*
X254467456Y-134602011D01*
X254456250Y-134550500D01*
X254456250Y-132149500D01*
X254475935Y-132082461D01*
X254528739Y-132036706D01*
X254580250Y-132025500D01*
X257079672Y-132025500D01*
X257274076Y-131994709D01*
X257306253Y-131984254D01*
X257461275Y-131933884D01*
X257636655Y-131844524D01*
X257795896Y-131728828D01*
X257935078Y-131589646D01*
X258050774Y-131430405D01*
X258140134Y-131255025D01*
X258187034Y-131110681D01*
X258226472Y-131053006D01*
X258290830Y-131025808D01*
X258304965Y-131025000D01*
X259332250Y-131025000D01*
X259399289Y-131044685D01*
G37*
G04 #@! TD.AperFunction*
G04 #@! TA.AperFunction,NonConductor*
G36*
X239399289Y-131044685D02*
G01*
X239445044Y-131097489D01*
X239456250Y-131149000D01*
X239456250Y-135901000D01*
X239436565Y-135968039D01*
X239383761Y-136013794D01*
X239332250Y-136025000D01*
X239258377Y-136025000D01*
X239191338Y-136005315D01*
X239145583Y-135952511D01*
X239135639Y-135883353D01*
X239140447Y-135862680D01*
X239150957Y-135830333D01*
X239150957Y-135830331D01*
X239150959Y-135830326D01*
X239166822Y-135730166D01*
X239181750Y-135635922D01*
X239181750Y-131149000D01*
X239201435Y-131081961D01*
X239254239Y-131036206D01*
X239305750Y-131025000D01*
X239332250Y-131025000D01*
X239399289Y-131044685D01*
G37*
G04 #@! TD.AperFunction*
G04 #@! TA.AperFunction,NonConductor*
G36*
X219399289Y-131044685D02*
G01*
X219445044Y-131097489D01*
X219456250Y-131149000D01*
X219456250Y-135901000D01*
X219436565Y-135968039D01*
X219383761Y-136013794D01*
X219332250Y-136025000D01*
X217318250Y-136025000D01*
X217251211Y-136005315D01*
X217205456Y-135952511D01*
X217194250Y-135901000D01*
X217194250Y-131149000D01*
X217213935Y-131081961D01*
X217266739Y-131036206D01*
X217318250Y-131025000D01*
X219332250Y-131025000D01*
X219399289Y-131044685D01*
G37*
G04 #@! TD.AperFunction*
G04 #@! TA.AperFunction,NonConductor*
G36*
X84399289Y-136807685D02*
G01*
X84445044Y-136860489D01*
X84456250Y-136912000D01*
X84456250Y-139313000D01*
X84436565Y-139380039D01*
X84383761Y-139425794D01*
X84332250Y-139437000D01*
X79580250Y-139437000D01*
X79513211Y-139417315D01*
X79467456Y-139364511D01*
X79456250Y-139313000D01*
X79456250Y-136912000D01*
X79475935Y-136844961D01*
X79528739Y-136799206D01*
X79580250Y-136788000D01*
X84332250Y-136788000D01*
X84399289Y-136807685D01*
G37*
G04 #@! TD.AperFunction*
G04 #@! TA.AperFunction,NonConductor*
G36*
X324399289Y-136807685D02*
G01*
X324445044Y-136860489D01*
X324456250Y-136912000D01*
X324456250Y-140388000D01*
X324436565Y-140455039D01*
X324383761Y-140500794D01*
X324332250Y-140512000D01*
X320232828Y-140512000D01*
X320038423Y-140542790D01*
X319851220Y-140603617D01*
X319675841Y-140692978D01*
X319653135Y-140709475D01*
X319587329Y-140732955D01*
X319519275Y-140717129D01*
X319470580Y-140667024D01*
X319456250Y-140609157D01*
X319456250Y-136912000D01*
X319475935Y-136844961D01*
X319528739Y-136799206D01*
X319580250Y-136788000D01*
X324332250Y-136788000D01*
X324399289Y-136807685D01*
G37*
G04 #@! TD.AperFunction*
G04 #@! TA.AperFunction,NonConductor*
G36*
X304399289Y-137195185D02*
G01*
X304445044Y-137247989D01*
X304456250Y-137299500D01*
X304456250Y-140901000D01*
X304436565Y-140968039D01*
X304383761Y-141013794D01*
X304332250Y-141025000D01*
X301605750Y-141025000D01*
X301538711Y-141005315D01*
X301492956Y-140952511D01*
X301481750Y-140901000D01*
X301481750Y-137299500D01*
X301501435Y-137232461D01*
X301554239Y-137186706D01*
X301605750Y-137175500D01*
X304332250Y-137175500D01*
X304399289Y-137195185D01*
G37*
G04 #@! TD.AperFunction*
G04 #@! TA.AperFunction,NonConductor*
G36*
X284399289Y-137195185D02*
G01*
X284445044Y-137247989D01*
X284456250Y-137299500D01*
X284456250Y-140901000D01*
X284436565Y-140968039D01*
X284383761Y-141013794D01*
X284332250Y-141025000D01*
X282555750Y-141025000D01*
X282488711Y-141005315D01*
X282442956Y-140952511D01*
X282431750Y-140901000D01*
X282431750Y-137299500D01*
X282451435Y-137232461D01*
X282504239Y-137186706D01*
X282555750Y-137175500D01*
X284332250Y-137175500D01*
X284399289Y-137195185D01*
G37*
G04 #@! TD.AperFunction*
G04 #@! TA.AperFunction,NonConductor*
G36*
X279873789Y-136044685D02*
G01*
X279919544Y-136097489D01*
X279930750Y-136149000D01*
X279930750Y-140901000D01*
X279911065Y-140968039D01*
X279858261Y-141013794D01*
X279806750Y-141025000D01*
X279580250Y-141025000D01*
X279513211Y-141005315D01*
X279467456Y-140952511D01*
X279456250Y-140901000D01*
X279456250Y-136149000D01*
X279475935Y-136081961D01*
X279528739Y-136036206D01*
X279580250Y-136025000D01*
X279806750Y-136025000D01*
X279873789Y-136044685D01*
G37*
G04 #@! TD.AperFunction*
G04 #@! TA.AperFunction,NonConductor*
G36*
X264399289Y-137195185D02*
G01*
X264445044Y-137247989D01*
X264456250Y-137299500D01*
X264456250Y-140901000D01*
X264436565Y-140968039D01*
X264383761Y-141013794D01*
X264332250Y-141025000D01*
X263505750Y-141025000D01*
X263438711Y-141005315D01*
X263392956Y-140952511D01*
X263381750Y-140901000D01*
X263381750Y-137299500D01*
X263401435Y-137232461D01*
X263454239Y-137186706D01*
X263505750Y-137175500D01*
X264332250Y-137175500D01*
X264399289Y-137195185D01*
G37*
G04 #@! TD.AperFunction*
G04 #@! TA.AperFunction,NonConductor*
G36*
X260823789Y-136044685D02*
G01*
X260869544Y-136097489D01*
X260880750Y-136149000D01*
X260880750Y-140901000D01*
X260861065Y-140968039D01*
X260808261Y-141013794D01*
X260756750Y-141025000D01*
X259580250Y-141025000D01*
X259513211Y-141005315D01*
X259467456Y-140952511D01*
X259456250Y-140901000D01*
X259456250Y-136149000D01*
X259475935Y-136081961D01*
X259528739Y-136036206D01*
X259580250Y-136025000D01*
X260756750Y-136025000D01*
X260823789Y-136044685D01*
G37*
G04 #@! TD.AperFunction*
G04 #@! TA.AperFunction,NonConductor*
G36*
X241773789Y-136044685D02*
G01*
X241819544Y-136097489D01*
X241830750Y-136149000D01*
X241830750Y-140901000D01*
X241811065Y-140968039D01*
X241758261Y-141013794D01*
X241706750Y-141025000D01*
X239580250Y-141025000D01*
X239513211Y-141005315D01*
X239467456Y-140952511D01*
X239456250Y-140901000D01*
X239456250Y-136149000D01*
X239475935Y-136081961D01*
X239528739Y-136036206D01*
X239580250Y-136025000D01*
X241706750Y-136025000D01*
X241773789Y-136044685D01*
G37*
G04 #@! TD.AperFunction*
G04 #@! TA.AperFunction,NonConductor*
G36*
X222867226Y-136044685D02*
G01*
X222910672Y-136092705D01*
X222961726Y-136192905D01*
X223077422Y-136352146D01*
X223216604Y-136491328D01*
X223375845Y-136607024D01*
X223458705Y-136649243D01*
X223551220Y-136696382D01*
X223551222Y-136696382D01*
X223551225Y-136696384D01*
X223651567Y-136728987D01*
X223738423Y-136757209D01*
X223932828Y-136788000D01*
X223932833Y-136788000D01*
X224332250Y-136788000D01*
X224399289Y-136807685D01*
X224445044Y-136860489D01*
X224456250Y-136912000D01*
X224456250Y-139313000D01*
X224436565Y-139380039D01*
X224383761Y-139425794D01*
X224332250Y-139437000D01*
X223932828Y-139437000D01*
X223738423Y-139467790D01*
X223551220Y-139528617D01*
X223375844Y-139617976D01*
X223284991Y-139683985D01*
X223216604Y-139733672D01*
X223216602Y-139733674D01*
X223216601Y-139733674D01*
X223077424Y-139872851D01*
X223077424Y-139872852D01*
X223077422Y-139872854D01*
X223027735Y-139941241D01*
X222961726Y-140032094D01*
X222872367Y-140207470D01*
X222811540Y-140394673D01*
X222780750Y-140589077D01*
X222780750Y-140901000D01*
X222761065Y-140968039D01*
X222708261Y-141013794D01*
X222656750Y-141025000D01*
X219580250Y-141025000D01*
X219513211Y-141005315D01*
X219467456Y-140952511D01*
X219456250Y-140901000D01*
X219456250Y-136149000D01*
X219475935Y-136081961D01*
X219528739Y-136036206D01*
X219580250Y-136025000D01*
X222800187Y-136025000D01*
X222867226Y-136044685D01*
G37*
G04 #@! TD.AperFunction*
G04 #@! TA.AperFunction,NonConductor*
G36*
X184399289Y-136044685D02*
G01*
X184445044Y-136097489D01*
X184456250Y-136149000D01*
X184456250Y-140901000D01*
X184436565Y-140968039D01*
X184383761Y-141013794D01*
X184332250Y-141025000D01*
X182155750Y-141025000D01*
X182088711Y-141005315D01*
X182042956Y-140952511D01*
X182031750Y-140901000D01*
X182031750Y-140589077D01*
X182000959Y-140394673D01*
X181940132Y-140207470D01*
X181850773Y-140032094D01*
X181735078Y-139872854D01*
X181595896Y-139733672D01*
X181436655Y-139617976D01*
X181261279Y-139528617D01*
X181074076Y-139467790D01*
X180879672Y-139437000D01*
X180879667Y-139437000D01*
X179580250Y-139437000D01*
X179513211Y-139417315D01*
X179467456Y-139364511D01*
X179456250Y-139313000D01*
X179456250Y-136912000D01*
X179475935Y-136844961D01*
X179528739Y-136799206D01*
X179580250Y-136788000D01*
X180879672Y-136788000D01*
X181074076Y-136757209D01*
X181261275Y-136696384D01*
X181436655Y-136607024D01*
X181595896Y-136491328D01*
X181735078Y-136352146D01*
X181850774Y-136192905D01*
X181901828Y-136092705D01*
X181949802Y-136041909D01*
X182012313Y-136025000D01*
X184332250Y-136025000D01*
X184399289Y-136044685D01*
G37*
G04 #@! TD.AperFunction*
G04 #@! TA.AperFunction,NonConductor*
G36*
X164399289Y-136044685D02*
G01*
X164445044Y-136097489D01*
X164456250Y-136149000D01*
X164456250Y-140901000D01*
X164436565Y-140968039D01*
X164383761Y-141013794D01*
X164332250Y-141025000D01*
X163105750Y-141025000D01*
X163038711Y-141005315D01*
X162992956Y-140952511D01*
X162981750Y-140901000D01*
X162981750Y-136149000D01*
X163001435Y-136081961D01*
X163054239Y-136036206D01*
X163105750Y-136025000D01*
X164332250Y-136025000D01*
X164399289Y-136044685D01*
G37*
G04 #@! TD.AperFunction*
G04 #@! TA.AperFunction,NonConductor*
G36*
X160423789Y-137195185D02*
G01*
X160469544Y-137247989D01*
X160480750Y-137299500D01*
X160480750Y-140901000D01*
X160461065Y-140968039D01*
X160408261Y-141013794D01*
X160356750Y-141025000D01*
X159580250Y-141025000D01*
X159513211Y-141005315D01*
X159467456Y-140952511D01*
X159456250Y-140901000D01*
X159456250Y-137299500D01*
X159475935Y-137232461D01*
X159528739Y-137186706D01*
X159580250Y-137175500D01*
X160356750Y-137175500D01*
X160423789Y-137195185D01*
G37*
G04 #@! TD.AperFunction*
G04 #@! TA.AperFunction,NonConductor*
G36*
X144399289Y-136044685D02*
G01*
X144445044Y-136097489D01*
X144456250Y-136149000D01*
X144456250Y-140901000D01*
X144436565Y-140968039D01*
X144383761Y-141013794D01*
X144332250Y-141025000D01*
X144055750Y-141025000D01*
X143988711Y-141005315D01*
X143942956Y-140952511D01*
X143931750Y-140901000D01*
X143931750Y-136149000D01*
X143951435Y-136081961D01*
X144004239Y-136036206D01*
X144055750Y-136025000D01*
X144332250Y-136025000D01*
X144399289Y-136044685D01*
G37*
G04 #@! TD.AperFunction*
G04 #@! TA.AperFunction,NonConductor*
G36*
X141373789Y-137195185D02*
G01*
X141419544Y-137247989D01*
X141430750Y-137299500D01*
X141430750Y-140901000D01*
X141411065Y-140968039D01*
X141358261Y-141013794D01*
X141306750Y-141025000D01*
X139580250Y-141025000D01*
X139513211Y-141005315D01*
X139467456Y-140952511D01*
X139456250Y-140901000D01*
X139456250Y-137299500D01*
X139475935Y-137232461D01*
X139528739Y-137186706D01*
X139580250Y-137175500D01*
X141306750Y-137175500D01*
X141373789Y-137195185D01*
G37*
G04 #@! TD.AperFunction*
G04 #@! TA.AperFunction,NonConductor*
G36*
X122323789Y-137195185D02*
G01*
X122369544Y-137247989D01*
X122380750Y-137299500D01*
X122380750Y-140901000D01*
X122361065Y-140968039D01*
X122308261Y-141013794D01*
X122256750Y-141025000D01*
X119580250Y-141025000D01*
X119513211Y-141005315D01*
X119467456Y-140952511D01*
X119456250Y-140901000D01*
X119456250Y-137299500D01*
X119475935Y-137232461D01*
X119528739Y-137186706D01*
X119580250Y-137175500D01*
X122256750Y-137175500D01*
X122323789Y-137195185D01*
G37*
G04 #@! TD.AperFunction*
G04 #@! TA.AperFunction,NonConductor*
G36*
X103273789Y-137195185D02*
G01*
X103319544Y-137247989D01*
X103330750Y-137299500D01*
X103330750Y-140901000D01*
X103311065Y-140968039D01*
X103258261Y-141013794D01*
X103206750Y-141025000D01*
X99580250Y-141025000D01*
X99513211Y-141005315D01*
X99467456Y-140952511D01*
X99456250Y-140901000D01*
X99456250Y-137299500D01*
X99475935Y-137232461D01*
X99528739Y-137186706D01*
X99580250Y-137175500D01*
X103206750Y-137175500D01*
X103273789Y-137195185D01*
G37*
G04 #@! TD.AperFunction*
G04 #@! TA.AperFunction,NonConductor*
G36*
X329399289Y-143032685D02*
G01*
X329445044Y-143085489D01*
X329456250Y-143137000D01*
X329456250Y-145901000D01*
X329436565Y-145968039D01*
X329383761Y-146013794D01*
X329332250Y-146025000D01*
X324580250Y-146025000D01*
X324513211Y-146005315D01*
X324467456Y-145952511D01*
X324456250Y-145901000D01*
X324456250Y-143137000D01*
X324475935Y-143069961D01*
X324528739Y-143024206D01*
X324580250Y-143013000D01*
X329332250Y-143013000D01*
X329399289Y-143032685D01*
G37*
G04 #@! TD.AperFunction*
G04 #@! TA.AperFunction,NonConductor*
G36*
X309399289Y-141044685D02*
G01*
X309445044Y-141097489D01*
X309456250Y-141149000D01*
X309456250Y-145901000D01*
X309436565Y-145968039D01*
X309383761Y-146013794D01*
X309332250Y-146025000D01*
X304580250Y-146025000D01*
X304513211Y-146005315D01*
X304467456Y-145952511D01*
X304456250Y-145901000D01*
X304456250Y-141149000D01*
X304475935Y-141081961D01*
X304528739Y-141036206D01*
X304580250Y-141025000D01*
X309332250Y-141025000D01*
X309399289Y-141044685D01*
G37*
G04 #@! TD.AperFunction*
G04 #@! TA.AperFunction,NonConductor*
G36*
X289399289Y-141044685D02*
G01*
X289445044Y-141097489D01*
X289456250Y-141149000D01*
X289456250Y-145901000D01*
X289436565Y-145968039D01*
X289383761Y-146013794D01*
X289332250Y-146025000D01*
X284580250Y-146025000D01*
X284513211Y-146005315D01*
X284467456Y-145952511D01*
X284456250Y-145901000D01*
X284456250Y-141149000D01*
X284475935Y-141081961D01*
X284528739Y-141036206D01*
X284580250Y-141025000D01*
X289332250Y-141025000D01*
X289399289Y-141044685D01*
G37*
G04 #@! TD.AperFunction*
G04 #@! TA.AperFunction,NonConductor*
G36*
X269399289Y-141044685D02*
G01*
X269445044Y-141097489D01*
X269456250Y-141149000D01*
X269456250Y-145901000D01*
X269436565Y-145968039D01*
X269383761Y-146013794D01*
X269332250Y-146025000D01*
X264580250Y-146025000D01*
X264513211Y-146005315D01*
X264467456Y-145952511D01*
X264456250Y-145901000D01*
X264456250Y-141149000D01*
X264475935Y-141081961D01*
X264528739Y-141036206D01*
X264580250Y-141025000D01*
X269332250Y-141025000D01*
X269399289Y-141044685D01*
G37*
G04 #@! TD.AperFunction*
G04 #@! TA.AperFunction,NonConductor*
G36*
X249399289Y-141044685D02*
G01*
X249445044Y-141097489D01*
X249456250Y-141149000D01*
X249456250Y-145901000D01*
X249436565Y-145968039D01*
X249383761Y-146013794D01*
X249332250Y-146025000D01*
X244580250Y-146025000D01*
X244513211Y-146005315D01*
X244467456Y-145952511D01*
X244456250Y-145901000D01*
X244456250Y-141149000D01*
X244475935Y-141081961D01*
X244528739Y-141036206D01*
X244580250Y-141025000D01*
X249332250Y-141025000D01*
X249399289Y-141044685D01*
G37*
G04 #@! TD.AperFunction*
G04 #@! TA.AperFunction,NonConductor*
G36*
X229399289Y-141957685D02*
G01*
X229445044Y-142010489D01*
X229456250Y-142062000D01*
X229456250Y-145901000D01*
X229436565Y-145968039D01*
X229383761Y-146013794D01*
X229332250Y-146025000D01*
X225405750Y-146025000D01*
X225338711Y-146005315D01*
X225292956Y-145952511D01*
X225281750Y-145901000D01*
X225281750Y-142062000D01*
X225301435Y-141994961D01*
X225354239Y-141949206D01*
X225405750Y-141938000D01*
X229332250Y-141938000D01*
X229399289Y-141957685D01*
G37*
G04 #@! TD.AperFunction*
G04 #@! TA.AperFunction,NonConductor*
G36*
X187561289Y-141044685D02*
G01*
X187607044Y-141097489D01*
X187618250Y-141149000D01*
X187618250Y-145901000D01*
X187598565Y-145968039D01*
X187545761Y-146013794D01*
X187494250Y-146025000D01*
X184580250Y-146025000D01*
X184513211Y-146005315D01*
X184467456Y-145952511D01*
X184456250Y-145901000D01*
X184456250Y-141149000D01*
X184475935Y-141081961D01*
X184528739Y-141036206D01*
X184580250Y-141025000D01*
X187494250Y-141025000D01*
X187561289Y-141044685D01*
G37*
G04 #@! TD.AperFunction*
G04 #@! TA.AperFunction,NonConductor*
G36*
X169399289Y-141957685D02*
G01*
X169445044Y-142010489D01*
X169456250Y-142062000D01*
X169456250Y-145901000D01*
X169436565Y-145968039D01*
X169383761Y-146013794D01*
X169332250Y-146025000D01*
X168255750Y-146025000D01*
X168188711Y-146005315D01*
X168142956Y-145952511D01*
X168131750Y-145901000D01*
X168131750Y-142062000D01*
X168151435Y-141994961D01*
X168204239Y-141949206D01*
X168255750Y-141938000D01*
X169332250Y-141938000D01*
X169399289Y-141957685D01*
G37*
G04 #@! TD.AperFunction*
G04 #@! TA.AperFunction,NonConductor*
G36*
X165573789Y-141044685D02*
G01*
X165619544Y-141097489D01*
X165630750Y-141149000D01*
X165630750Y-145901000D01*
X165611065Y-145968039D01*
X165558261Y-146013794D01*
X165506750Y-146025000D01*
X164580250Y-146025000D01*
X164513211Y-146005315D01*
X164467456Y-145952511D01*
X164456250Y-145901000D01*
X164456250Y-141149000D01*
X164475935Y-141081961D01*
X164528739Y-141036206D01*
X164580250Y-141025000D01*
X165506750Y-141025000D01*
X165573789Y-141044685D01*
G37*
G04 #@! TD.AperFunction*
G04 #@! TA.AperFunction,NonConductor*
G36*
X149399289Y-141044685D02*
G01*
X149445044Y-141097489D01*
X149456250Y-141149000D01*
X149456250Y-145901000D01*
X149436565Y-145968039D01*
X149383761Y-146013794D01*
X149332250Y-146025000D01*
X149205750Y-146025000D01*
X149138711Y-146005315D01*
X149092956Y-145952511D01*
X149081750Y-145901000D01*
X149081750Y-141149000D01*
X149101435Y-141081961D01*
X149154239Y-141036206D01*
X149205750Y-141025000D01*
X149332250Y-141025000D01*
X149399289Y-141044685D01*
G37*
G04 #@! TD.AperFunction*
G04 #@! TA.AperFunction,NonConductor*
G36*
X146523789Y-141044685D02*
G01*
X146569544Y-141097489D01*
X146580750Y-141149000D01*
X146580750Y-145901000D01*
X146561065Y-145968039D01*
X146508261Y-146013794D01*
X146456750Y-146025000D01*
X144580250Y-146025000D01*
X144513211Y-146005315D01*
X144467456Y-145952511D01*
X144456250Y-145901000D01*
X144456250Y-141149000D01*
X144475935Y-141081961D01*
X144528739Y-141036206D01*
X144580250Y-141025000D01*
X146456750Y-141025000D01*
X146523789Y-141044685D01*
G37*
G04 #@! TD.AperFunction*
G04 #@! TA.AperFunction,NonConductor*
G36*
X127473789Y-141044685D02*
G01*
X127519544Y-141097489D01*
X127530750Y-141149000D01*
X127530750Y-145901000D01*
X127511065Y-145968039D01*
X127458261Y-146013794D01*
X127406750Y-146025000D01*
X125005750Y-146025000D01*
X124938711Y-146005315D01*
X124892956Y-145952511D01*
X124881750Y-145901000D01*
X124881750Y-141149000D01*
X124901435Y-141081961D01*
X124954239Y-141036206D01*
X125005750Y-141025000D01*
X127406750Y-141025000D01*
X127473789Y-141044685D01*
G37*
G04 #@! TD.AperFunction*
G04 #@! TA.AperFunction,NonConductor*
G36*
X108423789Y-141044685D02*
G01*
X108469544Y-141097489D01*
X108480750Y-141149000D01*
X108480750Y-145901000D01*
X108461065Y-145968039D01*
X108408261Y-146013794D01*
X108356750Y-146025000D01*
X105955750Y-146025000D01*
X105888711Y-146005315D01*
X105842956Y-145952511D01*
X105831750Y-145901000D01*
X105831750Y-141149000D01*
X105851435Y-141081961D01*
X105904239Y-141036206D01*
X105955750Y-141025000D01*
X108356750Y-141025000D01*
X108423789Y-141044685D01*
G37*
G04 #@! TD.AperFunction*
G04 #@! TA.AperFunction,NonConductor*
G36*
X89373789Y-141044685D02*
G01*
X89419544Y-141097489D01*
X89430750Y-141149000D01*
X89430750Y-145901000D01*
X89411065Y-145968039D01*
X89358261Y-146013794D01*
X89306750Y-146025000D01*
X86905750Y-146025000D01*
X86838711Y-146005315D01*
X86792956Y-145952511D01*
X86781750Y-145901000D01*
X86781750Y-141149000D01*
X86801435Y-141081961D01*
X86854239Y-141036206D01*
X86905750Y-141025000D01*
X89306750Y-141025000D01*
X89373789Y-141044685D01*
G37*
G04 #@! TD.AperFunction*
G04 #@! TA.AperFunction,NonConductor*
G36*
X69399289Y-141044685D02*
G01*
X69445044Y-141097489D01*
X69456250Y-141149000D01*
X69456250Y-145901000D01*
X69436565Y-145968039D01*
X69383761Y-146013794D01*
X69332250Y-146025000D01*
X67299500Y-146025000D01*
X67232461Y-146005315D01*
X67186706Y-145952511D01*
X67175500Y-145901000D01*
X67175500Y-141149000D01*
X67195185Y-141081961D01*
X67247989Y-141036206D01*
X67299500Y-141025000D01*
X69332250Y-141025000D01*
X69399289Y-141044685D01*
G37*
G04 #@! TD.AperFunction*
G04 #@! TA.AperFunction,NonConductor*
G36*
X333623789Y-146044685D02*
G01*
X333669544Y-146097489D01*
X333680750Y-146149000D01*
X333680750Y-147388000D01*
X333661065Y-147455039D01*
X333608261Y-147500794D01*
X333556750Y-147512000D01*
X329580250Y-147512000D01*
X329513211Y-147492315D01*
X329467456Y-147439511D01*
X329456250Y-147388000D01*
X329456250Y-146149000D01*
X329475935Y-146081961D01*
X329528739Y-146036206D01*
X329580250Y-146025000D01*
X333556750Y-146025000D01*
X333623789Y-146044685D01*
G37*
G04 #@! TD.AperFunction*
G04 #@! TA.AperFunction,NonConductor*
G36*
X312823789Y-146044685D02*
G01*
X312869544Y-146097489D01*
X312880750Y-146149000D01*
X312880750Y-148450500D01*
X312861065Y-148517539D01*
X312808261Y-148563294D01*
X312756750Y-148574500D01*
X309580250Y-148574500D01*
X309513211Y-148554815D01*
X309467456Y-148502011D01*
X309456250Y-148450500D01*
X309456250Y-146149000D01*
X309475935Y-146081961D01*
X309528739Y-146036206D01*
X309580250Y-146025000D01*
X312756750Y-146025000D01*
X312823789Y-146044685D01*
G37*
G04 #@! TD.AperFunction*
G04 #@! TA.AperFunction,NonConductor*
G36*
X293773789Y-146044685D02*
G01*
X293819544Y-146097489D01*
X293830750Y-146149000D01*
X293830750Y-148450500D01*
X293811065Y-148517539D01*
X293758261Y-148563294D01*
X293706750Y-148574500D01*
X289580250Y-148574500D01*
X289513211Y-148554815D01*
X289467456Y-148502011D01*
X289456250Y-148450500D01*
X289456250Y-146149000D01*
X289475935Y-146081961D01*
X289528739Y-146036206D01*
X289580250Y-146025000D01*
X293706750Y-146025000D01*
X293773789Y-146044685D01*
G37*
G04 #@! TD.AperFunction*
G04 #@! TA.AperFunction,NonConductor*
G36*
X274399289Y-146044685D02*
G01*
X274445044Y-146097489D01*
X274456250Y-146149000D01*
X274456250Y-148450500D01*
X274436565Y-148517539D01*
X274383761Y-148563294D01*
X274332250Y-148574500D01*
X269580250Y-148574500D01*
X269513211Y-148554815D01*
X269467456Y-148502011D01*
X269456250Y-148450500D01*
X269456250Y-146149000D01*
X269475935Y-146081961D01*
X269528739Y-146036206D01*
X269580250Y-146025000D01*
X274332250Y-146025000D01*
X274399289Y-146044685D01*
G37*
G04 #@! TD.AperFunction*
G04 #@! TA.AperFunction,NonConductor*
G36*
X254399289Y-146044685D02*
G01*
X254445044Y-146097489D01*
X254456250Y-146149000D01*
X254456250Y-148450500D01*
X254436565Y-148517539D01*
X254383761Y-148563294D01*
X254332250Y-148574500D01*
X249580250Y-148574500D01*
X249513211Y-148554815D01*
X249467456Y-148502011D01*
X249456250Y-148450500D01*
X249456250Y-146149000D01*
X249475935Y-146081961D01*
X249528739Y-146036206D01*
X249580250Y-146025000D01*
X254332250Y-146025000D01*
X254399289Y-146044685D01*
G37*
G04 #@! TD.AperFunction*
G04 #@! TA.AperFunction,NonConductor*
G36*
X154399289Y-146044685D02*
G01*
X154445044Y-146097489D01*
X154456250Y-146149000D01*
X154456250Y-148450500D01*
X154436565Y-148517539D01*
X154383761Y-148563294D01*
X154332250Y-148574500D01*
X149580250Y-148574500D01*
X149513211Y-148554815D01*
X149467456Y-148502011D01*
X149456250Y-148450500D01*
X149456250Y-146149000D01*
X149475935Y-146081961D01*
X149528739Y-146036206D01*
X149580250Y-146025000D01*
X154332250Y-146025000D01*
X154399289Y-146044685D01*
G37*
G04 #@! TD.AperFunction*
G04 #@! TA.AperFunction,NonConductor*
G36*
X134399289Y-146044685D02*
G01*
X134445044Y-146097489D01*
X134456250Y-146149000D01*
X134456250Y-148450500D01*
X134436565Y-148517539D01*
X134383761Y-148563294D01*
X134332250Y-148574500D01*
X130155750Y-148574500D01*
X130088711Y-148554815D01*
X130042956Y-148502011D01*
X130031750Y-148450500D01*
X130031750Y-146149000D01*
X130051435Y-146081961D01*
X130104239Y-146036206D01*
X130155750Y-146025000D01*
X134332250Y-146025000D01*
X134399289Y-146044685D01*
G37*
G04 #@! TD.AperFunction*
G04 #@! TA.AperFunction,NonConductor*
G36*
X114399289Y-146044685D02*
G01*
X114445044Y-146097489D01*
X114456250Y-146149000D01*
X114456250Y-148450500D01*
X114436565Y-148517539D01*
X114383761Y-148563294D01*
X114332250Y-148574500D01*
X111105750Y-148574500D01*
X111038711Y-148554815D01*
X110992956Y-148502011D01*
X110981750Y-148450500D01*
X110981750Y-146149000D01*
X111001435Y-146081961D01*
X111054239Y-146036206D01*
X111105750Y-146025000D01*
X114332250Y-146025000D01*
X114399289Y-146044685D01*
G37*
G04 #@! TD.AperFunction*
G04 #@! TA.AperFunction,NonConductor*
G36*
X94399289Y-146044685D02*
G01*
X94445044Y-146097489D01*
X94456250Y-146149000D01*
X94456250Y-148450500D01*
X94436565Y-148517539D01*
X94383761Y-148563294D01*
X94332250Y-148574500D01*
X92055750Y-148574500D01*
X91988711Y-148554815D01*
X91942956Y-148502011D01*
X91931750Y-148450500D01*
X91931750Y-146149000D01*
X91951435Y-146081961D01*
X92004239Y-146036206D01*
X92055750Y-146025000D01*
X94332250Y-146025000D01*
X94399289Y-146044685D01*
G37*
G04 #@! TD.AperFunction*
G04 #@! TA.AperFunction,NonConductor*
G36*
X234399289Y-146044685D02*
G01*
X234445044Y-146097489D01*
X234456250Y-146149000D01*
X234456250Y-150901000D01*
X234436565Y-150968039D01*
X234383761Y-151013794D01*
X234332250Y-151025000D01*
X229580250Y-151025000D01*
X229513211Y-151005315D01*
X229467456Y-150952511D01*
X229456250Y-150901000D01*
X229456250Y-146149000D01*
X229475935Y-146081961D01*
X229528739Y-146036206D01*
X229580250Y-146025000D01*
X234332250Y-146025000D01*
X234399289Y-146044685D01*
G37*
G04 #@! TD.AperFunction*
G04 #@! TA.AperFunction,NonConductor*
G36*
X174399289Y-146044685D02*
G01*
X174445044Y-146097489D01*
X174456250Y-146149000D01*
X174456250Y-150901000D01*
X174436565Y-150968039D01*
X174383761Y-151013794D01*
X174332250Y-151025000D01*
X169580250Y-151025000D01*
X169513211Y-151005315D01*
X169467456Y-150952511D01*
X169456250Y-150901000D01*
X169456250Y-146149000D01*
X169475935Y-146081961D01*
X169528739Y-146036206D01*
X169580250Y-146025000D01*
X174332250Y-146025000D01*
X174399289Y-146044685D01*
G37*
G04 #@! TD.AperFunction*
G04 #@! TA.AperFunction,NonConductor*
G36*
X89661453Y-150554329D02*
G01*
X89680566Y-150575155D01*
X89727422Y-150639646D01*
X89866604Y-150778828D01*
X89896684Y-150800683D01*
X89939349Y-150856013D01*
X89945328Y-150925626D01*
X89912722Y-150987421D01*
X89851883Y-151021778D01*
X89823798Y-151025000D01*
X89580250Y-151025000D01*
X89513211Y-151005315D01*
X89467456Y-150952511D01*
X89456250Y-150901000D01*
X89456250Y-150648042D01*
X89475935Y-150581003D01*
X89528739Y-150535248D01*
X89597897Y-150525304D01*
X89661453Y-150554329D01*
G37*
G04 #@! TD.AperFunction*
G04 #@! TA.AperFunction,NonConductor*
G36*
X74399289Y-146044685D02*
G01*
X74445044Y-146097489D01*
X74456250Y-146149000D01*
X74456250Y-150901000D01*
X74436565Y-150968039D01*
X74383761Y-151013794D01*
X74332250Y-151025000D01*
X73005750Y-151025000D01*
X72938711Y-151005315D01*
X72892956Y-150952511D01*
X72881750Y-150901000D01*
X72881750Y-146149000D01*
X72901435Y-146081961D01*
X72954239Y-146036206D01*
X73005750Y-146025000D01*
X74332250Y-146025000D01*
X74399289Y-146044685D01*
G37*
G04 #@! TD.AperFunction*
G04 #@! TA.AperFunction,NonConductor*
G36*
X70323789Y-146044685D02*
G01*
X70369544Y-146097489D01*
X70380750Y-146149000D01*
X70380750Y-150901000D01*
X70361065Y-150968039D01*
X70308261Y-151013794D01*
X70256750Y-151025000D01*
X69580250Y-151025000D01*
X69513211Y-151005315D01*
X69467456Y-150952511D01*
X69456250Y-150901000D01*
X69456250Y-146149000D01*
X69475935Y-146081961D01*
X69528739Y-146036206D01*
X69580250Y-146025000D01*
X70256750Y-146025000D01*
X70323789Y-146044685D01*
G37*
G04 #@! TD.AperFunction*
G04 #@! TA.AperFunction,NonConductor*
G36*
X236623789Y-151044685D02*
G01*
X236669544Y-151097489D01*
X236680750Y-151149000D01*
X236680750Y-153213000D01*
X236661065Y-153280039D01*
X236608261Y-153325794D01*
X236556750Y-153337000D01*
X234580250Y-153337000D01*
X234513211Y-153317315D01*
X234467456Y-153264511D01*
X234456250Y-153213000D01*
X234456250Y-151149000D01*
X234475935Y-151081961D01*
X234528739Y-151036206D01*
X234580250Y-151025000D01*
X236556750Y-151025000D01*
X236623789Y-151044685D01*
G37*
G04 #@! TD.AperFunction*
G04 #@! TA.AperFunction,NonConductor*
G36*
X179399289Y-151044685D02*
G01*
X179445044Y-151097489D01*
X179456250Y-151149000D01*
X179456250Y-153213000D01*
X179436565Y-153280039D01*
X179383761Y-153325794D01*
X179332250Y-153337000D01*
X174580250Y-153337000D01*
X174513211Y-153317315D01*
X174467456Y-153264511D01*
X174456250Y-153213000D01*
X174456250Y-151149000D01*
X174475935Y-151081961D01*
X174528739Y-151036206D01*
X174580250Y-151025000D01*
X179332250Y-151025000D01*
X179399289Y-151044685D01*
G37*
G04 #@! TD.AperFunction*
G04 #@! TA.AperFunction,NonConductor*
G36*
X79399289Y-151044685D02*
G01*
X79445044Y-151097489D01*
X79456250Y-151149000D01*
X79456250Y-153213000D01*
X79436565Y-153280039D01*
X79383761Y-153325794D01*
X79332250Y-153337000D01*
X74580250Y-153337000D01*
X74513211Y-153317315D01*
X74467456Y-153264511D01*
X74456250Y-153213000D01*
X74456250Y-151149000D01*
X74475935Y-151081961D01*
X74528739Y-151036206D01*
X74580250Y-151025000D01*
X79332250Y-151025000D01*
X79399289Y-151044685D01*
G37*
G04 #@! TD.AperFunction*
G04 #@! TA.AperFunction,NonConductor*
G36*
X159399289Y-151095185D02*
G01*
X159445044Y-151147989D01*
X159456250Y-151199500D01*
X159456250Y-153600500D01*
X159436565Y-153667539D01*
X159383761Y-153713294D01*
X159332250Y-153724500D01*
X154580250Y-153724500D01*
X154513211Y-153704815D01*
X154467456Y-153652011D01*
X154456250Y-153600500D01*
X154456250Y-151199500D01*
X154475935Y-151132461D01*
X154528739Y-151086706D01*
X154580250Y-151075500D01*
X159332250Y-151075500D01*
X159399289Y-151095185D01*
G37*
G04 #@! TD.AperFunction*
G04 #@! TA.AperFunction,NonConductor*
G36*
X139399289Y-151095185D02*
G01*
X139445044Y-151147989D01*
X139456250Y-151199500D01*
X139456250Y-153600500D01*
X139436565Y-153667539D01*
X139383761Y-153713294D01*
X139332250Y-153724500D01*
X134580250Y-153724500D01*
X134513211Y-153704815D01*
X134467456Y-153652011D01*
X134456250Y-153600500D01*
X134456250Y-151199500D01*
X134475935Y-151132461D01*
X134528739Y-151086706D01*
X134580250Y-151075500D01*
X139332250Y-151075500D01*
X139399289Y-151095185D01*
G37*
G04 #@! TD.AperFunction*
G04 #@! TA.AperFunction,NonConductor*
G36*
X119399289Y-151095185D02*
G01*
X119445044Y-151147989D01*
X119456250Y-151199500D01*
X119456250Y-153600500D01*
X119436565Y-153667539D01*
X119383761Y-153713294D01*
X119332250Y-153724500D01*
X114580250Y-153724500D01*
X114513211Y-153704815D01*
X114467456Y-153652011D01*
X114456250Y-153600500D01*
X114456250Y-151199500D01*
X114475935Y-151132461D01*
X114528739Y-151086706D01*
X114580250Y-151075500D01*
X119332250Y-151075500D01*
X119399289Y-151095185D01*
G37*
G04 #@! TD.AperFunction*
G04 #@! TA.AperFunction,NonConductor*
G36*
X99399289Y-151095185D02*
G01*
X99445044Y-151147989D01*
X99456250Y-151199500D01*
X99456250Y-153600500D01*
X99436565Y-153667539D01*
X99383761Y-153713294D01*
X99332250Y-153724500D01*
X94580250Y-153724500D01*
X94513211Y-153704815D01*
X94467456Y-153652011D01*
X94456250Y-153600500D01*
X94456250Y-151199500D01*
X94475935Y-151132461D01*
X94528739Y-151086706D01*
X94580250Y-151075500D01*
X99332250Y-151075500D01*
X99399289Y-151095185D01*
G37*
G04 #@! TD.AperFunction*
G04 #@! TA.AperFunction,NonConductor*
G36*
X337580039Y-151044685D02*
G01*
X337625794Y-151097489D01*
X337637000Y-151149000D01*
X337637000Y-155901000D01*
X337617315Y-155968039D01*
X337564511Y-156013794D01*
X337513000Y-156025000D01*
X334580250Y-156025000D01*
X334513211Y-156005315D01*
X334467456Y-155952511D01*
X334456250Y-155901000D01*
X334456250Y-151149000D01*
X334475935Y-151081961D01*
X334528739Y-151036206D01*
X334580250Y-151025000D01*
X337513000Y-151025000D01*
X337580039Y-151044685D01*
G37*
G04 #@! TD.AperFunction*
G04 #@! TA.AperFunction,NonConductor*
G36*
X317973789Y-151044685D02*
G01*
X318019544Y-151097489D01*
X318030750Y-151149000D01*
X318030750Y-155901000D01*
X318011065Y-155968039D01*
X317958261Y-156013794D01*
X317906750Y-156025000D01*
X315505750Y-156025000D01*
X315438711Y-156005315D01*
X315392956Y-155952511D01*
X315381750Y-155901000D01*
X315381750Y-154876577D01*
X315350959Y-154682173D01*
X315290132Y-154494970D01*
X315200773Y-154319594D01*
X315085078Y-154160354D01*
X314945896Y-154021172D01*
X314786655Y-153905476D01*
X314611279Y-153816117D01*
X314580538Y-153806129D01*
X314541929Y-153793584D01*
X314484256Y-153754147D01*
X314457058Y-153689788D01*
X314456250Y-153675654D01*
X314456250Y-151149000D01*
X314475935Y-151081961D01*
X314528739Y-151036206D01*
X314580250Y-151025000D01*
X317906750Y-151025000D01*
X317973789Y-151044685D01*
G37*
G04 #@! TD.AperFunction*
G04 #@! TA.AperFunction,NonConductor*
G36*
X299399289Y-151044685D02*
G01*
X299445044Y-151097489D01*
X299456250Y-151149000D01*
X299456250Y-153930164D01*
X299436565Y-153997203D01*
X299419931Y-154017845D01*
X299277424Y-154160351D01*
X299277424Y-154160352D01*
X299277422Y-154160354D01*
X299227735Y-154228741D01*
X299161726Y-154319594D01*
X299072367Y-154494970D01*
X299011540Y-154682173D01*
X298980750Y-154876577D01*
X298980750Y-155901000D01*
X298961065Y-155968039D01*
X298908261Y-156013794D01*
X298856750Y-156025000D01*
X296455750Y-156025000D01*
X296388711Y-156005315D01*
X296342956Y-155952511D01*
X296331750Y-155901000D01*
X296331750Y-154876577D01*
X296300959Y-154682173D01*
X296240132Y-154494970D01*
X296150773Y-154319594D01*
X296035078Y-154160354D01*
X295895896Y-154021172D01*
X295736655Y-153905476D01*
X295561279Y-153816117D01*
X295374076Y-153755290D01*
X295179672Y-153724500D01*
X295179667Y-153724500D01*
X294580250Y-153724500D01*
X294513211Y-153704815D01*
X294467456Y-153652011D01*
X294456250Y-153600500D01*
X294456250Y-151199500D01*
X294475935Y-151132461D01*
X294528739Y-151086706D01*
X294580250Y-151075500D01*
X295179672Y-151075500D01*
X295374076Y-151044709D01*
X295374150Y-151044685D01*
X295416056Y-151031068D01*
X295454374Y-151025000D01*
X299332250Y-151025000D01*
X299399289Y-151044685D01*
G37*
G04 #@! TD.AperFunction*
G04 #@! TA.AperFunction,NonConductor*
G36*
X279399289Y-151044685D02*
G01*
X279445044Y-151097489D01*
X279456250Y-151149000D01*
X279456250Y-155901000D01*
X279436565Y-155968039D01*
X279383761Y-156013794D01*
X279332250Y-156025000D01*
X277405750Y-156025000D01*
X277338711Y-156005315D01*
X277292956Y-155952511D01*
X277281750Y-155901000D01*
X277281750Y-154876577D01*
X277250959Y-154682173D01*
X277190132Y-154494970D01*
X277100773Y-154319594D01*
X276985078Y-154160354D01*
X276845896Y-154021172D01*
X276686655Y-153905476D01*
X276511279Y-153816117D01*
X276324076Y-153755290D01*
X276129672Y-153724500D01*
X276129667Y-153724500D01*
X274580250Y-153724500D01*
X274513211Y-153704815D01*
X274467456Y-153652011D01*
X274456250Y-153600500D01*
X274456250Y-151199500D01*
X274475935Y-151132461D01*
X274528739Y-151086706D01*
X274580250Y-151075500D01*
X276129672Y-151075500D01*
X276324076Y-151044709D01*
X276324150Y-151044685D01*
X276366056Y-151031068D01*
X276404374Y-151025000D01*
X279332250Y-151025000D01*
X279399289Y-151044685D01*
G37*
G04 #@! TD.AperFunction*
G04 #@! TA.AperFunction,NonConductor*
G36*
X259399289Y-151044685D02*
G01*
X259445044Y-151097489D01*
X259456250Y-151149000D01*
X259456250Y-155901000D01*
X259436565Y-155968039D01*
X259383761Y-156013794D01*
X259332250Y-156025000D01*
X258355750Y-156025000D01*
X258288711Y-156005315D01*
X258242956Y-155952511D01*
X258231750Y-155901000D01*
X258231750Y-154876577D01*
X258200959Y-154682173D01*
X258140132Y-154494970D01*
X258050773Y-154319594D01*
X257935078Y-154160354D01*
X257795896Y-154021172D01*
X257636655Y-153905476D01*
X257461279Y-153816117D01*
X257274076Y-153755290D01*
X257079672Y-153724500D01*
X257079667Y-153724500D01*
X254580250Y-153724500D01*
X254513211Y-153704815D01*
X254467456Y-153652011D01*
X254456250Y-153600500D01*
X254456250Y-151199500D01*
X254475935Y-151132461D01*
X254528739Y-151086706D01*
X254580250Y-151075500D01*
X257079672Y-151075500D01*
X257274076Y-151044709D01*
X257274150Y-151044685D01*
X257316056Y-151031068D01*
X257354374Y-151025000D01*
X259332250Y-151025000D01*
X259399289Y-151044685D01*
G37*
G04 #@! TD.AperFunction*
G04 #@! TA.AperFunction,NonConductor*
G36*
X239399289Y-151044685D02*
G01*
X239445044Y-151097489D01*
X239456250Y-151149000D01*
X239456250Y-155901000D01*
X239436565Y-155968039D01*
X239383761Y-156013794D01*
X239332250Y-156025000D01*
X238336690Y-156025000D01*
X238269651Y-156005315D01*
X238223896Y-155952511D01*
X238213952Y-155883353D01*
X238242977Y-155819797D01*
X238298371Y-155783069D01*
X238306011Y-155780586D01*
X238411275Y-155746384D01*
X238586655Y-155657024D01*
X238745896Y-155541328D01*
X238885078Y-155402146D01*
X239000774Y-155242905D01*
X239090134Y-155067525D01*
X239150959Y-154880326D01*
X239151553Y-154876577D01*
X239181750Y-154685922D01*
X239181750Y-151149000D01*
X239201435Y-151081961D01*
X239254239Y-151036206D01*
X239305750Y-151025000D01*
X239332250Y-151025000D01*
X239399289Y-151044685D01*
G37*
G04 #@! TD.AperFunction*
G04 #@! TA.AperFunction,NonConductor*
G36*
X219399289Y-151044685D02*
G01*
X219445044Y-151097489D01*
X219456250Y-151149000D01*
X219456250Y-155901000D01*
X219436565Y-155968039D01*
X219383761Y-156013794D01*
X219332250Y-156025000D01*
X217318250Y-156025000D01*
X217251211Y-156005315D01*
X217205456Y-155952511D01*
X217194250Y-155901000D01*
X217194250Y-151149000D01*
X217213935Y-151081961D01*
X217266739Y-151036206D01*
X217318250Y-151025000D01*
X219332250Y-151025000D01*
X219399289Y-151044685D01*
G37*
G04 #@! TD.AperFunction*
G04 #@! TA.AperFunction,NonConductor*
G36*
X84399289Y-156044685D02*
G01*
X84445044Y-156097489D01*
X84456250Y-156149000D01*
X84456250Y-158363000D01*
X84436565Y-158430039D01*
X84383761Y-158475794D01*
X84332250Y-158487000D01*
X79580250Y-158487000D01*
X79513211Y-158467315D01*
X79467456Y-158414511D01*
X79456250Y-158363000D01*
X79456250Y-156149000D01*
X79475935Y-156081961D01*
X79528739Y-156036206D01*
X79580250Y-156025000D01*
X84332250Y-156025000D01*
X84399289Y-156044685D01*
G37*
G04 #@! TD.AperFunction*
G04 #@! TA.AperFunction,NonConductor*
G36*
X324399289Y-156044685D02*
G01*
X324445044Y-156097489D01*
X324456250Y-156149000D01*
X324456250Y-160901000D01*
X324436565Y-160968039D01*
X324383761Y-161013794D01*
X324332250Y-161025000D01*
X320655750Y-161025000D01*
X320588711Y-161005315D01*
X320542956Y-160952511D01*
X320531750Y-160901000D01*
X320531750Y-156149000D01*
X320551435Y-156081961D01*
X320604239Y-156036206D01*
X320655750Y-156025000D01*
X324332250Y-156025000D01*
X324399289Y-156044685D01*
G37*
G04 #@! TD.AperFunction*
G04 #@! TA.AperFunction,NonConductor*
G36*
X304399289Y-156245185D02*
G01*
X304445044Y-156297989D01*
X304456250Y-156349500D01*
X304456250Y-160901000D01*
X304436565Y-160968039D01*
X304383761Y-161013794D01*
X304332250Y-161025000D01*
X301605750Y-161025000D01*
X301538711Y-161005315D01*
X301492956Y-160952511D01*
X301481750Y-160901000D01*
X301481750Y-156349500D01*
X301501435Y-156282461D01*
X301554239Y-156236706D01*
X301605750Y-156225500D01*
X304332250Y-156225500D01*
X304399289Y-156245185D01*
G37*
G04 #@! TD.AperFunction*
G04 #@! TA.AperFunction,NonConductor*
G36*
X284399289Y-156245185D02*
G01*
X284445044Y-156297989D01*
X284456250Y-156349500D01*
X284456250Y-160901000D01*
X284436565Y-160968039D01*
X284383761Y-161013794D01*
X284332250Y-161025000D01*
X282555750Y-161025000D01*
X282488711Y-161005315D01*
X282442956Y-160952511D01*
X282431750Y-160901000D01*
X282431750Y-156349500D01*
X282451435Y-156282461D01*
X282504239Y-156236706D01*
X282555750Y-156225500D01*
X284332250Y-156225500D01*
X284399289Y-156245185D01*
G37*
G04 #@! TD.AperFunction*
G04 #@! TA.AperFunction,NonConductor*
G36*
X279873789Y-156044685D02*
G01*
X279919544Y-156097489D01*
X279930750Y-156149000D01*
X279930750Y-160901000D01*
X279911065Y-160968039D01*
X279858261Y-161013794D01*
X279806750Y-161025000D01*
X279580250Y-161025000D01*
X279513211Y-161005315D01*
X279467456Y-160952511D01*
X279456250Y-160901000D01*
X279456250Y-156149000D01*
X279475935Y-156081961D01*
X279528739Y-156036206D01*
X279580250Y-156025000D01*
X279806750Y-156025000D01*
X279873789Y-156044685D01*
G37*
G04 #@! TD.AperFunction*
G04 #@! TA.AperFunction,NonConductor*
G36*
X264399289Y-156245185D02*
G01*
X264445044Y-156297989D01*
X264456250Y-156349500D01*
X264456250Y-160901000D01*
X264436565Y-160968039D01*
X264383761Y-161013794D01*
X264332250Y-161025000D01*
X263505750Y-161025000D01*
X263438711Y-161005315D01*
X263392956Y-160952511D01*
X263381750Y-160901000D01*
X263381750Y-156349500D01*
X263401435Y-156282461D01*
X263454239Y-156236706D01*
X263505750Y-156225500D01*
X264332250Y-156225500D01*
X264399289Y-156245185D01*
G37*
G04 #@! TD.AperFunction*
G04 #@! TA.AperFunction,NonConductor*
G36*
X260823789Y-156044685D02*
G01*
X260869544Y-156097489D01*
X260880750Y-156149000D01*
X260880750Y-160901000D01*
X260861065Y-160968039D01*
X260808261Y-161013794D01*
X260756750Y-161025000D01*
X259580250Y-161025000D01*
X259513211Y-161005315D01*
X259467456Y-160952511D01*
X259456250Y-160901000D01*
X259456250Y-156149000D01*
X259475935Y-156081961D01*
X259528739Y-156036206D01*
X259580250Y-156025000D01*
X260756750Y-156025000D01*
X260823789Y-156044685D01*
G37*
G04 #@! TD.AperFunction*
G04 #@! TA.AperFunction,NonConductor*
G36*
X241773789Y-156044685D02*
G01*
X241819544Y-156097489D01*
X241830750Y-156149000D01*
X241830750Y-160901000D01*
X241811065Y-160968039D01*
X241758261Y-161013794D01*
X241706750Y-161025000D01*
X239580250Y-161025000D01*
X239513211Y-161005315D01*
X239467456Y-160952511D01*
X239456250Y-160901000D01*
X239456250Y-156149000D01*
X239475935Y-156081961D01*
X239528739Y-156036206D01*
X239580250Y-156025000D01*
X241706750Y-156025000D01*
X241773789Y-156044685D01*
G37*
G04 #@! TD.AperFunction*
G04 #@! TA.AperFunction,NonConductor*
G36*
X224399289Y-156044685D02*
G01*
X224445044Y-156097489D01*
X224456250Y-156149000D01*
X224456250Y-158363000D01*
X224436565Y-158430039D01*
X224383761Y-158475794D01*
X224332250Y-158487000D01*
X223932828Y-158487000D01*
X223738423Y-158517790D01*
X223551220Y-158578617D01*
X223375844Y-158667976D01*
X223284991Y-158733985D01*
X223216604Y-158783672D01*
X223216602Y-158783674D01*
X223216601Y-158783674D01*
X223077424Y-158922851D01*
X223077424Y-158922852D01*
X223077422Y-158922854D01*
X223027735Y-158991241D01*
X222961726Y-159082094D01*
X222872367Y-159257470D01*
X222811540Y-159444673D01*
X222780750Y-159639077D01*
X222780750Y-160901000D01*
X222761065Y-160968039D01*
X222708261Y-161013794D01*
X222656750Y-161025000D01*
X219580250Y-161025000D01*
X219513211Y-161005315D01*
X219467456Y-160952511D01*
X219456250Y-160901000D01*
X219456250Y-156149000D01*
X219475935Y-156081961D01*
X219528739Y-156036206D01*
X219580250Y-156025000D01*
X224332250Y-156025000D01*
X224399289Y-156044685D01*
G37*
G04 #@! TD.AperFunction*
G04 #@! TA.AperFunction,NonConductor*
G36*
X184399289Y-156044685D02*
G01*
X184445044Y-156097489D01*
X184456250Y-156149000D01*
X184456250Y-160901000D01*
X184436565Y-160968039D01*
X184383761Y-161013794D01*
X184332250Y-161025000D01*
X182155750Y-161025000D01*
X182088711Y-161005315D01*
X182042956Y-160952511D01*
X182031750Y-160901000D01*
X182031750Y-159639077D01*
X182000959Y-159444673D01*
X181940132Y-159257470D01*
X181850773Y-159082094D01*
X181735078Y-158922854D01*
X181595896Y-158783672D01*
X181436655Y-158667976D01*
X181261279Y-158578617D01*
X181074076Y-158517790D01*
X180879672Y-158487000D01*
X180879667Y-158487000D01*
X179580250Y-158487000D01*
X179513211Y-158467315D01*
X179467456Y-158414511D01*
X179456250Y-158363000D01*
X179456250Y-156149000D01*
X179475935Y-156081961D01*
X179528739Y-156036206D01*
X179580250Y-156025000D01*
X184332250Y-156025000D01*
X184399289Y-156044685D01*
G37*
G04 #@! TD.AperFunction*
G04 #@! TA.AperFunction,NonConductor*
G36*
X164399289Y-156044685D02*
G01*
X164445044Y-156097489D01*
X164456250Y-156149000D01*
X164456250Y-160901000D01*
X164436565Y-160968039D01*
X164383761Y-161013794D01*
X164332250Y-161025000D01*
X163105750Y-161025000D01*
X163038711Y-161005315D01*
X162992956Y-160952511D01*
X162981750Y-160901000D01*
X162981750Y-156149000D01*
X163001435Y-156081961D01*
X163054239Y-156036206D01*
X163105750Y-156025000D01*
X164332250Y-156025000D01*
X164399289Y-156044685D01*
G37*
G04 #@! TD.AperFunction*
G04 #@! TA.AperFunction,NonConductor*
G36*
X160423789Y-156245185D02*
G01*
X160469544Y-156297989D01*
X160480750Y-156349500D01*
X160480750Y-160901000D01*
X160461065Y-160968039D01*
X160408261Y-161013794D01*
X160356750Y-161025000D01*
X159580250Y-161025000D01*
X159513211Y-161005315D01*
X159467456Y-160952511D01*
X159456250Y-160901000D01*
X159456250Y-156349500D01*
X159475935Y-156282461D01*
X159528739Y-156236706D01*
X159580250Y-156225500D01*
X160356750Y-156225500D01*
X160423789Y-156245185D01*
G37*
G04 #@! TD.AperFunction*
G04 #@! TA.AperFunction,NonConductor*
G36*
X144399289Y-156044685D02*
G01*
X144445044Y-156097489D01*
X144456250Y-156149000D01*
X144456250Y-160901000D01*
X144436565Y-160968039D01*
X144383761Y-161013794D01*
X144332250Y-161025000D01*
X144055750Y-161025000D01*
X143988711Y-161005315D01*
X143942956Y-160952511D01*
X143931750Y-160901000D01*
X143931750Y-156149000D01*
X143951435Y-156081961D01*
X144004239Y-156036206D01*
X144055750Y-156025000D01*
X144332250Y-156025000D01*
X144399289Y-156044685D01*
G37*
G04 #@! TD.AperFunction*
G04 #@! TA.AperFunction,NonConductor*
G36*
X141373789Y-156245185D02*
G01*
X141419544Y-156297989D01*
X141430750Y-156349500D01*
X141430750Y-160901000D01*
X141411065Y-160968039D01*
X141358261Y-161013794D01*
X141306750Y-161025000D01*
X139580250Y-161025000D01*
X139513211Y-161005315D01*
X139467456Y-160952511D01*
X139456250Y-160901000D01*
X139456250Y-156349500D01*
X139475935Y-156282461D01*
X139528739Y-156236706D01*
X139580250Y-156225500D01*
X141306750Y-156225500D01*
X141373789Y-156245185D01*
G37*
G04 #@! TD.AperFunction*
G04 #@! TA.AperFunction,NonConductor*
G36*
X122323789Y-156245185D02*
G01*
X122369544Y-156297989D01*
X122380750Y-156349500D01*
X122380750Y-160901000D01*
X122361065Y-160968039D01*
X122308261Y-161013794D01*
X122256750Y-161025000D01*
X119580250Y-161025000D01*
X119513211Y-161005315D01*
X119467456Y-160952511D01*
X119456250Y-160901000D01*
X119456250Y-156349500D01*
X119475935Y-156282461D01*
X119528739Y-156236706D01*
X119580250Y-156225500D01*
X122256750Y-156225500D01*
X122323789Y-156245185D01*
G37*
G04 #@! TD.AperFunction*
G04 #@! TA.AperFunction,NonConductor*
G36*
X103273789Y-156245185D02*
G01*
X103319544Y-156297989D01*
X103330750Y-156349500D01*
X103330750Y-160901000D01*
X103311065Y-160968039D01*
X103258261Y-161013794D01*
X103206750Y-161025000D01*
X99580250Y-161025000D01*
X99513211Y-161005315D01*
X99467456Y-160952511D01*
X99456250Y-160901000D01*
X99456250Y-156349500D01*
X99475935Y-156282461D01*
X99528739Y-156236706D01*
X99580250Y-156225500D01*
X103206750Y-156225500D01*
X103273789Y-156245185D01*
G37*
G04 #@! TD.AperFunction*
G04 #@! TA.AperFunction,NonConductor*
G36*
X329399289Y-161044685D02*
G01*
X329445044Y-161097489D01*
X329456250Y-161149000D01*
X329456250Y-162738000D01*
X329436565Y-162805039D01*
X329383761Y-162850794D01*
X329332250Y-162862000D01*
X324580250Y-162862000D01*
X324513211Y-162842315D01*
X324467456Y-162789511D01*
X324456250Y-162738000D01*
X324456250Y-161149000D01*
X324475935Y-161081961D01*
X324528739Y-161036206D01*
X324580250Y-161025000D01*
X329332250Y-161025000D01*
X329399289Y-161044685D01*
G37*
G04 #@! TD.AperFunction*
G04 #@! TA.AperFunction,NonConductor*
G36*
X309399289Y-161044685D02*
G01*
X309445044Y-161097489D01*
X309456250Y-161149000D01*
X309456250Y-165901000D01*
X309436565Y-165968039D01*
X309383761Y-166013794D01*
X309332250Y-166025000D01*
X304580250Y-166025000D01*
X304513211Y-166005315D01*
X304467456Y-165952511D01*
X304456250Y-165901000D01*
X304456250Y-161149000D01*
X304475935Y-161081961D01*
X304528739Y-161036206D01*
X304580250Y-161025000D01*
X309332250Y-161025000D01*
X309399289Y-161044685D01*
G37*
G04 #@! TD.AperFunction*
G04 #@! TA.AperFunction,NonConductor*
G36*
X289399289Y-161044685D02*
G01*
X289445044Y-161097489D01*
X289456250Y-161149000D01*
X289456250Y-165901000D01*
X289436565Y-165968039D01*
X289383761Y-166013794D01*
X289332250Y-166025000D01*
X284580250Y-166025000D01*
X284513211Y-166005315D01*
X284467456Y-165952511D01*
X284456250Y-165901000D01*
X284456250Y-161149000D01*
X284475935Y-161081961D01*
X284528739Y-161036206D01*
X284580250Y-161025000D01*
X289332250Y-161025000D01*
X289399289Y-161044685D01*
G37*
G04 #@! TD.AperFunction*
G04 #@! TA.AperFunction,NonConductor*
G36*
X269399289Y-161044685D02*
G01*
X269445044Y-161097489D01*
X269456250Y-161149000D01*
X269456250Y-165901000D01*
X269436565Y-165968039D01*
X269383761Y-166013794D01*
X269332250Y-166025000D01*
X264580250Y-166025000D01*
X264513211Y-166005315D01*
X264467456Y-165952511D01*
X264456250Y-165901000D01*
X264456250Y-161149000D01*
X264475935Y-161081961D01*
X264528739Y-161036206D01*
X264580250Y-161025000D01*
X269332250Y-161025000D01*
X269399289Y-161044685D01*
G37*
G04 #@! TD.AperFunction*
G04 #@! TA.AperFunction,NonConductor*
G36*
X249399289Y-161044685D02*
G01*
X249445044Y-161097489D01*
X249456250Y-161149000D01*
X249456250Y-165901000D01*
X249436565Y-165968039D01*
X249383761Y-166013794D01*
X249332250Y-166025000D01*
X244580250Y-166025000D01*
X244513211Y-166005315D01*
X244467456Y-165952511D01*
X244456250Y-165901000D01*
X244456250Y-161149000D01*
X244475935Y-161081961D01*
X244528739Y-161036206D01*
X244580250Y-161025000D01*
X249332250Y-161025000D01*
X249399289Y-161044685D01*
G37*
G04 #@! TD.AperFunction*
G04 #@! TA.AperFunction,NonConductor*
G36*
X229399289Y-161044685D02*
G01*
X229445044Y-161097489D01*
X229456250Y-161149000D01*
X229456250Y-165901000D01*
X229436565Y-165968039D01*
X229383761Y-166013794D01*
X229332250Y-166025000D01*
X225405750Y-166025000D01*
X225338711Y-166005315D01*
X225292956Y-165952511D01*
X225281750Y-165901000D01*
X225281750Y-161149000D01*
X225301435Y-161081961D01*
X225354239Y-161036206D01*
X225405750Y-161025000D01*
X229332250Y-161025000D01*
X229399289Y-161044685D01*
G37*
G04 #@! TD.AperFunction*
G04 #@! TA.AperFunction,NonConductor*
G36*
X187561289Y-161044685D02*
G01*
X187607044Y-161097489D01*
X187618250Y-161149000D01*
X187618250Y-165901000D01*
X187598565Y-165968039D01*
X187545761Y-166013794D01*
X187494250Y-166025000D01*
X184580250Y-166025000D01*
X184513211Y-166005315D01*
X184467456Y-165952511D01*
X184456250Y-165901000D01*
X184456250Y-161149000D01*
X184475935Y-161081961D01*
X184528739Y-161036206D01*
X184580250Y-161025000D01*
X187494250Y-161025000D01*
X187561289Y-161044685D01*
G37*
G04 #@! TD.AperFunction*
G04 #@! TA.AperFunction,NonConductor*
G36*
X169399289Y-161044685D02*
G01*
X169445044Y-161097489D01*
X169456250Y-161149000D01*
X169456250Y-165901000D01*
X169436565Y-165968039D01*
X169383761Y-166013794D01*
X169332250Y-166025000D01*
X168255750Y-166025000D01*
X168188711Y-166005315D01*
X168142956Y-165952511D01*
X168131750Y-165901000D01*
X168131750Y-161149000D01*
X168151435Y-161081961D01*
X168204239Y-161036206D01*
X168255750Y-161025000D01*
X169332250Y-161025000D01*
X169399289Y-161044685D01*
G37*
G04 #@! TD.AperFunction*
G04 #@! TA.AperFunction,NonConductor*
G36*
X165573789Y-161044685D02*
G01*
X165619544Y-161097489D01*
X165630750Y-161149000D01*
X165630750Y-165901000D01*
X165611065Y-165968039D01*
X165558261Y-166013794D01*
X165506750Y-166025000D01*
X164580250Y-166025000D01*
X164513211Y-166005315D01*
X164467456Y-165952511D01*
X164456250Y-165901000D01*
X164456250Y-161149000D01*
X164475935Y-161081961D01*
X164528739Y-161036206D01*
X164580250Y-161025000D01*
X165506750Y-161025000D01*
X165573789Y-161044685D01*
G37*
G04 #@! TD.AperFunction*
G04 #@! TA.AperFunction,NonConductor*
G36*
X149399289Y-161044685D02*
G01*
X149445044Y-161097489D01*
X149456250Y-161149000D01*
X149456250Y-165901000D01*
X149436565Y-165968039D01*
X149383761Y-166013794D01*
X149332250Y-166025000D01*
X149205750Y-166025000D01*
X149138711Y-166005315D01*
X149092956Y-165952511D01*
X149081750Y-165901000D01*
X149081750Y-161149000D01*
X149101435Y-161081961D01*
X149154239Y-161036206D01*
X149205750Y-161025000D01*
X149332250Y-161025000D01*
X149399289Y-161044685D01*
G37*
G04 #@! TD.AperFunction*
G04 #@! TA.AperFunction,NonConductor*
G36*
X146523789Y-161044685D02*
G01*
X146569544Y-161097489D01*
X146580750Y-161149000D01*
X146580750Y-165901000D01*
X146561065Y-165968039D01*
X146508261Y-166013794D01*
X146456750Y-166025000D01*
X144580250Y-166025000D01*
X144513211Y-166005315D01*
X144467456Y-165952511D01*
X144456250Y-165901000D01*
X144456250Y-161149000D01*
X144475935Y-161081961D01*
X144528739Y-161036206D01*
X144580250Y-161025000D01*
X146456750Y-161025000D01*
X146523789Y-161044685D01*
G37*
G04 #@! TD.AperFunction*
G04 #@! TA.AperFunction,NonConductor*
G36*
X127473789Y-161044685D02*
G01*
X127519544Y-161097489D01*
X127530750Y-161149000D01*
X127530750Y-165901000D01*
X127511065Y-165968039D01*
X127458261Y-166013794D01*
X127406750Y-166025000D01*
X125005750Y-166025000D01*
X124938711Y-166005315D01*
X124892956Y-165952511D01*
X124881750Y-165901000D01*
X124881750Y-161149000D01*
X124901435Y-161081961D01*
X124954239Y-161036206D01*
X125005750Y-161025000D01*
X127406750Y-161025000D01*
X127473789Y-161044685D01*
G37*
G04 #@! TD.AperFunction*
G04 #@! TA.AperFunction,NonConductor*
G36*
X108423789Y-161044685D02*
G01*
X108469544Y-161097489D01*
X108480750Y-161149000D01*
X108480750Y-165901000D01*
X108461065Y-165968039D01*
X108408261Y-166013794D01*
X108356750Y-166025000D01*
X105955750Y-166025000D01*
X105888711Y-166005315D01*
X105842956Y-165952511D01*
X105831750Y-165901000D01*
X105831750Y-161149000D01*
X105851435Y-161081961D01*
X105904239Y-161036206D01*
X105955750Y-161025000D01*
X108356750Y-161025000D01*
X108423789Y-161044685D01*
G37*
G04 #@! TD.AperFunction*
G04 #@! TA.AperFunction,NonConductor*
G36*
X89373789Y-161044685D02*
G01*
X89419544Y-161097489D01*
X89430750Y-161149000D01*
X89430750Y-165901000D01*
X89411065Y-165968039D01*
X89358261Y-166013794D01*
X89306750Y-166025000D01*
X86905750Y-166025000D01*
X86838711Y-166005315D01*
X86792956Y-165952511D01*
X86781750Y-165901000D01*
X86781750Y-161149000D01*
X86801435Y-161081961D01*
X86854239Y-161036206D01*
X86905750Y-161025000D01*
X89306750Y-161025000D01*
X89373789Y-161044685D01*
G37*
G04 #@! TD.AperFunction*
G04 #@! TA.AperFunction,NonConductor*
G36*
X69399289Y-161044685D02*
G01*
X69445044Y-161097489D01*
X69456250Y-161149000D01*
X69456250Y-165901000D01*
X69436565Y-165968039D01*
X69383761Y-166013794D01*
X69332250Y-166025000D01*
X67299500Y-166025000D01*
X67232461Y-166005315D01*
X67186706Y-165952511D01*
X67175500Y-165901000D01*
X67175500Y-161149000D01*
X67195185Y-161081961D01*
X67247989Y-161036206D01*
X67299500Y-161025000D01*
X69332250Y-161025000D01*
X69399289Y-161044685D01*
G37*
G04 #@! TD.AperFunction*
G04 #@! TA.AperFunction,NonConductor*
G36*
X312823789Y-166044685D02*
G01*
X312869544Y-166097489D01*
X312880750Y-166149000D01*
X312880750Y-167500500D01*
X312861065Y-167567539D01*
X312808261Y-167613294D01*
X312756750Y-167624500D01*
X309580250Y-167624500D01*
X309513211Y-167604815D01*
X309467456Y-167552011D01*
X309456250Y-167500500D01*
X309456250Y-166149000D01*
X309475935Y-166081961D01*
X309528739Y-166036206D01*
X309580250Y-166025000D01*
X312756750Y-166025000D01*
X312823789Y-166044685D01*
G37*
G04 #@! TD.AperFunction*
G04 #@! TA.AperFunction,NonConductor*
G36*
X293773789Y-166044685D02*
G01*
X293819544Y-166097489D01*
X293830750Y-166149000D01*
X293830750Y-167500500D01*
X293811065Y-167567539D01*
X293758261Y-167613294D01*
X293706750Y-167624500D01*
X289580250Y-167624500D01*
X289513211Y-167604815D01*
X289467456Y-167552011D01*
X289456250Y-167500500D01*
X289456250Y-166149000D01*
X289475935Y-166081961D01*
X289528739Y-166036206D01*
X289580250Y-166025000D01*
X293706750Y-166025000D01*
X293773789Y-166044685D01*
G37*
G04 #@! TD.AperFunction*
G04 #@! TA.AperFunction,NonConductor*
G36*
X274399289Y-166044685D02*
G01*
X274445044Y-166097489D01*
X274456250Y-166149000D01*
X274456250Y-167500500D01*
X274436565Y-167567539D01*
X274383761Y-167613294D01*
X274332250Y-167624500D01*
X269580250Y-167624500D01*
X269513211Y-167604815D01*
X269467456Y-167552011D01*
X269456250Y-167500500D01*
X269456250Y-166149000D01*
X269475935Y-166081961D01*
X269528739Y-166036206D01*
X269580250Y-166025000D01*
X274332250Y-166025000D01*
X274399289Y-166044685D01*
G37*
G04 #@! TD.AperFunction*
G04 #@! TA.AperFunction,NonConductor*
G36*
X254399289Y-166044685D02*
G01*
X254445044Y-166097489D01*
X254456250Y-166149000D01*
X254456250Y-167500500D01*
X254436565Y-167567539D01*
X254383761Y-167613294D01*
X254332250Y-167624500D01*
X249580250Y-167624500D01*
X249513211Y-167604815D01*
X249467456Y-167552011D01*
X249456250Y-167500500D01*
X249456250Y-166149000D01*
X249475935Y-166081961D01*
X249528739Y-166036206D01*
X249580250Y-166025000D01*
X254332250Y-166025000D01*
X254399289Y-166044685D01*
G37*
G04 #@! TD.AperFunction*
G04 #@! TA.AperFunction,NonConductor*
G36*
X154399289Y-166044685D02*
G01*
X154445044Y-166097489D01*
X154456250Y-166149000D01*
X154456250Y-167500500D01*
X154436565Y-167567539D01*
X154383761Y-167613294D01*
X154332250Y-167624500D01*
X149580250Y-167624500D01*
X149513211Y-167604815D01*
X149467456Y-167552011D01*
X149456250Y-167500500D01*
X149456250Y-166149000D01*
X149475935Y-166081961D01*
X149528739Y-166036206D01*
X149580250Y-166025000D01*
X154332250Y-166025000D01*
X154399289Y-166044685D01*
G37*
G04 #@! TD.AperFunction*
G04 #@! TA.AperFunction,NonConductor*
G36*
X134399289Y-166044685D02*
G01*
X134445044Y-166097489D01*
X134456250Y-166149000D01*
X134456250Y-167500500D01*
X134436565Y-167567539D01*
X134383761Y-167613294D01*
X134332250Y-167624500D01*
X130155750Y-167624500D01*
X130088711Y-167604815D01*
X130042956Y-167552011D01*
X130031750Y-167500500D01*
X130031750Y-166149000D01*
X130051435Y-166081961D01*
X130104239Y-166036206D01*
X130155750Y-166025000D01*
X134332250Y-166025000D01*
X134399289Y-166044685D01*
G37*
G04 #@! TD.AperFunction*
G04 #@! TA.AperFunction,NonConductor*
G36*
X114399289Y-166044685D02*
G01*
X114445044Y-166097489D01*
X114456250Y-166149000D01*
X114456250Y-167500500D01*
X114436565Y-167567539D01*
X114383761Y-167613294D01*
X114332250Y-167624500D01*
X111105750Y-167624500D01*
X111038711Y-167604815D01*
X110992956Y-167552011D01*
X110981750Y-167500500D01*
X110981750Y-166149000D01*
X111001435Y-166081961D01*
X111054239Y-166036206D01*
X111105750Y-166025000D01*
X114332250Y-166025000D01*
X114399289Y-166044685D01*
G37*
G04 #@! TD.AperFunction*
G04 #@! TA.AperFunction,NonConductor*
G36*
X94399289Y-166044685D02*
G01*
X94445044Y-166097489D01*
X94456250Y-166149000D01*
X94456250Y-167500500D01*
X94436565Y-167567539D01*
X94383761Y-167613294D01*
X94332250Y-167624500D01*
X92055750Y-167624500D01*
X91988711Y-167604815D01*
X91942956Y-167552011D01*
X91931750Y-167500500D01*
X91931750Y-166149000D01*
X91951435Y-166081961D01*
X92004239Y-166036206D01*
X92055750Y-166025000D01*
X94332250Y-166025000D01*
X94399289Y-166044685D01*
G37*
G04 #@! TD.AperFunction*
G04 #@! TA.AperFunction,NonConductor*
G36*
X333623789Y-166832685D02*
G01*
X333669544Y-166885489D01*
X333680750Y-166937000D01*
X333680750Y-170901000D01*
X333661065Y-170968039D01*
X333608261Y-171013794D01*
X333556750Y-171025000D01*
X329580250Y-171025000D01*
X329513211Y-171005315D01*
X329467456Y-170952511D01*
X329456250Y-170901000D01*
X329456250Y-166937000D01*
X329475935Y-166869961D01*
X329528739Y-166824206D01*
X329580250Y-166813000D01*
X333556750Y-166813000D01*
X333623789Y-166832685D01*
G37*
G04 #@! TD.AperFunction*
G04 #@! TA.AperFunction,NonConductor*
G36*
X314382145Y-170121279D02*
G01*
X314435597Y-170166275D01*
X314456237Y-170233026D01*
X314456250Y-170234798D01*
X314456250Y-170901000D01*
X314436565Y-170968039D01*
X314383761Y-171013794D01*
X314332250Y-171025000D01*
X309580250Y-171025000D01*
X309513211Y-171005315D01*
X309467456Y-170952511D01*
X309456250Y-170901000D01*
X309456250Y-170249500D01*
X309475935Y-170182461D01*
X309528739Y-170136706D01*
X309580250Y-170125500D01*
X314229671Y-170125500D01*
X314301215Y-170114168D01*
X314312851Y-170112325D01*
X314382145Y-170121279D01*
G37*
G04 #@! TD.AperFunction*
G04 #@! TA.AperFunction,NonConductor*
G36*
X294399289Y-170145185D02*
G01*
X294445044Y-170197989D01*
X294456250Y-170249500D01*
X294456250Y-170901000D01*
X294436565Y-170968039D01*
X294383761Y-171013794D01*
X294332250Y-171025000D01*
X289580250Y-171025000D01*
X289513211Y-171005315D01*
X289467456Y-170952511D01*
X289456250Y-170901000D01*
X289456250Y-170249500D01*
X289475935Y-170182461D01*
X289528739Y-170136706D01*
X289580250Y-170125500D01*
X294332250Y-170125500D01*
X294399289Y-170145185D01*
G37*
G04 #@! TD.AperFunction*
G04 #@! TA.AperFunction,NonConductor*
G36*
X274399289Y-170145185D02*
G01*
X274445044Y-170197989D01*
X274456250Y-170249500D01*
X274456250Y-170901000D01*
X274436565Y-170968039D01*
X274383761Y-171013794D01*
X274332250Y-171025000D01*
X269580250Y-171025000D01*
X269513211Y-171005315D01*
X269467456Y-170952511D01*
X269456250Y-170901000D01*
X269456250Y-170249500D01*
X269475935Y-170182461D01*
X269528739Y-170136706D01*
X269580250Y-170125500D01*
X274332250Y-170125500D01*
X274399289Y-170145185D01*
G37*
G04 #@! TD.AperFunction*
G04 #@! TA.AperFunction,NonConductor*
G36*
X254399289Y-170145185D02*
G01*
X254445044Y-170197989D01*
X254456250Y-170249500D01*
X254456250Y-170901000D01*
X254436565Y-170968039D01*
X254383761Y-171013794D01*
X254332250Y-171025000D01*
X249580250Y-171025000D01*
X249513211Y-171005315D01*
X249467456Y-170952511D01*
X249456250Y-170901000D01*
X249456250Y-170249500D01*
X249475935Y-170182461D01*
X249528739Y-170136706D01*
X249580250Y-170125500D01*
X254332250Y-170125500D01*
X254399289Y-170145185D01*
G37*
G04 #@! TD.AperFunction*
G04 #@! TA.AperFunction,NonConductor*
G36*
X234399289Y-166044685D02*
G01*
X234445044Y-166097489D01*
X234456250Y-166149000D01*
X234456250Y-170901000D01*
X234436565Y-170968039D01*
X234383761Y-171013794D01*
X234332250Y-171025000D01*
X229580250Y-171025000D01*
X229513211Y-171005315D01*
X229467456Y-170952511D01*
X229456250Y-170901000D01*
X229456250Y-166149000D01*
X229475935Y-166081961D01*
X229528739Y-166036206D01*
X229580250Y-166025000D01*
X234332250Y-166025000D01*
X234399289Y-166044685D01*
G37*
G04 #@! TD.AperFunction*
G04 #@! TA.AperFunction,NonConductor*
G36*
X174399289Y-166044685D02*
G01*
X174445044Y-166097489D01*
X174456250Y-166149000D01*
X174456250Y-170901000D01*
X174436565Y-170968039D01*
X174383761Y-171013794D01*
X174332250Y-171025000D01*
X169580250Y-171025000D01*
X169513211Y-171005315D01*
X169467456Y-170952511D01*
X169456250Y-170901000D01*
X169456250Y-166149000D01*
X169475935Y-166081961D01*
X169528739Y-166036206D01*
X169580250Y-166025000D01*
X174332250Y-166025000D01*
X174399289Y-166044685D01*
G37*
G04 #@! TD.AperFunction*
G04 #@! TA.AperFunction,NonConductor*
G36*
X154399289Y-170145185D02*
G01*
X154445044Y-170197989D01*
X154456250Y-170249500D01*
X154456250Y-170901000D01*
X154436565Y-170968039D01*
X154383761Y-171013794D01*
X154332250Y-171025000D01*
X149580250Y-171025000D01*
X149513211Y-171005315D01*
X149467456Y-170952511D01*
X149456250Y-170901000D01*
X149456250Y-170249500D01*
X149475935Y-170182461D01*
X149528739Y-170136706D01*
X149580250Y-170125500D01*
X154332250Y-170125500D01*
X154399289Y-170145185D01*
G37*
G04 #@! TD.AperFunction*
G04 #@! TA.AperFunction,NonConductor*
G36*
X134399289Y-170145185D02*
G01*
X134445044Y-170197989D01*
X134456250Y-170249500D01*
X134456250Y-170901000D01*
X134436565Y-170968039D01*
X134383761Y-171013794D01*
X134332250Y-171025000D01*
X129580250Y-171025000D01*
X129513211Y-171005315D01*
X129467456Y-170952511D01*
X129456250Y-170901000D01*
X129456250Y-170249500D01*
X129475935Y-170182461D01*
X129528739Y-170136706D01*
X129580250Y-170125500D01*
X134332250Y-170125500D01*
X134399289Y-170145185D01*
G37*
G04 #@! TD.AperFunction*
G04 #@! TA.AperFunction,NonConductor*
G36*
X109599447Y-170120212D02*
G01*
X109632833Y-170125500D01*
X114332250Y-170125500D01*
X114399289Y-170145185D01*
X114445044Y-170197989D01*
X114456250Y-170249500D01*
X114456250Y-170901000D01*
X114436565Y-170968039D01*
X114383761Y-171013794D01*
X114332250Y-171025000D01*
X109580250Y-171025000D01*
X109513211Y-171005315D01*
X109467456Y-170952511D01*
X109456250Y-170901000D01*
X109456250Y-170242716D01*
X109475935Y-170175677D01*
X109528739Y-170129922D01*
X109597897Y-170119978D01*
X109599447Y-170120212D01*
G37*
G04 #@! TD.AperFunction*
G04 #@! TA.AperFunction,NonConductor*
G36*
X89661453Y-169604329D02*
G01*
X89680566Y-169625155D01*
X89727422Y-169689646D01*
X89866604Y-169828828D01*
X90025845Y-169944524D01*
X90108705Y-169986743D01*
X90201220Y-170033882D01*
X90201222Y-170033882D01*
X90201225Y-170033884D01*
X90301567Y-170066487D01*
X90388423Y-170094709D01*
X90582828Y-170125500D01*
X90582833Y-170125500D01*
X94332250Y-170125500D01*
X94399289Y-170145185D01*
X94445044Y-170197989D01*
X94456250Y-170249500D01*
X94456250Y-170901000D01*
X94436565Y-170968039D01*
X94383761Y-171013794D01*
X94332250Y-171025000D01*
X89580250Y-171025000D01*
X89513211Y-171005315D01*
X89467456Y-170952511D01*
X89456250Y-170901000D01*
X89456250Y-169698042D01*
X89475935Y-169631003D01*
X89528739Y-169585248D01*
X89597897Y-169575304D01*
X89661453Y-169604329D01*
G37*
G04 #@! TD.AperFunction*
G04 #@! TA.AperFunction,NonConductor*
G36*
X74399289Y-166044685D02*
G01*
X74445044Y-166097489D01*
X74456250Y-166149000D01*
X74456250Y-170901000D01*
X74436565Y-170968039D01*
X74383761Y-171013794D01*
X74332250Y-171025000D01*
X73005750Y-171025000D01*
X72938711Y-171005315D01*
X72892956Y-170952511D01*
X72881750Y-170901000D01*
X72881750Y-166149000D01*
X72901435Y-166081961D01*
X72954239Y-166036206D01*
X73005750Y-166025000D01*
X74332250Y-166025000D01*
X74399289Y-166044685D01*
G37*
G04 #@! TD.AperFunction*
G04 #@! TA.AperFunction,NonConductor*
G36*
X70323789Y-166044685D02*
G01*
X70369544Y-166097489D01*
X70380750Y-166149000D01*
X70380750Y-170901000D01*
X70361065Y-170968039D01*
X70308261Y-171013794D01*
X70256750Y-171025000D01*
X69580250Y-171025000D01*
X69513211Y-171005315D01*
X69467456Y-170952511D01*
X69456250Y-170901000D01*
X69456250Y-166149000D01*
X69475935Y-166081961D01*
X69528739Y-166036206D01*
X69580250Y-166025000D01*
X70256750Y-166025000D01*
X70323789Y-166044685D01*
G37*
G04 #@! TD.AperFunction*
G04 #@! TA.AperFunction,NonConductor*
G36*
X236623789Y-171044685D02*
G01*
X236669544Y-171097489D01*
X236680750Y-171149000D01*
X236680750Y-172263000D01*
X236661065Y-172330039D01*
X236608261Y-172375794D01*
X236556750Y-172387000D01*
X234580250Y-172387000D01*
X234513211Y-172367315D01*
X234467456Y-172314511D01*
X234456250Y-172263000D01*
X234456250Y-171149000D01*
X234475935Y-171081961D01*
X234528739Y-171036206D01*
X234580250Y-171025000D01*
X236556750Y-171025000D01*
X236623789Y-171044685D01*
G37*
G04 #@! TD.AperFunction*
G04 #@! TA.AperFunction,NonConductor*
G36*
X179399289Y-171044685D02*
G01*
X179445044Y-171097489D01*
X179456250Y-171149000D01*
X179456250Y-172263000D01*
X179436565Y-172330039D01*
X179383761Y-172375794D01*
X179332250Y-172387000D01*
X174580250Y-172387000D01*
X174513211Y-172367315D01*
X174467456Y-172314511D01*
X174456250Y-172263000D01*
X174456250Y-171149000D01*
X174475935Y-171081961D01*
X174528739Y-171036206D01*
X174580250Y-171025000D01*
X179332250Y-171025000D01*
X179399289Y-171044685D01*
G37*
G04 #@! TD.AperFunction*
G04 #@! TA.AperFunction,NonConductor*
G36*
X79399289Y-171044685D02*
G01*
X79445044Y-171097489D01*
X79456250Y-171149000D01*
X79456250Y-172263000D01*
X79436565Y-172330039D01*
X79383761Y-172375794D01*
X79332250Y-172387000D01*
X74580250Y-172387000D01*
X74513211Y-172367315D01*
X74467456Y-172314511D01*
X74456250Y-172263000D01*
X74456250Y-171149000D01*
X74475935Y-171081961D01*
X74528739Y-171036206D01*
X74580250Y-171025000D01*
X79332250Y-171025000D01*
X79399289Y-171044685D01*
G37*
G04 #@! TD.AperFunction*
G04 #@! TA.AperFunction,NonConductor*
G36*
X159399289Y-171044685D02*
G01*
X159445044Y-171097489D01*
X159456250Y-171149000D01*
X159456250Y-172650500D01*
X159436565Y-172717539D01*
X159383761Y-172763294D01*
X159332250Y-172774500D01*
X154580250Y-172774500D01*
X154513211Y-172754815D01*
X154467456Y-172702011D01*
X154456250Y-172650500D01*
X154456250Y-171149000D01*
X154475935Y-171081961D01*
X154528739Y-171036206D01*
X154580250Y-171025000D01*
X159332250Y-171025000D01*
X159399289Y-171044685D01*
G37*
G04 #@! TD.AperFunction*
G04 #@! TA.AperFunction,NonConductor*
G36*
X299399289Y-171044685D02*
G01*
X299445044Y-171097489D01*
X299456250Y-171149000D01*
X299456250Y-173206750D01*
X299436565Y-173273789D01*
X299383761Y-173319544D01*
X299332250Y-173330750D01*
X294580250Y-173330750D01*
X294513211Y-173311065D01*
X294467456Y-173258261D01*
X294456250Y-173206750D01*
X294456250Y-171149000D01*
X294475935Y-171081961D01*
X294528739Y-171036206D01*
X294580250Y-171025000D01*
X299332250Y-171025000D01*
X299399289Y-171044685D01*
G37*
G04 #@! TD.AperFunction*
G04 #@! TA.AperFunction,NonConductor*
G36*
X279399289Y-171044685D02*
G01*
X279445044Y-171097489D01*
X279456250Y-171149000D01*
X279456250Y-173206750D01*
X279436565Y-173273789D01*
X279383761Y-173319544D01*
X279332250Y-173330750D01*
X274580250Y-173330750D01*
X274513211Y-173311065D01*
X274467456Y-173258261D01*
X274456250Y-173206750D01*
X274456250Y-171149000D01*
X274475935Y-171081961D01*
X274528739Y-171036206D01*
X274580250Y-171025000D01*
X279332250Y-171025000D01*
X279399289Y-171044685D01*
G37*
G04 #@! TD.AperFunction*
G04 #@! TA.AperFunction,NonConductor*
G36*
X119399289Y-171044685D02*
G01*
X119445044Y-171097489D01*
X119456250Y-171149000D01*
X119456250Y-173206750D01*
X119436565Y-173273789D01*
X119383761Y-173319544D01*
X119332250Y-173330750D01*
X114580250Y-173330750D01*
X114513211Y-173311065D01*
X114467456Y-173258261D01*
X114456250Y-173206750D01*
X114456250Y-171149000D01*
X114475935Y-171081961D01*
X114528739Y-171036206D01*
X114580250Y-171025000D01*
X119332250Y-171025000D01*
X119399289Y-171044685D01*
G37*
G04 #@! TD.AperFunction*
G04 #@! TA.AperFunction,NonConductor*
G36*
X99399289Y-171044685D02*
G01*
X99445044Y-171097489D01*
X99456250Y-171149000D01*
X99456250Y-173206750D01*
X99436565Y-173273789D01*
X99383761Y-173319544D01*
X99332250Y-173330750D01*
X95311837Y-173330750D01*
X95287519Y-173328342D01*
X95283544Y-173327547D01*
X95283543Y-173327546D01*
X95237861Y-173330493D01*
X95229881Y-173330750D01*
X95184104Y-173330750D01*
X95180177Y-173331802D01*
X95156097Y-173335765D01*
X95152040Y-173336027D01*
X95152035Y-173336027D01*
X95152033Y-173336028D01*
X95152031Y-173336028D01*
X95152023Y-173336030D01*
X95108673Y-173350695D01*
X95101035Y-173353008D01*
X95056810Y-173364858D01*
X95053294Y-173366889D01*
X95031038Y-173376959D01*
X95027203Y-173378256D01*
X95027193Y-173378261D01*
X94989121Y-173403642D01*
X94982343Y-173407852D01*
X94942688Y-173430748D01*
X94942680Y-173430753D01*
X94939809Y-173433625D01*
X94920921Y-173449108D01*
X94649033Y-173630368D01*
X94582334Y-173651176D01*
X94514973Y-173632621D01*
X94468337Y-173580594D01*
X94456250Y-173527194D01*
X94456250Y-171149000D01*
X94475935Y-171081961D01*
X94528739Y-171036206D01*
X94580250Y-171025000D01*
X99332250Y-171025000D01*
X99399289Y-171044685D01*
G37*
G04 #@! TD.AperFunction*
G04 #@! TA.AperFunction,NonConductor*
G36*
X139399289Y-171044685D02*
G01*
X139445044Y-171097489D01*
X139456250Y-171149000D01*
X139456250Y-175305338D01*
X139436565Y-175372377D01*
X139383761Y-175418132D01*
X139314603Y-175428076D01*
X139251047Y-175399051D01*
X139216145Y-175348877D01*
X138591771Y-173683881D01*
X138588104Y-173672445D01*
X138578892Y-173638064D01*
X138571732Y-173625663D01*
X138563022Y-173607216D01*
X138557997Y-173593816D01*
X138537295Y-173564853D01*
X138530800Y-173554767D01*
X138513000Y-173523936D01*
X138502885Y-173513821D01*
X138489686Y-173498245D01*
X138481367Y-173486606D01*
X138481360Y-173486599D01*
X138453879Y-173463991D01*
X138444977Y-173455913D01*
X138419815Y-173430751D01*
X138419814Y-173430750D01*
X138407423Y-173423596D01*
X138390645Y-173411969D01*
X138379595Y-173402878D01*
X138379593Y-173402877D01*
X138379593Y-173402876D01*
X138347196Y-173388151D01*
X138336515Y-173382657D01*
X138309204Y-173366889D01*
X138305685Y-173364857D01*
X138305683Y-173364856D01*
X138291862Y-173361153D01*
X138272655Y-173354268D01*
X138259621Y-173348344D01*
X138224508Y-173342503D01*
X138212765Y-173339959D01*
X138178397Y-173330750D01*
X138178392Y-173330750D01*
X138164088Y-173330750D01*
X138143740Y-173329069D01*
X138129628Y-173326721D01*
X138129621Y-173326721D01*
X138094202Y-173330167D01*
X138082196Y-173330750D01*
X134580250Y-173330750D01*
X134513211Y-173311065D01*
X134467456Y-173258261D01*
X134456250Y-173206750D01*
X134456250Y-171149000D01*
X134475935Y-171081961D01*
X134528739Y-171036206D01*
X134580250Y-171025000D01*
X139332250Y-171025000D01*
X139399289Y-171044685D01*
G37*
G04 #@! TD.AperFunction*
G04 #@! TA.AperFunction,NonConductor*
G36*
X337580039Y-171044685D02*
G01*
X337625794Y-171097489D01*
X337637000Y-171149000D01*
X337637000Y-175901000D01*
X337617315Y-175968039D01*
X337564511Y-176013794D01*
X337513000Y-176025000D01*
X334580250Y-176025000D01*
X334513211Y-176005315D01*
X334467456Y-175952511D01*
X334456250Y-175901000D01*
X334456250Y-173937000D01*
X334475935Y-173869961D01*
X334528739Y-173824206D01*
X334580250Y-173813000D01*
X335029672Y-173813000D01*
X335224076Y-173782209D01*
X335411275Y-173721384D01*
X335586655Y-173632024D01*
X335745896Y-173516328D01*
X335885078Y-173377146D01*
X336000774Y-173217905D01*
X336090134Y-173042525D01*
X336150959Y-172855326D01*
X336158884Y-172805290D01*
X336181750Y-172660922D01*
X336181750Y-171149000D01*
X336201435Y-171081961D01*
X336254239Y-171036206D01*
X336305750Y-171025000D01*
X337513000Y-171025000D01*
X337580039Y-171044685D01*
G37*
G04 #@! TD.AperFunction*
G04 #@! TA.AperFunction,NonConductor*
G36*
X319023789Y-171044685D02*
G01*
X319069544Y-171097489D01*
X319080750Y-171149000D01*
X319080750Y-172660922D01*
X319111540Y-172855326D01*
X319172367Y-173042529D01*
X319217592Y-173131287D01*
X319261726Y-173217905D01*
X319377422Y-173377146D01*
X319377424Y-173377148D01*
X319419931Y-173419655D01*
X319453416Y-173480978D01*
X319456250Y-173507336D01*
X319456250Y-175901000D01*
X319436565Y-175968039D01*
X319383761Y-176013794D01*
X319332250Y-176025000D01*
X315105750Y-176025000D01*
X315038711Y-176005315D01*
X314992956Y-175952511D01*
X314981750Y-175901000D01*
X314981750Y-174348932D01*
X315001435Y-174281893D01*
X315049455Y-174238447D01*
X315164066Y-174180051D01*
X315255922Y-174113313D01*
X315336036Y-174055109D01*
X315336038Y-174055106D01*
X315336042Y-174055104D01*
X315486354Y-173904792D01*
X315486356Y-173904788D01*
X315486359Y-173904786D01*
X315611298Y-173732820D01*
X315611297Y-173732820D01*
X315611301Y-173732816D01*
X315707807Y-173543412D01*
X315773496Y-173341243D01*
X315806750Y-173131287D01*
X315806750Y-172918713D01*
X315773496Y-172708757D01*
X315707807Y-172506588D01*
X315611301Y-172317184D01*
X315611299Y-172317181D01*
X315611298Y-172317179D01*
X315486359Y-172145213D01*
X315336036Y-171994890D01*
X315164070Y-171869951D01*
X314974664Y-171773444D01*
X314974663Y-171773443D01*
X314974662Y-171773443D01*
X314772493Y-171707754D01*
X314772491Y-171707753D01*
X314772489Y-171707753D01*
X314560852Y-171674233D01*
X314497717Y-171644304D01*
X314460786Y-171584992D01*
X314456250Y-171551760D01*
X314456250Y-171149000D01*
X314475935Y-171081961D01*
X314528739Y-171036206D01*
X314580250Y-171025000D01*
X318956750Y-171025000D01*
X319023789Y-171044685D01*
G37*
G04 #@! TD.AperFunction*
G04 #@! TA.AperFunction,NonConductor*
G36*
X259399289Y-171044685D02*
G01*
X259445044Y-171097489D01*
X259456250Y-171149000D01*
X259456250Y-175901000D01*
X259436565Y-175968039D01*
X259383761Y-176013794D01*
X259332250Y-176025000D01*
X258355750Y-176025000D01*
X258288711Y-176005315D01*
X258242956Y-175952511D01*
X258231750Y-175901000D01*
X258231750Y-173926577D01*
X258200959Y-173732173D01*
X258151707Y-173580594D01*
X258140134Y-173544975D01*
X258140132Y-173544972D01*
X258140132Y-173544970D01*
X258078289Y-173423596D01*
X258050774Y-173369595D01*
X257935078Y-173210354D01*
X257795896Y-173071172D01*
X257636655Y-172955476D01*
X257461279Y-172866117D01*
X257274076Y-172805290D01*
X257079672Y-172774500D01*
X257079667Y-172774500D01*
X254580250Y-172774500D01*
X254513211Y-172754815D01*
X254467456Y-172702011D01*
X254456250Y-172650500D01*
X254456250Y-171149000D01*
X254475935Y-171081961D01*
X254528739Y-171036206D01*
X254580250Y-171025000D01*
X259332250Y-171025000D01*
X259399289Y-171044685D01*
G37*
G04 #@! TD.AperFunction*
G04 #@! TA.AperFunction,NonConductor*
G36*
X255673789Y-175295185D02*
G01*
X255719544Y-175347989D01*
X255730750Y-175399500D01*
X255730750Y-175901000D01*
X255711065Y-175968039D01*
X255658261Y-176013794D01*
X255606750Y-176025000D01*
X254580250Y-176025000D01*
X254513211Y-176005315D01*
X254467456Y-175952511D01*
X254456250Y-175901000D01*
X254456250Y-175399500D01*
X254475935Y-175332461D01*
X254528739Y-175286706D01*
X254580250Y-175275500D01*
X255606750Y-175275500D01*
X255673789Y-175295185D01*
G37*
G04 #@! TD.AperFunction*
G04 #@! TA.AperFunction,NonConductor*
G36*
X239399289Y-171044685D02*
G01*
X239445044Y-171097489D01*
X239456250Y-171149000D01*
X239456250Y-175901000D01*
X239436565Y-175968039D01*
X239383761Y-176013794D01*
X239332250Y-176025000D01*
X234580250Y-176025000D01*
X234513211Y-176005315D01*
X234467456Y-175952511D01*
X234456250Y-175901000D01*
X234456250Y-175012000D01*
X234475935Y-174944961D01*
X234528739Y-174899206D01*
X234580250Y-174888000D01*
X238029672Y-174888000D01*
X238224076Y-174857209D01*
X238411275Y-174796384D01*
X238586655Y-174707024D01*
X238745896Y-174591328D01*
X238885078Y-174452146D01*
X239000774Y-174292905D01*
X239090134Y-174117525D01*
X239150959Y-173930326D01*
X239167767Y-173824206D01*
X239181750Y-173735922D01*
X239181750Y-171149000D01*
X239201435Y-171081961D01*
X239254239Y-171036206D01*
X239305750Y-171025000D01*
X239332250Y-171025000D01*
X239399289Y-171044685D01*
G37*
G04 #@! TD.AperFunction*
G04 #@! TA.AperFunction,NonConductor*
G36*
X219399289Y-171044685D02*
G01*
X219445044Y-171097489D01*
X219456250Y-171149000D01*
X219456250Y-175901000D01*
X219436565Y-175968039D01*
X219383761Y-176013794D01*
X219332250Y-176025000D01*
X214580250Y-176025000D01*
X214513211Y-176005315D01*
X214467456Y-175952511D01*
X214456250Y-175901000D01*
X214456250Y-174397775D01*
X214475935Y-174330736D01*
X214518250Y-174290388D01*
X214619814Y-174231750D01*
X217094250Y-171757314D01*
X217160142Y-171643186D01*
X217194250Y-171515892D01*
X217194250Y-171384108D01*
X217194250Y-171149000D01*
X217213935Y-171081961D01*
X217266739Y-171036206D01*
X217318250Y-171025000D01*
X219332250Y-171025000D01*
X219399289Y-171044685D01*
G37*
G04 #@! TD.AperFunction*
G04 #@! TA.AperFunction,NonConductor*
G36*
X199399289Y-174351435D02*
G01*
X199445044Y-174404239D01*
X199456250Y-174455750D01*
X199456250Y-175901000D01*
X199436565Y-175968039D01*
X199383761Y-176013794D01*
X199332250Y-176025000D01*
X194580250Y-176025000D01*
X194513211Y-176005315D01*
X194467456Y-175952511D01*
X194456250Y-175901000D01*
X194456250Y-174455750D01*
X194475935Y-174388711D01*
X194528739Y-174342956D01*
X194580250Y-174331750D01*
X199332250Y-174331750D01*
X199399289Y-174351435D01*
G37*
G04 #@! TD.AperFunction*
G04 #@! TA.AperFunction,NonConductor*
G36*
X179399289Y-174907685D02*
G01*
X179445044Y-174960489D01*
X179456250Y-175012000D01*
X179456250Y-175901000D01*
X179436565Y-175968039D01*
X179383761Y-176013794D01*
X179332250Y-176025000D01*
X174580250Y-176025000D01*
X174513211Y-176005315D01*
X174467456Y-175952511D01*
X174456250Y-175901000D01*
X174456250Y-175012000D01*
X174475935Y-174944961D01*
X174528739Y-174899206D01*
X174580250Y-174888000D01*
X179332250Y-174888000D01*
X179399289Y-174907685D01*
G37*
G04 #@! TD.AperFunction*
G04 #@! TA.AperFunction,NonConductor*
G36*
X159399289Y-175295185D02*
G01*
X159445044Y-175347989D01*
X159456250Y-175399500D01*
X159456250Y-175901000D01*
X159436565Y-175968039D01*
X159383761Y-176013794D01*
X159332250Y-176025000D01*
X154580250Y-176025000D01*
X154513211Y-176005315D01*
X154467456Y-175952511D01*
X154456250Y-175901000D01*
X154456250Y-175399500D01*
X154475935Y-175332461D01*
X154528739Y-175286706D01*
X154580250Y-175275500D01*
X159332250Y-175275500D01*
X159399289Y-175295185D01*
G37*
G04 #@! TD.AperFunction*
G04 #@! TA.AperFunction,NonConductor*
G36*
X79399289Y-174907685D02*
G01*
X79445044Y-174960489D01*
X79456250Y-175012000D01*
X79456250Y-175901000D01*
X79436565Y-175968039D01*
X79383761Y-176013794D01*
X79332250Y-176025000D01*
X74580250Y-176025000D01*
X74513211Y-176005315D01*
X74467456Y-175952511D01*
X74456250Y-175901000D01*
X74456250Y-175012000D01*
X74475935Y-174944961D01*
X74528739Y-174899206D01*
X74580250Y-174888000D01*
X79332250Y-174888000D01*
X79399289Y-174907685D01*
G37*
G04 #@! TD.AperFunction*
G04 #@! TA.AperFunction,NonConductor*
G36*
X324399289Y-176044685D02*
G01*
X324445044Y-176097489D01*
X324456250Y-176149000D01*
X324456250Y-177969250D01*
X324436565Y-178036289D01*
X324383761Y-178082044D01*
X324332250Y-178093250D01*
X319580250Y-178093250D01*
X319513211Y-178073565D01*
X319467456Y-178020761D01*
X319456250Y-177969250D01*
X319456250Y-176149000D01*
X319475935Y-176081961D01*
X319528739Y-176036206D01*
X319580250Y-176025000D01*
X324332250Y-176025000D01*
X324399289Y-176044685D01*
G37*
G04 #@! TD.AperFunction*
G04 #@! TA.AperFunction,NonConductor*
G36*
X84399289Y-176044685D02*
G01*
X84445044Y-176097489D01*
X84456250Y-176149000D01*
X84456250Y-177969250D01*
X84436565Y-178036289D01*
X84383761Y-178082044D01*
X84332250Y-178093250D01*
X79580250Y-178093250D01*
X79513211Y-178073565D01*
X79467456Y-178020761D01*
X79456250Y-177969250D01*
X79456250Y-176149000D01*
X79475935Y-176081961D01*
X79528739Y-176036206D01*
X79580250Y-176025000D01*
X84332250Y-176025000D01*
X84399289Y-176044685D01*
G37*
G04 #@! TD.AperFunction*
G04 #@! TA.AperFunction,NonConductor*
G36*
X264399289Y-176044685D02*
G01*
X264445044Y-176097489D01*
X264456250Y-176149000D01*
X264456250Y-178366673D01*
X264448355Y-178410212D01*
X264287182Y-178840007D01*
X263523714Y-180875924D01*
X263497983Y-180944539D01*
X263456012Y-181000399D01*
X263390505Y-181024700D01*
X263381878Y-181025000D01*
X259580250Y-181025000D01*
X259513211Y-181005315D01*
X259467456Y-180952511D01*
X259456250Y-180901000D01*
X259456250Y-176149000D01*
X259475935Y-176081961D01*
X259528739Y-176036206D01*
X259580250Y-176025000D01*
X264332250Y-176025000D01*
X264399289Y-176044685D01*
G37*
G04 #@! TD.AperFunction*
G04 #@! TA.AperFunction,NonConductor*
G36*
X241773789Y-176044685D02*
G01*
X241819544Y-176097489D01*
X241830750Y-176149000D01*
X241830750Y-180901000D01*
X241811065Y-180968039D01*
X241758261Y-181013794D01*
X241706750Y-181025000D01*
X239580250Y-181025000D01*
X239513211Y-181005315D01*
X239467456Y-180952511D01*
X239456250Y-180901000D01*
X239456250Y-176149000D01*
X239475935Y-176081961D01*
X239528739Y-176036206D01*
X239580250Y-176025000D01*
X241706750Y-176025000D01*
X241773789Y-176044685D01*
G37*
G04 #@! TD.AperFunction*
G04 #@! TA.AperFunction,NonConductor*
G36*
X224399289Y-176044685D02*
G01*
X224445044Y-176097489D01*
X224456250Y-176149000D01*
X224456250Y-177413000D01*
X224436565Y-177480039D01*
X224383761Y-177525794D01*
X224332250Y-177537000D01*
X223932828Y-177537000D01*
X223738423Y-177567790D01*
X223551220Y-177628617D01*
X223375844Y-177717976D01*
X223284991Y-177783985D01*
X223216604Y-177833672D01*
X223216602Y-177833674D01*
X223216601Y-177833674D01*
X223077424Y-177972851D01*
X223077424Y-177972852D01*
X223077422Y-177972854D01*
X223042615Y-178020761D01*
X222961726Y-178132094D01*
X222872367Y-178307470D01*
X222811540Y-178494673D01*
X222780750Y-178689077D01*
X222780750Y-180901000D01*
X222761065Y-180968039D01*
X222708261Y-181013794D01*
X222656750Y-181025000D01*
X220230476Y-181025000D01*
X220163437Y-181005315D01*
X220117682Y-180952511D01*
X220108003Y-180920398D01*
X220107218Y-180915443D01*
X220100959Y-180875924D01*
X220040134Y-180688725D01*
X220040132Y-180688722D01*
X220040132Y-180688720D01*
X219950773Y-180513344D01*
X219835078Y-180354104D01*
X219695896Y-180214922D01*
X219536655Y-180099226D01*
X219536654Y-180099225D01*
X219536652Y-180099224D01*
X219523954Y-180092754D01*
X219473159Y-180044780D01*
X219456250Y-179982270D01*
X219456250Y-176149000D01*
X219475935Y-176081961D01*
X219528739Y-176036206D01*
X219580250Y-176025000D01*
X224332250Y-176025000D01*
X224399289Y-176044685D01*
G37*
G04 #@! TD.AperFunction*
G04 #@! TA.AperFunction,NonConductor*
G36*
X204399289Y-176044685D02*
G01*
X204445044Y-176097489D01*
X204456250Y-176149000D01*
X204456250Y-179956793D01*
X204436565Y-180023832D01*
X204388546Y-180067277D01*
X204325847Y-180099224D01*
X204246224Y-180157074D01*
X204166604Y-180214922D01*
X204166602Y-180214924D01*
X204166601Y-180214924D01*
X204027424Y-180354101D01*
X204027424Y-180354102D01*
X204027422Y-180354104D01*
X203977735Y-180422491D01*
X203911726Y-180513344D01*
X203822367Y-180688720D01*
X203761541Y-180875923D01*
X203754497Y-180920398D01*
X203724568Y-180983532D01*
X203665257Y-181020464D01*
X203632024Y-181025000D01*
X201180476Y-181025000D01*
X201113437Y-181005315D01*
X201067682Y-180952511D01*
X201058003Y-180920398D01*
X201057218Y-180915443D01*
X201050959Y-180875924D01*
X200990134Y-180688725D01*
X200990132Y-180688722D01*
X200990132Y-180688720D01*
X200900773Y-180513344D01*
X200785078Y-180354104D01*
X200645896Y-180214922D01*
X200486655Y-180099226D01*
X200473953Y-180092754D01*
X200311279Y-180009867D01*
X200124076Y-179949040D01*
X199929672Y-179918250D01*
X199929667Y-179918250D01*
X199580250Y-179918250D01*
X199513211Y-179898565D01*
X199467456Y-179845761D01*
X199456250Y-179794250D01*
X199456250Y-176149000D01*
X199475935Y-176081961D01*
X199528739Y-176036206D01*
X199580250Y-176025000D01*
X204332250Y-176025000D01*
X204399289Y-176044685D01*
G37*
G04 #@! TD.AperFunction*
G04 #@! TA.AperFunction,NonConductor*
G36*
X184399289Y-176044685D02*
G01*
X184445044Y-176097489D01*
X184456250Y-176149000D01*
X184456250Y-180901000D01*
X184436565Y-180968039D01*
X184383761Y-181013794D01*
X184332250Y-181025000D01*
X182155750Y-181025000D01*
X182088711Y-181005315D01*
X182042956Y-180952511D01*
X182031750Y-180901000D01*
X182031750Y-178689077D01*
X182000959Y-178494673D01*
X181940132Y-178307470D01*
X181850773Y-178132094D01*
X181822551Y-178093250D01*
X181735078Y-177972854D01*
X181595896Y-177833672D01*
X181436655Y-177717976D01*
X181261279Y-177628617D01*
X181074076Y-177567790D01*
X180879672Y-177537000D01*
X180879667Y-177537000D01*
X179580250Y-177537000D01*
X179513211Y-177517315D01*
X179467456Y-177464511D01*
X179456250Y-177413000D01*
X179456250Y-176149000D01*
X179475935Y-176081961D01*
X179528739Y-176036206D01*
X179580250Y-176025000D01*
X184332250Y-176025000D01*
X184399289Y-176044685D01*
G37*
G04 #@! TD.AperFunction*
G04 #@! TA.AperFunction,NonConductor*
G36*
X164399289Y-176044685D02*
G01*
X164445044Y-176097489D01*
X164456250Y-176149000D01*
X164456250Y-180901000D01*
X164436565Y-180968039D01*
X164383761Y-181013794D01*
X164332250Y-181025000D01*
X163105750Y-181025000D01*
X163038711Y-181005315D01*
X162992956Y-180952511D01*
X162981750Y-180901000D01*
X162981750Y-176149000D01*
X163001435Y-176081961D01*
X163054239Y-176036206D01*
X163105750Y-176025000D01*
X164332250Y-176025000D01*
X164399289Y-176044685D01*
G37*
G04 #@! TD.AperFunction*
G04 #@! TA.AperFunction,NonConductor*
G36*
X160423789Y-176044685D02*
G01*
X160469544Y-176097489D01*
X160480750Y-176149000D01*
X160480750Y-180901000D01*
X160461065Y-180968039D01*
X160408261Y-181013794D01*
X160356750Y-181025000D01*
X159580250Y-181025000D01*
X159513211Y-181005315D01*
X159467456Y-180952511D01*
X159456250Y-180901000D01*
X159456250Y-176149000D01*
X159475935Y-176081961D01*
X159528739Y-176036206D01*
X159580250Y-176025000D01*
X160356750Y-176025000D01*
X160423789Y-176044685D01*
G37*
G04 #@! TD.AperFunction*
G04 #@! TA.AperFunction,NonConductor*
G36*
X144399289Y-176044685D02*
G01*
X144445044Y-176097489D01*
X144456250Y-176149000D01*
X144456250Y-180901000D01*
X144436565Y-180968039D01*
X144383761Y-181013794D01*
X144332250Y-181025000D01*
X141430623Y-181025000D01*
X141363584Y-181005315D01*
X141317829Y-180952511D01*
X141314518Y-180944539D01*
X141040913Y-180214924D01*
X139532517Y-176192538D01*
X139527410Y-176122857D01*
X139560787Y-176061474D01*
X139622050Y-176027881D01*
X139648623Y-176025000D01*
X144332250Y-176025000D01*
X144399289Y-176044685D01*
G37*
G04 #@! TD.AperFunction*
G04 #@! TA.AperFunction,NonConductor*
G36*
X249399289Y-181044685D02*
G01*
X249445044Y-181097489D01*
X249456250Y-181149000D01*
X249456250Y-185901000D01*
X249436565Y-185968039D01*
X249383761Y-186013794D01*
X249332250Y-186025000D01*
X244580250Y-186025000D01*
X244513211Y-186005315D01*
X244467456Y-185952511D01*
X244456250Y-185901000D01*
X244456250Y-181149000D01*
X244475935Y-181081961D01*
X244528739Y-181036206D01*
X244580250Y-181025000D01*
X249332250Y-181025000D01*
X249399289Y-181044685D01*
G37*
G04 #@! TD.AperFunction*
G04 #@! TA.AperFunction,NonConductor*
G36*
X229399289Y-181044685D02*
G01*
X229445044Y-181097489D01*
X229456250Y-181149000D01*
X229456250Y-185901000D01*
X229436565Y-185968039D01*
X229383761Y-186013794D01*
X229332250Y-186025000D01*
X225405750Y-186025000D01*
X225338711Y-186005315D01*
X225292956Y-185952511D01*
X225281750Y-185901000D01*
X225281750Y-181149000D01*
X225301435Y-181081961D01*
X225354239Y-181036206D01*
X225405750Y-181025000D01*
X229332250Y-181025000D01*
X229399289Y-181044685D01*
G37*
G04 #@! TD.AperFunction*
G04 #@! TA.AperFunction,NonConductor*
G36*
X209399289Y-182438935D02*
G01*
X209445044Y-182491739D01*
X209456250Y-182543250D01*
X209456250Y-185901000D01*
X209436565Y-185968039D01*
X209383761Y-186013794D01*
X209332250Y-186025000D01*
X206355750Y-186025000D01*
X206288711Y-186005315D01*
X206242956Y-185952511D01*
X206231750Y-185901000D01*
X206231750Y-182543250D01*
X206251435Y-182476211D01*
X206304239Y-182430456D01*
X206355750Y-182419250D01*
X209332250Y-182419250D01*
X209399289Y-182438935D01*
G37*
G04 #@! TD.AperFunction*
G04 #@! TA.AperFunction,NonConductor*
G36*
X189399289Y-182438935D02*
G01*
X189445044Y-182491739D01*
X189456250Y-182543250D01*
X189456250Y-185901000D01*
X189436565Y-185968039D01*
X189383761Y-186013794D01*
X189332250Y-186025000D01*
X187305750Y-186025000D01*
X187238711Y-186005315D01*
X187192956Y-185952511D01*
X187181750Y-185901000D01*
X187181750Y-182543250D01*
X187201435Y-182476211D01*
X187254239Y-182430456D01*
X187305750Y-182419250D01*
X189332250Y-182419250D01*
X189399289Y-182438935D01*
G37*
G04 #@! TD.AperFunction*
G04 #@! TA.AperFunction,NonConductor*
G36*
X169399289Y-181044685D02*
G01*
X169445044Y-181097489D01*
X169456250Y-181149000D01*
X169456250Y-185901000D01*
X169436565Y-185968039D01*
X169383761Y-186013794D01*
X169332250Y-186025000D01*
X168255750Y-186025000D01*
X168188711Y-186005315D01*
X168142956Y-185952511D01*
X168131750Y-185901000D01*
X168131750Y-181149000D01*
X168151435Y-181081961D01*
X168204239Y-181036206D01*
X168255750Y-181025000D01*
X169332250Y-181025000D01*
X169399289Y-181044685D01*
G37*
G04 #@! TD.AperFunction*
G04 #@! TA.AperFunction,NonConductor*
G36*
X165573789Y-181044685D02*
G01*
X165619544Y-181097489D01*
X165630750Y-181149000D01*
X165630750Y-185901000D01*
X165611065Y-185968039D01*
X165558261Y-186013794D01*
X165506750Y-186025000D01*
X164580250Y-186025000D01*
X164513211Y-186005315D01*
X164467456Y-185952511D01*
X164456250Y-185901000D01*
X164456250Y-181149000D01*
X164475935Y-181081961D01*
X164528739Y-181036206D01*
X164580250Y-181025000D01*
X165506750Y-181025000D01*
X165573789Y-181044685D01*
G37*
G04 #@! TD.AperFunction*
G04 #@! TA.AperFunction,NonConductor*
G36*
X149399289Y-181044685D02*
G01*
X149445044Y-181097489D01*
X149456250Y-181149000D01*
X149456250Y-185901000D01*
X149436565Y-185968039D01*
X149383761Y-186013794D01*
X149332250Y-186025000D01*
X149205750Y-186025000D01*
X149138711Y-186005315D01*
X149092956Y-185952511D01*
X149081750Y-185901000D01*
X149081750Y-181149000D01*
X149101435Y-181081961D01*
X149154239Y-181036206D01*
X149205750Y-181025000D01*
X149332250Y-181025000D01*
X149399289Y-181044685D01*
G37*
G04 #@! TD.AperFunction*
G04 #@! TA.AperFunction,NonConductor*
G36*
X146523789Y-181044685D02*
G01*
X146569544Y-181097489D01*
X146580750Y-181149000D01*
X146580750Y-185901000D01*
X146561065Y-185968039D01*
X146508261Y-186013794D01*
X146456750Y-186025000D01*
X144580250Y-186025000D01*
X144513211Y-186005315D01*
X144467456Y-185952511D01*
X144456250Y-185901000D01*
X144456250Y-181149000D01*
X144475935Y-181081961D01*
X144528739Y-181036206D01*
X144580250Y-181025000D01*
X146456750Y-181025000D01*
X146523789Y-181044685D01*
G37*
G04 #@! TD.AperFunction*
G04 #@! TA.AperFunction,NonConductor*
G36*
X254399289Y-186044685D02*
G01*
X254445044Y-186097489D01*
X254456250Y-186149000D01*
X254456250Y-186550500D01*
X254436565Y-186617539D01*
X254383761Y-186663294D01*
X254332250Y-186674500D01*
X249580250Y-186674500D01*
X249513211Y-186654815D01*
X249467456Y-186602011D01*
X249456250Y-186550500D01*
X249456250Y-186149000D01*
X249475935Y-186081961D01*
X249528739Y-186036206D01*
X249580250Y-186025000D01*
X254332250Y-186025000D01*
X254399289Y-186044685D01*
G37*
G04 #@! TD.AperFunction*
G04 #@! TA.AperFunction,NonConductor*
G36*
X154399289Y-186044685D02*
G01*
X154445044Y-186097489D01*
X154456250Y-186149000D01*
X154456250Y-186550500D01*
X154436565Y-186617539D01*
X154383761Y-186663294D01*
X154332250Y-186674500D01*
X149580250Y-186674500D01*
X149513211Y-186654815D01*
X149467456Y-186602011D01*
X149456250Y-186550500D01*
X149456250Y-186149000D01*
X149475935Y-186081961D01*
X149528739Y-186036206D01*
X149580250Y-186025000D01*
X154332250Y-186025000D01*
X154399289Y-186044685D01*
G37*
G04 #@! TD.AperFunction*
G04 #@! TA.AperFunction,NonConductor*
G36*
X254399289Y-189195185D02*
G01*
X254445044Y-189247989D01*
X254456250Y-189299500D01*
X254456250Y-190901000D01*
X254436565Y-190968039D01*
X254383761Y-191013794D01*
X254332250Y-191025000D01*
X249580250Y-191025000D01*
X249513211Y-191005315D01*
X249467456Y-190952511D01*
X249456250Y-190901000D01*
X249456250Y-189299500D01*
X249475935Y-189232461D01*
X249528739Y-189186706D01*
X249580250Y-189175500D01*
X254332250Y-189175500D01*
X254399289Y-189195185D01*
G37*
G04 #@! TD.AperFunction*
G04 #@! TA.AperFunction,NonConductor*
G36*
X234399289Y-186044685D02*
G01*
X234445044Y-186097489D01*
X234456250Y-186149000D01*
X234456250Y-190901000D01*
X234436565Y-190968039D01*
X234383761Y-191013794D01*
X234332250Y-191025000D01*
X229580250Y-191025000D01*
X229513211Y-191005315D01*
X229467456Y-190952511D01*
X229456250Y-190901000D01*
X229456250Y-186149000D01*
X229475935Y-186081961D01*
X229528739Y-186036206D01*
X229580250Y-186025000D01*
X234332250Y-186025000D01*
X234399289Y-186044685D01*
G37*
G04 #@! TD.AperFunction*
G04 #@! TA.AperFunction,NonConductor*
G36*
X214399289Y-186044685D02*
G01*
X214445044Y-186097489D01*
X214456250Y-186149000D01*
X214456250Y-190901000D01*
X214436565Y-190968039D01*
X214383761Y-191013794D01*
X214332250Y-191025000D01*
X209580250Y-191025000D01*
X209513211Y-191005315D01*
X209467456Y-190952511D01*
X209456250Y-190901000D01*
X209456250Y-186149000D01*
X209475935Y-186081961D01*
X209528739Y-186036206D01*
X209580250Y-186025000D01*
X214332250Y-186025000D01*
X214399289Y-186044685D01*
G37*
G04 #@! TD.AperFunction*
G04 #@! TA.AperFunction,NonConductor*
G36*
X194399289Y-186044685D02*
G01*
X194445044Y-186097489D01*
X194456250Y-186149000D01*
X194456250Y-190901000D01*
X194436565Y-190968039D01*
X194383761Y-191013794D01*
X194332250Y-191025000D01*
X189580250Y-191025000D01*
X189513211Y-191005315D01*
X189467456Y-190952511D01*
X189456250Y-190901000D01*
X189456250Y-186149000D01*
X189475935Y-186081961D01*
X189528739Y-186036206D01*
X189580250Y-186025000D01*
X194332250Y-186025000D01*
X194399289Y-186044685D01*
G37*
G04 #@! TD.AperFunction*
G04 #@! TA.AperFunction,NonConductor*
G36*
X174399289Y-186044685D02*
G01*
X174445044Y-186097489D01*
X174456250Y-186149000D01*
X174456250Y-190901000D01*
X174436565Y-190968039D01*
X174383761Y-191013794D01*
X174332250Y-191025000D01*
X169580250Y-191025000D01*
X169513211Y-191005315D01*
X169467456Y-190952511D01*
X169456250Y-190901000D01*
X169456250Y-186149000D01*
X169475935Y-186081961D01*
X169528739Y-186036206D01*
X169580250Y-186025000D01*
X174332250Y-186025000D01*
X174399289Y-186044685D01*
G37*
G04 #@! TD.AperFunction*
G04 #@! TA.AperFunction,NonConductor*
G36*
X154399289Y-189195185D02*
G01*
X154445044Y-189247989D01*
X154456250Y-189299500D01*
X154456250Y-190901000D01*
X154436565Y-190968039D01*
X154383761Y-191013794D01*
X154332250Y-191025000D01*
X149580250Y-191025000D01*
X149513211Y-191005315D01*
X149467456Y-190952511D01*
X149456250Y-190901000D01*
X149456250Y-189299500D01*
X149475935Y-189232461D01*
X149528739Y-189186706D01*
X149580250Y-189175500D01*
X154332250Y-189175500D01*
X154399289Y-189195185D01*
G37*
G04 #@! TD.AperFunction*
G04 #@! TA.AperFunction,NonConductor*
G36*
X236623789Y-191044685D02*
G01*
X236669544Y-191097489D01*
X236680750Y-191149000D01*
X236680750Y-191313000D01*
X236661065Y-191380039D01*
X236608261Y-191425794D01*
X236556750Y-191437000D01*
X234580250Y-191437000D01*
X234513211Y-191417315D01*
X234467456Y-191364511D01*
X234456250Y-191313000D01*
X234456250Y-191149000D01*
X234475935Y-191081961D01*
X234528739Y-191036206D01*
X234580250Y-191025000D01*
X236556750Y-191025000D01*
X236623789Y-191044685D01*
G37*
G04 #@! TD.AperFunction*
G04 #@! TA.AperFunction,NonConductor*
G36*
X179399289Y-191044685D02*
G01*
X179445044Y-191097489D01*
X179456250Y-191149000D01*
X179456250Y-191313000D01*
X179436565Y-191380039D01*
X179383761Y-191425794D01*
X179332250Y-191437000D01*
X174580250Y-191437000D01*
X174513211Y-191417315D01*
X174467456Y-191364511D01*
X174456250Y-191313000D01*
X174456250Y-191149000D01*
X174475935Y-191081961D01*
X174528739Y-191036206D01*
X174580250Y-191025000D01*
X179332250Y-191025000D01*
X179399289Y-191044685D01*
G37*
G04 #@! TD.AperFunction*
G04 #@! TA.AperFunction,NonConductor*
G36*
X259399289Y-191044685D02*
G01*
X259445044Y-191097489D01*
X259456250Y-191149000D01*
X259456250Y-191700005D01*
X259448355Y-191743544D01*
X259239576Y-192300289D01*
X259197606Y-192356149D01*
X259132098Y-192380450D01*
X259123471Y-192380750D01*
X254580250Y-192380750D01*
X254513211Y-192361065D01*
X254467456Y-192308261D01*
X254456250Y-192256750D01*
X254456250Y-191149000D01*
X254475935Y-191081961D01*
X254528739Y-191036206D01*
X254580250Y-191025000D01*
X259332250Y-191025000D01*
X259399289Y-191044685D01*
G37*
G04 #@! TD.AperFunction*
G04 #@! TA.AperFunction,NonConductor*
G36*
X159399289Y-191044685D02*
G01*
X159445044Y-191097489D01*
X159456250Y-191149000D01*
X159456250Y-193577194D01*
X159436565Y-193644233D01*
X159383761Y-193689988D01*
X159314603Y-193699932D01*
X159263467Y-193680368D01*
X157491578Y-192499109D01*
X157472680Y-192483616D01*
X157469816Y-192480752D01*
X157469810Y-192480747D01*
X157430159Y-192457854D01*
X157423379Y-192453643D01*
X157385302Y-192428259D01*
X157385296Y-192428256D01*
X157381459Y-192426958D01*
X157359203Y-192416888D01*
X157355686Y-192414858D01*
X157355683Y-192414857D01*
X157355681Y-192414856D01*
X157355682Y-192414856D01*
X157311472Y-192403010D01*
X157303832Y-192400697D01*
X157260472Y-192386029D01*
X157260462Y-192386027D01*
X157256403Y-192385765D01*
X157232315Y-192381800D01*
X157228400Y-192380751D01*
X157228393Y-192380750D01*
X157228392Y-192380750D01*
X157228389Y-192380750D01*
X157182619Y-192380750D01*
X157174639Y-192380493D01*
X157128956Y-192377546D01*
X157128955Y-192377547D01*
X157124981Y-192378342D01*
X157100663Y-192380750D01*
X154580250Y-192380750D01*
X154513211Y-192361065D01*
X154467456Y-192308261D01*
X154456250Y-192256750D01*
X154456250Y-191149000D01*
X154475935Y-191081961D01*
X154528739Y-191036206D01*
X154580250Y-191025000D01*
X159332250Y-191025000D01*
X159399289Y-191044685D01*
G37*
G04 #@! TD.AperFunction*
G04 #@! TA.AperFunction,NonConductor*
G36*
X217573789Y-191044685D02*
G01*
X217619544Y-191097489D01*
X217630750Y-191149000D01*
X217630750Y-193694250D01*
X217611065Y-193761289D01*
X217558261Y-193807044D01*
X217506750Y-193818250D01*
X214580250Y-193818250D01*
X214513211Y-193798565D01*
X214467456Y-193745761D01*
X214456250Y-193694250D01*
X214456250Y-191149000D01*
X214475935Y-191081961D01*
X214528739Y-191036206D01*
X214580250Y-191025000D01*
X217506750Y-191025000D01*
X217573789Y-191044685D01*
G37*
G04 #@! TD.AperFunction*
G04 #@! TA.AperFunction,NonConductor*
G36*
X198523789Y-191044685D02*
G01*
X198569544Y-191097489D01*
X198580750Y-191149000D01*
X198580750Y-193694250D01*
X198561065Y-193761289D01*
X198508261Y-193807044D01*
X198456750Y-193818250D01*
X194580250Y-193818250D01*
X194513211Y-193798565D01*
X194467456Y-193745761D01*
X194456250Y-193694250D01*
X194456250Y-191149000D01*
X194475935Y-191081961D01*
X194528739Y-191036206D01*
X194580250Y-191025000D01*
X198456750Y-191025000D01*
X198523789Y-191044685D01*
G37*
G04 #@! TD.AperFunction*
G04 #@! TA.AperFunction,NonConductor*
G36*
X239399289Y-191044685D02*
G01*
X239445044Y-191097489D01*
X239456250Y-191149000D01*
X239456250Y-195901000D01*
X239436565Y-195968039D01*
X239383761Y-196013794D01*
X239332250Y-196025000D01*
X234580250Y-196025000D01*
X234513211Y-196005315D01*
X234467456Y-195952511D01*
X234456250Y-195901000D01*
X234456250Y-194062000D01*
X234475935Y-193994961D01*
X234528739Y-193949206D01*
X234580250Y-193938000D01*
X238029672Y-193938000D01*
X238224076Y-193907209D01*
X238411275Y-193846384D01*
X238586655Y-193757024D01*
X238745896Y-193641328D01*
X238885078Y-193502146D01*
X239000774Y-193342905D01*
X239090134Y-193167525D01*
X239150959Y-192980326D01*
X239181750Y-192785922D01*
X239181750Y-191149000D01*
X239201435Y-191081961D01*
X239254239Y-191036206D01*
X239305750Y-191025000D01*
X239332250Y-191025000D01*
X239399289Y-191044685D01*
G37*
G04 #@! TD.AperFunction*
G04 #@! TA.AperFunction,NonConductor*
G36*
X179399289Y-193957685D02*
G01*
X179445044Y-194010489D01*
X179456250Y-194062000D01*
X179456250Y-195901000D01*
X179436565Y-195968039D01*
X179383761Y-196013794D01*
X179332250Y-196025000D01*
X174580250Y-196025000D01*
X174513211Y-196005315D01*
X174467456Y-195952511D01*
X174456250Y-195901000D01*
X174456250Y-194062000D01*
X174475935Y-193994961D01*
X174528739Y-193949206D01*
X174580250Y-193938000D01*
X179332250Y-193938000D01*
X179399289Y-193957685D01*
G37*
G04 #@! TD.AperFunction*
G04 #@! TA.AperFunction,NonConductor*
G36*
X164399289Y-196044685D02*
G01*
X164445044Y-196097489D01*
X164456250Y-196149000D01*
X164456250Y-196910527D01*
X164436565Y-196977566D01*
X164383761Y-197023321D01*
X164314603Y-197033265D01*
X164263467Y-197013701D01*
X163850727Y-196738541D01*
X163121174Y-196252173D01*
X163076314Y-196198609D01*
X163067534Y-196129293D01*
X163097623Y-196066234D01*
X163157027Y-196029453D01*
X163189958Y-196025000D01*
X164332250Y-196025000D01*
X164399289Y-196044685D01*
G37*
G04 #@! TD.AperFunction*
G04 #@! TA.AperFunction,NonConductor*
G36*
X241689581Y-196044685D02*
G01*
X241735336Y-196097489D01*
X241745280Y-196166647D01*
X241716255Y-196230203D01*
X241691325Y-196252174D01*
X241648529Y-196280705D01*
X240703796Y-196910527D01*
X240385950Y-197122424D01*
X240319251Y-197143232D01*
X240317167Y-197143250D01*
X239580250Y-197143250D01*
X239513211Y-197123565D01*
X239467456Y-197070761D01*
X239456250Y-197019250D01*
X239456250Y-196149000D01*
X239475935Y-196081961D01*
X239528739Y-196036206D01*
X239580250Y-196025000D01*
X241622542Y-196025000D01*
X241689581Y-196044685D01*
G37*
G04 #@! TD.AperFunction*
G04 #@! TA.AperFunction,NonConductor*
G36*
X224399289Y-196044685D02*
G01*
X224445044Y-196097489D01*
X224456250Y-196149000D01*
X224456250Y-197019250D01*
X224436565Y-197086289D01*
X224383761Y-197132044D01*
X224332250Y-197143250D01*
X223771608Y-197143250D01*
X223644312Y-197177358D01*
X223530186Y-197243250D01*
X223530183Y-197243252D01*
X221285255Y-199488181D01*
X221223932Y-199521666D01*
X221197574Y-199524500D01*
X219580250Y-199524500D01*
X219513211Y-199504815D01*
X219467456Y-199452011D01*
X219456250Y-199400500D01*
X219456250Y-196255229D01*
X219475935Y-196188190D01*
X219523956Y-196144743D01*
X219536655Y-196138274D01*
X219659967Y-196048682D01*
X219725774Y-196025202D01*
X219732853Y-196025000D01*
X224332250Y-196025000D01*
X224399289Y-196044685D01*
G37*
G04 #@! TD.AperFunction*
G04 #@! TA.AperFunction,NonConductor*
G36*
X204196686Y-196044685D02*
G01*
X204202533Y-196048682D01*
X204325845Y-196138274D01*
X204388545Y-196170220D01*
X204439340Y-196218193D01*
X204456250Y-196280705D01*
X204456250Y-199400500D01*
X204436565Y-199467539D01*
X204383761Y-199513294D01*
X204332250Y-199524500D01*
X199580250Y-199524500D01*
X199513211Y-199504815D01*
X199467456Y-199452011D01*
X199456250Y-199400500D01*
X199456250Y-196443250D01*
X199475935Y-196376211D01*
X199528739Y-196330456D01*
X199580250Y-196319250D01*
X199929672Y-196319250D01*
X200124076Y-196288459D01*
X200147940Y-196280705D01*
X200311275Y-196227634D01*
X200486655Y-196138274D01*
X200609967Y-196048682D01*
X200675774Y-196025202D01*
X200682853Y-196025000D01*
X204129647Y-196025000D01*
X204196686Y-196044685D01*
G37*
G04 #@! TD.AperFunction*
G04 #@! TA.AperFunction,NonConductor*
G36*
X184399289Y-196044685D02*
G01*
X184445044Y-196097489D01*
X184456250Y-196149000D01*
X184456250Y-199400500D01*
X184436565Y-199467539D01*
X184383761Y-199513294D01*
X184332250Y-199524500D01*
X183614926Y-199524500D01*
X183547887Y-199504815D01*
X183527245Y-199488181D01*
X181282316Y-197243252D01*
X181282314Y-197243250D01*
X181225250Y-197210304D01*
X181168187Y-197177358D01*
X181104539Y-197160304D01*
X181040892Y-197143250D01*
X181040891Y-197143250D01*
X179580250Y-197143250D01*
X179513211Y-197123565D01*
X179467456Y-197070761D01*
X179456250Y-197019250D01*
X179456250Y-196149000D01*
X179475935Y-196081961D01*
X179528739Y-196036206D01*
X179580250Y-196025000D01*
X184332250Y-196025000D01*
X184399289Y-196044685D01*
G37*
G04 #@! TD.AperFunction*
M02*
