G04 #@! TF.GenerationSoftware,KiCad,Pcbnew,8.0.4*
G04 #@! TF.CreationDate,2024-09-08T19:46:39+09:00*
G04 #@! TF.ProjectId,first_keyboard,66697273-745f-46b6-9579-626f6172642e,rev?*
G04 #@! TF.SameCoordinates,Original*
G04 #@! TF.FileFunction,Profile,NP*
%FSLAX46Y46*%
G04 Gerber Fmt 4.6, Leading zero omitted, Abs format (unit mm)*
G04 Created by KiCad (PCBNEW 8.0.4) date 2024-09-08 19:46:39*
%MOMM*%
%LPD*%
G01*
G04 APERTURE LIST*
G04 #@! TA.AperFunction,Profile*
%ADD10C,0.100000*%
G04 #@! TD*
G04 #@! TA.AperFunction,Profile*
%ADD11C,0.050000*%
G04 #@! TD*
G04 #@! TA.AperFunction,Profile*
%ADD12C,0.150000*%
G04 #@! TD*
G04 #@! TA.AperFunction,Profile*
%ADD13C,0.120000*%
G04 #@! TD*
G04 APERTURE END LIST*
D10*
X323850000Y-116681250D02*
X335756250Y-116681250D01*
X69056250Y-178593750D02*
X88106250Y-178593750D01*
X247650000Y-192881250D02*
X259556250Y-192881250D01*
X221456250Y-200025000D02*
X223837500Y-197643750D01*
X80962500Y-116681250D02*
X69056250Y-116681250D01*
X66675000Y-119062500D02*
X66675000Y-176212500D01*
D11*
X185737500Y-116681250D02*
X171450000Y-116681250D01*
X188118750Y-171450000D02*
X188118750Y-119062500D01*
X214312500Y-173831250D02*
X190500000Y-173831250D01*
X185737500Y-116681250D02*
X188118750Y-119062500D01*
D10*
X266700000Y-173831250D02*
X309562500Y-173831250D01*
X164306250Y-197643750D02*
X180975000Y-197643750D01*
X240506250Y-111918750D02*
X233362500Y-116681250D01*
X95250000Y-173831250D02*
X138112500Y-173831250D01*
X171450000Y-116681250D02*
X164306250Y-111918750D01*
X338137500Y-176212500D02*
X335756250Y-178593750D01*
X309562500Y-173831250D02*
X316706250Y-178593750D01*
X88106250Y-178593750D02*
X95250000Y-173831250D01*
X69056250Y-116681250D02*
X66675000Y-119062500D01*
X316706250Y-111918750D02*
X323850000Y-116681250D01*
X338137500Y-119062500D02*
X338137500Y-176212500D01*
D11*
X188118750Y-171450000D02*
X190500000Y-173831250D01*
D10*
X66675000Y-176212500D02*
X69056250Y-178593750D01*
X138112500Y-173831250D02*
X145256250Y-192881250D01*
X240506250Y-111918750D02*
X316706250Y-111918750D01*
X240506250Y-197643750D02*
X247650000Y-192881250D01*
D11*
X219075000Y-116681250D02*
X216693750Y-119062500D01*
D10*
X183356250Y-200025000D02*
X221456250Y-200025000D01*
X223837500Y-197643750D02*
X240506250Y-197643750D01*
X157162500Y-192881250D02*
X164306250Y-197643750D01*
X145256250Y-192881250D02*
X157162500Y-192881250D01*
X335756250Y-116681250D02*
X338137500Y-119062500D01*
X259556250Y-192881250D02*
X266700000Y-173831250D01*
D11*
X216693750Y-171450000D02*
X214312500Y-173831250D01*
D10*
X80962500Y-116681250D02*
X88106250Y-111918750D01*
X233362500Y-116681250D02*
X219075000Y-116681250D01*
X180975000Y-197643750D02*
X183356250Y-200025000D01*
D11*
X216693750Y-119062500D02*
X216693750Y-171450000D01*
D10*
X335756250Y-178593750D02*
X316706250Y-178593750D01*
X164306250Y-111918750D02*
X88106250Y-111918750D01*
D12*
X185831250Y-181068750D02*
X199931250Y-181068750D01*
X185831250Y-195168750D02*
X185831250Y-181068750D01*
X199931250Y-181068750D02*
X199931250Y-195168750D01*
X199931250Y-195168750D02*
X185831250Y-195168750D01*
X223931250Y-140587500D02*
X238031250Y-140587500D01*
X223931250Y-154687500D02*
X223931250Y-140587500D01*
X238031250Y-140587500D02*
X238031250Y-154687500D01*
X238031250Y-154687500D02*
X223931250Y-154687500D01*
X223931250Y-178687500D02*
X238031250Y-178687500D01*
X223931250Y-192787500D02*
X223931250Y-178687500D01*
X238031250Y-178687500D02*
X238031250Y-192787500D01*
X238031250Y-192787500D02*
X223931250Y-192787500D01*
X147731250Y-173925000D02*
X161831250Y-173925000D01*
X147731250Y-188025000D02*
X147731250Y-173925000D01*
X161831250Y-173925000D02*
X161831250Y-188025000D01*
X161831250Y-188025000D02*
X147731250Y-188025000D01*
X300131250Y-154875000D02*
X314231250Y-154875000D01*
X300131250Y-168975000D02*
X300131250Y-154875000D01*
X314231250Y-154875000D02*
X314231250Y-168975000D01*
X314231250Y-168975000D02*
X300131250Y-168975000D01*
X223931250Y-121537500D02*
X238031250Y-121537500D01*
X223931250Y-135637500D02*
X223931250Y-121537500D01*
X238031250Y-121537500D02*
X238031250Y-135637500D01*
X238031250Y-135637500D02*
X223931250Y-135637500D01*
X262031250Y-135825000D02*
X276131250Y-135825000D01*
X262031250Y-149925000D02*
X262031250Y-135825000D01*
X276131250Y-135825000D02*
X276131250Y-149925000D01*
X276131250Y-149925000D02*
X262031250Y-149925000D01*
X71531250Y-121537500D02*
X85631250Y-121537500D01*
X71531250Y-135637500D02*
X71531250Y-121537500D01*
X85631250Y-121537500D02*
X85631250Y-135637500D01*
X85631250Y-135637500D02*
X71531250Y-135637500D01*
X166781250Y-121537500D02*
X180881250Y-121537500D01*
X166781250Y-135637500D02*
X166781250Y-121537500D01*
X180881250Y-121537500D02*
X180881250Y-135637500D01*
X180881250Y-135637500D02*
X166781250Y-135637500D01*
X109631250Y-154875000D02*
X123731250Y-154875000D01*
X109631250Y-168975000D02*
X109631250Y-154875000D01*
X123731250Y-154875000D02*
X123731250Y-168975000D01*
X123731250Y-168975000D02*
X109631250Y-168975000D01*
X166781250Y-140587500D02*
X180881250Y-140587500D01*
X166781250Y-154687500D02*
X166781250Y-140587500D01*
X180881250Y-140587500D02*
X180881250Y-154687500D01*
X180881250Y-154687500D02*
X166781250Y-154687500D01*
X242981250Y-135825000D02*
X257081250Y-135825000D01*
X242981250Y-149925000D02*
X242981250Y-135825000D01*
X257081250Y-135825000D02*
X257081250Y-149925000D01*
X257081250Y-149925000D02*
X242981250Y-149925000D01*
X90581250Y-116775000D02*
X104681250Y-116775000D01*
X90581250Y-130875000D02*
X90581250Y-116775000D01*
X104681250Y-116775000D02*
X104681250Y-130875000D01*
X104681250Y-130875000D02*
X90581250Y-130875000D01*
X281081250Y-116775000D02*
X295181250Y-116775000D01*
X281081250Y-130875000D02*
X281081250Y-116775000D01*
X295181250Y-116775000D02*
X295181250Y-130875000D01*
X295181250Y-130875000D02*
X281081250Y-130875000D01*
X147731250Y-116775000D02*
X161831250Y-116775000D01*
X147731250Y-130875000D02*
X147731250Y-116775000D01*
X161831250Y-116775000D02*
X161831250Y-130875000D01*
X161831250Y-130875000D02*
X147731250Y-130875000D01*
X242981250Y-154875000D02*
X257081250Y-154875000D01*
X242981250Y-168975000D02*
X242981250Y-154875000D01*
X257081250Y-154875000D02*
X257081250Y-168975000D01*
X257081250Y-168975000D02*
X242981250Y-168975000D01*
X319181250Y-150112500D02*
X333281250Y-150112500D01*
X319181250Y-164212500D02*
X319181250Y-150112500D01*
D13*
X320231250Y-141762500D02*
X320231250Y-148762500D01*
X320231250Y-148762500D02*
X335031250Y-148762500D01*
X320231250Y-165562500D02*
X335031250Y-165562500D01*
X320231250Y-172562500D02*
X320231250Y-165562500D01*
D12*
X333281250Y-150112500D02*
X333281250Y-164212500D01*
X333281250Y-164212500D02*
X319181250Y-164212500D01*
D13*
X335031250Y-141762500D02*
X320231250Y-141762500D01*
X335031250Y-148762500D02*
X335031250Y-141762500D01*
X335031250Y-165562500D02*
X335031250Y-172562500D01*
X335031250Y-172562500D02*
X320231250Y-172562500D01*
D12*
X281081250Y-135825000D02*
X295181250Y-135825000D01*
X281081250Y-149925000D02*
X281081250Y-135825000D01*
X295181250Y-135825000D02*
X295181250Y-149925000D01*
X295181250Y-149925000D02*
X281081250Y-149925000D01*
X300131250Y-116775000D02*
X314231250Y-116775000D01*
X300131250Y-130875000D02*
X300131250Y-116775000D01*
X314231250Y-116775000D02*
X314231250Y-130875000D01*
X314231250Y-130875000D02*
X300131250Y-130875000D01*
X319181250Y-121537500D02*
X333281250Y-121537500D01*
X319181250Y-135637500D02*
X319181250Y-121537500D01*
X333281250Y-121537500D02*
X333281250Y-135637500D01*
X333281250Y-135637500D02*
X319181250Y-135637500D01*
X71531250Y-159637500D02*
X85631250Y-159637500D01*
X71531250Y-173737500D02*
X71531250Y-159637500D01*
X85631250Y-159637500D02*
X85631250Y-173737500D01*
X85631250Y-173737500D02*
X71531250Y-173737500D01*
X71531250Y-140587500D02*
X85631250Y-140587500D01*
X71531250Y-154687500D02*
X71531250Y-140587500D01*
X85631250Y-140587500D02*
X85631250Y-154687500D01*
X85631250Y-154687500D02*
X71531250Y-154687500D01*
X166781250Y-178687500D02*
X180881250Y-178687500D01*
X166781250Y-192787500D02*
X166781250Y-178687500D01*
X180881250Y-178687500D02*
X180881250Y-192787500D01*
X180881250Y-192787500D02*
X166781250Y-192787500D01*
X109631250Y-116775000D02*
X123731250Y-116775000D01*
X109631250Y-130875000D02*
X109631250Y-116775000D01*
X123731250Y-116775000D02*
X123731250Y-130875000D01*
X123731250Y-130875000D02*
X109631250Y-130875000D01*
X242981250Y-116775000D02*
X257081250Y-116775000D01*
X242981250Y-130875000D02*
X242981250Y-116775000D01*
X257081250Y-116775000D02*
X257081250Y-130875000D01*
X257081250Y-130875000D02*
X242981250Y-130875000D01*
X90581250Y-154875000D02*
X104681250Y-154875000D01*
X90581250Y-168975000D02*
X90581250Y-154875000D01*
X104681250Y-154875000D02*
X104681250Y-168975000D01*
X104681250Y-168975000D02*
X90581250Y-168975000D01*
X223931250Y-159637500D02*
X238031250Y-159637500D01*
X223931250Y-173737500D02*
X223931250Y-159637500D01*
X238031250Y-159637500D02*
X238031250Y-173737500D01*
X238031250Y-173737500D02*
X223931250Y-173737500D01*
X300131250Y-135825000D02*
X314231250Y-135825000D01*
X300131250Y-149925000D02*
X300131250Y-135825000D01*
X314231250Y-135825000D02*
X314231250Y-149925000D01*
X314231250Y-149925000D02*
X300131250Y-149925000D01*
X128681250Y-135825000D02*
X142781250Y-135825000D01*
X128681250Y-149925000D02*
X128681250Y-135825000D01*
X142781250Y-135825000D02*
X142781250Y-149925000D01*
X142781250Y-149925000D02*
X128681250Y-149925000D01*
X281081250Y-154875000D02*
X295181250Y-154875000D01*
X281081250Y-168975000D02*
X281081250Y-154875000D01*
X295181250Y-154875000D02*
X295181250Y-168975000D01*
X295181250Y-168975000D02*
X281081250Y-168975000D01*
X262031250Y-154875000D02*
X276131250Y-154875000D01*
X262031250Y-168975000D02*
X262031250Y-154875000D01*
X276131250Y-154875000D02*
X276131250Y-168975000D01*
X276131250Y-168975000D02*
X262031250Y-168975000D01*
X128681250Y-116775000D02*
X142781250Y-116775000D01*
X128681250Y-130875000D02*
X128681250Y-116775000D01*
X142781250Y-116775000D02*
X142781250Y-130875000D01*
X142781250Y-130875000D02*
X128681250Y-130875000D01*
X147731250Y-154875000D02*
X161831250Y-154875000D01*
X147731250Y-168975000D02*
X147731250Y-154875000D01*
X161831250Y-154875000D02*
X161831250Y-168975000D01*
X161831250Y-168975000D02*
X147731250Y-168975000D01*
X204881250Y-181068750D02*
X218981250Y-181068750D01*
X204881250Y-195168750D02*
X204881250Y-181068750D01*
X218981250Y-181068750D02*
X218981250Y-195168750D01*
X218981250Y-195168750D02*
X204881250Y-195168750D01*
X166781250Y-159637500D02*
X180881250Y-159637500D01*
X166781250Y-173737500D02*
X166781250Y-159637500D01*
X180881250Y-159637500D02*
X180881250Y-173737500D01*
X180881250Y-173737500D02*
X166781250Y-173737500D01*
X128681250Y-154875000D02*
X142781250Y-154875000D01*
X128681250Y-168975000D02*
X128681250Y-154875000D01*
X142781250Y-154875000D02*
X142781250Y-168975000D01*
X142781250Y-168975000D02*
X128681250Y-168975000D01*
X147731250Y-135825000D02*
X161831250Y-135825000D01*
X147731250Y-149925000D02*
X147731250Y-135825000D01*
X161831250Y-135825000D02*
X161831250Y-149925000D01*
X161831250Y-149925000D02*
X147731250Y-149925000D01*
X262031250Y-116775000D02*
X276131250Y-116775000D01*
X262031250Y-130875000D02*
X262031250Y-116775000D01*
X276131250Y-116775000D02*
X276131250Y-130875000D01*
X276131250Y-130875000D02*
X262031250Y-130875000D01*
X90581250Y-135825000D02*
X104681250Y-135825000D01*
X90581250Y-149925000D02*
X90581250Y-135825000D01*
X104681250Y-135825000D02*
X104681250Y-149925000D01*
X104681250Y-149925000D02*
X90581250Y-149925000D01*
X242981250Y-173925000D02*
X257081250Y-173925000D01*
X242981250Y-188025000D02*
X242981250Y-173925000D01*
X257081250Y-173925000D02*
X257081250Y-188025000D01*
X257081250Y-188025000D02*
X242981250Y-188025000D01*
X109631250Y-135825000D02*
X123731250Y-135825000D01*
X109631250Y-149925000D02*
X109631250Y-135825000D01*
X123731250Y-135825000D02*
X123731250Y-149925000D01*
X123731250Y-149925000D02*
X109631250Y-149925000D01*
M02*
