G04 #@! TF.GenerationSoftware,KiCad,Pcbnew,9.0.6*
G04 #@! TF.CreationDate,2025-12-01T16:12:35+09:00*
G04 #@! TF.ProjectId,first_keyboard_top,66697273-745f-46b6-9579-626f6172645f,rev?*
G04 #@! TF.SameCoordinates,Original*
G04 #@! TF.FileFunction,Copper,L1,Top*
G04 #@! TF.FilePolarity,Positive*
%FSLAX46Y46*%
G04 Gerber Fmt 4.6, Leading zero omitted, Abs format (unit mm)*
G04 Created by KiCad (PCBNEW 9.0.6) date 2025-12-01 16:12:35*
%MOMM*%
%LPD*%
G01*
G04 APERTURE LIST*
G04 #@! TA.AperFunction,EtchedComponent*
%ADD10C,0.000000*%
G04 #@! TD*
G04 APERTURE END LIST*
D10*
G04 #@! TA.AperFunction,EtchedComponent*
G36*
X251317179Y-129116985D02*
G01*
X251112550Y-129357779D01*
X250835682Y-129652486D01*
X250357460Y-130140806D01*
X250116381Y-130340414D01*
X250090860Y-130263549D01*
X250214647Y-130004664D01*
X250520540Y-129637088D01*
X250965770Y-129283713D01*
X251264239Y-129103672D01*
X251317179Y-129116985D01*
G37*
G04 #@! TD.AperFunction*
G04 #@! TA.AperFunction,EtchedComponent*
G36*
X250611344Y-127701975D02*
G01*
X250626562Y-127767488D01*
X250789778Y-127970801D01*
X250945697Y-128027246D01*
X251052031Y-128137687D01*
X250917988Y-128410493D01*
X250518602Y-128889488D01*
X250350384Y-129072364D01*
X249896900Y-129535134D01*
X249569723Y-129823810D01*
X249436313Y-129879220D01*
X249435937Y-129874481D01*
X249564380Y-129642235D01*
X249893738Y-129240076D01*
X250170741Y-128943132D01*
X250576644Y-128492187D01*
X250694576Y-128254080D01*
X250567616Y-128190625D01*
X250268199Y-128072473D01*
X250285412Y-127821869D01*
X250428125Y-127694531D01*
X250611344Y-127701975D01*
G37*
G04 #@! TD.AperFunction*
G04 #@! TA.AperFunction,EtchedComponent*
G36*
X249207898Y-128797001D02*
G01*
X249027468Y-129139371D01*
X248933532Y-129270349D01*
X248717450Y-129509357D01*
X248644913Y-129422668D01*
X248642187Y-129344256D01*
X248783777Y-128961992D01*
X248939843Y-128785937D01*
X249178980Y-128656885D01*
X249207898Y-128797001D01*
G37*
G04 #@! TD.AperFunction*
G04 #@! TA.AperFunction,EtchedComponent*
G36*
X252387442Y-128559299D02*
G01*
X252375093Y-128600501D01*
X252193540Y-128784530D01*
X251894338Y-128916818D01*
X251657515Y-128932127D01*
X251618750Y-128874579D01*
X251770728Y-128735849D01*
X252038584Y-128575212D01*
X252341070Y-128449249D01*
X252387442Y-128559299D01*
G37*
G04 #@! TD.AperFunction*
G04 #@! TA.AperFunction,EtchedComponent*
G36*
X271747660Y-97661580D02*
G01*
X271748242Y-98133282D01*
X271739410Y-98172595D01*
X271585955Y-98643069D01*
X271436880Y-98911171D01*
X271293919Y-99252368D01*
X271267101Y-99506484D01*
X271300175Y-99770406D01*
X271423978Y-99668693D01*
X271454748Y-99621371D01*
X271659641Y-99394425D01*
X271751538Y-99480612D01*
X271718565Y-99809290D01*
X271564323Y-100273314D01*
X271323909Y-100933841D01*
X271291674Y-101285788D01*
X271467547Y-101358423D01*
X271561718Y-101329802D01*
X271811244Y-101345694D01*
X271823827Y-101670137D01*
X271600652Y-102294179D01*
X271370182Y-102777005D01*
X271070171Y-103470967D01*
X270857446Y-104149944D01*
X270805241Y-104429768D01*
X270672703Y-104922279D01*
X270379476Y-105655692D01*
X269968018Y-106549391D01*
X269480789Y-107522761D01*
X268960249Y-108495186D01*
X268448855Y-109386052D01*
X267989069Y-110114743D01*
X267623348Y-110600643D01*
X267487956Y-110728125D01*
X267327604Y-110976308D01*
X267198730Y-111307654D01*
X267007590Y-111633142D01*
X266596970Y-112167309D01*
X266026682Y-112836863D01*
X265356537Y-113568514D01*
X265336438Y-113589686D01*
X264472318Y-114511678D01*
X263863414Y-115199307D01*
X263481232Y-115695734D01*
X263297279Y-116044120D01*
X263283063Y-116287624D01*
X263410089Y-116469408D01*
X263426245Y-116483197D01*
X263617860Y-116882220D01*
X263598901Y-117254320D01*
X263591548Y-117688227D01*
X263859904Y-117954909D01*
X264004199Y-118026508D01*
X264376229Y-118251896D01*
X264517187Y-118438635D01*
X264398966Y-118705068D01*
X264015649Y-118894354D01*
X263324258Y-119018923D01*
X262281811Y-119091203D01*
X262257118Y-119092199D01*
X261406928Y-119118753D01*
X260862727Y-119105092D01*
X260534350Y-119034919D01*
X260331632Y-118891935D01*
X260203830Y-118721038D01*
X259802761Y-118371323D01*
X259240291Y-118153005D01*
X259239290Y-118152817D01*
X258789065Y-118023148D01*
X258568539Y-117870924D01*
X258564062Y-117849790D01*
X258392479Y-117722640D01*
X258008437Y-117673437D01*
X257512617Y-117593026D01*
X257214687Y-117435312D01*
X257014357Y-117298287D01*
X256976562Y-117334486D01*
X256814491Y-117353326D01*
X256406692Y-117238788D01*
X256199657Y-117160930D01*
X255352991Y-116918876D01*
X254717667Y-116939953D01*
X254332254Y-117217303D01*
X254236267Y-117510087D01*
X254124885Y-117963670D01*
X253870551Y-118249872D01*
X253403262Y-118398493D01*
X252653015Y-118439333D01*
X252084045Y-118426263D01*
X251300562Y-118387335D01*
X250833657Y-118327468D01*
X250603040Y-118223232D01*
X250528421Y-118051198D01*
X250524305Y-117971093D01*
X250450712Y-117521698D01*
X250372240Y-117339883D01*
X250350164Y-117091983D01*
X250643400Y-116853004D01*
X251290228Y-116592372D01*
X251321093Y-116582031D01*
X251701712Y-116391961D01*
X251822292Y-116198158D01*
X251817187Y-116185156D01*
X251721662Y-116067737D01*
X251524091Y-116018979D01*
X251127612Y-116033378D01*
X250435360Y-116105433D01*
X250428125Y-116106255D01*
X249964275Y-116131712D01*
X249772587Y-116003557D01*
X249749983Y-115788281D01*
X250428125Y-115788281D01*
X250527343Y-115887500D01*
X250626562Y-115788281D01*
X250527343Y-115689062D01*
X250428125Y-115788281D01*
X249749983Y-115788281D01*
X249733681Y-115633027D01*
X249733593Y-115589843D01*
X249755342Y-115490625D01*
X250031250Y-115490625D01*
X250103855Y-115653961D01*
X250163541Y-115622916D01*
X250187290Y-115387417D01*
X250163541Y-115358333D01*
X250045570Y-115385572D01*
X250031250Y-115490625D01*
X249755342Y-115490625D01*
X249848086Y-115067529D01*
X250180078Y-114798647D01*
X250490853Y-114565037D01*
X250614790Y-114146715D01*
X250626562Y-113841895D01*
X250609254Y-113369760D01*
X250530048Y-113230263D01*
X250348024Y-113359726D01*
X250328906Y-113378683D01*
X250082021Y-113763739D01*
X250031250Y-113988169D01*
X249928361Y-114261216D01*
X249832812Y-114300000D01*
X249642700Y-114453076D01*
X249634375Y-114514418D01*
X249528251Y-114806503D01*
X249258515Y-115280770D01*
X248898118Y-115831209D01*
X248520011Y-116351806D01*
X248197145Y-116736550D01*
X248006736Y-116879687D01*
X247911237Y-116798859D01*
X247883465Y-116526064D01*
X247928021Y-116015840D01*
X248049503Y-115222722D01*
X248116618Y-114851958D01*
X248642187Y-114851958D01*
X248658205Y-115210916D01*
X248751327Y-115207518D01*
X248911608Y-114989075D01*
X249150406Y-114547756D01*
X249402589Y-113947605D01*
X249454065Y-113803906D01*
X249625529Y-113263650D01*
X249722513Y-112877272D01*
X249730348Y-112811718D01*
X249865798Y-112540752D01*
X250124103Y-112254843D01*
X250377069Y-111971114D01*
X250329078Y-111790956D01*
X250223322Y-111715090D01*
X249966153Y-111673156D01*
X249802983Y-111974308D01*
X249700704Y-112210908D01*
X249654155Y-112142499D01*
X249581046Y-111973054D01*
X249345022Y-112110319D01*
X249336718Y-112117187D01*
X249127761Y-112503338D01*
X249039853Y-113147565D01*
X249039062Y-113221180D01*
X248996837Y-113774208D01*
X248890835Y-114141781D01*
X248840625Y-114200781D01*
X248692019Y-114471841D01*
X248642187Y-114851958D01*
X248116618Y-114851958D01*
X248252511Y-114101246D01*
X248327946Y-113704687D01*
X248463791Y-112862744D01*
X248540411Y-112108567D01*
X248545936Y-111572203D01*
X248531749Y-111472265D01*
X248504090Y-111081973D01*
X248603276Y-110926562D01*
X248799009Y-110760585D01*
X248903343Y-110509721D01*
X249078289Y-110236605D01*
X249291605Y-110281732D01*
X249427519Y-110597629D01*
X249435937Y-110728125D01*
X249546746Y-111114609D01*
X249668097Y-111245060D01*
X249817113Y-111254677D01*
X249773543Y-111058333D01*
X249763214Y-110783886D01*
X249860271Y-110728125D01*
X249982047Y-110581459D01*
X249948719Y-110402401D01*
X249900421Y-110188597D01*
X250076985Y-110287193D01*
X250111204Y-110315261D01*
X250528548Y-110490658D01*
X250738128Y-110492157D01*
X251028708Y-110585120D01*
X251144176Y-110905529D01*
X251060558Y-111313860D01*
X250916519Y-111530382D01*
X250738024Y-111889502D01*
X250794686Y-112404779D01*
X250818212Y-112490395D01*
X250929569Y-113056941D01*
X251015732Y-113814889D01*
X251046095Y-114313762D01*
X251116684Y-115063926D01*
X251260253Y-115423998D01*
X251476834Y-115394001D01*
X251766461Y-114973956D01*
X251834111Y-114841196D01*
X252185605Y-114358712D01*
X252581660Y-114136923D01*
X252824478Y-114126253D01*
X252937199Y-114247369D01*
X252946000Y-114589882D01*
X252885055Y-115175529D01*
X252842551Y-115984471D01*
X252936013Y-116479708D01*
X252979144Y-116547488D01*
X253110708Y-116839229D01*
X252900471Y-117011057D01*
X252327980Y-117076572D01*
X252180989Y-117078125D01*
X251644898Y-117130181D01*
X251431042Y-117303034D01*
X251420312Y-117380692D01*
X251598417Y-117677920D01*
X252052116Y-117911207D01*
X252660485Y-118033434D01*
X253087698Y-118030408D01*
X253496891Y-117940488D01*
X253675845Y-117694702D01*
X253729572Y-117276562D01*
X253863001Y-116397853D01*
X254121237Y-115789663D01*
X254478686Y-115505089D01*
X254590401Y-115490625D01*
X254931100Y-115594325D01*
X254961163Y-115825880D01*
X254793750Y-115986718D01*
X254617023Y-116234815D01*
X254628435Y-116513575D01*
X254813579Y-116635697D01*
X254843359Y-116631640D01*
X255189705Y-116440087D01*
X255240234Y-116383593D01*
X255448716Y-116307014D01*
X255537890Y-116395785D01*
X255842514Y-116578055D01*
X256083593Y-116619771D01*
X256450595Y-116687785D01*
X257021308Y-116852900D01*
X257701562Y-117080326D01*
X258397185Y-117335273D01*
X259014006Y-117582952D01*
X259457855Y-117788572D01*
X259634559Y-117917344D01*
X259630359Y-117930057D01*
X259692068Y-117980069D01*
X259906045Y-117941683D01*
X260365813Y-118013640D01*
X260847619Y-118352003D01*
X261495911Y-118747142D01*
X262216227Y-118873828D01*
X262878519Y-118725767D01*
X263227343Y-118467187D01*
X263418918Y-118179729D01*
X263357317Y-118070312D01*
X263202121Y-117894874D01*
X263129234Y-117456945D01*
X263128125Y-117387492D01*
X263082805Y-116898618D01*
X262972110Y-116611137D01*
X262956299Y-116598478D01*
X262857187Y-116345285D01*
X262875346Y-116016918D01*
X262876196Y-115738756D01*
X262716212Y-115480224D01*
X262330053Y-115171691D01*
X261717444Y-114782961D01*
X260509593Y-114182572D01*
X259160326Y-113783524D01*
X257588343Y-113567268D01*
X256152803Y-113513543D01*
X254436076Y-113506250D01*
X253980709Y-112762109D01*
X253629649Y-112177789D01*
X253325416Y-111654221D01*
X253268783Y-111553054D01*
X252966490Y-111074291D01*
X252569227Y-110533167D01*
X252144766Y-110010006D01*
X251760879Y-109585132D01*
X251485335Y-109338869D01*
X251388450Y-109324438D01*
X251164067Y-109494139D01*
X250710980Y-109647936D01*
X250182557Y-109754194D01*
X249732166Y-109781281D01*
X249519128Y-109710003D01*
X249437690Y-109424656D01*
X249350067Y-108905562D01*
X251443623Y-108905562D01*
X251560840Y-108925664D01*
X251652257Y-108897945D01*
X251862401Y-108674919D01*
X252088935Y-108220950D01*
X252133885Y-108099437D01*
X252274138Y-107638445D01*
X252256691Y-107463620D01*
X252114244Y-107481594D01*
X251865503Y-107727838D01*
X251637804Y-108179266D01*
X251632616Y-108193958D01*
X251468378Y-108691397D01*
X251443623Y-108905562D01*
X249350067Y-108905562D01*
X249345635Y-108879303D01*
X249285166Y-108391382D01*
X249208975Y-107791032D01*
X249139190Y-107550195D01*
X249060694Y-107632094D01*
X249022155Y-107751562D01*
X248923146Y-108265126D01*
X248850140Y-108938171D01*
X248837783Y-109140625D01*
X248805022Y-109277747D01*
X248742370Y-109079123D01*
X248657009Y-108604149D01*
X248556120Y-107912218D01*
X248446884Y-107062724D01*
X248336481Y-106115063D01*
X248268169Y-105469531D01*
X248714662Y-105469531D01*
X248720538Y-106186330D01*
X248737191Y-106615660D01*
X248761956Y-106719299D01*
X248787775Y-106517980D01*
X248789902Y-106461718D01*
X249039062Y-106461718D01*
X249138281Y-106560937D01*
X249237500Y-106461718D01*
X249138281Y-106362500D01*
X249039062Y-106461718D01*
X248789902Y-106461718D01*
X248817676Y-105727031D01*
X248805378Y-104843660D01*
X248788714Y-104533605D01*
X248759467Y-104281044D01*
X248735613Y-104391805D01*
X248719808Y-104832341D01*
X248714662Y-105469531D01*
X248268169Y-105469531D01*
X248232094Y-105128628D01*
X248140902Y-104162815D01*
X248070086Y-103277016D01*
X248026829Y-102530627D01*
X248021823Y-102393750D01*
X248673519Y-102393750D01*
X248704704Y-102675457D01*
X248773608Y-102641796D01*
X248799818Y-102235526D01*
X248773608Y-102145703D01*
X248701180Y-102120774D01*
X248673519Y-102393750D01*
X248021823Y-102393750D01*
X248021721Y-102390949D01*
X248023356Y-102096093D01*
X248245312Y-102096093D01*
X248344531Y-102195312D01*
X248443750Y-102096093D01*
X248344531Y-101996875D01*
X248245312Y-102096093D01*
X248023356Y-102096093D01*
X248026039Y-101612004D01*
X248081255Y-100951929D01*
X248175720Y-100542857D01*
X248186571Y-100521387D01*
X248345712Y-100296548D01*
X248488097Y-100356433D01*
X248702712Y-100731425D01*
X249083587Y-101699940D01*
X249417510Y-103028071D01*
X249696734Y-104680503D01*
X249850818Y-105965625D01*
X250008347Y-107217042D01*
X250186652Y-108073742D01*
X250392668Y-108537641D01*
X250633332Y-108610657D01*
X250915580Y-108294706D01*
X251246348Y-107591704D01*
X251506559Y-106858593D01*
X252521047Y-106858593D01*
X252524218Y-106941438D01*
X252662525Y-106713722D01*
X252790090Y-106461718D01*
X253028490Y-105947748D01*
X253173282Y-105588498D01*
X253191533Y-105519140D01*
X253059476Y-105372127D01*
X253032617Y-105370312D01*
X252872472Y-105540704D01*
X252748857Y-105916015D01*
X252621110Y-106481148D01*
X252521047Y-106858593D01*
X251506559Y-106858593D01*
X251632572Y-106503568D01*
X251646148Y-106461718D01*
X251908717Y-105748692D01*
X252302459Y-104800550D01*
X252313824Y-104775000D01*
X253294348Y-104775000D01*
X253299408Y-104885412D01*
X253397491Y-104663560D01*
X253527867Y-104278906D01*
X253812739Y-103459666D01*
X254145873Y-102600229D01*
X254253485Y-102344717D01*
X254463452Y-101790628D01*
X254556968Y-101394327D01*
X254541368Y-101281472D01*
X254393884Y-101354208D01*
X254184866Y-101733570D01*
X253942832Y-102339663D01*
X253696301Y-103092590D01*
X253473793Y-103912454D01*
X253303826Y-104719361D01*
X253294348Y-104775000D01*
X252313824Y-104775000D01*
X252776514Y-103734845D01*
X253280019Y-102669127D01*
X253340056Y-102546717D01*
X253870936Y-101495254D01*
X254270755Y-100770010D01*
X254564387Y-100332249D01*
X254776712Y-100143232D01*
X254887525Y-100137088D01*
X255143970Y-100432594D01*
X255139982Y-101013013D01*
X254876665Y-101864749D01*
X254716852Y-102239041D01*
X254495468Y-102752843D01*
X254238134Y-103400763D01*
X253927013Y-104231447D01*
X253544268Y-105293542D01*
X253072060Y-106635692D01*
X252500957Y-108282201D01*
X252146496Y-109308933D01*
X252800415Y-110053706D01*
X253254781Y-110634051D01*
X253628039Y-111217357D01*
X253724514Y-111408224D01*
X254061816Y-112014197D01*
X254443831Y-112537455D01*
X254657408Y-112758813D01*
X254898852Y-112911661D01*
X255247645Y-113013834D01*
X255783269Y-113083168D01*
X256585208Y-113137500D01*
X257274218Y-113172603D01*
X258541586Y-113252198D01*
X259515688Y-113367562D01*
X260300012Y-113544627D01*
X260998047Y-113809327D01*
X261713281Y-114187595D01*
X261992144Y-114354875D01*
X262564962Y-114666693D01*
X262987427Y-114769218D01*
X263293656Y-114625190D01*
X263517766Y-114197350D01*
X263563622Y-114002343D01*
X263921875Y-114002343D01*
X264021093Y-114101562D01*
X264120312Y-114002343D01*
X264021093Y-113903125D01*
X263921875Y-114002343D01*
X263563622Y-114002343D01*
X263693873Y-113448436D01*
X263856095Y-112341189D01*
X263859369Y-112315625D01*
X263985875Y-111505815D01*
X264103224Y-111079238D01*
X264201936Y-111038538D01*
X264272529Y-111386359D01*
X264305521Y-112125346D01*
X264306171Y-112191000D01*
X264318750Y-113753095D01*
X264765234Y-113463957D01*
X265162174Y-113077493D01*
X265493476Y-112551414D01*
X265495577Y-112546784D01*
X265755432Y-112124624D01*
X266015946Y-111921878D01*
X266043745Y-111918750D01*
X266275982Y-111761891D01*
X266630202Y-111350777D01*
X267027527Y-110777734D01*
X267551127Y-109955561D01*
X268130252Y-109058224D01*
X268474608Y-108531098D01*
X268932616Y-107730781D01*
X269380550Y-106779337D01*
X269661879Y-106050629D01*
X269913799Y-105340837D01*
X270144067Y-104767080D01*
X270305452Y-104446444D01*
X270313011Y-104436426D01*
X270406852Y-104096972D01*
X270364806Y-103971077D01*
X270374395Y-103671156D01*
X270587071Y-103249264D01*
X270609170Y-103218244D01*
X270926781Y-102726820D01*
X271133177Y-102316072D01*
X271196693Y-102064295D01*
X271045461Y-102130832D01*
X270988615Y-102176880D01*
X270691097Y-102321530D01*
X270562318Y-102163852D01*
X270607303Y-101763054D01*
X270831078Y-101178342D01*
X270893253Y-101053225D01*
X271158402Y-100467454D01*
X271202803Y-100150415D01*
X271114037Y-100061710D01*
X270911043Y-99821903D01*
X270883886Y-99439855D01*
X271043814Y-99134464D01*
X271065625Y-99119531D01*
X271210047Y-98849154D01*
X271253654Y-98462898D01*
X271243245Y-97928906D01*
X270906388Y-98421397D01*
X270569056Y-98854752D01*
X270089640Y-99403491D01*
X269825390Y-99685559D01*
X269394736Y-100106737D01*
X269165296Y-100250457D01*
X269084436Y-100144338D01*
X269081250Y-100075989D01*
X269167686Y-99581158D01*
X269377903Y-99079917D01*
X269638263Y-98717820D01*
X269815332Y-98624985D01*
X270088328Y-98489383D01*
X270487363Y-98151325D01*
X270637228Y-97998658D01*
X271134237Y-97585128D01*
X271523687Y-97475815D01*
X271747660Y-97661580D01*
G37*
G04 #@! TD.AperFunction*
G04 #@! TA.AperFunction,EtchedComponent*
G36*
X266925486Y-117563534D02*
G01*
X267193932Y-117945630D01*
X267216958Y-118185582D01*
X267024439Y-118426230D01*
X266770707Y-118605286D01*
X266677818Y-118559319D01*
X266641531Y-118243803D01*
X266583453Y-117736744D01*
X266578864Y-117696623D01*
X266502093Y-117025278D01*
X266925486Y-117563534D01*
G37*
G04 #@! TD.AperFunction*
G04 #@! TA.AperFunction,EtchedComponent*
G36*
X268539598Y-117645990D02*
G01*
X268530481Y-117992142D01*
X268388158Y-118426098D01*
X268223605Y-118578333D01*
X268107209Y-118415307D01*
X268089062Y-118202473D01*
X268185781Y-117791128D01*
X268355737Y-117613565D01*
X268539598Y-117645990D01*
G37*
G04 #@! TD.AperFunction*
G04 #@! TA.AperFunction,EtchedComponent*
G36*
X260805454Y-115673494D02*
G01*
X260909935Y-115763648D01*
X261192936Y-116111612D01*
X261159943Y-116448454D01*
X261129336Y-116509744D01*
X261055063Y-116784716D01*
X261223028Y-117026708D01*
X261631520Y-117297944D01*
X262042304Y-117593080D01*
X262228950Y-117835440D01*
X262223149Y-117891301D01*
X261949555Y-118063758D01*
X261537164Y-117897199D01*
X260969336Y-117383844D01*
X260841057Y-117244857D01*
X260426164Y-116756690D01*
X260262115Y-116459498D01*
X260312802Y-116270087D01*
X260388899Y-116203060D01*
X260592699Y-115878614D01*
X260586472Y-115689062D01*
X260588104Y-115538330D01*
X260805454Y-115673494D01*
G37*
G04 #@! TD.AperFunction*
G04 #@! TA.AperFunction,EtchedComponent*
G36*
X269610416Y-117342708D02*
G01*
X269634165Y-117578207D01*
X269610416Y-117607291D01*
X269492445Y-117580052D01*
X269478125Y-117475000D01*
X269550730Y-117311663D01*
X269610416Y-117342708D01*
G37*
G04 #@! TD.AperFunction*
G04 #@! TA.AperFunction,EtchedComponent*
G36*
X252346354Y-117342708D02*
G01*
X252319114Y-117460679D01*
X252214062Y-117475000D01*
X252050725Y-117402394D01*
X252081770Y-117342708D01*
X252317269Y-117318959D01*
X252346354Y-117342708D01*
G37*
G04 #@! TD.AperFunction*
G04 #@! TA.AperFunction,EtchedComponent*
G36*
X237669731Y-115639453D02*
G01*
X237702561Y-116217696D01*
X237669731Y-116532421D01*
X237620658Y-116626458D01*
X237589523Y-116377144D01*
X237583734Y-116085937D01*
X237599215Y-115656747D01*
X237638792Y-115538928D01*
X237669731Y-115639453D01*
G37*
G04 #@! TD.AperFunction*
G04 #@! TA.AperFunction,EtchedComponent*
G36*
X259886979Y-116152083D02*
G01*
X259859739Y-116270054D01*
X259754687Y-116284375D01*
X259591350Y-116211769D01*
X259622395Y-116152083D01*
X259857894Y-116128334D01*
X259886979Y-116152083D01*
G37*
G04 #@! TD.AperFunction*
G04 #@! TA.AperFunction,EtchedComponent*
G36*
X243034116Y-114647764D02*
G01*
X243289153Y-114998588D01*
X243521687Y-115405172D01*
X243643578Y-115721778D01*
X243633599Y-115802858D01*
X243501310Y-115711458D01*
X243320863Y-115392244D01*
X243088772Y-115026929D01*
X242891754Y-114895312D01*
X242695630Y-114746910D01*
X242689062Y-114696875D01*
X242808442Y-114503913D01*
X242844715Y-114498437D01*
X243034116Y-114647764D01*
G37*
G04 #@! TD.AperFunction*
G04 #@! TA.AperFunction,EtchedComponent*
G36*
X237278360Y-114989271D02*
G01*
X237331250Y-115093750D01*
X237300770Y-115267021D01*
X237128992Y-115215490D01*
X236934375Y-115093750D01*
X236751949Y-114939968D01*
X236939497Y-114898992D01*
X236983984Y-114898351D01*
X237278360Y-114989271D01*
G37*
G04 #@! TD.AperFunction*
G04 #@! TA.AperFunction,EtchedComponent*
G36*
X242286421Y-114252568D02*
G01*
X242292187Y-114300000D01*
X242141181Y-114492671D01*
X242093750Y-114498437D01*
X241901078Y-114347431D01*
X241895312Y-114300000D01*
X242046318Y-114107328D01*
X242093750Y-114101562D01*
X242286421Y-114252568D01*
G37*
G04 #@! TD.AperFunction*
G04 #@! TA.AperFunction,EtchedComponent*
G36*
X243678974Y-114255091D02*
G01*
X243681250Y-114300000D01*
X243528700Y-114490811D01*
X243471101Y-114498437D01*
X243352587Y-114376867D01*
X243383593Y-114300000D01*
X243561911Y-114110693D01*
X243593742Y-114101562D01*
X243678974Y-114255091D01*
G37*
G04 #@! TD.AperFunction*
G04 #@! TA.AperFunction,EtchedComponent*
G36*
X242824617Y-113667480D02*
G01*
X242848274Y-113977614D01*
X242808951Y-114047819D01*
X242718759Y-113988637D01*
X242704728Y-113787369D01*
X242753191Y-113575630D01*
X242824617Y-113667480D01*
G37*
G04 #@! TD.AperFunction*
G04 #@! TA.AperFunction,EtchedComponent*
G36*
X267171426Y-103375615D02*
G01*
X267215873Y-103949624D01*
X267164421Y-104369741D01*
X267124102Y-104449912D01*
X266978120Y-104749836D01*
X266779674Y-105306805D01*
X266595968Y-105916015D01*
X266346104Y-106696475D01*
X266137162Y-107087947D01*
X265964695Y-107095716D01*
X265844600Y-106808984D01*
X265769183Y-106564421D01*
X265738092Y-106705337D01*
X265730831Y-106808984D01*
X265626989Y-107104098D01*
X265530217Y-107156250D01*
X265392576Y-107338998D01*
X265258111Y-107825046D01*
X265144898Y-108521098D01*
X265071016Y-109333859D01*
X265059202Y-109587109D01*
X264994600Y-110097903D01*
X264818331Y-110309154D01*
X264673339Y-110331250D01*
X264454495Y-110277532D01*
X264382881Y-110048497D01*
X264430078Y-109542319D01*
X264437976Y-109487890D01*
X264616355Y-108626061D01*
X264892853Y-107683776D01*
X265224374Y-106778727D01*
X265567824Y-106028604D01*
X265879125Y-105552150D01*
X266188236Y-105097724D01*
X266314212Y-104687972D01*
X266394064Y-104259769D01*
X266582299Y-103660044D01*
X266680528Y-103403047D01*
X267035757Y-102527187D01*
X267171426Y-103375615D01*
G37*
G04 #@! TD.AperFunction*
G04 #@! TA.AperFunction,EtchedComponent*
G36*
X265497070Y-88862874D02*
G01*
X265518939Y-89098437D01*
X265534267Y-89591609D01*
X265519614Y-89862491D01*
X265590907Y-90035077D01*
X265677592Y-90010083D01*
X265911291Y-90043946D01*
X265973412Y-90138997D01*
X266111829Y-90268421D01*
X266303125Y-90090625D01*
X266529658Y-89920674D01*
X266624434Y-90017044D01*
X266800477Y-90101917D01*
X267264067Y-90154355D01*
X268044215Y-90175347D01*
X269169931Y-90165883D01*
X270230811Y-90140193D01*
X271349381Y-90115827D01*
X272305052Y-90109937D01*
X273038099Y-90121643D01*
X273488798Y-90150067D01*
X273603081Y-90189859D01*
X273363262Y-90256461D01*
X272803501Y-90334777D01*
X272000211Y-90416246D01*
X271029807Y-90492304D01*
X270725737Y-90512271D01*
X269461017Y-90606302D01*
X268135782Y-90730106D01*
X266825472Y-90874090D01*
X265605531Y-91028661D01*
X264551400Y-91184227D01*
X263738520Y-91331195D01*
X263242333Y-91459974D01*
X263227343Y-91465703D01*
X262747694Y-91608024D01*
X261969193Y-91788720D01*
X260985921Y-91990365D01*
X259891958Y-92195529D01*
X258781385Y-92386784D01*
X257748283Y-92546702D01*
X256886730Y-92657854D01*
X256678906Y-92678799D01*
X255700265Y-92800338D01*
X254559238Y-92989157D01*
X253476322Y-93208077D01*
X253305468Y-93247601D01*
X252461065Y-93447006D01*
X251721031Y-93620425D01*
X251201091Y-93740792D01*
X251073046Y-93769711D01*
X250717779Y-93979149D01*
X250620251Y-94211983D01*
X250589554Y-94434320D01*
X250456558Y-94342029D01*
X250330821Y-94181525D01*
X250151014Y-94011013D01*
X249893138Y-93919056D01*
X249509269Y-93913938D01*
X248951481Y-94003939D01*
X248171852Y-94197341D01*
X247122458Y-94502425D01*
X245755374Y-94927474D01*
X245445496Y-95025740D01*
X244258058Y-95383057D01*
X243058143Y-95709241D01*
X241959572Y-95975639D01*
X241076167Y-96153599D01*
X240803906Y-96194182D01*
X239864907Y-96338201D01*
X238910850Y-96527993D01*
X238143725Y-96723232D01*
X238125000Y-96728972D01*
X237317018Y-96964653D01*
X236366749Y-97222467D01*
X235709411Y-97389714D01*
X235095909Y-97540119D01*
X234692726Y-97683352D01*
X234435214Y-97900432D01*
X234258723Y-98272377D01*
X234098602Y-98880208D01*
X233933235Y-99615625D01*
X233826777Y-100223379D01*
X233716057Y-101077638D01*
X233619584Y-102028687D01*
X233589799Y-102393750D01*
X233522995Y-103253273D01*
X233472764Y-103752260D01*
X233427169Y-103926025D01*
X233374271Y-103809882D01*
X233302134Y-103439144D01*
X233279726Y-103310998D01*
X233207647Y-102701930D01*
X233194864Y-101981065D01*
X233244828Y-101072883D01*
X233360989Y-99901868D01*
X233481085Y-98904762D01*
X233608335Y-97896243D01*
X232245183Y-98153127D01*
X231466146Y-98303805D01*
X230770021Y-98445094D01*
X230336328Y-98539857D01*
X229912439Y-98535991D01*
X229774092Y-98267641D01*
X229927858Y-97752612D01*
X229996044Y-97618204D01*
X230099862Y-97312781D01*
X229956356Y-97234375D01*
X229816101Y-97169091D01*
X229936036Y-97009588D01*
X230292344Y-96880028D01*
X230498828Y-96914506D01*
X230724607Y-97040984D01*
X230661499Y-97229500D01*
X230512167Y-97402965D01*
X230228706Y-97790052D01*
X230281946Y-97978907D01*
X230682273Y-97997186D01*
X230733203Y-97991696D01*
X231060686Y-97912872D01*
X231257745Y-97702812D01*
X231393079Y-97257671D01*
X231463946Y-96887109D01*
X231605605Y-96221706D01*
X231752718Y-95912266D01*
X231944894Y-95919346D01*
X232189696Y-96164442D01*
X232350046Y-96455130D01*
X232186598Y-96683706D01*
X232152087Y-96710145D01*
X231876293Y-97007127D01*
X231701794Y-97345929D01*
X231686376Y-97588659D01*
X231766089Y-97631250D01*
X232048732Y-97589536D01*
X232573828Y-97483104D01*
X232927711Y-97403988D01*
X233524056Y-97240532D01*
X233857935Y-97033249D01*
X234058375Y-96673150D01*
X234161017Y-96362191D01*
X234433181Y-95438735D01*
X234580650Y-94828484D01*
X234608324Y-94469524D01*
X234521102Y-94299940D01*
X234327561Y-94257812D01*
X233951542Y-94137035D01*
X233837353Y-93832762D01*
X233956486Y-93432075D01*
X234280435Y-93022060D01*
X234780693Y-92689800D01*
X234850781Y-92659469D01*
X235078060Y-92530814D01*
X234943175Y-92484453D01*
X234613936Y-92299602D01*
X234287464Y-91860026D01*
X234042783Y-91300482D01*
X233957812Y-90804148D01*
X234014556Y-90406576D01*
X234218068Y-90322133D01*
X234618273Y-90543859D01*
X234805710Y-90685937D01*
X235234963Y-90996225D01*
X235453036Y-91019467D01*
X235549891Y-90727119D01*
X235582349Y-90439515D01*
X235740676Y-89907723D01*
X236037996Y-89727558D01*
X236412089Y-89908562D01*
X236694693Y-90268946D01*
X236955162Y-90653049D01*
X237143336Y-90733750D01*
X237374940Y-90557160D01*
X237387243Y-90544899D01*
X237645916Y-90329066D01*
X237784769Y-90420459D01*
X237850864Y-90576455D01*
X237850393Y-91035313D01*
X237615337Y-91524610D01*
X237245676Y-91887269D01*
X236956424Y-91981741D01*
X236559537Y-92051306D01*
X236415784Y-92130569D01*
X236504178Y-92214102D01*
X236889817Y-92265550D01*
X237177727Y-92273437D01*
X237858273Y-92356764D01*
X238218494Y-92582269D01*
X238233176Y-92913242D01*
X237886632Y-93305619D01*
X237595166Y-93587590D01*
X237623447Y-93776220D01*
X237696805Y-93832882D01*
X237861524Y-94024346D01*
X237765284Y-94318714D01*
X237698681Y-94429655D01*
X237415993Y-94783590D01*
X237166343Y-94780723D01*
X236851269Y-94419025D01*
X236846408Y-94412096D01*
X236619363Y-94151229D01*
X236538440Y-94240030D01*
X236537500Y-94274950D01*
X236425892Y-94671218D01*
X236261317Y-94956535D01*
X236006426Y-95209494D01*
X235751927Y-95136664D01*
X235666004Y-95069383D01*
X235439681Y-94686280D01*
X235346882Y-94127367D01*
X235346874Y-94122584D01*
X235296969Y-93673083D01*
X235165892Y-93563281D01*
X236140625Y-93563281D01*
X236239843Y-93662500D01*
X236339062Y-93563281D01*
X236239843Y-93464062D01*
X236140625Y-93563281D01*
X235165892Y-93563281D01*
X235159926Y-93558283D01*
X235140365Y-93568269D01*
X235015765Y-93838256D01*
X235041209Y-94034141D01*
X235051486Y-94401958D01*
X234966453Y-95000945D01*
X234850844Y-95515404D01*
X234691388Y-96150406D01*
X234583343Y-96624328D01*
X234553125Y-96804102D01*
X234733505Y-96847566D01*
X235212197Y-96832917D01*
X235895527Y-96764153D01*
X236091015Y-96738472D01*
X236860910Y-96627051D01*
X237322055Y-96524609D01*
X237558909Y-96386284D01*
X237655927Y-96167217D01*
X237691088Y-95888582D01*
X237800301Y-95421076D01*
X237958115Y-95261446D01*
X238089289Y-95430670D01*
X238125000Y-95767605D01*
X238175257Y-96134229D01*
X238406905Y-96204641D01*
X238621230Y-96160666D01*
X239124366Y-96058402D01*
X239799699Y-95949248D01*
X240059902Y-95913302D01*
X240834239Y-95764708D01*
X241282901Y-95537309D01*
X241475885Y-95183164D01*
X241487518Y-95051562D01*
X242125082Y-95051562D01*
X242156266Y-95333270D01*
X242225171Y-95299609D01*
X242251380Y-94893339D01*
X242225171Y-94803515D01*
X242152743Y-94778587D01*
X242125082Y-95051562D01*
X241487518Y-95051562D01*
X241498437Y-94928046D01*
X241397585Y-94553748D01*
X241051953Y-94443671D01*
X240747159Y-94425156D01*
X240795874Y-94359395D01*
X241083559Y-94239936D01*
X241182374Y-94180945D01*
X242360399Y-94180945D01*
X242391406Y-94257812D01*
X242569723Y-94447118D01*
X242601554Y-94456250D01*
X242686787Y-94302720D01*
X242689062Y-94257812D01*
X242536513Y-94067000D01*
X242478913Y-94059375D01*
X242360399Y-94180945D01*
X241182374Y-94180945D01*
X241556186Y-93957785D01*
X241811708Y-93706811D01*
X242007293Y-93499782D01*
X242213409Y-93536037D01*
X242551675Y-93825085D01*
X242907155Y-94311710D01*
X242941399Y-94668445D01*
X242965347Y-94988514D01*
X243148639Y-95051562D01*
X243416216Y-94908533D01*
X243600776Y-94590201D01*
X243638986Y-94262703D01*
X243510729Y-94101753D01*
X243386963Y-93941950D01*
X243510519Y-93610729D01*
X243701966Y-93331217D01*
X243869433Y-93389607D01*
X243960365Y-93504367D01*
X244342330Y-93816920D01*
X244579166Y-93913985D01*
X244828185Y-93990741D01*
X244702616Y-94025470D01*
X244524609Y-94036355D01*
X244159943Y-94178592D01*
X244078125Y-94469622D01*
X244167560Y-94771206D01*
X244425390Y-94775102D01*
X244783666Y-94685222D01*
X245403449Y-94546214D01*
X246157048Y-94386623D01*
X246233248Y-94370960D01*
X246971852Y-94202402D01*
X247566954Y-94035140D01*
X247902301Y-93902325D01*
X247919967Y-93889956D01*
X248258904Y-93730135D01*
X248783125Y-93583174D01*
X248840625Y-93571380D01*
X249575471Y-93413296D01*
X249998167Y-93277137D01*
X250189228Y-93127154D01*
X250229687Y-92954596D01*
X250069654Y-92705859D01*
X249920320Y-92670312D01*
X249715938Y-92572680D01*
X249735594Y-92468638D01*
X249958177Y-92344462D01*
X250020801Y-92366198D01*
X250164287Y-92268389D01*
X250294898Y-91896284D01*
X250302114Y-91861690D01*
X250422863Y-91257948D01*
X250921587Y-91756673D01*
X251316422Y-92234620D01*
X251395458Y-92548360D01*
X251152501Y-92669746D01*
X251122656Y-92670312D01*
X250859156Y-92809937D01*
X250825000Y-92930665D01*
X250890639Y-93055756D01*
X251136884Y-93092478D01*
X251637725Y-93041235D01*
X252263671Y-92938541D01*
X253059048Y-92811007D01*
X253771295Y-92717631D01*
X254248485Y-92678283D01*
X254254274Y-92678188D01*
X254753929Y-92543226D01*
X254938930Y-92212709D01*
X254771733Y-91770601D01*
X254704639Y-91689836D01*
X255190625Y-91689836D01*
X255341981Y-91871217D01*
X255389062Y-91876562D01*
X255563213Y-91715041D01*
X255587500Y-91567195D01*
X255491299Y-91361800D01*
X255389062Y-91380468D01*
X255198194Y-91634162D01*
X255190625Y-91689836D01*
X254704639Y-91689836D01*
X254699158Y-91683238D01*
X254498784Y-91334090D01*
X254502566Y-91056497D01*
X254676487Y-90965025D01*
X254880513Y-91072475D01*
X255161888Y-91139980D01*
X255488915Y-90883674D01*
X255926044Y-90542795D01*
X256276523Y-90547477D01*
X256452096Y-90782775D01*
X256446929Y-91011673D01*
X256352449Y-91030822D01*
X256158873Y-91167994D01*
X255936360Y-91567956D01*
X255873884Y-91727734D01*
X255722428Y-92194395D01*
X255742982Y-92408827D01*
X255999701Y-92408800D01*
X256556741Y-92232080D01*
X256666068Y-92194093D01*
X257312106Y-91836603D01*
X257656439Y-91352750D01*
X257652590Y-90809533D01*
X257643550Y-90784935D01*
X257617144Y-90523144D01*
X257810866Y-90547963D01*
X258082142Y-90770982D01*
X258331172Y-91184680D01*
X258311344Y-91566487D01*
X258117578Y-91745141D01*
X258114782Y-91815160D01*
X258428735Y-91857925D01*
X258511963Y-91860896D01*
X258955757Y-91813449D01*
X259292471Y-91584038D01*
X259652979Y-91086755D01*
X259953214Y-90544999D01*
X260130856Y-90096627D01*
X260151562Y-89971051D01*
X260203462Y-89757269D01*
X260419232Y-89867628D01*
X260449218Y-89892187D01*
X260687547Y-90203423D01*
X260737042Y-90497380D01*
X260595845Y-90641360D01*
X260459377Y-90618075D01*
X260171810Y-90682909D01*
X260044383Y-90909455D01*
X259968333Y-91279308D01*
X260119617Y-91399612D01*
X260548437Y-91342217D01*
X261035373Y-91048385D01*
X261453650Y-90417162D01*
X261777020Y-89932909D01*
X262147567Y-89602413D01*
X262481568Y-89469075D01*
X262695297Y-89576298D01*
X262731250Y-89754869D01*
X262616904Y-90077939D01*
X262366605Y-90333199D01*
X262119465Y-90391258D01*
X262077519Y-90362936D01*
X261865143Y-90389898D01*
X261622362Y-90575851D01*
X261401574Y-90872773D01*
X261465412Y-91050013D01*
X261832851Y-91107611D01*
X262522868Y-91045607D01*
X263554439Y-90864041D01*
X264860260Y-90582623D01*
X265181779Y-90416461D01*
X265249201Y-90045981D01*
X265238784Y-89934370D01*
X265245089Y-89372822D01*
X265328248Y-88994520D01*
X265443177Y-88750831D01*
X265497070Y-88862874D01*
G37*
G04 #@! TD.AperFunction*
G04 #@! TA.AperFunction,EtchedComponent*
G36*
X268718640Y-100847788D02*
G01*
X268783593Y-101103906D01*
X268666460Y-101413380D01*
X268436328Y-101442473D01*
X268174385Y-101504012D01*
X268082478Y-101861482D01*
X268080112Y-101938566D01*
X268013896Y-102453993D01*
X267862473Y-102960814D01*
X267673347Y-103344947D01*
X267494026Y-103492311D01*
X267443314Y-103467793D01*
X267324927Y-103183295D01*
X267301968Y-102788887D01*
X267370576Y-102471036D01*
X267465555Y-102393750D01*
X267605858Y-102219038D01*
X267759065Y-101779081D01*
X267813708Y-101550390D01*
X267977301Y-100992582D01*
X268194866Y-100744116D01*
X268387606Y-100707031D01*
X268718640Y-100847788D01*
G37*
G04 #@! TD.AperFunction*
G04 #@! TA.AperFunction,EtchedComponent*
G36*
X268831930Y-88771932D02*
G01*
X268691273Y-88990704D01*
X268672338Y-89013722D01*
X268317723Y-89324063D01*
X267829803Y-89620941D01*
X267331108Y-89846420D01*
X266944168Y-89942562D01*
X266802672Y-89897776D01*
X266898668Y-89713956D01*
X267268656Y-89435910D01*
X267678245Y-89204721D01*
X268360468Y-88872206D01*
X268733346Y-88730188D01*
X268831930Y-88771932D01*
G37*
G04 #@! TD.AperFunction*
G04 #@! TA.AperFunction,EtchedComponent*
G36*
X267096397Y-88679622D02*
G01*
X267096875Y-88701562D01*
X266936593Y-88878635D01*
X266805446Y-88900000D01*
X266602956Y-89035245D01*
X266616039Y-89165863D01*
X266586818Y-89451836D01*
X266385560Y-89705184D01*
X266142412Y-89802234D01*
X266025838Y-89726709D01*
X266058101Y-89461069D01*
X266289895Y-89062034D01*
X266320231Y-89022542D01*
X266699385Y-88630173D01*
X266979218Y-88507142D01*
X267096397Y-88679622D01*
G37*
G04 #@! TD.AperFunction*
G04 #@! TA.AperFunction,EtchedComponent*
G36*
X250328676Y-77021425D02*
G01*
X250265196Y-77151920D01*
X250001822Y-77371179D01*
X249603501Y-77631246D01*
X248962985Y-77993323D01*
X248197873Y-78391918D01*
X247941077Y-78518850D01*
X246884662Y-79058119D01*
X245677064Y-79713912D01*
X244422358Y-80426103D01*
X243224618Y-81134565D01*
X242187922Y-81779171D01*
X241498437Y-82240924D01*
X240809936Y-82686510D01*
X239978673Y-83166086D01*
X239423227Y-83456221D01*
X238755451Y-83804483D01*
X238195510Y-84130929D01*
X237898080Y-84338814D01*
X237574115Y-84570379D01*
X237005081Y-84929375D01*
X236293626Y-85351911D01*
X236004540Y-85517399D01*
X235263783Y-85944682D01*
X234519180Y-86393010D01*
X233698297Y-86908220D01*
X232728700Y-87536151D01*
X231537952Y-88322639D01*
X230900294Y-88747424D01*
X230299335Y-89125396D01*
X229953313Y-89274191D01*
X229806611Y-89211750D01*
X229790625Y-89105419D01*
X229946261Y-88876053D01*
X230228607Y-88679562D01*
X230587557Y-88456405D01*
X231159394Y-88067720D01*
X231839058Y-87585500D01*
X232064154Y-87421737D01*
X232927694Y-86816303D01*
X233887347Y-86184427D01*
X234745638Y-85655849D01*
X234801171Y-85623551D01*
X235475441Y-85222499D01*
X235874524Y-84931231D01*
X236070376Y-84667171D01*
X236134954Y-84347744D01*
X236140624Y-84086414D01*
X236206437Y-83478645D01*
X236767244Y-83478645D01*
X236822044Y-83606905D01*
X237014908Y-83880288D01*
X237200884Y-83895954D01*
X237482770Y-83749667D01*
X237866667Y-83557270D01*
X238440138Y-83289132D01*
X238720312Y-83162798D01*
X239426334Y-82827674D01*
X240235766Y-82414178D01*
X240648321Y-82191484D01*
X241683362Y-81617644D01*
X241195720Y-81356666D01*
X240697599Y-81197604D01*
X240200951Y-81326750D01*
X239763286Y-81497783D01*
X239504725Y-81557812D01*
X239334225Y-81420602D01*
X239350246Y-81140640D01*
X239535009Y-80915426D01*
X239563671Y-80902920D01*
X239655826Y-80781509D01*
X239464009Y-80666545D01*
X238939764Y-80584577D01*
X238425497Y-80806794D01*
X237878418Y-81361431D01*
X237418372Y-82016391D01*
X236997228Y-82712677D01*
X236789995Y-83173931D01*
X236767244Y-83478645D01*
X236206437Y-83478645D01*
X236209967Y-83446051D01*
X236443869Y-82777338D01*
X236881140Y-81996599D01*
X237560591Y-81020158D01*
X237566534Y-81012109D01*
X238022593Y-80432987D01*
X238373428Y-80116656D01*
X238722516Y-79988337D01*
X239008147Y-79970312D01*
X239663852Y-80064607D01*
X240321251Y-80292487D01*
X240341340Y-80302430D01*
X240968171Y-80617949D01*
X241559238Y-80916304D01*
X241567864Y-80920668D01*
X241972542Y-81068694D01*
X242377058Y-81051817D01*
X242880882Y-80843281D01*
X243583485Y-80416329D01*
X243681250Y-80352199D01*
X244039727Y-80139115D01*
X244667281Y-79788893D01*
X245480698Y-79347164D01*
X246396769Y-78859556D01*
X246558593Y-78774401D01*
X247471709Y-78290479D01*
X248284748Y-77851714D01*
X248918778Y-77501254D01*
X249294870Y-77282250D01*
X249331262Y-77258649D01*
X249804325Y-77044544D01*
X250102164Y-76993750D01*
X250328676Y-77021425D01*
G37*
G04 #@! TD.AperFunction*
M02*
