G04 #@! TF.GenerationSoftware,KiCad,Pcbnew,8.0.4*
G04 #@! TF.CreationDate,2024-09-08T18:52:01+09:00*
G04 #@! TF.ProjectId,first_keyboard,66697273-745f-46b6-9579-626f6172642e,rev?*
G04 #@! TF.SameCoordinates,Original*
G04 #@! TF.FileFunction,Legend,Bot*
G04 #@! TF.FilePolarity,Positive*
%FSLAX46Y46*%
G04 Gerber Fmt 4.6, Leading zero omitted, Abs format (unit mm)*
G04 Created by KiCad (PCBNEW 8.0.4) date 2024-09-08 18:52:01*
%MOMM*%
%LPD*%
G01*
G04 APERTURE LIST*
%ADD10C,0.150000*%
%ADD11C,0.300000*%
%ADD12C,0.500000*%
%ADD13C,0.800000*%
%ADD14C,3.000000*%
%ADD15C,3.500000*%
%ADD16C,1.000000*%
%ADD17C,0.400000*%
%ADD18R,1.397000X1.397000*%
%ADD19C,1.397000*%
G04 APERTURE END LIST*
D10*
X194690823Y-192525900D02*
X194547966Y-192573519D01*
X194547966Y-192573519D02*
X194309871Y-192573519D01*
X194309871Y-192573519D02*
X194214633Y-192525900D01*
X194214633Y-192525900D02*
X194167014Y-192478280D01*
X194167014Y-192478280D02*
X194119395Y-192383042D01*
X194119395Y-192383042D02*
X194119395Y-192287804D01*
X194119395Y-192287804D02*
X194167014Y-192192566D01*
X194167014Y-192192566D02*
X194214633Y-192144947D01*
X194214633Y-192144947D02*
X194309871Y-192097328D01*
X194309871Y-192097328D02*
X194500347Y-192049709D01*
X194500347Y-192049709D02*
X194595585Y-192002090D01*
X194595585Y-192002090D02*
X194643204Y-191954471D01*
X194643204Y-191954471D02*
X194690823Y-191859233D01*
X194690823Y-191859233D02*
X194690823Y-191763995D01*
X194690823Y-191763995D02*
X194643204Y-191668757D01*
X194643204Y-191668757D02*
X194595585Y-191621138D01*
X194595585Y-191621138D02*
X194500347Y-191573519D01*
X194500347Y-191573519D02*
X194262252Y-191573519D01*
X194262252Y-191573519D02*
X194119395Y-191621138D01*
X193786061Y-191573519D02*
X193547966Y-192573519D01*
X193547966Y-192573519D02*
X193357490Y-191859233D01*
X193357490Y-191859233D02*
X193167014Y-192573519D01*
X193167014Y-192573519D02*
X192928919Y-191573519D01*
X192595585Y-191668757D02*
X192547966Y-191621138D01*
X192547966Y-191621138D02*
X192452728Y-191573519D01*
X192452728Y-191573519D02*
X192214633Y-191573519D01*
X192214633Y-191573519D02*
X192119395Y-191621138D01*
X192119395Y-191621138D02*
X192071776Y-191668757D01*
X192071776Y-191668757D02*
X192024157Y-191763995D01*
X192024157Y-191763995D02*
X192024157Y-191859233D01*
X192024157Y-191859233D02*
X192071776Y-192002090D01*
X192071776Y-192002090D02*
X192643204Y-192573519D01*
X192643204Y-192573519D02*
X192024157Y-192573519D01*
X191071776Y-192573519D02*
X191643204Y-192573519D01*
X191357490Y-192573519D02*
X191357490Y-191573519D01*
X191357490Y-191573519D02*
X191452728Y-191716376D01*
X191452728Y-191716376D02*
X191547966Y-191811614D01*
X191547966Y-191811614D02*
X191643204Y-191859233D01*
X232790823Y-152044700D02*
X232647966Y-152092319D01*
X232647966Y-152092319D02*
X232409871Y-152092319D01*
X232409871Y-152092319D02*
X232314633Y-152044700D01*
X232314633Y-152044700D02*
X232267014Y-151997080D01*
X232267014Y-151997080D02*
X232219395Y-151901842D01*
X232219395Y-151901842D02*
X232219395Y-151806604D01*
X232219395Y-151806604D02*
X232267014Y-151711366D01*
X232267014Y-151711366D02*
X232314633Y-151663747D01*
X232314633Y-151663747D02*
X232409871Y-151616128D01*
X232409871Y-151616128D02*
X232600347Y-151568509D01*
X232600347Y-151568509D02*
X232695585Y-151520890D01*
X232695585Y-151520890D02*
X232743204Y-151473271D01*
X232743204Y-151473271D02*
X232790823Y-151378033D01*
X232790823Y-151378033D02*
X232790823Y-151282795D01*
X232790823Y-151282795D02*
X232743204Y-151187557D01*
X232743204Y-151187557D02*
X232695585Y-151139938D01*
X232695585Y-151139938D02*
X232600347Y-151092319D01*
X232600347Y-151092319D02*
X232362252Y-151092319D01*
X232362252Y-151092319D02*
X232219395Y-151139938D01*
X231886061Y-151092319D02*
X231647966Y-152092319D01*
X231647966Y-152092319D02*
X231457490Y-151378033D01*
X231457490Y-151378033D02*
X231267014Y-152092319D01*
X231267014Y-152092319D02*
X231028919Y-151092319D01*
X230695585Y-151187557D02*
X230647966Y-151139938D01*
X230647966Y-151139938D02*
X230552728Y-151092319D01*
X230552728Y-151092319D02*
X230314633Y-151092319D01*
X230314633Y-151092319D02*
X230219395Y-151139938D01*
X230219395Y-151139938D02*
X230171776Y-151187557D01*
X230171776Y-151187557D02*
X230124157Y-151282795D01*
X230124157Y-151282795D02*
X230124157Y-151378033D01*
X230124157Y-151378033D02*
X230171776Y-151520890D01*
X230171776Y-151520890D02*
X230743204Y-152092319D01*
X230743204Y-152092319D02*
X230124157Y-152092319D01*
X229790823Y-151092319D02*
X229171776Y-151092319D01*
X229171776Y-151092319D02*
X229505109Y-151473271D01*
X229505109Y-151473271D02*
X229362252Y-151473271D01*
X229362252Y-151473271D02*
X229267014Y-151520890D01*
X229267014Y-151520890D02*
X229219395Y-151568509D01*
X229219395Y-151568509D02*
X229171776Y-151663747D01*
X229171776Y-151663747D02*
X229171776Y-151901842D01*
X229171776Y-151901842D02*
X229219395Y-151997080D01*
X229219395Y-151997080D02*
X229267014Y-152044700D01*
X229267014Y-152044700D02*
X229362252Y-152092319D01*
X229362252Y-152092319D02*
X229647966Y-152092319D01*
X229647966Y-152092319D02*
X229743204Y-152044700D01*
X229743204Y-152044700D02*
X229790823Y-151997080D01*
X232790823Y-190144700D02*
X232647966Y-190192319D01*
X232647966Y-190192319D02*
X232409871Y-190192319D01*
X232409871Y-190192319D02*
X232314633Y-190144700D01*
X232314633Y-190144700D02*
X232267014Y-190097080D01*
X232267014Y-190097080D02*
X232219395Y-190001842D01*
X232219395Y-190001842D02*
X232219395Y-189906604D01*
X232219395Y-189906604D02*
X232267014Y-189811366D01*
X232267014Y-189811366D02*
X232314633Y-189763747D01*
X232314633Y-189763747D02*
X232409871Y-189716128D01*
X232409871Y-189716128D02*
X232600347Y-189668509D01*
X232600347Y-189668509D02*
X232695585Y-189620890D01*
X232695585Y-189620890D02*
X232743204Y-189573271D01*
X232743204Y-189573271D02*
X232790823Y-189478033D01*
X232790823Y-189478033D02*
X232790823Y-189382795D01*
X232790823Y-189382795D02*
X232743204Y-189287557D01*
X232743204Y-189287557D02*
X232695585Y-189239938D01*
X232695585Y-189239938D02*
X232600347Y-189192319D01*
X232600347Y-189192319D02*
X232362252Y-189192319D01*
X232362252Y-189192319D02*
X232219395Y-189239938D01*
X231886061Y-189192319D02*
X231647966Y-190192319D01*
X231647966Y-190192319D02*
X231457490Y-189478033D01*
X231457490Y-189478033D02*
X231267014Y-190192319D01*
X231267014Y-190192319D02*
X231028919Y-189192319D01*
X230695585Y-189287557D02*
X230647966Y-189239938D01*
X230647966Y-189239938D02*
X230552728Y-189192319D01*
X230552728Y-189192319D02*
X230314633Y-189192319D01*
X230314633Y-189192319D02*
X230219395Y-189239938D01*
X230219395Y-189239938D02*
X230171776Y-189287557D01*
X230171776Y-189287557D02*
X230124157Y-189382795D01*
X230124157Y-189382795D02*
X230124157Y-189478033D01*
X230124157Y-189478033D02*
X230171776Y-189620890D01*
X230171776Y-189620890D02*
X230743204Y-190192319D01*
X230743204Y-190192319D02*
X230124157Y-190192319D01*
X229647966Y-190192319D02*
X229457490Y-190192319D01*
X229457490Y-190192319D02*
X229362252Y-190144700D01*
X229362252Y-190144700D02*
X229314633Y-190097080D01*
X229314633Y-190097080D02*
X229219395Y-189954223D01*
X229219395Y-189954223D02*
X229171776Y-189763747D01*
X229171776Y-189763747D02*
X229171776Y-189382795D01*
X229171776Y-189382795D02*
X229219395Y-189287557D01*
X229219395Y-189287557D02*
X229267014Y-189239938D01*
X229267014Y-189239938D02*
X229362252Y-189192319D01*
X229362252Y-189192319D02*
X229552728Y-189192319D01*
X229552728Y-189192319D02*
X229647966Y-189239938D01*
X229647966Y-189239938D02*
X229695585Y-189287557D01*
X229695585Y-189287557D02*
X229743204Y-189382795D01*
X229743204Y-189382795D02*
X229743204Y-189620890D01*
X229743204Y-189620890D02*
X229695585Y-189716128D01*
X229695585Y-189716128D02*
X229647966Y-189763747D01*
X229647966Y-189763747D02*
X229552728Y-189811366D01*
X229552728Y-189811366D02*
X229362252Y-189811366D01*
X229362252Y-189811366D02*
X229267014Y-189763747D01*
X229267014Y-189763747D02*
X229219395Y-189716128D01*
X229219395Y-189716128D02*
X229171776Y-189620890D01*
X156590823Y-185382200D02*
X156447966Y-185429819D01*
X156447966Y-185429819D02*
X156209871Y-185429819D01*
X156209871Y-185429819D02*
X156114633Y-185382200D01*
X156114633Y-185382200D02*
X156067014Y-185334580D01*
X156067014Y-185334580D02*
X156019395Y-185239342D01*
X156019395Y-185239342D02*
X156019395Y-185144104D01*
X156019395Y-185144104D02*
X156067014Y-185048866D01*
X156067014Y-185048866D02*
X156114633Y-185001247D01*
X156114633Y-185001247D02*
X156209871Y-184953628D01*
X156209871Y-184953628D02*
X156400347Y-184906009D01*
X156400347Y-184906009D02*
X156495585Y-184858390D01*
X156495585Y-184858390D02*
X156543204Y-184810771D01*
X156543204Y-184810771D02*
X156590823Y-184715533D01*
X156590823Y-184715533D02*
X156590823Y-184620295D01*
X156590823Y-184620295D02*
X156543204Y-184525057D01*
X156543204Y-184525057D02*
X156495585Y-184477438D01*
X156495585Y-184477438D02*
X156400347Y-184429819D01*
X156400347Y-184429819D02*
X156162252Y-184429819D01*
X156162252Y-184429819D02*
X156019395Y-184477438D01*
X155686061Y-184429819D02*
X155447966Y-185429819D01*
X155447966Y-185429819D02*
X155257490Y-184715533D01*
X155257490Y-184715533D02*
X155067014Y-185429819D01*
X155067014Y-185429819D02*
X154828919Y-184429819D01*
X153924157Y-185429819D02*
X154495585Y-185429819D01*
X154209871Y-185429819D02*
X154209871Y-184429819D01*
X154209871Y-184429819D02*
X154305109Y-184572676D01*
X154305109Y-184572676D02*
X154400347Y-184667914D01*
X154400347Y-184667914D02*
X154495585Y-184715533D01*
X153590823Y-184429819D02*
X152971776Y-184429819D01*
X152971776Y-184429819D02*
X153305109Y-184810771D01*
X153305109Y-184810771D02*
X153162252Y-184810771D01*
X153162252Y-184810771D02*
X153067014Y-184858390D01*
X153067014Y-184858390D02*
X153019395Y-184906009D01*
X153019395Y-184906009D02*
X152971776Y-185001247D01*
X152971776Y-185001247D02*
X152971776Y-185239342D01*
X152971776Y-185239342D02*
X153019395Y-185334580D01*
X153019395Y-185334580D02*
X153067014Y-185382200D01*
X153067014Y-185382200D02*
X153162252Y-185429819D01*
X153162252Y-185429819D02*
X153447966Y-185429819D01*
X153447966Y-185429819D02*
X153543204Y-185382200D01*
X153543204Y-185382200D02*
X153590823Y-185334580D01*
X308990823Y-166332200D02*
X308847966Y-166379819D01*
X308847966Y-166379819D02*
X308609871Y-166379819D01*
X308609871Y-166379819D02*
X308514633Y-166332200D01*
X308514633Y-166332200D02*
X308467014Y-166284580D01*
X308467014Y-166284580D02*
X308419395Y-166189342D01*
X308419395Y-166189342D02*
X308419395Y-166094104D01*
X308419395Y-166094104D02*
X308467014Y-165998866D01*
X308467014Y-165998866D02*
X308514633Y-165951247D01*
X308514633Y-165951247D02*
X308609871Y-165903628D01*
X308609871Y-165903628D02*
X308800347Y-165856009D01*
X308800347Y-165856009D02*
X308895585Y-165808390D01*
X308895585Y-165808390D02*
X308943204Y-165760771D01*
X308943204Y-165760771D02*
X308990823Y-165665533D01*
X308990823Y-165665533D02*
X308990823Y-165570295D01*
X308990823Y-165570295D02*
X308943204Y-165475057D01*
X308943204Y-165475057D02*
X308895585Y-165427438D01*
X308895585Y-165427438D02*
X308800347Y-165379819D01*
X308800347Y-165379819D02*
X308562252Y-165379819D01*
X308562252Y-165379819D02*
X308419395Y-165427438D01*
X308086061Y-165379819D02*
X307847966Y-166379819D01*
X307847966Y-166379819D02*
X307657490Y-165665533D01*
X307657490Y-165665533D02*
X307467014Y-166379819D01*
X307467014Y-166379819D02*
X307228919Y-165379819D01*
X306943204Y-165379819D02*
X306324157Y-165379819D01*
X306324157Y-165379819D02*
X306657490Y-165760771D01*
X306657490Y-165760771D02*
X306514633Y-165760771D01*
X306514633Y-165760771D02*
X306419395Y-165808390D01*
X306419395Y-165808390D02*
X306371776Y-165856009D01*
X306371776Y-165856009D02*
X306324157Y-165951247D01*
X306324157Y-165951247D02*
X306324157Y-166189342D01*
X306324157Y-166189342D02*
X306371776Y-166284580D01*
X306371776Y-166284580D02*
X306419395Y-166332200D01*
X306419395Y-166332200D02*
X306514633Y-166379819D01*
X306514633Y-166379819D02*
X306800347Y-166379819D01*
X306800347Y-166379819D02*
X306895585Y-166332200D01*
X306895585Y-166332200D02*
X306943204Y-166284580D01*
X305847966Y-166379819D02*
X305657490Y-166379819D01*
X305657490Y-166379819D02*
X305562252Y-166332200D01*
X305562252Y-166332200D02*
X305514633Y-166284580D01*
X305514633Y-166284580D02*
X305419395Y-166141723D01*
X305419395Y-166141723D02*
X305371776Y-165951247D01*
X305371776Y-165951247D02*
X305371776Y-165570295D01*
X305371776Y-165570295D02*
X305419395Y-165475057D01*
X305419395Y-165475057D02*
X305467014Y-165427438D01*
X305467014Y-165427438D02*
X305562252Y-165379819D01*
X305562252Y-165379819D02*
X305752728Y-165379819D01*
X305752728Y-165379819D02*
X305847966Y-165427438D01*
X305847966Y-165427438D02*
X305895585Y-165475057D01*
X305895585Y-165475057D02*
X305943204Y-165570295D01*
X305943204Y-165570295D02*
X305943204Y-165808390D01*
X305943204Y-165808390D02*
X305895585Y-165903628D01*
X305895585Y-165903628D02*
X305847966Y-165951247D01*
X305847966Y-165951247D02*
X305752728Y-165998866D01*
X305752728Y-165998866D02*
X305562252Y-165998866D01*
X305562252Y-165998866D02*
X305467014Y-165951247D01*
X305467014Y-165951247D02*
X305419395Y-165903628D01*
X305419395Y-165903628D02*
X305371776Y-165808390D01*
X232790823Y-132994700D02*
X232647966Y-133042319D01*
X232647966Y-133042319D02*
X232409871Y-133042319D01*
X232409871Y-133042319D02*
X232314633Y-132994700D01*
X232314633Y-132994700D02*
X232267014Y-132947080D01*
X232267014Y-132947080D02*
X232219395Y-132851842D01*
X232219395Y-132851842D02*
X232219395Y-132756604D01*
X232219395Y-132756604D02*
X232267014Y-132661366D01*
X232267014Y-132661366D02*
X232314633Y-132613747D01*
X232314633Y-132613747D02*
X232409871Y-132566128D01*
X232409871Y-132566128D02*
X232600347Y-132518509D01*
X232600347Y-132518509D02*
X232695585Y-132470890D01*
X232695585Y-132470890D02*
X232743204Y-132423271D01*
X232743204Y-132423271D02*
X232790823Y-132328033D01*
X232790823Y-132328033D02*
X232790823Y-132232795D01*
X232790823Y-132232795D02*
X232743204Y-132137557D01*
X232743204Y-132137557D02*
X232695585Y-132089938D01*
X232695585Y-132089938D02*
X232600347Y-132042319D01*
X232600347Y-132042319D02*
X232362252Y-132042319D01*
X232362252Y-132042319D02*
X232219395Y-132089938D01*
X231886061Y-132042319D02*
X231647966Y-133042319D01*
X231647966Y-133042319D02*
X231457490Y-132328033D01*
X231457490Y-132328033D02*
X231267014Y-133042319D01*
X231267014Y-133042319D02*
X231028919Y-132042319D01*
X230695585Y-132137557D02*
X230647966Y-132089938D01*
X230647966Y-132089938D02*
X230552728Y-132042319D01*
X230552728Y-132042319D02*
X230314633Y-132042319D01*
X230314633Y-132042319D02*
X230219395Y-132089938D01*
X230219395Y-132089938D02*
X230171776Y-132137557D01*
X230171776Y-132137557D02*
X230124157Y-132232795D01*
X230124157Y-132232795D02*
X230124157Y-132328033D01*
X230124157Y-132328033D02*
X230171776Y-132470890D01*
X230171776Y-132470890D02*
X230743204Y-133042319D01*
X230743204Y-133042319D02*
X230124157Y-133042319D01*
X229743204Y-132137557D02*
X229695585Y-132089938D01*
X229695585Y-132089938D02*
X229600347Y-132042319D01*
X229600347Y-132042319D02*
X229362252Y-132042319D01*
X229362252Y-132042319D02*
X229267014Y-132089938D01*
X229267014Y-132089938D02*
X229219395Y-132137557D01*
X229219395Y-132137557D02*
X229171776Y-132232795D01*
X229171776Y-132232795D02*
X229171776Y-132328033D01*
X229171776Y-132328033D02*
X229219395Y-132470890D01*
X229219395Y-132470890D02*
X229790823Y-133042319D01*
X229790823Y-133042319D02*
X229171776Y-133042319D01*
X270890823Y-147282200D02*
X270747966Y-147329819D01*
X270747966Y-147329819D02*
X270509871Y-147329819D01*
X270509871Y-147329819D02*
X270414633Y-147282200D01*
X270414633Y-147282200D02*
X270367014Y-147234580D01*
X270367014Y-147234580D02*
X270319395Y-147139342D01*
X270319395Y-147139342D02*
X270319395Y-147044104D01*
X270319395Y-147044104D02*
X270367014Y-146948866D01*
X270367014Y-146948866D02*
X270414633Y-146901247D01*
X270414633Y-146901247D02*
X270509871Y-146853628D01*
X270509871Y-146853628D02*
X270700347Y-146806009D01*
X270700347Y-146806009D02*
X270795585Y-146758390D01*
X270795585Y-146758390D02*
X270843204Y-146710771D01*
X270843204Y-146710771D02*
X270890823Y-146615533D01*
X270890823Y-146615533D02*
X270890823Y-146520295D01*
X270890823Y-146520295D02*
X270843204Y-146425057D01*
X270843204Y-146425057D02*
X270795585Y-146377438D01*
X270795585Y-146377438D02*
X270700347Y-146329819D01*
X270700347Y-146329819D02*
X270462252Y-146329819D01*
X270462252Y-146329819D02*
X270319395Y-146377438D01*
X269986061Y-146329819D02*
X269747966Y-147329819D01*
X269747966Y-147329819D02*
X269557490Y-146615533D01*
X269557490Y-146615533D02*
X269367014Y-147329819D01*
X269367014Y-147329819D02*
X269128919Y-146329819D01*
X268843204Y-146329819D02*
X268224157Y-146329819D01*
X268224157Y-146329819D02*
X268557490Y-146710771D01*
X268557490Y-146710771D02*
X268414633Y-146710771D01*
X268414633Y-146710771D02*
X268319395Y-146758390D01*
X268319395Y-146758390D02*
X268271776Y-146806009D01*
X268271776Y-146806009D02*
X268224157Y-146901247D01*
X268224157Y-146901247D02*
X268224157Y-147139342D01*
X268224157Y-147139342D02*
X268271776Y-147234580D01*
X268271776Y-147234580D02*
X268319395Y-147282200D01*
X268319395Y-147282200D02*
X268414633Y-147329819D01*
X268414633Y-147329819D02*
X268700347Y-147329819D01*
X268700347Y-147329819D02*
X268795585Y-147282200D01*
X268795585Y-147282200D02*
X268843204Y-147234580D01*
X267843204Y-146425057D02*
X267795585Y-146377438D01*
X267795585Y-146377438D02*
X267700347Y-146329819D01*
X267700347Y-146329819D02*
X267462252Y-146329819D01*
X267462252Y-146329819D02*
X267367014Y-146377438D01*
X267367014Y-146377438D02*
X267319395Y-146425057D01*
X267319395Y-146425057D02*
X267271776Y-146520295D01*
X267271776Y-146520295D02*
X267271776Y-146615533D01*
X267271776Y-146615533D02*
X267319395Y-146758390D01*
X267319395Y-146758390D02*
X267890823Y-147329819D01*
X267890823Y-147329819D02*
X267271776Y-147329819D01*
X79914632Y-132994700D02*
X79771775Y-133042319D01*
X79771775Y-133042319D02*
X79533680Y-133042319D01*
X79533680Y-133042319D02*
X79438442Y-132994700D01*
X79438442Y-132994700D02*
X79390823Y-132947080D01*
X79390823Y-132947080D02*
X79343204Y-132851842D01*
X79343204Y-132851842D02*
X79343204Y-132756604D01*
X79343204Y-132756604D02*
X79390823Y-132661366D01*
X79390823Y-132661366D02*
X79438442Y-132613747D01*
X79438442Y-132613747D02*
X79533680Y-132566128D01*
X79533680Y-132566128D02*
X79724156Y-132518509D01*
X79724156Y-132518509D02*
X79819394Y-132470890D01*
X79819394Y-132470890D02*
X79867013Y-132423271D01*
X79867013Y-132423271D02*
X79914632Y-132328033D01*
X79914632Y-132328033D02*
X79914632Y-132232795D01*
X79914632Y-132232795D02*
X79867013Y-132137557D01*
X79867013Y-132137557D02*
X79819394Y-132089938D01*
X79819394Y-132089938D02*
X79724156Y-132042319D01*
X79724156Y-132042319D02*
X79486061Y-132042319D01*
X79486061Y-132042319D02*
X79343204Y-132089938D01*
X79009870Y-132042319D02*
X78771775Y-133042319D01*
X78771775Y-133042319D02*
X78581299Y-132328033D01*
X78581299Y-132328033D02*
X78390823Y-133042319D01*
X78390823Y-133042319D02*
X78152728Y-132042319D01*
X77247966Y-133042319D02*
X77819394Y-133042319D01*
X77533680Y-133042319D02*
X77533680Y-132042319D01*
X77533680Y-132042319D02*
X77628918Y-132185176D01*
X77628918Y-132185176D02*
X77724156Y-132280414D01*
X77724156Y-132280414D02*
X77819394Y-132328033D01*
X175640823Y-132994700D02*
X175497966Y-133042319D01*
X175497966Y-133042319D02*
X175259871Y-133042319D01*
X175259871Y-133042319D02*
X175164633Y-132994700D01*
X175164633Y-132994700D02*
X175117014Y-132947080D01*
X175117014Y-132947080D02*
X175069395Y-132851842D01*
X175069395Y-132851842D02*
X175069395Y-132756604D01*
X175069395Y-132756604D02*
X175117014Y-132661366D01*
X175117014Y-132661366D02*
X175164633Y-132613747D01*
X175164633Y-132613747D02*
X175259871Y-132566128D01*
X175259871Y-132566128D02*
X175450347Y-132518509D01*
X175450347Y-132518509D02*
X175545585Y-132470890D01*
X175545585Y-132470890D02*
X175593204Y-132423271D01*
X175593204Y-132423271D02*
X175640823Y-132328033D01*
X175640823Y-132328033D02*
X175640823Y-132232795D01*
X175640823Y-132232795D02*
X175593204Y-132137557D01*
X175593204Y-132137557D02*
X175545585Y-132089938D01*
X175545585Y-132089938D02*
X175450347Y-132042319D01*
X175450347Y-132042319D02*
X175212252Y-132042319D01*
X175212252Y-132042319D02*
X175069395Y-132089938D01*
X174736061Y-132042319D02*
X174497966Y-133042319D01*
X174497966Y-133042319D02*
X174307490Y-132328033D01*
X174307490Y-132328033D02*
X174117014Y-133042319D01*
X174117014Y-133042319D02*
X173878919Y-132042319D01*
X172974157Y-133042319D02*
X173545585Y-133042319D01*
X173259871Y-133042319D02*
X173259871Y-132042319D01*
X173259871Y-132042319D02*
X173355109Y-132185176D01*
X173355109Y-132185176D02*
X173450347Y-132280414D01*
X173450347Y-132280414D02*
X173545585Y-132328033D01*
X172402728Y-132470890D02*
X172497966Y-132423271D01*
X172497966Y-132423271D02*
X172545585Y-132375652D01*
X172545585Y-132375652D02*
X172593204Y-132280414D01*
X172593204Y-132280414D02*
X172593204Y-132232795D01*
X172593204Y-132232795D02*
X172545585Y-132137557D01*
X172545585Y-132137557D02*
X172497966Y-132089938D01*
X172497966Y-132089938D02*
X172402728Y-132042319D01*
X172402728Y-132042319D02*
X172212252Y-132042319D01*
X172212252Y-132042319D02*
X172117014Y-132089938D01*
X172117014Y-132089938D02*
X172069395Y-132137557D01*
X172069395Y-132137557D02*
X172021776Y-132232795D01*
X172021776Y-132232795D02*
X172021776Y-132280414D01*
X172021776Y-132280414D02*
X172069395Y-132375652D01*
X172069395Y-132375652D02*
X172117014Y-132423271D01*
X172117014Y-132423271D02*
X172212252Y-132470890D01*
X172212252Y-132470890D02*
X172402728Y-132470890D01*
X172402728Y-132470890D02*
X172497966Y-132518509D01*
X172497966Y-132518509D02*
X172545585Y-132566128D01*
X172545585Y-132566128D02*
X172593204Y-132661366D01*
X172593204Y-132661366D02*
X172593204Y-132851842D01*
X172593204Y-132851842D02*
X172545585Y-132947080D01*
X172545585Y-132947080D02*
X172497966Y-132994700D01*
X172497966Y-132994700D02*
X172402728Y-133042319D01*
X172402728Y-133042319D02*
X172212252Y-133042319D01*
X172212252Y-133042319D02*
X172117014Y-132994700D01*
X172117014Y-132994700D02*
X172069395Y-132947080D01*
X172069395Y-132947080D02*
X172021776Y-132851842D01*
X172021776Y-132851842D02*
X172021776Y-132661366D01*
X172021776Y-132661366D02*
X172069395Y-132566128D01*
X172069395Y-132566128D02*
X172117014Y-132518509D01*
X172117014Y-132518509D02*
X172212252Y-132470890D01*
X118014632Y-166332200D02*
X117871775Y-166379819D01*
X117871775Y-166379819D02*
X117633680Y-166379819D01*
X117633680Y-166379819D02*
X117538442Y-166332200D01*
X117538442Y-166332200D02*
X117490823Y-166284580D01*
X117490823Y-166284580D02*
X117443204Y-166189342D01*
X117443204Y-166189342D02*
X117443204Y-166094104D01*
X117443204Y-166094104D02*
X117490823Y-165998866D01*
X117490823Y-165998866D02*
X117538442Y-165951247D01*
X117538442Y-165951247D02*
X117633680Y-165903628D01*
X117633680Y-165903628D02*
X117824156Y-165856009D01*
X117824156Y-165856009D02*
X117919394Y-165808390D01*
X117919394Y-165808390D02*
X117967013Y-165760771D01*
X117967013Y-165760771D02*
X118014632Y-165665533D01*
X118014632Y-165665533D02*
X118014632Y-165570295D01*
X118014632Y-165570295D02*
X117967013Y-165475057D01*
X117967013Y-165475057D02*
X117919394Y-165427438D01*
X117919394Y-165427438D02*
X117824156Y-165379819D01*
X117824156Y-165379819D02*
X117586061Y-165379819D01*
X117586061Y-165379819D02*
X117443204Y-165427438D01*
X117109870Y-165379819D02*
X116871775Y-166379819D01*
X116871775Y-166379819D02*
X116681299Y-165665533D01*
X116681299Y-165665533D02*
X116490823Y-166379819D01*
X116490823Y-166379819D02*
X116252728Y-165379819D01*
X115824156Y-166379819D02*
X115633680Y-166379819D01*
X115633680Y-166379819D02*
X115538442Y-166332200D01*
X115538442Y-166332200D02*
X115490823Y-166284580D01*
X115490823Y-166284580D02*
X115395585Y-166141723D01*
X115395585Y-166141723D02*
X115347966Y-165951247D01*
X115347966Y-165951247D02*
X115347966Y-165570295D01*
X115347966Y-165570295D02*
X115395585Y-165475057D01*
X115395585Y-165475057D02*
X115443204Y-165427438D01*
X115443204Y-165427438D02*
X115538442Y-165379819D01*
X115538442Y-165379819D02*
X115728918Y-165379819D01*
X115728918Y-165379819D02*
X115824156Y-165427438D01*
X115824156Y-165427438D02*
X115871775Y-165475057D01*
X115871775Y-165475057D02*
X115919394Y-165570295D01*
X115919394Y-165570295D02*
X115919394Y-165808390D01*
X115919394Y-165808390D02*
X115871775Y-165903628D01*
X115871775Y-165903628D02*
X115824156Y-165951247D01*
X115824156Y-165951247D02*
X115728918Y-165998866D01*
X115728918Y-165998866D02*
X115538442Y-165998866D01*
X115538442Y-165998866D02*
X115443204Y-165951247D01*
X115443204Y-165951247D02*
X115395585Y-165903628D01*
X115395585Y-165903628D02*
X115347966Y-165808390D01*
X175640823Y-152044700D02*
X175497966Y-152092319D01*
X175497966Y-152092319D02*
X175259871Y-152092319D01*
X175259871Y-152092319D02*
X175164633Y-152044700D01*
X175164633Y-152044700D02*
X175117014Y-151997080D01*
X175117014Y-151997080D02*
X175069395Y-151901842D01*
X175069395Y-151901842D02*
X175069395Y-151806604D01*
X175069395Y-151806604D02*
X175117014Y-151711366D01*
X175117014Y-151711366D02*
X175164633Y-151663747D01*
X175164633Y-151663747D02*
X175259871Y-151616128D01*
X175259871Y-151616128D02*
X175450347Y-151568509D01*
X175450347Y-151568509D02*
X175545585Y-151520890D01*
X175545585Y-151520890D02*
X175593204Y-151473271D01*
X175593204Y-151473271D02*
X175640823Y-151378033D01*
X175640823Y-151378033D02*
X175640823Y-151282795D01*
X175640823Y-151282795D02*
X175593204Y-151187557D01*
X175593204Y-151187557D02*
X175545585Y-151139938D01*
X175545585Y-151139938D02*
X175450347Y-151092319D01*
X175450347Y-151092319D02*
X175212252Y-151092319D01*
X175212252Y-151092319D02*
X175069395Y-151139938D01*
X174736061Y-151092319D02*
X174497966Y-152092319D01*
X174497966Y-152092319D02*
X174307490Y-151378033D01*
X174307490Y-151378033D02*
X174117014Y-152092319D01*
X174117014Y-152092319D02*
X173878919Y-151092319D01*
X172974157Y-152092319D02*
X173545585Y-152092319D01*
X173259871Y-152092319D02*
X173259871Y-151092319D01*
X173259871Y-151092319D02*
X173355109Y-151235176D01*
X173355109Y-151235176D02*
X173450347Y-151330414D01*
X173450347Y-151330414D02*
X173545585Y-151378033D01*
X172497966Y-152092319D02*
X172307490Y-152092319D01*
X172307490Y-152092319D02*
X172212252Y-152044700D01*
X172212252Y-152044700D02*
X172164633Y-151997080D01*
X172164633Y-151997080D02*
X172069395Y-151854223D01*
X172069395Y-151854223D02*
X172021776Y-151663747D01*
X172021776Y-151663747D02*
X172021776Y-151282795D01*
X172021776Y-151282795D02*
X172069395Y-151187557D01*
X172069395Y-151187557D02*
X172117014Y-151139938D01*
X172117014Y-151139938D02*
X172212252Y-151092319D01*
X172212252Y-151092319D02*
X172402728Y-151092319D01*
X172402728Y-151092319D02*
X172497966Y-151139938D01*
X172497966Y-151139938D02*
X172545585Y-151187557D01*
X172545585Y-151187557D02*
X172593204Y-151282795D01*
X172593204Y-151282795D02*
X172593204Y-151520890D01*
X172593204Y-151520890D02*
X172545585Y-151616128D01*
X172545585Y-151616128D02*
X172497966Y-151663747D01*
X172497966Y-151663747D02*
X172402728Y-151711366D01*
X172402728Y-151711366D02*
X172212252Y-151711366D01*
X172212252Y-151711366D02*
X172117014Y-151663747D01*
X172117014Y-151663747D02*
X172069395Y-151616128D01*
X172069395Y-151616128D02*
X172021776Y-151520890D01*
X251840823Y-147282200D02*
X251697966Y-147329819D01*
X251697966Y-147329819D02*
X251459871Y-147329819D01*
X251459871Y-147329819D02*
X251364633Y-147282200D01*
X251364633Y-147282200D02*
X251317014Y-147234580D01*
X251317014Y-147234580D02*
X251269395Y-147139342D01*
X251269395Y-147139342D02*
X251269395Y-147044104D01*
X251269395Y-147044104D02*
X251317014Y-146948866D01*
X251317014Y-146948866D02*
X251364633Y-146901247D01*
X251364633Y-146901247D02*
X251459871Y-146853628D01*
X251459871Y-146853628D02*
X251650347Y-146806009D01*
X251650347Y-146806009D02*
X251745585Y-146758390D01*
X251745585Y-146758390D02*
X251793204Y-146710771D01*
X251793204Y-146710771D02*
X251840823Y-146615533D01*
X251840823Y-146615533D02*
X251840823Y-146520295D01*
X251840823Y-146520295D02*
X251793204Y-146425057D01*
X251793204Y-146425057D02*
X251745585Y-146377438D01*
X251745585Y-146377438D02*
X251650347Y-146329819D01*
X251650347Y-146329819D02*
X251412252Y-146329819D01*
X251412252Y-146329819D02*
X251269395Y-146377438D01*
X250936061Y-146329819D02*
X250697966Y-147329819D01*
X250697966Y-147329819D02*
X250507490Y-146615533D01*
X250507490Y-146615533D02*
X250317014Y-147329819D01*
X250317014Y-147329819D02*
X250078919Y-146329819D01*
X249745585Y-146425057D02*
X249697966Y-146377438D01*
X249697966Y-146377438D02*
X249602728Y-146329819D01*
X249602728Y-146329819D02*
X249364633Y-146329819D01*
X249364633Y-146329819D02*
X249269395Y-146377438D01*
X249269395Y-146377438D02*
X249221776Y-146425057D01*
X249221776Y-146425057D02*
X249174157Y-146520295D01*
X249174157Y-146520295D02*
X249174157Y-146615533D01*
X249174157Y-146615533D02*
X249221776Y-146758390D01*
X249221776Y-146758390D02*
X249793204Y-147329819D01*
X249793204Y-147329819D02*
X249174157Y-147329819D01*
X248840823Y-146329819D02*
X248174157Y-146329819D01*
X248174157Y-146329819D02*
X248602728Y-147329819D01*
X98964632Y-128232200D02*
X98821775Y-128279819D01*
X98821775Y-128279819D02*
X98583680Y-128279819D01*
X98583680Y-128279819D02*
X98488442Y-128232200D01*
X98488442Y-128232200D02*
X98440823Y-128184580D01*
X98440823Y-128184580D02*
X98393204Y-128089342D01*
X98393204Y-128089342D02*
X98393204Y-127994104D01*
X98393204Y-127994104D02*
X98440823Y-127898866D01*
X98440823Y-127898866D02*
X98488442Y-127851247D01*
X98488442Y-127851247D02*
X98583680Y-127803628D01*
X98583680Y-127803628D02*
X98774156Y-127756009D01*
X98774156Y-127756009D02*
X98869394Y-127708390D01*
X98869394Y-127708390D02*
X98917013Y-127660771D01*
X98917013Y-127660771D02*
X98964632Y-127565533D01*
X98964632Y-127565533D02*
X98964632Y-127470295D01*
X98964632Y-127470295D02*
X98917013Y-127375057D01*
X98917013Y-127375057D02*
X98869394Y-127327438D01*
X98869394Y-127327438D02*
X98774156Y-127279819D01*
X98774156Y-127279819D02*
X98536061Y-127279819D01*
X98536061Y-127279819D02*
X98393204Y-127327438D01*
X98059870Y-127279819D02*
X97821775Y-128279819D01*
X97821775Y-128279819D02*
X97631299Y-127565533D01*
X97631299Y-127565533D02*
X97440823Y-128279819D01*
X97440823Y-128279819D02*
X97202728Y-127279819D01*
X96393204Y-127613152D02*
X96393204Y-128279819D01*
X96631299Y-127232200D02*
X96869394Y-127946485D01*
X96869394Y-127946485D02*
X96250347Y-127946485D01*
X289940823Y-128232200D02*
X289797966Y-128279819D01*
X289797966Y-128279819D02*
X289559871Y-128279819D01*
X289559871Y-128279819D02*
X289464633Y-128232200D01*
X289464633Y-128232200D02*
X289417014Y-128184580D01*
X289417014Y-128184580D02*
X289369395Y-128089342D01*
X289369395Y-128089342D02*
X289369395Y-127994104D01*
X289369395Y-127994104D02*
X289417014Y-127898866D01*
X289417014Y-127898866D02*
X289464633Y-127851247D01*
X289464633Y-127851247D02*
X289559871Y-127803628D01*
X289559871Y-127803628D02*
X289750347Y-127756009D01*
X289750347Y-127756009D02*
X289845585Y-127708390D01*
X289845585Y-127708390D02*
X289893204Y-127660771D01*
X289893204Y-127660771D02*
X289940823Y-127565533D01*
X289940823Y-127565533D02*
X289940823Y-127470295D01*
X289940823Y-127470295D02*
X289893204Y-127375057D01*
X289893204Y-127375057D02*
X289845585Y-127327438D01*
X289845585Y-127327438D02*
X289750347Y-127279819D01*
X289750347Y-127279819D02*
X289512252Y-127279819D01*
X289512252Y-127279819D02*
X289369395Y-127327438D01*
X289036061Y-127279819D02*
X288797966Y-128279819D01*
X288797966Y-128279819D02*
X288607490Y-127565533D01*
X288607490Y-127565533D02*
X288417014Y-128279819D01*
X288417014Y-128279819D02*
X288178919Y-127279819D01*
X287893204Y-127279819D02*
X287274157Y-127279819D01*
X287274157Y-127279819D02*
X287607490Y-127660771D01*
X287607490Y-127660771D02*
X287464633Y-127660771D01*
X287464633Y-127660771D02*
X287369395Y-127708390D01*
X287369395Y-127708390D02*
X287321776Y-127756009D01*
X287321776Y-127756009D02*
X287274157Y-127851247D01*
X287274157Y-127851247D02*
X287274157Y-128089342D01*
X287274157Y-128089342D02*
X287321776Y-128184580D01*
X287321776Y-128184580D02*
X287369395Y-128232200D01*
X287369395Y-128232200D02*
X287464633Y-128279819D01*
X287464633Y-128279819D02*
X287750347Y-128279819D01*
X287750347Y-128279819D02*
X287845585Y-128232200D01*
X287845585Y-128232200D02*
X287893204Y-128184580D01*
X286417014Y-127613152D02*
X286417014Y-128279819D01*
X286655109Y-127232200D02*
X286893204Y-127946485D01*
X286893204Y-127946485D02*
X286274157Y-127946485D01*
X156590823Y-128232200D02*
X156447966Y-128279819D01*
X156447966Y-128279819D02*
X156209871Y-128279819D01*
X156209871Y-128279819D02*
X156114633Y-128232200D01*
X156114633Y-128232200D02*
X156067014Y-128184580D01*
X156067014Y-128184580D02*
X156019395Y-128089342D01*
X156019395Y-128089342D02*
X156019395Y-127994104D01*
X156019395Y-127994104D02*
X156067014Y-127898866D01*
X156067014Y-127898866D02*
X156114633Y-127851247D01*
X156114633Y-127851247D02*
X156209871Y-127803628D01*
X156209871Y-127803628D02*
X156400347Y-127756009D01*
X156400347Y-127756009D02*
X156495585Y-127708390D01*
X156495585Y-127708390D02*
X156543204Y-127660771D01*
X156543204Y-127660771D02*
X156590823Y-127565533D01*
X156590823Y-127565533D02*
X156590823Y-127470295D01*
X156590823Y-127470295D02*
X156543204Y-127375057D01*
X156543204Y-127375057D02*
X156495585Y-127327438D01*
X156495585Y-127327438D02*
X156400347Y-127279819D01*
X156400347Y-127279819D02*
X156162252Y-127279819D01*
X156162252Y-127279819D02*
X156019395Y-127327438D01*
X155686061Y-127279819D02*
X155447966Y-128279819D01*
X155447966Y-128279819D02*
X155257490Y-127565533D01*
X155257490Y-127565533D02*
X155067014Y-128279819D01*
X155067014Y-128279819D02*
X154828919Y-127279819D01*
X153924157Y-128279819D02*
X154495585Y-128279819D01*
X154209871Y-128279819D02*
X154209871Y-127279819D01*
X154209871Y-127279819D02*
X154305109Y-127422676D01*
X154305109Y-127422676D02*
X154400347Y-127517914D01*
X154400347Y-127517914D02*
X154495585Y-127565533D01*
X153067014Y-127613152D02*
X153067014Y-128279819D01*
X153305109Y-127232200D02*
X153543204Y-127946485D01*
X153543204Y-127946485D02*
X152924157Y-127946485D01*
X251840823Y-166332200D02*
X251697966Y-166379819D01*
X251697966Y-166379819D02*
X251459871Y-166379819D01*
X251459871Y-166379819D02*
X251364633Y-166332200D01*
X251364633Y-166332200D02*
X251317014Y-166284580D01*
X251317014Y-166284580D02*
X251269395Y-166189342D01*
X251269395Y-166189342D02*
X251269395Y-166094104D01*
X251269395Y-166094104D02*
X251317014Y-165998866D01*
X251317014Y-165998866D02*
X251364633Y-165951247D01*
X251364633Y-165951247D02*
X251459871Y-165903628D01*
X251459871Y-165903628D02*
X251650347Y-165856009D01*
X251650347Y-165856009D02*
X251745585Y-165808390D01*
X251745585Y-165808390D02*
X251793204Y-165760771D01*
X251793204Y-165760771D02*
X251840823Y-165665533D01*
X251840823Y-165665533D02*
X251840823Y-165570295D01*
X251840823Y-165570295D02*
X251793204Y-165475057D01*
X251793204Y-165475057D02*
X251745585Y-165427438D01*
X251745585Y-165427438D02*
X251650347Y-165379819D01*
X251650347Y-165379819D02*
X251412252Y-165379819D01*
X251412252Y-165379819D02*
X251269395Y-165427438D01*
X250936061Y-165379819D02*
X250697966Y-166379819D01*
X250697966Y-166379819D02*
X250507490Y-165665533D01*
X250507490Y-165665533D02*
X250317014Y-166379819D01*
X250317014Y-166379819D02*
X250078919Y-165379819D01*
X249745585Y-165475057D02*
X249697966Y-165427438D01*
X249697966Y-165427438D02*
X249602728Y-165379819D01*
X249602728Y-165379819D02*
X249364633Y-165379819D01*
X249364633Y-165379819D02*
X249269395Y-165427438D01*
X249269395Y-165427438D02*
X249221776Y-165475057D01*
X249221776Y-165475057D02*
X249174157Y-165570295D01*
X249174157Y-165570295D02*
X249174157Y-165665533D01*
X249174157Y-165665533D02*
X249221776Y-165808390D01*
X249221776Y-165808390D02*
X249793204Y-166379819D01*
X249793204Y-166379819D02*
X249174157Y-166379819D01*
X248602728Y-165808390D02*
X248697966Y-165760771D01*
X248697966Y-165760771D02*
X248745585Y-165713152D01*
X248745585Y-165713152D02*
X248793204Y-165617914D01*
X248793204Y-165617914D02*
X248793204Y-165570295D01*
X248793204Y-165570295D02*
X248745585Y-165475057D01*
X248745585Y-165475057D02*
X248697966Y-165427438D01*
X248697966Y-165427438D02*
X248602728Y-165379819D01*
X248602728Y-165379819D02*
X248412252Y-165379819D01*
X248412252Y-165379819D02*
X248317014Y-165427438D01*
X248317014Y-165427438D02*
X248269395Y-165475057D01*
X248269395Y-165475057D02*
X248221776Y-165570295D01*
X248221776Y-165570295D02*
X248221776Y-165617914D01*
X248221776Y-165617914D02*
X248269395Y-165713152D01*
X248269395Y-165713152D02*
X248317014Y-165760771D01*
X248317014Y-165760771D02*
X248412252Y-165808390D01*
X248412252Y-165808390D02*
X248602728Y-165808390D01*
X248602728Y-165808390D02*
X248697966Y-165856009D01*
X248697966Y-165856009D02*
X248745585Y-165903628D01*
X248745585Y-165903628D02*
X248793204Y-165998866D01*
X248793204Y-165998866D02*
X248793204Y-166189342D01*
X248793204Y-166189342D02*
X248745585Y-166284580D01*
X248745585Y-166284580D02*
X248697966Y-166332200D01*
X248697966Y-166332200D02*
X248602728Y-166379819D01*
X248602728Y-166379819D02*
X248412252Y-166379819D01*
X248412252Y-166379819D02*
X248317014Y-166332200D01*
X248317014Y-166332200D02*
X248269395Y-166284580D01*
X248269395Y-166284580D02*
X248221776Y-166189342D01*
X248221776Y-166189342D02*
X248221776Y-165998866D01*
X248221776Y-165998866D02*
X248269395Y-165903628D01*
X248269395Y-165903628D02*
X248317014Y-165856009D01*
X248317014Y-165856009D02*
X248412252Y-165808390D01*
X330194500Y-155352976D02*
X330242119Y-155495833D01*
X330242119Y-155495833D02*
X330242119Y-155733928D01*
X330242119Y-155733928D02*
X330194500Y-155829166D01*
X330194500Y-155829166D02*
X330146880Y-155876785D01*
X330146880Y-155876785D02*
X330051642Y-155924404D01*
X330051642Y-155924404D02*
X329956404Y-155924404D01*
X329956404Y-155924404D02*
X329861166Y-155876785D01*
X329861166Y-155876785D02*
X329813547Y-155829166D01*
X329813547Y-155829166D02*
X329765928Y-155733928D01*
X329765928Y-155733928D02*
X329718309Y-155543452D01*
X329718309Y-155543452D02*
X329670690Y-155448214D01*
X329670690Y-155448214D02*
X329623071Y-155400595D01*
X329623071Y-155400595D02*
X329527833Y-155352976D01*
X329527833Y-155352976D02*
X329432595Y-155352976D01*
X329432595Y-155352976D02*
X329337357Y-155400595D01*
X329337357Y-155400595D02*
X329289738Y-155448214D01*
X329289738Y-155448214D02*
X329242119Y-155543452D01*
X329242119Y-155543452D02*
X329242119Y-155781547D01*
X329242119Y-155781547D02*
X329289738Y-155924404D01*
X329242119Y-156257738D02*
X330242119Y-156495833D01*
X330242119Y-156495833D02*
X329527833Y-156686309D01*
X329527833Y-156686309D02*
X330242119Y-156876785D01*
X330242119Y-156876785D02*
X329242119Y-157114881D01*
X329575452Y-157924404D02*
X330242119Y-157924404D01*
X329194500Y-157686309D02*
X329908785Y-157448214D01*
X329908785Y-157448214D02*
X329908785Y-158067261D01*
X330242119Y-158972023D02*
X330242119Y-158400595D01*
X330242119Y-158686309D02*
X329242119Y-158686309D01*
X329242119Y-158686309D02*
X329384976Y-158591071D01*
X329384976Y-158591071D02*
X329480214Y-158495833D01*
X329480214Y-158495833D02*
X329527833Y-158400595D01*
X289940823Y-147282200D02*
X289797966Y-147329819D01*
X289797966Y-147329819D02*
X289559871Y-147329819D01*
X289559871Y-147329819D02*
X289464633Y-147282200D01*
X289464633Y-147282200D02*
X289417014Y-147234580D01*
X289417014Y-147234580D02*
X289369395Y-147139342D01*
X289369395Y-147139342D02*
X289369395Y-147044104D01*
X289369395Y-147044104D02*
X289417014Y-146948866D01*
X289417014Y-146948866D02*
X289464633Y-146901247D01*
X289464633Y-146901247D02*
X289559871Y-146853628D01*
X289559871Y-146853628D02*
X289750347Y-146806009D01*
X289750347Y-146806009D02*
X289845585Y-146758390D01*
X289845585Y-146758390D02*
X289893204Y-146710771D01*
X289893204Y-146710771D02*
X289940823Y-146615533D01*
X289940823Y-146615533D02*
X289940823Y-146520295D01*
X289940823Y-146520295D02*
X289893204Y-146425057D01*
X289893204Y-146425057D02*
X289845585Y-146377438D01*
X289845585Y-146377438D02*
X289750347Y-146329819D01*
X289750347Y-146329819D02*
X289512252Y-146329819D01*
X289512252Y-146329819D02*
X289369395Y-146377438D01*
X289036061Y-146329819D02*
X288797966Y-147329819D01*
X288797966Y-147329819D02*
X288607490Y-146615533D01*
X288607490Y-146615533D02*
X288417014Y-147329819D01*
X288417014Y-147329819D02*
X288178919Y-146329819D01*
X287893204Y-146329819D02*
X287274157Y-146329819D01*
X287274157Y-146329819D02*
X287607490Y-146710771D01*
X287607490Y-146710771D02*
X287464633Y-146710771D01*
X287464633Y-146710771D02*
X287369395Y-146758390D01*
X287369395Y-146758390D02*
X287321776Y-146806009D01*
X287321776Y-146806009D02*
X287274157Y-146901247D01*
X287274157Y-146901247D02*
X287274157Y-147139342D01*
X287274157Y-147139342D02*
X287321776Y-147234580D01*
X287321776Y-147234580D02*
X287369395Y-147282200D01*
X287369395Y-147282200D02*
X287464633Y-147329819D01*
X287464633Y-147329819D02*
X287750347Y-147329819D01*
X287750347Y-147329819D02*
X287845585Y-147282200D01*
X287845585Y-147282200D02*
X287893204Y-147234580D01*
X286369395Y-146329819D02*
X286845585Y-146329819D01*
X286845585Y-146329819D02*
X286893204Y-146806009D01*
X286893204Y-146806009D02*
X286845585Y-146758390D01*
X286845585Y-146758390D02*
X286750347Y-146710771D01*
X286750347Y-146710771D02*
X286512252Y-146710771D01*
X286512252Y-146710771D02*
X286417014Y-146758390D01*
X286417014Y-146758390D02*
X286369395Y-146806009D01*
X286369395Y-146806009D02*
X286321776Y-146901247D01*
X286321776Y-146901247D02*
X286321776Y-147139342D01*
X286321776Y-147139342D02*
X286369395Y-147234580D01*
X286369395Y-147234580D02*
X286417014Y-147282200D01*
X286417014Y-147282200D02*
X286512252Y-147329819D01*
X286512252Y-147329819D02*
X286750347Y-147329819D01*
X286750347Y-147329819D02*
X286845585Y-147282200D01*
X286845585Y-147282200D02*
X286893204Y-147234580D01*
X308990823Y-128232200D02*
X308847966Y-128279819D01*
X308847966Y-128279819D02*
X308609871Y-128279819D01*
X308609871Y-128279819D02*
X308514633Y-128232200D01*
X308514633Y-128232200D02*
X308467014Y-128184580D01*
X308467014Y-128184580D02*
X308419395Y-128089342D01*
X308419395Y-128089342D02*
X308419395Y-127994104D01*
X308419395Y-127994104D02*
X308467014Y-127898866D01*
X308467014Y-127898866D02*
X308514633Y-127851247D01*
X308514633Y-127851247D02*
X308609871Y-127803628D01*
X308609871Y-127803628D02*
X308800347Y-127756009D01*
X308800347Y-127756009D02*
X308895585Y-127708390D01*
X308895585Y-127708390D02*
X308943204Y-127660771D01*
X308943204Y-127660771D02*
X308990823Y-127565533D01*
X308990823Y-127565533D02*
X308990823Y-127470295D01*
X308990823Y-127470295D02*
X308943204Y-127375057D01*
X308943204Y-127375057D02*
X308895585Y-127327438D01*
X308895585Y-127327438D02*
X308800347Y-127279819D01*
X308800347Y-127279819D02*
X308562252Y-127279819D01*
X308562252Y-127279819D02*
X308419395Y-127327438D01*
X308086061Y-127279819D02*
X307847966Y-128279819D01*
X307847966Y-128279819D02*
X307657490Y-127565533D01*
X307657490Y-127565533D02*
X307467014Y-128279819D01*
X307467014Y-128279819D02*
X307228919Y-127279819D01*
X306943204Y-127279819D02*
X306324157Y-127279819D01*
X306324157Y-127279819D02*
X306657490Y-127660771D01*
X306657490Y-127660771D02*
X306514633Y-127660771D01*
X306514633Y-127660771D02*
X306419395Y-127708390D01*
X306419395Y-127708390D02*
X306371776Y-127756009D01*
X306371776Y-127756009D02*
X306324157Y-127851247D01*
X306324157Y-127851247D02*
X306324157Y-128089342D01*
X306324157Y-128089342D02*
X306371776Y-128184580D01*
X306371776Y-128184580D02*
X306419395Y-128232200D01*
X306419395Y-128232200D02*
X306514633Y-128279819D01*
X306514633Y-128279819D02*
X306800347Y-128279819D01*
X306800347Y-128279819D02*
X306895585Y-128232200D01*
X306895585Y-128232200D02*
X306943204Y-128184580D01*
X305990823Y-127279819D02*
X305324157Y-127279819D01*
X305324157Y-127279819D02*
X305752728Y-128279819D01*
X328040823Y-132994700D02*
X327897966Y-133042319D01*
X327897966Y-133042319D02*
X327659871Y-133042319D01*
X327659871Y-133042319D02*
X327564633Y-132994700D01*
X327564633Y-132994700D02*
X327517014Y-132947080D01*
X327517014Y-132947080D02*
X327469395Y-132851842D01*
X327469395Y-132851842D02*
X327469395Y-132756604D01*
X327469395Y-132756604D02*
X327517014Y-132661366D01*
X327517014Y-132661366D02*
X327564633Y-132613747D01*
X327564633Y-132613747D02*
X327659871Y-132566128D01*
X327659871Y-132566128D02*
X327850347Y-132518509D01*
X327850347Y-132518509D02*
X327945585Y-132470890D01*
X327945585Y-132470890D02*
X327993204Y-132423271D01*
X327993204Y-132423271D02*
X328040823Y-132328033D01*
X328040823Y-132328033D02*
X328040823Y-132232795D01*
X328040823Y-132232795D02*
X327993204Y-132137557D01*
X327993204Y-132137557D02*
X327945585Y-132089938D01*
X327945585Y-132089938D02*
X327850347Y-132042319D01*
X327850347Y-132042319D02*
X327612252Y-132042319D01*
X327612252Y-132042319D02*
X327469395Y-132089938D01*
X327136061Y-132042319D02*
X326897966Y-133042319D01*
X326897966Y-133042319D02*
X326707490Y-132328033D01*
X326707490Y-132328033D02*
X326517014Y-133042319D01*
X326517014Y-133042319D02*
X326278919Y-132042319D01*
X325469395Y-132375652D02*
X325469395Y-133042319D01*
X325707490Y-131994700D02*
X325945585Y-132708985D01*
X325945585Y-132708985D02*
X325326538Y-132708985D01*
X324755109Y-132042319D02*
X324659871Y-132042319D01*
X324659871Y-132042319D02*
X324564633Y-132089938D01*
X324564633Y-132089938D02*
X324517014Y-132137557D01*
X324517014Y-132137557D02*
X324469395Y-132232795D01*
X324469395Y-132232795D02*
X324421776Y-132423271D01*
X324421776Y-132423271D02*
X324421776Y-132661366D01*
X324421776Y-132661366D02*
X324469395Y-132851842D01*
X324469395Y-132851842D02*
X324517014Y-132947080D01*
X324517014Y-132947080D02*
X324564633Y-132994700D01*
X324564633Y-132994700D02*
X324659871Y-133042319D01*
X324659871Y-133042319D02*
X324755109Y-133042319D01*
X324755109Y-133042319D02*
X324850347Y-132994700D01*
X324850347Y-132994700D02*
X324897966Y-132947080D01*
X324897966Y-132947080D02*
X324945585Y-132851842D01*
X324945585Y-132851842D02*
X324993204Y-132661366D01*
X324993204Y-132661366D02*
X324993204Y-132423271D01*
X324993204Y-132423271D02*
X324945585Y-132232795D01*
X324945585Y-132232795D02*
X324897966Y-132137557D01*
X324897966Y-132137557D02*
X324850347Y-132089938D01*
X324850347Y-132089938D02*
X324755109Y-132042319D01*
X79914632Y-171094700D02*
X79771775Y-171142319D01*
X79771775Y-171142319D02*
X79533680Y-171142319D01*
X79533680Y-171142319D02*
X79438442Y-171094700D01*
X79438442Y-171094700D02*
X79390823Y-171047080D01*
X79390823Y-171047080D02*
X79343204Y-170951842D01*
X79343204Y-170951842D02*
X79343204Y-170856604D01*
X79343204Y-170856604D02*
X79390823Y-170761366D01*
X79390823Y-170761366D02*
X79438442Y-170713747D01*
X79438442Y-170713747D02*
X79533680Y-170666128D01*
X79533680Y-170666128D02*
X79724156Y-170618509D01*
X79724156Y-170618509D02*
X79819394Y-170570890D01*
X79819394Y-170570890D02*
X79867013Y-170523271D01*
X79867013Y-170523271D02*
X79914632Y-170428033D01*
X79914632Y-170428033D02*
X79914632Y-170332795D01*
X79914632Y-170332795D02*
X79867013Y-170237557D01*
X79867013Y-170237557D02*
X79819394Y-170189938D01*
X79819394Y-170189938D02*
X79724156Y-170142319D01*
X79724156Y-170142319D02*
X79486061Y-170142319D01*
X79486061Y-170142319D02*
X79343204Y-170189938D01*
X79009870Y-170142319D02*
X78771775Y-171142319D01*
X78771775Y-171142319D02*
X78581299Y-170428033D01*
X78581299Y-170428033D02*
X78390823Y-171142319D01*
X78390823Y-171142319D02*
X78152728Y-170142319D01*
X77867013Y-170142319D02*
X77247966Y-170142319D01*
X77247966Y-170142319D02*
X77581299Y-170523271D01*
X77581299Y-170523271D02*
X77438442Y-170523271D01*
X77438442Y-170523271D02*
X77343204Y-170570890D01*
X77343204Y-170570890D02*
X77295585Y-170618509D01*
X77295585Y-170618509D02*
X77247966Y-170713747D01*
X77247966Y-170713747D02*
X77247966Y-170951842D01*
X77247966Y-170951842D02*
X77295585Y-171047080D01*
X77295585Y-171047080D02*
X77343204Y-171094700D01*
X77343204Y-171094700D02*
X77438442Y-171142319D01*
X77438442Y-171142319D02*
X77724156Y-171142319D01*
X77724156Y-171142319D02*
X77819394Y-171094700D01*
X77819394Y-171094700D02*
X77867013Y-171047080D01*
X79914632Y-152044700D02*
X79771775Y-152092319D01*
X79771775Y-152092319D02*
X79533680Y-152092319D01*
X79533680Y-152092319D02*
X79438442Y-152044700D01*
X79438442Y-152044700D02*
X79390823Y-151997080D01*
X79390823Y-151997080D02*
X79343204Y-151901842D01*
X79343204Y-151901842D02*
X79343204Y-151806604D01*
X79343204Y-151806604D02*
X79390823Y-151711366D01*
X79390823Y-151711366D02*
X79438442Y-151663747D01*
X79438442Y-151663747D02*
X79533680Y-151616128D01*
X79533680Y-151616128D02*
X79724156Y-151568509D01*
X79724156Y-151568509D02*
X79819394Y-151520890D01*
X79819394Y-151520890D02*
X79867013Y-151473271D01*
X79867013Y-151473271D02*
X79914632Y-151378033D01*
X79914632Y-151378033D02*
X79914632Y-151282795D01*
X79914632Y-151282795D02*
X79867013Y-151187557D01*
X79867013Y-151187557D02*
X79819394Y-151139938D01*
X79819394Y-151139938D02*
X79724156Y-151092319D01*
X79724156Y-151092319D02*
X79486061Y-151092319D01*
X79486061Y-151092319D02*
X79343204Y-151139938D01*
X79009870Y-151092319D02*
X78771775Y-152092319D01*
X78771775Y-152092319D02*
X78581299Y-151378033D01*
X78581299Y-151378033D02*
X78390823Y-152092319D01*
X78390823Y-152092319D02*
X78152728Y-151092319D01*
X77819394Y-151187557D02*
X77771775Y-151139938D01*
X77771775Y-151139938D02*
X77676537Y-151092319D01*
X77676537Y-151092319D02*
X77438442Y-151092319D01*
X77438442Y-151092319D02*
X77343204Y-151139938D01*
X77343204Y-151139938D02*
X77295585Y-151187557D01*
X77295585Y-151187557D02*
X77247966Y-151282795D01*
X77247966Y-151282795D02*
X77247966Y-151378033D01*
X77247966Y-151378033D02*
X77295585Y-151520890D01*
X77295585Y-151520890D02*
X77867013Y-152092319D01*
X77867013Y-152092319D02*
X77247966Y-152092319D01*
X175640823Y-190144700D02*
X175497966Y-190192319D01*
X175497966Y-190192319D02*
X175259871Y-190192319D01*
X175259871Y-190192319D02*
X175164633Y-190144700D01*
X175164633Y-190144700D02*
X175117014Y-190097080D01*
X175117014Y-190097080D02*
X175069395Y-190001842D01*
X175069395Y-190001842D02*
X175069395Y-189906604D01*
X175069395Y-189906604D02*
X175117014Y-189811366D01*
X175117014Y-189811366D02*
X175164633Y-189763747D01*
X175164633Y-189763747D02*
X175259871Y-189716128D01*
X175259871Y-189716128D02*
X175450347Y-189668509D01*
X175450347Y-189668509D02*
X175545585Y-189620890D01*
X175545585Y-189620890D02*
X175593204Y-189573271D01*
X175593204Y-189573271D02*
X175640823Y-189478033D01*
X175640823Y-189478033D02*
X175640823Y-189382795D01*
X175640823Y-189382795D02*
X175593204Y-189287557D01*
X175593204Y-189287557D02*
X175545585Y-189239938D01*
X175545585Y-189239938D02*
X175450347Y-189192319D01*
X175450347Y-189192319D02*
X175212252Y-189192319D01*
X175212252Y-189192319D02*
X175069395Y-189239938D01*
X174736061Y-189192319D02*
X174497966Y-190192319D01*
X174497966Y-190192319D02*
X174307490Y-189478033D01*
X174307490Y-189478033D02*
X174117014Y-190192319D01*
X174117014Y-190192319D02*
X173878919Y-189192319D01*
X172974157Y-190192319D02*
X173545585Y-190192319D01*
X173259871Y-190192319D02*
X173259871Y-189192319D01*
X173259871Y-189192319D02*
X173355109Y-189335176D01*
X173355109Y-189335176D02*
X173450347Y-189430414D01*
X173450347Y-189430414D02*
X173545585Y-189478033D01*
X172640823Y-189192319D02*
X171974157Y-189192319D01*
X171974157Y-189192319D02*
X172402728Y-190192319D01*
X118014632Y-128232200D02*
X117871775Y-128279819D01*
X117871775Y-128279819D02*
X117633680Y-128279819D01*
X117633680Y-128279819D02*
X117538442Y-128232200D01*
X117538442Y-128232200D02*
X117490823Y-128184580D01*
X117490823Y-128184580D02*
X117443204Y-128089342D01*
X117443204Y-128089342D02*
X117443204Y-127994104D01*
X117443204Y-127994104D02*
X117490823Y-127898866D01*
X117490823Y-127898866D02*
X117538442Y-127851247D01*
X117538442Y-127851247D02*
X117633680Y-127803628D01*
X117633680Y-127803628D02*
X117824156Y-127756009D01*
X117824156Y-127756009D02*
X117919394Y-127708390D01*
X117919394Y-127708390D02*
X117967013Y-127660771D01*
X117967013Y-127660771D02*
X118014632Y-127565533D01*
X118014632Y-127565533D02*
X118014632Y-127470295D01*
X118014632Y-127470295D02*
X117967013Y-127375057D01*
X117967013Y-127375057D02*
X117919394Y-127327438D01*
X117919394Y-127327438D02*
X117824156Y-127279819D01*
X117824156Y-127279819D02*
X117586061Y-127279819D01*
X117586061Y-127279819D02*
X117443204Y-127327438D01*
X117109870Y-127279819D02*
X116871775Y-128279819D01*
X116871775Y-128279819D02*
X116681299Y-127565533D01*
X116681299Y-127565533D02*
X116490823Y-128279819D01*
X116490823Y-128279819D02*
X116252728Y-127279819D01*
X115967013Y-127279819D02*
X115300347Y-127279819D01*
X115300347Y-127279819D02*
X115728918Y-128279819D01*
X251840823Y-128232200D02*
X251697966Y-128279819D01*
X251697966Y-128279819D02*
X251459871Y-128279819D01*
X251459871Y-128279819D02*
X251364633Y-128232200D01*
X251364633Y-128232200D02*
X251317014Y-128184580D01*
X251317014Y-128184580D02*
X251269395Y-128089342D01*
X251269395Y-128089342D02*
X251269395Y-127994104D01*
X251269395Y-127994104D02*
X251317014Y-127898866D01*
X251317014Y-127898866D02*
X251364633Y-127851247D01*
X251364633Y-127851247D02*
X251459871Y-127803628D01*
X251459871Y-127803628D02*
X251650347Y-127756009D01*
X251650347Y-127756009D02*
X251745585Y-127708390D01*
X251745585Y-127708390D02*
X251793204Y-127660771D01*
X251793204Y-127660771D02*
X251840823Y-127565533D01*
X251840823Y-127565533D02*
X251840823Y-127470295D01*
X251840823Y-127470295D02*
X251793204Y-127375057D01*
X251793204Y-127375057D02*
X251745585Y-127327438D01*
X251745585Y-127327438D02*
X251650347Y-127279819D01*
X251650347Y-127279819D02*
X251412252Y-127279819D01*
X251412252Y-127279819D02*
X251269395Y-127327438D01*
X250936061Y-127279819D02*
X250697966Y-128279819D01*
X250697966Y-128279819D02*
X250507490Y-127565533D01*
X250507490Y-127565533D02*
X250317014Y-128279819D01*
X250317014Y-128279819D02*
X250078919Y-127279819D01*
X249745585Y-127375057D02*
X249697966Y-127327438D01*
X249697966Y-127327438D02*
X249602728Y-127279819D01*
X249602728Y-127279819D02*
X249364633Y-127279819D01*
X249364633Y-127279819D02*
X249269395Y-127327438D01*
X249269395Y-127327438D02*
X249221776Y-127375057D01*
X249221776Y-127375057D02*
X249174157Y-127470295D01*
X249174157Y-127470295D02*
X249174157Y-127565533D01*
X249174157Y-127565533D02*
X249221776Y-127708390D01*
X249221776Y-127708390D02*
X249793204Y-128279819D01*
X249793204Y-128279819D02*
X249174157Y-128279819D01*
X248317014Y-127279819D02*
X248507490Y-127279819D01*
X248507490Y-127279819D02*
X248602728Y-127327438D01*
X248602728Y-127327438D02*
X248650347Y-127375057D01*
X248650347Y-127375057D02*
X248745585Y-127517914D01*
X248745585Y-127517914D02*
X248793204Y-127708390D01*
X248793204Y-127708390D02*
X248793204Y-128089342D01*
X248793204Y-128089342D02*
X248745585Y-128184580D01*
X248745585Y-128184580D02*
X248697966Y-128232200D01*
X248697966Y-128232200D02*
X248602728Y-128279819D01*
X248602728Y-128279819D02*
X248412252Y-128279819D01*
X248412252Y-128279819D02*
X248317014Y-128232200D01*
X248317014Y-128232200D02*
X248269395Y-128184580D01*
X248269395Y-128184580D02*
X248221776Y-128089342D01*
X248221776Y-128089342D02*
X248221776Y-127851247D01*
X248221776Y-127851247D02*
X248269395Y-127756009D01*
X248269395Y-127756009D02*
X248317014Y-127708390D01*
X248317014Y-127708390D02*
X248412252Y-127660771D01*
X248412252Y-127660771D02*
X248602728Y-127660771D01*
X248602728Y-127660771D02*
X248697966Y-127708390D01*
X248697966Y-127708390D02*
X248745585Y-127756009D01*
X248745585Y-127756009D02*
X248793204Y-127851247D01*
X98964632Y-166332200D02*
X98821775Y-166379819D01*
X98821775Y-166379819D02*
X98583680Y-166379819D01*
X98583680Y-166379819D02*
X98488442Y-166332200D01*
X98488442Y-166332200D02*
X98440823Y-166284580D01*
X98440823Y-166284580D02*
X98393204Y-166189342D01*
X98393204Y-166189342D02*
X98393204Y-166094104D01*
X98393204Y-166094104D02*
X98440823Y-165998866D01*
X98440823Y-165998866D02*
X98488442Y-165951247D01*
X98488442Y-165951247D02*
X98583680Y-165903628D01*
X98583680Y-165903628D02*
X98774156Y-165856009D01*
X98774156Y-165856009D02*
X98869394Y-165808390D01*
X98869394Y-165808390D02*
X98917013Y-165760771D01*
X98917013Y-165760771D02*
X98964632Y-165665533D01*
X98964632Y-165665533D02*
X98964632Y-165570295D01*
X98964632Y-165570295D02*
X98917013Y-165475057D01*
X98917013Y-165475057D02*
X98869394Y-165427438D01*
X98869394Y-165427438D02*
X98774156Y-165379819D01*
X98774156Y-165379819D02*
X98536061Y-165379819D01*
X98536061Y-165379819D02*
X98393204Y-165427438D01*
X98059870Y-165379819D02*
X97821775Y-166379819D01*
X97821775Y-166379819D02*
X97631299Y-165665533D01*
X97631299Y-165665533D02*
X97440823Y-166379819D01*
X97440823Y-166379819D02*
X97202728Y-165379819D01*
X96393204Y-165379819D02*
X96583680Y-165379819D01*
X96583680Y-165379819D02*
X96678918Y-165427438D01*
X96678918Y-165427438D02*
X96726537Y-165475057D01*
X96726537Y-165475057D02*
X96821775Y-165617914D01*
X96821775Y-165617914D02*
X96869394Y-165808390D01*
X96869394Y-165808390D02*
X96869394Y-166189342D01*
X96869394Y-166189342D02*
X96821775Y-166284580D01*
X96821775Y-166284580D02*
X96774156Y-166332200D01*
X96774156Y-166332200D02*
X96678918Y-166379819D01*
X96678918Y-166379819D02*
X96488442Y-166379819D01*
X96488442Y-166379819D02*
X96393204Y-166332200D01*
X96393204Y-166332200D02*
X96345585Y-166284580D01*
X96345585Y-166284580D02*
X96297966Y-166189342D01*
X96297966Y-166189342D02*
X96297966Y-165951247D01*
X96297966Y-165951247D02*
X96345585Y-165856009D01*
X96345585Y-165856009D02*
X96393204Y-165808390D01*
X96393204Y-165808390D02*
X96488442Y-165760771D01*
X96488442Y-165760771D02*
X96678918Y-165760771D01*
X96678918Y-165760771D02*
X96774156Y-165808390D01*
X96774156Y-165808390D02*
X96821775Y-165856009D01*
X96821775Y-165856009D02*
X96869394Y-165951247D01*
X232790823Y-171094700D02*
X232647966Y-171142319D01*
X232647966Y-171142319D02*
X232409871Y-171142319D01*
X232409871Y-171142319D02*
X232314633Y-171094700D01*
X232314633Y-171094700D02*
X232267014Y-171047080D01*
X232267014Y-171047080D02*
X232219395Y-170951842D01*
X232219395Y-170951842D02*
X232219395Y-170856604D01*
X232219395Y-170856604D02*
X232267014Y-170761366D01*
X232267014Y-170761366D02*
X232314633Y-170713747D01*
X232314633Y-170713747D02*
X232409871Y-170666128D01*
X232409871Y-170666128D02*
X232600347Y-170618509D01*
X232600347Y-170618509D02*
X232695585Y-170570890D01*
X232695585Y-170570890D02*
X232743204Y-170523271D01*
X232743204Y-170523271D02*
X232790823Y-170428033D01*
X232790823Y-170428033D02*
X232790823Y-170332795D01*
X232790823Y-170332795D02*
X232743204Y-170237557D01*
X232743204Y-170237557D02*
X232695585Y-170189938D01*
X232695585Y-170189938D02*
X232600347Y-170142319D01*
X232600347Y-170142319D02*
X232362252Y-170142319D01*
X232362252Y-170142319D02*
X232219395Y-170189938D01*
X231886061Y-170142319D02*
X231647966Y-171142319D01*
X231647966Y-171142319D02*
X231457490Y-170428033D01*
X231457490Y-170428033D02*
X231267014Y-171142319D01*
X231267014Y-171142319D02*
X231028919Y-170142319D01*
X230695585Y-170237557D02*
X230647966Y-170189938D01*
X230647966Y-170189938D02*
X230552728Y-170142319D01*
X230552728Y-170142319D02*
X230314633Y-170142319D01*
X230314633Y-170142319D02*
X230219395Y-170189938D01*
X230219395Y-170189938D02*
X230171776Y-170237557D01*
X230171776Y-170237557D02*
X230124157Y-170332795D01*
X230124157Y-170332795D02*
X230124157Y-170428033D01*
X230124157Y-170428033D02*
X230171776Y-170570890D01*
X230171776Y-170570890D02*
X230743204Y-171142319D01*
X230743204Y-171142319D02*
X230124157Y-171142319D01*
X229267014Y-170475652D02*
X229267014Y-171142319D01*
X229505109Y-170094700D02*
X229743204Y-170808985D01*
X229743204Y-170808985D02*
X229124157Y-170808985D01*
X308990823Y-147282200D02*
X308847966Y-147329819D01*
X308847966Y-147329819D02*
X308609871Y-147329819D01*
X308609871Y-147329819D02*
X308514633Y-147282200D01*
X308514633Y-147282200D02*
X308467014Y-147234580D01*
X308467014Y-147234580D02*
X308419395Y-147139342D01*
X308419395Y-147139342D02*
X308419395Y-147044104D01*
X308419395Y-147044104D02*
X308467014Y-146948866D01*
X308467014Y-146948866D02*
X308514633Y-146901247D01*
X308514633Y-146901247D02*
X308609871Y-146853628D01*
X308609871Y-146853628D02*
X308800347Y-146806009D01*
X308800347Y-146806009D02*
X308895585Y-146758390D01*
X308895585Y-146758390D02*
X308943204Y-146710771D01*
X308943204Y-146710771D02*
X308990823Y-146615533D01*
X308990823Y-146615533D02*
X308990823Y-146520295D01*
X308990823Y-146520295D02*
X308943204Y-146425057D01*
X308943204Y-146425057D02*
X308895585Y-146377438D01*
X308895585Y-146377438D02*
X308800347Y-146329819D01*
X308800347Y-146329819D02*
X308562252Y-146329819D01*
X308562252Y-146329819D02*
X308419395Y-146377438D01*
X308086061Y-146329819D02*
X307847966Y-147329819D01*
X307847966Y-147329819D02*
X307657490Y-146615533D01*
X307657490Y-146615533D02*
X307467014Y-147329819D01*
X307467014Y-147329819D02*
X307228919Y-146329819D01*
X306943204Y-146329819D02*
X306324157Y-146329819D01*
X306324157Y-146329819D02*
X306657490Y-146710771D01*
X306657490Y-146710771D02*
X306514633Y-146710771D01*
X306514633Y-146710771D02*
X306419395Y-146758390D01*
X306419395Y-146758390D02*
X306371776Y-146806009D01*
X306371776Y-146806009D02*
X306324157Y-146901247D01*
X306324157Y-146901247D02*
X306324157Y-147139342D01*
X306324157Y-147139342D02*
X306371776Y-147234580D01*
X306371776Y-147234580D02*
X306419395Y-147282200D01*
X306419395Y-147282200D02*
X306514633Y-147329819D01*
X306514633Y-147329819D02*
X306800347Y-147329819D01*
X306800347Y-147329819D02*
X306895585Y-147282200D01*
X306895585Y-147282200D02*
X306943204Y-147234580D01*
X305752728Y-146758390D02*
X305847966Y-146710771D01*
X305847966Y-146710771D02*
X305895585Y-146663152D01*
X305895585Y-146663152D02*
X305943204Y-146567914D01*
X305943204Y-146567914D02*
X305943204Y-146520295D01*
X305943204Y-146520295D02*
X305895585Y-146425057D01*
X305895585Y-146425057D02*
X305847966Y-146377438D01*
X305847966Y-146377438D02*
X305752728Y-146329819D01*
X305752728Y-146329819D02*
X305562252Y-146329819D01*
X305562252Y-146329819D02*
X305467014Y-146377438D01*
X305467014Y-146377438D02*
X305419395Y-146425057D01*
X305419395Y-146425057D02*
X305371776Y-146520295D01*
X305371776Y-146520295D02*
X305371776Y-146567914D01*
X305371776Y-146567914D02*
X305419395Y-146663152D01*
X305419395Y-146663152D02*
X305467014Y-146710771D01*
X305467014Y-146710771D02*
X305562252Y-146758390D01*
X305562252Y-146758390D02*
X305752728Y-146758390D01*
X305752728Y-146758390D02*
X305847966Y-146806009D01*
X305847966Y-146806009D02*
X305895585Y-146853628D01*
X305895585Y-146853628D02*
X305943204Y-146948866D01*
X305943204Y-146948866D02*
X305943204Y-147139342D01*
X305943204Y-147139342D02*
X305895585Y-147234580D01*
X305895585Y-147234580D02*
X305847966Y-147282200D01*
X305847966Y-147282200D02*
X305752728Y-147329819D01*
X305752728Y-147329819D02*
X305562252Y-147329819D01*
X305562252Y-147329819D02*
X305467014Y-147282200D01*
X305467014Y-147282200D02*
X305419395Y-147234580D01*
X305419395Y-147234580D02*
X305371776Y-147139342D01*
X305371776Y-147139342D02*
X305371776Y-146948866D01*
X305371776Y-146948866D02*
X305419395Y-146853628D01*
X305419395Y-146853628D02*
X305467014Y-146806009D01*
X305467014Y-146806009D02*
X305562252Y-146758390D01*
X137540823Y-147282200D02*
X137397966Y-147329819D01*
X137397966Y-147329819D02*
X137159871Y-147329819D01*
X137159871Y-147329819D02*
X137064633Y-147282200D01*
X137064633Y-147282200D02*
X137017014Y-147234580D01*
X137017014Y-147234580D02*
X136969395Y-147139342D01*
X136969395Y-147139342D02*
X136969395Y-147044104D01*
X136969395Y-147044104D02*
X137017014Y-146948866D01*
X137017014Y-146948866D02*
X137064633Y-146901247D01*
X137064633Y-146901247D02*
X137159871Y-146853628D01*
X137159871Y-146853628D02*
X137350347Y-146806009D01*
X137350347Y-146806009D02*
X137445585Y-146758390D01*
X137445585Y-146758390D02*
X137493204Y-146710771D01*
X137493204Y-146710771D02*
X137540823Y-146615533D01*
X137540823Y-146615533D02*
X137540823Y-146520295D01*
X137540823Y-146520295D02*
X137493204Y-146425057D01*
X137493204Y-146425057D02*
X137445585Y-146377438D01*
X137445585Y-146377438D02*
X137350347Y-146329819D01*
X137350347Y-146329819D02*
X137112252Y-146329819D01*
X137112252Y-146329819D02*
X136969395Y-146377438D01*
X136636061Y-146329819D02*
X136397966Y-147329819D01*
X136397966Y-147329819D02*
X136207490Y-146615533D01*
X136207490Y-146615533D02*
X136017014Y-147329819D01*
X136017014Y-147329819D02*
X135778919Y-146329819D01*
X134874157Y-147329819D02*
X135445585Y-147329819D01*
X135159871Y-147329819D02*
X135159871Y-146329819D01*
X135159871Y-146329819D02*
X135255109Y-146472676D01*
X135255109Y-146472676D02*
X135350347Y-146567914D01*
X135350347Y-146567914D02*
X135445585Y-146615533D01*
X133921776Y-147329819D02*
X134493204Y-147329819D01*
X134207490Y-147329819D02*
X134207490Y-146329819D01*
X134207490Y-146329819D02*
X134302728Y-146472676D01*
X134302728Y-146472676D02*
X134397966Y-146567914D01*
X134397966Y-146567914D02*
X134493204Y-146615533D01*
X289940823Y-166332200D02*
X289797966Y-166379819D01*
X289797966Y-166379819D02*
X289559871Y-166379819D01*
X289559871Y-166379819D02*
X289464633Y-166332200D01*
X289464633Y-166332200D02*
X289417014Y-166284580D01*
X289417014Y-166284580D02*
X289369395Y-166189342D01*
X289369395Y-166189342D02*
X289369395Y-166094104D01*
X289369395Y-166094104D02*
X289417014Y-165998866D01*
X289417014Y-165998866D02*
X289464633Y-165951247D01*
X289464633Y-165951247D02*
X289559871Y-165903628D01*
X289559871Y-165903628D02*
X289750347Y-165856009D01*
X289750347Y-165856009D02*
X289845585Y-165808390D01*
X289845585Y-165808390D02*
X289893204Y-165760771D01*
X289893204Y-165760771D02*
X289940823Y-165665533D01*
X289940823Y-165665533D02*
X289940823Y-165570295D01*
X289940823Y-165570295D02*
X289893204Y-165475057D01*
X289893204Y-165475057D02*
X289845585Y-165427438D01*
X289845585Y-165427438D02*
X289750347Y-165379819D01*
X289750347Y-165379819D02*
X289512252Y-165379819D01*
X289512252Y-165379819D02*
X289369395Y-165427438D01*
X289036061Y-165379819D02*
X288797966Y-166379819D01*
X288797966Y-166379819D02*
X288607490Y-165665533D01*
X288607490Y-165665533D02*
X288417014Y-166379819D01*
X288417014Y-166379819D02*
X288178919Y-165379819D01*
X287893204Y-165379819D02*
X287274157Y-165379819D01*
X287274157Y-165379819D02*
X287607490Y-165760771D01*
X287607490Y-165760771D02*
X287464633Y-165760771D01*
X287464633Y-165760771D02*
X287369395Y-165808390D01*
X287369395Y-165808390D02*
X287321776Y-165856009D01*
X287321776Y-165856009D02*
X287274157Y-165951247D01*
X287274157Y-165951247D02*
X287274157Y-166189342D01*
X287274157Y-166189342D02*
X287321776Y-166284580D01*
X287321776Y-166284580D02*
X287369395Y-166332200D01*
X287369395Y-166332200D02*
X287464633Y-166379819D01*
X287464633Y-166379819D02*
X287750347Y-166379819D01*
X287750347Y-166379819D02*
X287845585Y-166332200D01*
X287845585Y-166332200D02*
X287893204Y-166284580D01*
X286417014Y-165379819D02*
X286607490Y-165379819D01*
X286607490Y-165379819D02*
X286702728Y-165427438D01*
X286702728Y-165427438D02*
X286750347Y-165475057D01*
X286750347Y-165475057D02*
X286845585Y-165617914D01*
X286845585Y-165617914D02*
X286893204Y-165808390D01*
X286893204Y-165808390D02*
X286893204Y-166189342D01*
X286893204Y-166189342D02*
X286845585Y-166284580D01*
X286845585Y-166284580D02*
X286797966Y-166332200D01*
X286797966Y-166332200D02*
X286702728Y-166379819D01*
X286702728Y-166379819D02*
X286512252Y-166379819D01*
X286512252Y-166379819D02*
X286417014Y-166332200D01*
X286417014Y-166332200D02*
X286369395Y-166284580D01*
X286369395Y-166284580D02*
X286321776Y-166189342D01*
X286321776Y-166189342D02*
X286321776Y-165951247D01*
X286321776Y-165951247D02*
X286369395Y-165856009D01*
X286369395Y-165856009D02*
X286417014Y-165808390D01*
X286417014Y-165808390D02*
X286512252Y-165760771D01*
X286512252Y-165760771D02*
X286702728Y-165760771D01*
X286702728Y-165760771D02*
X286797966Y-165808390D01*
X286797966Y-165808390D02*
X286845585Y-165856009D01*
X286845585Y-165856009D02*
X286893204Y-165951247D01*
X270890823Y-166332200D02*
X270747966Y-166379819D01*
X270747966Y-166379819D02*
X270509871Y-166379819D01*
X270509871Y-166379819D02*
X270414633Y-166332200D01*
X270414633Y-166332200D02*
X270367014Y-166284580D01*
X270367014Y-166284580D02*
X270319395Y-166189342D01*
X270319395Y-166189342D02*
X270319395Y-166094104D01*
X270319395Y-166094104D02*
X270367014Y-165998866D01*
X270367014Y-165998866D02*
X270414633Y-165951247D01*
X270414633Y-165951247D02*
X270509871Y-165903628D01*
X270509871Y-165903628D02*
X270700347Y-165856009D01*
X270700347Y-165856009D02*
X270795585Y-165808390D01*
X270795585Y-165808390D02*
X270843204Y-165760771D01*
X270843204Y-165760771D02*
X270890823Y-165665533D01*
X270890823Y-165665533D02*
X270890823Y-165570295D01*
X270890823Y-165570295D02*
X270843204Y-165475057D01*
X270843204Y-165475057D02*
X270795585Y-165427438D01*
X270795585Y-165427438D02*
X270700347Y-165379819D01*
X270700347Y-165379819D02*
X270462252Y-165379819D01*
X270462252Y-165379819D02*
X270319395Y-165427438D01*
X269986061Y-165379819D02*
X269747966Y-166379819D01*
X269747966Y-166379819D02*
X269557490Y-165665533D01*
X269557490Y-165665533D02*
X269367014Y-166379819D01*
X269367014Y-166379819D02*
X269128919Y-165379819D01*
X268843204Y-165379819D02*
X268224157Y-165379819D01*
X268224157Y-165379819D02*
X268557490Y-165760771D01*
X268557490Y-165760771D02*
X268414633Y-165760771D01*
X268414633Y-165760771D02*
X268319395Y-165808390D01*
X268319395Y-165808390D02*
X268271776Y-165856009D01*
X268271776Y-165856009D02*
X268224157Y-165951247D01*
X268224157Y-165951247D02*
X268224157Y-166189342D01*
X268224157Y-166189342D02*
X268271776Y-166284580D01*
X268271776Y-166284580D02*
X268319395Y-166332200D01*
X268319395Y-166332200D02*
X268414633Y-166379819D01*
X268414633Y-166379819D02*
X268700347Y-166379819D01*
X268700347Y-166379819D02*
X268795585Y-166332200D01*
X268795585Y-166332200D02*
X268843204Y-166284580D01*
X267890823Y-165379819D02*
X267271776Y-165379819D01*
X267271776Y-165379819D02*
X267605109Y-165760771D01*
X267605109Y-165760771D02*
X267462252Y-165760771D01*
X267462252Y-165760771D02*
X267367014Y-165808390D01*
X267367014Y-165808390D02*
X267319395Y-165856009D01*
X267319395Y-165856009D02*
X267271776Y-165951247D01*
X267271776Y-165951247D02*
X267271776Y-166189342D01*
X267271776Y-166189342D02*
X267319395Y-166284580D01*
X267319395Y-166284580D02*
X267367014Y-166332200D01*
X267367014Y-166332200D02*
X267462252Y-166379819D01*
X267462252Y-166379819D02*
X267747966Y-166379819D01*
X267747966Y-166379819D02*
X267843204Y-166332200D01*
X267843204Y-166332200D02*
X267890823Y-166284580D01*
X137540823Y-128232200D02*
X137397966Y-128279819D01*
X137397966Y-128279819D02*
X137159871Y-128279819D01*
X137159871Y-128279819D02*
X137064633Y-128232200D01*
X137064633Y-128232200D02*
X137017014Y-128184580D01*
X137017014Y-128184580D02*
X136969395Y-128089342D01*
X136969395Y-128089342D02*
X136969395Y-127994104D01*
X136969395Y-127994104D02*
X137017014Y-127898866D01*
X137017014Y-127898866D02*
X137064633Y-127851247D01*
X137064633Y-127851247D02*
X137159871Y-127803628D01*
X137159871Y-127803628D02*
X137350347Y-127756009D01*
X137350347Y-127756009D02*
X137445585Y-127708390D01*
X137445585Y-127708390D02*
X137493204Y-127660771D01*
X137493204Y-127660771D02*
X137540823Y-127565533D01*
X137540823Y-127565533D02*
X137540823Y-127470295D01*
X137540823Y-127470295D02*
X137493204Y-127375057D01*
X137493204Y-127375057D02*
X137445585Y-127327438D01*
X137445585Y-127327438D02*
X137350347Y-127279819D01*
X137350347Y-127279819D02*
X137112252Y-127279819D01*
X137112252Y-127279819D02*
X136969395Y-127327438D01*
X136636061Y-127279819D02*
X136397966Y-128279819D01*
X136397966Y-128279819D02*
X136207490Y-127565533D01*
X136207490Y-127565533D02*
X136017014Y-128279819D01*
X136017014Y-128279819D02*
X135778919Y-127279819D01*
X134874157Y-128279819D02*
X135445585Y-128279819D01*
X135159871Y-128279819D02*
X135159871Y-127279819D01*
X135159871Y-127279819D02*
X135255109Y-127422676D01*
X135255109Y-127422676D02*
X135350347Y-127517914D01*
X135350347Y-127517914D02*
X135445585Y-127565533D01*
X134255109Y-127279819D02*
X134159871Y-127279819D01*
X134159871Y-127279819D02*
X134064633Y-127327438D01*
X134064633Y-127327438D02*
X134017014Y-127375057D01*
X134017014Y-127375057D02*
X133969395Y-127470295D01*
X133969395Y-127470295D02*
X133921776Y-127660771D01*
X133921776Y-127660771D02*
X133921776Y-127898866D01*
X133921776Y-127898866D02*
X133969395Y-128089342D01*
X133969395Y-128089342D02*
X134017014Y-128184580D01*
X134017014Y-128184580D02*
X134064633Y-128232200D01*
X134064633Y-128232200D02*
X134159871Y-128279819D01*
X134159871Y-128279819D02*
X134255109Y-128279819D01*
X134255109Y-128279819D02*
X134350347Y-128232200D01*
X134350347Y-128232200D02*
X134397966Y-128184580D01*
X134397966Y-128184580D02*
X134445585Y-128089342D01*
X134445585Y-128089342D02*
X134493204Y-127898866D01*
X134493204Y-127898866D02*
X134493204Y-127660771D01*
X134493204Y-127660771D02*
X134445585Y-127470295D01*
X134445585Y-127470295D02*
X134397966Y-127375057D01*
X134397966Y-127375057D02*
X134350347Y-127327438D01*
X134350347Y-127327438D02*
X134255109Y-127279819D01*
X156590823Y-166332200D02*
X156447966Y-166379819D01*
X156447966Y-166379819D02*
X156209871Y-166379819D01*
X156209871Y-166379819D02*
X156114633Y-166332200D01*
X156114633Y-166332200D02*
X156067014Y-166284580D01*
X156067014Y-166284580D02*
X156019395Y-166189342D01*
X156019395Y-166189342D02*
X156019395Y-166094104D01*
X156019395Y-166094104D02*
X156067014Y-165998866D01*
X156067014Y-165998866D02*
X156114633Y-165951247D01*
X156114633Y-165951247D02*
X156209871Y-165903628D01*
X156209871Y-165903628D02*
X156400347Y-165856009D01*
X156400347Y-165856009D02*
X156495585Y-165808390D01*
X156495585Y-165808390D02*
X156543204Y-165760771D01*
X156543204Y-165760771D02*
X156590823Y-165665533D01*
X156590823Y-165665533D02*
X156590823Y-165570295D01*
X156590823Y-165570295D02*
X156543204Y-165475057D01*
X156543204Y-165475057D02*
X156495585Y-165427438D01*
X156495585Y-165427438D02*
X156400347Y-165379819D01*
X156400347Y-165379819D02*
X156162252Y-165379819D01*
X156162252Y-165379819D02*
X156019395Y-165427438D01*
X155686061Y-165379819D02*
X155447966Y-166379819D01*
X155447966Y-166379819D02*
X155257490Y-165665533D01*
X155257490Y-165665533D02*
X155067014Y-166379819D01*
X155067014Y-166379819D02*
X154828919Y-165379819D01*
X153924157Y-166379819D02*
X154495585Y-166379819D01*
X154209871Y-166379819D02*
X154209871Y-165379819D01*
X154209871Y-165379819D02*
X154305109Y-165522676D01*
X154305109Y-165522676D02*
X154400347Y-165617914D01*
X154400347Y-165617914D02*
X154495585Y-165665533D01*
X153067014Y-165379819D02*
X153257490Y-165379819D01*
X153257490Y-165379819D02*
X153352728Y-165427438D01*
X153352728Y-165427438D02*
X153400347Y-165475057D01*
X153400347Y-165475057D02*
X153495585Y-165617914D01*
X153495585Y-165617914D02*
X153543204Y-165808390D01*
X153543204Y-165808390D02*
X153543204Y-166189342D01*
X153543204Y-166189342D02*
X153495585Y-166284580D01*
X153495585Y-166284580D02*
X153447966Y-166332200D01*
X153447966Y-166332200D02*
X153352728Y-166379819D01*
X153352728Y-166379819D02*
X153162252Y-166379819D01*
X153162252Y-166379819D02*
X153067014Y-166332200D01*
X153067014Y-166332200D02*
X153019395Y-166284580D01*
X153019395Y-166284580D02*
X152971776Y-166189342D01*
X152971776Y-166189342D02*
X152971776Y-165951247D01*
X152971776Y-165951247D02*
X153019395Y-165856009D01*
X153019395Y-165856009D02*
X153067014Y-165808390D01*
X153067014Y-165808390D02*
X153162252Y-165760771D01*
X153162252Y-165760771D02*
X153352728Y-165760771D01*
X153352728Y-165760771D02*
X153447966Y-165808390D01*
X153447966Y-165808390D02*
X153495585Y-165856009D01*
X153495585Y-165856009D02*
X153543204Y-165951247D01*
X213740823Y-192525900D02*
X213597966Y-192573519D01*
X213597966Y-192573519D02*
X213359871Y-192573519D01*
X213359871Y-192573519D02*
X213264633Y-192525900D01*
X213264633Y-192525900D02*
X213217014Y-192478280D01*
X213217014Y-192478280D02*
X213169395Y-192383042D01*
X213169395Y-192383042D02*
X213169395Y-192287804D01*
X213169395Y-192287804D02*
X213217014Y-192192566D01*
X213217014Y-192192566D02*
X213264633Y-192144947D01*
X213264633Y-192144947D02*
X213359871Y-192097328D01*
X213359871Y-192097328D02*
X213550347Y-192049709D01*
X213550347Y-192049709D02*
X213645585Y-192002090D01*
X213645585Y-192002090D02*
X213693204Y-191954471D01*
X213693204Y-191954471D02*
X213740823Y-191859233D01*
X213740823Y-191859233D02*
X213740823Y-191763995D01*
X213740823Y-191763995D02*
X213693204Y-191668757D01*
X213693204Y-191668757D02*
X213645585Y-191621138D01*
X213645585Y-191621138D02*
X213550347Y-191573519D01*
X213550347Y-191573519D02*
X213312252Y-191573519D01*
X213312252Y-191573519D02*
X213169395Y-191621138D01*
X212836061Y-191573519D02*
X212597966Y-192573519D01*
X212597966Y-192573519D02*
X212407490Y-191859233D01*
X212407490Y-191859233D02*
X212217014Y-192573519D01*
X212217014Y-192573519D02*
X211978919Y-191573519D01*
X211645585Y-191668757D02*
X211597966Y-191621138D01*
X211597966Y-191621138D02*
X211502728Y-191573519D01*
X211502728Y-191573519D02*
X211264633Y-191573519D01*
X211264633Y-191573519D02*
X211169395Y-191621138D01*
X211169395Y-191621138D02*
X211121776Y-191668757D01*
X211121776Y-191668757D02*
X211074157Y-191763995D01*
X211074157Y-191763995D02*
X211074157Y-191859233D01*
X211074157Y-191859233D02*
X211121776Y-192002090D01*
X211121776Y-192002090D02*
X211693204Y-192573519D01*
X211693204Y-192573519D02*
X211074157Y-192573519D01*
X210169395Y-191573519D02*
X210645585Y-191573519D01*
X210645585Y-191573519D02*
X210693204Y-192049709D01*
X210693204Y-192049709D02*
X210645585Y-192002090D01*
X210645585Y-192002090D02*
X210550347Y-191954471D01*
X210550347Y-191954471D02*
X210312252Y-191954471D01*
X210312252Y-191954471D02*
X210217014Y-192002090D01*
X210217014Y-192002090D02*
X210169395Y-192049709D01*
X210169395Y-192049709D02*
X210121776Y-192144947D01*
X210121776Y-192144947D02*
X210121776Y-192383042D01*
X210121776Y-192383042D02*
X210169395Y-192478280D01*
X210169395Y-192478280D02*
X210217014Y-192525900D01*
X210217014Y-192525900D02*
X210312252Y-192573519D01*
X210312252Y-192573519D02*
X210550347Y-192573519D01*
X210550347Y-192573519D02*
X210645585Y-192525900D01*
X210645585Y-192525900D02*
X210693204Y-192478280D01*
X175640823Y-171094700D02*
X175497966Y-171142319D01*
X175497966Y-171142319D02*
X175259871Y-171142319D01*
X175259871Y-171142319D02*
X175164633Y-171094700D01*
X175164633Y-171094700D02*
X175117014Y-171047080D01*
X175117014Y-171047080D02*
X175069395Y-170951842D01*
X175069395Y-170951842D02*
X175069395Y-170856604D01*
X175069395Y-170856604D02*
X175117014Y-170761366D01*
X175117014Y-170761366D02*
X175164633Y-170713747D01*
X175164633Y-170713747D02*
X175259871Y-170666128D01*
X175259871Y-170666128D02*
X175450347Y-170618509D01*
X175450347Y-170618509D02*
X175545585Y-170570890D01*
X175545585Y-170570890D02*
X175593204Y-170523271D01*
X175593204Y-170523271D02*
X175640823Y-170428033D01*
X175640823Y-170428033D02*
X175640823Y-170332795D01*
X175640823Y-170332795D02*
X175593204Y-170237557D01*
X175593204Y-170237557D02*
X175545585Y-170189938D01*
X175545585Y-170189938D02*
X175450347Y-170142319D01*
X175450347Y-170142319D02*
X175212252Y-170142319D01*
X175212252Y-170142319D02*
X175069395Y-170189938D01*
X174736061Y-170142319D02*
X174497966Y-171142319D01*
X174497966Y-171142319D02*
X174307490Y-170428033D01*
X174307490Y-170428033D02*
X174117014Y-171142319D01*
X174117014Y-171142319D02*
X173878919Y-170142319D01*
X173545585Y-170237557D02*
X173497966Y-170189938D01*
X173497966Y-170189938D02*
X173402728Y-170142319D01*
X173402728Y-170142319D02*
X173164633Y-170142319D01*
X173164633Y-170142319D02*
X173069395Y-170189938D01*
X173069395Y-170189938D02*
X173021776Y-170237557D01*
X173021776Y-170237557D02*
X172974157Y-170332795D01*
X172974157Y-170332795D02*
X172974157Y-170428033D01*
X172974157Y-170428033D02*
X173021776Y-170570890D01*
X173021776Y-170570890D02*
X173593204Y-171142319D01*
X173593204Y-171142319D02*
X172974157Y-171142319D01*
X172355109Y-170142319D02*
X172259871Y-170142319D01*
X172259871Y-170142319D02*
X172164633Y-170189938D01*
X172164633Y-170189938D02*
X172117014Y-170237557D01*
X172117014Y-170237557D02*
X172069395Y-170332795D01*
X172069395Y-170332795D02*
X172021776Y-170523271D01*
X172021776Y-170523271D02*
X172021776Y-170761366D01*
X172021776Y-170761366D02*
X172069395Y-170951842D01*
X172069395Y-170951842D02*
X172117014Y-171047080D01*
X172117014Y-171047080D02*
X172164633Y-171094700D01*
X172164633Y-171094700D02*
X172259871Y-171142319D01*
X172259871Y-171142319D02*
X172355109Y-171142319D01*
X172355109Y-171142319D02*
X172450347Y-171094700D01*
X172450347Y-171094700D02*
X172497966Y-171047080D01*
X172497966Y-171047080D02*
X172545585Y-170951842D01*
X172545585Y-170951842D02*
X172593204Y-170761366D01*
X172593204Y-170761366D02*
X172593204Y-170523271D01*
X172593204Y-170523271D02*
X172545585Y-170332795D01*
X172545585Y-170332795D02*
X172497966Y-170237557D01*
X172497966Y-170237557D02*
X172450347Y-170189938D01*
X172450347Y-170189938D02*
X172355109Y-170142319D01*
X137540823Y-166332200D02*
X137397966Y-166379819D01*
X137397966Y-166379819D02*
X137159871Y-166379819D01*
X137159871Y-166379819D02*
X137064633Y-166332200D01*
X137064633Y-166332200D02*
X137017014Y-166284580D01*
X137017014Y-166284580D02*
X136969395Y-166189342D01*
X136969395Y-166189342D02*
X136969395Y-166094104D01*
X136969395Y-166094104D02*
X137017014Y-165998866D01*
X137017014Y-165998866D02*
X137064633Y-165951247D01*
X137064633Y-165951247D02*
X137159871Y-165903628D01*
X137159871Y-165903628D02*
X137350347Y-165856009D01*
X137350347Y-165856009D02*
X137445585Y-165808390D01*
X137445585Y-165808390D02*
X137493204Y-165760771D01*
X137493204Y-165760771D02*
X137540823Y-165665533D01*
X137540823Y-165665533D02*
X137540823Y-165570295D01*
X137540823Y-165570295D02*
X137493204Y-165475057D01*
X137493204Y-165475057D02*
X137445585Y-165427438D01*
X137445585Y-165427438D02*
X137350347Y-165379819D01*
X137350347Y-165379819D02*
X137112252Y-165379819D01*
X137112252Y-165379819D02*
X136969395Y-165427438D01*
X136636061Y-165379819D02*
X136397966Y-166379819D01*
X136397966Y-166379819D02*
X136207490Y-165665533D01*
X136207490Y-165665533D02*
X136017014Y-166379819D01*
X136017014Y-166379819D02*
X135778919Y-165379819D01*
X134874157Y-166379819D02*
X135445585Y-166379819D01*
X135159871Y-166379819D02*
X135159871Y-165379819D01*
X135159871Y-165379819D02*
X135255109Y-165522676D01*
X135255109Y-165522676D02*
X135350347Y-165617914D01*
X135350347Y-165617914D02*
X135445585Y-165665533D01*
X134493204Y-165475057D02*
X134445585Y-165427438D01*
X134445585Y-165427438D02*
X134350347Y-165379819D01*
X134350347Y-165379819D02*
X134112252Y-165379819D01*
X134112252Y-165379819D02*
X134017014Y-165427438D01*
X134017014Y-165427438D02*
X133969395Y-165475057D01*
X133969395Y-165475057D02*
X133921776Y-165570295D01*
X133921776Y-165570295D02*
X133921776Y-165665533D01*
X133921776Y-165665533D02*
X133969395Y-165808390D01*
X133969395Y-165808390D02*
X134540823Y-166379819D01*
X134540823Y-166379819D02*
X133921776Y-166379819D01*
X156590823Y-147282200D02*
X156447966Y-147329819D01*
X156447966Y-147329819D02*
X156209871Y-147329819D01*
X156209871Y-147329819D02*
X156114633Y-147282200D01*
X156114633Y-147282200D02*
X156067014Y-147234580D01*
X156067014Y-147234580D02*
X156019395Y-147139342D01*
X156019395Y-147139342D02*
X156019395Y-147044104D01*
X156019395Y-147044104D02*
X156067014Y-146948866D01*
X156067014Y-146948866D02*
X156114633Y-146901247D01*
X156114633Y-146901247D02*
X156209871Y-146853628D01*
X156209871Y-146853628D02*
X156400347Y-146806009D01*
X156400347Y-146806009D02*
X156495585Y-146758390D01*
X156495585Y-146758390D02*
X156543204Y-146710771D01*
X156543204Y-146710771D02*
X156590823Y-146615533D01*
X156590823Y-146615533D02*
X156590823Y-146520295D01*
X156590823Y-146520295D02*
X156543204Y-146425057D01*
X156543204Y-146425057D02*
X156495585Y-146377438D01*
X156495585Y-146377438D02*
X156400347Y-146329819D01*
X156400347Y-146329819D02*
X156162252Y-146329819D01*
X156162252Y-146329819D02*
X156019395Y-146377438D01*
X155686061Y-146329819D02*
X155447966Y-147329819D01*
X155447966Y-147329819D02*
X155257490Y-146615533D01*
X155257490Y-146615533D02*
X155067014Y-147329819D01*
X155067014Y-147329819D02*
X154828919Y-146329819D01*
X153924157Y-147329819D02*
X154495585Y-147329819D01*
X154209871Y-147329819D02*
X154209871Y-146329819D01*
X154209871Y-146329819D02*
X154305109Y-146472676D01*
X154305109Y-146472676D02*
X154400347Y-146567914D01*
X154400347Y-146567914D02*
X154495585Y-146615533D01*
X153019395Y-146329819D02*
X153495585Y-146329819D01*
X153495585Y-146329819D02*
X153543204Y-146806009D01*
X153543204Y-146806009D02*
X153495585Y-146758390D01*
X153495585Y-146758390D02*
X153400347Y-146710771D01*
X153400347Y-146710771D02*
X153162252Y-146710771D01*
X153162252Y-146710771D02*
X153067014Y-146758390D01*
X153067014Y-146758390D02*
X153019395Y-146806009D01*
X153019395Y-146806009D02*
X152971776Y-146901247D01*
X152971776Y-146901247D02*
X152971776Y-147139342D01*
X152971776Y-147139342D02*
X153019395Y-147234580D01*
X153019395Y-147234580D02*
X153067014Y-147282200D01*
X153067014Y-147282200D02*
X153162252Y-147329819D01*
X153162252Y-147329819D02*
X153400347Y-147329819D01*
X153400347Y-147329819D02*
X153495585Y-147282200D01*
X153495585Y-147282200D02*
X153543204Y-147234580D01*
X270890823Y-128232200D02*
X270747966Y-128279819D01*
X270747966Y-128279819D02*
X270509871Y-128279819D01*
X270509871Y-128279819D02*
X270414633Y-128232200D01*
X270414633Y-128232200D02*
X270367014Y-128184580D01*
X270367014Y-128184580D02*
X270319395Y-128089342D01*
X270319395Y-128089342D02*
X270319395Y-127994104D01*
X270319395Y-127994104D02*
X270367014Y-127898866D01*
X270367014Y-127898866D02*
X270414633Y-127851247D01*
X270414633Y-127851247D02*
X270509871Y-127803628D01*
X270509871Y-127803628D02*
X270700347Y-127756009D01*
X270700347Y-127756009D02*
X270795585Y-127708390D01*
X270795585Y-127708390D02*
X270843204Y-127660771D01*
X270843204Y-127660771D02*
X270890823Y-127565533D01*
X270890823Y-127565533D02*
X270890823Y-127470295D01*
X270890823Y-127470295D02*
X270843204Y-127375057D01*
X270843204Y-127375057D02*
X270795585Y-127327438D01*
X270795585Y-127327438D02*
X270700347Y-127279819D01*
X270700347Y-127279819D02*
X270462252Y-127279819D01*
X270462252Y-127279819D02*
X270319395Y-127327438D01*
X269986061Y-127279819D02*
X269747966Y-128279819D01*
X269747966Y-128279819D02*
X269557490Y-127565533D01*
X269557490Y-127565533D02*
X269367014Y-128279819D01*
X269367014Y-128279819D02*
X269128919Y-127279819D01*
X268843204Y-127279819D02*
X268224157Y-127279819D01*
X268224157Y-127279819D02*
X268557490Y-127660771D01*
X268557490Y-127660771D02*
X268414633Y-127660771D01*
X268414633Y-127660771D02*
X268319395Y-127708390D01*
X268319395Y-127708390D02*
X268271776Y-127756009D01*
X268271776Y-127756009D02*
X268224157Y-127851247D01*
X268224157Y-127851247D02*
X268224157Y-128089342D01*
X268224157Y-128089342D02*
X268271776Y-128184580D01*
X268271776Y-128184580D02*
X268319395Y-128232200D01*
X268319395Y-128232200D02*
X268414633Y-128279819D01*
X268414633Y-128279819D02*
X268700347Y-128279819D01*
X268700347Y-128279819D02*
X268795585Y-128232200D01*
X268795585Y-128232200D02*
X268843204Y-128184580D01*
X267271776Y-128279819D02*
X267843204Y-128279819D01*
X267557490Y-128279819D02*
X267557490Y-127279819D01*
X267557490Y-127279819D02*
X267652728Y-127422676D01*
X267652728Y-127422676D02*
X267747966Y-127517914D01*
X267747966Y-127517914D02*
X267843204Y-127565533D01*
X98964632Y-147282200D02*
X98821775Y-147329819D01*
X98821775Y-147329819D02*
X98583680Y-147329819D01*
X98583680Y-147329819D02*
X98488442Y-147282200D01*
X98488442Y-147282200D02*
X98440823Y-147234580D01*
X98440823Y-147234580D02*
X98393204Y-147139342D01*
X98393204Y-147139342D02*
X98393204Y-147044104D01*
X98393204Y-147044104D02*
X98440823Y-146948866D01*
X98440823Y-146948866D02*
X98488442Y-146901247D01*
X98488442Y-146901247D02*
X98583680Y-146853628D01*
X98583680Y-146853628D02*
X98774156Y-146806009D01*
X98774156Y-146806009D02*
X98869394Y-146758390D01*
X98869394Y-146758390D02*
X98917013Y-146710771D01*
X98917013Y-146710771D02*
X98964632Y-146615533D01*
X98964632Y-146615533D02*
X98964632Y-146520295D01*
X98964632Y-146520295D02*
X98917013Y-146425057D01*
X98917013Y-146425057D02*
X98869394Y-146377438D01*
X98869394Y-146377438D02*
X98774156Y-146329819D01*
X98774156Y-146329819D02*
X98536061Y-146329819D01*
X98536061Y-146329819D02*
X98393204Y-146377438D01*
X98059870Y-146329819D02*
X97821775Y-147329819D01*
X97821775Y-147329819D02*
X97631299Y-146615533D01*
X97631299Y-146615533D02*
X97440823Y-147329819D01*
X97440823Y-147329819D02*
X97202728Y-146329819D01*
X96345585Y-146329819D02*
X96821775Y-146329819D01*
X96821775Y-146329819D02*
X96869394Y-146806009D01*
X96869394Y-146806009D02*
X96821775Y-146758390D01*
X96821775Y-146758390D02*
X96726537Y-146710771D01*
X96726537Y-146710771D02*
X96488442Y-146710771D01*
X96488442Y-146710771D02*
X96393204Y-146758390D01*
X96393204Y-146758390D02*
X96345585Y-146806009D01*
X96345585Y-146806009D02*
X96297966Y-146901247D01*
X96297966Y-146901247D02*
X96297966Y-147139342D01*
X96297966Y-147139342D02*
X96345585Y-147234580D01*
X96345585Y-147234580D02*
X96393204Y-147282200D01*
X96393204Y-147282200D02*
X96488442Y-147329819D01*
X96488442Y-147329819D02*
X96726537Y-147329819D01*
X96726537Y-147329819D02*
X96821775Y-147282200D01*
X96821775Y-147282200D02*
X96869394Y-147234580D01*
X251840823Y-185382200D02*
X251697966Y-185429819D01*
X251697966Y-185429819D02*
X251459871Y-185429819D01*
X251459871Y-185429819D02*
X251364633Y-185382200D01*
X251364633Y-185382200D02*
X251317014Y-185334580D01*
X251317014Y-185334580D02*
X251269395Y-185239342D01*
X251269395Y-185239342D02*
X251269395Y-185144104D01*
X251269395Y-185144104D02*
X251317014Y-185048866D01*
X251317014Y-185048866D02*
X251364633Y-185001247D01*
X251364633Y-185001247D02*
X251459871Y-184953628D01*
X251459871Y-184953628D02*
X251650347Y-184906009D01*
X251650347Y-184906009D02*
X251745585Y-184858390D01*
X251745585Y-184858390D02*
X251793204Y-184810771D01*
X251793204Y-184810771D02*
X251840823Y-184715533D01*
X251840823Y-184715533D02*
X251840823Y-184620295D01*
X251840823Y-184620295D02*
X251793204Y-184525057D01*
X251793204Y-184525057D02*
X251745585Y-184477438D01*
X251745585Y-184477438D02*
X251650347Y-184429819D01*
X251650347Y-184429819D02*
X251412252Y-184429819D01*
X251412252Y-184429819D02*
X251269395Y-184477438D01*
X250936061Y-184429819D02*
X250697966Y-185429819D01*
X250697966Y-185429819D02*
X250507490Y-184715533D01*
X250507490Y-184715533D02*
X250317014Y-185429819D01*
X250317014Y-185429819D02*
X250078919Y-184429819D01*
X249793204Y-184429819D02*
X249174157Y-184429819D01*
X249174157Y-184429819D02*
X249507490Y-184810771D01*
X249507490Y-184810771D02*
X249364633Y-184810771D01*
X249364633Y-184810771D02*
X249269395Y-184858390D01*
X249269395Y-184858390D02*
X249221776Y-184906009D01*
X249221776Y-184906009D02*
X249174157Y-185001247D01*
X249174157Y-185001247D02*
X249174157Y-185239342D01*
X249174157Y-185239342D02*
X249221776Y-185334580D01*
X249221776Y-185334580D02*
X249269395Y-185382200D01*
X249269395Y-185382200D02*
X249364633Y-185429819D01*
X249364633Y-185429819D02*
X249650347Y-185429819D01*
X249650347Y-185429819D02*
X249745585Y-185382200D01*
X249745585Y-185382200D02*
X249793204Y-185334580D01*
X248555109Y-184429819D02*
X248459871Y-184429819D01*
X248459871Y-184429819D02*
X248364633Y-184477438D01*
X248364633Y-184477438D02*
X248317014Y-184525057D01*
X248317014Y-184525057D02*
X248269395Y-184620295D01*
X248269395Y-184620295D02*
X248221776Y-184810771D01*
X248221776Y-184810771D02*
X248221776Y-185048866D01*
X248221776Y-185048866D02*
X248269395Y-185239342D01*
X248269395Y-185239342D02*
X248317014Y-185334580D01*
X248317014Y-185334580D02*
X248364633Y-185382200D01*
X248364633Y-185382200D02*
X248459871Y-185429819D01*
X248459871Y-185429819D02*
X248555109Y-185429819D01*
X248555109Y-185429819D02*
X248650347Y-185382200D01*
X248650347Y-185382200D02*
X248697966Y-185334580D01*
X248697966Y-185334580D02*
X248745585Y-185239342D01*
X248745585Y-185239342D02*
X248793204Y-185048866D01*
X248793204Y-185048866D02*
X248793204Y-184810771D01*
X248793204Y-184810771D02*
X248745585Y-184620295D01*
X248745585Y-184620295D02*
X248697966Y-184525057D01*
X248697966Y-184525057D02*
X248650347Y-184477438D01*
X248650347Y-184477438D02*
X248555109Y-184429819D01*
X118014632Y-147282200D02*
X117871775Y-147329819D01*
X117871775Y-147329819D02*
X117633680Y-147329819D01*
X117633680Y-147329819D02*
X117538442Y-147282200D01*
X117538442Y-147282200D02*
X117490823Y-147234580D01*
X117490823Y-147234580D02*
X117443204Y-147139342D01*
X117443204Y-147139342D02*
X117443204Y-147044104D01*
X117443204Y-147044104D02*
X117490823Y-146948866D01*
X117490823Y-146948866D02*
X117538442Y-146901247D01*
X117538442Y-146901247D02*
X117633680Y-146853628D01*
X117633680Y-146853628D02*
X117824156Y-146806009D01*
X117824156Y-146806009D02*
X117919394Y-146758390D01*
X117919394Y-146758390D02*
X117967013Y-146710771D01*
X117967013Y-146710771D02*
X118014632Y-146615533D01*
X118014632Y-146615533D02*
X118014632Y-146520295D01*
X118014632Y-146520295D02*
X117967013Y-146425057D01*
X117967013Y-146425057D02*
X117919394Y-146377438D01*
X117919394Y-146377438D02*
X117824156Y-146329819D01*
X117824156Y-146329819D02*
X117586061Y-146329819D01*
X117586061Y-146329819D02*
X117443204Y-146377438D01*
X117109870Y-146329819D02*
X116871775Y-147329819D01*
X116871775Y-147329819D02*
X116681299Y-146615533D01*
X116681299Y-146615533D02*
X116490823Y-147329819D01*
X116490823Y-147329819D02*
X116252728Y-146329819D01*
X115728918Y-146758390D02*
X115824156Y-146710771D01*
X115824156Y-146710771D02*
X115871775Y-146663152D01*
X115871775Y-146663152D02*
X115919394Y-146567914D01*
X115919394Y-146567914D02*
X115919394Y-146520295D01*
X115919394Y-146520295D02*
X115871775Y-146425057D01*
X115871775Y-146425057D02*
X115824156Y-146377438D01*
X115824156Y-146377438D02*
X115728918Y-146329819D01*
X115728918Y-146329819D02*
X115538442Y-146329819D01*
X115538442Y-146329819D02*
X115443204Y-146377438D01*
X115443204Y-146377438D02*
X115395585Y-146425057D01*
X115395585Y-146425057D02*
X115347966Y-146520295D01*
X115347966Y-146520295D02*
X115347966Y-146567914D01*
X115347966Y-146567914D02*
X115395585Y-146663152D01*
X115395585Y-146663152D02*
X115443204Y-146710771D01*
X115443204Y-146710771D02*
X115538442Y-146758390D01*
X115538442Y-146758390D02*
X115728918Y-146758390D01*
X115728918Y-146758390D02*
X115824156Y-146806009D01*
X115824156Y-146806009D02*
X115871775Y-146853628D01*
X115871775Y-146853628D02*
X115919394Y-146948866D01*
X115919394Y-146948866D02*
X115919394Y-147139342D01*
X115919394Y-147139342D02*
X115871775Y-147234580D01*
X115871775Y-147234580D02*
X115824156Y-147282200D01*
X115824156Y-147282200D02*
X115728918Y-147329819D01*
X115728918Y-147329819D02*
X115538442Y-147329819D01*
X115538442Y-147329819D02*
X115443204Y-147282200D01*
X115443204Y-147282200D02*
X115395585Y-147234580D01*
X115395585Y-147234580D02*
X115347966Y-147139342D01*
X115347966Y-147139342D02*
X115347966Y-146948866D01*
X115347966Y-146948866D02*
X115395585Y-146853628D01*
X115395585Y-146853628D02*
X115443204Y-146806009D01*
X115443204Y-146806009D02*
X115538442Y-146758390D01*
X186981300Y-183418700D02*
X186981300Y-184418700D01*
X186981300Y-184418700D02*
X187181300Y-184418700D01*
X186981300Y-187018700D02*
X186981300Y-186658700D01*
X186981300Y-187018700D02*
X190261300Y-187018700D01*
D11*
X187081300Y-184318699D02*
X187081300Y-183418700D01*
D10*
X187181300Y-186658700D02*
X186981300Y-186658700D01*
D12*
X187181300Y-186818700D02*
X189881300Y-186818700D01*
D10*
X187211300Y-184418700D02*
X187211300Y-186658700D01*
D13*
X187581300Y-186518700D02*
X187581300Y-184718701D01*
D14*
X188711300Y-183018700D02*
X188711300Y-185258700D01*
D10*
X192481300Y-185118700D02*
X197481300Y-185118700D01*
D15*
X195481300Y-183318700D02*
X188781300Y-183318700D01*
D16*
X196781300Y-182118700D02*
X196781300Y-184618700D01*
D12*
X197181300Y-184818700D02*
X195781300Y-184818700D01*
D10*
X197261300Y-184118700D02*
X197261300Y-181868700D01*
D17*
X197281300Y-181718700D02*
X195881300Y-181718700D01*
D10*
X197281300Y-181868700D02*
X197481300Y-181868700D01*
D17*
X197281300Y-184218700D02*
X197281300Y-184918700D01*
D10*
X197481300Y-181518700D02*
X189081299Y-181518700D01*
X197481300Y-181868700D02*
X197481300Y-181518700D01*
X197481300Y-184118700D02*
X197281300Y-184118700D01*
X197481300Y-185118700D02*
X197481300Y-184118700D01*
X186981300Y-183418701D02*
G75*
G02*
X189081299Y-181518699I1999999J-99997D01*
G01*
D16*
X189864982Y-186597229D02*
G75*
G02*
X192081300Y-184718700I2151317J-291470D01*
G01*
D10*
X190264982Y-186997229D02*
G75*
G02*
X192481300Y-185118700I2151317J-291470D01*
G01*
X225081300Y-142937500D02*
X225081300Y-143937500D01*
X225081300Y-143937500D02*
X225281300Y-143937500D01*
X225081300Y-146537500D02*
X225081300Y-146177500D01*
X225081300Y-146537500D02*
X228361300Y-146537500D01*
D11*
X225181300Y-143837499D02*
X225181300Y-142937500D01*
D10*
X225281300Y-146177500D02*
X225081300Y-146177500D01*
D12*
X225281300Y-146337500D02*
X227981300Y-146337500D01*
D10*
X225311300Y-143937500D02*
X225311300Y-146177500D01*
D13*
X225681300Y-146037500D02*
X225681300Y-144237501D01*
D14*
X226811300Y-142537500D02*
X226811300Y-144777500D01*
D10*
X230581300Y-144637500D02*
X235581300Y-144637500D01*
D15*
X233581300Y-142837500D02*
X226881300Y-142837500D01*
D16*
X234881300Y-141637500D02*
X234881300Y-144137500D01*
D12*
X235281300Y-144337500D02*
X233881300Y-144337500D01*
D10*
X235361300Y-143637500D02*
X235361300Y-141387500D01*
D17*
X235381300Y-141237500D02*
X233981300Y-141237500D01*
D10*
X235381300Y-141387500D02*
X235581300Y-141387500D01*
D17*
X235381300Y-143737500D02*
X235381300Y-144437500D01*
D10*
X235581300Y-141037500D02*
X227181299Y-141037500D01*
X235581300Y-141387500D02*
X235581300Y-141037500D01*
X235581300Y-143637500D02*
X235381300Y-143637500D01*
X235581300Y-144637500D02*
X235581300Y-143637500D01*
X225081300Y-142937501D02*
G75*
G02*
X227181299Y-141037499I1999999J-99997D01*
G01*
D16*
X227964982Y-146116029D02*
G75*
G02*
X230181300Y-144237500I2151317J-291470D01*
G01*
D10*
X228364982Y-146516029D02*
G75*
G02*
X230581300Y-144637500I2151317J-291470D01*
G01*
X225081300Y-181037500D02*
X225081300Y-182037500D01*
X225081300Y-182037500D02*
X225281300Y-182037500D01*
X225081300Y-184637500D02*
X225081300Y-184277500D01*
X225081300Y-184637500D02*
X228361300Y-184637500D01*
D11*
X225181300Y-181937499D02*
X225181300Y-181037500D01*
D10*
X225281300Y-184277500D02*
X225081300Y-184277500D01*
D12*
X225281300Y-184437500D02*
X227981300Y-184437500D01*
D10*
X225311300Y-182037500D02*
X225311300Y-184277500D01*
D13*
X225681300Y-184137500D02*
X225681300Y-182337501D01*
D14*
X226811300Y-180637500D02*
X226811300Y-182877500D01*
D10*
X230581300Y-182737500D02*
X235581300Y-182737500D01*
D15*
X233581300Y-180937500D02*
X226881300Y-180937500D01*
D16*
X234881300Y-179737500D02*
X234881300Y-182237500D01*
D12*
X235281300Y-182437500D02*
X233881300Y-182437500D01*
D10*
X235361300Y-181737500D02*
X235361300Y-179487500D01*
D17*
X235381300Y-179337500D02*
X233981300Y-179337500D01*
D10*
X235381300Y-179487500D02*
X235581300Y-179487500D01*
D17*
X235381300Y-181837500D02*
X235381300Y-182537500D01*
D10*
X235581300Y-179137500D02*
X227181299Y-179137500D01*
X235581300Y-179487500D02*
X235581300Y-179137500D01*
X235581300Y-181737500D02*
X235381300Y-181737500D01*
X235581300Y-182737500D02*
X235581300Y-181737500D01*
X225081300Y-181037501D02*
G75*
G02*
X227181299Y-179137499I1999999J-99997D01*
G01*
D16*
X227964982Y-184216029D02*
G75*
G02*
X230181300Y-182337500I2151317J-291470D01*
G01*
D10*
X228364982Y-184616029D02*
G75*
G02*
X230581300Y-182737500I2151317J-291470D01*
G01*
X148881300Y-176275000D02*
X148881300Y-177275000D01*
X148881300Y-177275000D02*
X149081300Y-177275000D01*
X148881300Y-179875000D02*
X148881300Y-179515000D01*
X148881300Y-179875000D02*
X152161300Y-179875000D01*
D11*
X148981300Y-177174999D02*
X148981300Y-176275000D01*
D10*
X149081300Y-179515000D02*
X148881300Y-179515000D01*
D12*
X149081300Y-179675000D02*
X151781300Y-179675000D01*
D10*
X149111300Y-177275000D02*
X149111300Y-179515000D01*
D13*
X149481300Y-179375000D02*
X149481300Y-177575001D01*
D14*
X150611300Y-175875000D02*
X150611300Y-178115000D01*
D10*
X154381300Y-177975000D02*
X159381300Y-177975000D01*
D15*
X157381300Y-176175000D02*
X150681300Y-176175000D01*
D16*
X158681300Y-174975000D02*
X158681300Y-177475000D01*
D12*
X159081300Y-177675000D02*
X157681300Y-177675000D01*
D10*
X159161300Y-176975000D02*
X159161300Y-174725000D01*
D17*
X159181300Y-174575000D02*
X157781300Y-174575000D01*
D10*
X159181300Y-174725000D02*
X159381300Y-174725000D01*
D17*
X159181300Y-177075000D02*
X159181300Y-177775000D01*
D10*
X159381300Y-174375000D02*
X150981299Y-174375000D01*
X159381300Y-174725000D02*
X159381300Y-174375000D01*
X159381300Y-176975000D02*
X159181300Y-176975000D01*
X159381300Y-177975000D02*
X159381300Y-176975000D01*
X148881300Y-176275001D02*
G75*
G02*
X150981299Y-174374999I1999999J-99997D01*
G01*
D16*
X151764982Y-179453529D02*
G75*
G02*
X153981300Y-177575000I2151317J-291470D01*
G01*
D10*
X152164982Y-179853529D02*
G75*
G02*
X154381300Y-177975000I2151317J-291470D01*
G01*
X301281300Y-157225000D02*
X301281300Y-158225000D01*
X301281300Y-158225000D02*
X301481300Y-158225000D01*
X301281300Y-160825000D02*
X301281300Y-160465000D01*
X301281300Y-160825000D02*
X304561300Y-160825000D01*
D11*
X301381300Y-158124999D02*
X301381300Y-157225000D01*
D10*
X301481300Y-160465000D02*
X301281300Y-160465000D01*
D12*
X301481300Y-160625000D02*
X304181300Y-160625000D01*
D10*
X301511300Y-158225000D02*
X301511300Y-160465000D01*
D13*
X301881300Y-160325000D02*
X301881300Y-158525001D01*
D14*
X303011300Y-156825000D02*
X303011300Y-159065000D01*
D10*
X306781300Y-158925000D02*
X311781300Y-158925000D01*
D15*
X309781300Y-157125000D02*
X303081300Y-157125000D01*
D16*
X311081300Y-155925000D02*
X311081300Y-158425000D01*
D12*
X311481300Y-158625000D02*
X310081300Y-158625000D01*
D10*
X311561300Y-157925000D02*
X311561300Y-155675000D01*
D17*
X311581300Y-155525000D02*
X310181300Y-155525000D01*
D10*
X311581300Y-155675000D02*
X311781300Y-155675000D01*
D17*
X311581300Y-158025000D02*
X311581300Y-158725000D01*
D10*
X311781300Y-155325000D02*
X303381299Y-155325000D01*
X311781300Y-155675000D02*
X311781300Y-155325000D01*
X311781300Y-157925000D02*
X311581300Y-157925000D01*
X311781300Y-158925000D02*
X311781300Y-157925000D01*
X301281300Y-157225001D02*
G75*
G02*
X303381299Y-155324999I1999999J-99997D01*
G01*
D16*
X304164982Y-160403529D02*
G75*
G02*
X306381300Y-158525000I2151317J-291470D01*
G01*
D10*
X304564982Y-160803529D02*
G75*
G02*
X306781300Y-158925000I2151317J-291470D01*
G01*
X225081300Y-123887500D02*
X225081300Y-124887500D01*
X225081300Y-124887500D02*
X225281300Y-124887500D01*
X225081300Y-127487500D02*
X225081300Y-127127500D01*
X225081300Y-127487500D02*
X228361300Y-127487500D01*
D11*
X225181300Y-124787499D02*
X225181300Y-123887500D01*
D10*
X225281300Y-127127500D02*
X225081300Y-127127500D01*
D12*
X225281300Y-127287500D02*
X227981300Y-127287500D01*
D10*
X225311300Y-124887500D02*
X225311300Y-127127500D01*
D13*
X225681300Y-126987500D02*
X225681300Y-125187501D01*
D14*
X226811300Y-123487500D02*
X226811300Y-125727500D01*
D10*
X230581300Y-125587500D02*
X235581300Y-125587500D01*
D15*
X233581300Y-123787500D02*
X226881300Y-123787500D01*
D16*
X234881300Y-122587500D02*
X234881300Y-125087500D01*
D12*
X235281300Y-125287500D02*
X233881300Y-125287500D01*
D10*
X235361300Y-124587500D02*
X235361300Y-122337500D01*
D17*
X235381300Y-122187500D02*
X233981300Y-122187500D01*
D10*
X235381300Y-122337500D02*
X235581300Y-122337500D01*
D17*
X235381300Y-124687500D02*
X235381300Y-125387500D01*
D10*
X235581300Y-121987500D02*
X227181299Y-121987500D01*
X235581300Y-122337500D02*
X235581300Y-121987500D01*
X235581300Y-124587500D02*
X235381300Y-124587500D01*
X235581300Y-125587500D02*
X235581300Y-124587500D01*
X225081300Y-123887501D02*
G75*
G02*
X227181299Y-121987499I1999999J-99997D01*
G01*
D16*
X227964982Y-127066029D02*
G75*
G02*
X230181300Y-125187500I2151317J-291470D01*
G01*
D10*
X228364982Y-127466029D02*
G75*
G02*
X230581300Y-125587500I2151317J-291470D01*
G01*
X263181300Y-138175000D02*
X263181300Y-139175000D01*
X263181300Y-139175000D02*
X263381300Y-139175000D01*
X263181300Y-141775000D02*
X263181300Y-141415000D01*
X263181300Y-141775000D02*
X266461300Y-141775000D01*
D11*
X263281300Y-139074999D02*
X263281300Y-138175000D01*
D10*
X263381300Y-141415000D02*
X263181300Y-141415000D01*
D12*
X263381300Y-141575000D02*
X266081300Y-141575000D01*
D10*
X263411300Y-139175000D02*
X263411300Y-141415000D01*
D13*
X263781300Y-141275000D02*
X263781300Y-139475001D01*
D14*
X264911300Y-137775000D02*
X264911300Y-140015000D01*
D10*
X268681300Y-139875000D02*
X273681300Y-139875000D01*
D15*
X271681300Y-138075000D02*
X264981300Y-138075000D01*
D16*
X272981300Y-136875000D02*
X272981300Y-139375000D01*
D12*
X273381300Y-139575000D02*
X271981300Y-139575000D01*
D10*
X273461300Y-138875000D02*
X273461300Y-136625000D01*
D17*
X273481300Y-136475000D02*
X272081300Y-136475000D01*
D10*
X273481300Y-136625000D02*
X273681300Y-136625000D01*
D17*
X273481300Y-138975000D02*
X273481300Y-139675000D01*
D10*
X273681300Y-136275000D02*
X265281299Y-136275000D01*
X273681300Y-136625000D02*
X273681300Y-136275000D01*
X273681300Y-138875000D02*
X273481300Y-138875000D01*
X273681300Y-139875000D02*
X273681300Y-138875000D01*
X263181300Y-138175001D02*
G75*
G02*
X265281299Y-136274999I1999999J-99997D01*
G01*
D16*
X266064982Y-141353529D02*
G75*
G02*
X268281300Y-139475000I2151317J-291470D01*
G01*
D10*
X266464982Y-141753529D02*
G75*
G02*
X268681300Y-139875000I2151317J-291470D01*
G01*
X72681300Y-123887500D02*
X72681300Y-124887500D01*
X72681300Y-124887500D02*
X72881300Y-124887500D01*
X72681300Y-127487500D02*
X72681300Y-127127500D01*
X72681300Y-127487500D02*
X75961300Y-127487500D01*
D11*
X72781300Y-124787499D02*
X72781300Y-123887500D01*
D10*
X72881300Y-127127500D02*
X72681300Y-127127500D01*
D12*
X72881300Y-127287500D02*
X75581300Y-127287500D01*
D10*
X72911300Y-124887500D02*
X72911300Y-127127500D01*
D13*
X73281300Y-126987500D02*
X73281300Y-125187501D01*
D14*
X74411300Y-123487500D02*
X74411300Y-125727500D01*
D10*
X78181300Y-125587500D02*
X83181300Y-125587500D01*
D15*
X81181300Y-123787500D02*
X74481300Y-123787500D01*
D16*
X82481300Y-122587500D02*
X82481300Y-125087500D01*
D12*
X82881300Y-125287500D02*
X81481300Y-125287500D01*
D10*
X82961300Y-124587500D02*
X82961300Y-122337500D01*
D17*
X82981300Y-122187500D02*
X81581300Y-122187500D01*
D10*
X82981300Y-122337500D02*
X83181300Y-122337500D01*
D17*
X82981300Y-124687500D02*
X82981300Y-125387500D01*
D10*
X83181300Y-121987500D02*
X74781299Y-121987500D01*
X83181300Y-122337500D02*
X83181300Y-121987500D01*
X83181300Y-124587500D02*
X82981300Y-124587500D01*
X83181300Y-125587500D02*
X83181300Y-124587500D01*
X72681300Y-123887501D02*
G75*
G02*
X74781299Y-121987499I1999999J-99997D01*
G01*
D16*
X75564982Y-127066029D02*
G75*
G02*
X77781300Y-125187500I2151317J-291470D01*
G01*
D10*
X75964982Y-127466029D02*
G75*
G02*
X78181300Y-125587500I2151317J-291470D01*
G01*
X167931300Y-123887500D02*
X167931300Y-124887500D01*
X167931300Y-124887500D02*
X168131300Y-124887500D01*
X167931300Y-127487500D02*
X167931300Y-127127500D01*
X167931300Y-127487500D02*
X171211300Y-127487500D01*
D11*
X168031300Y-124787499D02*
X168031300Y-123887500D01*
D10*
X168131300Y-127127500D02*
X167931300Y-127127500D01*
D12*
X168131300Y-127287500D02*
X170831300Y-127287500D01*
D10*
X168161300Y-124887500D02*
X168161300Y-127127500D01*
D13*
X168531300Y-126987500D02*
X168531300Y-125187501D01*
D14*
X169661300Y-123487500D02*
X169661300Y-125727500D01*
D10*
X173431300Y-125587500D02*
X178431300Y-125587500D01*
D15*
X176431300Y-123787500D02*
X169731300Y-123787500D01*
D16*
X177731300Y-122587500D02*
X177731300Y-125087500D01*
D12*
X178131300Y-125287500D02*
X176731300Y-125287500D01*
D10*
X178211300Y-124587500D02*
X178211300Y-122337500D01*
D17*
X178231300Y-122187500D02*
X176831300Y-122187500D01*
D10*
X178231300Y-122337500D02*
X178431300Y-122337500D01*
D17*
X178231300Y-124687500D02*
X178231300Y-125387500D01*
D10*
X178431300Y-121987500D02*
X170031299Y-121987500D01*
X178431300Y-122337500D02*
X178431300Y-121987500D01*
X178431300Y-124587500D02*
X178231300Y-124587500D01*
X178431300Y-125587500D02*
X178431300Y-124587500D01*
X167931300Y-123887501D02*
G75*
G02*
X170031299Y-121987499I1999999J-99997D01*
G01*
D16*
X170814982Y-127066029D02*
G75*
G02*
X173031300Y-125187500I2151317J-291470D01*
G01*
D10*
X171214982Y-127466029D02*
G75*
G02*
X173431300Y-125587500I2151317J-291470D01*
G01*
X110781300Y-157225000D02*
X110781300Y-158225000D01*
X110781300Y-158225000D02*
X110981300Y-158225000D01*
X110781300Y-160825000D02*
X110781300Y-160465000D01*
X110781300Y-160825000D02*
X114061300Y-160825000D01*
D11*
X110881300Y-158124999D02*
X110881300Y-157225000D01*
D10*
X110981300Y-160465000D02*
X110781300Y-160465000D01*
D12*
X110981300Y-160625000D02*
X113681300Y-160625000D01*
D10*
X111011300Y-158225000D02*
X111011300Y-160465000D01*
D13*
X111381300Y-160325000D02*
X111381300Y-158525001D01*
D14*
X112511300Y-156825000D02*
X112511300Y-159065000D01*
D10*
X116281300Y-158925000D02*
X121281300Y-158925000D01*
D15*
X119281300Y-157125000D02*
X112581300Y-157125000D01*
D16*
X120581300Y-155925000D02*
X120581300Y-158425000D01*
D12*
X120981300Y-158625000D02*
X119581300Y-158625000D01*
D10*
X121061300Y-157925000D02*
X121061300Y-155675000D01*
D17*
X121081300Y-155525000D02*
X119681300Y-155525000D01*
D10*
X121081300Y-155675000D02*
X121281300Y-155675000D01*
D17*
X121081300Y-158025000D02*
X121081300Y-158725000D01*
D10*
X121281300Y-155325000D02*
X112881299Y-155325000D01*
X121281300Y-155675000D02*
X121281300Y-155325000D01*
X121281300Y-157925000D02*
X121081300Y-157925000D01*
X121281300Y-158925000D02*
X121281300Y-157925000D01*
X110781300Y-157225001D02*
G75*
G02*
X112881299Y-155324999I1999999J-99997D01*
G01*
D16*
X113664982Y-160403529D02*
G75*
G02*
X115881300Y-158525000I2151317J-291470D01*
G01*
D10*
X114064982Y-160803529D02*
G75*
G02*
X116281300Y-158925000I2151317J-291470D01*
G01*
X167931300Y-142937500D02*
X167931300Y-143937500D01*
X167931300Y-143937500D02*
X168131300Y-143937500D01*
X167931300Y-146537500D02*
X167931300Y-146177500D01*
X167931300Y-146537500D02*
X171211300Y-146537500D01*
D11*
X168031300Y-143837499D02*
X168031300Y-142937500D01*
D10*
X168131300Y-146177500D02*
X167931300Y-146177500D01*
D12*
X168131300Y-146337500D02*
X170831300Y-146337500D01*
D10*
X168161300Y-143937500D02*
X168161300Y-146177500D01*
D13*
X168531300Y-146037500D02*
X168531300Y-144237501D01*
D14*
X169661300Y-142537500D02*
X169661300Y-144777500D01*
D10*
X173431300Y-144637500D02*
X178431300Y-144637500D01*
D15*
X176431300Y-142837500D02*
X169731300Y-142837500D01*
D16*
X177731300Y-141637500D02*
X177731300Y-144137500D01*
D12*
X178131300Y-144337500D02*
X176731300Y-144337500D01*
D10*
X178211300Y-143637500D02*
X178211300Y-141387500D01*
D17*
X178231300Y-141237500D02*
X176831300Y-141237500D01*
D10*
X178231300Y-141387500D02*
X178431300Y-141387500D01*
D17*
X178231300Y-143737500D02*
X178231300Y-144437500D01*
D10*
X178431300Y-141037500D02*
X170031299Y-141037500D01*
X178431300Y-141387500D02*
X178431300Y-141037500D01*
X178431300Y-143637500D02*
X178231300Y-143637500D01*
X178431300Y-144637500D02*
X178431300Y-143637500D01*
X167931300Y-142937501D02*
G75*
G02*
X170031299Y-141037499I1999999J-99997D01*
G01*
D16*
X170814982Y-146116029D02*
G75*
G02*
X173031300Y-144237500I2151317J-291470D01*
G01*
D10*
X171214982Y-146516029D02*
G75*
G02*
X173431300Y-144637500I2151317J-291470D01*
G01*
X244131300Y-138175000D02*
X244131300Y-139175000D01*
X244131300Y-139175000D02*
X244331300Y-139175000D01*
X244131300Y-141775000D02*
X244131300Y-141415000D01*
X244131300Y-141775000D02*
X247411300Y-141775000D01*
D11*
X244231300Y-139074999D02*
X244231300Y-138175000D01*
D10*
X244331300Y-141415000D02*
X244131300Y-141415000D01*
D12*
X244331300Y-141575000D02*
X247031300Y-141575000D01*
D10*
X244361300Y-139175000D02*
X244361300Y-141415000D01*
D13*
X244731300Y-141275000D02*
X244731300Y-139475001D01*
D14*
X245861300Y-137775000D02*
X245861300Y-140015000D01*
D10*
X249631300Y-139875000D02*
X254631300Y-139875000D01*
D15*
X252631300Y-138075000D02*
X245931300Y-138075000D01*
D16*
X253931300Y-136875000D02*
X253931300Y-139375000D01*
D12*
X254331300Y-139575000D02*
X252931300Y-139575000D01*
D10*
X254411300Y-138875000D02*
X254411300Y-136625000D01*
D17*
X254431300Y-136475000D02*
X253031300Y-136475000D01*
D10*
X254431300Y-136625000D02*
X254631300Y-136625000D01*
D17*
X254431300Y-138975000D02*
X254431300Y-139675000D01*
D10*
X254631300Y-136275000D02*
X246231299Y-136275000D01*
X254631300Y-136625000D02*
X254631300Y-136275000D01*
X254631300Y-138875000D02*
X254431300Y-138875000D01*
X254631300Y-139875000D02*
X254631300Y-138875000D01*
X244131300Y-138175001D02*
G75*
G02*
X246231299Y-136274999I1999999J-99997D01*
G01*
D16*
X247014982Y-141353529D02*
G75*
G02*
X249231300Y-139475000I2151317J-291470D01*
G01*
D10*
X247414982Y-141753529D02*
G75*
G02*
X249631300Y-139875000I2151317J-291470D01*
G01*
X91731300Y-119125000D02*
X91731300Y-120125000D01*
X91731300Y-120125000D02*
X91931300Y-120125000D01*
X91731300Y-122725000D02*
X91731300Y-122365000D01*
X91731300Y-122725000D02*
X95011300Y-122725000D01*
D11*
X91831300Y-120024999D02*
X91831300Y-119125000D01*
D10*
X91931300Y-122365000D02*
X91731300Y-122365000D01*
D12*
X91931300Y-122525000D02*
X94631300Y-122525000D01*
D10*
X91961300Y-120125000D02*
X91961300Y-122365000D01*
D13*
X92331300Y-122225000D02*
X92331300Y-120425001D01*
D14*
X93461300Y-118725000D02*
X93461300Y-120965000D01*
D10*
X97231300Y-120825000D02*
X102231300Y-120825000D01*
D15*
X100231300Y-119025000D02*
X93531300Y-119025000D01*
D16*
X101531300Y-117825000D02*
X101531300Y-120325000D01*
D12*
X101931300Y-120525000D02*
X100531300Y-120525000D01*
D10*
X102011300Y-119825000D02*
X102011300Y-117575000D01*
D17*
X102031300Y-117425000D02*
X100631300Y-117425000D01*
D10*
X102031300Y-117575000D02*
X102231300Y-117575000D01*
D17*
X102031300Y-119925000D02*
X102031300Y-120625000D01*
D10*
X102231300Y-117225000D02*
X93831299Y-117225000D01*
X102231300Y-117575000D02*
X102231300Y-117225000D01*
X102231300Y-119825000D02*
X102031300Y-119825000D01*
X102231300Y-120825000D02*
X102231300Y-119825000D01*
X91731300Y-119125001D02*
G75*
G02*
X93831299Y-117224999I1999999J-99997D01*
G01*
D16*
X94614982Y-122303529D02*
G75*
G02*
X96831300Y-120425000I2151317J-291470D01*
G01*
D10*
X95014982Y-122703529D02*
G75*
G02*
X97231300Y-120825000I2151317J-291470D01*
G01*
X282231300Y-119125000D02*
X282231300Y-120125000D01*
X282231300Y-120125000D02*
X282431300Y-120125000D01*
X282231300Y-122725000D02*
X282231300Y-122365000D01*
X282231300Y-122725000D02*
X285511300Y-122725000D01*
D11*
X282331300Y-120024999D02*
X282331300Y-119125000D01*
D10*
X282431300Y-122365000D02*
X282231300Y-122365000D01*
D12*
X282431300Y-122525000D02*
X285131300Y-122525000D01*
D10*
X282461300Y-120125000D02*
X282461300Y-122365000D01*
D13*
X282831300Y-122225000D02*
X282831300Y-120425001D01*
D14*
X283961300Y-118725000D02*
X283961300Y-120965000D01*
D10*
X287731300Y-120825000D02*
X292731300Y-120825000D01*
D15*
X290731300Y-119025000D02*
X284031300Y-119025000D01*
D16*
X292031300Y-117825000D02*
X292031300Y-120325000D01*
D12*
X292431300Y-120525000D02*
X291031300Y-120525000D01*
D10*
X292511300Y-119825000D02*
X292511300Y-117575000D01*
D17*
X292531300Y-117425000D02*
X291131300Y-117425000D01*
D10*
X292531300Y-117575000D02*
X292731300Y-117575000D01*
D17*
X292531300Y-119925000D02*
X292531300Y-120625000D01*
D10*
X292731300Y-117225000D02*
X284331299Y-117225000D01*
X292731300Y-117575000D02*
X292731300Y-117225000D01*
X292731300Y-119825000D02*
X292531300Y-119825000D01*
X292731300Y-120825000D02*
X292731300Y-119825000D01*
X282231300Y-119125001D02*
G75*
G02*
X284331299Y-117224999I1999999J-99997D01*
G01*
D16*
X285114982Y-122303529D02*
G75*
G02*
X287331300Y-120425000I2151317J-291470D01*
G01*
D10*
X285514982Y-122703529D02*
G75*
G02*
X287731300Y-120825000I2151317J-291470D01*
G01*
X148881300Y-119125000D02*
X148881300Y-120125000D01*
X148881300Y-120125000D02*
X149081300Y-120125000D01*
X148881300Y-122725000D02*
X148881300Y-122365000D01*
X148881300Y-122725000D02*
X152161300Y-122725000D01*
D11*
X148981300Y-120024999D02*
X148981300Y-119125000D01*
D10*
X149081300Y-122365000D02*
X148881300Y-122365000D01*
D12*
X149081300Y-122525000D02*
X151781300Y-122525000D01*
D10*
X149111300Y-120125000D02*
X149111300Y-122365000D01*
D13*
X149481300Y-122225000D02*
X149481300Y-120425001D01*
D14*
X150611300Y-118725000D02*
X150611300Y-120965000D01*
D10*
X154381300Y-120825000D02*
X159381300Y-120825000D01*
D15*
X157381300Y-119025000D02*
X150681300Y-119025000D01*
D16*
X158681300Y-117825000D02*
X158681300Y-120325000D01*
D12*
X159081300Y-120525000D02*
X157681300Y-120525000D01*
D10*
X159161300Y-119825000D02*
X159161300Y-117575000D01*
D17*
X159181300Y-117425000D02*
X157781300Y-117425000D01*
D10*
X159181300Y-117575000D02*
X159381300Y-117575000D01*
D17*
X159181300Y-119925000D02*
X159181300Y-120625000D01*
D10*
X159381300Y-117225000D02*
X150981299Y-117225000D01*
X159381300Y-117575000D02*
X159381300Y-117225000D01*
X159381300Y-119825000D02*
X159181300Y-119825000D01*
X159381300Y-120825000D02*
X159381300Y-119825000D01*
X148881300Y-119125001D02*
G75*
G02*
X150981299Y-117224999I1999999J-99997D01*
G01*
D16*
X151764982Y-122303529D02*
G75*
G02*
X153981300Y-120425000I2151317J-291470D01*
G01*
D10*
X152164982Y-122703529D02*
G75*
G02*
X154381300Y-120825000I2151317J-291470D01*
G01*
X244131300Y-157225000D02*
X244131300Y-158225000D01*
X244131300Y-158225000D02*
X244331300Y-158225000D01*
X244131300Y-160825000D02*
X244131300Y-160465000D01*
X244131300Y-160825000D02*
X247411300Y-160825000D01*
D11*
X244231300Y-158124999D02*
X244231300Y-157225000D01*
D10*
X244331300Y-160465000D02*
X244131300Y-160465000D01*
D12*
X244331300Y-160625000D02*
X247031300Y-160625000D01*
D10*
X244361300Y-158225000D02*
X244361300Y-160465000D01*
D13*
X244731300Y-160325000D02*
X244731300Y-158525001D01*
D14*
X245861300Y-156825000D02*
X245861300Y-159065000D01*
D10*
X249631300Y-158925000D02*
X254631300Y-158925000D01*
D15*
X252631300Y-157125000D02*
X245931300Y-157125000D01*
D16*
X253931300Y-155925000D02*
X253931300Y-158425000D01*
D12*
X254331300Y-158625000D02*
X252931300Y-158625000D01*
D10*
X254411300Y-157925000D02*
X254411300Y-155675000D01*
D17*
X254431300Y-155525000D02*
X253031300Y-155525000D01*
D10*
X254431300Y-155675000D02*
X254631300Y-155675000D01*
D17*
X254431300Y-158025000D02*
X254431300Y-158725000D01*
D10*
X254631300Y-155325000D02*
X246231299Y-155325000D01*
X254631300Y-155675000D02*
X254631300Y-155325000D01*
X254631300Y-157925000D02*
X254431300Y-157925000D01*
X254631300Y-158925000D02*
X254631300Y-157925000D01*
X244131300Y-157225001D02*
G75*
G02*
X246231299Y-155324999I1999999J-99997D01*
G01*
D16*
X247014982Y-160403529D02*
G75*
G02*
X249231300Y-158525000I2151317J-291470D01*
G01*
D10*
X247414982Y-160803529D02*
G75*
G02*
X249631300Y-158925000I2151317J-291470D01*
G01*
X319447300Y-152342500D02*
X319447300Y-160967500D01*
X321401300Y-163242500D02*
X325346300Y-163242500D01*
X323355300Y-152342500D02*
X319447300Y-152342500D01*
X323401300Y-152342500D02*
X323447300Y-157392500D01*
X325355300Y-163242500D02*
X325355300Y-159632500D01*
X321331300Y-163231500D02*
G75*
G02*
X319447300Y-160967500I190000J2074000D01*
G01*
X325331300Y-159627500D02*
G75*
G02*
X323451300Y-157367500I190000J2070000D01*
G01*
X323461300Y-157942500D02*
X323551300Y-158282500D01*
X323741300Y-158642500D01*
X324041300Y-159052500D01*
X324611300Y-159432500D01*
X324961300Y-159582500D01*
X325361300Y-159642500D01*
X325371300Y-163242500D01*
X322011300Y-163252500D01*
X321221300Y-163232500D01*
X320581300Y-163002500D01*
X320111300Y-162682500D01*
X319781300Y-162292500D01*
X319551300Y-161842500D01*
X319451300Y-161162500D01*
X319451300Y-152342500D01*
X323401300Y-152342500D01*
X323461300Y-157942500D01*
G36*
X323461300Y-157942500D02*
G01*
X323551300Y-158282500D01*
X323741300Y-158642500D01*
X324041300Y-159052500D01*
X324611300Y-159432500D01*
X324961300Y-159582500D01*
X325361300Y-159642500D01*
X325371300Y-163242500D01*
X322011300Y-163252500D01*
X321221300Y-163232500D01*
X320581300Y-163002500D01*
X320111300Y-162682500D01*
X319781300Y-162292500D01*
X319551300Y-161842500D01*
X319451300Y-161162500D01*
X319451300Y-152342500D01*
X323401300Y-152342500D01*
X323461300Y-157942500D01*
G37*
X282231300Y-138175000D02*
X282231300Y-139175000D01*
X282231300Y-139175000D02*
X282431300Y-139175000D01*
X282231300Y-141775000D02*
X282231300Y-141415000D01*
X282231300Y-141775000D02*
X285511300Y-141775000D01*
D11*
X282331300Y-139074999D02*
X282331300Y-138175000D01*
D10*
X282431300Y-141415000D02*
X282231300Y-141415000D01*
D12*
X282431300Y-141575000D02*
X285131300Y-141575000D01*
D10*
X282461300Y-139175000D02*
X282461300Y-141415000D01*
D13*
X282831300Y-141275000D02*
X282831300Y-139475001D01*
D14*
X283961300Y-137775000D02*
X283961300Y-140015000D01*
D10*
X287731300Y-139875000D02*
X292731300Y-139875000D01*
D15*
X290731300Y-138075000D02*
X284031300Y-138075000D01*
D16*
X292031300Y-136875000D02*
X292031300Y-139375000D01*
D12*
X292431300Y-139575000D02*
X291031300Y-139575000D01*
D10*
X292511300Y-138875000D02*
X292511300Y-136625000D01*
D17*
X292531300Y-136475000D02*
X291131300Y-136475000D01*
D10*
X292531300Y-136625000D02*
X292731300Y-136625000D01*
D17*
X292531300Y-138975000D02*
X292531300Y-139675000D01*
D10*
X292731300Y-136275000D02*
X284331299Y-136275000D01*
X292731300Y-136625000D02*
X292731300Y-136275000D01*
X292731300Y-138875000D02*
X292531300Y-138875000D01*
X292731300Y-139875000D02*
X292731300Y-138875000D01*
X282231300Y-138175001D02*
G75*
G02*
X284331299Y-136274999I1999999J-99997D01*
G01*
D16*
X285114982Y-141353529D02*
G75*
G02*
X287331300Y-139475000I2151317J-291470D01*
G01*
D10*
X285514982Y-141753529D02*
G75*
G02*
X287731300Y-139875000I2151317J-291470D01*
G01*
X301281300Y-119125000D02*
X301281300Y-120125000D01*
X301281300Y-120125000D02*
X301481300Y-120125000D01*
X301281300Y-122725000D02*
X301281300Y-122365000D01*
X301281300Y-122725000D02*
X304561300Y-122725000D01*
D11*
X301381300Y-120024999D02*
X301381300Y-119125000D01*
D10*
X301481300Y-122365000D02*
X301281300Y-122365000D01*
D12*
X301481300Y-122525000D02*
X304181300Y-122525000D01*
D10*
X301511300Y-120125000D02*
X301511300Y-122365000D01*
D13*
X301881300Y-122225000D02*
X301881300Y-120425001D01*
D14*
X303011300Y-118725000D02*
X303011300Y-120965000D01*
D10*
X306781300Y-120825000D02*
X311781300Y-120825000D01*
D15*
X309781300Y-119025000D02*
X303081300Y-119025000D01*
D16*
X311081300Y-117825000D02*
X311081300Y-120325000D01*
D12*
X311481300Y-120525000D02*
X310081300Y-120525000D01*
D10*
X311561300Y-119825000D02*
X311561300Y-117575000D01*
D17*
X311581300Y-117425000D02*
X310181300Y-117425000D01*
D10*
X311581300Y-117575000D02*
X311781300Y-117575000D01*
D17*
X311581300Y-119925000D02*
X311581300Y-120625000D01*
D10*
X311781300Y-117225000D02*
X303381299Y-117225000D01*
X311781300Y-117575000D02*
X311781300Y-117225000D01*
X311781300Y-119825000D02*
X311581300Y-119825000D01*
X311781300Y-120825000D02*
X311781300Y-119825000D01*
X301281300Y-119125001D02*
G75*
G02*
X303381299Y-117224999I1999999J-99997D01*
G01*
D16*
X304164982Y-122303529D02*
G75*
G02*
X306381300Y-120425000I2151317J-291470D01*
G01*
D10*
X304564982Y-122703529D02*
G75*
G02*
X306781300Y-120825000I2151317J-291470D01*
G01*
X320331300Y-123887500D02*
X320331300Y-124887500D01*
X320331300Y-124887500D02*
X320531300Y-124887500D01*
X320331300Y-127487500D02*
X320331300Y-127127500D01*
X320331300Y-127487500D02*
X323611300Y-127487500D01*
D11*
X320431300Y-124787499D02*
X320431300Y-123887500D01*
D10*
X320531300Y-127127500D02*
X320331300Y-127127500D01*
D12*
X320531300Y-127287500D02*
X323231300Y-127287500D01*
D10*
X320561300Y-124887500D02*
X320561300Y-127127500D01*
D13*
X320931300Y-126987500D02*
X320931300Y-125187501D01*
D14*
X322061300Y-123487500D02*
X322061300Y-125727500D01*
D10*
X325831300Y-125587500D02*
X330831300Y-125587500D01*
D15*
X328831300Y-123787500D02*
X322131300Y-123787500D01*
D16*
X330131300Y-122587500D02*
X330131300Y-125087500D01*
D12*
X330531300Y-125287500D02*
X329131300Y-125287500D01*
D10*
X330611300Y-124587500D02*
X330611300Y-122337500D01*
D17*
X330631300Y-122187500D02*
X329231300Y-122187500D01*
D10*
X330631300Y-122337500D02*
X330831300Y-122337500D01*
D17*
X330631300Y-124687500D02*
X330631300Y-125387500D01*
D10*
X330831300Y-121987500D02*
X322431299Y-121987500D01*
X330831300Y-122337500D02*
X330831300Y-121987500D01*
X330831300Y-124587500D02*
X330631300Y-124587500D01*
X330831300Y-125587500D02*
X330831300Y-124587500D01*
X320331300Y-123887501D02*
G75*
G02*
X322431299Y-121987499I1999999J-99997D01*
G01*
D16*
X323214982Y-127066029D02*
G75*
G02*
X325431300Y-125187500I2151317J-291470D01*
G01*
D10*
X323614982Y-127466029D02*
G75*
G02*
X325831300Y-125587500I2151317J-291470D01*
G01*
X72681300Y-161987500D02*
X72681300Y-162987500D01*
X72681300Y-162987500D02*
X72881300Y-162987500D01*
X72681300Y-165587500D02*
X72681300Y-165227500D01*
X72681300Y-165587500D02*
X75961300Y-165587500D01*
D11*
X72781300Y-162887499D02*
X72781300Y-161987500D01*
D10*
X72881300Y-165227500D02*
X72681300Y-165227500D01*
D12*
X72881300Y-165387500D02*
X75581300Y-165387500D01*
D10*
X72911300Y-162987500D02*
X72911300Y-165227500D01*
D13*
X73281300Y-165087500D02*
X73281300Y-163287501D01*
D14*
X74411300Y-161587500D02*
X74411300Y-163827500D01*
D10*
X78181300Y-163687500D02*
X83181300Y-163687500D01*
D15*
X81181300Y-161887500D02*
X74481300Y-161887500D01*
D16*
X82481300Y-160687500D02*
X82481300Y-163187500D01*
D12*
X82881300Y-163387500D02*
X81481300Y-163387500D01*
D10*
X82961300Y-162687500D02*
X82961300Y-160437500D01*
D17*
X82981300Y-160287500D02*
X81581300Y-160287500D01*
D10*
X82981300Y-160437500D02*
X83181300Y-160437500D01*
D17*
X82981300Y-162787500D02*
X82981300Y-163487500D01*
D10*
X83181300Y-160087500D02*
X74781299Y-160087500D01*
X83181300Y-160437500D02*
X83181300Y-160087500D01*
X83181300Y-162687500D02*
X82981300Y-162687500D01*
X83181300Y-163687500D02*
X83181300Y-162687500D01*
X72681300Y-161987501D02*
G75*
G02*
X74781299Y-160087499I1999999J-99997D01*
G01*
D16*
X75564982Y-165166029D02*
G75*
G02*
X77781300Y-163287500I2151317J-291470D01*
G01*
D10*
X75964982Y-165566029D02*
G75*
G02*
X78181300Y-163687500I2151317J-291470D01*
G01*
X72681300Y-142937500D02*
X72681300Y-143937500D01*
X72681300Y-143937500D02*
X72881300Y-143937500D01*
X72681300Y-146537500D02*
X72681300Y-146177500D01*
X72681300Y-146537500D02*
X75961300Y-146537500D01*
D11*
X72781300Y-143837499D02*
X72781300Y-142937500D01*
D10*
X72881300Y-146177500D02*
X72681300Y-146177500D01*
D12*
X72881300Y-146337500D02*
X75581300Y-146337500D01*
D10*
X72911300Y-143937500D02*
X72911300Y-146177500D01*
D13*
X73281300Y-146037500D02*
X73281300Y-144237501D01*
D14*
X74411300Y-142537500D02*
X74411300Y-144777500D01*
D10*
X78181300Y-144637500D02*
X83181300Y-144637500D01*
D15*
X81181300Y-142837500D02*
X74481300Y-142837500D01*
D16*
X82481300Y-141637500D02*
X82481300Y-144137500D01*
D12*
X82881300Y-144337500D02*
X81481300Y-144337500D01*
D10*
X82961300Y-143637500D02*
X82961300Y-141387500D01*
D17*
X82981300Y-141237500D02*
X81581300Y-141237500D01*
D10*
X82981300Y-141387500D02*
X83181300Y-141387500D01*
D17*
X82981300Y-143737500D02*
X82981300Y-144437500D01*
D10*
X83181300Y-141037500D02*
X74781299Y-141037500D01*
X83181300Y-141387500D02*
X83181300Y-141037500D01*
X83181300Y-143637500D02*
X82981300Y-143637500D01*
X83181300Y-144637500D02*
X83181300Y-143637500D01*
X72681300Y-142937501D02*
G75*
G02*
X74781299Y-141037499I1999999J-99997D01*
G01*
D16*
X75564982Y-146116029D02*
G75*
G02*
X77781300Y-144237500I2151317J-291470D01*
G01*
D10*
X75964982Y-146516029D02*
G75*
G02*
X78181300Y-144637500I2151317J-291470D01*
G01*
X167931300Y-181037500D02*
X167931300Y-182037500D01*
X167931300Y-182037500D02*
X168131300Y-182037500D01*
X167931300Y-184637500D02*
X167931300Y-184277500D01*
X167931300Y-184637500D02*
X171211300Y-184637500D01*
D11*
X168031300Y-181937499D02*
X168031300Y-181037500D01*
D10*
X168131300Y-184277500D02*
X167931300Y-184277500D01*
D12*
X168131300Y-184437500D02*
X170831300Y-184437500D01*
D10*
X168161300Y-182037500D02*
X168161300Y-184277500D01*
D13*
X168531300Y-184137500D02*
X168531300Y-182337501D01*
D14*
X169661300Y-180637500D02*
X169661300Y-182877500D01*
D10*
X173431300Y-182737500D02*
X178431300Y-182737500D01*
D15*
X176431300Y-180937500D02*
X169731300Y-180937500D01*
D16*
X177731300Y-179737500D02*
X177731300Y-182237500D01*
D12*
X178131300Y-182437500D02*
X176731300Y-182437500D01*
D10*
X178211300Y-181737500D02*
X178211300Y-179487500D01*
D17*
X178231300Y-179337500D02*
X176831300Y-179337500D01*
D10*
X178231300Y-179487500D02*
X178431300Y-179487500D01*
D17*
X178231300Y-181837500D02*
X178231300Y-182537500D01*
D10*
X178431300Y-179137500D02*
X170031299Y-179137500D01*
X178431300Y-179487500D02*
X178431300Y-179137500D01*
X178431300Y-181737500D02*
X178231300Y-181737500D01*
X178431300Y-182737500D02*
X178431300Y-181737500D01*
X167931300Y-181037501D02*
G75*
G02*
X170031299Y-179137499I1999999J-99997D01*
G01*
D16*
X170814982Y-184216029D02*
G75*
G02*
X173031300Y-182337500I2151317J-291470D01*
G01*
D10*
X171214982Y-184616029D02*
G75*
G02*
X173431300Y-182737500I2151317J-291470D01*
G01*
X110781300Y-119125000D02*
X110781300Y-120125000D01*
X110781300Y-120125000D02*
X110981300Y-120125000D01*
X110781300Y-122725000D02*
X110781300Y-122365000D01*
X110781300Y-122725000D02*
X114061300Y-122725000D01*
D11*
X110881300Y-120024999D02*
X110881300Y-119125000D01*
D10*
X110981300Y-122365000D02*
X110781300Y-122365000D01*
D12*
X110981300Y-122525000D02*
X113681300Y-122525000D01*
D10*
X111011300Y-120125000D02*
X111011300Y-122365000D01*
D13*
X111381300Y-122225000D02*
X111381300Y-120425001D01*
D14*
X112511300Y-118725000D02*
X112511300Y-120965000D01*
D10*
X116281300Y-120825000D02*
X121281300Y-120825000D01*
D15*
X119281300Y-119025000D02*
X112581300Y-119025000D01*
D16*
X120581300Y-117825000D02*
X120581300Y-120325000D01*
D12*
X120981300Y-120525000D02*
X119581300Y-120525000D01*
D10*
X121061300Y-119825000D02*
X121061300Y-117575000D01*
D17*
X121081300Y-117425000D02*
X119681300Y-117425000D01*
D10*
X121081300Y-117575000D02*
X121281300Y-117575000D01*
D17*
X121081300Y-119925000D02*
X121081300Y-120625000D01*
D10*
X121281300Y-117225000D02*
X112881299Y-117225000D01*
X121281300Y-117575000D02*
X121281300Y-117225000D01*
X121281300Y-119825000D02*
X121081300Y-119825000D01*
X121281300Y-120825000D02*
X121281300Y-119825000D01*
X110781300Y-119125001D02*
G75*
G02*
X112881299Y-117224999I1999999J-99997D01*
G01*
D16*
X113664982Y-122303529D02*
G75*
G02*
X115881300Y-120425000I2151317J-291470D01*
G01*
D10*
X114064982Y-122703529D02*
G75*
G02*
X116281300Y-120825000I2151317J-291470D01*
G01*
X244131300Y-119125000D02*
X244131300Y-120125000D01*
X244131300Y-120125000D02*
X244331300Y-120125000D01*
X244131300Y-122725000D02*
X244131300Y-122365000D01*
X244131300Y-122725000D02*
X247411300Y-122725000D01*
D11*
X244231300Y-120024999D02*
X244231300Y-119125000D01*
D10*
X244331300Y-122365000D02*
X244131300Y-122365000D01*
D12*
X244331300Y-122525000D02*
X247031300Y-122525000D01*
D10*
X244361300Y-120125000D02*
X244361300Y-122365000D01*
D13*
X244731300Y-122225000D02*
X244731300Y-120425001D01*
D14*
X245861300Y-118725000D02*
X245861300Y-120965000D01*
D10*
X249631300Y-120825000D02*
X254631300Y-120825000D01*
D15*
X252631300Y-119025000D02*
X245931300Y-119025000D01*
D16*
X253931300Y-117825000D02*
X253931300Y-120325000D01*
D12*
X254331300Y-120525000D02*
X252931300Y-120525000D01*
D10*
X254411300Y-119825000D02*
X254411300Y-117575000D01*
D17*
X254431300Y-117425000D02*
X253031300Y-117425000D01*
D10*
X254431300Y-117575000D02*
X254631300Y-117575000D01*
D17*
X254431300Y-119925000D02*
X254431300Y-120625000D01*
D10*
X254631300Y-117225000D02*
X246231299Y-117225000D01*
X254631300Y-117575000D02*
X254631300Y-117225000D01*
X254631300Y-119825000D02*
X254431300Y-119825000D01*
X254631300Y-120825000D02*
X254631300Y-119825000D01*
X244131300Y-119125001D02*
G75*
G02*
X246231299Y-117224999I1999999J-99997D01*
G01*
D16*
X247014982Y-122303529D02*
G75*
G02*
X249231300Y-120425000I2151317J-291470D01*
G01*
D10*
X247414982Y-122703529D02*
G75*
G02*
X249631300Y-120825000I2151317J-291470D01*
G01*
X91731300Y-157225000D02*
X91731300Y-158225000D01*
X91731300Y-158225000D02*
X91931300Y-158225000D01*
X91731300Y-160825000D02*
X91731300Y-160465000D01*
X91731300Y-160825000D02*
X95011300Y-160825000D01*
D11*
X91831300Y-158124999D02*
X91831300Y-157225000D01*
D10*
X91931300Y-160465000D02*
X91731300Y-160465000D01*
D12*
X91931300Y-160625000D02*
X94631300Y-160625000D01*
D10*
X91961300Y-158225000D02*
X91961300Y-160465000D01*
D13*
X92331300Y-160325000D02*
X92331300Y-158525001D01*
D14*
X93461300Y-156825000D02*
X93461300Y-159065000D01*
D10*
X97231300Y-158925000D02*
X102231300Y-158925000D01*
D15*
X100231300Y-157125000D02*
X93531300Y-157125000D01*
D16*
X101531300Y-155925000D02*
X101531300Y-158425000D01*
D12*
X101931300Y-158625000D02*
X100531300Y-158625000D01*
D10*
X102011300Y-157925000D02*
X102011300Y-155675000D01*
D17*
X102031300Y-155525000D02*
X100631300Y-155525000D01*
D10*
X102031300Y-155675000D02*
X102231300Y-155675000D01*
D17*
X102031300Y-158025000D02*
X102031300Y-158725000D01*
D10*
X102231300Y-155325000D02*
X93831299Y-155325000D01*
X102231300Y-155675000D02*
X102231300Y-155325000D01*
X102231300Y-157925000D02*
X102031300Y-157925000D01*
X102231300Y-158925000D02*
X102231300Y-157925000D01*
X91731300Y-157225001D02*
G75*
G02*
X93831299Y-155324999I1999999J-99997D01*
G01*
D16*
X94614982Y-160403529D02*
G75*
G02*
X96831300Y-158525000I2151317J-291470D01*
G01*
D10*
X95014982Y-160803529D02*
G75*
G02*
X97231300Y-158925000I2151317J-291470D01*
G01*
X225081300Y-161987500D02*
X225081300Y-162987500D01*
X225081300Y-162987500D02*
X225281300Y-162987500D01*
X225081300Y-165587500D02*
X225081300Y-165227500D01*
X225081300Y-165587500D02*
X228361300Y-165587500D01*
D11*
X225181300Y-162887499D02*
X225181300Y-161987500D01*
D10*
X225281300Y-165227500D02*
X225081300Y-165227500D01*
D12*
X225281300Y-165387500D02*
X227981300Y-165387500D01*
D10*
X225311300Y-162987500D02*
X225311300Y-165227500D01*
D13*
X225681300Y-165087500D02*
X225681300Y-163287501D01*
D14*
X226811300Y-161587500D02*
X226811300Y-163827500D01*
D10*
X230581300Y-163687500D02*
X235581300Y-163687500D01*
D15*
X233581300Y-161887500D02*
X226881300Y-161887500D01*
D16*
X234881300Y-160687500D02*
X234881300Y-163187500D01*
D12*
X235281300Y-163387500D02*
X233881300Y-163387500D01*
D10*
X235361300Y-162687500D02*
X235361300Y-160437500D01*
D17*
X235381300Y-160287500D02*
X233981300Y-160287500D01*
D10*
X235381300Y-160437500D02*
X235581300Y-160437500D01*
D17*
X235381300Y-162787500D02*
X235381300Y-163487500D01*
D10*
X235581300Y-160087500D02*
X227181299Y-160087500D01*
X235581300Y-160437500D02*
X235581300Y-160087500D01*
X235581300Y-162687500D02*
X235381300Y-162687500D01*
X235581300Y-163687500D02*
X235581300Y-162687500D01*
X225081300Y-161987501D02*
G75*
G02*
X227181299Y-160087499I1999999J-99997D01*
G01*
D16*
X227964982Y-165166029D02*
G75*
G02*
X230181300Y-163287500I2151317J-291470D01*
G01*
D10*
X228364982Y-165566029D02*
G75*
G02*
X230581300Y-163687500I2151317J-291470D01*
G01*
X301281300Y-138175000D02*
X301281300Y-139175000D01*
X301281300Y-139175000D02*
X301481300Y-139175000D01*
X301281300Y-141775000D02*
X301281300Y-141415000D01*
X301281300Y-141775000D02*
X304561300Y-141775000D01*
D11*
X301381300Y-139074999D02*
X301381300Y-138175000D01*
D10*
X301481300Y-141415000D02*
X301281300Y-141415000D01*
D12*
X301481300Y-141575000D02*
X304181300Y-141575000D01*
D10*
X301511300Y-139175000D02*
X301511300Y-141415000D01*
D13*
X301881300Y-141275000D02*
X301881300Y-139475001D01*
D14*
X303011300Y-137775000D02*
X303011300Y-140015000D01*
D10*
X306781300Y-139875000D02*
X311781300Y-139875000D01*
D15*
X309781300Y-138075000D02*
X303081300Y-138075000D01*
D16*
X311081300Y-136875000D02*
X311081300Y-139375000D01*
D12*
X311481300Y-139575000D02*
X310081300Y-139575000D01*
D10*
X311561300Y-138875000D02*
X311561300Y-136625000D01*
D17*
X311581300Y-136475000D02*
X310181300Y-136475000D01*
D10*
X311581300Y-136625000D02*
X311781300Y-136625000D01*
D17*
X311581300Y-138975000D02*
X311581300Y-139675000D01*
D10*
X311781300Y-136275000D02*
X303381299Y-136275000D01*
X311781300Y-136625000D02*
X311781300Y-136275000D01*
X311781300Y-138875000D02*
X311581300Y-138875000D01*
X311781300Y-139875000D02*
X311781300Y-138875000D01*
X301281300Y-138175001D02*
G75*
G02*
X303381299Y-136274999I1999999J-99997D01*
G01*
D16*
X304164982Y-141353529D02*
G75*
G02*
X306381300Y-139475000I2151317J-291470D01*
G01*
D10*
X304564982Y-141753529D02*
G75*
G02*
X306781300Y-139875000I2151317J-291470D01*
G01*
X129831300Y-138175000D02*
X129831300Y-139175000D01*
X129831300Y-139175000D02*
X130031300Y-139175000D01*
X129831300Y-141775000D02*
X129831300Y-141415000D01*
X129831300Y-141775000D02*
X133111300Y-141775000D01*
D11*
X129931300Y-139074999D02*
X129931300Y-138175000D01*
D10*
X130031300Y-141415000D02*
X129831300Y-141415000D01*
D12*
X130031300Y-141575000D02*
X132731300Y-141575000D01*
D10*
X130061300Y-139175000D02*
X130061300Y-141415000D01*
D13*
X130431300Y-141275000D02*
X130431300Y-139475001D01*
D14*
X131561300Y-137775000D02*
X131561300Y-140015000D01*
D10*
X135331300Y-139875000D02*
X140331300Y-139875000D01*
D15*
X138331300Y-138075000D02*
X131631300Y-138075000D01*
D16*
X139631300Y-136875000D02*
X139631300Y-139375000D01*
D12*
X140031300Y-139575000D02*
X138631300Y-139575000D01*
D10*
X140111300Y-138875000D02*
X140111300Y-136625000D01*
D17*
X140131300Y-136475000D02*
X138731300Y-136475000D01*
D10*
X140131300Y-136625000D02*
X140331300Y-136625000D01*
D17*
X140131300Y-138975000D02*
X140131300Y-139675000D01*
D10*
X140331300Y-136275000D02*
X131931299Y-136275000D01*
X140331300Y-136625000D02*
X140331300Y-136275000D01*
X140331300Y-138875000D02*
X140131300Y-138875000D01*
X140331300Y-139875000D02*
X140331300Y-138875000D01*
X129831300Y-138175001D02*
G75*
G02*
X131931299Y-136274999I1999999J-99997D01*
G01*
D16*
X132714982Y-141353529D02*
G75*
G02*
X134931300Y-139475000I2151317J-291470D01*
G01*
D10*
X133114982Y-141753529D02*
G75*
G02*
X135331300Y-139875000I2151317J-291470D01*
G01*
X282231300Y-157225000D02*
X282231300Y-158225000D01*
X282231300Y-158225000D02*
X282431300Y-158225000D01*
X282231300Y-160825000D02*
X282231300Y-160465000D01*
X282231300Y-160825000D02*
X285511300Y-160825000D01*
D11*
X282331300Y-158124999D02*
X282331300Y-157225000D01*
D10*
X282431300Y-160465000D02*
X282231300Y-160465000D01*
D12*
X282431300Y-160625000D02*
X285131300Y-160625000D01*
D10*
X282461300Y-158225000D02*
X282461300Y-160465000D01*
D13*
X282831300Y-160325000D02*
X282831300Y-158525001D01*
D14*
X283961300Y-156825000D02*
X283961300Y-159065000D01*
D10*
X287731300Y-158925000D02*
X292731300Y-158925000D01*
D15*
X290731300Y-157125000D02*
X284031300Y-157125000D01*
D16*
X292031300Y-155925000D02*
X292031300Y-158425000D01*
D12*
X292431300Y-158625000D02*
X291031300Y-158625000D01*
D10*
X292511300Y-157925000D02*
X292511300Y-155675000D01*
D17*
X292531300Y-155525000D02*
X291131300Y-155525000D01*
D10*
X292531300Y-155675000D02*
X292731300Y-155675000D01*
D17*
X292531300Y-158025000D02*
X292531300Y-158725000D01*
D10*
X292731300Y-155325000D02*
X284331299Y-155325000D01*
X292731300Y-155675000D02*
X292731300Y-155325000D01*
X292731300Y-157925000D02*
X292531300Y-157925000D01*
X292731300Y-158925000D02*
X292731300Y-157925000D01*
X282231300Y-157225001D02*
G75*
G02*
X284331299Y-155324999I1999999J-99997D01*
G01*
D16*
X285114982Y-160403529D02*
G75*
G02*
X287331300Y-158525000I2151317J-291470D01*
G01*
D10*
X285514982Y-160803529D02*
G75*
G02*
X287731300Y-158925000I2151317J-291470D01*
G01*
X263181300Y-157225000D02*
X263181300Y-158225000D01*
X263181300Y-158225000D02*
X263381300Y-158225000D01*
X263181300Y-160825000D02*
X263181300Y-160465000D01*
X263181300Y-160825000D02*
X266461300Y-160825000D01*
D11*
X263281300Y-158124999D02*
X263281300Y-157225000D01*
D10*
X263381300Y-160465000D02*
X263181300Y-160465000D01*
D12*
X263381300Y-160625000D02*
X266081300Y-160625000D01*
D10*
X263411300Y-158225000D02*
X263411300Y-160465000D01*
D13*
X263781300Y-160325000D02*
X263781300Y-158525001D01*
D14*
X264911300Y-156825000D02*
X264911300Y-159065000D01*
D10*
X268681300Y-158925000D02*
X273681300Y-158925000D01*
D15*
X271681300Y-157125000D02*
X264981300Y-157125000D01*
D16*
X272981300Y-155925000D02*
X272981300Y-158425000D01*
D12*
X273381300Y-158625000D02*
X271981300Y-158625000D01*
D10*
X273461300Y-157925000D02*
X273461300Y-155675000D01*
D17*
X273481300Y-155525000D02*
X272081300Y-155525000D01*
D10*
X273481300Y-155675000D02*
X273681300Y-155675000D01*
D17*
X273481300Y-158025000D02*
X273481300Y-158725000D01*
D10*
X273681300Y-155325000D02*
X265281299Y-155325000D01*
X273681300Y-155675000D02*
X273681300Y-155325000D01*
X273681300Y-157925000D02*
X273481300Y-157925000D01*
X273681300Y-158925000D02*
X273681300Y-157925000D01*
X263181300Y-157225001D02*
G75*
G02*
X265281299Y-155324999I1999999J-99997D01*
G01*
D16*
X266064982Y-160403529D02*
G75*
G02*
X268281300Y-158525000I2151317J-291470D01*
G01*
D10*
X266464982Y-160803529D02*
G75*
G02*
X268681300Y-158925000I2151317J-291470D01*
G01*
X129831300Y-119125000D02*
X129831300Y-120125000D01*
X129831300Y-120125000D02*
X130031300Y-120125000D01*
X129831300Y-122725000D02*
X129831300Y-122365000D01*
X129831300Y-122725000D02*
X133111300Y-122725000D01*
D11*
X129931300Y-120024999D02*
X129931300Y-119125000D01*
D10*
X130031300Y-122365000D02*
X129831300Y-122365000D01*
D12*
X130031300Y-122525000D02*
X132731300Y-122525000D01*
D10*
X130061300Y-120125000D02*
X130061300Y-122365000D01*
D13*
X130431300Y-122225000D02*
X130431300Y-120425001D01*
D14*
X131561300Y-118725000D02*
X131561300Y-120965000D01*
D10*
X135331300Y-120825000D02*
X140331300Y-120825000D01*
D15*
X138331300Y-119025000D02*
X131631300Y-119025000D01*
D16*
X139631300Y-117825000D02*
X139631300Y-120325000D01*
D12*
X140031300Y-120525000D02*
X138631300Y-120525000D01*
D10*
X140111300Y-119825000D02*
X140111300Y-117575000D01*
D17*
X140131300Y-117425000D02*
X138731300Y-117425000D01*
D10*
X140131300Y-117575000D02*
X140331300Y-117575000D01*
D17*
X140131300Y-119925000D02*
X140131300Y-120625000D01*
D10*
X140331300Y-117225000D02*
X131931299Y-117225000D01*
X140331300Y-117575000D02*
X140331300Y-117225000D01*
X140331300Y-119825000D02*
X140131300Y-119825000D01*
X140331300Y-120825000D02*
X140331300Y-119825000D01*
X129831300Y-119125001D02*
G75*
G02*
X131931299Y-117224999I1999999J-99997D01*
G01*
D16*
X132714982Y-122303529D02*
G75*
G02*
X134931300Y-120425000I2151317J-291470D01*
G01*
D10*
X133114982Y-122703529D02*
G75*
G02*
X135331300Y-120825000I2151317J-291470D01*
G01*
X148881300Y-157225000D02*
X148881300Y-158225000D01*
X148881300Y-158225000D02*
X149081300Y-158225000D01*
X148881300Y-160825000D02*
X148881300Y-160465000D01*
X148881300Y-160825000D02*
X152161300Y-160825000D01*
D11*
X148981300Y-158124999D02*
X148981300Y-157225000D01*
D10*
X149081300Y-160465000D02*
X148881300Y-160465000D01*
D12*
X149081300Y-160625000D02*
X151781300Y-160625000D01*
D10*
X149111300Y-158225000D02*
X149111300Y-160465000D01*
D13*
X149481300Y-160325000D02*
X149481300Y-158525001D01*
D14*
X150611300Y-156825000D02*
X150611300Y-159065000D01*
D10*
X154381300Y-158925000D02*
X159381300Y-158925000D01*
D15*
X157381300Y-157125000D02*
X150681300Y-157125000D01*
D16*
X158681300Y-155925000D02*
X158681300Y-158425000D01*
D12*
X159081300Y-158625000D02*
X157681300Y-158625000D01*
D10*
X159161300Y-157925000D02*
X159161300Y-155675000D01*
D17*
X159181300Y-155525000D02*
X157781300Y-155525000D01*
D10*
X159181300Y-155675000D02*
X159381300Y-155675000D01*
D17*
X159181300Y-158025000D02*
X159181300Y-158725000D01*
D10*
X159381300Y-155325000D02*
X150981299Y-155325000D01*
X159381300Y-155675000D02*
X159381300Y-155325000D01*
X159381300Y-157925000D02*
X159181300Y-157925000D01*
X159381300Y-158925000D02*
X159381300Y-157925000D01*
X148881300Y-157225001D02*
G75*
G02*
X150981299Y-155324999I1999999J-99997D01*
G01*
D16*
X151764982Y-160403529D02*
G75*
G02*
X153981300Y-158525000I2151317J-291470D01*
G01*
D10*
X152164982Y-160803529D02*
G75*
G02*
X154381300Y-158925000I2151317J-291470D01*
G01*
X206031300Y-183418700D02*
X206031300Y-184418700D01*
X206031300Y-184418700D02*
X206231300Y-184418700D01*
X206031300Y-187018700D02*
X206031300Y-186658700D01*
X206031300Y-187018700D02*
X209311300Y-187018700D01*
D11*
X206131300Y-184318699D02*
X206131300Y-183418700D01*
D10*
X206231300Y-186658700D02*
X206031300Y-186658700D01*
D12*
X206231300Y-186818700D02*
X208931300Y-186818700D01*
D10*
X206261300Y-184418700D02*
X206261300Y-186658700D01*
D13*
X206631300Y-186518700D02*
X206631300Y-184718701D01*
D14*
X207761300Y-183018700D02*
X207761300Y-185258700D01*
D10*
X211531300Y-185118700D02*
X216531300Y-185118700D01*
D15*
X214531300Y-183318700D02*
X207831300Y-183318700D01*
D16*
X215831300Y-182118700D02*
X215831300Y-184618700D01*
D12*
X216231300Y-184818700D02*
X214831300Y-184818700D01*
D10*
X216311300Y-184118700D02*
X216311300Y-181868700D01*
D17*
X216331300Y-181718700D02*
X214931300Y-181718700D01*
D10*
X216331300Y-181868700D02*
X216531300Y-181868700D01*
D17*
X216331300Y-184218700D02*
X216331300Y-184918700D01*
D10*
X216531300Y-181518700D02*
X208131299Y-181518700D01*
X216531300Y-181868700D02*
X216531300Y-181518700D01*
X216531300Y-184118700D02*
X216331300Y-184118700D01*
X216531300Y-185118700D02*
X216531300Y-184118700D01*
X206031300Y-183418701D02*
G75*
G02*
X208131299Y-181518699I1999999J-99997D01*
G01*
D16*
X208914982Y-186597229D02*
G75*
G02*
X211131300Y-184718700I2151317J-291470D01*
G01*
D10*
X209314982Y-186997229D02*
G75*
G02*
X211531300Y-185118700I2151317J-291470D01*
G01*
X167931300Y-161987500D02*
X167931300Y-162987500D01*
X167931300Y-162987500D02*
X168131300Y-162987500D01*
X167931300Y-165587500D02*
X167931300Y-165227500D01*
X167931300Y-165587500D02*
X171211300Y-165587500D01*
D11*
X168031300Y-162887499D02*
X168031300Y-161987500D01*
D10*
X168131300Y-165227500D02*
X167931300Y-165227500D01*
D12*
X168131300Y-165387500D02*
X170831300Y-165387500D01*
D10*
X168161300Y-162987500D02*
X168161300Y-165227500D01*
D13*
X168531300Y-165087500D02*
X168531300Y-163287501D01*
D14*
X169661300Y-161587500D02*
X169661300Y-163827500D01*
D10*
X173431300Y-163687500D02*
X178431300Y-163687500D01*
D15*
X176431300Y-161887500D02*
X169731300Y-161887500D01*
D16*
X177731300Y-160687500D02*
X177731300Y-163187500D01*
D12*
X178131300Y-163387500D02*
X176731300Y-163387500D01*
D10*
X178211300Y-162687500D02*
X178211300Y-160437500D01*
D17*
X178231300Y-160287500D02*
X176831300Y-160287500D01*
D10*
X178231300Y-160437500D02*
X178431300Y-160437500D01*
D17*
X178231300Y-162787500D02*
X178231300Y-163487500D01*
D10*
X178431300Y-160087500D02*
X170031299Y-160087500D01*
X178431300Y-160437500D02*
X178431300Y-160087500D01*
X178431300Y-162687500D02*
X178231300Y-162687500D01*
X178431300Y-163687500D02*
X178431300Y-162687500D01*
X167931300Y-161987501D02*
G75*
G02*
X170031299Y-160087499I1999999J-99997D01*
G01*
D16*
X170814982Y-165166029D02*
G75*
G02*
X173031300Y-163287500I2151317J-291470D01*
G01*
D10*
X171214982Y-165566029D02*
G75*
G02*
X173431300Y-163687500I2151317J-291470D01*
G01*
X129831300Y-157225000D02*
X129831300Y-158225000D01*
X129831300Y-158225000D02*
X130031300Y-158225000D01*
X129831300Y-160825000D02*
X129831300Y-160465000D01*
X129831300Y-160825000D02*
X133111300Y-160825000D01*
D11*
X129931300Y-158124999D02*
X129931300Y-157225000D01*
D10*
X130031300Y-160465000D02*
X129831300Y-160465000D01*
D12*
X130031300Y-160625000D02*
X132731300Y-160625000D01*
D10*
X130061300Y-158225000D02*
X130061300Y-160465000D01*
D13*
X130431300Y-160325000D02*
X130431300Y-158525001D01*
D14*
X131561300Y-156825000D02*
X131561300Y-159065000D01*
D10*
X135331300Y-158925000D02*
X140331300Y-158925000D01*
D15*
X138331300Y-157125000D02*
X131631300Y-157125000D01*
D16*
X139631300Y-155925000D02*
X139631300Y-158425000D01*
D12*
X140031300Y-158625000D02*
X138631300Y-158625000D01*
D10*
X140111300Y-157925000D02*
X140111300Y-155675000D01*
D17*
X140131300Y-155525000D02*
X138731300Y-155525000D01*
D10*
X140131300Y-155675000D02*
X140331300Y-155675000D01*
D17*
X140131300Y-158025000D02*
X140131300Y-158725000D01*
D10*
X140331300Y-155325000D02*
X131931299Y-155325000D01*
X140331300Y-155675000D02*
X140331300Y-155325000D01*
X140331300Y-157925000D02*
X140131300Y-157925000D01*
X140331300Y-158925000D02*
X140331300Y-157925000D01*
X129831300Y-157225001D02*
G75*
G02*
X131931299Y-155324999I1999999J-99997D01*
G01*
D16*
X132714982Y-160403529D02*
G75*
G02*
X134931300Y-158525000I2151317J-291470D01*
G01*
D10*
X133114982Y-160803529D02*
G75*
G02*
X135331300Y-158925000I2151317J-291470D01*
G01*
X148881300Y-138175000D02*
X148881300Y-139175000D01*
X148881300Y-139175000D02*
X149081300Y-139175000D01*
X148881300Y-141775000D02*
X148881300Y-141415000D01*
X148881300Y-141775000D02*
X152161300Y-141775000D01*
D11*
X148981300Y-139074999D02*
X148981300Y-138175000D01*
D10*
X149081300Y-141415000D02*
X148881300Y-141415000D01*
D12*
X149081300Y-141575000D02*
X151781300Y-141575000D01*
D10*
X149111300Y-139175000D02*
X149111300Y-141415000D01*
D13*
X149481300Y-141275000D02*
X149481300Y-139475001D01*
D14*
X150611300Y-137775000D02*
X150611300Y-140015000D01*
D10*
X154381300Y-139875000D02*
X159381300Y-139875000D01*
D15*
X157381300Y-138075000D02*
X150681300Y-138075000D01*
D16*
X158681300Y-136875000D02*
X158681300Y-139375000D01*
D12*
X159081300Y-139575000D02*
X157681300Y-139575000D01*
D10*
X159161300Y-138875000D02*
X159161300Y-136625000D01*
D17*
X159181300Y-136475000D02*
X157781300Y-136475000D01*
D10*
X159181300Y-136625000D02*
X159381300Y-136625000D01*
D17*
X159181300Y-138975000D02*
X159181300Y-139675000D01*
D10*
X159381300Y-136275000D02*
X150981299Y-136275000D01*
X159381300Y-136625000D02*
X159381300Y-136275000D01*
X159381300Y-138875000D02*
X159181300Y-138875000D01*
X159381300Y-139875000D02*
X159381300Y-138875000D01*
X148881300Y-138175001D02*
G75*
G02*
X150981299Y-136274999I1999999J-99997D01*
G01*
D16*
X151764982Y-141353529D02*
G75*
G02*
X153981300Y-139475000I2151317J-291470D01*
G01*
D10*
X152164982Y-141753529D02*
G75*
G02*
X154381300Y-139875000I2151317J-291470D01*
G01*
X263181300Y-119125000D02*
X263181300Y-120125000D01*
X263181300Y-120125000D02*
X263381300Y-120125000D01*
X263181300Y-122725000D02*
X263181300Y-122365000D01*
X263181300Y-122725000D02*
X266461300Y-122725000D01*
D11*
X263281300Y-120024999D02*
X263281300Y-119125000D01*
D10*
X263381300Y-122365000D02*
X263181300Y-122365000D01*
D12*
X263381300Y-122525000D02*
X266081300Y-122525000D01*
D10*
X263411300Y-120125000D02*
X263411300Y-122365000D01*
D13*
X263781300Y-122225000D02*
X263781300Y-120425001D01*
D14*
X264911300Y-118725000D02*
X264911300Y-120965000D01*
D10*
X268681300Y-120825000D02*
X273681300Y-120825000D01*
D15*
X271681300Y-119025000D02*
X264981300Y-119025000D01*
D16*
X272981300Y-117825000D02*
X272981300Y-120325000D01*
D12*
X273381300Y-120525000D02*
X271981300Y-120525000D01*
D10*
X273461300Y-119825000D02*
X273461300Y-117575000D01*
D17*
X273481300Y-117425000D02*
X272081300Y-117425000D01*
D10*
X273481300Y-117575000D02*
X273681300Y-117575000D01*
D17*
X273481300Y-119925000D02*
X273481300Y-120625000D01*
D10*
X273681300Y-117225000D02*
X265281299Y-117225000D01*
X273681300Y-117575000D02*
X273681300Y-117225000D01*
X273681300Y-119825000D02*
X273481300Y-119825000D01*
X273681300Y-120825000D02*
X273681300Y-119825000D01*
X263181300Y-119125001D02*
G75*
G02*
X265281299Y-117224999I1999999J-99997D01*
G01*
D16*
X266064982Y-122303529D02*
G75*
G02*
X268281300Y-120425000I2151317J-291470D01*
G01*
D10*
X266464982Y-122703529D02*
G75*
G02*
X268681300Y-120825000I2151317J-291470D01*
G01*
X91731300Y-138175000D02*
X91731300Y-139175000D01*
X91731300Y-139175000D02*
X91931300Y-139175000D01*
X91731300Y-141775000D02*
X91731300Y-141415000D01*
X91731300Y-141775000D02*
X95011300Y-141775000D01*
D11*
X91831300Y-139074999D02*
X91831300Y-138175000D01*
D10*
X91931300Y-141415000D02*
X91731300Y-141415000D01*
D12*
X91931300Y-141575000D02*
X94631300Y-141575000D01*
D10*
X91961300Y-139175000D02*
X91961300Y-141415000D01*
D13*
X92331300Y-141275000D02*
X92331300Y-139475001D01*
D14*
X93461300Y-137775000D02*
X93461300Y-140015000D01*
D10*
X97231300Y-139875000D02*
X102231300Y-139875000D01*
D15*
X100231300Y-138075000D02*
X93531300Y-138075000D01*
D16*
X101531300Y-136875000D02*
X101531300Y-139375000D01*
D12*
X101931300Y-139575000D02*
X100531300Y-139575000D01*
D10*
X102011300Y-138875000D02*
X102011300Y-136625000D01*
D17*
X102031300Y-136475000D02*
X100631300Y-136475000D01*
D10*
X102031300Y-136625000D02*
X102231300Y-136625000D01*
D17*
X102031300Y-138975000D02*
X102031300Y-139675000D01*
D10*
X102231300Y-136275000D02*
X93831299Y-136275000D01*
X102231300Y-136625000D02*
X102231300Y-136275000D01*
X102231300Y-138875000D02*
X102031300Y-138875000D01*
X102231300Y-139875000D02*
X102231300Y-138875000D01*
X91731300Y-138175001D02*
G75*
G02*
X93831299Y-136274999I1999999J-99997D01*
G01*
D16*
X94614982Y-141353529D02*
G75*
G02*
X96831300Y-139475000I2151317J-291470D01*
G01*
D10*
X95014982Y-141753529D02*
G75*
G02*
X97231300Y-139875000I2151317J-291470D01*
G01*
X244131300Y-176275000D02*
X244131300Y-177275000D01*
X244131300Y-177275000D02*
X244331300Y-177275000D01*
X244131300Y-179875000D02*
X244131300Y-179515000D01*
X244131300Y-179875000D02*
X247411300Y-179875000D01*
D11*
X244231300Y-177174999D02*
X244231300Y-176275000D01*
D10*
X244331300Y-179515000D02*
X244131300Y-179515000D01*
D12*
X244331300Y-179675000D02*
X247031300Y-179675000D01*
D10*
X244361300Y-177275000D02*
X244361300Y-179515000D01*
D13*
X244731300Y-179375000D02*
X244731300Y-177575001D01*
D14*
X245861300Y-175875000D02*
X245861300Y-178115000D01*
D10*
X249631300Y-177975000D02*
X254631300Y-177975000D01*
D15*
X252631300Y-176175000D02*
X245931300Y-176175000D01*
D16*
X253931300Y-174975000D02*
X253931300Y-177475000D01*
D12*
X254331300Y-177675000D02*
X252931300Y-177675000D01*
D10*
X254411300Y-176975000D02*
X254411300Y-174725000D01*
D17*
X254431300Y-174575000D02*
X253031300Y-174575000D01*
D10*
X254431300Y-174725000D02*
X254631300Y-174725000D01*
D17*
X254431300Y-177075000D02*
X254431300Y-177775000D01*
D10*
X254631300Y-174375000D02*
X246231299Y-174375000D01*
X254631300Y-174725000D02*
X254631300Y-174375000D01*
X254631300Y-176975000D02*
X254431300Y-176975000D01*
X254631300Y-177975000D02*
X254631300Y-176975000D01*
X244131300Y-176275001D02*
G75*
G02*
X246231299Y-174374999I1999999J-99997D01*
G01*
D16*
X247014982Y-179453529D02*
G75*
G02*
X249231300Y-177575000I2151317J-291470D01*
G01*
D10*
X247414982Y-179853529D02*
G75*
G02*
X249631300Y-177975000I2151317J-291470D01*
G01*
X110781300Y-138175000D02*
X110781300Y-139175000D01*
X110781300Y-139175000D02*
X110981300Y-139175000D01*
X110781300Y-141775000D02*
X110781300Y-141415000D01*
X110781300Y-141775000D02*
X114061300Y-141775000D01*
D11*
X110881300Y-139074999D02*
X110881300Y-138175000D01*
D10*
X110981300Y-141415000D02*
X110781300Y-141415000D01*
D12*
X110981300Y-141575000D02*
X113681300Y-141575000D01*
D10*
X111011300Y-139175000D02*
X111011300Y-141415000D01*
D13*
X111381300Y-141275000D02*
X111381300Y-139475001D01*
D14*
X112511300Y-137775000D02*
X112511300Y-140015000D01*
D10*
X116281300Y-139875000D02*
X121281300Y-139875000D01*
D15*
X119281300Y-138075000D02*
X112581300Y-138075000D01*
D16*
X120581300Y-136875000D02*
X120581300Y-139375000D01*
D12*
X120981300Y-139575000D02*
X119581300Y-139575000D01*
D10*
X121061300Y-138875000D02*
X121061300Y-136625000D01*
D17*
X121081300Y-136475000D02*
X119681300Y-136475000D01*
D10*
X121081300Y-136625000D02*
X121281300Y-136625000D01*
D17*
X121081300Y-138975000D02*
X121081300Y-139675000D01*
D10*
X121281300Y-136275000D02*
X112881299Y-136275000D01*
X121281300Y-136625000D02*
X121281300Y-136275000D01*
X121281300Y-138875000D02*
X121081300Y-138875000D01*
X121281300Y-139875000D02*
X121281300Y-138875000D01*
X110781300Y-138175001D02*
G75*
G02*
X112881299Y-136274999I1999999J-99997D01*
G01*
D16*
X113664982Y-141353529D02*
G75*
G02*
X115881300Y-139475000I2151317J-291470D01*
G01*
D10*
X114064982Y-141753529D02*
G75*
G02*
X116281300Y-139875000I2151317J-291470D01*
G01*
D18*
X293846800Y-152400000D03*
D19*
X293846800Y-144780000D03*
D18*
X161925000Y-186560000D03*
D19*
X161925000Y-178940000D03*
D18*
X236696800Y-138112500D03*
D19*
X236696800Y-130492500D03*
D18*
X103346800Y-171450000D03*
D19*
X103346800Y-163830000D03*
D18*
X179546800Y-138112500D03*
D19*
X179546800Y-130492500D03*
D18*
X141446800Y-171450000D03*
D19*
X141446800Y-163830000D03*
D18*
X103346800Y-133350000D03*
D19*
X103346800Y-125730000D03*
D18*
X122396800Y-152400000D03*
D19*
X122396800Y-144780000D03*
D18*
X200025000Y-197643700D03*
D19*
X200025000Y-190023700D03*
D18*
X84296800Y-157162500D03*
D19*
X84296800Y-149542500D03*
D18*
X122396800Y-133350000D03*
D19*
X122396800Y-125730000D03*
D18*
X122396800Y-171450000D03*
D19*
X122396800Y-163830000D03*
D18*
X219075000Y-197643700D03*
D19*
X219075000Y-190023700D03*
D18*
X255746800Y-171450000D03*
D19*
X255746800Y-163830000D03*
D18*
X84296800Y-176212500D03*
D19*
X84296800Y-168592500D03*
D18*
X179546800Y-176212500D03*
D19*
X179546800Y-168592500D03*
D18*
X160496800Y-152400000D03*
D19*
X160496800Y-144780000D03*
D18*
X293846800Y-171450000D03*
D19*
X293846800Y-163830000D03*
D18*
X312896800Y-152400000D03*
D19*
X312896800Y-144780000D03*
D18*
X141446800Y-152400000D03*
D19*
X141446800Y-144780000D03*
D18*
X255746800Y-152400000D03*
D19*
X255746800Y-144780000D03*
D18*
X255746800Y-133350000D03*
D19*
X255746800Y-125730000D03*
D18*
X179546800Y-195262500D03*
D19*
X179546800Y-187642500D03*
D18*
X274796800Y-152400000D03*
D19*
X274796800Y-144780000D03*
D18*
X312896800Y-133350000D03*
D19*
X312896800Y-125730000D03*
D18*
X141446800Y-133350000D03*
D19*
X141446800Y-125730000D03*
D18*
X333375000Y-138112500D03*
D19*
X333375000Y-130492500D03*
D18*
X314325000Y-167510000D03*
D19*
X314325000Y-159890000D03*
D18*
X179546800Y-157162500D03*
D19*
X179546800Y-149542500D03*
D18*
X103346800Y-152400000D03*
D19*
X103346800Y-144780000D03*
D18*
X274796800Y-133350000D03*
D19*
X274796800Y-125730000D03*
D18*
X293846800Y-133350000D03*
D19*
X293846800Y-125730000D03*
D18*
X84296800Y-138112500D03*
D19*
X84296800Y-130492500D03*
D18*
X274796800Y-171450000D03*
D19*
X274796800Y-163830000D03*
D18*
X236696800Y-176212500D03*
D19*
X236696800Y-168592500D03*
D18*
X236696800Y-195262500D03*
D19*
X236696800Y-187642500D03*
D18*
X236696800Y-157162500D03*
D19*
X236696800Y-149542500D03*
D18*
X160496800Y-133350000D03*
D19*
X160496800Y-125730000D03*
D18*
X330993800Y-171450000D03*
D19*
X330993800Y-163830000D03*
D18*
X160496800Y-171450000D03*
D19*
X160496800Y-163830000D03*
D18*
X255746800Y-190500000D03*
D19*
X255746800Y-182880000D03*
M02*
