G04 #@! TF.GenerationSoftware,KiCad,Pcbnew,8.0.4*
G04 #@! TF.CreationDate,2024-09-08T18:52:01+09:00*
G04 #@! TF.ProjectId,first_keyboard,66697273-745f-46b6-9579-626f6172642e,rev?*
G04 #@! TF.SameCoordinates,Original*
G04 #@! TF.FileFunction,Copper,L1,Top*
G04 #@! TF.FilePolarity,Positive*
%FSLAX46Y46*%
G04 Gerber Fmt 4.6, Leading zero omitted, Abs format (unit mm)*
G04 Created by KiCad (PCBNEW 8.0.4) date 2024-09-08 18:52:01*
%MOMM*%
%LPD*%
G01*
G04 APERTURE LIST*
G04 #@! TA.AperFunction,ComponentPad*
%ADD10O,1.700000X1.700000*%
G04 #@! TD*
G04 #@! TA.AperFunction,SMDPad,CuDef*
%ADD11R,3.500000X1.700000*%
G04 #@! TD*
G04 #@! TA.AperFunction,ComponentPad*
%ADD12R,1.700000X1.700000*%
G04 #@! TD*
G04 #@! TA.AperFunction,SMDPad,CuDef*
%ADD13R,1.700000X3.500000*%
G04 #@! TD*
G04 #@! TA.AperFunction,ComponentPad*
%ADD14R,1.397000X1.397000*%
G04 #@! TD*
G04 #@! TA.AperFunction,SMDPad,CuDef*
%ADD15R,0.950000X1.300000*%
G04 #@! TD*
G04 #@! TA.AperFunction,ComponentPad*
%ADD16C,1.397000*%
G04 #@! TD*
G04 #@! TA.AperFunction,ViaPad*
%ADD17C,0.800000*%
G04 #@! TD*
G04 #@! TA.AperFunction,Conductor*
%ADD18C,0.500000*%
G04 #@! TD*
G04 APERTURE END LIST*
D10*
X193516300Y-120332500D03*
D11*
X192616300Y-120332500D03*
D10*
X193516300Y-122872500D03*
D11*
X192616300Y-122872500D03*
D12*
X193516300Y-125412500D03*
D11*
X192616300Y-125412500D03*
D10*
X193516300Y-127952500D03*
D11*
X192616300Y-127952500D03*
D10*
X193516300Y-130492500D03*
D11*
X192616300Y-130492500D03*
D10*
X193516300Y-133032500D03*
D11*
X192616300Y-133032500D03*
D10*
X193516300Y-135572500D03*
D11*
X192616300Y-135572500D03*
D12*
X193516300Y-138112500D03*
D11*
X192616300Y-138112500D03*
D10*
X193516300Y-140652500D03*
D11*
X192616300Y-140652500D03*
D10*
X193516300Y-143192500D03*
D11*
X192616300Y-143192500D03*
D10*
X193516300Y-145732500D03*
D11*
X192616300Y-145732500D03*
D10*
X193516300Y-148272500D03*
D11*
X192616300Y-148272500D03*
D12*
X193516300Y-150812500D03*
D11*
X192616300Y-150812500D03*
D10*
X193516300Y-153352500D03*
D11*
X192616300Y-153352500D03*
D10*
X193516300Y-155892500D03*
D11*
X192616300Y-155892500D03*
D10*
X193516300Y-158432500D03*
D11*
X192616300Y-158432500D03*
D10*
X193516300Y-160972500D03*
D11*
X192616300Y-160972500D03*
D12*
X193516300Y-163512500D03*
D11*
X192616300Y-163512500D03*
D10*
X193516300Y-166052500D03*
D11*
X192616300Y-166052500D03*
D10*
X193516300Y-168592500D03*
D11*
X192616300Y-168592500D03*
D10*
X211296300Y-168592500D03*
D11*
X212196300Y-168592500D03*
D10*
X211296300Y-166052500D03*
D11*
X212196300Y-166052500D03*
D12*
X211296300Y-163512500D03*
D11*
X212196300Y-163512500D03*
D10*
X211296300Y-160972500D03*
D11*
X212196300Y-160972500D03*
D10*
X211296300Y-158432500D03*
D11*
X212196300Y-158432500D03*
D10*
X211296300Y-155892500D03*
D11*
X212196300Y-155892500D03*
D10*
X211296300Y-153352500D03*
D11*
X212196300Y-153352500D03*
D12*
X211296300Y-150812500D03*
D11*
X212196300Y-150812500D03*
D10*
X211296300Y-148272500D03*
D11*
X212196300Y-148272500D03*
D10*
X211296300Y-145732500D03*
D11*
X212196300Y-145732500D03*
D10*
X211296300Y-143192500D03*
D11*
X212196300Y-143192500D03*
D10*
X211296300Y-140652500D03*
D11*
X212196300Y-140652500D03*
D12*
X211296300Y-138112500D03*
D11*
X212196300Y-138112500D03*
D10*
X211296300Y-135572500D03*
D11*
X212196300Y-135572500D03*
D10*
X211296300Y-133032500D03*
D11*
X212196300Y-133032500D03*
D10*
X211296300Y-130492500D03*
D11*
X212196300Y-130492500D03*
D10*
X211296300Y-127952500D03*
D11*
X212196300Y-127952500D03*
D12*
X211296300Y-125412500D03*
D11*
X212196300Y-125412500D03*
D10*
X211296300Y-122872500D03*
D11*
X212196300Y-122872500D03*
D10*
X211296300Y-120332500D03*
D11*
X212196300Y-120332500D03*
D10*
X199866300Y-168362500D03*
D13*
X199866300Y-169262500D03*
D12*
X202406300Y-168362500D03*
D13*
X202406300Y-169262500D03*
D10*
X204946300Y-168362500D03*
D13*
X204946300Y-169262500D03*
D14*
X293846800Y-152400000D03*
D15*
X293846800Y-150365000D03*
X293846800Y-146815000D03*
D16*
X293846800Y-144780000D03*
D14*
X161925000Y-186560000D03*
D15*
X161925000Y-184525000D03*
X161925000Y-180975000D03*
D16*
X161925000Y-178940000D03*
D14*
X236696800Y-138112500D03*
D15*
X236696800Y-136077500D03*
X236696800Y-132527500D03*
D16*
X236696800Y-130492500D03*
D14*
X103346800Y-171450000D03*
D15*
X103346800Y-169415000D03*
X103346800Y-165865000D03*
D16*
X103346800Y-163830000D03*
D14*
X179546800Y-138112500D03*
D15*
X179546800Y-136077500D03*
X179546800Y-132527500D03*
D16*
X179546800Y-130492500D03*
D14*
X141446800Y-171450000D03*
D15*
X141446800Y-169415000D03*
X141446800Y-165865000D03*
D16*
X141446800Y-163830000D03*
D14*
X103346800Y-133350000D03*
D15*
X103346800Y-131315000D03*
X103346800Y-127765000D03*
D16*
X103346800Y-125730000D03*
D14*
X122396800Y-152400000D03*
D15*
X122396800Y-150365000D03*
X122396800Y-146815000D03*
D16*
X122396800Y-144780000D03*
D14*
X200025000Y-197643700D03*
D15*
X200025000Y-195608700D03*
X200025000Y-192058700D03*
D16*
X200025000Y-190023700D03*
D14*
X84296800Y-157162500D03*
D15*
X84296800Y-155127500D03*
X84296800Y-151577500D03*
D16*
X84296800Y-149542500D03*
D14*
X122396800Y-133350000D03*
D15*
X122396800Y-131315000D03*
X122396800Y-127765000D03*
D16*
X122396800Y-125730000D03*
D14*
X122396800Y-171450000D03*
D15*
X122396800Y-169415000D03*
X122396800Y-165865000D03*
D16*
X122396800Y-163830000D03*
D14*
X219075000Y-197643700D03*
D15*
X219075000Y-195608700D03*
X219075000Y-192058700D03*
D16*
X219075000Y-190023700D03*
D14*
X255746800Y-171450000D03*
D15*
X255746800Y-169415000D03*
X255746800Y-165865000D03*
D16*
X255746800Y-163830000D03*
D14*
X84296800Y-176212500D03*
D15*
X84296800Y-174177500D03*
X84296800Y-170627500D03*
D16*
X84296800Y-168592500D03*
D14*
X179546800Y-176212500D03*
D15*
X179546800Y-174177500D03*
X179546800Y-170627500D03*
D16*
X179546800Y-168592500D03*
D14*
X160496800Y-152400000D03*
D15*
X160496800Y-150365000D03*
X160496800Y-146815000D03*
D16*
X160496800Y-144780000D03*
D14*
X293846800Y-171450000D03*
D15*
X293846800Y-169415000D03*
X293846800Y-165865000D03*
D16*
X293846800Y-163830000D03*
D14*
X312896800Y-152400000D03*
D15*
X312896800Y-150365000D03*
X312896800Y-146815000D03*
D16*
X312896800Y-144780000D03*
D14*
X141446800Y-152400000D03*
D15*
X141446800Y-150365000D03*
X141446800Y-146815000D03*
D16*
X141446800Y-144780000D03*
D14*
X255746800Y-152400000D03*
D15*
X255746800Y-150365000D03*
X255746800Y-146815000D03*
D16*
X255746800Y-144780000D03*
D14*
X255746800Y-133350000D03*
D15*
X255746800Y-131315000D03*
X255746800Y-127765000D03*
D16*
X255746800Y-125730000D03*
D14*
X179546800Y-195262500D03*
D15*
X179546800Y-193227500D03*
X179546800Y-189677500D03*
D16*
X179546800Y-187642500D03*
D14*
X274796800Y-152400000D03*
D15*
X274796800Y-150365000D03*
X274796800Y-146815000D03*
D16*
X274796800Y-144780000D03*
D14*
X312896800Y-133350000D03*
D15*
X312896800Y-131315000D03*
X312896800Y-127765000D03*
D16*
X312896800Y-125730000D03*
D14*
X141446800Y-133350000D03*
D15*
X141446800Y-131315000D03*
X141446800Y-127765000D03*
D16*
X141446800Y-125730000D03*
D14*
X333375000Y-138112500D03*
D15*
X333375000Y-136077500D03*
X333375000Y-132527500D03*
D16*
X333375000Y-130492500D03*
D14*
X314325000Y-167510000D03*
D15*
X314325000Y-165475000D03*
X314325000Y-161925000D03*
D16*
X314325000Y-159890000D03*
D14*
X179546800Y-157162500D03*
D15*
X179546800Y-155127500D03*
X179546800Y-151577500D03*
D16*
X179546800Y-149542500D03*
D14*
X103346800Y-152400000D03*
D15*
X103346800Y-150365000D03*
X103346800Y-146815000D03*
D16*
X103346800Y-144780000D03*
D14*
X274796800Y-133350000D03*
D15*
X274796800Y-131315000D03*
X274796800Y-127765000D03*
D16*
X274796800Y-125730000D03*
D14*
X293846800Y-133350000D03*
D15*
X293846800Y-131315000D03*
X293846800Y-127765000D03*
D16*
X293846800Y-125730000D03*
D14*
X84296800Y-138112500D03*
D15*
X84296800Y-136077500D03*
X84296800Y-132527500D03*
D16*
X84296800Y-130492500D03*
D14*
X274796800Y-171450000D03*
D15*
X274796800Y-169415000D03*
X274796800Y-165865000D03*
D16*
X274796800Y-163830000D03*
D14*
X236696800Y-176212500D03*
D15*
X236696800Y-174177500D03*
X236696800Y-170627500D03*
D16*
X236696800Y-168592500D03*
D14*
X236696800Y-195262500D03*
D15*
X236696800Y-193227500D03*
X236696800Y-189677500D03*
D16*
X236696800Y-187642500D03*
D14*
X236696800Y-157162500D03*
D15*
X236696800Y-155127500D03*
X236696800Y-151577500D03*
D16*
X236696800Y-149542500D03*
D14*
X160496800Y-133350000D03*
D15*
X160496800Y-131315000D03*
X160496800Y-127765000D03*
D16*
X160496800Y-125730000D03*
D14*
X330993800Y-171450000D03*
D15*
X330993800Y-169415000D03*
X330993800Y-165865000D03*
D16*
X330993800Y-163830000D03*
D14*
X160496800Y-171450000D03*
D15*
X160496800Y-169415000D03*
X160496800Y-165865000D03*
D16*
X160496800Y-163830000D03*
D14*
X255746800Y-190500000D03*
D15*
X255746800Y-188465000D03*
X255746800Y-184915000D03*
D16*
X255746800Y-182880000D03*
D17*
X222428800Y-161968500D03*
X275956300Y-135647100D03*
X207331900Y-174177500D03*
X71581300Y-150339400D03*
X90631300Y-149263100D03*
X109832800Y-154639400D03*
X163384600Y-159115700D03*
X172445200Y-171710200D03*
X217909300Y-160972500D03*
X228126200Y-158432500D03*
X271257800Y-147693200D03*
X313505800Y-134830000D03*
D18*
X84296800Y-130492500D02*
X84296800Y-132527500D01*
X122396800Y-131315000D02*
X122396800Y-132199600D01*
X161647200Y-133350000D02*
X164374700Y-136077500D01*
X160496800Y-133350000D02*
X161647200Y-133350000D01*
X160496800Y-131315000D02*
X160496800Y-133350000D01*
X291818000Y-130213100D02*
X257775600Y-130213100D01*
X84296800Y-136077500D02*
X85223700Y-136077500D01*
X141910300Y-131315000D02*
X141446800Y-131778500D01*
X122396800Y-133350000D02*
X122396800Y-132199600D01*
X160496800Y-131315000D02*
X142373700Y-131315000D01*
X293846800Y-131315000D02*
X292919900Y-131315000D01*
X222428800Y-161968500D02*
X214463500Y-169933800D01*
X141446800Y-131778500D02*
X141446800Y-133350000D01*
X256210300Y-131315000D02*
X256673700Y-131315000D01*
X103346800Y-131778500D02*
X103346800Y-133350000D01*
X141446800Y-131315000D02*
X122396800Y-131315000D01*
X333375000Y-136077500D02*
X333375000Y-138112500D01*
X312433400Y-131736200D02*
X312896800Y-132199600D01*
X312896800Y-133350000D02*
X312896800Y-132199600D01*
X122396800Y-131315000D02*
X104273700Y-131315000D01*
X141910300Y-131315000D02*
X142373700Y-131315000D01*
X255746800Y-188465000D02*
X255746800Y-190500000D01*
X255746800Y-131315000D02*
X256210300Y-131315000D01*
X141446800Y-131315000D02*
X141910300Y-131315000D01*
X85223700Y-136077500D02*
X87951200Y-133350000D01*
X312433400Y-131315000D02*
X312433400Y-131736200D01*
X256210300Y-131315000D02*
X255746800Y-131778500D01*
X87951200Y-133350000D02*
X103346800Y-133350000D01*
X179546800Y-138112500D02*
X179546800Y-136077500D01*
X257775600Y-130213100D02*
X256673700Y-131315000D01*
X240351200Y-133350000D02*
X237623700Y-136077500D01*
X329720600Y-133350000D02*
X332448100Y-136077500D01*
X312433400Y-131315000D02*
X311969900Y-131315000D01*
X236696800Y-138112500D02*
X236696800Y-136077500D01*
X164374700Y-136077500D02*
X179546800Y-136077500D01*
X84296800Y-136077500D02*
X84296800Y-138112500D01*
X312896800Y-133350000D02*
X329720600Y-133350000D01*
X293846800Y-131315000D02*
X293846800Y-133350000D01*
X210262000Y-169933800D02*
X206380700Y-166052500D01*
X103810300Y-131315000D02*
X104273700Y-131315000D01*
X206380700Y-166052500D02*
X193516300Y-166052500D01*
X255746800Y-133350000D02*
X240351200Y-133350000D01*
X214463500Y-169933800D02*
X210262000Y-169933800D01*
X103346800Y-131315000D02*
X103810300Y-131315000D01*
X236696800Y-136077500D02*
X237623700Y-136077500D01*
X103810300Y-131315000D02*
X103346800Y-131778500D01*
X293846800Y-131315000D02*
X311969900Y-131315000D01*
X255746800Y-131778500D02*
X255746800Y-133350000D01*
X312896800Y-131315000D02*
X312433400Y-131315000D01*
X333375000Y-136077500D02*
X332448100Y-136077500D01*
X292919900Y-131315000D02*
X291818000Y-130213100D01*
X84296800Y-149542500D02*
X84296800Y-151577500D01*
X164374700Y-155127500D02*
X161647200Y-152400000D01*
X294310300Y-150365000D02*
X293846800Y-150828500D01*
X237160300Y-155127500D02*
X237160300Y-155548600D01*
X312896800Y-152400000D02*
X312896800Y-153550400D01*
X275956300Y-135647100D02*
X275956300Y-149263100D01*
X255746800Y-150365000D02*
X256673700Y-150365000D01*
X293846800Y-150828500D02*
X293846800Y-152400000D01*
X179546800Y-155127500D02*
X178619900Y-155127500D01*
X256673700Y-150365000D02*
X257775600Y-149263100D01*
X237160300Y-155127500D02*
X239887800Y-152400000D01*
X293846800Y-150365000D02*
X292919900Y-150365000D01*
X216339800Y-171476200D02*
X230653500Y-157162500D01*
X255746800Y-150365000D02*
X255746800Y-152400000D01*
X141678600Y-150596700D02*
X141678500Y-150596700D01*
X141910300Y-150365000D02*
X141678600Y-150596700D01*
X122396800Y-150365000D02*
X122396800Y-151249600D01*
X274796800Y-131315000D02*
X274796800Y-133350000D01*
X230653500Y-157162500D02*
X236696800Y-157162500D01*
X141678500Y-150596700D02*
X141446800Y-150365000D01*
X141678500Y-150596700D02*
X141678500Y-151017900D01*
X312896800Y-150365000D02*
X312896800Y-152400000D01*
X160496800Y-150365000D02*
X142373700Y-150365000D01*
X257775600Y-149263100D02*
X275956300Y-149263100D01*
X330993800Y-169415000D02*
X328761400Y-169415000D01*
X312896800Y-150365000D02*
X294773700Y-150365000D01*
X330993800Y-169415000D02*
X330993800Y-171450000D01*
X178619900Y-155127500D02*
X164374700Y-155127500D01*
X84296800Y-155127500D02*
X85223700Y-155127500D01*
X87951200Y-152400000D02*
X103346800Y-152400000D01*
X84296800Y-155127500D02*
X84296800Y-157162500D01*
X236696800Y-157162500D02*
X236696800Y-156012100D01*
X103346800Y-152400000D02*
X103346800Y-151249600D01*
X197701900Y-171476200D02*
X216339800Y-171476200D01*
X293846800Y-150365000D02*
X294310300Y-150365000D01*
X275956300Y-149263100D02*
X291818000Y-149263100D01*
X291818000Y-149263100D02*
X292919900Y-150365000D01*
X193516300Y-168592500D02*
X194818200Y-168592500D01*
X160496800Y-152400000D02*
X161647200Y-152400000D01*
X194818200Y-168592500D02*
X197701900Y-171476200D01*
X141446800Y-150365000D02*
X122396800Y-150365000D01*
X121469900Y-150365000D02*
X103346800Y-150365000D01*
X255746800Y-152400000D02*
X254596400Y-152400000D01*
X237160300Y-155548600D02*
X236696800Y-156012100D01*
X141678500Y-151017900D02*
X141446800Y-151249600D01*
X179546800Y-155127500D02*
X179546800Y-157162500D01*
X141910300Y-150365000D02*
X142373700Y-150365000D01*
X122396800Y-150365000D02*
X121469900Y-150365000D01*
X236696800Y-155127500D02*
X237160300Y-155127500D01*
X294310300Y-150365000D02*
X294773700Y-150365000D01*
X328761400Y-169415000D02*
X312896800Y-153550400D01*
X85223700Y-155127500D02*
X87951200Y-152400000D01*
X122396800Y-152400000D02*
X122396800Y-151249600D01*
X103346800Y-150365000D02*
X103346800Y-151249600D01*
X160496800Y-150365000D02*
X160496800Y-152400000D01*
X239887800Y-152400000D02*
X254596400Y-152400000D01*
X141446800Y-152400000D02*
X141446800Y-151249600D01*
X84296800Y-168592500D02*
X84296800Y-170627500D01*
X274796800Y-152400000D02*
X274796800Y-153550400D01*
X275970300Y-168313100D02*
X257775600Y-168313100D01*
X207331900Y-174177500D02*
X236696800Y-174177500D01*
X89986200Y-169415000D02*
X103346800Y-169415000D01*
X84296800Y-174177500D02*
X84296800Y-176212500D01*
X293846800Y-171450000D02*
X293846800Y-170299600D01*
X160496800Y-171450000D02*
X161647200Y-171450000D01*
X255746800Y-169878500D02*
X255746800Y-171450000D01*
X122396800Y-169415000D02*
X103346800Y-169415000D01*
X141446800Y-169415000D02*
X142373700Y-169415000D01*
X141446800Y-169415000D02*
X140519900Y-169415000D01*
X257775600Y-168313100D02*
X256673700Y-169415000D01*
X103346800Y-171450000D02*
X103346800Y-170299600D01*
X310385000Y-169415000D02*
X293846800Y-169415000D01*
X160496800Y-169415000D02*
X160496800Y-171450000D01*
X84296800Y-174177500D02*
X85223700Y-174177500D01*
X140519900Y-169415000D02*
X122396800Y-169415000D01*
X179546800Y-174177500D02*
X207331900Y-174177500D01*
X85223700Y-174177500D02*
X89986200Y-169415000D01*
X103346800Y-169415000D02*
X103346800Y-170299600D01*
X293846800Y-169415000D02*
X292919900Y-169415000D01*
X141446800Y-171450000D02*
X141446800Y-170299600D01*
X255746800Y-169415000D02*
X256210300Y-169415000D01*
X240351200Y-171450000D02*
X255746800Y-171450000D01*
X292919900Y-169415000D02*
X291818000Y-168313100D01*
X166409700Y-176212500D02*
X179546800Y-176212500D01*
X256210300Y-169415000D02*
X255746800Y-169878500D01*
X275970300Y-154723900D02*
X274796800Y-153550400D01*
X160496800Y-169415000D02*
X142373700Y-169415000D01*
X236696800Y-174177500D02*
X237623700Y-174177500D01*
X274796800Y-150365000D02*
X274796800Y-152400000D01*
X179546800Y-176212500D02*
X179546800Y-174177500D01*
X256210300Y-169415000D02*
X256673700Y-169415000D01*
X275970300Y-168313100D02*
X275970300Y-154723900D01*
X141404500Y-170299600D02*
X141446800Y-170299600D01*
X314325000Y-165475000D02*
X314325000Y-167510000D01*
X236696800Y-174177500D02*
X236696800Y-176212500D01*
X293846800Y-169415000D02*
X293846800Y-170299600D01*
X237623700Y-174177500D02*
X240351200Y-171450000D01*
X314325000Y-165475000D02*
X310385000Y-169415000D01*
X140519900Y-169415000D02*
X141404500Y-170299600D01*
X161647200Y-171450000D02*
X166409700Y-176212500D01*
X291818000Y-168313100D02*
X275970300Y-168313100D01*
X122396800Y-169415000D02*
X122396800Y-171450000D01*
X103346800Y-125730000D02*
X103346800Y-127765000D01*
X220348100Y-195262500D02*
X220001900Y-195608700D01*
X219538500Y-195608700D02*
X220001900Y-195608700D01*
X219075000Y-197643700D02*
X219075000Y-196493300D01*
X243325300Y-187062400D02*
X237623700Y-192764000D01*
X179546800Y-195262500D02*
X180697200Y-195262500D01*
X253023200Y-180615700D02*
X253023200Y-181816200D01*
X219538500Y-195608700D02*
X219538500Y-196029800D01*
X219538500Y-196029800D02*
X219075000Y-196493300D01*
X236696800Y-195262500D02*
X220348100Y-195262500D01*
X262188900Y-171450000D02*
X253023200Y-180615700D01*
X236696800Y-193227500D02*
X237623700Y-193227500D01*
X274796800Y-171450000D02*
X262188900Y-171450000D01*
X219306800Y-195608700D02*
X219075000Y-195608700D01*
X161925000Y-186560000D02*
X163075400Y-186560000D01*
X181043400Y-195608700D02*
X180697200Y-195262500D01*
X236696800Y-193227500D02*
X236696800Y-195262500D01*
X169742900Y-193227500D02*
X163075400Y-186560000D01*
X247777000Y-187062400D02*
X243325300Y-187062400D01*
X161925000Y-184525000D02*
X161925000Y-186560000D01*
X179546800Y-193227500D02*
X179546800Y-195262500D01*
X179546800Y-193227500D02*
X169742900Y-193227500D01*
X253023200Y-181816200D02*
X247777000Y-187062400D01*
X200025000Y-195608700D02*
X200025000Y-196493300D01*
X200025000Y-195608700D02*
X181043400Y-195608700D01*
X274796800Y-169415000D02*
X274796800Y-171450000D01*
X237623700Y-192764000D02*
X237623700Y-193227500D01*
X200025000Y-197643700D02*
X200025000Y-196493300D01*
X219306800Y-195608700D02*
X219538500Y-195608700D01*
X103346800Y-144780000D02*
X103346800Y-146815000D01*
X103346800Y-163830000D02*
X103346800Y-165865000D01*
X122396800Y-125730000D02*
X122396800Y-127765000D01*
X122396800Y-144780000D02*
X122396800Y-146815000D01*
X122396800Y-163830000D02*
X122396800Y-165865000D01*
X141446800Y-125730000D02*
X141446800Y-127765000D01*
X141446800Y-144780000D02*
X141446800Y-146815000D01*
X141446800Y-163830000D02*
X141446800Y-165865000D01*
X161925000Y-180975000D02*
X161925000Y-178940000D01*
X160496800Y-125730000D02*
X160496800Y-127765000D01*
X160496800Y-144780000D02*
X160496800Y-146815000D01*
X160496800Y-163830000D02*
X160496800Y-165865000D01*
X179546800Y-187642500D02*
X179546800Y-189677500D01*
X179546800Y-130492500D02*
X179546800Y-132527500D01*
X179546800Y-149542500D02*
X179546800Y-151577500D01*
X179546800Y-170627500D02*
X179546800Y-168592500D01*
X200025000Y-190023700D02*
X200025000Y-192058700D01*
X236696800Y-130492500D02*
X236696800Y-132527500D01*
X236696800Y-149542500D02*
X236696800Y-151577500D01*
X236696800Y-168592500D02*
X236696800Y-170627500D01*
X219075000Y-190023700D02*
X219075000Y-192058700D01*
X255746800Y-125730000D02*
X255746800Y-127765000D01*
X255746800Y-144780000D02*
X255746800Y-146815000D01*
X255746800Y-163830000D02*
X255746800Y-165865000D01*
X236696800Y-187642500D02*
X236696800Y-189677500D01*
X255746800Y-182880000D02*
X255746800Y-184915000D01*
X274796800Y-125730000D02*
X274796800Y-127765000D01*
X274796800Y-144780000D02*
X274796800Y-146815000D01*
X274796800Y-163830000D02*
X274796800Y-165865000D01*
X293846800Y-125730000D02*
X293846800Y-127765000D01*
X293846800Y-144780000D02*
X293846800Y-146815000D01*
X293846800Y-163830000D02*
X293846800Y-165865000D01*
X312896800Y-125730000D02*
X312896800Y-127765000D01*
X312896800Y-144780000D02*
X312896800Y-146815000D01*
X314325000Y-159890000D02*
X314325000Y-161925000D01*
X81728000Y-148311900D02*
X79700500Y-150339400D01*
X169892400Y-152679400D02*
X165357600Y-148144600D01*
X79700500Y-150339400D02*
X71581300Y-150339400D01*
X91652400Y-145922900D02*
X82922400Y-145922900D01*
X93874100Y-148144600D02*
X91652400Y-145922900D01*
X180600300Y-152679400D02*
X169892400Y-152679400D01*
X82922400Y-145922900D02*
X81728000Y-147117300D01*
X193516300Y-145732500D02*
X187547200Y-145732500D01*
X187547200Y-145732500D02*
X180600300Y-152679400D01*
X165357600Y-148144600D02*
X93874100Y-148144600D01*
X81728000Y-147117300D02*
X81728000Y-148311900D01*
X165575500Y-153417900D02*
X161420700Y-149263100D01*
X193516300Y-148272500D02*
X187590400Y-148272500D01*
X161420700Y-149263100D02*
X90631300Y-149263100D01*
X187590400Y-148272500D02*
X182445000Y-153417900D01*
X182445000Y-153417900D02*
X165575500Y-153417900D01*
X185392900Y-153352500D02*
X180427100Y-158318300D01*
X193516300Y-153352500D02*
X185392900Y-153352500D01*
X159342700Y-154639400D02*
X109832800Y-154639400D01*
X173878500Y-158318300D02*
X173511300Y-157951100D01*
X180427100Y-158318300D02*
X173878500Y-158318300D01*
X162654400Y-157951100D02*
X159342700Y-154639400D01*
X173511300Y-157951100D02*
X162654400Y-157951100D01*
X183629000Y-159115700D02*
X163384600Y-159115700D01*
X186852200Y-155892500D02*
X183629000Y-159115700D01*
X193516300Y-155892500D02*
X186852200Y-155892500D01*
X172681700Y-171710200D02*
X172445200Y-171710200D01*
X190414400Y-158432500D02*
X183861300Y-164985600D01*
X177209400Y-165982600D02*
X177209400Y-167182500D01*
X183861300Y-164985600D02*
X178206400Y-164985600D01*
X177209400Y-167182500D02*
X172681700Y-171710200D01*
X178206400Y-164985600D02*
X177209400Y-165982600D01*
X193516300Y-158432500D02*
X190414400Y-158432500D01*
X211296300Y-160972500D02*
X217909300Y-160972500D01*
X211296300Y-158432500D02*
X228126200Y-158432500D01*
X236735300Y-153352500D02*
X241745500Y-148342300D01*
X241745500Y-148342300D02*
X270608700Y-148342300D01*
X270608700Y-148342300D02*
X271257800Y-147693200D01*
X211296300Y-153352500D02*
X236735300Y-153352500D01*
X244285400Y-134789300D02*
X239489900Y-139584800D01*
X211296300Y-143192500D02*
X214398200Y-143192500D01*
X313465100Y-134789300D02*
X244285400Y-134789300D01*
X239489900Y-139584800D02*
X218005900Y-139584800D01*
X218005900Y-139584800D02*
X214398200Y-143192500D01*
X313505800Y-134830000D02*
X313465100Y-134789300D01*
X333375000Y-130492500D02*
X333375000Y-132527500D01*
X330993800Y-163830000D02*
X330993800Y-165865000D01*
M02*
