G04 #@! TF.GenerationSoftware,KiCad,Pcbnew,8.0.4*
G04 #@! TF.CreationDate,2024-09-08T18:52:01+09:00*
G04 #@! TF.ProjectId,first_keyboard,66697273-745f-46b6-9579-626f6172642e,rev?*
G04 #@! TF.SameCoordinates,Original*
G04 #@! TF.FileFunction,Soldermask,Top*
G04 #@! TF.FilePolarity,Negative*
%FSLAX46Y46*%
G04 Gerber Fmt 4.6, Leading zero omitted, Abs format (unit mm)*
G04 Created by KiCad (PCBNEW 8.0.4) date 2024-09-08 18:52:01*
%MOMM*%
%LPD*%
G01*
G04 APERTURE LIST*
%ADD10C,2.000000*%
%ADD11C,3.000000*%
%ADD12C,4.000000*%
%ADD13C,3.050000*%
%ADD14C,1.800000*%
%ADD15O,1.800000X1.800000*%
%ADD16O,1.500000X1.500000*%
%ADD17O,1.700000X1.700000*%
%ADD18R,3.500000X1.700000*%
%ADD19R,1.700000X1.700000*%
%ADD20R,1.700000X3.500000*%
%ADD21R,1.397000X1.397000*%
%ADD22R,0.950000X1.300000*%
%ADD23C,1.397000*%
G04 APERTURE END LIST*
D10*
X187801300Y-188118700D03*
D11*
X189071300Y-185578700D03*
D12*
X192881300Y-188118700D03*
D11*
X195421300Y-183038700D03*
D10*
X197961300Y-188118700D03*
X225901300Y-147637500D03*
D11*
X227171300Y-145097500D03*
D12*
X230981300Y-147637500D03*
D11*
X233521300Y-142557500D03*
D10*
X236061300Y-147637500D03*
X225901300Y-185737500D03*
D11*
X227171300Y-183197500D03*
D12*
X230981300Y-185737500D03*
D11*
X233521300Y-180657500D03*
D10*
X236061300Y-185737500D03*
X149701300Y-180975000D03*
D11*
X150971300Y-178435000D03*
D12*
X154781300Y-180975000D03*
D11*
X157321300Y-175895000D03*
D10*
X159861300Y-180975000D03*
X302101300Y-161925000D03*
D11*
X303371300Y-159385000D03*
D12*
X307181300Y-161925000D03*
D11*
X309721300Y-156845000D03*
D10*
X312261300Y-161925000D03*
X225901300Y-128587500D03*
D11*
X227171300Y-126047500D03*
D12*
X230981300Y-128587500D03*
D11*
X233521300Y-123507500D03*
D10*
X236061300Y-128587500D03*
X264001300Y-142875000D03*
D11*
X265271300Y-140335000D03*
D12*
X269081300Y-142875000D03*
D11*
X271621300Y-137795000D03*
D10*
X274161300Y-142875000D03*
X73501300Y-128587500D03*
D11*
X74771300Y-126047500D03*
D12*
X78581300Y-128587500D03*
D11*
X81121300Y-123507500D03*
D10*
X83661300Y-128587500D03*
X168751300Y-128587500D03*
D11*
X170021300Y-126047500D03*
D12*
X173831300Y-128587500D03*
D11*
X176371300Y-123507500D03*
D10*
X178911300Y-128587500D03*
X111601300Y-161925000D03*
D11*
X112871300Y-159385000D03*
D12*
X116681300Y-161925000D03*
D11*
X119221300Y-156845000D03*
D10*
X121761300Y-161925000D03*
X168751300Y-147637500D03*
D11*
X170021300Y-145097500D03*
D12*
X173831300Y-147637500D03*
D11*
X176371300Y-142557500D03*
D10*
X178911300Y-147637500D03*
X244951300Y-142875000D03*
D11*
X246221300Y-140335000D03*
D12*
X250031300Y-142875000D03*
D11*
X252571300Y-137795000D03*
D10*
X255111300Y-142875000D03*
X92551300Y-123825000D03*
D11*
X93821300Y-121285000D03*
D12*
X97631300Y-123825000D03*
D11*
X100171300Y-118745000D03*
D10*
X102711300Y-123825000D03*
X283051300Y-123825000D03*
D11*
X284321300Y-121285000D03*
D12*
X288131300Y-123825000D03*
D11*
X290671300Y-118745000D03*
D10*
X293211300Y-123825000D03*
X149701300Y-123825000D03*
D11*
X150971300Y-121285000D03*
D12*
X154781300Y-123825000D03*
D11*
X157321300Y-118745000D03*
D10*
X159861300Y-123825000D03*
X244951300Y-161925000D03*
D11*
X246221300Y-159385000D03*
D12*
X250031300Y-161925000D03*
D11*
X252571300Y-156845000D03*
D10*
X255111300Y-161925000D03*
D13*
X319231300Y-169062500D03*
D12*
X334471300Y-169062500D03*
D14*
X326231300Y-162242500D03*
D11*
X323691300Y-160972500D03*
D12*
X326231300Y-157162500D03*
D11*
X321151300Y-154622500D03*
D14*
X326231300Y-152082500D03*
D13*
X319231300Y-145262500D03*
D12*
X334471300Y-145262500D03*
D10*
X283051300Y-142875000D03*
D11*
X284321300Y-140335000D03*
D12*
X288131300Y-142875000D03*
D11*
X290671300Y-137795000D03*
D10*
X293211300Y-142875000D03*
X302101300Y-123825000D03*
D11*
X303371300Y-121285000D03*
D12*
X307181300Y-123825000D03*
D11*
X309721300Y-118745000D03*
D10*
X312261300Y-123825000D03*
X321151300Y-128587500D03*
D11*
X322421300Y-126047500D03*
D12*
X326231300Y-128587500D03*
D11*
X328771300Y-123507500D03*
D10*
X331311300Y-128587500D03*
X73501300Y-166687500D03*
D11*
X74771300Y-164147500D03*
D12*
X78581300Y-166687500D03*
D11*
X81121300Y-161607500D03*
D10*
X83661300Y-166687500D03*
X73501300Y-147637500D03*
D11*
X74771300Y-145097500D03*
D12*
X78581300Y-147637500D03*
D11*
X81121300Y-142557500D03*
D10*
X83661300Y-147637500D03*
X168751300Y-185737500D03*
D11*
X170021300Y-183197500D03*
D12*
X173831300Y-185737500D03*
D11*
X176371300Y-180657500D03*
D10*
X178911300Y-185737500D03*
X111601300Y-123825000D03*
D11*
X112871300Y-121285000D03*
D12*
X116681300Y-123825000D03*
D11*
X119221300Y-118745000D03*
D10*
X121761300Y-123825000D03*
X244951300Y-123825000D03*
D11*
X246221300Y-121285000D03*
D12*
X250031300Y-123825000D03*
D11*
X252571300Y-118745000D03*
D10*
X255111300Y-123825000D03*
X92551300Y-161925000D03*
D11*
X93821300Y-159385000D03*
D12*
X97631300Y-161925000D03*
D11*
X100171300Y-156845000D03*
D10*
X102711300Y-161925000D03*
X225901300Y-166687500D03*
D11*
X227171300Y-164147500D03*
D12*
X230981300Y-166687500D03*
D11*
X233521300Y-161607500D03*
D10*
X236061300Y-166687500D03*
X302101300Y-142875000D03*
D11*
X303371300Y-140335000D03*
D12*
X307181300Y-142875000D03*
D11*
X309721300Y-137795000D03*
D10*
X312261300Y-142875000D03*
X130651300Y-142875000D03*
D11*
X131921300Y-140335000D03*
D12*
X135731300Y-142875000D03*
D11*
X138271300Y-137795000D03*
D10*
X140811300Y-142875000D03*
X283051300Y-161925000D03*
D11*
X284321300Y-159385000D03*
D12*
X288131300Y-161925000D03*
D11*
X290671300Y-156845000D03*
D10*
X293211300Y-161925000D03*
X264001300Y-161925000D03*
D11*
X265271300Y-159385000D03*
D12*
X269081300Y-161925000D03*
D11*
X271621300Y-156845000D03*
D10*
X274161300Y-161925000D03*
X130651300Y-123825000D03*
D11*
X131921300Y-121285000D03*
D12*
X135731300Y-123825000D03*
D11*
X138271300Y-118745000D03*
D10*
X140811300Y-123825000D03*
X149701300Y-161925000D03*
D11*
X150971300Y-159385000D03*
D12*
X154781300Y-161925000D03*
D11*
X157321300Y-156845000D03*
D10*
X159861300Y-161925000D03*
X206851300Y-188118700D03*
D11*
X208121300Y-185578700D03*
D12*
X211931300Y-188118700D03*
D11*
X214471300Y-183038700D03*
D10*
X217011300Y-188118700D03*
X168751300Y-166687500D03*
D11*
X170021300Y-164147500D03*
D12*
X173831300Y-166687500D03*
D11*
X176371300Y-161607500D03*
D10*
X178911300Y-166687500D03*
X130651300Y-161925000D03*
D11*
X131921300Y-159385000D03*
D12*
X135731300Y-161925000D03*
D11*
X138271300Y-156845000D03*
D10*
X140811300Y-161925000D03*
X149701300Y-142875000D03*
D11*
X150971300Y-140335000D03*
D12*
X154781300Y-142875000D03*
D11*
X157321300Y-137795000D03*
D10*
X159861300Y-142875000D03*
D15*
X199681300Y-120462500D03*
D16*
X199981300Y-123492500D03*
X204831300Y-123492500D03*
D15*
X205131300Y-120462500D03*
D17*
X193516300Y-120332500D03*
D18*
X192616300Y-120332500D03*
D17*
X193516300Y-122872500D03*
D18*
X192616300Y-122872500D03*
D19*
X193516300Y-125412500D03*
D18*
X192616300Y-125412500D03*
D17*
X193516300Y-127952500D03*
D18*
X192616300Y-127952500D03*
D17*
X193516300Y-130492500D03*
D18*
X192616300Y-130492500D03*
D17*
X193516300Y-133032500D03*
D18*
X192616300Y-133032500D03*
D17*
X193516300Y-135572500D03*
D18*
X192616300Y-135572500D03*
D19*
X193516300Y-138112500D03*
D18*
X192616300Y-138112500D03*
D17*
X193516300Y-140652500D03*
D18*
X192616300Y-140652500D03*
D17*
X193516300Y-143192500D03*
D18*
X192616300Y-143192500D03*
D17*
X193516300Y-145732500D03*
D18*
X192616300Y-145732500D03*
D17*
X193516300Y-148272500D03*
D18*
X192616300Y-148272500D03*
D19*
X193516300Y-150812500D03*
D18*
X192616300Y-150812500D03*
D17*
X193516300Y-153352500D03*
D18*
X192616300Y-153352500D03*
D17*
X193516300Y-155892500D03*
D18*
X192616300Y-155892500D03*
D17*
X193516300Y-158432500D03*
D18*
X192616300Y-158432500D03*
D17*
X193516300Y-160972500D03*
D18*
X192616300Y-160972500D03*
D19*
X193516300Y-163512500D03*
D18*
X192616300Y-163512500D03*
D17*
X193516300Y-166052500D03*
D18*
X192616300Y-166052500D03*
D17*
X193516300Y-168592500D03*
D18*
X192616300Y-168592500D03*
D17*
X211296300Y-168592500D03*
D18*
X212196300Y-168592500D03*
D17*
X211296300Y-166052500D03*
D18*
X212196300Y-166052500D03*
D19*
X211296300Y-163512500D03*
D18*
X212196300Y-163512500D03*
D17*
X211296300Y-160972500D03*
D18*
X212196300Y-160972500D03*
D17*
X211296300Y-158432500D03*
D18*
X212196300Y-158432500D03*
D17*
X211296300Y-155892500D03*
D18*
X212196300Y-155892500D03*
D17*
X211296300Y-153352500D03*
D18*
X212196300Y-153352500D03*
D19*
X211296300Y-150812500D03*
D18*
X212196300Y-150812500D03*
D17*
X211296300Y-148272500D03*
D18*
X212196300Y-148272500D03*
D17*
X211296300Y-145732500D03*
D18*
X212196300Y-145732500D03*
D17*
X211296300Y-143192500D03*
D18*
X212196300Y-143192500D03*
D17*
X211296300Y-140652500D03*
D18*
X212196300Y-140652500D03*
D19*
X211296300Y-138112500D03*
D18*
X212196300Y-138112500D03*
D17*
X211296300Y-135572500D03*
D18*
X212196300Y-135572500D03*
D17*
X211296300Y-133032500D03*
D18*
X212196300Y-133032500D03*
D17*
X211296300Y-130492500D03*
D18*
X212196300Y-130492500D03*
D17*
X211296300Y-127952500D03*
D18*
X212196300Y-127952500D03*
D19*
X211296300Y-125412500D03*
D18*
X212196300Y-125412500D03*
D17*
X211296300Y-122872500D03*
D18*
X212196300Y-122872500D03*
D17*
X211296300Y-120332500D03*
D18*
X212196300Y-120332500D03*
D17*
X199866300Y-168362500D03*
D20*
X199866300Y-169262500D03*
D19*
X202406300Y-168362500D03*
D20*
X202406300Y-169262500D03*
D17*
X204946300Y-168362500D03*
D20*
X204946300Y-169262500D03*
D10*
X264001300Y-123825000D03*
D11*
X265271300Y-121285000D03*
D12*
X269081300Y-123825000D03*
D11*
X271621300Y-118745000D03*
D10*
X274161300Y-123825000D03*
X92551300Y-142875000D03*
D11*
X93821300Y-140335000D03*
D12*
X97631300Y-142875000D03*
D11*
X100171300Y-137795000D03*
D10*
X102711300Y-142875000D03*
X244951300Y-180975000D03*
D11*
X246221300Y-178435000D03*
D12*
X250031300Y-180975000D03*
D11*
X252571300Y-175895000D03*
D10*
X255111300Y-180975000D03*
X111601300Y-142875000D03*
D11*
X112871300Y-140335000D03*
D12*
X116681300Y-142875000D03*
D11*
X119221300Y-137795000D03*
D10*
X121761300Y-142875000D03*
D21*
X293846800Y-152400000D03*
D22*
X293846800Y-150365000D03*
X293846800Y-146815000D03*
D23*
X293846800Y-144780000D03*
D21*
X161925000Y-186560000D03*
D22*
X161925000Y-184525000D03*
X161925000Y-180975000D03*
D23*
X161925000Y-178940000D03*
D21*
X236696800Y-138112500D03*
D22*
X236696800Y-136077500D03*
X236696800Y-132527500D03*
D23*
X236696800Y-130492500D03*
D21*
X103346800Y-171450000D03*
D22*
X103346800Y-169415000D03*
X103346800Y-165865000D03*
D23*
X103346800Y-163830000D03*
D21*
X179546800Y-138112500D03*
D22*
X179546800Y-136077500D03*
X179546800Y-132527500D03*
D23*
X179546800Y-130492500D03*
D21*
X141446800Y-171450000D03*
D22*
X141446800Y-169415000D03*
X141446800Y-165865000D03*
D23*
X141446800Y-163830000D03*
D21*
X103346800Y-133350000D03*
D22*
X103346800Y-131315000D03*
X103346800Y-127765000D03*
D23*
X103346800Y-125730000D03*
D21*
X122396800Y-152400000D03*
D22*
X122396800Y-150365000D03*
X122396800Y-146815000D03*
D23*
X122396800Y-144780000D03*
D21*
X200025000Y-197643700D03*
D22*
X200025000Y-195608700D03*
X200025000Y-192058700D03*
D23*
X200025000Y-190023700D03*
D21*
X84296800Y-157162500D03*
D22*
X84296800Y-155127500D03*
X84296800Y-151577500D03*
D23*
X84296800Y-149542500D03*
D21*
X122396800Y-133350000D03*
D22*
X122396800Y-131315000D03*
X122396800Y-127765000D03*
D23*
X122396800Y-125730000D03*
D21*
X122396800Y-171450000D03*
D22*
X122396800Y-169415000D03*
X122396800Y-165865000D03*
D23*
X122396800Y-163830000D03*
D21*
X219075000Y-197643700D03*
D22*
X219075000Y-195608700D03*
X219075000Y-192058700D03*
D23*
X219075000Y-190023700D03*
D21*
X255746800Y-171450000D03*
D22*
X255746800Y-169415000D03*
X255746800Y-165865000D03*
D23*
X255746800Y-163830000D03*
D21*
X84296800Y-176212500D03*
D22*
X84296800Y-174177500D03*
X84296800Y-170627500D03*
D23*
X84296800Y-168592500D03*
D21*
X179546800Y-176212500D03*
D22*
X179546800Y-174177500D03*
X179546800Y-170627500D03*
D23*
X179546800Y-168592500D03*
D21*
X160496800Y-152400000D03*
D22*
X160496800Y-150365000D03*
X160496800Y-146815000D03*
D23*
X160496800Y-144780000D03*
D21*
X293846800Y-171450000D03*
D22*
X293846800Y-169415000D03*
X293846800Y-165865000D03*
D23*
X293846800Y-163830000D03*
D21*
X312896800Y-152400000D03*
D22*
X312896800Y-150365000D03*
X312896800Y-146815000D03*
D23*
X312896800Y-144780000D03*
D21*
X141446800Y-152400000D03*
D22*
X141446800Y-150365000D03*
X141446800Y-146815000D03*
D23*
X141446800Y-144780000D03*
D21*
X255746800Y-152400000D03*
D22*
X255746800Y-150365000D03*
X255746800Y-146815000D03*
D23*
X255746800Y-144780000D03*
D21*
X255746800Y-133350000D03*
D22*
X255746800Y-131315000D03*
X255746800Y-127765000D03*
D23*
X255746800Y-125730000D03*
D21*
X179546800Y-195262500D03*
D22*
X179546800Y-193227500D03*
X179546800Y-189677500D03*
D23*
X179546800Y-187642500D03*
D21*
X274796800Y-152400000D03*
D22*
X274796800Y-150365000D03*
X274796800Y-146815000D03*
D23*
X274796800Y-144780000D03*
D21*
X312896800Y-133350000D03*
D22*
X312896800Y-131315000D03*
X312896800Y-127765000D03*
D23*
X312896800Y-125730000D03*
D21*
X141446800Y-133350000D03*
D22*
X141446800Y-131315000D03*
X141446800Y-127765000D03*
D23*
X141446800Y-125730000D03*
D21*
X333375000Y-138112500D03*
D22*
X333375000Y-136077500D03*
X333375000Y-132527500D03*
D23*
X333375000Y-130492500D03*
D21*
X314325000Y-167510000D03*
D22*
X314325000Y-165475000D03*
X314325000Y-161925000D03*
D23*
X314325000Y-159890000D03*
D21*
X179546800Y-157162500D03*
D22*
X179546800Y-155127500D03*
X179546800Y-151577500D03*
D23*
X179546800Y-149542500D03*
D21*
X103346800Y-152400000D03*
D22*
X103346800Y-150365000D03*
X103346800Y-146815000D03*
D23*
X103346800Y-144780000D03*
D21*
X274796800Y-133350000D03*
D22*
X274796800Y-131315000D03*
X274796800Y-127765000D03*
D23*
X274796800Y-125730000D03*
D21*
X293846800Y-133350000D03*
D22*
X293846800Y-131315000D03*
X293846800Y-127765000D03*
D23*
X293846800Y-125730000D03*
D21*
X84296800Y-138112500D03*
D22*
X84296800Y-136077500D03*
X84296800Y-132527500D03*
D23*
X84296800Y-130492500D03*
D21*
X274796800Y-171450000D03*
D22*
X274796800Y-169415000D03*
X274796800Y-165865000D03*
D23*
X274796800Y-163830000D03*
D21*
X236696800Y-176212500D03*
D22*
X236696800Y-174177500D03*
X236696800Y-170627500D03*
D23*
X236696800Y-168592500D03*
D21*
X236696800Y-195262500D03*
D22*
X236696800Y-193227500D03*
X236696800Y-189677500D03*
D23*
X236696800Y-187642500D03*
D21*
X236696800Y-157162500D03*
D22*
X236696800Y-155127500D03*
X236696800Y-151577500D03*
D23*
X236696800Y-149542500D03*
D21*
X160496800Y-133350000D03*
D22*
X160496800Y-131315000D03*
X160496800Y-127765000D03*
D23*
X160496800Y-125730000D03*
D21*
X330993800Y-171450000D03*
D22*
X330993800Y-169415000D03*
X330993800Y-165865000D03*
D23*
X330993800Y-163830000D03*
D21*
X160496800Y-171450000D03*
D22*
X160496800Y-169415000D03*
X160496800Y-165865000D03*
D23*
X160496800Y-163830000D03*
D21*
X255746800Y-190500000D03*
D22*
X255746800Y-188465000D03*
X255746800Y-184915000D03*
D23*
X255746800Y-182880000D03*
M02*
