M48
; DRILL file {KiCad 8.0.4} date 2024-09-22T19:26:08+0900
; FORMAT={-:-/ absolute / metric / decimal}
; #@! TF.CreationDate,2024-09-22T19:26:08+09:00
; #@! TF.GenerationSoftware,Kicad,Pcbnew,8.0.4
; #@! TF.FileFunction,Plated,1,2,PTH
FMAT,2
METRIC
; #@! TA.AperFunction,Plated,PTH,ComponentDrill
T1C0.813
; #@! TA.AperFunction,Plated,PTH,ComponentDrill
T2C1.020
%
G90
G05
T1
X74.771Y-176.213
X82.391Y-176.213
X88.106Y-126.552
X88.106Y-134.172
X88.106Y-145.602
X88.106Y-153.222
X107.156Y-126.552
X107.156Y-134.172
X107.156Y-145.602
X107.156Y-153.222
X107.156Y-164.653
X107.156Y-172.272
X126.206Y-126.552
X126.206Y-134.172
X126.206Y-145.602
X126.206Y-153.222
X126.206Y-164.653
X126.206Y-172.272
X145.256Y-126.552
X145.256Y-134.172
X145.256Y-145.602
X145.256Y-153.222
X145.256Y-164.653
X145.256Y-172.272
X150.019Y-133.35
X150.019Y-171.45
X150.019Y-190.5
X150.365Y-152.4
X157.639Y-133.35
X157.639Y-171.45
X157.639Y-190.5
X157.985Y-152.4
X169.069Y-195.262
X176.689Y-195.262
X183.356Y-128.588
X183.356Y-136.207
X183.356Y-147.637
X183.356Y-155.257
X183.356Y-166.688
X183.356Y-174.308
X188.119Y-197.644
X195.739Y-197.644
X209.55Y-197.644
X217.17Y-197.644
X228.6Y-195.262
X236.22Y-195.262
X240.506Y-128.588
X240.506Y-136.207
X240.506Y-147.637
X240.506Y-155.257
X240.506Y-166.688
X240.506Y-174.308
X247.996Y-190.5
X255.616Y-190.5
X259.556Y-126.552
X259.556Y-134.172
X259.556Y-145.602
X259.556Y-153.222
X259.556Y-164.653
X259.556Y-172.272
X278.606Y-126.552
X278.606Y-134.172
X278.606Y-145.602
X278.606Y-153.222
X278.606Y-164.653
X278.606Y-172.272
X297.656Y-126.552
X297.656Y-134.172
X297.656Y-145.602
X297.656Y-153.222
X297.656Y-164.653
X297.656Y-172.272
X302.765Y-152.4
X302.765Y-171.45
X310.385Y-152.4
X310.385Y-171.45
X316.706Y-131.315
X316.706Y-138.935
X322.421Y-176.213
X330.041Y-176.213
X335.756Y-131.315
X335.756Y-138.935
T2
X193.516Y-120.332
X193.516Y-122.872
X193.516Y-125.412
X193.516Y-127.953
X193.516Y-130.493
X193.516Y-133.032
X193.516Y-135.572
X193.516Y-138.112
X193.516Y-140.653
X193.516Y-143.192
X193.516Y-145.732
X193.516Y-148.272
X193.516Y-150.812
X193.516Y-153.352
X193.516Y-155.892
X193.516Y-158.433
X193.516Y-160.972
X193.516Y-163.512
X193.516Y-166.052
X193.516Y-168.593
X199.866Y-168.362
X202.406Y-168.362
X204.946Y-168.362
X211.296Y-120.332
X211.296Y-122.872
X211.296Y-125.412
X211.296Y-127.953
X211.296Y-130.493
X211.296Y-133.032
X211.296Y-135.572
X211.296Y-138.112
X211.296Y-140.653
X211.296Y-143.192
X211.296Y-145.732
X211.296Y-148.272
X211.296Y-150.812
X211.296Y-153.352
X211.296Y-155.892
X211.296Y-158.433
X211.296Y-160.972
X211.296Y-163.512
X211.296Y-166.052
X211.296Y-168.593
M30
