G04 #@! TF.GenerationSoftware,KiCad,Pcbnew,8.0.4*
G04 #@! TF.CreationDate,2024-09-22T19:53:22+09:00*
G04 #@! TF.ProjectId,first_keyboard,66697273-745f-46b6-9579-626f6172642e,rev?*
G04 #@! TF.SameCoordinates,Original*
G04 #@! TF.FileFunction,Copper,L2,Bot*
G04 #@! TF.FilePolarity,Positive*
%FSLAX46Y46*%
G04 Gerber Fmt 4.6, Leading zero omitted, Abs format (unit mm)*
G04 Created by KiCad (PCBNEW 8.0.4) date 2024-09-22 19:53:22*
%MOMM*%
%LPD*%
G01*
G04 APERTURE LIST*
G04 #@! TA.AperFunction,SMDPad,CuDef*
%ADD10R,3.300000X3.000000*%
G04 #@! TD*
G04 #@! TA.AperFunction,SMDPad,CuDef*
%ADD11R,3.000000X3.300000*%
G04 #@! TD*
G04 #@! TA.AperFunction,ComponentPad*
%ADD12O,1.700000X1.700000*%
G04 #@! TD*
G04 #@! TA.AperFunction,ComponentPad*
%ADD13R,1.700000X1.700000*%
G04 #@! TD*
G04 #@! TA.AperFunction,ComponentPad*
%ADD14R,1.397000X1.397000*%
G04 #@! TD*
G04 #@! TA.AperFunction,ComponentPad*
%ADD15C,1.397000*%
G04 #@! TD*
G04 #@! TA.AperFunction,ViaPad*
%ADD16C,0.800000*%
G04 #@! TD*
G04 #@! TA.AperFunction,Conductor*
%ADD17C,0.500000*%
G04 #@! TD*
G04 APERTURE END LIST*
D10*
X185431300Y-185538700D03*
X199031300Y-182998700D03*
X223531300Y-145057500D03*
X237131300Y-142517500D03*
X223531300Y-183157500D03*
X237131300Y-180617500D03*
X147331300Y-178395000D03*
X160931300Y-175855000D03*
X299731300Y-159345000D03*
X313331300Y-156805000D03*
X223531300Y-126007500D03*
X237131300Y-123467500D03*
X261631300Y-140295000D03*
X275231300Y-137755000D03*
X71131300Y-126007500D03*
X84731300Y-123467500D03*
X166381300Y-126007500D03*
X179981300Y-123467500D03*
X109231300Y-159345000D03*
X122831300Y-156805000D03*
X166381300Y-145057500D03*
X179981300Y-142517500D03*
X242581300Y-140295000D03*
X256181300Y-137755000D03*
X90181300Y-121245000D03*
X103781300Y-118705000D03*
X280681300Y-121245000D03*
X294281300Y-118705000D03*
X147331300Y-121245000D03*
X160931300Y-118705000D03*
X242581300Y-159345000D03*
X256181300Y-156805000D03*
D11*
X323691300Y-164562500D03*
X321151300Y-151062500D03*
D10*
X280681300Y-140295000D03*
X294281300Y-137755000D03*
X299731300Y-121245000D03*
X313331300Y-118705000D03*
X318781300Y-126007500D03*
X332381300Y-123467500D03*
X71131300Y-164107500D03*
X84731300Y-161567500D03*
X71131300Y-145057500D03*
X84731300Y-142517500D03*
X166381300Y-183157500D03*
X179981300Y-180617500D03*
X109231300Y-121245000D03*
X122831300Y-118705000D03*
X242581300Y-121245000D03*
X256181300Y-118705000D03*
X90181300Y-159345000D03*
X103781300Y-156805000D03*
X223531300Y-164107500D03*
X237131300Y-161567500D03*
X299731300Y-140295000D03*
X313331300Y-137755000D03*
X128281300Y-140295000D03*
X141881300Y-137755000D03*
X280681300Y-159345000D03*
X294281300Y-156805000D03*
X261631300Y-159345000D03*
X275231300Y-156805000D03*
X128281300Y-121245000D03*
X141881300Y-118705000D03*
X147331300Y-159345000D03*
X160931300Y-156805000D03*
X204481300Y-185538700D03*
X218081300Y-182998700D03*
X166381300Y-164107500D03*
X179981300Y-161567500D03*
X128281300Y-159345000D03*
X141881300Y-156805000D03*
X147331300Y-140295000D03*
X160931300Y-137755000D03*
D12*
X193516300Y-120332500D03*
X193516300Y-122872500D03*
D13*
X193516300Y-125412500D03*
D12*
X193516300Y-127952500D03*
X193516300Y-130492500D03*
X193516300Y-133032500D03*
X193516300Y-135572500D03*
D13*
X193516300Y-138112500D03*
D12*
X193516300Y-140652500D03*
X193516300Y-143192500D03*
X193516300Y-145732500D03*
X193516300Y-148272500D03*
D13*
X193516300Y-150812500D03*
D12*
X193516300Y-153352500D03*
X193516300Y-155892500D03*
X193516300Y-158432500D03*
X193516300Y-160972500D03*
D13*
X193516300Y-163512500D03*
D12*
X193516300Y-166052500D03*
X193516300Y-168592500D03*
X211296300Y-168592500D03*
X211296300Y-166052500D03*
D13*
X211296300Y-163512500D03*
D12*
X211296300Y-160972500D03*
X211296300Y-158432500D03*
X211296300Y-155892500D03*
X211296300Y-153352500D03*
D13*
X211296300Y-150812500D03*
D12*
X211296300Y-148272500D03*
X211296300Y-145732500D03*
X211296300Y-143192500D03*
X211296300Y-140652500D03*
D13*
X211296300Y-138112500D03*
D12*
X211296300Y-135572500D03*
X211296300Y-133032500D03*
X211296300Y-130492500D03*
X211296300Y-127952500D03*
D13*
X211296300Y-125412500D03*
D12*
X211296300Y-122872500D03*
X211296300Y-120332500D03*
X199866300Y-168362500D03*
D13*
X202406300Y-168362500D03*
D12*
X204946300Y-168362500D03*
D10*
X261631300Y-121245000D03*
X275231300Y-118705000D03*
X90181300Y-140295000D03*
X103781300Y-137755000D03*
X242581300Y-178395000D03*
X256181300Y-175855000D03*
X109231300Y-140295000D03*
X122831300Y-137755000D03*
D14*
X297656300Y-153222500D03*
D15*
X297656300Y-145602500D03*
D14*
X157638800Y-190500000D03*
D15*
X150018800Y-190500000D03*
D14*
X240506300Y-136207500D03*
D15*
X240506300Y-128587500D03*
D14*
X107156300Y-172272500D03*
D15*
X107156300Y-164652500D03*
D14*
X183356300Y-136207500D03*
D15*
X183356300Y-128587500D03*
D14*
X145256300Y-172272500D03*
D15*
X145256300Y-164652500D03*
D14*
X107156300Y-134172500D03*
D15*
X107156300Y-126552500D03*
D14*
X126206300Y-153222500D03*
D15*
X126206300Y-145602500D03*
D14*
X195738800Y-197643700D03*
D15*
X188118800Y-197643700D03*
D14*
X88106300Y-153222500D03*
D15*
X88106300Y-145602500D03*
D14*
X126206300Y-134172500D03*
D15*
X126206300Y-126552500D03*
D14*
X126206300Y-172272500D03*
D15*
X126206300Y-164652500D03*
D14*
X217170000Y-197643700D03*
D15*
X209550000Y-197643700D03*
D14*
X259556300Y-172272500D03*
D15*
X259556300Y-164652500D03*
D14*
X82391300Y-176212500D03*
D15*
X74771300Y-176212500D03*
D14*
X183356300Y-174307500D03*
D15*
X183356300Y-166687500D03*
D14*
X157985000Y-152400000D03*
D15*
X150365000Y-152400000D03*
D14*
X297656300Y-172272500D03*
D15*
X297656300Y-164652500D03*
D14*
X310385000Y-152400000D03*
D15*
X302765000Y-152400000D03*
D14*
X145256300Y-153222500D03*
D15*
X145256300Y-145602500D03*
D14*
X259556300Y-153222500D03*
D15*
X259556300Y-145602500D03*
D14*
X259556300Y-134172500D03*
D15*
X259556300Y-126552500D03*
D14*
X176688800Y-195262500D03*
D15*
X169068800Y-195262500D03*
D14*
X278606300Y-153222500D03*
D15*
X278606300Y-145602500D03*
D14*
X316706300Y-138935000D03*
D15*
X316706300Y-131315000D03*
D14*
X145256300Y-134172500D03*
D15*
X145256300Y-126552500D03*
D14*
X335756300Y-138935000D03*
D15*
X335756300Y-131315000D03*
D14*
X310385000Y-171450000D03*
D15*
X302765000Y-171450000D03*
D14*
X183356300Y-155257500D03*
D15*
X183356300Y-147637500D03*
D14*
X107156300Y-153222500D03*
D15*
X107156300Y-145602500D03*
D14*
X278606300Y-134172500D03*
D15*
X278606300Y-126552500D03*
D14*
X297656300Y-134172500D03*
D15*
X297656300Y-126552500D03*
D14*
X88106300Y-134172500D03*
D15*
X88106300Y-126552500D03*
D14*
X278606300Y-172272500D03*
D15*
X278606300Y-164652500D03*
D14*
X240506300Y-174307500D03*
D15*
X240506300Y-166687500D03*
D14*
X236220000Y-195262500D03*
D15*
X228600000Y-195262500D03*
D14*
X240506300Y-155257500D03*
D15*
X240506300Y-147637500D03*
D14*
X157638800Y-133350000D03*
D15*
X150018800Y-133350000D03*
D14*
X330041300Y-176212500D03*
D15*
X322421300Y-176212500D03*
D14*
X157638800Y-171450000D03*
D15*
X150018800Y-171450000D03*
D14*
X255616300Y-190500000D03*
D15*
X247996300Y-190500000D03*
D16*
X312233500Y-135593100D03*
X299372000Y-149209500D03*
X281131300Y-152132500D03*
X252347200Y-167490100D03*
X261141400Y-162995900D03*
X240275100Y-158728100D03*
X220846300Y-160972500D03*
X185157600Y-167854900D03*
X164713900Y-160050600D03*
X163824900Y-159376000D03*
X109829100Y-154643100D03*
X92773000Y-150085600D03*
X77616400Y-135565600D03*
X257576300Y-163546900D03*
X256250300Y-140440000D03*
X229233600Y-172352400D03*
X198643600Y-172417900D03*
X280018100Y-152748200D03*
X201842400Y-173076700D03*
D17*
X240506300Y-166687500D02*
X236681300Y-162862500D01*
X236681300Y-162862500D02*
X236681300Y-161567500D01*
X240506300Y-147637500D02*
X236681300Y-143812500D01*
X236681300Y-143812500D02*
X236681300Y-142517500D01*
X240506300Y-128587500D02*
X236681300Y-124762500D01*
X236681300Y-124762500D02*
X236681300Y-123467500D01*
X318932200Y-151829700D02*
X319199400Y-151562500D01*
X318932200Y-165006800D02*
X318932200Y-151829700D01*
X322421300Y-168495900D02*
X318932200Y-165006800D01*
X322421300Y-176212500D02*
X322421300Y-168495900D01*
X321151300Y-151562500D02*
X319199400Y-151562500D01*
X335756300Y-129244400D02*
X331931300Y-125419400D01*
X335756300Y-131315000D02*
X335756300Y-129244400D01*
X331931300Y-123467500D02*
X331931300Y-125419400D01*
X323691300Y-164062500D02*
X321739400Y-164062500D01*
X323375300Y-142963300D02*
X315050800Y-134638800D01*
X323375300Y-156199600D02*
X323375300Y-142963300D01*
X321462900Y-158112000D02*
X323375300Y-156199600D01*
X321462900Y-163786000D02*
X321462900Y-158112000D01*
X321739400Y-164062500D02*
X321462900Y-163786000D01*
X319231300Y-130458300D02*
X319231300Y-126007500D01*
X315050800Y-134638800D02*
X319231300Y-130458300D01*
X313187800Y-134638800D02*
X312233500Y-135593100D01*
X315050800Y-134638800D02*
X313187800Y-134638800D01*
X300181300Y-121245000D02*
X300181300Y-140295000D01*
X300181300Y-148400200D02*
X299372000Y-149209500D01*
X300181300Y-140295000D02*
X300181300Y-148400200D01*
X299372000Y-156583800D02*
X300181300Y-157393100D01*
X299372000Y-149209500D02*
X299372000Y-156583800D01*
X300181300Y-159345000D02*
X300181300Y-157393100D01*
X281131300Y-159345000D02*
X281131300Y-152132500D01*
X281131300Y-152132500D02*
X281131300Y-142246900D01*
X281131300Y-140295000D02*
X281131300Y-142246900D01*
X281131300Y-121245000D02*
X281131300Y-140295000D01*
X211296300Y-155892500D02*
X212598200Y-155892500D01*
X212598200Y-157031700D02*
X212598200Y-155892500D01*
X233961500Y-178395000D02*
X212598200Y-157031700D01*
X240479400Y-178395000D02*
X233961500Y-178395000D01*
X262081300Y-121245000D02*
X262081300Y-140295000D01*
X262081300Y-140295000D02*
X262081300Y-159345000D01*
X243031300Y-178395000D02*
X242168100Y-178395000D01*
X242168100Y-178395000D02*
X240479400Y-178395000D01*
X242168100Y-177669200D02*
X252347200Y-167490100D01*
X242168100Y-178395000D02*
X242168100Y-177669200D01*
X262081300Y-162056000D02*
X262081300Y-159345000D01*
X261141400Y-162995900D02*
X262081300Y-162056000D01*
X223981300Y-171117500D02*
X223981300Y-183157500D01*
X211296300Y-158432500D02*
X223981300Y-171117500D01*
X243031300Y-121245000D02*
X243031300Y-140295000D01*
X243031300Y-159345000D02*
X243031300Y-158728100D01*
X243031300Y-158728100D02*
X243031300Y-140295000D01*
X243031300Y-158728100D02*
X240275100Y-158728100D01*
X223981300Y-164107500D02*
X223981300Y-162155600D01*
X222029400Y-162155600D02*
X220846300Y-160972500D01*
X223981300Y-162155600D02*
X222029400Y-162155600D01*
X223981300Y-126007500D02*
X223981300Y-145057500D01*
X220846300Y-150144400D02*
X220846300Y-160972500D01*
X223981300Y-147009400D02*
X220846300Y-150144400D01*
X223981300Y-145057500D02*
X223981300Y-147009400D01*
X212599400Y-177870600D02*
X204931300Y-185538700D01*
X212599400Y-162275600D02*
X212599400Y-177870600D01*
X211296300Y-160972500D02*
X212599400Y-162275600D01*
X166831300Y-145057500D02*
X166831300Y-126007500D01*
X166831300Y-159750100D02*
X166831300Y-145057500D01*
X169010000Y-161928800D02*
X166831300Y-159750100D01*
X169010000Y-161928800D02*
X166831300Y-164107500D01*
X185881300Y-168578600D02*
X185157600Y-167854900D01*
X185881300Y-185538700D02*
X185881300Y-168578600D01*
X172901600Y-161928800D02*
X169010000Y-161928800D01*
X174958400Y-163985600D02*
X172901600Y-161928800D01*
X178810600Y-163985600D02*
X174958400Y-163985600D01*
X182679900Y-167854900D02*
X178810600Y-163985600D01*
X185157600Y-167854900D02*
X182679900Y-167854900D01*
X166831300Y-183157500D02*
X166831300Y-181205600D01*
X164713900Y-161279000D02*
X164713900Y-160050600D01*
X164278900Y-161714000D02*
X164713900Y-161279000D01*
X164278900Y-178653200D02*
X164278900Y-161714000D01*
X166831300Y-181205600D02*
X164278900Y-178653200D01*
X147781300Y-121245000D02*
X147781300Y-140295000D01*
X151306100Y-155820200D02*
X147781300Y-159345000D01*
X151306100Y-154994900D02*
X151306100Y-155820200D01*
X147781300Y-151470100D02*
X151306100Y-154994900D01*
X147781300Y-140295000D02*
X147781300Y-151470100D01*
X164713900Y-156782100D02*
X164713900Y-160050600D01*
X162536800Y-154605000D02*
X164713900Y-156782100D01*
X151696000Y-154605000D02*
X162536800Y-154605000D01*
X151306100Y-154994900D02*
X151696000Y-154605000D01*
X128731300Y-121245000D02*
X128731300Y-140295000D01*
X128731300Y-159345000D02*
X128731300Y-140295000D01*
X163824900Y-160399500D02*
X163824900Y-159376000D01*
X147781300Y-176443100D02*
X163824900Y-160399500D01*
X147781300Y-178395000D02*
X147781300Y-177419000D01*
X147781300Y-177419000D02*
X147781300Y-176443100D01*
X128731300Y-162481500D02*
X128731300Y-159345000D01*
X143668800Y-177419000D02*
X128731300Y-162481500D01*
X147781300Y-177419000D02*
X143668800Y-177419000D01*
X109681300Y-154790900D02*
X109829100Y-154643100D01*
X109681300Y-159345000D02*
X109681300Y-154790900D01*
X109681300Y-154495300D02*
X109829100Y-154643100D01*
X109681300Y-140295000D02*
X109681300Y-154495300D01*
X109681300Y-121245000D02*
X109681300Y-140295000D01*
X92773000Y-157203300D02*
X90631300Y-159345000D01*
X92773000Y-150085600D02*
X92773000Y-157203300D01*
X90631300Y-147943900D02*
X90631300Y-140295000D01*
X92773000Y-150085600D02*
X90631300Y-147943900D01*
X90631300Y-140295000D02*
X90631300Y-121245000D01*
X71581300Y-164107500D02*
X71581300Y-145057500D01*
X71581300Y-141600700D02*
X77616400Y-135565600D01*
X71581300Y-145057500D02*
X71581300Y-141600700D01*
X71581300Y-129530500D02*
X71581300Y-126007500D01*
X77616400Y-135565600D02*
X71581300Y-129530500D01*
X309973600Y-159712700D02*
X312881300Y-156805000D01*
X309973600Y-164241400D02*
X309973600Y-159712700D01*
X302765000Y-171450000D02*
X309973600Y-164241400D01*
X309973600Y-140662700D02*
X312881300Y-137755000D01*
X309973600Y-145191400D02*
X309973600Y-140662700D01*
X302765000Y-152400000D02*
X309973600Y-145191400D01*
X314833200Y-122608800D02*
X312881300Y-120656900D01*
X314833200Y-129441900D02*
X314833200Y-122608800D01*
X316706300Y-131315000D02*
X314833200Y-129441900D01*
X312881300Y-118705000D02*
X312881300Y-120656900D01*
X297656300Y-162581900D02*
X293831300Y-158756900D01*
X297656300Y-164652500D02*
X297656300Y-162581900D01*
X293831300Y-156805000D02*
X293831300Y-158756900D01*
X293831300Y-137755000D02*
X293831300Y-139706900D01*
X297656300Y-143531900D02*
X297656300Y-145602500D01*
X293831300Y-139706900D02*
X297656300Y-143531900D01*
X297656300Y-124481900D02*
X293831300Y-120656900D01*
X297656300Y-126552500D02*
X297656300Y-124481900D01*
X293831300Y-118705000D02*
X293831300Y-120656900D01*
X274781300Y-156805000D02*
X274781300Y-158756900D01*
X278606300Y-162581900D02*
X278606300Y-164652500D01*
X274781300Y-158756900D02*
X278606300Y-162581900D01*
X274781300Y-137755000D02*
X274781300Y-139706900D01*
X278606300Y-143531900D02*
X278606300Y-145602500D01*
X274781300Y-139706900D02*
X278606300Y-143531900D01*
X278606300Y-124481900D02*
X274781300Y-120656900D01*
X278606300Y-126552500D02*
X278606300Y-124481900D01*
X274781300Y-118705000D02*
X274781300Y-120656900D01*
X252823600Y-178762700D02*
X255731300Y-175855000D01*
X252823600Y-185672700D02*
X252823600Y-178762700D01*
X247996300Y-190500000D02*
X252823600Y-185672700D01*
X233773600Y-183525200D02*
X236681300Y-180617500D01*
X233773600Y-190088900D02*
X233773600Y-183525200D01*
X228600000Y-195262500D02*
X233773600Y-190088900D01*
X255731300Y-156805000D02*
X255731300Y-158756900D01*
X257576300Y-160601900D02*
X257576300Y-163546900D01*
X255731300Y-158756900D02*
X257576300Y-160601900D01*
X255731300Y-139921000D02*
X255731300Y-137755000D01*
X256250300Y-140440000D02*
X255731300Y-139921000D01*
X259556300Y-124481900D02*
X255731300Y-120656900D01*
X259556300Y-126552500D02*
X259556300Y-124481900D01*
X255731300Y-118705000D02*
X255731300Y-120656900D01*
X214723600Y-185906400D02*
X217631300Y-182998700D01*
X214723600Y-192470100D02*
X214723600Y-185906400D01*
X209550000Y-197643700D02*
X214723600Y-192470100D01*
X195673600Y-185906400D02*
X198581300Y-182998700D01*
X195673600Y-190088900D02*
X195673600Y-185906400D01*
X188118800Y-197643700D02*
X195673600Y-190088900D01*
X180188200Y-163519400D02*
X179531300Y-163519400D01*
X183356300Y-166687500D02*
X180188200Y-163519400D01*
X179531300Y-161567500D02*
X179531300Y-163519400D01*
X180188200Y-144469400D02*
X179531300Y-144469400D01*
X183356300Y-147637500D02*
X180188200Y-144469400D01*
X179531300Y-142517500D02*
X179531300Y-144469400D01*
X180188200Y-125419400D02*
X179531300Y-125419400D01*
X183356300Y-128587500D02*
X180188200Y-125419400D01*
X179531300Y-123467500D02*
X179531300Y-125419400D01*
X176623600Y-183525200D02*
X179531300Y-180617500D01*
X176623600Y-187707700D02*
X176623600Y-183525200D01*
X169068800Y-195262500D02*
X176623600Y-187707700D01*
X157573600Y-163895200D02*
X150018800Y-171450000D01*
X157573600Y-159712700D02*
X157573600Y-163895200D01*
X160481300Y-156805000D02*
X157573600Y-159712700D01*
X157573600Y-140662700D02*
X160481300Y-137755000D01*
X157573600Y-145191400D02*
X157573600Y-140662700D01*
X150365000Y-152400000D02*
X157573600Y-145191400D01*
X157573600Y-121612700D02*
X160481300Y-118705000D01*
X157573600Y-125795200D02*
X157573600Y-121612700D01*
X150018800Y-133350000D02*
X157573600Y-125795200D01*
X157573600Y-178762700D02*
X160481300Y-175855000D01*
X157573600Y-182945200D02*
X157573600Y-178762700D01*
X150018800Y-190500000D02*
X157573600Y-182945200D01*
X145256300Y-162581900D02*
X141431300Y-158756900D01*
X145256300Y-164652500D02*
X145256300Y-162581900D01*
X141431300Y-156805000D02*
X141431300Y-158756900D01*
X145256300Y-143531900D02*
X141431300Y-139706900D01*
X145256300Y-145602500D02*
X145256300Y-143531900D01*
X141431300Y-137755000D02*
X141431300Y-139706900D01*
X145256300Y-124481900D02*
X141431300Y-120656900D01*
X145256300Y-126552500D02*
X145256300Y-124481900D01*
X141431300Y-118705000D02*
X141431300Y-120656900D01*
X126206300Y-162581900D02*
X122381300Y-158756900D01*
X126206300Y-164652500D02*
X126206300Y-162581900D01*
X122381300Y-156805000D02*
X122381300Y-158756900D01*
X126206300Y-143531900D02*
X122381300Y-139706900D01*
X126206300Y-145602500D02*
X126206300Y-143531900D01*
X122381300Y-137755000D02*
X122381300Y-139706900D01*
X126206300Y-124481900D02*
X122381300Y-120656900D01*
X126206300Y-126552500D02*
X126206300Y-124481900D01*
X122381300Y-118705000D02*
X122381300Y-120656900D01*
X107156300Y-162581900D02*
X103331300Y-158756900D01*
X107156300Y-164652500D02*
X107156300Y-162581900D01*
X103331300Y-156805000D02*
X103331300Y-158756900D01*
X107156300Y-143531900D02*
X103331300Y-139706900D01*
X107156300Y-145602500D02*
X107156300Y-143531900D01*
X103331300Y-137755000D02*
X103331300Y-139706900D01*
X208236300Y-169112500D02*
X211296300Y-166052500D01*
X208236300Y-177956300D02*
X208236300Y-169112500D01*
X201131700Y-185060900D02*
X208236300Y-177956300D01*
X201131700Y-191100400D02*
X201131700Y-185060900D01*
X195738800Y-196493300D02*
X201131700Y-191100400D01*
X195738800Y-197643700D02*
X195738800Y-196493300D01*
X107156300Y-124481900D02*
X103331300Y-120656900D01*
X107156300Y-126552500D02*
X107156300Y-124481900D01*
X103331300Y-118705000D02*
X103331300Y-120656900D01*
X286616000Y-172272500D02*
X279774900Y-165431400D01*
X297656300Y-172272500D02*
X286616000Y-172272500D01*
X279774900Y-162234100D02*
X279774900Y-165431400D01*
X278579400Y-161038600D02*
X279774900Y-162234100D01*
X278579400Y-154399800D02*
X278579400Y-161038600D01*
X278606300Y-154372900D02*
X278579400Y-154399800D01*
X272933800Y-172272500D02*
X259556300Y-172272500D01*
X279774900Y-165431400D02*
X272933800Y-172272500D01*
X278606300Y-153222500D02*
X278606300Y-154372900D01*
X81373600Y-164475200D02*
X84281300Y-161567500D01*
X81373600Y-169610200D02*
X81373600Y-164475200D01*
X74771300Y-176212500D02*
X81373600Y-169610200D01*
X183356300Y-158432500D02*
X193516300Y-168592500D01*
X183356300Y-155257500D02*
X183356300Y-158432500D01*
X236480500Y-172352400D02*
X229233600Y-172352400D01*
X241664700Y-167168200D02*
X236480500Y-172352400D01*
X241664700Y-163121800D02*
X241664700Y-167168200D01*
X239382300Y-160839400D02*
X241664700Y-163121800D01*
X239382300Y-157531900D02*
X239382300Y-160839400D01*
X240506300Y-156407900D02*
X239382300Y-157531900D01*
X193516300Y-168592500D02*
X194818200Y-168592500D01*
X240506300Y-155257500D02*
X240506300Y-156407900D01*
X194818200Y-168592500D02*
X198643600Y-172417900D01*
X278579400Y-135349800D02*
X278606300Y-135322900D01*
X278579400Y-141982200D02*
X278579400Y-135349800D01*
X280018100Y-143420900D02*
X278579400Y-141982200D01*
X280018100Y-152748200D02*
X280018100Y-143420900D01*
X278606300Y-134172500D02*
X278606300Y-135322900D01*
X85414400Y-145602500D02*
X84281300Y-144469400D01*
X88106300Y-145602500D02*
X85414400Y-145602500D01*
X84281300Y-142517500D02*
X84281300Y-144469400D01*
X255616300Y-190500000D02*
X255616300Y-189349600D01*
X259556300Y-134172500D02*
X259556300Y-135322900D01*
X184506700Y-157042900D02*
X193516300Y-166052500D01*
X184506700Y-138508300D02*
X184506700Y-157042900D01*
X183356300Y-137357900D02*
X184506700Y-138508300D01*
X183356300Y-136207500D02*
X183356300Y-137357900D01*
X193516300Y-166052500D02*
X194818200Y-166052500D01*
X194818200Y-166052500D02*
X201842400Y-173076700D01*
X258405900Y-136473300D02*
X259556300Y-135322900D01*
X258405900Y-163170100D02*
X258405900Y-136473300D01*
X258428200Y-163192400D02*
X258405900Y-163170100D01*
X258428200Y-163899800D02*
X258428200Y-163192400D01*
X258405900Y-163922100D02*
X258428200Y-163899800D01*
X258405900Y-186560000D02*
X258405900Y-163922100D01*
X255616300Y-189349600D02*
X258405900Y-186560000D01*
X85414400Y-126552500D02*
X84281300Y-125419400D01*
X88106300Y-126552500D02*
X85414400Y-126552500D01*
X84281300Y-123467500D02*
X84281300Y-125419400D01*
M02*
