G04 #@! TF.GenerationSoftware,KiCad,Pcbnew,8.0.4*
G04 #@! TF.CreationDate,2024-09-22T19:25:53+09:00*
G04 #@! TF.ProjectId,first_keyboard,66697273-745f-46b6-9579-626f6172642e,rev?*
G04 #@! TF.SameCoordinates,Original*
G04 #@! TF.FileFunction,Legend,Top*
G04 #@! TF.FilePolarity,Positive*
%FSLAX46Y46*%
G04 Gerber Fmt 4.6, Leading zero omitted, Abs format (unit mm)*
G04 Created by KiCad (PCBNEW 8.0.4) date 2024-09-22 19:25:53*
%MOMM*%
%LPD*%
G01*
G04 APERTURE LIST*
%ADD10C,0.150000*%
%ADD11C,0.125000*%
%ADD12C,0.120000*%
%ADD13C,2.000000*%
%ADD14C,4.000000*%
G04 APERTURE END LIST*
D10*
X201644395Y-143917319D02*
X201644395Y-144726842D01*
X201644395Y-144726842D02*
X201692014Y-144822080D01*
X201692014Y-144822080D02*
X201739633Y-144869700D01*
X201739633Y-144869700D02*
X201834871Y-144917319D01*
X201834871Y-144917319D02*
X202025347Y-144917319D01*
X202025347Y-144917319D02*
X202120585Y-144869700D01*
X202120585Y-144869700D02*
X202168204Y-144822080D01*
X202168204Y-144822080D02*
X202215823Y-144726842D01*
X202215823Y-144726842D02*
X202215823Y-143917319D01*
X203215823Y-144917319D02*
X202644395Y-144917319D01*
X202930109Y-144917319D02*
X202930109Y-143917319D01*
X202930109Y-143917319D02*
X202834871Y-144060176D01*
X202834871Y-144060176D02*
X202739633Y-144155414D01*
X202739633Y-144155414D02*
X202644395Y-144203033D01*
X214504298Y-158823368D02*
X214423485Y-158850305D01*
X214423485Y-158850305D02*
X214342673Y-158931118D01*
X214342673Y-158931118D02*
X214288798Y-159038867D01*
X214288798Y-159038867D02*
X214288798Y-159146617D01*
X214288798Y-159146617D02*
X214315736Y-159227429D01*
X214315736Y-159227429D02*
X214396548Y-159362116D01*
X214396548Y-159362116D02*
X214477360Y-159442928D01*
X214477360Y-159442928D02*
X214612047Y-159523741D01*
X214612047Y-159523741D02*
X214692860Y-159550678D01*
X214692860Y-159550678D02*
X214800609Y-159550678D01*
X214800609Y-159550678D02*
X214908359Y-159496803D01*
X214908359Y-159496803D02*
X214962234Y-159442928D01*
X214962234Y-159442928D02*
X215016108Y-159335179D01*
X215016108Y-159335179D02*
X215016108Y-159281304D01*
X215016108Y-159281304D02*
X214827547Y-159092742D01*
X214827547Y-159092742D02*
X214719797Y-159200492D01*
X215312420Y-159092742D02*
X214746734Y-158527057D01*
X214746734Y-158527057D02*
X214962234Y-158311557D01*
X214962234Y-158311557D02*
X215043046Y-158284620D01*
X215043046Y-158284620D02*
X215096921Y-158284620D01*
X215096921Y-158284620D02*
X215177733Y-158311557D01*
X215177733Y-158311557D02*
X215258545Y-158392370D01*
X215258545Y-158392370D02*
X215285482Y-158473182D01*
X215285482Y-158473182D02*
X215285482Y-158527057D01*
X215285482Y-158527057D02*
X215258545Y-158607869D01*
X215258545Y-158607869D02*
X215043046Y-158823368D01*
X216174417Y-158230745D02*
X215851168Y-158553994D01*
X216012792Y-158392370D02*
X215447107Y-157826684D01*
X215447107Y-157826684D02*
X215474044Y-157961371D01*
X215474044Y-157961371D02*
X215474044Y-158069121D01*
X215474044Y-158069121D02*
X215447107Y-158149933D01*
X216443791Y-157961371D02*
X216551540Y-157853621D01*
X216551540Y-157853621D02*
X216578478Y-157772809D01*
X216578478Y-157772809D02*
X216578478Y-157718934D01*
X216578478Y-157718934D02*
X216551540Y-157584247D01*
X216551540Y-157584247D02*
X216470728Y-157449560D01*
X216470728Y-157449560D02*
X216255229Y-157234061D01*
X216255229Y-157234061D02*
X216174417Y-157207124D01*
X216174417Y-157207124D02*
X216120542Y-157207124D01*
X216120542Y-157207124D02*
X216039730Y-157234061D01*
X216039730Y-157234061D02*
X215931980Y-157341811D01*
X215931980Y-157341811D02*
X215905043Y-157422623D01*
X215905043Y-157422623D02*
X215905043Y-157476498D01*
X215905043Y-157476498D02*
X215931980Y-157557310D01*
X215931980Y-157557310D02*
X216066667Y-157691997D01*
X216066667Y-157691997D02*
X216147479Y-157718934D01*
X216147479Y-157718934D02*
X216201354Y-157718934D01*
X216201354Y-157718934D02*
X216282166Y-157691997D01*
X216282166Y-157691997D02*
X216389916Y-157584247D01*
X216389916Y-157584247D02*
X216416853Y-157503435D01*
X216416853Y-157503435D02*
X216416853Y-157449560D01*
X216416853Y-157449560D02*
X216389916Y-157368748D01*
X188919672Y-133153994D02*
X188838860Y-133180931D01*
X188838860Y-133180931D02*
X188758048Y-133261743D01*
X188758048Y-133261743D02*
X188704173Y-133369493D01*
X188704173Y-133369493D02*
X188704173Y-133477242D01*
X188704173Y-133477242D02*
X188731110Y-133558055D01*
X188731110Y-133558055D02*
X188811923Y-133692742D01*
X188811923Y-133692742D02*
X188892735Y-133773554D01*
X188892735Y-133773554D02*
X189027422Y-133854366D01*
X189027422Y-133854366D02*
X189108234Y-133881303D01*
X189108234Y-133881303D02*
X189215984Y-133881303D01*
X189215984Y-133881303D02*
X189323733Y-133827429D01*
X189323733Y-133827429D02*
X189377608Y-133773554D01*
X189377608Y-133773554D02*
X189431483Y-133665804D01*
X189431483Y-133665804D02*
X189431483Y-133611929D01*
X189431483Y-133611929D02*
X189242921Y-133423368D01*
X189242921Y-133423368D02*
X189135171Y-133531117D01*
X189727794Y-133423368D02*
X189162109Y-132857682D01*
X189162109Y-132857682D02*
X189377608Y-132642183D01*
X189377608Y-132642183D02*
X189458420Y-132615246D01*
X189458420Y-132615246D02*
X189512295Y-132615246D01*
X189512295Y-132615246D02*
X189593107Y-132642183D01*
X189593107Y-132642183D02*
X189673919Y-132722995D01*
X189673919Y-132722995D02*
X189700857Y-132803807D01*
X189700857Y-132803807D02*
X189700857Y-132857682D01*
X189700857Y-132857682D02*
X189673919Y-132938494D01*
X189673919Y-132938494D02*
X189458420Y-133153994D01*
X190158793Y-132238122D02*
X190535916Y-132615246D01*
X189808606Y-132157310D02*
X190077980Y-132696058D01*
X190077980Y-132696058D02*
X190428167Y-132345872D01*
X188396298Y-161363368D02*
X188315485Y-161390305D01*
X188315485Y-161390305D02*
X188234673Y-161471118D01*
X188234673Y-161471118D02*
X188180798Y-161578867D01*
X188180798Y-161578867D02*
X188180798Y-161686617D01*
X188180798Y-161686617D02*
X188207736Y-161767429D01*
X188207736Y-161767429D02*
X188288548Y-161902116D01*
X188288548Y-161902116D02*
X188369360Y-161982928D01*
X188369360Y-161982928D02*
X188504047Y-162063741D01*
X188504047Y-162063741D02*
X188584860Y-162090678D01*
X188584860Y-162090678D02*
X188692609Y-162090678D01*
X188692609Y-162090678D02*
X188800359Y-162036803D01*
X188800359Y-162036803D02*
X188854234Y-161982928D01*
X188854234Y-161982928D02*
X188908108Y-161875179D01*
X188908108Y-161875179D02*
X188908108Y-161821304D01*
X188908108Y-161821304D02*
X188719547Y-161632742D01*
X188719547Y-161632742D02*
X188611797Y-161740492D01*
X189204420Y-161632742D02*
X188638734Y-161067057D01*
X188638734Y-161067057D02*
X188854234Y-160851557D01*
X188854234Y-160851557D02*
X188935046Y-160824620D01*
X188935046Y-160824620D02*
X188988921Y-160824620D01*
X188988921Y-160824620D02*
X189069733Y-160851557D01*
X189069733Y-160851557D02*
X189150545Y-160932370D01*
X189150545Y-160932370D02*
X189177482Y-161013182D01*
X189177482Y-161013182D02*
X189177482Y-161067057D01*
X189177482Y-161067057D02*
X189150545Y-161147869D01*
X189150545Y-161147869D02*
X188935046Y-161363368D01*
X190066417Y-160770745D02*
X189743168Y-161093994D01*
X189904792Y-160932370D02*
X189339107Y-160366684D01*
X189339107Y-160366684D02*
X189366044Y-160501371D01*
X189366044Y-160501371D02*
X189366044Y-160609121D01*
X189366044Y-160609121D02*
X189339107Y-160689933D01*
X189689293Y-160016498D02*
X190039479Y-159666312D01*
X190039479Y-159666312D02*
X190066417Y-160070373D01*
X190066417Y-160070373D02*
X190147229Y-159989560D01*
X190147229Y-159989560D02*
X190228041Y-159962623D01*
X190228041Y-159962623D02*
X190281916Y-159962623D01*
X190281916Y-159962623D02*
X190362728Y-159989560D01*
X190362728Y-159989560D02*
X190497415Y-160124247D01*
X190497415Y-160124247D02*
X190524353Y-160205060D01*
X190524353Y-160205060D02*
X190524353Y-160258934D01*
X190524353Y-160258934D02*
X190497415Y-160339747D01*
X190497415Y-160339747D02*
X190335791Y-160501371D01*
X190335791Y-160501371D02*
X190254979Y-160528308D01*
X190254979Y-160528308D02*
X190201104Y-160528308D01*
X188396298Y-168983368D02*
X188315485Y-169010305D01*
X188315485Y-169010305D02*
X188234673Y-169091118D01*
X188234673Y-169091118D02*
X188180798Y-169198867D01*
X188180798Y-169198867D02*
X188180798Y-169306617D01*
X188180798Y-169306617D02*
X188207736Y-169387429D01*
X188207736Y-169387429D02*
X188288548Y-169522116D01*
X188288548Y-169522116D02*
X188369360Y-169602928D01*
X188369360Y-169602928D02*
X188504047Y-169683741D01*
X188504047Y-169683741D02*
X188584860Y-169710678D01*
X188584860Y-169710678D02*
X188692609Y-169710678D01*
X188692609Y-169710678D02*
X188800359Y-169656803D01*
X188800359Y-169656803D02*
X188854234Y-169602928D01*
X188854234Y-169602928D02*
X188908108Y-169495179D01*
X188908108Y-169495179D02*
X188908108Y-169441304D01*
X188908108Y-169441304D02*
X188719547Y-169252742D01*
X188719547Y-169252742D02*
X188611797Y-169360492D01*
X189204420Y-169252742D02*
X188638734Y-168687057D01*
X188638734Y-168687057D02*
X188854234Y-168471557D01*
X188854234Y-168471557D02*
X188935046Y-168444620D01*
X188935046Y-168444620D02*
X188988921Y-168444620D01*
X188988921Y-168444620D02*
X189069733Y-168471557D01*
X189069733Y-168471557D02*
X189150545Y-168552370D01*
X189150545Y-168552370D02*
X189177482Y-168633182D01*
X189177482Y-168633182D02*
X189177482Y-168687057D01*
X189177482Y-168687057D02*
X189150545Y-168767869D01*
X189150545Y-168767869D02*
X188935046Y-168983368D01*
X190066417Y-168390745D02*
X189743168Y-168713994D01*
X189904792Y-168552370D02*
X189339107Y-167986684D01*
X189339107Y-167986684D02*
X189366044Y-168121371D01*
X189366044Y-168121371D02*
X189366044Y-168229121D01*
X189366044Y-168229121D02*
X189339107Y-168309933D01*
X190012542Y-167313249D02*
X189743168Y-167582623D01*
X189743168Y-167582623D02*
X189985605Y-167878934D01*
X189985605Y-167878934D02*
X189985605Y-167825060D01*
X189985605Y-167825060D02*
X190012542Y-167744247D01*
X190012542Y-167744247D02*
X190147229Y-167609560D01*
X190147229Y-167609560D02*
X190228041Y-167582623D01*
X190228041Y-167582623D02*
X190281916Y-167582623D01*
X190281916Y-167582623D02*
X190362728Y-167609560D01*
X190362728Y-167609560D02*
X190497415Y-167744247D01*
X190497415Y-167744247D02*
X190524353Y-167825060D01*
X190524353Y-167825060D02*
X190524353Y-167878934D01*
X190524353Y-167878934D02*
X190497415Y-167959747D01*
X190497415Y-167959747D02*
X190362728Y-168094434D01*
X190362728Y-168094434D02*
X190281916Y-168121371D01*
X190281916Y-168121371D02*
X190228041Y-168121371D01*
X214504298Y-156283368D02*
X214423485Y-156310305D01*
X214423485Y-156310305D02*
X214342673Y-156391118D01*
X214342673Y-156391118D02*
X214288798Y-156498867D01*
X214288798Y-156498867D02*
X214288798Y-156606617D01*
X214288798Y-156606617D02*
X214315736Y-156687429D01*
X214315736Y-156687429D02*
X214396548Y-156822116D01*
X214396548Y-156822116D02*
X214477360Y-156902928D01*
X214477360Y-156902928D02*
X214612047Y-156983741D01*
X214612047Y-156983741D02*
X214692860Y-157010678D01*
X214692860Y-157010678D02*
X214800609Y-157010678D01*
X214800609Y-157010678D02*
X214908359Y-156956803D01*
X214908359Y-156956803D02*
X214962234Y-156902928D01*
X214962234Y-156902928D02*
X215016108Y-156795179D01*
X215016108Y-156795179D02*
X215016108Y-156741304D01*
X215016108Y-156741304D02*
X214827547Y-156552742D01*
X214827547Y-156552742D02*
X214719797Y-156660492D01*
X215312420Y-156552742D02*
X214746734Y-155987057D01*
X214746734Y-155987057D02*
X214962234Y-155771557D01*
X214962234Y-155771557D02*
X215043046Y-155744620D01*
X215043046Y-155744620D02*
X215096921Y-155744620D01*
X215096921Y-155744620D02*
X215177733Y-155771557D01*
X215177733Y-155771557D02*
X215258545Y-155852370D01*
X215258545Y-155852370D02*
X215285482Y-155933182D01*
X215285482Y-155933182D02*
X215285482Y-155987057D01*
X215285482Y-155987057D02*
X215258545Y-156067869D01*
X215258545Y-156067869D02*
X215043046Y-156283368D01*
X215339357Y-155502183D02*
X215339357Y-155448309D01*
X215339357Y-155448309D02*
X215366295Y-155367496D01*
X215366295Y-155367496D02*
X215500982Y-155232809D01*
X215500982Y-155232809D02*
X215581794Y-155205872D01*
X215581794Y-155205872D02*
X215635669Y-155205872D01*
X215635669Y-155205872D02*
X215716481Y-155232809D01*
X215716481Y-155232809D02*
X215770356Y-155286684D01*
X215770356Y-155286684D02*
X215824230Y-155394434D01*
X215824230Y-155394434D02*
X215824230Y-156040931D01*
X215824230Y-156040931D02*
X216174417Y-155690745D01*
X215958918Y-154774873D02*
X216012792Y-154720999D01*
X216012792Y-154720999D02*
X216093605Y-154694061D01*
X216093605Y-154694061D02*
X216147479Y-154694061D01*
X216147479Y-154694061D02*
X216228292Y-154720999D01*
X216228292Y-154720999D02*
X216362979Y-154801811D01*
X216362979Y-154801811D02*
X216497666Y-154936498D01*
X216497666Y-154936498D02*
X216578478Y-155071185D01*
X216578478Y-155071185D02*
X216605415Y-155151997D01*
X216605415Y-155151997D02*
X216605415Y-155205872D01*
X216605415Y-155205872D02*
X216578478Y-155286684D01*
X216578478Y-155286684D02*
X216524603Y-155340559D01*
X216524603Y-155340559D02*
X216443791Y-155367496D01*
X216443791Y-155367496D02*
X216389916Y-155367496D01*
X216389916Y-155367496D02*
X216309104Y-155340559D01*
X216309104Y-155340559D02*
X216174417Y-155259747D01*
X216174417Y-155259747D02*
X216039730Y-155125060D01*
X216039730Y-155125060D02*
X215958918Y-154990373D01*
X215958918Y-154990373D02*
X215931980Y-154909560D01*
X215931980Y-154909560D02*
X215931980Y-154855686D01*
X215931980Y-154855686D02*
X215958918Y-154774873D01*
X188892735Y-138260931D02*
X188811923Y-138287868D01*
X188811923Y-138287868D02*
X188731111Y-138368680D01*
X188731111Y-138368680D02*
X188677236Y-138476430D01*
X188677236Y-138476430D02*
X188677236Y-138584180D01*
X188677236Y-138584180D02*
X188704173Y-138664992D01*
X188704173Y-138664992D02*
X188784985Y-138799679D01*
X188784985Y-138799679D02*
X188865798Y-138880491D01*
X188865798Y-138880491D02*
X189000485Y-138961303D01*
X189000485Y-138961303D02*
X189081297Y-138988241D01*
X189081297Y-138988241D02*
X189189046Y-138988241D01*
X189189046Y-138988241D02*
X189296796Y-138934366D01*
X189296796Y-138934366D02*
X189350671Y-138880491D01*
X189350671Y-138880491D02*
X189404546Y-138772741D01*
X189404546Y-138772741D02*
X189404546Y-138718867D01*
X189404546Y-138718867D02*
X189215984Y-138530305D01*
X189215984Y-138530305D02*
X189108234Y-138638054D01*
X189700857Y-138530305D02*
X189135172Y-137964619D01*
X189135172Y-137964619D02*
X190024106Y-138207056D01*
X190024106Y-138207056D02*
X189458420Y-137641371D01*
X190293480Y-137937682D02*
X189727794Y-137371997D01*
X189727794Y-137371997D02*
X189862481Y-137237310D01*
X189862481Y-137237310D02*
X189970231Y-137183435D01*
X189970231Y-137183435D02*
X190077980Y-137183435D01*
X190077980Y-137183435D02*
X190158793Y-137210372D01*
X190158793Y-137210372D02*
X190293480Y-137291185D01*
X190293480Y-137291185D02*
X190374292Y-137371997D01*
X190374292Y-137371997D02*
X190455104Y-137506684D01*
X190455104Y-137506684D02*
X190482041Y-137587496D01*
X190482041Y-137587496D02*
X190482041Y-137695246D01*
X190482041Y-137695246D02*
X190428167Y-137802995D01*
X190428167Y-137802995D02*
X190293480Y-137937682D01*
X188919672Y-120453994D02*
X188838860Y-120480931D01*
X188838860Y-120480931D02*
X188758048Y-120561743D01*
X188758048Y-120561743D02*
X188704173Y-120669493D01*
X188704173Y-120669493D02*
X188704173Y-120777242D01*
X188704173Y-120777242D02*
X188731110Y-120858055D01*
X188731110Y-120858055D02*
X188811923Y-120992742D01*
X188811923Y-120992742D02*
X188892735Y-121073554D01*
X188892735Y-121073554D02*
X189027422Y-121154366D01*
X189027422Y-121154366D02*
X189108234Y-121181303D01*
X189108234Y-121181303D02*
X189215984Y-121181303D01*
X189215984Y-121181303D02*
X189323733Y-121127429D01*
X189323733Y-121127429D02*
X189377608Y-121073554D01*
X189377608Y-121073554D02*
X189431483Y-120965804D01*
X189431483Y-120965804D02*
X189431483Y-120911929D01*
X189431483Y-120911929D02*
X189242921Y-120723368D01*
X189242921Y-120723368D02*
X189135171Y-120831117D01*
X189727794Y-120723368D02*
X189162109Y-120157682D01*
X189162109Y-120157682D02*
X189377608Y-119942183D01*
X189377608Y-119942183D02*
X189458420Y-119915246D01*
X189458420Y-119915246D02*
X189512295Y-119915246D01*
X189512295Y-119915246D02*
X189593107Y-119942183D01*
X189593107Y-119942183D02*
X189673919Y-120022995D01*
X189673919Y-120022995D02*
X189700857Y-120103807D01*
X189700857Y-120103807D02*
X189700857Y-120157682D01*
X189700857Y-120157682D02*
X189673919Y-120238494D01*
X189673919Y-120238494D02*
X189458420Y-120453994D01*
X189835544Y-119484247D02*
X189889419Y-119430372D01*
X189889419Y-119430372D02*
X189970231Y-119403435D01*
X189970231Y-119403435D02*
X190024106Y-119403435D01*
X190024106Y-119403435D02*
X190104918Y-119430372D01*
X190104918Y-119430372D02*
X190239605Y-119511185D01*
X190239605Y-119511185D02*
X190374292Y-119645872D01*
X190374292Y-119645872D02*
X190455104Y-119780559D01*
X190455104Y-119780559D02*
X190482041Y-119861371D01*
X190482041Y-119861371D02*
X190482041Y-119915246D01*
X190482041Y-119915246D02*
X190455104Y-119996058D01*
X190455104Y-119996058D02*
X190401229Y-120049933D01*
X190401229Y-120049933D02*
X190320417Y-120076870D01*
X190320417Y-120076870D02*
X190266542Y-120076870D01*
X190266542Y-120076870D02*
X190185730Y-120049933D01*
X190185730Y-120049933D02*
X190051043Y-119969120D01*
X190051043Y-119969120D02*
X189916356Y-119834433D01*
X189916356Y-119834433D02*
X189835544Y-119699746D01*
X189835544Y-119699746D02*
X189808606Y-119618934D01*
X189808606Y-119618934D02*
X189808606Y-119565059D01*
X189808606Y-119565059D02*
X189835544Y-119484247D01*
X188919672Y-140773994D02*
X188838860Y-140800931D01*
X188838860Y-140800931D02*
X188758048Y-140881743D01*
X188758048Y-140881743D02*
X188704173Y-140989493D01*
X188704173Y-140989493D02*
X188704173Y-141097242D01*
X188704173Y-141097242D02*
X188731110Y-141178055D01*
X188731110Y-141178055D02*
X188811923Y-141312742D01*
X188811923Y-141312742D02*
X188892735Y-141393554D01*
X188892735Y-141393554D02*
X189027422Y-141474366D01*
X189027422Y-141474366D02*
X189108234Y-141501303D01*
X189108234Y-141501303D02*
X189215984Y-141501303D01*
X189215984Y-141501303D02*
X189323733Y-141447429D01*
X189323733Y-141447429D02*
X189377608Y-141393554D01*
X189377608Y-141393554D02*
X189431483Y-141285804D01*
X189431483Y-141285804D02*
X189431483Y-141231929D01*
X189431483Y-141231929D02*
X189242921Y-141043368D01*
X189242921Y-141043368D02*
X189135171Y-141151117D01*
X189727794Y-141043368D02*
X189162109Y-140477682D01*
X189162109Y-140477682D02*
X189377608Y-140262183D01*
X189377608Y-140262183D02*
X189458420Y-140235246D01*
X189458420Y-140235246D02*
X189512295Y-140235246D01*
X189512295Y-140235246D02*
X189593107Y-140262183D01*
X189593107Y-140262183D02*
X189673919Y-140342995D01*
X189673919Y-140342995D02*
X189700857Y-140423807D01*
X189700857Y-140423807D02*
X189700857Y-140477682D01*
X189700857Y-140477682D02*
X189673919Y-140558494D01*
X189673919Y-140558494D02*
X189458420Y-140773994D01*
X189970231Y-139669560D02*
X189862481Y-139777310D01*
X189862481Y-139777310D02*
X189835544Y-139858122D01*
X189835544Y-139858122D02*
X189835544Y-139911997D01*
X189835544Y-139911997D02*
X189862481Y-140046684D01*
X189862481Y-140046684D02*
X189943293Y-140181371D01*
X189943293Y-140181371D02*
X190158793Y-140396870D01*
X190158793Y-140396870D02*
X190239605Y-140423807D01*
X190239605Y-140423807D02*
X190293480Y-140423807D01*
X190293480Y-140423807D02*
X190374292Y-140396870D01*
X190374292Y-140396870D02*
X190482041Y-140289120D01*
X190482041Y-140289120D02*
X190508979Y-140208308D01*
X190508979Y-140208308D02*
X190508979Y-140154433D01*
X190508979Y-140154433D02*
X190482041Y-140073621D01*
X190482041Y-140073621D02*
X190347354Y-139938934D01*
X190347354Y-139938934D02*
X190266542Y-139911997D01*
X190266542Y-139911997D02*
X190212667Y-139911997D01*
X190212667Y-139911997D02*
X190131855Y-139938934D01*
X190131855Y-139938934D02*
X190024106Y-140046684D01*
X190024106Y-140046684D02*
X189997168Y-140127496D01*
X189997168Y-140127496D02*
X189997168Y-140181371D01*
X189997168Y-140181371D02*
X190024106Y-140262183D01*
X188892735Y-125560931D02*
X188811923Y-125587868D01*
X188811923Y-125587868D02*
X188731111Y-125668680D01*
X188731111Y-125668680D02*
X188677236Y-125776430D01*
X188677236Y-125776430D02*
X188677236Y-125884180D01*
X188677236Y-125884180D02*
X188704173Y-125964992D01*
X188704173Y-125964992D02*
X188784985Y-126099679D01*
X188784985Y-126099679D02*
X188865798Y-126180491D01*
X188865798Y-126180491D02*
X189000485Y-126261303D01*
X189000485Y-126261303D02*
X189081297Y-126288241D01*
X189081297Y-126288241D02*
X189189046Y-126288241D01*
X189189046Y-126288241D02*
X189296796Y-126234366D01*
X189296796Y-126234366D02*
X189350671Y-126180491D01*
X189350671Y-126180491D02*
X189404546Y-126072741D01*
X189404546Y-126072741D02*
X189404546Y-126018867D01*
X189404546Y-126018867D02*
X189215984Y-125830305D01*
X189215984Y-125830305D02*
X189108234Y-125938054D01*
X189700857Y-125830305D02*
X189135172Y-125264619D01*
X189135172Y-125264619D02*
X190024106Y-125507056D01*
X190024106Y-125507056D02*
X189458420Y-124941371D01*
X190293480Y-125237682D02*
X189727794Y-124671997D01*
X189727794Y-124671997D02*
X189862481Y-124537310D01*
X189862481Y-124537310D02*
X189970231Y-124483435D01*
X189970231Y-124483435D02*
X190077980Y-124483435D01*
X190077980Y-124483435D02*
X190158793Y-124510372D01*
X190158793Y-124510372D02*
X190293480Y-124591185D01*
X190293480Y-124591185D02*
X190374292Y-124671997D01*
X190374292Y-124671997D02*
X190455104Y-124806684D01*
X190455104Y-124806684D02*
X190482041Y-124887496D01*
X190482041Y-124887496D02*
X190482041Y-124995246D01*
X190482041Y-124995246D02*
X190428167Y-125102995D01*
X190428167Y-125102995D02*
X190293480Y-125237682D01*
X214504298Y-135709368D02*
X214423485Y-135736305D01*
X214423485Y-135736305D02*
X214342673Y-135817118D01*
X214342673Y-135817118D02*
X214288798Y-135924867D01*
X214288798Y-135924867D02*
X214288798Y-136032617D01*
X214288798Y-136032617D02*
X214315736Y-136113429D01*
X214315736Y-136113429D02*
X214396548Y-136248116D01*
X214396548Y-136248116D02*
X214477360Y-136328928D01*
X214477360Y-136328928D02*
X214612047Y-136409741D01*
X214612047Y-136409741D02*
X214692860Y-136436678D01*
X214692860Y-136436678D02*
X214800609Y-136436678D01*
X214800609Y-136436678D02*
X214908359Y-136382803D01*
X214908359Y-136382803D02*
X214962234Y-136328928D01*
X214962234Y-136328928D02*
X215016108Y-136221179D01*
X215016108Y-136221179D02*
X215016108Y-136167304D01*
X215016108Y-136167304D02*
X214827547Y-135978742D01*
X214827547Y-135978742D02*
X214719797Y-136086492D01*
X215312420Y-135978742D02*
X214746734Y-135413057D01*
X214746734Y-135413057D02*
X214962234Y-135197557D01*
X214962234Y-135197557D02*
X215043046Y-135170620D01*
X215043046Y-135170620D02*
X215096921Y-135170620D01*
X215096921Y-135170620D02*
X215177733Y-135197557D01*
X215177733Y-135197557D02*
X215258545Y-135278370D01*
X215258545Y-135278370D02*
X215285482Y-135359182D01*
X215285482Y-135359182D02*
X215285482Y-135413057D01*
X215285482Y-135413057D02*
X215258545Y-135493869D01*
X215258545Y-135493869D02*
X215043046Y-135709368D01*
X215339357Y-134928183D02*
X215339357Y-134874309D01*
X215339357Y-134874309D02*
X215366295Y-134793496D01*
X215366295Y-134793496D02*
X215500982Y-134658809D01*
X215500982Y-134658809D02*
X215581794Y-134631872D01*
X215581794Y-134631872D02*
X215635669Y-134631872D01*
X215635669Y-134631872D02*
X215716481Y-134658809D01*
X215716481Y-134658809D02*
X215770356Y-134712684D01*
X215770356Y-134712684D02*
X215824230Y-134820434D01*
X215824230Y-134820434D02*
X215824230Y-135466931D01*
X215824230Y-135466931D02*
X216174417Y-135116745D01*
X216174417Y-134470247D02*
X216093605Y-134497185D01*
X216093605Y-134497185D02*
X216039730Y-134497185D01*
X216039730Y-134497185D02*
X215958918Y-134470247D01*
X215958918Y-134470247D02*
X215931980Y-134443310D01*
X215931980Y-134443310D02*
X215905043Y-134362498D01*
X215905043Y-134362498D02*
X215905043Y-134308623D01*
X215905043Y-134308623D02*
X215931980Y-134227811D01*
X215931980Y-134227811D02*
X216039730Y-134120061D01*
X216039730Y-134120061D02*
X216120542Y-134093124D01*
X216120542Y-134093124D02*
X216174417Y-134093124D01*
X216174417Y-134093124D02*
X216255229Y-134120061D01*
X216255229Y-134120061D02*
X216282166Y-134146999D01*
X216282166Y-134146999D02*
X216309104Y-134227811D01*
X216309104Y-134227811D02*
X216309104Y-134281686D01*
X216309104Y-134281686D02*
X216282166Y-134362498D01*
X216282166Y-134362498D02*
X216174417Y-134470247D01*
X216174417Y-134470247D02*
X216147479Y-134551060D01*
X216147479Y-134551060D02*
X216147479Y-134604934D01*
X216147479Y-134604934D02*
X216174417Y-134685747D01*
X216174417Y-134685747D02*
X216282166Y-134793496D01*
X216282166Y-134793496D02*
X216362979Y-134820434D01*
X216362979Y-134820434D02*
X216416853Y-134820434D01*
X216416853Y-134820434D02*
X216497666Y-134793496D01*
X216497666Y-134793496D02*
X216605415Y-134685747D01*
X216605415Y-134685747D02*
X216632353Y-134604934D01*
X216632353Y-134604934D02*
X216632353Y-134551060D01*
X216632353Y-134551060D02*
X216605415Y-134470247D01*
X216605415Y-134470247D02*
X216497666Y-134362498D01*
X216497666Y-134362498D02*
X216416853Y-134335560D01*
X216416853Y-134335560D02*
X216362979Y-134335560D01*
X216362979Y-134335560D02*
X216282166Y-134362498D01*
X214504298Y-153753368D02*
X214423485Y-153780305D01*
X214423485Y-153780305D02*
X214342673Y-153861118D01*
X214342673Y-153861118D02*
X214288798Y-153968867D01*
X214288798Y-153968867D02*
X214288798Y-154076617D01*
X214288798Y-154076617D02*
X214315736Y-154157429D01*
X214315736Y-154157429D02*
X214396548Y-154292116D01*
X214396548Y-154292116D02*
X214477360Y-154372928D01*
X214477360Y-154372928D02*
X214612047Y-154453741D01*
X214612047Y-154453741D02*
X214692860Y-154480678D01*
X214692860Y-154480678D02*
X214800609Y-154480678D01*
X214800609Y-154480678D02*
X214908359Y-154426803D01*
X214908359Y-154426803D02*
X214962234Y-154372928D01*
X214962234Y-154372928D02*
X215016108Y-154265179D01*
X215016108Y-154265179D02*
X215016108Y-154211304D01*
X215016108Y-154211304D02*
X214827547Y-154022742D01*
X214827547Y-154022742D02*
X214719797Y-154130492D01*
X215312420Y-154022742D02*
X214746734Y-153457057D01*
X214746734Y-153457057D02*
X214962234Y-153241557D01*
X214962234Y-153241557D02*
X215043046Y-153214620D01*
X215043046Y-153214620D02*
X215096921Y-153214620D01*
X215096921Y-153214620D02*
X215177733Y-153241557D01*
X215177733Y-153241557D02*
X215258545Y-153322370D01*
X215258545Y-153322370D02*
X215285482Y-153403182D01*
X215285482Y-153403182D02*
X215285482Y-153457057D01*
X215285482Y-153457057D02*
X215258545Y-153537869D01*
X215258545Y-153537869D02*
X215043046Y-153753368D01*
X215339357Y-152972183D02*
X215339357Y-152918309D01*
X215339357Y-152918309D02*
X215366295Y-152837496D01*
X215366295Y-152837496D02*
X215500982Y-152702809D01*
X215500982Y-152702809D02*
X215581794Y-152675872D01*
X215581794Y-152675872D02*
X215635669Y-152675872D01*
X215635669Y-152675872D02*
X215716481Y-152702809D01*
X215716481Y-152702809D02*
X215770356Y-152756684D01*
X215770356Y-152756684D02*
X215824230Y-152864434D01*
X215824230Y-152864434D02*
X215824230Y-153510931D01*
X215824230Y-153510931D02*
X216174417Y-153160745D01*
X216713165Y-152621997D02*
X216389916Y-152945246D01*
X216551540Y-152783621D02*
X215985855Y-152217936D01*
X215985855Y-152217936D02*
X216012792Y-152352623D01*
X216012792Y-152352623D02*
X216012792Y-152460373D01*
X216012792Y-152460373D02*
X215985855Y-152541185D01*
X214359706Y-120990085D02*
X215113953Y-121367209D01*
X215113953Y-121367209D02*
X214736829Y-120612962D01*
X215383327Y-120505212D02*
X215491076Y-120451338D01*
X215491076Y-120451338D02*
X215544951Y-120451338D01*
X215544951Y-120451338D02*
X215625763Y-120478275D01*
X215625763Y-120478275D02*
X215706576Y-120559087D01*
X215706576Y-120559087D02*
X215733513Y-120639899D01*
X215733513Y-120639899D02*
X215733513Y-120693774D01*
X215733513Y-120693774D02*
X215706576Y-120774586D01*
X215706576Y-120774586D02*
X215491076Y-120990086D01*
X215491076Y-120990086D02*
X214925391Y-120424400D01*
X214925391Y-120424400D02*
X215113953Y-120235838D01*
X215113953Y-120235838D02*
X215194765Y-120208901D01*
X215194765Y-120208901D02*
X215248640Y-120208901D01*
X215248640Y-120208901D02*
X215329452Y-120235838D01*
X215329452Y-120235838D02*
X215383327Y-120289713D01*
X215383327Y-120289713D02*
X215410264Y-120370525D01*
X215410264Y-120370525D02*
X215410264Y-120424400D01*
X215410264Y-120424400D02*
X215383327Y-120505212D01*
X215383327Y-120505212D02*
X215194765Y-120693774D01*
X215491076Y-119858715D02*
X215949012Y-120316651D01*
X215949012Y-120316651D02*
X216029824Y-120343588D01*
X216029824Y-120343588D02*
X216083699Y-120343588D01*
X216083699Y-120343588D02*
X216164511Y-120316651D01*
X216164511Y-120316651D02*
X216272261Y-120208901D01*
X216272261Y-120208901D02*
X216299198Y-120128089D01*
X216299198Y-120128089D02*
X216299198Y-120074214D01*
X216299198Y-120074214D02*
X216272261Y-119993402D01*
X216272261Y-119993402D02*
X215814325Y-119535466D01*
X216595510Y-119831777D02*
X216703259Y-119777903D01*
X216703259Y-119777903D02*
X216837946Y-119643216D01*
X216837946Y-119643216D02*
X216864884Y-119562403D01*
X216864884Y-119562403D02*
X216864884Y-119508529D01*
X216864884Y-119508529D02*
X216837946Y-119427716D01*
X216837946Y-119427716D02*
X216784071Y-119373842D01*
X216784071Y-119373842D02*
X216703259Y-119346904D01*
X216703259Y-119346904D02*
X216649384Y-119346904D01*
X216649384Y-119346904D02*
X216568572Y-119373842D01*
X216568572Y-119373842D02*
X216433885Y-119454654D01*
X216433885Y-119454654D02*
X216353073Y-119481591D01*
X216353073Y-119481591D02*
X216299198Y-119481591D01*
X216299198Y-119481591D02*
X216218386Y-119454654D01*
X216218386Y-119454654D02*
X216164511Y-119400779D01*
X216164511Y-119400779D02*
X216137574Y-119319967D01*
X216137574Y-119319967D02*
X216137574Y-119266092D01*
X216137574Y-119266092D02*
X216164511Y-119185280D01*
X216164511Y-119185280D02*
X216299198Y-119050593D01*
X216299198Y-119050593D02*
X216406948Y-118996718D01*
X188919672Y-135693994D02*
X188838860Y-135720931D01*
X188838860Y-135720931D02*
X188758048Y-135801743D01*
X188758048Y-135801743D02*
X188704173Y-135909493D01*
X188704173Y-135909493D02*
X188704173Y-136017242D01*
X188704173Y-136017242D02*
X188731110Y-136098055D01*
X188731110Y-136098055D02*
X188811923Y-136232742D01*
X188811923Y-136232742D02*
X188892735Y-136313554D01*
X188892735Y-136313554D02*
X189027422Y-136394366D01*
X189027422Y-136394366D02*
X189108234Y-136421303D01*
X189108234Y-136421303D02*
X189215984Y-136421303D01*
X189215984Y-136421303D02*
X189323733Y-136367429D01*
X189323733Y-136367429D02*
X189377608Y-136313554D01*
X189377608Y-136313554D02*
X189431483Y-136205804D01*
X189431483Y-136205804D02*
X189431483Y-136151929D01*
X189431483Y-136151929D02*
X189242921Y-135963368D01*
X189242921Y-135963368D02*
X189135171Y-136071117D01*
X189727794Y-135963368D02*
X189162109Y-135397682D01*
X189162109Y-135397682D02*
X189377608Y-135182183D01*
X189377608Y-135182183D02*
X189458420Y-135155246D01*
X189458420Y-135155246D02*
X189512295Y-135155246D01*
X189512295Y-135155246D02*
X189593107Y-135182183D01*
X189593107Y-135182183D02*
X189673919Y-135262995D01*
X189673919Y-135262995D02*
X189700857Y-135343807D01*
X189700857Y-135343807D02*
X189700857Y-135397682D01*
X189700857Y-135397682D02*
X189673919Y-135478494D01*
X189673919Y-135478494D02*
X189458420Y-135693994D01*
X189997168Y-134562623D02*
X189727794Y-134831997D01*
X189727794Y-134831997D02*
X189970231Y-135128308D01*
X189970231Y-135128308D02*
X189970231Y-135074433D01*
X189970231Y-135074433D02*
X189997168Y-134993621D01*
X189997168Y-134993621D02*
X190131855Y-134858934D01*
X190131855Y-134858934D02*
X190212667Y-134831997D01*
X190212667Y-134831997D02*
X190266542Y-134831997D01*
X190266542Y-134831997D02*
X190347354Y-134858934D01*
X190347354Y-134858934D02*
X190482041Y-134993621D01*
X190482041Y-134993621D02*
X190508979Y-135074433D01*
X190508979Y-135074433D02*
X190508979Y-135128308D01*
X190508979Y-135128308D02*
X190482041Y-135209120D01*
X190482041Y-135209120D02*
X190347354Y-135343807D01*
X190347354Y-135343807D02*
X190266542Y-135370745D01*
X190266542Y-135370745D02*
X190212667Y-135370745D01*
X214492735Y-150960931D02*
X214411923Y-150987868D01*
X214411923Y-150987868D02*
X214331111Y-151068680D01*
X214331111Y-151068680D02*
X214277236Y-151176430D01*
X214277236Y-151176430D02*
X214277236Y-151284180D01*
X214277236Y-151284180D02*
X214304173Y-151364992D01*
X214304173Y-151364992D02*
X214384985Y-151499679D01*
X214384985Y-151499679D02*
X214465798Y-151580491D01*
X214465798Y-151580491D02*
X214600485Y-151661303D01*
X214600485Y-151661303D02*
X214681297Y-151688241D01*
X214681297Y-151688241D02*
X214789046Y-151688241D01*
X214789046Y-151688241D02*
X214896796Y-151634366D01*
X214896796Y-151634366D02*
X214950671Y-151580491D01*
X214950671Y-151580491D02*
X215004546Y-151472741D01*
X215004546Y-151472741D02*
X215004546Y-151418867D01*
X215004546Y-151418867D02*
X214815984Y-151230305D01*
X214815984Y-151230305D02*
X214708234Y-151338054D01*
X215300857Y-151230305D02*
X214735172Y-150664619D01*
X214735172Y-150664619D02*
X215624106Y-150907056D01*
X215624106Y-150907056D02*
X215058420Y-150341371D01*
X215893480Y-150637682D02*
X215327794Y-150071997D01*
X215327794Y-150071997D02*
X215462481Y-149937310D01*
X215462481Y-149937310D02*
X215570231Y-149883435D01*
X215570231Y-149883435D02*
X215677980Y-149883435D01*
X215677980Y-149883435D02*
X215758793Y-149910372D01*
X215758793Y-149910372D02*
X215893480Y-149991185D01*
X215893480Y-149991185D02*
X215974292Y-150071997D01*
X215974292Y-150071997D02*
X216055104Y-150206684D01*
X216055104Y-150206684D02*
X216082041Y-150287496D01*
X216082041Y-150287496D02*
X216082041Y-150395246D01*
X216082041Y-150395246D02*
X216028167Y-150502995D01*
X216028167Y-150502995D02*
X215893480Y-150637682D01*
X188919672Y-130613994D02*
X188838860Y-130640931D01*
X188838860Y-130640931D02*
X188758048Y-130721743D01*
X188758048Y-130721743D02*
X188704173Y-130829493D01*
X188704173Y-130829493D02*
X188704173Y-130937242D01*
X188704173Y-130937242D02*
X188731110Y-131018055D01*
X188731110Y-131018055D02*
X188811923Y-131152742D01*
X188811923Y-131152742D02*
X188892735Y-131233554D01*
X188892735Y-131233554D02*
X189027422Y-131314366D01*
X189027422Y-131314366D02*
X189108234Y-131341303D01*
X189108234Y-131341303D02*
X189215984Y-131341303D01*
X189215984Y-131341303D02*
X189323733Y-131287429D01*
X189323733Y-131287429D02*
X189377608Y-131233554D01*
X189377608Y-131233554D02*
X189431483Y-131125804D01*
X189431483Y-131125804D02*
X189431483Y-131071929D01*
X189431483Y-131071929D02*
X189242921Y-130883368D01*
X189242921Y-130883368D02*
X189135171Y-130991117D01*
X189727794Y-130883368D02*
X189162109Y-130317682D01*
X189162109Y-130317682D02*
X189377608Y-130102183D01*
X189377608Y-130102183D02*
X189458420Y-130075246D01*
X189458420Y-130075246D02*
X189512295Y-130075246D01*
X189512295Y-130075246D02*
X189593107Y-130102183D01*
X189593107Y-130102183D02*
X189673919Y-130182995D01*
X189673919Y-130182995D02*
X189700857Y-130263807D01*
X189700857Y-130263807D02*
X189700857Y-130317682D01*
X189700857Y-130317682D02*
X189673919Y-130398494D01*
X189673919Y-130398494D02*
X189458420Y-130613994D01*
X189673919Y-129805872D02*
X190024106Y-129455685D01*
X190024106Y-129455685D02*
X190051043Y-129859746D01*
X190051043Y-129859746D02*
X190131855Y-129778934D01*
X190131855Y-129778934D02*
X190212667Y-129751997D01*
X190212667Y-129751997D02*
X190266542Y-129751997D01*
X190266542Y-129751997D02*
X190347354Y-129778934D01*
X190347354Y-129778934D02*
X190482041Y-129913621D01*
X190482041Y-129913621D02*
X190508979Y-129994433D01*
X190508979Y-129994433D02*
X190508979Y-130048308D01*
X190508979Y-130048308D02*
X190482041Y-130129120D01*
X190482041Y-130129120D02*
X190320417Y-130290745D01*
X190320417Y-130290745D02*
X190239605Y-130317682D01*
X190239605Y-130317682D02*
X190185730Y-130317682D01*
X214296423Y-130953368D02*
X214646609Y-130603182D01*
X214646609Y-130603182D02*
X214673547Y-131007243D01*
X214673547Y-131007243D02*
X214754359Y-130926431D01*
X214754359Y-130926431D02*
X214835171Y-130899493D01*
X214835171Y-130899493D02*
X214889046Y-130899493D01*
X214889046Y-130899493D02*
X214969858Y-130926431D01*
X214969858Y-130926431D02*
X215104545Y-131061118D01*
X215104545Y-131061118D02*
X215131482Y-131141930D01*
X215131482Y-131141930D02*
X215131482Y-131195805D01*
X215131482Y-131195805D02*
X215104545Y-131276617D01*
X215104545Y-131276617D02*
X214942921Y-131438241D01*
X214942921Y-131438241D02*
X214862108Y-131465179D01*
X214862108Y-131465179D02*
X214808234Y-131465179D01*
X214808234Y-130441557D02*
X215562481Y-130818681D01*
X215562481Y-130818681D02*
X215185357Y-130064434D01*
X215320044Y-129929747D02*
X215670230Y-129579561D01*
X215670230Y-129579561D02*
X215697168Y-129983622D01*
X215697168Y-129983622D02*
X215777980Y-129902809D01*
X215777980Y-129902809D02*
X215858792Y-129875872D01*
X215858792Y-129875872D02*
X215912667Y-129875872D01*
X215912667Y-129875872D02*
X215993479Y-129902809D01*
X215993479Y-129902809D02*
X216128166Y-130037496D01*
X216128166Y-130037496D02*
X216155104Y-130118309D01*
X216155104Y-130118309D02*
X216155104Y-130172183D01*
X216155104Y-130172183D02*
X216128166Y-130252996D01*
X216128166Y-130252996D02*
X215966542Y-130414620D01*
X215966542Y-130414620D02*
X215885730Y-130441557D01*
X215885730Y-130441557D02*
X215831855Y-130441557D01*
X188819672Y-128073994D02*
X188738860Y-128100931D01*
X188738860Y-128100931D02*
X188658048Y-128181743D01*
X188658048Y-128181743D02*
X188604173Y-128289493D01*
X188604173Y-128289493D02*
X188604173Y-128397242D01*
X188604173Y-128397242D02*
X188631110Y-128478055D01*
X188631110Y-128478055D02*
X188711923Y-128612742D01*
X188711923Y-128612742D02*
X188792735Y-128693554D01*
X188792735Y-128693554D02*
X188927422Y-128774366D01*
X188927422Y-128774366D02*
X189008234Y-128801303D01*
X189008234Y-128801303D02*
X189115984Y-128801303D01*
X189115984Y-128801303D02*
X189223733Y-128747429D01*
X189223733Y-128747429D02*
X189277608Y-128693554D01*
X189277608Y-128693554D02*
X189331483Y-128585804D01*
X189331483Y-128585804D02*
X189331483Y-128531929D01*
X189331483Y-128531929D02*
X189142921Y-128343368D01*
X189142921Y-128343368D02*
X189035171Y-128451117D01*
X189627794Y-128343368D02*
X189062109Y-127777682D01*
X189062109Y-127777682D02*
X189277608Y-127562183D01*
X189277608Y-127562183D02*
X189358420Y-127535246D01*
X189358420Y-127535246D02*
X189412295Y-127535246D01*
X189412295Y-127535246D02*
X189493107Y-127562183D01*
X189493107Y-127562183D02*
X189573919Y-127642995D01*
X189573919Y-127642995D02*
X189600857Y-127723807D01*
X189600857Y-127723807D02*
X189600857Y-127777682D01*
X189600857Y-127777682D02*
X189573919Y-127858494D01*
X189573919Y-127858494D02*
X189358420Y-128073994D01*
X189654732Y-127292809D02*
X189654732Y-127238934D01*
X189654732Y-127238934D02*
X189681669Y-127158122D01*
X189681669Y-127158122D02*
X189816356Y-127023435D01*
X189816356Y-127023435D02*
X189897168Y-126996498D01*
X189897168Y-126996498D02*
X189951043Y-126996498D01*
X189951043Y-126996498D02*
X190031855Y-127023435D01*
X190031855Y-127023435D02*
X190085730Y-127077310D01*
X190085730Y-127077310D02*
X190139605Y-127185059D01*
X190139605Y-127185059D02*
X190139605Y-127831557D01*
X190139605Y-127831557D02*
X190489791Y-127481371D01*
X188919672Y-148393994D02*
X188838860Y-148420931D01*
X188838860Y-148420931D02*
X188758048Y-148501743D01*
X188758048Y-148501743D02*
X188704173Y-148609493D01*
X188704173Y-148609493D02*
X188704173Y-148717242D01*
X188704173Y-148717242D02*
X188731110Y-148798055D01*
X188731110Y-148798055D02*
X188811923Y-148932742D01*
X188811923Y-148932742D02*
X188892735Y-149013554D01*
X188892735Y-149013554D02*
X189027422Y-149094366D01*
X189027422Y-149094366D02*
X189108234Y-149121303D01*
X189108234Y-149121303D02*
X189215984Y-149121303D01*
X189215984Y-149121303D02*
X189323733Y-149067429D01*
X189323733Y-149067429D02*
X189377608Y-149013554D01*
X189377608Y-149013554D02*
X189431483Y-148905804D01*
X189431483Y-148905804D02*
X189431483Y-148851929D01*
X189431483Y-148851929D02*
X189242921Y-148663368D01*
X189242921Y-148663368D02*
X189135171Y-148771117D01*
X189727794Y-148663368D02*
X189162109Y-148097682D01*
X189162109Y-148097682D02*
X189377608Y-147882183D01*
X189377608Y-147882183D02*
X189458420Y-147855246D01*
X189458420Y-147855246D02*
X189512295Y-147855246D01*
X189512295Y-147855246D02*
X189593107Y-147882183D01*
X189593107Y-147882183D02*
X189673919Y-147962995D01*
X189673919Y-147962995D02*
X189700857Y-148043807D01*
X189700857Y-148043807D02*
X189700857Y-148097682D01*
X189700857Y-148097682D02*
X189673919Y-148178494D01*
X189673919Y-148178494D02*
X189458420Y-148393994D01*
X190320417Y-148070745D02*
X190428167Y-147962995D01*
X190428167Y-147962995D02*
X190455104Y-147882183D01*
X190455104Y-147882183D02*
X190455104Y-147828308D01*
X190455104Y-147828308D02*
X190428167Y-147693621D01*
X190428167Y-147693621D02*
X190347354Y-147558934D01*
X190347354Y-147558934D02*
X190131855Y-147343435D01*
X190131855Y-147343435D02*
X190051043Y-147316498D01*
X190051043Y-147316498D02*
X189997168Y-147316498D01*
X189997168Y-147316498D02*
X189916356Y-147343435D01*
X189916356Y-147343435D02*
X189808606Y-147451185D01*
X189808606Y-147451185D02*
X189781669Y-147531997D01*
X189781669Y-147531997D02*
X189781669Y-147585872D01*
X189781669Y-147585872D02*
X189808606Y-147666684D01*
X189808606Y-147666684D02*
X189943293Y-147801371D01*
X189943293Y-147801371D02*
X190024106Y-147828308D01*
X190024106Y-147828308D02*
X190077980Y-147828308D01*
X190077980Y-147828308D02*
X190158793Y-147801371D01*
X190158793Y-147801371D02*
X190266542Y-147693621D01*
X190266542Y-147693621D02*
X190293480Y-147612809D01*
X190293480Y-147612809D02*
X190293480Y-147558934D01*
X190293480Y-147558934D02*
X190266542Y-147478122D01*
X215244951Y-146406210D02*
X214787016Y-146325398D01*
X214921703Y-146729459D02*
X214356017Y-146163774D01*
X214356017Y-146163774D02*
X214571516Y-145948275D01*
X214571516Y-145948275D02*
X214652329Y-145921337D01*
X214652329Y-145921337D02*
X214706203Y-145921337D01*
X214706203Y-145921337D02*
X214787016Y-145948275D01*
X214787016Y-145948275D02*
X214867828Y-146029087D01*
X214867828Y-146029087D02*
X214894765Y-146109899D01*
X214894765Y-146109899D02*
X214894765Y-146163774D01*
X214894765Y-146163774D02*
X214867828Y-146244586D01*
X214867828Y-146244586D02*
X214652329Y-146460085D01*
X214921703Y-145598088D02*
X215379638Y-146056024D01*
X215379638Y-146056024D02*
X215460451Y-146082962D01*
X215460451Y-146082962D02*
X215514325Y-146082962D01*
X215514325Y-146082962D02*
X215595138Y-146056024D01*
X215595138Y-146056024D02*
X215702887Y-145948275D01*
X215702887Y-145948275D02*
X215729825Y-145867462D01*
X215729825Y-145867462D02*
X215729825Y-145813588D01*
X215729825Y-145813588D02*
X215702887Y-145732775D01*
X215702887Y-145732775D02*
X215244951Y-145274840D01*
X216080011Y-145571151D02*
X215514325Y-145005466D01*
X215514325Y-145005466D02*
X216403259Y-145247902D01*
X216403259Y-145247902D02*
X215837574Y-144682217D01*
X188919672Y-145853994D02*
X188838860Y-145880931D01*
X188838860Y-145880931D02*
X188758048Y-145961743D01*
X188758048Y-145961743D02*
X188704173Y-146069493D01*
X188704173Y-146069493D02*
X188704173Y-146177242D01*
X188704173Y-146177242D02*
X188731110Y-146258055D01*
X188731110Y-146258055D02*
X188811923Y-146392742D01*
X188811923Y-146392742D02*
X188892735Y-146473554D01*
X188892735Y-146473554D02*
X189027422Y-146554366D01*
X189027422Y-146554366D02*
X189108234Y-146581303D01*
X189108234Y-146581303D02*
X189215984Y-146581303D01*
X189215984Y-146581303D02*
X189323733Y-146527429D01*
X189323733Y-146527429D02*
X189377608Y-146473554D01*
X189377608Y-146473554D02*
X189431483Y-146365804D01*
X189431483Y-146365804D02*
X189431483Y-146311929D01*
X189431483Y-146311929D02*
X189242921Y-146123368D01*
X189242921Y-146123368D02*
X189135171Y-146231117D01*
X189727794Y-146123368D02*
X189162109Y-145557682D01*
X189162109Y-145557682D02*
X189377608Y-145342183D01*
X189377608Y-145342183D02*
X189458420Y-145315246D01*
X189458420Y-145315246D02*
X189512295Y-145315246D01*
X189512295Y-145315246D02*
X189593107Y-145342183D01*
X189593107Y-145342183D02*
X189673919Y-145422995D01*
X189673919Y-145422995D02*
X189700857Y-145503807D01*
X189700857Y-145503807D02*
X189700857Y-145557682D01*
X189700857Y-145557682D02*
X189673919Y-145638494D01*
X189673919Y-145638494D02*
X189458420Y-145853994D01*
X190051043Y-145153621D02*
X189970231Y-145180559D01*
X189970231Y-145180559D02*
X189916356Y-145180559D01*
X189916356Y-145180559D02*
X189835544Y-145153621D01*
X189835544Y-145153621D02*
X189808606Y-145126684D01*
X189808606Y-145126684D02*
X189781669Y-145045872D01*
X189781669Y-145045872D02*
X189781669Y-144991997D01*
X189781669Y-144991997D02*
X189808606Y-144911185D01*
X189808606Y-144911185D02*
X189916356Y-144803435D01*
X189916356Y-144803435D02*
X189997168Y-144776498D01*
X189997168Y-144776498D02*
X190051043Y-144776498D01*
X190051043Y-144776498D02*
X190131855Y-144803435D01*
X190131855Y-144803435D02*
X190158793Y-144830372D01*
X190158793Y-144830372D02*
X190185730Y-144911185D01*
X190185730Y-144911185D02*
X190185730Y-144965059D01*
X190185730Y-144965059D02*
X190158793Y-145045872D01*
X190158793Y-145045872D02*
X190051043Y-145153621D01*
X190051043Y-145153621D02*
X190024106Y-145234433D01*
X190024106Y-145234433D02*
X190024106Y-145288308D01*
X190024106Y-145288308D02*
X190051043Y-145369120D01*
X190051043Y-145369120D02*
X190158793Y-145476870D01*
X190158793Y-145476870D02*
X190239605Y-145503807D01*
X190239605Y-145503807D02*
X190293480Y-145503807D01*
X190293480Y-145503807D02*
X190374292Y-145476870D01*
X190374292Y-145476870D02*
X190482041Y-145369120D01*
X190482041Y-145369120D02*
X190508979Y-145288308D01*
X190508979Y-145288308D02*
X190508979Y-145234433D01*
X190508979Y-145234433D02*
X190482041Y-145153621D01*
X190482041Y-145153621D02*
X190374292Y-145045872D01*
X190374292Y-145045872D02*
X190293480Y-145018934D01*
X190293480Y-145018934D02*
X190239605Y-145018934D01*
X190239605Y-145018934D02*
X190158793Y-145045872D01*
X214504298Y-148663368D02*
X214423485Y-148690305D01*
X214423485Y-148690305D02*
X214342673Y-148771118D01*
X214342673Y-148771118D02*
X214288798Y-148878867D01*
X214288798Y-148878867D02*
X214288798Y-148986617D01*
X214288798Y-148986617D02*
X214315736Y-149067429D01*
X214315736Y-149067429D02*
X214396548Y-149202116D01*
X214396548Y-149202116D02*
X214477360Y-149282928D01*
X214477360Y-149282928D02*
X214612047Y-149363741D01*
X214612047Y-149363741D02*
X214692860Y-149390678D01*
X214692860Y-149390678D02*
X214800609Y-149390678D01*
X214800609Y-149390678D02*
X214908359Y-149336803D01*
X214908359Y-149336803D02*
X214962234Y-149282928D01*
X214962234Y-149282928D02*
X215016108Y-149175179D01*
X215016108Y-149175179D02*
X215016108Y-149121304D01*
X215016108Y-149121304D02*
X214827547Y-148932742D01*
X214827547Y-148932742D02*
X214719797Y-149040492D01*
X215312420Y-148932742D02*
X214746734Y-148367057D01*
X214746734Y-148367057D02*
X214962234Y-148151557D01*
X214962234Y-148151557D02*
X215043046Y-148124620D01*
X215043046Y-148124620D02*
X215096921Y-148124620D01*
X215096921Y-148124620D02*
X215177733Y-148151557D01*
X215177733Y-148151557D02*
X215258545Y-148232370D01*
X215258545Y-148232370D02*
X215285482Y-148313182D01*
X215285482Y-148313182D02*
X215285482Y-148367057D01*
X215285482Y-148367057D02*
X215258545Y-148447869D01*
X215258545Y-148447869D02*
X215043046Y-148663368D01*
X215339357Y-147882183D02*
X215339357Y-147828309D01*
X215339357Y-147828309D02*
X215366295Y-147747496D01*
X215366295Y-147747496D02*
X215500982Y-147612809D01*
X215500982Y-147612809D02*
X215581794Y-147585872D01*
X215581794Y-147585872D02*
X215635669Y-147585872D01*
X215635669Y-147585872D02*
X215716481Y-147612809D01*
X215716481Y-147612809D02*
X215770356Y-147666684D01*
X215770356Y-147666684D02*
X215824230Y-147774434D01*
X215824230Y-147774434D02*
X215824230Y-148420931D01*
X215824230Y-148420931D02*
X216174417Y-148070745D01*
X215878105Y-147343435D02*
X215878105Y-147289560D01*
X215878105Y-147289560D02*
X215905043Y-147208748D01*
X215905043Y-147208748D02*
X216039730Y-147074061D01*
X216039730Y-147074061D02*
X216120542Y-147047124D01*
X216120542Y-147047124D02*
X216174417Y-147047124D01*
X216174417Y-147047124D02*
X216255229Y-147074061D01*
X216255229Y-147074061D02*
X216309104Y-147127936D01*
X216309104Y-147127936D02*
X216362979Y-147235686D01*
X216362979Y-147235686D02*
X216362979Y-147882183D01*
X216362979Y-147882183D02*
X216713165Y-147531997D01*
X214504298Y-161363368D02*
X214423485Y-161390305D01*
X214423485Y-161390305D02*
X214342673Y-161471118D01*
X214342673Y-161471118D02*
X214288798Y-161578867D01*
X214288798Y-161578867D02*
X214288798Y-161686617D01*
X214288798Y-161686617D02*
X214315736Y-161767429D01*
X214315736Y-161767429D02*
X214396548Y-161902116D01*
X214396548Y-161902116D02*
X214477360Y-161982928D01*
X214477360Y-161982928D02*
X214612047Y-162063741D01*
X214612047Y-162063741D02*
X214692860Y-162090678D01*
X214692860Y-162090678D02*
X214800609Y-162090678D01*
X214800609Y-162090678D02*
X214908359Y-162036803D01*
X214908359Y-162036803D02*
X214962234Y-161982928D01*
X214962234Y-161982928D02*
X215016108Y-161875179D01*
X215016108Y-161875179D02*
X215016108Y-161821304D01*
X215016108Y-161821304D02*
X214827547Y-161632742D01*
X214827547Y-161632742D02*
X214719797Y-161740492D01*
X215312420Y-161632742D02*
X214746734Y-161067057D01*
X214746734Y-161067057D02*
X214962234Y-160851557D01*
X214962234Y-160851557D02*
X215043046Y-160824620D01*
X215043046Y-160824620D02*
X215096921Y-160824620D01*
X215096921Y-160824620D02*
X215177733Y-160851557D01*
X215177733Y-160851557D02*
X215258545Y-160932370D01*
X215258545Y-160932370D02*
X215285482Y-161013182D01*
X215285482Y-161013182D02*
X215285482Y-161067057D01*
X215285482Y-161067057D02*
X215258545Y-161147869D01*
X215258545Y-161147869D02*
X215043046Y-161363368D01*
X216174417Y-160770745D02*
X215851168Y-161093994D01*
X216012792Y-160932370D02*
X215447107Y-160366684D01*
X215447107Y-160366684D02*
X215474044Y-160501371D01*
X215474044Y-160501371D02*
X215474044Y-160609121D01*
X215474044Y-160609121D02*
X215447107Y-160689933D01*
X216174417Y-160124247D02*
X216093605Y-160151185D01*
X216093605Y-160151185D02*
X216039730Y-160151185D01*
X216039730Y-160151185D02*
X215958918Y-160124247D01*
X215958918Y-160124247D02*
X215931980Y-160097310D01*
X215931980Y-160097310D02*
X215905043Y-160016498D01*
X215905043Y-160016498D02*
X215905043Y-159962623D01*
X215905043Y-159962623D02*
X215931980Y-159881811D01*
X215931980Y-159881811D02*
X216039730Y-159774061D01*
X216039730Y-159774061D02*
X216120542Y-159747124D01*
X216120542Y-159747124D02*
X216174417Y-159747124D01*
X216174417Y-159747124D02*
X216255229Y-159774061D01*
X216255229Y-159774061D02*
X216282166Y-159800999D01*
X216282166Y-159800999D02*
X216309104Y-159881811D01*
X216309104Y-159881811D02*
X216309104Y-159935686D01*
X216309104Y-159935686D02*
X216282166Y-160016498D01*
X216282166Y-160016498D02*
X216174417Y-160124247D01*
X216174417Y-160124247D02*
X216147479Y-160205060D01*
X216147479Y-160205060D02*
X216147479Y-160258934D01*
X216147479Y-160258934D02*
X216174417Y-160339747D01*
X216174417Y-160339747D02*
X216282166Y-160447496D01*
X216282166Y-160447496D02*
X216362979Y-160474434D01*
X216362979Y-160474434D02*
X216416853Y-160474434D01*
X216416853Y-160474434D02*
X216497666Y-160447496D01*
X216497666Y-160447496D02*
X216605415Y-160339747D01*
X216605415Y-160339747D02*
X216632353Y-160258934D01*
X216632353Y-160258934D02*
X216632353Y-160205060D01*
X216632353Y-160205060D02*
X216605415Y-160124247D01*
X216605415Y-160124247D02*
X216497666Y-160016498D01*
X216497666Y-160016498D02*
X216416853Y-159989560D01*
X216416853Y-159989560D02*
X216362979Y-159989560D01*
X216362979Y-159989560D02*
X216282166Y-160016498D01*
X189019672Y-143283994D02*
X188938860Y-143310931D01*
X188938860Y-143310931D02*
X188858048Y-143391743D01*
X188858048Y-143391743D02*
X188804173Y-143499493D01*
X188804173Y-143499493D02*
X188804173Y-143607242D01*
X188804173Y-143607242D02*
X188831110Y-143688055D01*
X188831110Y-143688055D02*
X188911923Y-143822742D01*
X188911923Y-143822742D02*
X188992735Y-143903554D01*
X188992735Y-143903554D02*
X189127422Y-143984366D01*
X189127422Y-143984366D02*
X189208234Y-144011303D01*
X189208234Y-144011303D02*
X189315984Y-144011303D01*
X189315984Y-144011303D02*
X189423733Y-143957429D01*
X189423733Y-143957429D02*
X189477608Y-143903554D01*
X189477608Y-143903554D02*
X189531483Y-143795804D01*
X189531483Y-143795804D02*
X189531483Y-143741929D01*
X189531483Y-143741929D02*
X189342921Y-143553368D01*
X189342921Y-143553368D02*
X189235171Y-143661117D01*
X189827794Y-143553368D02*
X189262109Y-142987682D01*
X189262109Y-142987682D02*
X189477608Y-142772183D01*
X189477608Y-142772183D02*
X189558420Y-142745246D01*
X189558420Y-142745246D02*
X189612295Y-142745246D01*
X189612295Y-142745246D02*
X189693107Y-142772183D01*
X189693107Y-142772183D02*
X189773919Y-142852995D01*
X189773919Y-142852995D02*
X189800857Y-142933807D01*
X189800857Y-142933807D02*
X189800857Y-142987682D01*
X189800857Y-142987682D02*
X189773919Y-143068494D01*
X189773919Y-143068494D02*
X189558420Y-143283994D01*
X189773919Y-142475872D02*
X190151043Y-142098748D01*
X190151043Y-142098748D02*
X190474292Y-142906870D01*
X188819672Y-122983994D02*
X188738860Y-123010931D01*
X188738860Y-123010931D02*
X188658048Y-123091743D01*
X188658048Y-123091743D02*
X188604173Y-123199493D01*
X188604173Y-123199493D02*
X188604173Y-123307242D01*
X188604173Y-123307242D02*
X188631110Y-123388055D01*
X188631110Y-123388055D02*
X188711923Y-123522742D01*
X188711923Y-123522742D02*
X188792735Y-123603554D01*
X188792735Y-123603554D02*
X188927422Y-123684366D01*
X188927422Y-123684366D02*
X189008234Y-123711303D01*
X189008234Y-123711303D02*
X189115984Y-123711303D01*
X189115984Y-123711303D02*
X189223733Y-123657429D01*
X189223733Y-123657429D02*
X189277608Y-123603554D01*
X189277608Y-123603554D02*
X189331483Y-123495804D01*
X189331483Y-123495804D02*
X189331483Y-123441929D01*
X189331483Y-123441929D02*
X189142921Y-123253368D01*
X189142921Y-123253368D02*
X189035171Y-123361117D01*
X189627794Y-123253368D02*
X189062109Y-122687682D01*
X189062109Y-122687682D02*
X189277608Y-122472183D01*
X189277608Y-122472183D02*
X189358420Y-122445246D01*
X189358420Y-122445246D02*
X189412295Y-122445246D01*
X189412295Y-122445246D02*
X189493107Y-122472183D01*
X189493107Y-122472183D02*
X189573919Y-122552995D01*
X189573919Y-122552995D02*
X189600857Y-122633807D01*
X189600857Y-122633807D02*
X189600857Y-122687682D01*
X189600857Y-122687682D02*
X189573919Y-122768494D01*
X189573919Y-122768494D02*
X189358420Y-122983994D01*
X190489791Y-122391371D02*
X190166542Y-122714620D01*
X190328167Y-122552995D02*
X189762481Y-121987310D01*
X189762481Y-121987310D02*
X189789419Y-122121997D01*
X189789419Y-122121997D02*
X189789419Y-122229746D01*
X189789419Y-122229746D02*
X189762481Y-122310559D01*
X188892735Y-150960931D02*
X188811923Y-150987868D01*
X188811923Y-150987868D02*
X188731111Y-151068680D01*
X188731111Y-151068680D02*
X188677236Y-151176430D01*
X188677236Y-151176430D02*
X188677236Y-151284180D01*
X188677236Y-151284180D02*
X188704173Y-151364992D01*
X188704173Y-151364992D02*
X188784985Y-151499679D01*
X188784985Y-151499679D02*
X188865798Y-151580491D01*
X188865798Y-151580491D02*
X189000485Y-151661303D01*
X189000485Y-151661303D02*
X189081297Y-151688241D01*
X189081297Y-151688241D02*
X189189046Y-151688241D01*
X189189046Y-151688241D02*
X189296796Y-151634366D01*
X189296796Y-151634366D02*
X189350671Y-151580491D01*
X189350671Y-151580491D02*
X189404546Y-151472741D01*
X189404546Y-151472741D02*
X189404546Y-151418867D01*
X189404546Y-151418867D02*
X189215984Y-151230305D01*
X189215984Y-151230305D02*
X189108234Y-151338054D01*
X189700857Y-151230305D02*
X189135172Y-150664619D01*
X189135172Y-150664619D02*
X190024106Y-150907056D01*
X190024106Y-150907056D02*
X189458420Y-150341371D01*
X190293480Y-150637682D02*
X189727794Y-150071997D01*
X189727794Y-150071997D02*
X189862481Y-149937310D01*
X189862481Y-149937310D02*
X189970231Y-149883435D01*
X189970231Y-149883435D02*
X190077980Y-149883435D01*
X190077980Y-149883435D02*
X190158793Y-149910372D01*
X190158793Y-149910372D02*
X190293480Y-149991185D01*
X190293480Y-149991185D02*
X190374292Y-150071997D01*
X190374292Y-150071997D02*
X190455104Y-150206684D01*
X190455104Y-150206684D02*
X190482041Y-150287496D01*
X190482041Y-150287496D02*
X190482041Y-150395246D01*
X190482041Y-150395246D02*
X190428167Y-150502995D01*
X190428167Y-150502995D02*
X190293480Y-150637682D01*
X214328707Y-128421084D02*
X214678893Y-128070898D01*
X214678893Y-128070898D02*
X214705831Y-128474959D01*
X214705831Y-128474959D02*
X214786643Y-128394146D01*
X214786643Y-128394146D02*
X214867455Y-128367209D01*
X214867455Y-128367209D02*
X214921330Y-128367209D01*
X214921330Y-128367209D02*
X215002142Y-128394146D01*
X215002142Y-128394146D02*
X215136829Y-128528833D01*
X215136829Y-128528833D02*
X215163767Y-128609646D01*
X215163767Y-128609646D02*
X215163767Y-128663520D01*
X215163767Y-128663520D02*
X215136829Y-128744333D01*
X215136829Y-128744333D02*
X214975205Y-128905957D01*
X214975205Y-128905957D02*
X214894393Y-128932894D01*
X214894393Y-128932894D02*
X214840518Y-128932894D01*
X214840518Y-127909273D02*
X215594765Y-128286397D01*
X215594765Y-128286397D02*
X215217642Y-127532149D01*
X215352328Y-127397463D02*
X215702515Y-127047276D01*
X215702515Y-127047276D02*
X215729452Y-127451337D01*
X215729452Y-127451337D02*
X215810264Y-127370525D01*
X215810264Y-127370525D02*
X215891076Y-127343588D01*
X215891076Y-127343588D02*
X215944951Y-127343588D01*
X215944951Y-127343588D02*
X216025764Y-127370525D01*
X216025764Y-127370525D02*
X216160451Y-127505212D01*
X216160451Y-127505212D02*
X216187388Y-127586024D01*
X216187388Y-127586024D02*
X216187388Y-127639899D01*
X216187388Y-127639899D02*
X216160451Y-127720711D01*
X216160451Y-127720711D02*
X215998826Y-127882336D01*
X215998826Y-127882336D02*
X215918014Y-127909273D01*
X215918014Y-127909273D02*
X215864139Y-127909273D01*
X216429825Y-127559087D02*
X216860823Y-127128088D01*
X216645324Y-126643215D02*
X216833886Y-126454653D01*
X217211009Y-126670152D02*
X216941635Y-126939526D01*
X216941635Y-126939526D02*
X216375950Y-126373841D01*
X216375950Y-126373841D02*
X216645324Y-126104467D01*
X217453446Y-126427715D02*
X216887761Y-125862030D01*
X216887761Y-125862030D02*
X217776695Y-126104467D01*
X217776695Y-126104467D02*
X217211010Y-125538781D01*
X214327049Y-123532742D02*
X215081296Y-123909866D01*
X215081296Y-123909866D02*
X214704173Y-123155618D01*
X215404545Y-123532742D02*
X215512295Y-123478867D01*
X215512295Y-123478867D02*
X215646982Y-123344180D01*
X215646982Y-123344180D02*
X215673919Y-123263368D01*
X215673919Y-123263368D02*
X215673919Y-123209493D01*
X215673919Y-123209493D02*
X215646982Y-123128681D01*
X215646982Y-123128681D02*
X215593107Y-123074806D01*
X215593107Y-123074806D02*
X215512295Y-123047869D01*
X215512295Y-123047869D02*
X215458420Y-123047869D01*
X215458420Y-123047869D02*
X215377608Y-123074806D01*
X215377608Y-123074806D02*
X215242921Y-123155618D01*
X215242921Y-123155618D02*
X215162108Y-123182556D01*
X215162108Y-123182556D02*
X215108234Y-123182556D01*
X215108234Y-123182556D02*
X215027421Y-123155618D01*
X215027421Y-123155618D02*
X214973547Y-123101744D01*
X214973547Y-123101744D02*
X214946609Y-123020931D01*
X214946609Y-123020931D02*
X214946609Y-122967057D01*
X214946609Y-122967057D02*
X214973547Y-122886244D01*
X214973547Y-122886244D02*
X215108234Y-122751557D01*
X215108234Y-122751557D02*
X215215983Y-122697683D01*
X215835544Y-122616870D02*
X216104918Y-122886244D01*
X215350670Y-122509121D02*
X215835544Y-122616870D01*
X215835544Y-122616870D02*
X215727794Y-122131997D01*
X216428166Y-122509121D02*
X216535916Y-122455246D01*
X216535916Y-122455246D02*
X216670603Y-122320559D01*
X216670603Y-122320559D02*
X216697540Y-122239747D01*
X216697540Y-122239747D02*
X216697540Y-122185872D01*
X216697540Y-122185872D02*
X216670603Y-122105060D01*
X216670603Y-122105060D02*
X216616728Y-122051185D01*
X216616728Y-122051185D02*
X216535916Y-122024248D01*
X216535916Y-122024248D02*
X216482041Y-122024248D01*
X216482041Y-122024248D02*
X216401229Y-122051185D01*
X216401229Y-122051185D02*
X216266542Y-122131997D01*
X216266542Y-122131997D02*
X216185730Y-122158935D01*
X216185730Y-122158935D02*
X216131855Y-122158935D01*
X216131855Y-122158935D02*
X216051043Y-122131997D01*
X216051043Y-122131997D02*
X215997168Y-122078122D01*
X215997168Y-122078122D02*
X215970230Y-121997310D01*
X215970230Y-121997310D02*
X215970230Y-121943435D01*
X215970230Y-121943435D02*
X215997168Y-121862623D01*
X215997168Y-121862623D02*
X216131855Y-121727936D01*
X216131855Y-121727936D02*
X216239604Y-121674061D01*
X214492735Y-163660931D02*
X214411923Y-163687868D01*
X214411923Y-163687868D02*
X214331111Y-163768680D01*
X214331111Y-163768680D02*
X214277236Y-163876430D01*
X214277236Y-163876430D02*
X214277236Y-163984180D01*
X214277236Y-163984180D02*
X214304173Y-164064992D01*
X214304173Y-164064992D02*
X214384985Y-164199679D01*
X214384985Y-164199679D02*
X214465798Y-164280491D01*
X214465798Y-164280491D02*
X214600485Y-164361303D01*
X214600485Y-164361303D02*
X214681297Y-164388241D01*
X214681297Y-164388241D02*
X214789046Y-164388241D01*
X214789046Y-164388241D02*
X214896796Y-164334366D01*
X214896796Y-164334366D02*
X214950671Y-164280491D01*
X214950671Y-164280491D02*
X215004546Y-164172741D01*
X215004546Y-164172741D02*
X215004546Y-164118867D01*
X215004546Y-164118867D02*
X214815984Y-163930305D01*
X214815984Y-163930305D02*
X214708234Y-164038054D01*
X215300857Y-163930305D02*
X214735172Y-163364619D01*
X214735172Y-163364619D02*
X215624106Y-163607056D01*
X215624106Y-163607056D02*
X215058420Y-163041371D01*
X215893480Y-163337682D02*
X215327794Y-162771997D01*
X215327794Y-162771997D02*
X215462481Y-162637310D01*
X215462481Y-162637310D02*
X215570231Y-162583435D01*
X215570231Y-162583435D02*
X215677980Y-162583435D01*
X215677980Y-162583435D02*
X215758793Y-162610372D01*
X215758793Y-162610372D02*
X215893480Y-162691185D01*
X215893480Y-162691185D02*
X215974292Y-162771997D01*
X215974292Y-162771997D02*
X216055104Y-162906684D01*
X216055104Y-162906684D02*
X216082041Y-162987496D01*
X216082041Y-162987496D02*
X216082041Y-163095246D01*
X216082041Y-163095246D02*
X216028167Y-163202995D01*
X216028167Y-163202995D02*
X215893480Y-163337682D01*
X214504298Y-166443368D02*
X214423485Y-166470305D01*
X214423485Y-166470305D02*
X214342673Y-166551118D01*
X214342673Y-166551118D02*
X214288798Y-166658867D01*
X214288798Y-166658867D02*
X214288798Y-166766617D01*
X214288798Y-166766617D02*
X214315736Y-166847429D01*
X214315736Y-166847429D02*
X214396548Y-166982116D01*
X214396548Y-166982116D02*
X214477360Y-167062928D01*
X214477360Y-167062928D02*
X214612047Y-167143741D01*
X214612047Y-167143741D02*
X214692860Y-167170678D01*
X214692860Y-167170678D02*
X214800609Y-167170678D01*
X214800609Y-167170678D02*
X214908359Y-167116803D01*
X214908359Y-167116803D02*
X214962234Y-167062928D01*
X214962234Y-167062928D02*
X215016108Y-166955179D01*
X215016108Y-166955179D02*
X215016108Y-166901304D01*
X215016108Y-166901304D02*
X214827547Y-166712742D01*
X214827547Y-166712742D02*
X214719797Y-166820492D01*
X215312420Y-166712742D02*
X214746734Y-166147057D01*
X214746734Y-166147057D02*
X214962234Y-165931557D01*
X214962234Y-165931557D02*
X215043046Y-165904620D01*
X215043046Y-165904620D02*
X215096921Y-165904620D01*
X215096921Y-165904620D02*
X215177733Y-165931557D01*
X215177733Y-165931557D02*
X215258545Y-166012370D01*
X215258545Y-166012370D02*
X215285482Y-166093182D01*
X215285482Y-166093182D02*
X215285482Y-166147057D01*
X215285482Y-166147057D02*
X215258545Y-166227869D01*
X215258545Y-166227869D02*
X215043046Y-166443368D01*
X216174417Y-165850745D02*
X215851168Y-166173994D01*
X216012792Y-166012370D02*
X215447107Y-165446684D01*
X215447107Y-165446684D02*
X215474044Y-165581371D01*
X215474044Y-165581371D02*
X215474044Y-165689121D01*
X215474044Y-165689121D02*
X215447107Y-165769933D01*
X215797293Y-165096498D02*
X216174417Y-164719374D01*
X216174417Y-164719374D02*
X216497666Y-165527496D01*
X214504298Y-168983368D02*
X214423485Y-169010305D01*
X214423485Y-169010305D02*
X214342673Y-169091118D01*
X214342673Y-169091118D02*
X214288798Y-169198867D01*
X214288798Y-169198867D02*
X214288798Y-169306617D01*
X214288798Y-169306617D02*
X214315736Y-169387429D01*
X214315736Y-169387429D02*
X214396548Y-169522116D01*
X214396548Y-169522116D02*
X214477360Y-169602928D01*
X214477360Y-169602928D02*
X214612047Y-169683741D01*
X214612047Y-169683741D02*
X214692860Y-169710678D01*
X214692860Y-169710678D02*
X214800609Y-169710678D01*
X214800609Y-169710678D02*
X214908359Y-169656803D01*
X214908359Y-169656803D02*
X214962234Y-169602928D01*
X214962234Y-169602928D02*
X215016108Y-169495179D01*
X215016108Y-169495179D02*
X215016108Y-169441304D01*
X215016108Y-169441304D02*
X214827547Y-169252742D01*
X214827547Y-169252742D02*
X214719797Y-169360492D01*
X215312420Y-169252742D02*
X214746734Y-168687057D01*
X214746734Y-168687057D02*
X214962234Y-168471557D01*
X214962234Y-168471557D02*
X215043046Y-168444620D01*
X215043046Y-168444620D02*
X215096921Y-168444620D01*
X215096921Y-168444620D02*
X215177733Y-168471557D01*
X215177733Y-168471557D02*
X215258545Y-168552370D01*
X215258545Y-168552370D02*
X215285482Y-168633182D01*
X215285482Y-168633182D02*
X215285482Y-168687057D01*
X215285482Y-168687057D02*
X215258545Y-168767869D01*
X215258545Y-168767869D02*
X215043046Y-168983368D01*
X216174417Y-168390745D02*
X215851168Y-168713994D01*
X216012792Y-168552370D02*
X215447107Y-167986684D01*
X215447107Y-167986684D02*
X215474044Y-168121371D01*
X215474044Y-168121371D02*
X215474044Y-168229121D01*
X215474044Y-168229121D02*
X215447107Y-168309933D01*
X216093605Y-167340186D02*
X215985855Y-167447936D01*
X215985855Y-167447936D02*
X215958918Y-167528748D01*
X215958918Y-167528748D02*
X215958918Y-167582623D01*
X215958918Y-167582623D02*
X215985855Y-167717310D01*
X215985855Y-167717310D02*
X216066667Y-167851997D01*
X216066667Y-167851997D02*
X216282166Y-168067496D01*
X216282166Y-168067496D02*
X216362979Y-168094434D01*
X216362979Y-168094434D02*
X216416853Y-168094434D01*
X216416853Y-168094434D02*
X216497666Y-168067496D01*
X216497666Y-168067496D02*
X216605415Y-167959747D01*
X216605415Y-167959747D02*
X216632353Y-167878934D01*
X216632353Y-167878934D02*
X216632353Y-167825060D01*
X216632353Y-167825060D02*
X216605415Y-167744247D01*
X216605415Y-167744247D02*
X216470728Y-167609560D01*
X216470728Y-167609560D02*
X216389916Y-167582623D01*
X216389916Y-167582623D02*
X216336041Y-167582623D01*
X216336041Y-167582623D02*
X216255229Y-167609560D01*
X216255229Y-167609560D02*
X216147479Y-167717310D01*
X216147479Y-167717310D02*
X216120542Y-167798122D01*
X216120542Y-167798122D02*
X216120542Y-167851997D01*
X216120542Y-167851997D02*
X216147479Y-167932809D01*
X214558173Y-139203740D02*
X214827547Y-138934366D01*
X214665923Y-139419239D02*
X214288799Y-138664992D01*
X214288799Y-138664992D02*
X215043046Y-139042115D01*
X214989171Y-138018494D02*
X214908359Y-138045432D01*
X214908359Y-138045432D02*
X214827547Y-138126244D01*
X214827547Y-138126244D02*
X214773672Y-138233994D01*
X214773672Y-138233994D02*
X214773672Y-138341743D01*
X214773672Y-138341743D02*
X214800610Y-138422555D01*
X214800610Y-138422555D02*
X214881422Y-138557242D01*
X214881422Y-138557242D02*
X214962234Y-138638055D01*
X214962234Y-138638055D02*
X215096921Y-138718867D01*
X215096921Y-138718867D02*
X215177733Y-138745804D01*
X215177733Y-138745804D02*
X215285483Y-138745804D01*
X215285483Y-138745804D02*
X215393232Y-138691929D01*
X215393232Y-138691929D02*
X215447107Y-138638055D01*
X215447107Y-138638055D02*
X215500982Y-138530305D01*
X215500982Y-138530305D02*
X215500982Y-138476430D01*
X215500982Y-138476430D02*
X215312420Y-138287868D01*
X215312420Y-138287868D02*
X215204671Y-138395618D01*
X215797293Y-138287868D02*
X215231608Y-137722183D01*
X215231608Y-137722183D02*
X216120542Y-137964620D01*
X216120542Y-137964620D02*
X215554857Y-137398934D01*
X216389916Y-137695246D02*
X215824231Y-137129560D01*
X215824231Y-137129560D02*
X215958918Y-136994873D01*
X215958918Y-136994873D02*
X216066667Y-136940998D01*
X216066667Y-136940998D02*
X216174417Y-136940998D01*
X216174417Y-136940998D02*
X216255229Y-136967936D01*
X216255229Y-136967936D02*
X216389916Y-137048748D01*
X216389916Y-137048748D02*
X216470728Y-137129560D01*
X216470728Y-137129560D02*
X216551541Y-137264247D01*
X216551541Y-137264247D02*
X216578478Y-137345060D01*
X216578478Y-137345060D02*
X216578478Y-137452809D01*
X216578478Y-137452809D02*
X216524603Y-137560559D01*
X216524603Y-137560559D02*
X216389916Y-137695246D01*
X188250298Y-156283368D02*
X188169485Y-156310305D01*
X188169485Y-156310305D02*
X188088673Y-156391118D01*
X188088673Y-156391118D02*
X188034798Y-156498867D01*
X188034798Y-156498867D02*
X188034798Y-156606617D01*
X188034798Y-156606617D02*
X188061736Y-156687429D01*
X188061736Y-156687429D02*
X188142548Y-156822116D01*
X188142548Y-156822116D02*
X188223360Y-156902928D01*
X188223360Y-156902928D02*
X188358047Y-156983741D01*
X188358047Y-156983741D02*
X188438860Y-157010678D01*
X188438860Y-157010678D02*
X188546609Y-157010678D01*
X188546609Y-157010678D02*
X188654359Y-156956803D01*
X188654359Y-156956803D02*
X188708234Y-156902928D01*
X188708234Y-156902928D02*
X188762108Y-156795179D01*
X188762108Y-156795179D02*
X188762108Y-156741304D01*
X188762108Y-156741304D02*
X188573547Y-156552742D01*
X188573547Y-156552742D02*
X188465797Y-156660492D01*
X189058420Y-156552742D02*
X188492734Y-155987057D01*
X188492734Y-155987057D02*
X188708234Y-155771557D01*
X188708234Y-155771557D02*
X188789046Y-155744620D01*
X188789046Y-155744620D02*
X188842921Y-155744620D01*
X188842921Y-155744620D02*
X188923733Y-155771557D01*
X188923733Y-155771557D02*
X189004545Y-155852370D01*
X189004545Y-155852370D02*
X189031482Y-155933182D01*
X189031482Y-155933182D02*
X189031482Y-155987057D01*
X189031482Y-155987057D02*
X189004545Y-156067869D01*
X189004545Y-156067869D02*
X188789046Y-156283368D01*
X189920417Y-155690745D02*
X189597168Y-156013994D01*
X189758792Y-155852370D02*
X189193107Y-155286684D01*
X189193107Y-155286684D02*
X189220044Y-155421371D01*
X189220044Y-155421371D02*
X189220044Y-155529121D01*
X189220044Y-155529121D02*
X189193107Y-155609933D01*
X190459165Y-155151997D02*
X190135916Y-155475246D01*
X190297540Y-155313621D02*
X189731855Y-154747936D01*
X189731855Y-154747936D02*
X189758792Y-154882623D01*
X189758792Y-154882623D02*
X189758792Y-154990373D01*
X189758792Y-154990373D02*
X189731855Y-155071185D01*
X214504298Y-143583368D02*
X214423485Y-143610305D01*
X214423485Y-143610305D02*
X214342673Y-143691118D01*
X214342673Y-143691118D02*
X214288798Y-143798867D01*
X214288798Y-143798867D02*
X214288798Y-143906617D01*
X214288798Y-143906617D02*
X214315736Y-143987429D01*
X214315736Y-143987429D02*
X214396548Y-144122116D01*
X214396548Y-144122116D02*
X214477360Y-144202928D01*
X214477360Y-144202928D02*
X214612047Y-144283741D01*
X214612047Y-144283741D02*
X214692860Y-144310678D01*
X214692860Y-144310678D02*
X214800609Y-144310678D01*
X214800609Y-144310678D02*
X214908359Y-144256803D01*
X214908359Y-144256803D02*
X214962234Y-144202928D01*
X214962234Y-144202928D02*
X215016108Y-144095179D01*
X215016108Y-144095179D02*
X215016108Y-144041304D01*
X215016108Y-144041304D02*
X214827547Y-143852742D01*
X214827547Y-143852742D02*
X214719797Y-143960492D01*
X215312420Y-143852742D02*
X214746734Y-143287057D01*
X214746734Y-143287057D02*
X214962234Y-143071557D01*
X214962234Y-143071557D02*
X215043046Y-143044620D01*
X215043046Y-143044620D02*
X215096921Y-143044620D01*
X215096921Y-143044620D02*
X215177733Y-143071557D01*
X215177733Y-143071557D02*
X215258545Y-143152370D01*
X215258545Y-143152370D02*
X215285482Y-143233182D01*
X215285482Y-143233182D02*
X215285482Y-143287057D01*
X215285482Y-143287057D02*
X215258545Y-143367869D01*
X215258545Y-143367869D02*
X215043046Y-143583368D01*
X215339357Y-142802183D02*
X215339357Y-142748309D01*
X215339357Y-142748309D02*
X215366295Y-142667496D01*
X215366295Y-142667496D02*
X215500982Y-142532809D01*
X215500982Y-142532809D02*
X215581794Y-142505872D01*
X215581794Y-142505872D02*
X215635669Y-142505872D01*
X215635669Y-142505872D02*
X215716481Y-142532809D01*
X215716481Y-142532809D02*
X215770356Y-142586684D01*
X215770356Y-142586684D02*
X215824230Y-142694434D01*
X215824230Y-142694434D02*
X215824230Y-143340931D01*
X215824230Y-143340931D02*
X216174417Y-142990745D01*
X216093605Y-141940186D02*
X215985855Y-142047936D01*
X215985855Y-142047936D02*
X215958918Y-142128748D01*
X215958918Y-142128748D02*
X215958918Y-142182623D01*
X215958918Y-142182623D02*
X215985855Y-142317310D01*
X215985855Y-142317310D02*
X216066667Y-142451997D01*
X216066667Y-142451997D02*
X216282166Y-142667496D01*
X216282166Y-142667496D02*
X216362979Y-142694434D01*
X216362979Y-142694434D02*
X216416853Y-142694434D01*
X216416853Y-142694434D02*
X216497666Y-142667496D01*
X216497666Y-142667496D02*
X216605415Y-142559747D01*
X216605415Y-142559747D02*
X216632353Y-142478934D01*
X216632353Y-142478934D02*
X216632353Y-142425060D01*
X216632353Y-142425060D02*
X216605415Y-142344247D01*
X216605415Y-142344247D02*
X216470728Y-142209560D01*
X216470728Y-142209560D02*
X216389916Y-142182623D01*
X216389916Y-142182623D02*
X216336041Y-142182623D01*
X216336041Y-142182623D02*
X216255229Y-142209560D01*
X216255229Y-142209560D02*
X216147479Y-142317310D01*
X216147479Y-142317310D02*
X216120542Y-142398122D01*
X216120542Y-142398122D02*
X216120542Y-142451997D01*
X216120542Y-142451997D02*
X216147479Y-142532809D01*
X188396298Y-153743368D02*
X188315485Y-153770305D01*
X188315485Y-153770305D02*
X188234673Y-153851118D01*
X188234673Y-153851118D02*
X188180798Y-153958867D01*
X188180798Y-153958867D02*
X188180798Y-154066617D01*
X188180798Y-154066617D02*
X188207736Y-154147429D01*
X188207736Y-154147429D02*
X188288548Y-154282116D01*
X188288548Y-154282116D02*
X188369360Y-154362928D01*
X188369360Y-154362928D02*
X188504047Y-154443741D01*
X188504047Y-154443741D02*
X188584860Y-154470678D01*
X188584860Y-154470678D02*
X188692609Y-154470678D01*
X188692609Y-154470678D02*
X188800359Y-154416803D01*
X188800359Y-154416803D02*
X188854234Y-154362928D01*
X188854234Y-154362928D02*
X188908108Y-154255179D01*
X188908108Y-154255179D02*
X188908108Y-154201304D01*
X188908108Y-154201304D02*
X188719547Y-154012742D01*
X188719547Y-154012742D02*
X188611797Y-154120492D01*
X189204420Y-154012742D02*
X188638734Y-153447057D01*
X188638734Y-153447057D02*
X188854234Y-153231557D01*
X188854234Y-153231557D02*
X188935046Y-153204620D01*
X188935046Y-153204620D02*
X188988921Y-153204620D01*
X188988921Y-153204620D02*
X189069733Y-153231557D01*
X189069733Y-153231557D02*
X189150545Y-153312370D01*
X189150545Y-153312370D02*
X189177482Y-153393182D01*
X189177482Y-153393182D02*
X189177482Y-153447057D01*
X189177482Y-153447057D02*
X189150545Y-153527869D01*
X189150545Y-153527869D02*
X188935046Y-153743368D01*
X190066417Y-153150745D02*
X189743168Y-153473994D01*
X189904792Y-153312370D02*
X189339107Y-152746684D01*
X189339107Y-152746684D02*
X189366044Y-152881371D01*
X189366044Y-152881371D02*
X189366044Y-152989121D01*
X189366044Y-152989121D02*
X189339107Y-153069933D01*
X189850918Y-152234873D02*
X189904792Y-152180999D01*
X189904792Y-152180999D02*
X189985605Y-152154061D01*
X189985605Y-152154061D02*
X190039479Y-152154061D01*
X190039479Y-152154061D02*
X190120292Y-152180999D01*
X190120292Y-152180999D02*
X190254979Y-152261811D01*
X190254979Y-152261811D02*
X190389666Y-152396498D01*
X190389666Y-152396498D02*
X190470478Y-152531185D01*
X190470478Y-152531185D02*
X190497415Y-152611997D01*
X190497415Y-152611997D02*
X190497415Y-152665872D01*
X190497415Y-152665872D02*
X190470478Y-152746684D01*
X190470478Y-152746684D02*
X190416603Y-152800559D01*
X190416603Y-152800559D02*
X190335791Y-152827496D01*
X190335791Y-152827496D02*
X190281916Y-152827496D01*
X190281916Y-152827496D02*
X190201104Y-152800559D01*
X190201104Y-152800559D02*
X190066417Y-152719747D01*
X190066417Y-152719747D02*
X189931730Y-152585060D01*
X189931730Y-152585060D02*
X189850918Y-152450373D01*
X189850918Y-152450373D02*
X189823980Y-152369560D01*
X189823980Y-152369560D02*
X189823980Y-152315686D01*
X189823980Y-152315686D02*
X189850918Y-152234873D01*
X214561364Y-133996549D02*
X214830738Y-133727175D01*
X214669113Y-134212049D02*
X214291990Y-133457801D01*
X214291990Y-133457801D02*
X215046237Y-133834925D01*
X215234799Y-133646363D02*
X214669113Y-133080678D01*
X214669113Y-133080678D02*
X214803800Y-132945991D01*
X214803800Y-132945991D02*
X214911550Y-132892116D01*
X214911550Y-132892116D02*
X215019299Y-132892116D01*
X215019299Y-132892116D02*
X215100112Y-132919053D01*
X215100112Y-132919053D02*
X215234799Y-132999866D01*
X215234799Y-132999866D02*
X215315611Y-133080678D01*
X215315611Y-133080678D02*
X215396423Y-133215365D01*
X215396423Y-133215365D02*
X215423360Y-133296177D01*
X215423360Y-133296177D02*
X215423360Y-133403927D01*
X215423360Y-133403927D02*
X215369486Y-133511676D01*
X215369486Y-133511676D02*
X215234799Y-133646363D01*
X216069858Y-132703554D02*
X216069858Y-132757429D01*
X216069858Y-132757429D02*
X216015983Y-132865179D01*
X216015983Y-132865179D02*
X215962108Y-132919053D01*
X215962108Y-132919053D02*
X215854359Y-132972928D01*
X215854359Y-132972928D02*
X215746609Y-132972928D01*
X215746609Y-132972928D02*
X215665797Y-132945991D01*
X215665797Y-132945991D02*
X215531110Y-132865179D01*
X215531110Y-132865179D02*
X215450298Y-132784366D01*
X215450298Y-132784366D02*
X215369486Y-132649679D01*
X215369486Y-132649679D02*
X215342548Y-132568867D01*
X215342548Y-132568867D02*
X215342548Y-132461118D01*
X215342548Y-132461118D02*
X215396423Y-132353368D01*
X215396423Y-132353368D02*
X215450298Y-132299493D01*
X215450298Y-132299493D02*
X215558047Y-132245618D01*
X215558047Y-132245618D02*
X215611922Y-132245618D01*
X216285357Y-132703554D02*
X216716356Y-132272556D01*
X216150670Y-131599121D02*
X216904918Y-131976244D01*
X216904918Y-131976244D02*
X216527794Y-131221997D01*
X217605290Y-131275872D02*
X217147354Y-131195060D01*
X217282041Y-131599121D02*
X216716356Y-131033435D01*
X216716356Y-131033435D02*
X216931855Y-130817936D01*
X216931855Y-130817936D02*
X217012667Y-130790999D01*
X217012667Y-130790999D02*
X217066542Y-130790999D01*
X217066542Y-130790999D02*
X217147354Y-130817936D01*
X217147354Y-130817936D02*
X217228166Y-130898748D01*
X217228166Y-130898748D02*
X217255104Y-130979561D01*
X217255104Y-130979561D02*
X217255104Y-131033435D01*
X217255104Y-131033435D02*
X217228166Y-131114248D01*
X217228166Y-131114248D02*
X217012667Y-131329747D01*
X217551415Y-130737124D02*
X217739977Y-130548562D01*
X218117100Y-130764061D02*
X217847726Y-131033435D01*
X217847726Y-131033435D02*
X217282041Y-130467750D01*
X217282041Y-130467750D02*
X217551415Y-130198376D01*
X218251788Y-130036751D02*
X218063226Y-130225313D01*
X218359537Y-130521625D02*
X217793852Y-129955939D01*
X217793852Y-129955939D02*
X218063226Y-129686565D01*
X194896775Y-170986700D02*
X195011061Y-171024795D01*
X195011061Y-171024795D02*
X195201537Y-171024795D01*
X195201537Y-171024795D02*
X195277728Y-170986700D01*
X195277728Y-170986700D02*
X195315823Y-170948604D01*
X195315823Y-170948604D02*
X195353918Y-170872414D01*
X195353918Y-170872414D02*
X195353918Y-170796223D01*
X195353918Y-170796223D02*
X195315823Y-170720033D01*
X195315823Y-170720033D02*
X195277728Y-170681938D01*
X195277728Y-170681938D02*
X195201537Y-170643842D01*
X195201537Y-170643842D02*
X195049156Y-170605747D01*
X195049156Y-170605747D02*
X194972966Y-170567652D01*
X194972966Y-170567652D02*
X194934871Y-170529557D01*
X194934871Y-170529557D02*
X194896775Y-170453366D01*
X194896775Y-170453366D02*
X194896775Y-170377176D01*
X194896775Y-170377176D02*
X194934871Y-170300985D01*
X194934871Y-170300985D02*
X194972966Y-170262890D01*
X194972966Y-170262890D02*
X195049156Y-170224795D01*
X195049156Y-170224795D02*
X195239633Y-170224795D01*
X195239633Y-170224795D02*
X195353918Y-170262890D01*
X195620585Y-170224795D02*
X195811061Y-171024795D01*
X195811061Y-171024795D02*
X195963442Y-170453366D01*
X195963442Y-170453366D02*
X196115823Y-171024795D01*
X196115823Y-171024795D02*
X196306300Y-170224795D01*
X197068205Y-170948604D02*
X197030109Y-170986700D01*
X197030109Y-170986700D02*
X196915824Y-171024795D01*
X196915824Y-171024795D02*
X196839633Y-171024795D01*
X196839633Y-171024795D02*
X196725347Y-170986700D01*
X196725347Y-170986700D02*
X196649157Y-170910509D01*
X196649157Y-170910509D02*
X196611062Y-170834319D01*
X196611062Y-170834319D02*
X196572966Y-170681938D01*
X196572966Y-170681938D02*
X196572966Y-170567652D01*
X196572966Y-170567652D02*
X196611062Y-170415271D01*
X196611062Y-170415271D02*
X196649157Y-170339080D01*
X196649157Y-170339080D02*
X196725347Y-170262890D01*
X196725347Y-170262890D02*
X196839633Y-170224795D01*
X196839633Y-170224795D02*
X196915824Y-170224795D01*
X196915824Y-170224795D02*
X197030109Y-170262890D01*
X197030109Y-170262890D02*
X197068205Y-170300985D01*
X197792014Y-171024795D02*
X197411062Y-171024795D01*
X197411062Y-171024795D02*
X197411062Y-170224795D01*
X198058681Y-171024795D02*
X198058681Y-170224795D01*
X198515824Y-171024795D02*
X198172966Y-170567652D01*
X198515824Y-170224795D02*
X198058681Y-170681938D01*
X188350298Y-166443368D02*
X188269485Y-166470305D01*
X188269485Y-166470305D02*
X188188673Y-166551118D01*
X188188673Y-166551118D02*
X188134798Y-166658867D01*
X188134798Y-166658867D02*
X188134798Y-166766617D01*
X188134798Y-166766617D02*
X188161736Y-166847429D01*
X188161736Y-166847429D02*
X188242548Y-166982116D01*
X188242548Y-166982116D02*
X188323360Y-167062928D01*
X188323360Y-167062928D02*
X188458047Y-167143741D01*
X188458047Y-167143741D02*
X188538860Y-167170678D01*
X188538860Y-167170678D02*
X188646609Y-167170678D01*
X188646609Y-167170678D02*
X188754359Y-167116803D01*
X188754359Y-167116803D02*
X188808234Y-167062928D01*
X188808234Y-167062928D02*
X188862108Y-166955179D01*
X188862108Y-166955179D02*
X188862108Y-166901304D01*
X188862108Y-166901304D02*
X188673547Y-166712742D01*
X188673547Y-166712742D02*
X188565797Y-166820492D01*
X189158420Y-166712742D02*
X188592734Y-166147057D01*
X188592734Y-166147057D02*
X188808234Y-165931557D01*
X188808234Y-165931557D02*
X188889046Y-165904620D01*
X188889046Y-165904620D02*
X188942921Y-165904620D01*
X188942921Y-165904620D02*
X189023733Y-165931557D01*
X189023733Y-165931557D02*
X189104545Y-166012370D01*
X189104545Y-166012370D02*
X189131482Y-166093182D01*
X189131482Y-166093182D02*
X189131482Y-166147057D01*
X189131482Y-166147057D02*
X189104545Y-166227869D01*
X189104545Y-166227869D02*
X188889046Y-166443368D01*
X190020417Y-165850745D02*
X189697168Y-166173994D01*
X189858792Y-166012370D02*
X189293107Y-165446684D01*
X189293107Y-165446684D02*
X189320044Y-165581371D01*
X189320044Y-165581371D02*
X189320044Y-165689121D01*
X189320044Y-165689121D02*
X189293107Y-165769933D01*
X190128166Y-164988748D02*
X190505290Y-165365872D01*
X189777980Y-164907936D02*
X190047354Y-165446684D01*
X190047354Y-165446684D02*
X190397540Y-165096498D01*
X206311061Y-170986700D02*
X206425347Y-171024795D01*
X206425347Y-171024795D02*
X206615823Y-171024795D01*
X206615823Y-171024795D02*
X206692014Y-170986700D01*
X206692014Y-170986700D02*
X206730109Y-170948604D01*
X206730109Y-170948604D02*
X206768204Y-170872414D01*
X206768204Y-170872414D02*
X206768204Y-170796223D01*
X206768204Y-170796223D02*
X206730109Y-170720033D01*
X206730109Y-170720033D02*
X206692014Y-170681938D01*
X206692014Y-170681938D02*
X206615823Y-170643842D01*
X206615823Y-170643842D02*
X206463442Y-170605747D01*
X206463442Y-170605747D02*
X206387252Y-170567652D01*
X206387252Y-170567652D02*
X206349157Y-170529557D01*
X206349157Y-170529557D02*
X206311061Y-170453366D01*
X206311061Y-170453366D02*
X206311061Y-170377176D01*
X206311061Y-170377176D02*
X206349157Y-170300985D01*
X206349157Y-170300985D02*
X206387252Y-170262890D01*
X206387252Y-170262890D02*
X206463442Y-170224795D01*
X206463442Y-170224795D02*
X206653919Y-170224795D01*
X206653919Y-170224795D02*
X206768204Y-170262890D01*
X207034871Y-170224795D02*
X207225347Y-171024795D01*
X207225347Y-171024795D02*
X207377728Y-170453366D01*
X207377728Y-170453366D02*
X207530109Y-171024795D01*
X207530109Y-171024795D02*
X207720586Y-170224795D01*
X208025348Y-171024795D02*
X208025348Y-170224795D01*
X208025348Y-170224795D02*
X208215824Y-170224795D01*
X208215824Y-170224795D02*
X208330110Y-170262890D01*
X208330110Y-170262890D02*
X208406300Y-170339080D01*
X208406300Y-170339080D02*
X208444395Y-170415271D01*
X208444395Y-170415271D02*
X208482491Y-170567652D01*
X208482491Y-170567652D02*
X208482491Y-170681938D01*
X208482491Y-170681938D02*
X208444395Y-170834319D01*
X208444395Y-170834319D02*
X208406300Y-170910509D01*
X208406300Y-170910509D02*
X208330110Y-170986700D01*
X208330110Y-170986700D02*
X208215824Y-171024795D01*
X208215824Y-171024795D02*
X208025348Y-171024795D01*
X208825348Y-171024795D02*
X208825348Y-170224795D01*
X209358681Y-170224795D02*
X209511062Y-170224795D01*
X209511062Y-170224795D02*
X209587252Y-170262890D01*
X209587252Y-170262890D02*
X209663443Y-170339080D01*
X209663443Y-170339080D02*
X209701538Y-170491461D01*
X209701538Y-170491461D02*
X209701538Y-170758128D01*
X209701538Y-170758128D02*
X209663443Y-170910509D01*
X209663443Y-170910509D02*
X209587252Y-170986700D01*
X209587252Y-170986700D02*
X209511062Y-171024795D01*
X209511062Y-171024795D02*
X209358681Y-171024795D01*
X209358681Y-171024795D02*
X209282490Y-170986700D01*
X209282490Y-170986700D02*
X209206300Y-170910509D01*
X209206300Y-170910509D02*
X209168204Y-170758128D01*
X209168204Y-170758128D02*
X209168204Y-170491461D01*
X209168204Y-170491461D02*
X209206300Y-170339080D01*
X209206300Y-170339080D02*
X209282490Y-170262890D01*
X209282490Y-170262890D02*
X209358681Y-170224795D01*
X188892735Y-163660931D02*
X188811923Y-163687868D01*
X188811923Y-163687868D02*
X188731111Y-163768680D01*
X188731111Y-163768680D02*
X188677236Y-163876430D01*
X188677236Y-163876430D02*
X188677236Y-163984180D01*
X188677236Y-163984180D02*
X188704173Y-164064992D01*
X188704173Y-164064992D02*
X188784985Y-164199679D01*
X188784985Y-164199679D02*
X188865798Y-164280491D01*
X188865798Y-164280491D02*
X189000485Y-164361303D01*
X189000485Y-164361303D02*
X189081297Y-164388241D01*
X189081297Y-164388241D02*
X189189046Y-164388241D01*
X189189046Y-164388241D02*
X189296796Y-164334366D01*
X189296796Y-164334366D02*
X189350671Y-164280491D01*
X189350671Y-164280491D02*
X189404546Y-164172741D01*
X189404546Y-164172741D02*
X189404546Y-164118867D01*
X189404546Y-164118867D02*
X189215984Y-163930305D01*
X189215984Y-163930305D02*
X189108234Y-164038054D01*
X189700857Y-163930305D02*
X189135172Y-163364619D01*
X189135172Y-163364619D02*
X190024106Y-163607056D01*
X190024106Y-163607056D02*
X189458420Y-163041371D01*
X190293480Y-163337682D02*
X189727794Y-162771997D01*
X189727794Y-162771997D02*
X189862481Y-162637310D01*
X189862481Y-162637310D02*
X189970231Y-162583435D01*
X189970231Y-162583435D02*
X190077980Y-162583435D01*
X190077980Y-162583435D02*
X190158793Y-162610372D01*
X190158793Y-162610372D02*
X190293480Y-162691185D01*
X190293480Y-162691185D02*
X190374292Y-162771997D01*
X190374292Y-162771997D02*
X190455104Y-162906684D01*
X190455104Y-162906684D02*
X190482041Y-162987496D01*
X190482041Y-162987496D02*
X190482041Y-163095246D01*
X190482041Y-163095246D02*
X190428167Y-163202995D01*
X190428167Y-163202995D02*
X190293480Y-163337682D01*
X214504298Y-141053368D02*
X214423485Y-141080305D01*
X214423485Y-141080305D02*
X214342673Y-141161118D01*
X214342673Y-141161118D02*
X214288798Y-141268867D01*
X214288798Y-141268867D02*
X214288798Y-141376617D01*
X214288798Y-141376617D02*
X214315736Y-141457429D01*
X214315736Y-141457429D02*
X214396548Y-141592116D01*
X214396548Y-141592116D02*
X214477360Y-141672928D01*
X214477360Y-141672928D02*
X214612047Y-141753741D01*
X214612047Y-141753741D02*
X214692860Y-141780678D01*
X214692860Y-141780678D02*
X214800609Y-141780678D01*
X214800609Y-141780678D02*
X214908359Y-141726803D01*
X214908359Y-141726803D02*
X214962234Y-141672928D01*
X214962234Y-141672928D02*
X215016108Y-141565179D01*
X215016108Y-141565179D02*
X215016108Y-141511304D01*
X215016108Y-141511304D02*
X214827547Y-141322742D01*
X214827547Y-141322742D02*
X214719797Y-141430492D01*
X215312420Y-141322742D02*
X214746734Y-140757057D01*
X214746734Y-140757057D02*
X214962234Y-140541557D01*
X214962234Y-140541557D02*
X215043046Y-140514620D01*
X215043046Y-140514620D02*
X215096921Y-140514620D01*
X215096921Y-140514620D02*
X215177733Y-140541557D01*
X215177733Y-140541557D02*
X215258545Y-140622370D01*
X215258545Y-140622370D02*
X215285482Y-140703182D01*
X215285482Y-140703182D02*
X215285482Y-140757057D01*
X215285482Y-140757057D02*
X215258545Y-140837869D01*
X215258545Y-140837869D02*
X215043046Y-141053368D01*
X215339357Y-140272183D02*
X215339357Y-140218309D01*
X215339357Y-140218309D02*
X215366295Y-140137496D01*
X215366295Y-140137496D02*
X215500982Y-140002809D01*
X215500982Y-140002809D02*
X215581794Y-139975872D01*
X215581794Y-139975872D02*
X215635669Y-139975872D01*
X215635669Y-139975872D02*
X215716481Y-140002809D01*
X215716481Y-140002809D02*
X215770356Y-140056684D01*
X215770356Y-140056684D02*
X215824230Y-140164434D01*
X215824230Y-140164434D02*
X215824230Y-140810931D01*
X215824230Y-140810931D02*
X216174417Y-140460745D01*
X215797293Y-139706498D02*
X216174417Y-139329374D01*
X216174417Y-139329374D02*
X216497666Y-140137496D01*
X188250298Y-158823368D02*
X188169485Y-158850305D01*
X188169485Y-158850305D02*
X188088673Y-158931118D01*
X188088673Y-158931118D02*
X188034798Y-159038867D01*
X188034798Y-159038867D02*
X188034798Y-159146617D01*
X188034798Y-159146617D02*
X188061736Y-159227429D01*
X188061736Y-159227429D02*
X188142548Y-159362116D01*
X188142548Y-159362116D02*
X188223360Y-159442928D01*
X188223360Y-159442928D02*
X188358047Y-159523741D01*
X188358047Y-159523741D02*
X188438860Y-159550678D01*
X188438860Y-159550678D02*
X188546609Y-159550678D01*
X188546609Y-159550678D02*
X188654359Y-159496803D01*
X188654359Y-159496803D02*
X188708234Y-159442928D01*
X188708234Y-159442928D02*
X188762108Y-159335179D01*
X188762108Y-159335179D02*
X188762108Y-159281304D01*
X188762108Y-159281304D02*
X188573547Y-159092742D01*
X188573547Y-159092742D02*
X188465797Y-159200492D01*
X189058420Y-159092742D02*
X188492734Y-158527057D01*
X188492734Y-158527057D02*
X188708234Y-158311557D01*
X188708234Y-158311557D02*
X188789046Y-158284620D01*
X188789046Y-158284620D02*
X188842921Y-158284620D01*
X188842921Y-158284620D02*
X188923733Y-158311557D01*
X188923733Y-158311557D02*
X189004545Y-158392370D01*
X189004545Y-158392370D02*
X189031482Y-158473182D01*
X189031482Y-158473182D02*
X189031482Y-158527057D01*
X189031482Y-158527057D02*
X189004545Y-158607869D01*
X189004545Y-158607869D02*
X188789046Y-158823368D01*
X189920417Y-158230745D02*
X189597168Y-158553994D01*
X189758792Y-158392370D02*
X189193107Y-157826684D01*
X189193107Y-157826684D02*
X189220044Y-157961371D01*
X189220044Y-157961371D02*
X189220044Y-158069121D01*
X189220044Y-158069121D02*
X189193107Y-158149933D01*
X189624105Y-157503435D02*
X189624105Y-157449560D01*
X189624105Y-157449560D02*
X189651043Y-157368748D01*
X189651043Y-157368748D02*
X189785730Y-157234061D01*
X189785730Y-157234061D02*
X189866542Y-157207124D01*
X189866542Y-157207124D02*
X189920417Y-157207124D01*
X189920417Y-157207124D02*
X190001229Y-157234061D01*
X190001229Y-157234061D02*
X190055104Y-157287936D01*
X190055104Y-157287936D02*
X190108979Y-157395686D01*
X190108979Y-157395686D02*
X190108979Y-158042183D01*
X190108979Y-158042183D02*
X190459165Y-157691997D01*
X214492735Y-125560931D02*
X214411923Y-125587868D01*
X214411923Y-125587868D02*
X214331111Y-125668680D01*
X214331111Y-125668680D02*
X214277236Y-125776430D01*
X214277236Y-125776430D02*
X214277236Y-125884180D01*
X214277236Y-125884180D02*
X214304173Y-125964992D01*
X214304173Y-125964992D02*
X214384985Y-126099679D01*
X214384985Y-126099679D02*
X214465798Y-126180491D01*
X214465798Y-126180491D02*
X214600485Y-126261303D01*
X214600485Y-126261303D02*
X214681297Y-126288241D01*
X214681297Y-126288241D02*
X214789046Y-126288241D01*
X214789046Y-126288241D02*
X214896796Y-126234366D01*
X214896796Y-126234366D02*
X214950671Y-126180491D01*
X214950671Y-126180491D02*
X215004546Y-126072741D01*
X215004546Y-126072741D02*
X215004546Y-126018867D01*
X215004546Y-126018867D02*
X214815984Y-125830305D01*
X214815984Y-125830305D02*
X214708234Y-125938054D01*
X215300857Y-125830305D02*
X214735172Y-125264619D01*
X214735172Y-125264619D02*
X215624106Y-125507056D01*
X215624106Y-125507056D02*
X215058420Y-124941371D01*
X215893480Y-125237682D02*
X215327794Y-124671997D01*
X215327794Y-124671997D02*
X215462481Y-124537310D01*
X215462481Y-124537310D02*
X215570231Y-124483435D01*
X215570231Y-124483435D02*
X215677980Y-124483435D01*
X215677980Y-124483435D02*
X215758793Y-124510372D01*
X215758793Y-124510372D02*
X215893480Y-124591185D01*
X215893480Y-124591185D02*
X215974292Y-124671997D01*
X215974292Y-124671997D02*
X216055104Y-124806684D01*
X216055104Y-124806684D02*
X216082041Y-124887496D01*
X216082041Y-124887496D02*
X216082041Y-124995246D01*
X216082041Y-124995246D02*
X216028167Y-125102995D01*
X216028167Y-125102995D02*
X215893480Y-125237682D01*
D11*
X299742369Y-150626785D02*
X298742369Y-150626785D01*
X298742369Y-150626785D02*
X298742369Y-150388690D01*
X298742369Y-150388690D02*
X298789988Y-150245833D01*
X298789988Y-150245833D02*
X298885226Y-150150595D01*
X298885226Y-150150595D02*
X298980464Y-150102976D01*
X298980464Y-150102976D02*
X299170940Y-150055357D01*
X299170940Y-150055357D02*
X299313797Y-150055357D01*
X299313797Y-150055357D02*
X299504273Y-150102976D01*
X299504273Y-150102976D02*
X299599511Y-150150595D01*
X299599511Y-150150595D02*
X299694750Y-150245833D01*
X299694750Y-150245833D02*
X299742369Y-150388690D01*
X299742369Y-150388690D02*
X299742369Y-150626785D01*
X298742369Y-149722023D02*
X298742369Y-149102976D01*
X298742369Y-149102976D02*
X299123321Y-149436309D01*
X299123321Y-149436309D02*
X299123321Y-149293452D01*
X299123321Y-149293452D02*
X299170940Y-149198214D01*
X299170940Y-149198214D02*
X299218559Y-149150595D01*
X299218559Y-149150595D02*
X299313797Y-149102976D01*
X299313797Y-149102976D02*
X299551892Y-149102976D01*
X299551892Y-149102976D02*
X299647130Y-149150595D01*
X299647130Y-149150595D02*
X299694750Y-149198214D01*
X299694750Y-149198214D02*
X299742369Y-149293452D01*
X299742369Y-149293452D02*
X299742369Y-149579166D01*
X299742369Y-149579166D02*
X299694750Y-149674404D01*
X299694750Y-149674404D02*
X299647130Y-149722023D01*
X298742369Y-148198214D02*
X298742369Y-148674404D01*
X298742369Y-148674404D02*
X299218559Y-148722023D01*
X299218559Y-148722023D02*
X299170940Y-148674404D01*
X299170940Y-148674404D02*
X299123321Y-148579166D01*
X299123321Y-148579166D02*
X299123321Y-148341071D01*
X299123321Y-148341071D02*
X299170940Y-148245833D01*
X299170940Y-148245833D02*
X299218559Y-148198214D01*
X299218559Y-148198214D02*
X299313797Y-148150595D01*
X299313797Y-148150595D02*
X299551892Y-148150595D01*
X299551892Y-148150595D02*
X299647130Y-148198214D01*
X299647130Y-148198214D02*
X299694750Y-148245833D01*
X299694750Y-148245833D02*
X299742369Y-148341071D01*
X299742369Y-148341071D02*
X299742369Y-148579166D01*
X299742369Y-148579166D02*
X299694750Y-148674404D01*
X299694750Y-148674404D02*
X299647130Y-148722023D01*
X152614464Y-189326119D02*
X152614464Y-188326119D01*
X152614464Y-188326119D02*
X152852559Y-188326119D01*
X152852559Y-188326119D02*
X152995416Y-188373738D01*
X152995416Y-188373738D02*
X153090654Y-188468976D01*
X153090654Y-188468976D02*
X153138273Y-188564214D01*
X153138273Y-188564214D02*
X153185892Y-188754690D01*
X153185892Y-188754690D02*
X153185892Y-188897547D01*
X153185892Y-188897547D02*
X153138273Y-189088023D01*
X153138273Y-189088023D02*
X153090654Y-189183261D01*
X153090654Y-189183261D02*
X152995416Y-189278500D01*
X152995416Y-189278500D02*
X152852559Y-189326119D01*
X152852559Y-189326119D02*
X152614464Y-189326119D01*
X154138273Y-189326119D02*
X153566845Y-189326119D01*
X153852559Y-189326119D02*
X153852559Y-188326119D01*
X153852559Y-188326119D02*
X153757321Y-188468976D01*
X153757321Y-188468976D02*
X153662083Y-188564214D01*
X153662083Y-188564214D02*
X153566845Y-188611833D01*
X154471607Y-188326119D02*
X155090654Y-188326119D01*
X155090654Y-188326119D02*
X154757321Y-188707071D01*
X154757321Y-188707071D02*
X154900178Y-188707071D01*
X154900178Y-188707071D02*
X154995416Y-188754690D01*
X154995416Y-188754690D02*
X155043035Y-188802309D01*
X155043035Y-188802309D02*
X155090654Y-188897547D01*
X155090654Y-188897547D02*
X155090654Y-189135642D01*
X155090654Y-189135642D02*
X155043035Y-189230880D01*
X155043035Y-189230880D02*
X154995416Y-189278500D01*
X154995416Y-189278500D02*
X154900178Y-189326119D01*
X154900178Y-189326119D02*
X154614464Y-189326119D01*
X154614464Y-189326119D02*
X154519226Y-189278500D01*
X154519226Y-189278500D02*
X154471607Y-189230880D01*
X242592369Y-133611785D02*
X241592369Y-133611785D01*
X241592369Y-133611785D02*
X241592369Y-133373690D01*
X241592369Y-133373690D02*
X241639988Y-133230833D01*
X241639988Y-133230833D02*
X241735226Y-133135595D01*
X241735226Y-133135595D02*
X241830464Y-133087976D01*
X241830464Y-133087976D02*
X242020940Y-133040357D01*
X242020940Y-133040357D02*
X242163797Y-133040357D01*
X242163797Y-133040357D02*
X242354273Y-133087976D01*
X242354273Y-133087976D02*
X242449511Y-133135595D01*
X242449511Y-133135595D02*
X242544750Y-133230833D01*
X242544750Y-133230833D02*
X242592369Y-133373690D01*
X242592369Y-133373690D02*
X242592369Y-133611785D01*
X241687607Y-132659404D02*
X241639988Y-132611785D01*
X241639988Y-132611785D02*
X241592369Y-132516547D01*
X241592369Y-132516547D02*
X241592369Y-132278452D01*
X241592369Y-132278452D02*
X241639988Y-132183214D01*
X241639988Y-132183214D02*
X241687607Y-132135595D01*
X241687607Y-132135595D02*
X241782845Y-132087976D01*
X241782845Y-132087976D02*
X241878083Y-132087976D01*
X241878083Y-132087976D02*
X242020940Y-132135595D01*
X242020940Y-132135595D02*
X242592369Y-132707023D01*
X242592369Y-132707023D02*
X242592369Y-132087976D01*
X241687607Y-131707023D02*
X241639988Y-131659404D01*
X241639988Y-131659404D02*
X241592369Y-131564166D01*
X241592369Y-131564166D02*
X241592369Y-131326071D01*
X241592369Y-131326071D02*
X241639988Y-131230833D01*
X241639988Y-131230833D02*
X241687607Y-131183214D01*
X241687607Y-131183214D02*
X241782845Y-131135595D01*
X241782845Y-131135595D02*
X241878083Y-131135595D01*
X241878083Y-131135595D02*
X242020940Y-131183214D01*
X242020940Y-131183214D02*
X242592369Y-131754642D01*
X242592369Y-131754642D02*
X242592369Y-131135595D01*
X109242369Y-169200594D02*
X108242369Y-169200594D01*
X108242369Y-169200594D02*
X108242369Y-168962499D01*
X108242369Y-168962499D02*
X108289988Y-168819642D01*
X108289988Y-168819642D02*
X108385226Y-168724404D01*
X108385226Y-168724404D02*
X108480464Y-168676785D01*
X108480464Y-168676785D02*
X108670940Y-168629166D01*
X108670940Y-168629166D02*
X108813797Y-168629166D01*
X108813797Y-168629166D02*
X109004273Y-168676785D01*
X109004273Y-168676785D02*
X109099511Y-168724404D01*
X109099511Y-168724404D02*
X109194750Y-168819642D01*
X109194750Y-168819642D02*
X109242369Y-168962499D01*
X109242369Y-168962499D02*
X109242369Y-169200594D01*
X108242369Y-167772023D02*
X108242369Y-167962499D01*
X108242369Y-167962499D02*
X108289988Y-168057737D01*
X108289988Y-168057737D02*
X108337607Y-168105356D01*
X108337607Y-168105356D02*
X108480464Y-168200594D01*
X108480464Y-168200594D02*
X108670940Y-168248213D01*
X108670940Y-168248213D02*
X109051892Y-168248213D01*
X109051892Y-168248213D02*
X109147130Y-168200594D01*
X109147130Y-168200594D02*
X109194750Y-168152975D01*
X109194750Y-168152975D02*
X109242369Y-168057737D01*
X109242369Y-168057737D02*
X109242369Y-167867261D01*
X109242369Y-167867261D02*
X109194750Y-167772023D01*
X109194750Y-167772023D02*
X109147130Y-167724404D01*
X109147130Y-167724404D02*
X109051892Y-167676785D01*
X109051892Y-167676785D02*
X108813797Y-167676785D01*
X108813797Y-167676785D02*
X108718559Y-167724404D01*
X108718559Y-167724404D02*
X108670940Y-167772023D01*
X108670940Y-167772023D02*
X108623321Y-167867261D01*
X108623321Y-167867261D02*
X108623321Y-168057737D01*
X108623321Y-168057737D02*
X108670940Y-168152975D01*
X108670940Y-168152975D02*
X108718559Y-168200594D01*
X108718559Y-168200594D02*
X108813797Y-168248213D01*
X185442369Y-133611785D02*
X184442369Y-133611785D01*
X184442369Y-133611785D02*
X184442369Y-133373690D01*
X184442369Y-133373690D02*
X184489988Y-133230833D01*
X184489988Y-133230833D02*
X184585226Y-133135595D01*
X184585226Y-133135595D02*
X184680464Y-133087976D01*
X184680464Y-133087976D02*
X184870940Y-133040357D01*
X184870940Y-133040357D02*
X185013797Y-133040357D01*
X185013797Y-133040357D02*
X185204273Y-133087976D01*
X185204273Y-133087976D02*
X185299511Y-133135595D01*
X185299511Y-133135595D02*
X185394750Y-133230833D01*
X185394750Y-133230833D02*
X185442369Y-133373690D01*
X185442369Y-133373690D02*
X185442369Y-133611785D01*
X185442369Y-132087976D02*
X185442369Y-132659404D01*
X185442369Y-132373690D02*
X184442369Y-132373690D01*
X184442369Y-132373690D02*
X184585226Y-132468928D01*
X184585226Y-132468928D02*
X184680464Y-132564166D01*
X184680464Y-132564166D02*
X184728083Y-132659404D01*
X184870940Y-131516547D02*
X184823321Y-131611785D01*
X184823321Y-131611785D02*
X184775702Y-131659404D01*
X184775702Y-131659404D02*
X184680464Y-131707023D01*
X184680464Y-131707023D02*
X184632845Y-131707023D01*
X184632845Y-131707023D02*
X184537607Y-131659404D01*
X184537607Y-131659404D02*
X184489988Y-131611785D01*
X184489988Y-131611785D02*
X184442369Y-131516547D01*
X184442369Y-131516547D02*
X184442369Y-131326071D01*
X184442369Y-131326071D02*
X184489988Y-131230833D01*
X184489988Y-131230833D02*
X184537607Y-131183214D01*
X184537607Y-131183214D02*
X184632845Y-131135595D01*
X184632845Y-131135595D02*
X184680464Y-131135595D01*
X184680464Y-131135595D02*
X184775702Y-131183214D01*
X184775702Y-131183214D02*
X184823321Y-131230833D01*
X184823321Y-131230833D02*
X184870940Y-131326071D01*
X184870940Y-131326071D02*
X184870940Y-131516547D01*
X184870940Y-131516547D02*
X184918559Y-131611785D01*
X184918559Y-131611785D02*
X184966178Y-131659404D01*
X184966178Y-131659404D02*
X185061416Y-131707023D01*
X185061416Y-131707023D02*
X185251892Y-131707023D01*
X185251892Y-131707023D02*
X185347130Y-131659404D01*
X185347130Y-131659404D02*
X185394750Y-131611785D01*
X185394750Y-131611785D02*
X185442369Y-131516547D01*
X185442369Y-131516547D02*
X185442369Y-131326071D01*
X185442369Y-131326071D02*
X185394750Y-131230833D01*
X185394750Y-131230833D02*
X185347130Y-131183214D01*
X185347130Y-131183214D02*
X185251892Y-131135595D01*
X185251892Y-131135595D02*
X185061416Y-131135595D01*
X185061416Y-131135595D02*
X184966178Y-131183214D01*
X184966178Y-131183214D02*
X184918559Y-131230833D01*
X184918559Y-131230833D02*
X184870940Y-131326071D01*
X147342369Y-169676785D02*
X146342369Y-169676785D01*
X146342369Y-169676785D02*
X146342369Y-169438690D01*
X146342369Y-169438690D02*
X146389988Y-169295833D01*
X146389988Y-169295833D02*
X146485226Y-169200595D01*
X146485226Y-169200595D02*
X146580464Y-169152976D01*
X146580464Y-169152976D02*
X146770940Y-169105357D01*
X146770940Y-169105357D02*
X146913797Y-169105357D01*
X146913797Y-169105357D02*
X147104273Y-169152976D01*
X147104273Y-169152976D02*
X147199511Y-169200595D01*
X147199511Y-169200595D02*
X147294750Y-169295833D01*
X147294750Y-169295833D02*
X147342369Y-169438690D01*
X147342369Y-169438690D02*
X147342369Y-169676785D01*
X147342369Y-168152976D02*
X147342369Y-168724404D01*
X147342369Y-168438690D02*
X146342369Y-168438690D01*
X146342369Y-168438690D02*
X146485226Y-168533928D01*
X146485226Y-168533928D02*
X146580464Y-168629166D01*
X146580464Y-168629166D02*
X146628083Y-168724404D01*
X146437607Y-167772023D02*
X146389988Y-167724404D01*
X146389988Y-167724404D02*
X146342369Y-167629166D01*
X146342369Y-167629166D02*
X146342369Y-167391071D01*
X146342369Y-167391071D02*
X146389988Y-167295833D01*
X146389988Y-167295833D02*
X146437607Y-167248214D01*
X146437607Y-167248214D02*
X146532845Y-167200595D01*
X146532845Y-167200595D02*
X146628083Y-167200595D01*
X146628083Y-167200595D02*
X146770940Y-167248214D01*
X146770940Y-167248214D02*
X147342369Y-167819642D01*
X147342369Y-167819642D02*
X147342369Y-167200595D01*
X109242369Y-131100594D02*
X108242369Y-131100594D01*
X108242369Y-131100594D02*
X108242369Y-130862499D01*
X108242369Y-130862499D02*
X108289988Y-130719642D01*
X108289988Y-130719642D02*
X108385226Y-130624404D01*
X108385226Y-130624404D02*
X108480464Y-130576785D01*
X108480464Y-130576785D02*
X108670940Y-130529166D01*
X108670940Y-130529166D02*
X108813797Y-130529166D01*
X108813797Y-130529166D02*
X109004273Y-130576785D01*
X109004273Y-130576785D02*
X109099511Y-130624404D01*
X109099511Y-130624404D02*
X109194750Y-130719642D01*
X109194750Y-130719642D02*
X109242369Y-130862499D01*
X109242369Y-130862499D02*
X109242369Y-131100594D01*
X108575702Y-129672023D02*
X109242369Y-129672023D01*
X108194750Y-129910118D02*
X108909035Y-130148213D01*
X108909035Y-130148213D02*
X108909035Y-129529166D01*
X128292369Y-150150594D02*
X127292369Y-150150594D01*
X127292369Y-150150594D02*
X127292369Y-149912499D01*
X127292369Y-149912499D02*
X127339988Y-149769642D01*
X127339988Y-149769642D02*
X127435226Y-149674404D01*
X127435226Y-149674404D02*
X127530464Y-149626785D01*
X127530464Y-149626785D02*
X127720940Y-149579166D01*
X127720940Y-149579166D02*
X127863797Y-149579166D01*
X127863797Y-149579166D02*
X128054273Y-149626785D01*
X128054273Y-149626785D02*
X128149511Y-149674404D01*
X128149511Y-149674404D02*
X128244750Y-149769642D01*
X128244750Y-149769642D02*
X128292369Y-149912499D01*
X128292369Y-149912499D02*
X128292369Y-150150594D01*
X127720940Y-149007737D02*
X127673321Y-149102975D01*
X127673321Y-149102975D02*
X127625702Y-149150594D01*
X127625702Y-149150594D02*
X127530464Y-149198213D01*
X127530464Y-149198213D02*
X127482845Y-149198213D01*
X127482845Y-149198213D02*
X127387607Y-149150594D01*
X127387607Y-149150594D02*
X127339988Y-149102975D01*
X127339988Y-149102975D02*
X127292369Y-149007737D01*
X127292369Y-149007737D02*
X127292369Y-148817261D01*
X127292369Y-148817261D02*
X127339988Y-148722023D01*
X127339988Y-148722023D02*
X127387607Y-148674404D01*
X127387607Y-148674404D02*
X127482845Y-148626785D01*
X127482845Y-148626785D02*
X127530464Y-148626785D01*
X127530464Y-148626785D02*
X127625702Y-148674404D01*
X127625702Y-148674404D02*
X127673321Y-148722023D01*
X127673321Y-148722023D02*
X127720940Y-148817261D01*
X127720940Y-148817261D02*
X127720940Y-149007737D01*
X127720940Y-149007737D02*
X127768559Y-149102975D01*
X127768559Y-149102975D02*
X127816178Y-149150594D01*
X127816178Y-149150594D02*
X127911416Y-149198213D01*
X127911416Y-149198213D02*
X128101892Y-149198213D01*
X128101892Y-149198213D02*
X128197130Y-149150594D01*
X128197130Y-149150594D02*
X128244750Y-149102975D01*
X128244750Y-149102975D02*
X128292369Y-149007737D01*
X128292369Y-149007737D02*
X128292369Y-148817261D01*
X128292369Y-148817261D02*
X128244750Y-148722023D01*
X128244750Y-148722023D02*
X128197130Y-148674404D01*
X128197130Y-148674404D02*
X128101892Y-148626785D01*
X128101892Y-148626785D02*
X127911416Y-148626785D01*
X127911416Y-148626785D02*
X127816178Y-148674404D01*
X127816178Y-148674404D02*
X127768559Y-148722023D01*
X127768559Y-148722023D02*
X127720940Y-148817261D01*
X190714464Y-196469869D02*
X190714464Y-195469869D01*
X190714464Y-195469869D02*
X190952559Y-195469869D01*
X190952559Y-195469869D02*
X191095416Y-195517488D01*
X191095416Y-195517488D02*
X191190654Y-195612726D01*
X191190654Y-195612726D02*
X191238273Y-195707964D01*
X191238273Y-195707964D02*
X191285892Y-195898440D01*
X191285892Y-195898440D02*
X191285892Y-196041297D01*
X191285892Y-196041297D02*
X191238273Y-196231773D01*
X191238273Y-196231773D02*
X191190654Y-196327011D01*
X191190654Y-196327011D02*
X191095416Y-196422250D01*
X191095416Y-196422250D02*
X190952559Y-196469869D01*
X190952559Y-196469869D02*
X190714464Y-196469869D01*
X191666845Y-195565107D02*
X191714464Y-195517488D01*
X191714464Y-195517488D02*
X191809702Y-195469869D01*
X191809702Y-195469869D02*
X192047797Y-195469869D01*
X192047797Y-195469869D02*
X192143035Y-195517488D01*
X192143035Y-195517488D02*
X192190654Y-195565107D01*
X192190654Y-195565107D02*
X192238273Y-195660345D01*
X192238273Y-195660345D02*
X192238273Y-195755583D01*
X192238273Y-195755583D02*
X192190654Y-195898440D01*
X192190654Y-195898440D02*
X191619226Y-196469869D01*
X191619226Y-196469869D02*
X192238273Y-196469869D01*
X193190654Y-196469869D02*
X192619226Y-196469869D01*
X192904940Y-196469869D02*
X192904940Y-195469869D01*
X192904940Y-195469869D02*
X192809702Y-195612726D01*
X192809702Y-195612726D02*
X192714464Y-195707964D01*
X192714464Y-195707964D02*
X192619226Y-195755583D01*
X90192369Y-150150594D02*
X89192369Y-150150594D01*
X89192369Y-150150594D02*
X89192369Y-149912499D01*
X89192369Y-149912499D02*
X89239988Y-149769642D01*
X89239988Y-149769642D02*
X89335226Y-149674404D01*
X89335226Y-149674404D02*
X89430464Y-149626785D01*
X89430464Y-149626785D02*
X89620940Y-149579166D01*
X89620940Y-149579166D02*
X89763797Y-149579166D01*
X89763797Y-149579166D02*
X89954273Y-149626785D01*
X89954273Y-149626785D02*
X90049511Y-149674404D01*
X90049511Y-149674404D02*
X90144750Y-149769642D01*
X90144750Y-149769642D02*
X90192369Y-149912499D01*
X90192369Y-149912499D02*
X90192369Y-150150594D01*
X89287607Y-149198213D02*
X89239988Y-149150594D01*
X89239988Y-149150594D02*
X89192369Y-149055356D01*
X89192369Y-149055356D02*
X89192369Y-148817261D01*
X89192369Y-148817261D02*
X89239988Y-148722023D01*
X89239988Y-148722023D02*
X89287607Y-148674404D01*
X89287607Y-148674404D02*
X89382845Y-148626785D01*
X89382845Y-148626785D02*
X89478083Y-148626785D01*
X89478083Y-148626785D02*
X89620940Y-148674404D01*
X89620940Y-148674404D02*
X90192369Y-149245832D01*
X90192369Y-149245832D02*
X90192369Y-148626785D01*
X128292369Y-131100594D02*
X127292369Y-131100594D01*
X127292369Y-131100594D02*
X127292369Y-130862499D01*
X127292369Y-130862499D02*
X127339988Y-130719642D01*
X127339988Y-130719642D02*
X127435226Y-130624404D01*
X127435226Y-130624404D02*
X127530464Y-130576785D01*
X127530464Y-130576785D02*
X127720940Y-130529166D01*
X127720940Y-130529166D02*
X127863797Y-130529166D01*
X127863797Y-130529166D02*
X128054273Y-130576785D01*
X128054273Y-130576785D02*
X128149511Y-130624404D01*
X128149511Y-130624404D02*
X128244750Y-130719642D01*
X128244750Y-130719642D02*
X128292369Y-130862499D01*
X128292369Y-130862499D02*
X128292369Y-131100594D01*
X127292369Y-130195832D02*
X127292369Y-129529166D01*
X127292369Y-129529166D02*
X128292369Y-129957737D01*
X128292369Y-169200594D02*
X127292369Y-169200594D01*
X127292369Y-169200594D02*
X127292369Y-168962499D01*
X127292369Y-168962499D02*
X127339988Y-168819642D01*
X127339988Y-168819642D02*
X127435226Y-168724404D01*
X127435226Y-168724404D02*
X127530464Y-168676785D01*
X127530464Y-168676785D02*
X127720940Y-168629166D01*
X127720940Y-168629166D02*
X127863797Y-168629166D01*
X127863797Y-168629166D02*
X128054273Y-168676785D01*
X128054273Y-168676785D02*
X128149511Y-168724404D01*
X128149511Y-168724404D02*
X128244750Y-168819642D01*
X128244750Y-168819642D02*
X128292369Y-168962499D01*
X128292369Y-168962499D02*
X128292369Y-169200594D01*
X128292369Y-168152975D02*
X128292369Y-167962499D01*
X128292369Y-167962499D02*
X128244750Y-167867261D01*
X128244750Y-167867261D02*
X128197130Y-167819642D01*
X128197130Y-167819642D02*
X128054273Y-167724404D01*
X128054273Y-167724404D02*
X127863797Y-167676785D01*
X127863797Y-167676785D02*
X127482845Y-167676785D01*
X127482845Y-167676785D02*
X127387607Y-167724404D01*
X127387607Y-167724404D02*
X127339988Y-167772023D01*
X127339988Y-167772023D02*
X127292369Y-167867261D01*
X127292369Y-167867261D02*
X127292369Y-168057737D01*
X127292369Y-168057737D02*
X127339988Y-168152975D01*
X127339988Y-168152975D02*
X127387607Y-168200594D01*
X127387607Y-168200594D02*
X127482845Y-168248213D01*
X127482845Y-168248213D02*
X127720940Y-168248213D01*
X127720940Y-168248213D02*
X127816178Y-168200594D01*
X127816178Y-168200594D02*
X127863797Y-168152975D01*
X127863797Y-168152975D02*
X127911416Y-168057737D01*
X127911416Y-168057737D02*
X127911416Y-167867261D01*
X127911416Y-167867261D02*
X127863797Y-167772023D01*
X127863797Y-167772023D02*
X127816178Y-167724404D01*
X127816178Y-167724404D02*
X127720940Y-167676785D01*
X212145714Y-196469869D02*
X212145714Y-195469869D01*
X212145714Y-195469869D02*
X212383809Y-195469869D01*
X212383809Y-195469869D02*
X212526666Y-195517488D01*
X212526666Y-195517488D02*
X212621904Y-195612726D01*
X212621904Y-195612726D02*
X212669523Y-195707964D01*
X212669523Y-195707964D02*
X212717142Y-195898440D01*
X212717142Y-195898440D02*
X212717142Y-196041297D01*
X212717142Y-196041297D02*
X212669523Y-196231773D01*
X212669523Y-196231773D02*
X212621904Y-196327011D01*
X212621904Y-196327011D02*
X212526666Y-196422250D01*
X212526666Y-196422250D02*
X212383809Y-196469869D01*
X212383809Y-196469869D02*
X212145714Y-196469869D01*
X213098095Y-195565107D02*
X213145714Y-195517488D01*
X213145714Y-195517488D02*
X213240952Y-195469869D01*
X213240952Y-195469869D02*
X213479047Y-195469869D01*
X213479047Y-195469869D02*
X213574285Y-195517488D01*
X213574285Y-195517488D02*
X213621904Y-195565107D01*
X213621904Y-195565107D02*
X213669523Y-195660345D01*
X213669523Y-195660345D02*
X213669523Y-195755583D01*
X213669523Y-195755583D02*
X213621904Y-195898440D01*
X213621904Y-195898440D02*
X213050476Y-196469869D01*
X213050476Y-196469869D02*
X213669523Y-196469869D01*
X214574285Y-195469869D02*
X214098095Y-195469869D01*
X214098095Y-195469869D02*
X214050476Y-195946059D01*
X214050476Y-195946059D02*
X214098095Y-195898440D01*
X214098095Y-195898440D02*
X214193333Y-195850821D01*
X214193333Y-195850821D02*
X214431428Y-195850821D01*
X214431428Y-195850821D02*
X214526666Y-195898440D01*
X214526666Y-195898440D02*
X214574285Y-195946059D01*
X214574285Y-195946059D02*
X214621904Y-196041297D01*
X214621904Y-196041297D02*
X214621904Y-196279392D01*
X214621904Y-196279392D02*
X214574285Y-196374630D01*
X214574285Y-196374630D02*
X214526666Y-196422250D01*
X214526666Y-196422250D02*
X214431428Y-196469869D01*
X214431428Y-196469869D02*
X214193333Y-196469869D01*
X214193333Y-196469869D02*
X214098095Y-196422250D01*
X214098095Y-196422250D02*
X214050476Y-196374630D01*
X261642369Y-169676785D02*
X260642369Y-169676785D01*
X260642369Y-169676785D02*
X260642369Y-169438690D01*
X260642369Y-169438690D02*
X260689988Y-169295833D01*
X260689988Y-169295833D02*
X260785226Y-169200595D01*
X260785226Y-169200595D02*
X260880464Y-169152976D01*
X260880464Y-169152976D02*
X261070940Y-169105357D01*
X261070940Y-169105357D02*
X261213797Y-169105357D01*
X261213797Y-169105357D02*
X261404273Y-169152976D01*
X261404273Y-169152976D02*
X261499511Y-169200595D01*
X261499511Y-169200595D02*
X261594750Y-169295833D01*
X261594750Y-169295833D02*
X261642369Y-169438690D01*
X261642369Y-169438690D02*
X261642369Y-169676785D01*
X260737607Y-168724404D02*
X260689988Y-168676785D01*
X260689988Y-168676785D02*
X260642369Y-168581547D01*
X260642369Y-168581547D02*
X260642369Y-168343452D01*
X260642369Y-168343452D02*
X260689988Y-168248214D01*
X260689988Y-168248214D02*
X260737607Y-168200595D01*
X260737607Y-168200595D02*
X260832845Y-168152976D01*
X260832845Y-168152976D02*
X260928083Y-168152976D01*
X260928083Y-168152976D02*
X261070940Y-168200595D01*
X261070940Y-168200595D02*
X261642369Y-168772023D01*
X261642369Y-168772023D02*
X261642369Y-168152976D01*
X261070940Y-167581547D02*
X261023321Y-167676785D01*
X261023321Y-167676785D02*
X260975702Y-167724404D01*
X260975702Y-167724404D02*
X260880464Y-167772023D01*
X260880464Y-167772023D02*
X260832845Y-167772023D01*
X260832845Y-167772023D02*
X260737607Y-167724404D01*
X260737607Y-167724404D02*
X260689988Y-167676785D01*
X260689988Y-167676785D02*
X260642369Y-167581547D01*
X260642369Y-167581547D02*
X260642369Y-167391071D01*
X260642369Y-167391071D02*
X260689988Y-167295833D01*
X260689988Y-167295833D02*
X260737607Y-167248214D01*
X260737607Y-167248214D02*
X260832845Y-167200595D01*
X260832845Y-167200595D02*
X260880464Y-167200595D01*
X260880464Y-167200595D02*
X260975702Y-167248214D01*
X260975702Y-167248214D02*
X261023321Y-167295833D01*
X261023321Y-167295833D02*
X261070940Y-167391071D01*
X261070940Y-167391071D02*
X261070940Y-167581547D01*
X261070940Y-167581547D02*
X261118559Y-167676785D01*
X261118559Y-167676785D02*
X261166178Y-167724404D01*
X261166178Y-167724404D02*
X261261416Y-167772023D01*
X261261416Y-167772023D02*
X261451892Y-167772023D01*
X261451892Y-167772023D02*
X261547130Y-167724404D01*
X261547130Y-167724404D02*
X261594750Y-167676785D01*
X261594750Y-167676785D02*
X261642369Y-167581547D01*
X261642369Y-167581547D02*
X261642369Y-167391071D01*
X261642369Y-167391071D02*
X261594750Y-167295833D01*
X261594750Y-167295833D02*
X261547130Y-167248214D01*
X261547130Y-167248214D02*
X261451892Y-167200595D01*
X261451892Y-167200595D02*
X261261416Y-167200595D01*
X261261416Y-167200595D02*
X261166178Y-167248214D01*
X261166178Y-167248214D02*
X261118559Y-167295833D01*
X261118559Y-167295833D02*
X261070940Y-167391071D01*
X77843155Y-175038619D02*
X77843155Y-174038619D01*
X77843155Y-174038619D02*
X78081250Y-174038619D01*
X78081250Y-174038619D02*
X78224107Y-174086238D01*
X78224107Y-174086238D02*
X78319345Y-174181476D01*
X78319345Y-174181476D02*
X78366964Y-174276714D01*
X78366964Y-174276714D02*
X78414583Y-174467190D01*
X78414583Y-174467190D02*
X78414583Y-174610047D01*
X78414583Y-174610047D02*
X78366964Y-174800523D01*
X78366964Y-174800523D02*
X78319345Y-174895761D01*
X78319345Y-174895761D02*
X78224107Y-174991000D01*
X78224107Y-174991000D02*
X78081250Y-175038619D01*
X78081250Y-175038619D02*
X77843155Y-175038619D01*
X78747917Y-174038619D02*
X79366964Y-174038619D01*
X79366964Y-174038619D02*
X79033631Y-174419571D01*
X79033631Y-174419571D02*
X79176488Y-174419571D01*
X79176488Y-174419571D02*
X79271726Y-174467190D01*
X79271726Y-174467190D02*
X79319345Y-174514809D01*
X79319345Y-174514809D02*
X79366964Y-174610047D01*
X79366964Y-174610047D02*
X79366964Y-174848142D01*
X79366964Y-174848142D02*
X79319345Y-174943380D01*
X79319345Y-174943380D02*
X79271726Y-174991000D01*
X79271726Y-174991000D02*
X79176488Y-175038619D01*
X79176488Y-175038619D02*
X78890774Y-175038619D01*
X78890774Y-175038619D02*
X78795536Y-174991000D01*
X78795536Y-174991000D02*
X78747917Y-174943380D01*
X185442369Y-171711785D02*
X184442369Y-171711785D01*
X184442369Y-171711785D02*
X184442369Y-171473690D01*
X184442369Y-171473690D02*
X184489988Y-171330833D01*
X184489988Y-171330833D02*
X184585226Y-171235595D01*
X184585226Y-171235595D02*
X184680464Y-171187976D01*
X184680464Y-171187976D02*
X184870940Y-171140357D01*
X184870940Y-171140357D02*
X185013797Y-171140357D01*
X185013797Y-171140357D02*
X185204273Y-171187976D01*
X185204273Y-171187976D02*
X185299511Y-171235595D01*
X185299511Y-171235595D02*
X185394750Y-171330833D01*
X185394750Y-171330833D02*
X185442369Y-171473690D01*
X185442369Y-171473690D02*
X185442369Y-171711785D01*
X184537607Y-170759404D02*
X184489988Y-170711785D01*
X184489988Y-170711785D02*
X184442369Y-170616547D01*
X184442369Y-170616547D02*
X184442369Y-170378452D01*
X184442369Y-170378452D02*
X184489988Y-170283214D01*
X184489988Y-170283214D02*
X184537607Y-170235595D01*
X184537607Y-170235595D02*
X184632845Y-170187976D01*
X184632845Y-170187976D02*
X184728083Y-170187976D01*
X184728083Y-170187976D02*
X184870940Y-170235595D01*
X184870940Y-170235595D02*
X185442369Y-170807023D01*
X185442369Y-170807023D02*
X185442369Y-170187976D01*
X184442369Y-169568928D02*
X184442369Y-169473690D01*
X184442369Y-169473690D02*
X184489988Y-169378452D01*
X184489988Y-169378452D02*
X184537607Y-169330833D01*
X184537607Y-169330833D02*
X184632845Y-169283214D01*
X184632845Y-169283214D02*
X184823321Y-169235595D01*
X184823321Y-169235595D02*
X185061416Y-169235595D01*
X185061416Y-169235595D02*
X185251892Y-169283214D01*
X185251892Y-169283214D02*
X185347130Y-169330833D01*
X185347130Y-169330833D02*
X185394750Y-169378452D01*
X185394750Y-169378452D02*
X185442369Y-169473690D01*
X185442369Y-169473690D02*
X185442369Y-169568928D01*
X185442369Y-169568928D02*
X185394750Y-169664166D01*
X185394750Y-169664166D02*
X185347130Y-169711785D01*
X185347130Y-169711785D02*
X185251892Y-169759404D01*
X185251892Y-169759404D02*
X185061416Y-169807023D01*
X185061416Y-169807023D02*
X184823321Y-169807023D01*
X184823321Y-169807023D02*
X184632845Y-169759404D01*
X184632845Y-169759404D02*
X184537607Y-169711785D01*
X184537607Y-169711785D02*
X184489988Y-169664166D01*
X184489988Y-169664166D02*
X184442369Y-169568928D01*
X152960714Y-151226119D02*
X152960714Y-150226119D01*
X152960714Y-150226119D02*
X153198809Y-150226119D01*
X153198809Y-150226119D02*
X153341666Y-150273738D01*
X153341666Y-150273738D02*
X153436904Y-150368976D01*
X153436904Y-150368976D02*
X153484523Y-150464214D01*
X153484523Y-150464214D02*
X153532142Y-150654690D01*
X153532142Y-150654690D02*
X153532142Y-150797547D01*
X153532142Y-150797547D02*
X153484523Y-150988023D01*
X153484523Y-150988023D02*
X153436904Y-151083261D01*
X153436904Y-151083261D02*
X153341666Y-151178500D01*
X153341666Y-151178500D02*
X153198809Y-151226119D01*
X153198809Y-151226119D02*
X152960714Y-151226119D01*
X154484523Y-151226119D02*
X153913095Y-151226119D01*
X154198809Y-151226119D02*
X154198809Y-150226119D01*
X154198809Y-150226119D02*
X154103571Y-150368976D01*
X154103571Y-150368976D02*
X154008333Y-150464214D01*
X154008333Y-150464214D02*
X153913095Y-150511833D01*
X155389285Y-150226119D02*
X154913095Y-150226119D01*
X154913095Y-150226119D02*
X154865476Y-150702309D01*
X154865476Y-150702309D02*
X154913095Y-150654690D01*
X154913095Y-150654690D02*
X155008333Y-150607071D01*
X155008333Y-150607071D02*
X155246428Y-150607071D01*
X155246428Y-150607071D02*
X155341666Y-150654690D01*
X155341666Y-150654690D02*
X155389285Y-150702309D01*
X155389285Y-150702309D02*
X155436904Y-150797547D01*
X155436904Y-150797547D02*
X155436904Y-151035642D01*
X155436904Y-151035642D02*
X155389285Y-151130880D01*
X155389285Y-151130880D02*
X155341666Y-151178500D01*
X155341666Y-151178500D02*
X155246428Y-151226119D01*
X155246428Y-151226119D02*
X155008333Y-151226119D01*
X155008333Y-151226119D02*
X154913095Y-151178500D01*
X154913095Y-151178500D02*
X154865476Y-151130880D01*
X299742369Y-169676785D02*
X298742369Y-169676785D01*
X298742369Y-169676785D02*
X298742369Y-169438690D01*
X298742369Y-169438690D02*
X298789988Y-169295833D01*
X298789988Y-169295833D02*
X298885226Y-169200595D01*
X298885226Y-169200595D02*
X298980464Y-169152976D01*
X298980464Y-169152976D02*
X299170940Y-169105357D01*
X299170940Y-169105357D02*
X299313797Y-169105357D01*
X299313797Y-169105357D02*
X299504273Y-169152976D01*
X299504273Y-169152976D02*
X299599511Y-169200595D01*
X299599511Y-169200595D02*
X299694750Y-169295833D01*
X299694750Y-169295833D02*
X299742369Y-169438690D01*
X299742369Y-169438690D02*
X299742369Y-169676785D01*
X298742369Y-168772023D02*
X298742369Y-168152976D01*
X298742369Y-168152976D02*
X299123321Y-168486309D01*
X299123321Y-168486309D02*
X299123321Y-168343452D01*
X299123321Y-168343452D02*
X299170940Y-168248214D01*
X299170940Y-168248214D02*
X299218559Y-168200595D01*
X299218559Y-168200595D02*
X299313797Y-168152976D01*
X299313797Y-168152976D02*
X299551892Y-168152976D01*
X299551892Y-168152976D02*
X299647130Y-168200595D01*
X299647130Y-168200595D02*
X299694750Y-168248214D01*
X299694750Y-168248214D02*
X299742369Y-168343452D01*
X299742369Y-168343452D02*
X299742369Y-168629166D01*
X299742369Y-168629166D02*
X299694750Y-168724404D01*
X299694750Y-168724404D02*
X299647130Y-168772023D01*
X298742369Y-167295833D02*
X298742369Y-167486309D01*
X298742369Y-167486309D02*
X298789988Y-167581547D01*
X298789988Y-167581547D02*
X298837607Y-167629166D01*
X298837607Y-167629166D02*
X298980464Y-167724404D01*
X298980464Y-167724404D02*
X299170940Y-167772023D01*
X299170940Y-167772023D02*
X299551892Y-167772023D01*
X299551892Y-167772023D02*
X299647130Y-167724404D01*
X299647130Y-167724404D02*
X299694750Y-167676785D01*
X299694750Y-167676785D02*
X299742369Y-167581547D01*
X299742369Y-167581547D02*
X299742369Y-167391071D01*
X299742369Y-167391071D02*
X299694750Y-167295833D01*
X299694750Y-167295833D02*
X299647130Y-167248214D01*
X299647130Y-167248214D02*
X299551892Y-167200595D01*
X299551892Y-167200595D02*
X299313797Y-167200595D01*
X299313797Y-167200595D02*
X299218559Y-167248214D01*
X299218559Y-167248214D02*
X299170940Y-167295833D01*
X299170940Y-167295833D02*
X299123321Y-167391071D01*
X299123321Y-167391071D02*
X299123321Y-167581547D01*
X299123321Y-167581547D02*
X299170940Y-167676785D01*
X299170940Y-167676785D02*
X299218559Y-167724404D01*
X299218559Y-167724404D02*
X299313797Y-167772023D01*
X305360714Y-151226119D02*
X305360714Y-150226119D01*
X305360714Y-150226119D02*
X305598809Y-150226119D01*
X305598809Y-150226119D02*
X305741666Y-150273738D01*
X305741666Y-150273738D02*
X305836904Y-150368976D01*
X305836904Y-150368976D02*
X305884523Y-150464214D01*
X305884523Y-150464214D02*
X305932142Y-150654690D01*
X305932142Y-150654690D02*
X305932142Y-150797547D01*
X305932142Y-150797547D02*
X305884523Y-150988023D01*
X305884523Y-150988023D02*
X305836904Y-151083261D01*
X305836904Y-151083261D02*
X305741666Y-151178500D01*
X305741666Y-151178500D02*
X305598809Y-151226119D01*
X305598809Y-151226119D02*
X305360714Y-151226119D01*
X306265476Y-150226119D02*
X306884523Y-150226119D01*
X306884523Y-150226119D02*
X306551190Y-150607071D01*
X306551190Y-150607071D02*
X306694047Y-150607071D01*
X306694047Y-150607071D02*
X306789285Y-150654690D01*
X306789285Y-150654690D02*
X306836904Y-150702309D01*
X306836904Y-150702309D02*
X306884523Y-150797547D01*
X306884523Y-150797547D02*
X306884523Y-151035642D01*
X306884523Y-151035642D02*
X306836904Y-151130880D01*
X306836904Y-151130880D02*
X306789285Y-151178500D01*
X306789285Y-151178500D02*
X306694047Y-151226119D01*
X306694047Y-151226119D02*
X306408333Y-151226119D01*
X306408333Y-151226119D02*
X306313095Y-151178500D01*
X306313095Y-151178500D02*
X306265476Y-151130880D01*
X307455952Y-150654690D02*
X307360714Y-150607071D01*
X307360714Y-150607071D02*
X307313095Y-150559452D01*
X307313095Y-150559452D02*
X307265476Y-150464214D01*
X307265476Y-150464214D02*
X307265476Y-150416595D01*
X307265476Y-150416595D02*
X307313095Y-150321357D01*
X307313095Y-150321357D02*
X307360714Y-150273738D01*
X307360714Y-150273738D02*
X307455952Y-150226119D01*
X307455952Y-150226119D02*
X307646428Y-150226119D01*
X307646428Y-150226119D02*
X307741666Y-150273738D01*
X307741666Y-150273738D02*
X307789285Y-150321357D01*
X307789285Y-150321357D02*
X307836904Y-150416595D01*
X307836904Y-150416595D02*
X307836904Y-150464214D01*
X307836904Y-150464214D02*
X307789285Y-150559452D01*
X307789285Y-150559452D02*
X307741666Y-150607071D01*
X307741666Y-150607071D02*
X307646428Y-150654690D01*
X307646428Y-150654690D02*
X307455952Y-150654690D01*
X307455952Y-150654690D02*
X307360714Y-150702309D01*
X307360714Y-150702309D02*
X307313095Y-150749928D01*
X307313095Y-150749928D02*
X307265476Y-150845166D01*
X307265476Y-150845166D02*
X307265476Y-151035642D01*
X307265476Y-151035642D02*
X307313095Y-151130880D01*
X307313095Y-151130880D02*
X307360714Y-151178500D01*
X307360714Y-151178500D02*
X307455952Y-151226119D01*
X307455952Y-151226119D02*
X307646428Y-151226119D01*
X307646428Y-151226119D02*
X307741666Y-151178500D01*
X307741666Y-151178500D02*
X307789285Y-151130880D01*
X307789285Y-151130880D02*
X307836904Y-151035642D01*
X307836904Y-151035642D02*
X307836904Y-150845166D01*
X307836904Y-150845166D02*
X307789285Y-150749928D01*
X307789285Y-150749928D02*
X307741666Y-150702309D01*
X307741666Y-150702309D02*
X307646428Y-150654690D01*
X147342369Y-150626785D02*
X146342369Y-150626785D01*
X146342369Y-150626785D02*
X146342369Y-150388690D01*
X146342369Y-150388690D02*
X146389988Y-150245833D01*
X146389988Y-150245833D02*
X146485226Y-150150595D01*
X146485226Y-150150595D02*
X146580464Y-150102976D01*
X146580464Y-150102976D02*
X146770940Y-150055357D01*
X146770940Y-150055357D02*
X146913797Y-150055357D01*
X146913797Y-150055357D02*
X147104273Y-150102976D01*
X147104273Y-150102976D02*
X147199511Y-150150595D01*
X147199511Y-150150595D02*
X147294750Y-150245833D01*
X147294750Y-150245833D02*
X147342369Y-150388690D01*
X147342369Y-150388690D02*
X147342369Y-150626785D01*
X147342369Y-149102976D02*
X147342369Y-149674404D01*
X147342369Y-149388690D02*
X146342369Y-149388690D01*
X146342369Y-149388690D02*
X146485226Y-149483928D01*
X146485226Y-149483928D02*
X146580464Y-149579166D01*
X146580464Y-149579166D02*
X146628083Y-149674404D01*
X147342369Y-148150595D02*
X147342369Y-148722023D01*
X147342369Y-148436309D02*
X146342369Y-148436309D01*
X146342369Y-148436309D02*
X146485226Y-148531547D01*
X146485226Y-148531547D02*
X146580464Y-148626785D01*
X146580464Y-148626785D02*
X146628083Y-148722023D01*
X261642369Y-150626785D02*
X260642369Y-150626785D01*
X260642369Y-150626785D02*
X260642369Y-150388690D01*
X260642369Y-150388690D02*
X260689988Y-150245833D01*
X260689988Y-150245833D02*
X260785226Y-150150595D01*
X260785226Y-150150595D02*
X260880464Y-150102976D01*
X260880464Y-150102976D02*
X261070940Y-150055357D01*
X261070940Y-150055357D02*
X261213797Y-150055357D01*
X261213797Y-150055357D02*
X261404273Y-150102976D01*
X261404273Y-150102976D02*
X261499511Y-150150595D01*
X261499511Y-150150595D02*
X261594750Y-150245833D01*
X261594750Y-150245833D02*
X261642369Y-150388690D01*
X261642369Y-150388690D02*
X261642369Y-150626785D01*
X260737607Y-149674404D02*
X260689988Y-149626785D01*
X260689988Y-149626785D02*
X260642369Y-149531547D01*
X260642369Y-149531547D02*
X260642369Y-149293452D01*
X260642369Y-149293452D02*
X260689988Y-149198214D01*
X260689988Y-149198214D02*
X260737607Y-149150595D01*
X260737607Y-149150595D02*
X260832845Y-149102976D01*
X260832845Y-149102976D02*
X260928083Y-149102976D01*
X260928083Y-149102976D02*
X261070940Y-149150595D01*
X261070940Y-149150595D02*
X261642369Y-149722023D01*
X261642369Y-149722023D02*
X261642369Y-149102976D01*
X260642369Y-148769642D02*
X260642369Y-148102976D01*
X260642369Y-148102976D02*
X261642369Y-148531547D01*
X261642369Y-131576785D02*
X260642369Y-131576785D01*
X260642369Y-131576785D02*
X260642369Y-131338690D01*
X260642369Y-131338690D02*
X260689988Y-131195833D01*
X260689988Y-131195833D02*
X260785226Y-131100595D01*
X260785226Y-131100595D02*
X260880464Y-131052976D01*
X260880464Y-131052976D02*
X261070940Y-131005357D01*
X261070940Y-131005357D02*
X261213797Y-131005357D01*
X261213797Y-131005357D02*
X261404273Y-131052976D01*
X261404273Y-131052976D02*
X261499511Y-131100595D01*
X261499511Y-131100595D02*
X261594750Y-131195833D01*
X261594750Y-131195833D02*
X261642369Y-131338690D01*
X261642369Y-131338690D02*
X261642369Y-131576785D01*
X260737607Y-130624404D02*
X260689988Y-130576785D01*
X260689988Y-130576785D02*
X260642369Y-130481547D01*
X260642369Y-130481547D02*
X260642369Y-130243452D01*
X260642369Y-130243452D02*
X260689988Y-130148214D01*
X260689988Y-130148214D02*
X260737607Y-130100595D01*
X260737607Y-130100595D02*
X260832845Y-130052976D01*
X260832845Y-130052976D02*
X260928083Y-130052976D01*
X260928083Y-130052976D02*
X261070940Y-130100595D01*
X261070940Y-130100595D02*
X261642369Y-130672023D01*
X261642369Y-130672023D02*
X261642369Y-130052976D01*
X260642369Y-129195833D02*
X260642369Y-129386309D01*
X260642369Y-129386309D02*
X260689988Y-129481547D01*
X260689988Y-129481547D02*
X260737607Y-129529166D01*
X260737607Y-129529166D02*
X260880464Y-129624404D01*
X260880464Y-129624404D02*
X261070940Y-129672023D01*
X261070940Y-129672023D02*
X261451892Y-129672023D01*
X261451892Y-129672023D02*
X261547130Y-129624404D01*
X261547130Y-129624404D02*
X261594750Y-129576785D01*
X261594750Y-129576785D02*
X261642369Y-129481547D01*
X261642369Y-129481547D02*
X261642369Y-129291071D01*
X261642369Y-129291071D02*
X261594750Y-129195833D01*
X261594750Y-129195833D02*
X261547130Y-129148214D01*
X261547130Y-129148214D02*
X261451892Y-129100595D01*
X261451892Y-129100595D02*
X261213797Y-129100595D01*
X261213797Y-129100595D02*
X261118559Y-129148214D01*
X261118559Y-129148214D02*
X261070940Y-129195833D01*
X261070940Y-129195833D02*
X261023321Y-129291071D01*
X261023321Y-129291071D02*
X261023321Y-129481547D01*
X261023321Y-129481547D02*
X261070940Y-129576785D01*
X261070940Y-129576785D02*
X261118559Y-129624404D01*
X261118559Y-129624404D02*
X261213797Y-129672023D01*
X171664464Y-194088619D02*
X171664464Y-193088619D01*
X171664464Y-193088619D02*
X171902559Y-193088619D01*
X171902559Y-193088619D02*
X172045416Y-193136238D01*
X172045416Y-193136238D02*
X172140654Y-193231476D01*
X172140654Y-193231476D02*
X172188273Y-193326714D01*
X172188273Y-193326714D02*
X172235892Y-193517190D01*
X172235892Y-193517190D02*
X172235892Y-193660047D01*
X172235892Y-193660047D02*
X172188273Y-193850523D01*
X172188273Y-193850523D02*
X172140654Y-193945761D01*
X172140654Y-193945761D02*
X172045416Y-194041000D01*
X172045416Y-194041000D02*
X171902559Y-194088619D01*
X171902559Y-194088619D02*
X171664464Y-194088619D01*
X173188273Y-194088619D02*
X172616845Y-194088619D01*
X172902559Y-194088619D02*
X172902559Y-193088619D01*
X172902559Y-193088619D02*
X172807321Y-193231476D01*
X172807321Y-193231476D02*
X172712083Y-193326714D01*
X172712083Y-193326714D02*
X172616845Y-193374333D01*
X173521607Y-193088619D02*
X174188273Y-193088619D01*
X174188273Y-193088619D02*
X173759702Y-194088619D01*
X280692369Y-150626785D02*
X279692369Y-150626785D01*
X279692369Y-150626785D02*
X279692369Y-150388690D01*
X279692369Y-150388690D02*
X279739988Y-150245833D01*
X279739988Y-150245833D02*
X279835226Y-150150595D01*
X279835226Y-150150595D02*
X279930464Y-150102976D01*
X279930464Y-150102976D02*
X280120940Y-150055357D01*
X280120940Y-150055357D02*
X280263797Y-150055357D01*
X280263797Y-150055357D02*
X280454273Y-150102976D01*
X280454273Y-150102976D02*
X280549511Y-150150595D01*
X280549511Y-150150595D02*
X280644750Y-150245833D01*
X280644750Y-150245833D02*
X280692369Y-150388690D01*
X280692369Y-150388690D02*
X280692369Y-150626785D01*
X279692369Y-149722023D02*
X279692369Y-149102976D01*
X279692369Y-149102976D02*
X280073321Y-149436309D01*
X280073321Y-149436309D02*
X280073321Y-149293452D01*
X280073321Y-149293452D02*
X280120940Y-149198214D01*
X280120940Y-149198214D02*
X280168559Y-149150595D01*
X280168559Y-149150595D02*
X280263797Y-149102976D01*
X280263797Y-149102976D02*
X280501892Y-149102976D01*
X280501892Y-149102976D02*
X280597130Y-149150595D01*
X280597130Y-149150595D02*
X280644750Y-149198214D01*
X280644750Y-149198214D02*
X280692369Y-149293452D01*
X280692369Y-149293452D02*
X280692369Y-149579166D01*
X280692369Y-149579166D02*
X280644750Y-149674404D01*
X280644750Y-149674404D02*
X280597130Y-149722023D01*
X279787607Y-148722023D02*
X279739988Y-148674404D01*
X279739988Y-148674404D02*
X279692369Y-148579166D01*
X279692369Y-148579166D02*
X279692369Y-148341071D01*
X279692369Y-148341071D02*
X279739988Y-148245833D01*
X279739988Y-148245833D02*
X279787607Y-148198214D01*
X279787607Y-148198214D02*
X279882845Y-148150595D01*
X279882845Y-148150595D02*
X279978083Y-148150595D01*
X279978083Y-148150595D02*
X280120940Y-148198214D01*
X280120940Y-148198214D02*
X280692369Y-148769642D01*
X280692369Y-148769642D02*
X280692369Y-148150595D01*
X318792369Y-136339285D02*
X317792369Y-136339285D01*
X317792369Y-136339285D02*
X317792369Y-136101190D01*
X317792369Y-136101190D02*
X317839988Y-135958333D01*
X317839988Y-135958333D02*
X317935226Y-135863095D01*
X317935226Y-135863095D02*
X318030464Y-135815476D01*
X318030464Y-135815476D02*
X318220940Y-135767857D01*
X318220940Y-135767857D02*
X318363797Y-135767857D01*
X318363797Y-135767857D02*
X318554273Y-135815476D01*
X318554273Y-135815476D02*
X318649511Y-135863095D01*
X318649511Y-135863095D02*
X318744750Y-135958333D01*
X318744750Y-135958333D02*
X318792369Y-136101190D01*
X318792369Y-136101190D02*
X318792369Y-136339285D01*
X317792369Y-135434523D02*
X317792369Y-134815476D01*
X317792369Y-134815476D02*
X318173321Y-135148809D01*
X318173321Y-135148809D02*
X318173321Y-135005952D01*
X318173321Y-135005952D02*
X318220940Y-134910714D01*
X318220940Y-134910714D02*
X318268559Y-134863095D01*
X318268559Y-134863095D02*
X318363797Y-134815476D01*
X318363797Y-134815476D02*
X318601892Y-134815476D01*
X318601892Y-134815476D02*
X318697130Y-134863095D01*
X318697130Y-134863095D02*
X318744750Y-134910714D01*
X318744750Y-134910714D02*
X318792369Y-135005952D01*
X318792369Y-135005952D02*
X318792369Y-135291666D01*
X318792369Y-135291666D02*
X318744750Y-135386904D01*
X318744750Y-135386904D02*
X318697130Y-135434523D01*
X317792369Y-134482142D02*
X317792369Y-133815476D01*
X317792369Y-133815476D02*
X318792369Y-134244047D01*
X147342369Y-131576785D02*
X146342369Y-131576785D01*
X146342369Y-131576785D02*
X146342369Y-131338690D01*
X146342369Y-131338690D02*
X146389988Y-131195833D01*
X146389988Y-131195833D02*
X146485226Y-131100595D01*
X146485226Y-131100595D02*
X146580464Y-131052976D01*
X146580464Y-131052976D02*
X146770940Y-131005357D01*
X146770940Y-131005357D02*
X146913797Y-131005357D01*
X146913797Y-131005357D02*
X147104273Y-131052976D01*
X147104273Y-131052976D02*
X147199511Y-131100595D01*
X147199511Y-131100595D02*
X147294750Y-131195833D01*
X147294750Y-131195833D02*
X147342369Y-131338690D01*
X147342369Y-131338690D02*
X147342369Y-131576785D01*
X147342369Y-130052976D02*
X147342369Y-130624404D01*
X147342369Y-130338690D02*
X146342369Y-130338690D01*
X146342369Y-130338690D02*
X146485226Y-130433928D01*
X146485226Y-130433928D02*
X146580464Y-130529166D01*
X146580464Y-130529166D02*
X146628083Y-130624404D01*
X146342369Y-129433928D02*
X146342369Y-129338690D01*
X146342369Y-129338690D02*
X146389988Y-129243452D01*
X146389988Y-129243452D02*
X146437607Y-129195833D01*
X146437607Y-129195833D02*
X146532845Y-129148214D01*
X146532845Y-129148214D02*
X146723321Y-129100595D01*
X146723321Y-129100595D02*
X146961416Y-129100595D01*
X146961416Y-129100595D02*
X147151892Y-129148214D01*
X147151892Y-129148214D02*
X147247130Y-129195833D01*
X147247130Y-129195833D02*
X147294750Y-129243452D01*
X147294750Y-129243452D02*
X147342369Y-129338690D01*
X147342369Y-129338690D02*
X147342369Y-129433928D01*
X147342369Y-129433928D02*
X147294750Y-129529166D01*
X147294750Y-129529166D02*
X147247130Y-129576785D01*
X147247130Y-129576785D02*
X147151892Y-129624404D01*
X147151892Y-129624404D02*
X146961416Y-129672023D01*
X146961416Y-129672023D02*
X146723321Y-129672023D01*
X146723321Y-129672023D02*
X146532845Y-129624404D01*
X146532845Y-129624404D02*
X146437607Y-129576785D01*
X146437607Y-129576785D02*
X146389988Y-129529166D01*
X146389988Y-129529166D02*
X146342369Y-129433928D01*
X337842369Y-136339285D02*
X336842369Y-136339285D01*
X336842369Y-136339285D02*
X336842369Y-136101190D01*
X336842369Y-136101190D02*
X336889988Y-135958333D01*
X336889988Y-135958333D02*
X336985226Y-135863095D01*
X336985226Y-135863095D02*
X337080464Y-135815476D01*
X337080464Y-135815476D02*
X337270940Y-135767857D01*
X337270940Y-135767857D02*
X337413797Y-135767857D01*
X337413797Y-135767857D02*
X337604273Y-135815476D01*
X337604273Y-135815476D02*
X337699511Y-135863095D01*
X337699511Y-135863095D02*
X337794750Y-135958333D01*
X337794750Y-135958333D02*
X337842369Y-136101190D01*
X337842369Y-136101190D02*
X337842369Y-136339285D01*
X337175702Y-134910714D02*
X337842369Y-134910714D01*
X336794750Y-135148809D02*
X337509035Y-135386904D01*
X337509035Y-135386904D02*
X337509035Y-134767857D01*
X336842369Y-134196428D02*
X336842369Y-134101190D01*
X336842369Y-134101190D02*
X336889988Y-134005952D01*
X336889988Y-134005952D02*
X336937607Y-133958333D01*
X336937607Y-133958333D02*
X337032845Y-133910714D01*
X337032845Y-133910714D02*
X337223321Y-133863095D01*
X337223321Y-133863095D02*
X337461416Y-133863095D01*
X337461416Y-133863095D02*
X337651892Y-133910714D01*
X337651892Y-133910714D02*
X337747130Y-133958333D01*
X337747130Y-133958333D02*
X337794750Y-134005952D01*
X337794750Y-134005952D02*
X337842369Y-134101190D01*
X337842369Y-134101190D02*
X337842369Y-134196428D01*
X337842369Y-134196428D02*
X337794750Y-134291666D01*
X337794750Y-134291666D02*
X337747130Y-134339285D01*
X337747130Y-134339285D02*
X337651892Y-134386904D01*
X337651892Y-134386904D02*
X337461416Y-134434523D01*
X337461416Y-134434523D02*
X337223321Y-134434523D01*
X337223321Y-134434523D02*
X337032845Y-134386904D01*
X337032845Y-134386904D02*
X336937607Y-134339285D01*
X336937607Y-134339285D02*
X336889988Y-134291666D01*
X336889988Y-134291666D02*
X336842369Y-134196428D01*
X305360714Y-170276119D02*
X305360714Y-169276119D01*
X305360714Y-169276119D02*
X305598809Y-169276119D01*
X305598809Y-169276119D02*
X305741666Y-169323738D01*
X305741666Y-169323738D02*
X305836904Y-169418976D01*
X305836904Y-169418976D02*
X305884523Y-169514214D01*
X305884523Y-169514214D02*
X305932142Y-169704690D01*
X305932142Y-169704690D02*
X305932142Y-169847547D01*
X305932142Y-169847547D02*
X305884523Y-170038023D01*
X305884523Y-170038023D02*
X305836904Y-170133261D01*
X305836904Y-170133261D02*
X305741666Y-170228500D01*
X305741666Y-170228500D02*
X305598809Y-170276119D01*
X305598809Y-170276119D02*
X305360714Y-170276119D01*
X306265476Y-169276119D02*
X306884523Y-169276119D01*
X306884523Y-169276119D02*
X306551190Y-169657071D01*
X306551190Y-169657071D02*
X306694047Y-169657071D01*
X306694047Y-169657071D02*
X306789285Y-169704690D01*
X306789285Y-169704690D02*
X306836904Y-169752309D01*
X306836904Y-169752309D02*
X306884523Y-169847547D01*
X306884523Y-169847547D02*
X306884523Y-170085642D01*
X306884523Y-170085642D02*
X306836904Y-170180880D01*
X306836904Y-170180880D02*
X306789285Y-170228500D01*
X306789285Y-170228500D02*
X306694047Y-170276119D01*
X306694047Y-170276119D02*
X306408333Y-170276119D01*
X306408333Y-170276119D02*
X306313095Y-170228500D01*
X306313095Y-170228500D02*
X306265476Y-170180880D01*
X307360714Y-170276119D02*
X307551190Y-170276119D01*
X307551190Y-170276119D02*
X307646428Y-170228500D01*
X307646428Y-170228500D02*
X307694047Y-170180880D01*
X307694047Y-170180880D02*
X307789285Y-170038023D01*
X307789285Y-170038023D02*
X307836904Y-169847547D01*
X307836904Y-169847547D02*
X307836904Y-169466595D01*
X307836904Y-169466595D02*
X307789285Y-169371357D01*
X307789285Y-169371357D02*
X307741666Y-169323738D01*
X307741666Y-169323738D02*
X307646428Y-169276119D01*
X307646428Y-169276119D02*
X307455952Y-169276119D01*
X307455952Y-169276119D02*
X307360714Y-169323738D01*
X307360714Y-169323738D02*
X307313095Y-169371357D01*
X307313095Y-169371357D02*
X307265476Y-169466595D01*
X307265476Y-169466595D02*
X307265476Y-169704690D01*
X307265476Y-169704690D02*
X307313095Y-169799928D01*
X307313095Y-169799928D02*
X307360714Y-169847547D01*
X307360714Y-169847547D02*
X307455952Y-169895166D01*
X307455952Y-169895166D02*
X307646428Y-169895166D01*
X307646428Y-169895166D02*
X307741666Y-169847547D01*
X307741666Y-169847547D02*
X307789285Y-169799928D01*
X307789285Y-169799928D02*
X307836904Y-169704690D01*
X185442369Y-152661785D02*
X184442369Y-152661785D01*
X184442369Y-152661785D02*
X184442369Y-152423690D01*
X184442369Y-152423690D02*
X184489988Y-152280833D01*
X184489988Y-152280833D02*
X184585226Y-152185595D01*
X184585226Y-152185595D02*
X184680464Y-152137976D01*
X184680464Y-152137976D02*
X184870940Y-152090357D01*
X184870940Y-152090357D02*
X185013797Y-152090357D01*
X185013797Y-152090357D02*
X185204273Y-152137976D01*
X185204273Y-152137976D02*
X185299511Y-152185595D01*
X185299511Y-152185595D02*
X185394750Y-152280833D01*
X185394750Y-152280833D02*
X185442369Y-152423690D01*
X185442369Y-152423690D02*
X185442369Y-152661785D01*
X185442369Y-151137976D02*
X185442369Y-151709404D01*
X185442369Y-151423690D02*
X184442369Y-151423690D01*
X184442369Y-151423690D02*
X184585226Y-151518928D01*
X184585226Y-151518928D02*
X184680464Y-151614166D01*
X184680464Y-151614166D02*
X184728083Y-151709404D01*
X185442369Y-150661785D02*
X185442369Y-150471309D01*
X185442369Y-150471309D02*
X185394750Y-150376071D01*
X185394750Y-150376071D02*
X185347130Y-150328452D01*
X185347130Y-150328452D02*
X185204273Y-150233214D01*
X185204273Y-150233214D02*
X185013797Y-150185595D01*
X185013797Y-150185595D02*
X184632845Y-150185595D01*
X184632845Y-150185595D02*
X184537607Y-150233214D01*
X184537607Y-150233214D02*
X184489988Y-150280833D01*
X184489988Y-150280833D02*
X184442369Y-150376071D01*
X184442369Y-150376071D02*
X184442369Y-150566547D01*
X184442369Y-150566547D02*
X184489988Y-150661785D01*
X184489988Y-150661785D02*
X184537607Y-150709404D01*
X184537607Y-150709404D02*
X184632845Y-150757023D01*
X184632845Y-150757023D02*
X184870940Y-150757023D01*
X184870940Y-150757023D02*
X184966178Y-150709404D01*
X184966178Y-150709404D02*
X185013797Y-150661785D01*
X185013797Y-150661785D02*
X185061416Y-150566547D01*
X185061416Y-150566547D02*
X185061416Y-150376071D01*
X185061416Y-150376071D02*
X185013797Y-150280833D01*
X185013797Y-150280833D02*
X184966178Y-150233214D01*
X184966178Y-150233214D02*
X184870940Y-150185595D01*
X109242369Y-150150594D02*
X108242369Y-150150594D01*
X108242369Y-150150594D02*
X108242369Y-149912499D01*
X108242369Y-149912499D02*
X108289988Y-149769642D01*
X108289988Y-149769642D02*
X108385226Y-149674404D01*
X108385226Y-149674404D02*
X108480464Y-149626785D01*
X108480464Y-149626785D02*
X108670940Y-149579166D01*
X108670940Y-149579166D02*
X108813797Y-149579166D01*
X108813797Y-149579166D02*
X109004273Y-149626785D01*
X109004273Y-149626785D02*
X109099511Y-149674404D01*
X109099511Y-149674404D02*
X109194750Y-149769642D01*
X109194750Y-149769642D02*
X109242369Y-149912499D01*
X109242369Y-149912499D02*
X109242369Y-150150594D01*
X108242369Y-148674404D02*
X108242369Y-149150594D01*
X108242369Y-149150594D02*
X108718559Y-149198213D01*
X108718559Y-149198213D02*
X108670940Y-149150594D01*
X108670940Y-149150594D02*
X108623321Y-149055356D01*
X108623321Y-149055356D02*
X108623321Y-148817261D01*
X108623321Y-148817261D02*
X108670940Y-148722023D01*
X108670940Y-148722023D02*
X108718559Y-148674404D01*
X108718559Y-148674404D02*
X108813797Y-148626785D01*
X108813797Y-148626785D02*
X109051892Y-148626785D01*
X109051892Y-148626785D02*
X109147130Y-148674404D01*
X109147130Y-148674404D02*
X109194750Y-148722023D01*
X109194750Y-148722023D02*
X109242369Y-148817261D01*
X109242369Y-148817261D02*
X109242369Y-149055356D01*
X109242369Y-149055356D02*
X109194750Y-149150594D01*
X109194750Y-149150594D02*
X109147130Y-149198213D01*
X280692369Y-131576785D02*
X279692369Y-131576785D01*
X279692369Y-131576785D02*
X279692369Y-131338690D01*
X279692369Y-131338690D02*
X279739988Y-131195833D01*
X279739988Y-131195833D02*
X279835226Y-131100595D01*
X279835226Y-131100595D02*
X279930464Y-131052976D01*
X279930464Y-131052976D02*
X280120940Y-131005357D01*
X280120940Y-131005357D02*
X280263797Y-131005357D01*
X280263797Y-131005357D02*
X280454273Y-131052976D01*
X280454273Y-131052976D02*
X280549511Y-131100595D01*
X280549511Y-131100595D02*
X280644750Y-131195833D01*
X280644750Y-131195833D02*
X280692369Y-131338690D01*
X280692369Y-131338690D02*
X280692369Y-131576785D01*
X279692369Y-130672023D02*
X279692369Y-130052976D01*
X279692369Y-130052976D02*
X280073321Y-130386309D01*
X280073321Y-130386309D02*
X280073321Y-130243452D01*
X280073321Y-130243452D02*
X280120940Y-130148214D01*
X280120940Y-130148214D02*
X280168559Y-130100595D01*
X280168559Y-130100595D02*
X280263797Y-130052976D01*
X280263797Y-130052976D02*
X280501892Y-130052976D01*
X280501892Y-130052976D02*
X280597130Y-130100595D01*
X280597130Y-130100595D02*
X280644750Y-130148214D01*
X280644750Y-130148214D02*
X280692369Y-130243452D01*
X280692369Y-130243452D02*
X280692369Y-130529166D01*
X280692369Y-130529166D02*
X280644750Y-130624404D01*
X280644750Y-130624404D02*
X280597130Y-130672023D01*
X280692369Y-129100595D02*
X280692369Y-129672023D01*
X280692369Y-129386309D02*
X279692369Y-129386309D01*
X279692369Y-129386309D02*
X279835226Y-129481547D01*
X279835226Y-129481547D02*
X279930464Y-129576785D01*
X279930464Y-129576785D02*
X279978083Y-129672023D01*
X299742369Y-131576785D02*
X298742369Y-131576785D01*
X298742369Y-131576785D02*
X298742369Y-131338690D01*
X298742369Y-131338690D02*
X298789988Y-131195833D01*
X298789988Y-131195833D02*
X298885226Y-131100595D01*
X298885226Y-131100595D02*
X298980464Y-131052976D01*
X298980464Y-131052976D02*
X299170940Y-131005357D01*
X299170940Y-131005357D02*
X299313797Y-131005357D01*
X299313797Y-131005357D02*
X299504273Y-131052976D01*
X299504273Y-131052976D02*
X299599511Y-131100595D01*
X299599511Y-131100595D02*
X299694750Y-131195833D01*
X299694750Y-131195833D02*
X299742369Y-131338690D01*
X299742369Y-131338690D02*
X299742369Y-131576785D01*
X298742369Y-130672023D02*
X298742369Y-130052976D01*
X298742369Y-130052976D02*
X299123321Y-130386309D01*
X299123321Y-130386309D02*
X299123321Y-130243452D01*
X299123321Y-130243452D02*
X299170940Y-130148214D01*
X299170940Y-130148214D02*
X299218559Y-130100595D01*
X299218559Y-130100595D02*
X299313797Y-130052976D01*
X299313797Y-130052976D02*
X299551892Y-130052976D01*
X299551892Y-130052976D02*
X299647130Y-130100595D01*
X299647130Y-130100595D02*
X299694750Y-130148214D01*
X299694750Y-130148214D02*
X299742369Y-130243452D01*
X299742369Y-130243452D02*
X299742369Y-130529166D01*
X299742369Y-130529166D02*
X299694750Y-130624404D01*
X299694750Y-130624404D02*
X299647130Y-130672023D01*
X299075702Y-129195833D02*
X299742369Y-129195833D01*
X298694750Y-129433928D02*
X299409035Y-129672023D01*
X299409035Y-129672023D02*
X299409035Y-129052976D01*
X90192369Y-131100594D02*
X89192369Y-131100594D01*
X89192369Y-131100594D02*
X89192369Y-130862499D01*
X89192369Y-130862499D02*
X89239988Y-130719642D01*
X89239988Y-130719642D02*
X89335226Y-130624404D01*
X89335226Y-130624404D02*
X89430464Y-130576785D01*
X89430464Y-130576785D02*
X89620940Y-130529166D01*
X89620940Y-130529166D02*
X89763797Y-130529166D01*
X89763797Y-130529166D02*
X89954273Y-130576785D01*
X89954273Y-130576785D02*
X90049511Y-130624404D01*
X90049511Y-130624404D02*
X90144750Y-130719642D01*
X90144750Y-130719642D02*
X90192369Y-130862499D01*
X90192369Y-130862499D02*
X90192369Y-131100594D01*
X90192369Y-129576785D02*
X90192369Y-130148213D01*
X90192369Y-129862499D02*
X89192369Y-129862499D01*
X89192369Y-129862499D02*
X89335226Y-129957737D01*
X89335226Y-129957737D02*
X89430464Y-130052975D01*
X89430464Y-130052975D02*
X89478083Y-130148213D01*
X280692369Y-169676785D02*
X279692369Y-169676785D01*
X279692369Y-169676785D02*
X279692369Y-169438690D01*
X279692369Y-169438690D02*
X279739988Y-169295833D01*
X279739988Y-169295833D02*
X279835226Y-169200595D01*
X279835226Y-169200595D02*
X279930464Y-169152976D01*
X279930464Y-169152976D02*
X280120940Y-169105357D01*
X280120940Y-169105357D02*
X280263797Y-169105357D01*
X280263797Y-169105357D02*
X280454273Y-169152976D01*
X280454273Y-169152976D02*
X280549511Y-169200595D01*
X280549511Y-169200595D02*
X280644750Y-169295833D01*
X280644750Y-169295833D02*
X280692369Y-169438690D01*
X280692369Y-169438690D02*
X280692369Y-169676785D01*
X279692369Y-168772023D02*
X279692369Y-168152976D01*
X279692369Y-168152976D02*
X280073321Y-168486309D01*
X280073321Y-168486309D02*
X280073321Y-168343452D01*
X280073321Y-168343452D02*
X280120940Y-168248214D01*
X280120940Y-168248214D02*
X280168559Y-168200595D01*
X280168559Y-168200595D02*
X280263797Y-168152976D01*
X280263797Y-168152976D02*
X280501892Y-168152976D01*
X280501892Y-168152976D02*
X280597130Y-168200595D01*
X280597130Y-168200595D02*
X280644750Y-168248214D01*
X280644750Y-168248214D02*
X280692369Y-168343452D01*
X280692369Y-168343452D02*
X280692369Y-168629166D01*
X280692369Y-168629166D02*
X280644750Y-168724404D01*
X280644750Y-168724404D02*
X280597130Y-168772023D01*
X279692369Y-167819642D02*
X279692369Y-167200595D01*
X279692369Y-167200595D02*
X280073321Y-167533928D01*
X280073321Y-167533928D02*
X280073321Y-167391071D01*
X280073321Y-167391071D02*
X280120940Y-167295833D01*
X280120940Y-167295833D02*
X280168559Y-167248214D01*
X280168559Y-167248214D02*
X280263797Y-167200595D01*
X280263797Y-167200595D02*
X280501892Y-167200595D01*
X280501892Y-167200595D02*
X280597130Y-167248214D01*
X280597130Y-167248214D02*
X280644750Y-167295833D01*
X280644750Y-167295833D02*
X280692369Y-167391071D01*
X280692369Y-167391071D02*
X280692369Y-167676785D01*
X280692369Y-167676785D02*
X280644750Y-167772023D01*
X280644750Y-167772023D02*
X280597130Y-167819642D01*
X242592369Y-171711785D02*
X241592369Y-171711785D01*
X241592369Y-171711785D02*
X241592369Y-171473690D01*
X241592369Y-171473690D02*
X241639988Y-171330833D01*
X241639988Y-171330833D02*
X241735226Y-171235595D01*
X241735226Y-171235595D02*
X241830464Y-171187976D01*
X241830464Y-171187976D02*
X242020940Y-171140357D01*
X242020940Y-171140357D02*
X242163797Y-171140357D01*
X242163797Y-171140357D02*
X242354273Y-171187976D01*
X242354273Y-171187976D02*
X242449511Y-171235595D01*
X242449511Y-171235595D02*
X242544750Y-171330833D01*
X242544750Y-171330833D02*
X242592369Y-171473690D01*
X242592369Y-171473690D02*
X242592369Y-171711785D01*
X241687607Y-170759404D02*
X241639988Y-170711785D01*
X241639988Y-170711785D02*
X241592369Y-170616547D01*
X241592369Y-170616547D02*
X241592369Y-170378452D01*
X241592369Y-170378452D02*
X241639988Y-170283214D01*
X241639988Y-170283214D02*
X241687607Y-170235595D01*
X241687607Y-170235595D02*
X241782845Y-170187976D01*
X241782845Y-170187976D02*
X241878083Y-170187976D01*
X241878083Y-170187976D02*
X242020940Y-170235595D01*
X242020940Y-170235595D02*
X242592369Y-170807023D01*
X242592369Y-170807023D02*
X242592369Y-170187976D01*
X241925702Y-169330833D02*
X242592369Y-169330833D01*
X241544750Y-169568928D02*
X242259035Y-169807023D01*
X242259035Y-169807023D02*
X242259035Y-169187976D01*
X231195714Y-194088619D02*
X231195714Y-193088619D01*
X231195714Y-193088619D02*
X231433809Y-193088619D01*
X231433809Y-193088619D02*
X231576666Y-193136238D01*
X231576666Y-193136238D02*
X231671904Y-193231476D01*
X231671904Y-193231476D02*
X231719523Y-193326714D01*
X231719523Y-193326714D02*
X231767142Y-193517190D01*
X231767142Y-193517190D02*
X231767142Y-193660047D01*
X231767142Y-193660047D02*
X231719523Y-193850523D01*
X231719523Y-193850523D02*
X231671904Y-193945761D01*
X231671904Y-193945761D02*
X231576666Y-194041000D01*
X231576666Y-194041000D02*
X231433809Y-194088619D01*
X231433809Y-194088619D02*
X231195714Y-194088619D01*
X232148095Y-193183857D02*
X232195714Y-193136238D01*
X232195714Y-193136238D02*
X232290952Y-193088619D01*
X232290952Y-193088619D02*
X232529047Y-193088619D01*
X232529047Y-193088619D02*
X232624285Y-193136238D01*
X232624285Y-193136238D02*
X232671904Y-193183857D01*
X232671904Y-193183857D02*
X232719523Y-193279095D01*
X232719523Y-193279095D02*
X232719523Y-193374333D01*
X232719523Y-193374333D02*
X232671904Y-193517190D01*
X232671904Y-193517190D02*
X232100476Y-194088619D01*
X232100476Y-194088619D02*
X232719523Y-194088619D01*
X233195714Y-194088619D02*
X233386190Y-194088619D01*
X233386190Y-194088619D02*
X233481428Y-194041000D01*
X233481428Y-194041000D02*
X233529047Y-193993380D01*
X233529047Y-193993380D02*
X233624285Y-193850523D01*
X233624285Y-193850523D02*
X233671904Y-193660047D01*
X233671904Y-193660047D02*
X233671904Y-193279095D01*
X233671904Y-193279095D02*
X233624285Y-193183857D01*
X233624285Y-193183857D02*
X233576666Y-193136238D01*
X233576666Y-193136238D02*
X233481428Y-193088619D01*
X233481428Y-193088619D02*
X233290952Y-193088619D01*
X233290952Y-193088619D02*
X233195714Y-193136238D01*
X233195714Y-193136238D02*
X233148095Y-193183857D01*
X233148095Y-193183857D02*
X233100476Y-193279095D01*
X233100476Y-193279095D02*
X233100476Y-193517190D01*
X233100476Y-193517190D02*
X233148095Y-193612428D01*
X233148095Y-193612428D02*
X233195714Y-193660047D01*
X233195714Y-193660047D02*
X233290952Y-193707666D01*
X233290952Y-193707666D02*
X233481428Y-193707666D01*
X233481428Y-193707666D02*
X233576666Y-193660047D01*
X233576666Y-193660047D02*
X233624285Y-193612428D01*
X233624285Y-193612428D02*
X233671904Y-193517190D01*
X242592369Y-152661785D02*
X241592369Y-152661785D01*
X241592369Y-152661785D02*
X241592369Y-152423690D01*
X241592369Y-152423690D02*
X241639988Y-152280833D01*
X241639988Y-152280833D02*
X241735226Y-152185595D01*
X241735226Y-152185595D02*
X241830464Y-152137976D01*
X241830464Y-152137976D02*
X242020940Y-152090357D01*
X242020940Y-152090357D02*
X242163797Y-152090357D01*
X242163797Y-152090357D02*
X242354273Y-152137976D01*
X242354273Y-152137976D02*
X242449511Y-152185595D01*
X242449511Y-152185595D02*
X242544750Y-152280833D01*
X242544750Y-152280833D02*
X242592369Y-152423690D01*
X242592369Y-152423690D02*
X242592369Y-152661785D01*
X241687607Y-151709404D02*
X241639988Y-151661785D01*
X241639988Y-151661785D02*
X241592369Y-151566547D01*
X241592369Y-151566547D02*
X241592369Y-151328452D01*
X241592369Y-151328452D02*
X241639988Y-151233214D01*
X241639988Y-151233214D02*
X241687607Y-151185595D01*
X241687607Y-151185595D02*
X241782845Y-151137976D01*
X241782845Y-151137976D02*
X241878083Y-151137976D01*
X241878083Y-151137976D02*
X242020940Y-151185595D01*
X242020940Y-151185595D02*
X242592369Y-151757023D01*
X242592369Y-151757023D02*
X242592369Y-151137976D01*
X241592369Y-150804642D02*
X241592369Y-150185595D01*
X241592369Y-150185595D02*
X241973321Y-150518928D01*
X241973321Y-150518928D02*
X241973321Y-150376071D01*
X241973321Y-150376071D02*
X242020940Y-150280833D01*
X242020940Y-150280833D02*
X242068559Y-150233214D01*
X242068559Y-150233214D02*
X242163797Y-150185595D01*
X242163797Y-150185595D02*
X242401892Y-150185595D01*
X242401892Y-150185595D02*
X242497130Y-150233214D01*
X242497130Y-150233214D02*
X242544750Y-150280833D01*
X242544750Y-150280833D02*
X242592369Y-150376071D01*
X242592369Y-150376071D02*
X242592369Y-150661785D01*
X242592369Y-150661785D02*
X242544750Y-150757023D01*
X242544750Y-150757023D02*
X242497130Y-150804642D01*
X152614464Y-132176119D02*
X152614464Y-131176119D01*
X152614464Y-131176119D02*
X152852559Y-131176119D01*
X152852559Y-131176119D02*
X152995416Y-131223738D01*
X152995416Y-131223738D02*
X153090654Y-131318976D01*
X153090654Y-131318976D02*
X153138273Y-131414214D01*
X153138273Y-131414214D02*
X153185892Y-131604690D01*
X153185892Y-131604690D02*
X153185892Y-131747547D01*
X153185892Y-131747547D02*
X153138273Y-131938023D01*
X153138273Y-131938023D02*
X153090654Y-132033261D01*
X153090654Y-132033261D02*
X152995416Y-132128500D01*
X152995416Y-132128500D02*
X152852559Y-132176119D01*
X152852559Y-132176119D02*
X152614464Y-132176119D01*
X154138273Y-132176119D02*
X153566845Y-132176119D01*
X153852559Y-132176119D02*
X153852559Y-131176119D01*
X153852559Y-131176119D02*
X153757321Y-131318976D01*
X153757321Y-131318976D02*
X153662083Y-131414214D01*
X153662083Y-131414214D02*
X153566845Y-131461833D01*
X154995416Y-131509452D02*
X154995416Y-132176119D01*
X154757321Y-131128500D02*
X154519226Y-131842785D01*
X154519226Y-131842785D02*
X155138273Y-131842785D01*
X325016964Y-175038619D02*
X325016964Y-174038619D01*
X325016964Y-174038619D02*
X325255059Y-174038619D01*
X325255059Y-174038619D02*
X325397916Y-174086238D01*
X325397916Y-174086238D02*
X325493154Y-174181476D01*
X325493154Y-174181476D02*
X325540773Y-174276714D01*
X325540773Y-174276714D02*
X325588392Y-174467190D01*
X325588392Y-174467190D02*
X325588392Y-174610047D01*
X325588392Y-174610047D02*
X325540773Y-174800523D01*
X325540773Y-174800523D02*
X325493154Y-174895761D01*
X325493154Y-174895761D02*
X325397916Y-174991000D01*
X325397916Y-174991000D02*
X325255059Y-175038619D01*
X325255059Y-175038619D02*
X325016964Y-175038619D01*
X326445535Y-174371952D02*
X326445535Y-175038619D01*
X326207440Y-173991000D02*
X325969345Y-174705285D01*
X325969345Y-174705285D02*
X326588392Y-174705285D01*
X327493154Y-175038619D02*
X326921726Y-175038619D01*
X327207440Y-175038619D02*
X327207440Y-174038619D01*
X327207440Y-174038619D02*
X327112202Y-174181476D01*
X327112202Y-174181476D02*
X327016964Y-174276714D01*
X327016964Y-174276714D02*
X326921726Y-174324333D01*
X152614464Y-170276119D02*
X152614464Y-169276119D01*
X152614464Y-169276119D02*
X152852559Y-169276119D01*
X152852559Y-169276119D02*
X152995416Y-169323738D01*
X152995416Y-169323738D02*
X153090654Y-169418976D01*
X153090654Y-169418976D02*
X153138273Y-169514214D01*
X153138273Y-169514214D02*
X153185892Y-169704690D01*
X153185892Y-169704690D02*
X153185892Y-169847547D01*
X153185892Y-169847547D02*
X153138273Y-170038023D01*
X153138273Y-170038023D02*
X153090654Y-170133261D01*
X153090654Y-170133261D02*
X152995416Y-170228500D01*
X152995416Y-170228500D02*
X152852559Y-170276119D01*
X152852559Y-170276119D02*
X152614464Y-170276119D01*
X154138273Y-170276119D02*
X153566845Y-170276119D01*
X153852559Y-170276119D02*
X153852559Y-169276119D01*
X153852559Y-169276119D02*
X153757321Y-169418976D01*
X153757321Y-169418976D02*
X153662083Y-169514214D01*
X153662083Y-169514214D02*
X153566845Y-169561833D01*
X154995416Y-169276119D02*
X154804940Y-169276119D01*
X154804940Y-169276119D02*
X154709702Y-169323738D01*
X154709702Y-169323738D02*
X154662083Y-169371357D01*
X154662083Y-169371357D02*
X154566845Y-169514214D01*
X154566845Y-169514214D02*
X154519226Y-169704690D01*
X154519226Y-169704690D02*
X154519226Y-170085642D01*
X154519226Y-170085642D02*
X154566845Y-170180880D01*
X154566845Y-170180880D02*
X154614464Y-170228500D01*
X154614464Y-170228500D02*
X154709702Y-170276119D01*
X154709702Y-170276119D02*
X154900178Y-170276119D01*
X154900178Y-170276119D02*
X154995416Y-170228500D01*
X154995416Y-170228500D02*
X155043035Y-170180880D01*
X155043035Y-170180880D02*
X155090654Y-170085642D01*
X155090654Y-170085642D02*
X155090654Y-169847547D01*
X155090654Y-169847547D02*
X155043035Y-169752309D01*
X155043035Y-169752309D02*
X154995416Y-169704690D01*
X154995416Y-169704690D02*
X154900178Y-169657071D01*
X154900178Y-169657071D02*
X154709702Y-169657071D01*
X154709702Y-169657071D02*
X154614464Y-169704690D01*
X154614464Y-169704690D02*
X154566845Y-169752309D01*
X154566845Y-169752309D02*
X154519226Y-169847547D01*
X250591964Y-189326119D02*
X250591964Y-188326119D01*
X250591964Y-188326119D02*
X250830059Y-188326119D01*
X250830059Y-188326119D02*
X250972916Y-188373738D01*
X250972916Y-188373738D02*
X251068154Y-188468976D01*
X251068154Y-188468976D02*
X251115773Y-188564214D01*
X251115773Y-188564214D02*
X251163392Y-188754690D01*
X251163392Y-188754690D02*
X251163392Y-188897547D01*
X251163392Y-188897547D02*
X251115773Y-189088023D01*
X251115773Y-189088023D02*
X251068154Y-189183261D01*
X251068154Y-189183261D02*
X250972916Y-189278500D01*
X250972916Y-189278500D02*
X250830059Y-189326119D01*
X250830059Y-189326119D02*
X250591964Y-189326119D01*
X251496726Y-188326119D02*
X252115773Y-188326119D01*
X252115773Y-188326119D02*
X251782440Y-188707071D01*
X251782440Y-188707071D02*
X251925297Y-188707071D01*
X251925297Y-188707071D02*
X252020535Y-188754690D01*
X252020535Y-188754690D02*
X252068154Y-188802309D01*
X252068154Y-188802309D02*
X252115773Y-188897547D01*
X252115773Y-188897547D02*
X252115773Y-189135642D01*
X252115773Y-189135642D02*
X252068154Y-189230880D01*
X252068154Y-189230880D02*
X252020535Y-189278500D01*
X252020535Y-189278500D02*
X251925297Y-189326119D01*
X251925297Y-189326119D02*
X251639583Y-189326119D01*
X251639583Y-189326119D02*
X251544345Y-189278500D01*
X251544345Y-189278500D02*
X251496726Y-189230880D01*
X252734821Y-188326119D02*
X252830059Y-188326119D01*
X252830059Y-188326119D02*
X252925297Y-188373738D01*
X252925297Y-188373738D02*
X252972916Y-188421357D01*
X252972916Y-188421357D02*
X253020535Y-188516595D01*
X253020535Y-188516595D02*
X253068154Y-188707071D01*
X253068154Y-188707071D02*
X253068154Y-188945166D01*
X253068154Y-188945166D02*
X253020535Y-189135642D01*
X253020535Y-189135642D02*
X252972916Y-189230880D01*
X252972916Y-189230880D02*
X252925297Y-189278500D01*
X252925297Y-189278500D02*
X252830059Y-189326119D01*
X252830059Y-189326119D02*
X252734821Y-189326119D01*
X252734821Y-189326119D02*
X252639583Y-189278500D01*
X252639583Y-189278500D02*
X252591964Y-189230880D01*
X252591964Y-189230880D02*
X252544345Y-189135642D01*
X252544345Y-189135642D02*
X252496726Y-188945166D01*
X252496726Y-188945166D02*
X252496726Y-188707071D01*
X252496726Y-188707071D02*
X252544345Y-188516595D01*
X252544345Y-188516595D02*
X252591964Y-188421357D01*
X252591964Y-188421357D02*
X252639583Y-188373738D01*
X252639583Y-188373738D02*
X252734821Y-188326119D01*
D12*
X191906300Y-118962500D02*
X191906300Y-119262500D01*
X191906300Y-118962500D02*
X212906300Y-118962500D01*
X191906300Y-121362500D02*
X191906300Y-121762500D01*
X191906300Y-121629500D02*
X194913300Y-121629500D01*
X191906300Y-123962500D02*
X191906300Y-124362500D01*
X191906300Y-126462500D02*
X191906300Y-126862500D01*
X191906300Y-129062500D02*
X191906300Y-129462500D01*
X191906300Y-131562500D02*
X191906300Y-131962500D01*
X191906300Y-134062500D02*
X191906300Y-134462500D01*
X191906300Y-136662500D02*
X191906300Y-137062500D01*
X191906300Y-139162500D02*
X191906300Y-139562500D01*
X191906300Y-141762500D02*
X191906300Y-142162500D01*
X191906300Y-144262500D02*
X191906300Y-144662500D01*
X191906300Y-146762500D02*
X191906300Y-147162500D01*
X191906300Y-149362500D02*
X191906300Y-149762500D01*
X191906300Y-151862500D02*
X191906300Y-152262500D01*
X191906300Y-154462500D02*
X191906300Y-154862500D01*
X191906300Y-156962500D02*
X191906300Y-157362500D01*
X191906300Y-159562500D02*
X191906300Y-159962500D01*
X191906300Y-162062500D02*
X191906300Y-162462500D01*
X191906300Y-164562500D02*
X191906300Y-164962500D01*
X191906300Y-167162500D02*
X191906300Y-167562500D01*
X194913300Y-121629500D02*
X194913300Y-118962500D01*
X198706300Y-169962500D02*
X191906300Y-169962500D01*
X200906300Y-169962500D02*
X201306300Y-169962500D01*
X203506300Y-169962500D02*
X203906300Y-169962500D01*
X212906300Y-118962500D02*
X212906300Y-119262500D01*
X212906300Y-121362500D02*
X212906300Y-121762500D01*
X212906300Y-123962500D02*
X212906300Y-124362500D01*
X212906300Y-126462500D02*
X212906300Y-126862500D01*
X212906300Y-129062500D02*
X212906300Y-129462500D01*
X212906300Y-131562500D02*
X212906300Y-131962500D01*
X212906300Y-134062500D02*
X212906300Y-134462500D01*
X212906300Y-136662500D02*
X212906300Y-137062500D01*
X212906300Y-139162500D02*
X212906300Y-139562500D01*
X212906300Y-141762500D02*
X212906300Y-142162500D01*
X212906300Y-144262500D02*
X212906300Y-144662500D01*
X212906300Y-146762500D02*
X212906300Y-147162500D01*
X212906300Y-149362500D02*
X212906300Y-149762500D01*
X212906300Y-151862500D02*
X212906300Y-152262500D01*
X212906300Y-154462500D02*
X212906300Y-154862500D01*
X212906300Y-156962500D02*
X212906300Y-157362500D01*
X212906300Y-159562500D02*
X212906300Y-159962500D01*
X212906300Y-162062500D02*
X212906300Y-162462500D01*
X212906300Y-164562500D02*
X212906300Y-164962500D01*
X212906300Y-167162500D02*
X212906300Y-167562500D01*
X212906300Y-169962500D02*
X206106300Y-169962500D01*
D10*
X296906250Y-146712500D02*
X296906250Y-152112500D01*
X296906250Y-152112500D02*
X298406250Y-152112500D01*
X297156250Y-148912500D02*
X298156250Y-148912500D01*
X297156250Y-149912500D02*
X298156250Y-149912500D01*
X297656250Y-149812500D02*
X297156250Y-148912500D01*
X298156250Y-148912500D02*
X297656250Y-149812500D01*
X298406250Y-146712500D02*
X296906250Y-146712500D01*
X298406250Y-152112500D02*
X298406250Y-146712500D01*
X151128750Y-189750000D02*
X151128750Y-191250000D01*
X151128750Y-191250000D02*
X156528750Y-191250000D01*
X153328750Y-190000000D02*
X154228750Y-190500000D01*
X153328750Y-191000000D02*
X153328750Y-190000000D01*
X154228750Y-190500000D02*
X153328750Y-191000000D01*
X154328750Y-191000000D02*
X154328750Y-190000000D01*
X156528750Y-189750000D02*
X151128750Y-189750000D01*
X156528750Y-191250000D02*
X156528750Y-189750000D01*
X239756250Y-129697500D02*
X239756250Y-135097500D01*
X239756250Y-135097500D02*
X241256250Y-135097500D01*
X240006250Y-131897500D02*
X241006250Y-131897500D01*
X240006250Y-132897500D02*
X241006250Y-132897500D01*
X240506250Y-132797500D02*
X240006250Y-131897500D01*
X241006250Y-131897500D02*
X240506250Y-132797500D01*
X241256250Y-129697500D02*
X239756250Y-129697500D01*
X241256250Y-135097500D02*
X241256250Y-129697500D01*
X106406250Y-165762500D02*
X106406250Y-171162500D01*
X106406250Y-171162500D02*
X107906250Y-171162500D01*
X106656250Y-167962500D02*
X107656250Y-167962500D01*
X106656250Y-168962500D02*
X107656250Y-168962500D01*
X107156250Y-168862500D02*
X106656250Y-167962500D01*
X107656250Y-167962500D02*
X107156250Y-168862500D01*
X107906250Y-165762500D02*
X106406250Y-165762500D01*
X107906250Y-171162500D02*
X107906250Y-165762500D01*
X182606250Y-129697500D02*
X182606250Y-135097500D01*
X182606250Y-135097500D02*
X184106250Y-135097500D01*
X182856250Y-131897500D02*
X183856250Y-131897500D01*
X182856250Y-132897500D02*
X183856250Y-132897500D01*
X183356250Y-132797500D02*
X182856250Y-131897500D01*
X183856250Y-131897500D02*
X183356250Y-132797500D01*
X184106250Y-129697500D02*
X182606250Y-129697500D01*
X184106250Y-135097500D02*
X184106250Y-129697500D01*
X144506250Y-165762500D02*
X144506250Y-171162500D01*
X144506250Y-171162500D02*
X146006250Y-171162500D01*
X144756250Y-167962500D02*
X145756250Y-167962500D01*
X144756250Y-168962500D02*
X145756250Y-168962500D01*
X145256250Y-168862500D02*
X144756250Y-167962500D01*
X145756250Y-167962500D02*
X145256250Y-168862500D01*
X146006250Y-165762500D02*
X144506250Y-165762500D01*
X146006250Y-171162500D02*
X146006250Y-165762500D01*
X106406250Y-127662500D02*
X106406250Y-133062500D01*
X106406250Y-133062500D02*
X107906250Y-133062500D01*
X106656250Y-129862500D02*
X107656250Y-129862500D01*
X106656250Y-130862500D02*
X107656250Y-130862500D01*
X107156250Y-130762500D02*
X106656250Y-129862500D01*
X107656250Y-129862500D02*
X107156250Y-130762500D01*
X107906250Y-127662500D02*
X106406250Y-127662500D01*
X107906250Y-133062500D02*
X107906250Y-127662500D01*
X125456250Y-146712500D02*
X125456250Y-152112500D01*
X125456250Y-152112500D02*
X126956250Y-152112500D01*
X125706250Y-148912500D02*
X126706250Y-148912500D01*
X125706250Y-149912500D02*
X126706250Y-149912500D01*
X126206250Y-149812500D02*
X125706250Y-148912500D01*
X126706250Y-148912500D02*
X126206250Y-149812500D01*
X126956250Y-146712500D02*
X125456250Y-146712500D01*
X126956250Y-152112500D02*
X126956250Y-146712500D01*
X189228750Y-196893750D02*
X189228750Y-198393750D01*
X189228750Y-198393750D02*
X194628750Y-198393750D01*
X191428750Y-197143750D02*
X192328750Y-197643750D01*
X191428750Y-198143750D02*
X191428750Y-197143750D01*
X192328750Y-197643750D02*
X191428750Y-198143750D01*
X192428750Y-198143750D02*
X192428750Y-197143750D01*
X194628750Y-196893750D02*
X189228750Y-196893750D01*
X194628750Y-198393750D02*
X194628750Y-196893750D01*
X87356250Y-146712500D02*
X87356250Y-152112500D01*
X87356250Y-152112500D02*
X88856250Y-152112500D01*
X87606250Y-148912500D02*
X88606250Y-148912500D01*
X87606250Y-149912500D02*
X88606250Y-149912500D01*
X88106250Y-149812500D02*
X87606250Y-148912500D01*
X88606250Y-148912500D02*
X88106250Y-149812500D01*
X88856250Y-146712500D02*
X87356250Y-146712500D01*
X88856250Y-152112500D02*
X88856250Y-146712500D01*
X125456250Y-127662500D02*
X125456250Y-133062500D01*
X125456250Y-133062500D02*
X126956250Y-133062500D01*
X125706250Y-129862500D02*
X126706250Y-129862500D01*
X125706250Y-130862500D02*
X126706250Y-130862500D01*
X126206250Y-130762500D02*
X125706250Y-129862500D01*
X126706250Y-129862500D02*
X126206250Y-130762500D01*
X126956250Y-127662500D02*
X125456250Y-127662500D01*
X126956250Y-133062500D02*
X126956250Y-127662500D01*
X125456250Y-165762500D02*
X125456250Y-171162500D01*
X125456250Y-171162500D02*
X126956250Y-171162500D01*
X125706250Y-167962500D02*
X126706250Y-167962500D01*
X125706250Y-168962500D02*
X126706250Y-168962500D01*
X126206250Y-168862500D02*
X125706250Y-167962500D01*
X126706250Y-167962500D02*
X126206250Y-168862500D01*
X126956250Y-165762500D02*
X125456250Y-165762500D01*
X126956250Y-171162500D02*
X126956250Y-165762500D01*
X210660000Y-196893750D02*
X210660000Y-198393750D01*
X210660000Y-198393750D02*
X216060000Y-198393750D01*
X212860000Y-197143750D02*
X213760000Y-197643750D01*
X212860000Y-198143750D02*
X212860000Y-197143750D01*
X213760000Y-197643750D02*
X212860000Y-198143750D01*
X213860000Y-198143750D02*
X213860000Y-197143750D01*
X216060000Y-196893750D02*
X210660000Y-196893750D01*
X216060000Y-198393750D02*
X216060000Y-196893750D01*
X258806250Y-165762500D02*
X258806250Y-171162500D01*
X258806250Y-171162500D02*
X260306250Y-171162500D01*
X259056250Y-167962500D02*
X260056250Y-167962500D01*
X259056250Y-168962500D02*
X260056250Y-168962500D01*
X259556250Y-168862500D02*
X259056250Y-167962500D01*
X260056250Y-167962500D02*
X259556250Y-168862500D01*
X260306250Y-165762500D02*
X258806250Y-165762500D01*
X260306250Y-171162500D02*
X260306250Y-165762500D01*
X75881250Y-175462500D02*
X75881250Y-176962500D01*
X75881250Y-176962500D02*
X81281250Y-176962500D01*
X78081250Y-175712500D02*
X78981250Y-176212500D01*
X78081250Y-176712500D02*
X78081250Y-175712500D01*
X78981250Y-176212500D02*
X78081250Y-176712500D01*
X79081250Y-176712500D02*
X79081250Y-175712500D01*
X81281250Y-175462500D02*
X75881250Y-175462500D01*
X81281250Y-176962500D02*
X81281250Y-175462500D01*
X182606250Y-167797500D02*
X182606250Y-173197500D01*
X182606250Y-173197500D02*
X184106250Y-173197500D01*
X182856250Y-169997500D02*
X183856250Y-169997500D01*
X182856250Y-170997500D02*
X183856250Y-170997500D01*
X183356250Y-170897500D02*
X182856250Y-169997500D01*
X183856250Y-169997500D02*
X183356250Y-170897500D01*
X184106250Y-167797500D02*
X182606250Y-167797500D01*
X184106250Y-173197500D02*
X184106250Y-167797500D01*
X151475000Y-151650000D02*
X151475000Y-153150000D01*
X151475000Y-153150000D02*
X156875000Y-153150000D01*
X153675000Y-151900000D02*
X154575000Y-152400000D01*
X153675000Y-152900000D02*
X153675000Y-151900000D01*
X154575000Y-152400000D02*
X153675000Y-152900000D01*
X154675000Y-152900000D02*
X154675000Y-151900000D01*
X156875000Y-151650000D02*
X151475000Y-151650000D01*
X156875000Y-153150000D02*
X156875000Y-151650000D01*
X296906250Y-165762500D02*
X296906250Y-171162500D01*
X296906250Y-171162500D02*
X298406250Y-171162500D01*
X297156250Y-167962500D02*
X298156250Y-167962500D01*
X297156250Y-168962500D02*
X298156250Y-168962500D01*
X297656250Y-168862500D02*
X297156250Y-167962500D01*
X298156250Y-167962500D02*
X297656250Y-168862500D01*
X298406250Y-165762500D02*
X296906250Y-165762500D01*
X298406250Y-171162500D02*
X298406250Y-165762500D01*
X303875000Y-151650000D02*
X303875000Y-153150000D01*
X303875000Y-153150000D02*
X309275000Y-153150000D01*
X306075000Y-151900000D02*
X306975000Y-152400000D01*
X306075000Y-152900000D02*
X306075000Y-151900000D01*
X306975000Y-152400000D02*
X306075000Y-152900000D01*
X307075000Y-152900000D02*
X307075000Y-151900000D01*
X309275000Y-151650000D02*
X303875000Y-151650000D01*
X309275000Y-153150000D02*
X309275000Y-151650000D01*
X144506250Y-146712500D02*
X144506250Y-152112500D01*
X144506250Y-152112500D02*
X146006250Y-152112500D01*
X144756250Y-148912500D02*
X145756250Y-148912500D01*
X144756250Y-149912500D02*
X145756250Y-149912500D01*
X145256250Y-149812500D02*
X144756250Y-148912500D01*
X145756250Y-148912500D02*
X145256250Y-149812500D01*
X146006250Y-146712500D02*
X144506250Y-146712500D01*
X146006250Y-152112500D02*
X146006250Y-146712500D01*
X258806250Y-146712500D02*
X258806250Y-152112500D01*
X258806250Y-152112500D02*
X260306250Y-152112500D01*
X259056250Y-148912500D02*
X260056250Y-148912500D01*
X259056250Y-149912500D02*
X260056250Y-149912500D01*
X259556250Y-149812500D02*
X259056250Y-148912500D01*
X260056250Y-148912500D02*
X259556250Y-149812500D01*
X260306250Y-146712500D02*
X258806250Y-146712500D01*
X260306250Y-152112500D02*
X260306250Y-146712500D01*
X258806250Y-127662500D02*
X258806250Y-133062500D01*
X258806250Y-133062500D02*
X260306250Y-133062500D01*
X259056250Y-129862500D02*
X260056250Y-129862500D01*
X259056250Y-130862500D02*
X260056250Y-130862500D01*
X259556250Y-130762500D02*
X259056250Y-129862500D01*
X260056250Y-129862500D02*
X259556250Y-130762500D01*
X260306250Y-127662500D02*
X258806250Y-127662500D01*
X260306250Y-133062500D02*
X260306250Y-127662500D01*
X170178750Y-194512500D02*
X170178750Y-196012500D01*
X170178750Y-196012500D02*
X175578750Y-196012500D01*
X172378750Y-194762500D02*
X173278750Y-195262500D01*
X172378750Y-195762500D02*
X172378750Y-194762500D01*
X173278750Y-195262500D02*
X172378750Y-195762500D01*
X173378750Y-195762500D02*
X173378750Y-194762500D01*
X175578750Y-194512500D02*
X170178750Y-194512500D01*
X175578750Y-196012500D02*
X175578750Y-194512500D01*
X277856250Y-146712500D02*
X277856250Y-152112500D01*
X277856250Y-152112500D02*
X279356250Y-152112500D01*
X278106250Y-148912500D02*
X279106250Y-148912500D01*
X278106250Y-149912500D02*
X279106250Y-149912500D01*
X278606250Y-149812500D02*
X278106250Y-148912500D01*
X279106250Y-148912500D02*
X278606250Y-149812500D01*
X279356250Y-146712500D02*
X277856250Y-146712500D01*
X279356250Y-152112500D02*
X279356250Y-146712500D01*
X315956250Y-132425000D02*
X315956250Y-137825000D01*
X315956250Y-137825000D02*
X317456250Y-137825000D01*
X316206250Y-134625000D02*
X317206250Y-134625000D01*
X316206250Y-135625000D02*
X317206250Y-135625000D01*
X316706250Y-135525000D02*
X316206250Y-134625000D01*
X317206250Y-134625000D02*
X316706250Y-135525000D01*
X317456250Y-132425000D02*
X315956250Y-132425000D01*
X317456250Y-137825000D02*
X317456250Y-132425000D01*
X144506250Y-127662500D02*
X144506250Y-133062500D01*
X144506250Y-133062500D02*
X146006250Y-133062500D01*
X144756250Y-129862500D02*
X145756250Y-129862500D01*
X144756250Y-130862500D02*
X145756250Y-130862500D01*
X145256250Y-130762500D02*
X144756250Y-129862500D01*
X145756250Y-129862500D02*
X145256250Y-130762500D01*
X146006250Y-127662500D02*
X144506250Y-127662500D01*
X146006250Y-133062500D02*
X146006250Y-127662500D01*
X335006250Y-132425000D02*
X335006250Y-137825000D01*
X335006250Y-137825000D02*
X336506250Y-137825000D01*
X335256250Y-134625000D02*
X336256250Y-134625000D01*
X335256250Y-135625000D02*
X336256250Y-135625000D01*
X335756250Y-135525000D02*
X335256250Y-134625000D01*
X336256250Y-134625000D02*
X335756250Y-135525000D01*
X336506250Y-132425000D02*
X335006250Y-132425000D01*
X336506250Y-137825000D02*
X336506250Y-132425000D01*
X303875000Y-170700000D02*
X303875000Y-172200000D01*
X303875000Y-172200000D02*
X309275000Y-172200000D01*
X306075000Y-170950000D02*
X306975000Y-171450000D01*
X306075000Y-171950000D02*
X306075000Y-170950000D01*
X306975000Y-171450000D02*
X306075000Y-171950000D01*
X307075000Y-171950000D02*
X307075000Y-170950000D01*
X309275000Y-170700000D02*
X303875000Y-170700000D01*
X309275000Y-172200000D02*
X309275000Y-170700000D01*
X182606250Y-148747500D02*
X182606250Y-154147500D01*
X182606250Y-154147500D02*
X184106250Y-154147500D01*
X182856250Y-150947500D02*
X183856250Y-150947500D01*
X182856250Y-151947500D02*
X183856250Y-151947500D01*
X183356250Y-151847500D02*
X182856250Y-150947500D01*
X183856250Y-150947500D02*
X183356250Y-151847500D01*
X184106250Y-148747500D02*
X182606250Y-148747500D01*
X184106250Y-154147500D02*
X184106250Y-148747500D01*
X106406250Y-146712500D02*
X106406250Y-152112500D01*
X106406250Y-152112500D02*
X107906250Y-152112500D01*
X106656250Y-148912500D02*
X107656250Y-148912500D01*
X106656250Y-149912500D02*
X107656250Y-149912500D01*
X107156250Y-149812500D02*
X106656250Y-148912500D01*
X107656250Y-148912500D02*
X107156250Y-149812500D01*
X107906250Y-146712500D02*
X106406250Y-146712500D01*
X107906250Y-152112500D02*
X107906250Y-146712500D01*
X277856250Y-127662500D02*
X277856250Y-133062500D01*
X277856250Y-133062500D02*
X279356250Y-133062500D01*
X278106250Y-129862500D02*
X279106250Y-129862500D01*
X278106250Y-130862500D02*
X279106250Y-130862500D01*
X278606250Y-130762500D02*
X278106250Y-129862500D01*
X279106250Y-129862500D02*
X278606250Y-130762500D01*
X279356250Y-127662500D02*
X277856250Y-127662500D01*
X279356250Y-133062500D02*
X279356250Y-127662500D01*
X296906250Y-127662500D02*
X296906250Y-133062500D01*
X296906250Y-133062500D02*
X298406250Y-133062500D01*
X297156250Y-129862500D02*
X298156250Y-129862500D01*
X297156250Y-130862500D02*
X298156250Y-130862500D01*
X297656250Y-130762500D02*
X297156250Y-129862500D01*
X298156250Y-129862500D02*
X297656250Y-130762500D01*
X298406250Y-127662500D02*
X296906250Y-127662500D01*
X298406250Y-133062500D02*
X298406250Y-127662500D01*
X87356250Y-127662500D02*
X87356250Y-133062500D01*
X87356250Y-133062500D02*
X88856250Y-133062500D01*
X87606250Y-129862500D02*
X88606250Y-129862500D01*
X87606250Y-130862500D02*
X88606250Y-130862500D01*
X88106250Y-130762500D02*
X87606250Y-129862500D01*
X88606250Y-129862500D02*
X88106250Y-130762500D01*
X88856250Y-127662500D02*
X87356250Y-127662500D01*
X88856250Y-133062500D02*
X88856250Y-127662500D01*
X277856250Y-165762500D02*
X277856250Y-171162500D01*
X277856250Y-171162500D02*
X279356250Y-171162500D01*
X278106250Y-167962500D02*
X279106250Y-167962500D01*
X278106250Y-168962500D02*
X279106250Y-168962500D01*
X278606250Y-168862500D02*
X278106250Y-167962500D01*
X279106250Y-167962500D02*
X278606250Y-168862500D01*
X279356250Y-165762500D02*
X277856250Y-165762500D01*
X279356250Y-171162500D02*
X279356250Y-165762500D01*
X239756250Y-167797500D02*
X239756250Y-173197500D01*
X239756250Y-173197500D02*
X241256250Y-173197500D01*
X240006250Y-169997500D02*
X241006250Y-169997500D01*
X240006250Y-170997500D02*
X241006250Y-170997500D01*
X240506250Y-170897500D02*
X240006250Y-169997500D01*
X241006250Y-169997500D02*
X240506250Y-170897500D01*
X241256250Y-167797500D02*
X239756250Y-167797500D01*
X241256250Y-173197500D02*
X241256250Y-167797500D01*
X229710000Y-194512500D02*
X229710000Y-196012500D01*
X229710000Y-196012500D02*
X235110000Y-196012500D01*
X231910000Y-194762500D02*
X232810000Y-195262500D01*
X231910000Y-195762500D02*
X231910000Y-194762500D01*
X232810000Y-195262500D02*
X231910000Y-195762500D01*
X232910000Y-195762500D02*
X232910000Y-194762500D01*
X235110000Y-194512500D02*
X229710000Y-194512500D01*
X235110000Y-196012500D02*
X235110000Y-194512500D01*
X239756250Y-148747500D02*
X239756250Y-154147500D01*
X239756250Y-154147500D02*
X241256250Y-154147500D01*
X240006250Y-150947500D02*
X241006250Y-150947500D01*
X240006250Y-151947500D02*
X241006250Y-151947500D01*
X240506250Y-151847500D02*
X240006250Y-150947500D01*
X241006250Y-150947500D02*
X240506250Y-151847500D01*
X241256250Y-148747500D02*
X239756250Y-148747500D01*
X241256250Y-154147500D02*
X241256250Y-148747500D01*
X151128750Y-132600000D02*
X151128750Y-134100000D01*
X151128750Y-134100000D02*
X156528750Y-134100000D01*
X153328750Y-132850000D02*
X154228750Y-133350000D01*
X153328750Y-133850000D02*
X153328750Y-132850000D01*
X154228750Y-133350000D02*
X153328750Y-133850000D01*
X154328750Y-133850000D02*
X154328750Y-132850000D01*
X156528750Y-132600000D02*
X151128750Y-132600000D01*
X156528750Y-134100000D02*
X156528750Y-132600000D01*
X323531250Y-175462500D02*
X323531250Y-176962500D01*
X323531250Y-176962500D02*
X328931250Y-176962500D01*
X325731250Y-175712500D02*
X326631250Y-176212500D01*
X325731250Y-176712500D02*
X325731250Y-175712500D01*
X326631250Y-176212500D02*
X325731250Y-176712500D01*
X326731250Y-176712500D02*
X326731250Y-175712500D01*
X328931250Y-175462500D02*
X323531250Y-175462500D01*
X328931250Y-176962500D02*
X328931250Y-175462500D01*
X151128750Y-170700000D02*
X151128750Y-172200000D01*
X151128750Y-172200000D02*
X156528750Y-172200000D01*
X153328750Y-170950000D02*
X154228750Y-171450000D01*
X153328750Y-171950000D02*
X153328750Y-170950000D01*
X154228750Y-171450000D02*
X153328750Y-171950000D01*
X154328750Y-171950000D02*
X154328750Y-170950000D01*
X156528750Y-170700000D02*
X151128750Y-170700000D01*
X156528750Y-172200000D02*
X156528750Y-170700000D01*
X249106250Y-189750000D02*
X249106250Y-191250000D01*
X249106250Y-191250000D02*
X254506250Y-191250000D01*
X251306250Y-190000000D02*
X252206250Y-190500000D01*
X251306250Y-191000000D02*
X251306250Y-190000000D01*
X252206250Y-190500000D02*
X251306250Y-191000000D01*
X252306250Y-191000000D02*
X252306250Y-190000000D01*
X254506250Y-189750000D02*
X249106250Y-189750000D01*
X254506250Y-191250000D02*
X254506250Y-189750000D01*
D13*
X187801300Y-188118700D03*
D14*
X192881300Y-188118700D03*
D13*
X197961300Y-188118700D03*
X225901300Y-147637500D03*
D14*
X230981300Y-147637500D03*
D13*
X236061300Y-147637500D03*
X225901300Y-185737500D03*
D14*
X230981300Y-185737500D03*
D13*
X236061300Y-185737500D03*
X149701300Y-180975000D03*
D14*
X154781300Y-180975000D03*
D13*
X159861300Y-180975000D03*
X302101300Y-161925000D03*
D14*
X307181300Y-161925000D03*
D13*
X312261300Y-161925000D03*
X225901300Y-128587500D03*
D14*
X230981300Y-128587500D03*
D13*
X236061300Y-128587500D03*
X264001300Y-142875000D03*
D14*
X269081300Y-142875000D03*
D13*
X274161300Y-142875000D03*
X73501300Y-128587500D03*
D14*
X78581300Y-128587500D03*
D13*
X83661300Y-128587500D03*
X168751300Y-128587500D03*
D14*
X173831300Y-128587500D03*
D13*
X178911300Y-128587500D03*
X111601300Y-161925000D03*
D14*
X116681300Y-161925000D03*
D13*
X121761300Y-161925000D03*
X168751300Y-147637500D03*
D14*
X173831300Y-147637500D03*
D13*
X178911300Y-147637500D03*
X244951300Y-142875000D03*
D14*
X250031300Y-142875000D03*
D13*
X255111300Y-142875000D03*
X92551300Y-123825000D03*
D14*
X97631300Y-123825000D03*
D13*
X102711300Y-123825000D03*
X283051300Y-123825000D03*
D14*
X288131300Y-123825000D03*
D13*
X293211300Y-123825000D03*
X149701300Y-123825000D03*
D14*
X154781300Y-123825000D03*
D13*
X159861300Y-123825000D03*
X244951300Y-161925000D03*
D14*
X250031300Y-161925000D03*
D13*
X255111300Y-161925000D03*
X283051300Y-142875000D03*
D14*
X288131300Y-142875000D03*
D13*
X293211300Y-142875000D03*
X302101300Y-123825000D03*
D14*
X307181300Y-123825000D03*
D13*
X312261300Y-123825000D03*
X321151300Y-128587500D03*
D14*
X326231300Y-128587500D03*
D13*
X331311300Y-128587500D03*
X73501300Y-166687500D03*
D14*
X78581300Y-166687500D03*
D13*
X83661300Y-166687500D03*
X73501300Y-147637500D03*
D14*
X78581300Y-147637500D03*
D13*
X83661300Y-147637500D03*
X168751300Y-185737500D03*
D14*
X173831300Y-185737500D03*
D13*
X178911300Y-185737500D03*
X111601300Y-123825000D03*
D14*
X116681300Y-123825000D03*
D13*
X121761300Y-123825000D03*
X244951300Y-123825000D03*
D14*
X250031300Y-123825000D03*
D13*
X255111300Y-123825000D03*
X92551300Y-161925000D03*
D14*
X97631300Y-161925000D03*
D13*
X102711300Y-161925000D03*
X225901300Y-166687500D03*
D14*
X230981300Y-166687500D03*
D13*
X236061300Y-166687500D03*
X302101300Y-142875000D03*
D14*
X307181300Y-142875000D03*
D13*
X312261300Y-142875000D03*
X130651300Y-142875000D03*
D14*
X135731300Y-142875000D03*
D13*
X140811300Y-142875000D03*
X283051300Y-161925000D03*
D14*
X288131300Y-161925000D03*
D13*
X293211300Y-161925000D03*
X264001300Y-161925000D03*
D14*
X269081300Y-161925000D03*
D13*
X274161300Y-161925000D03*
X130651300Y-123825000D03*
D14*
X135731300Y-123825000D03*
D13*
X140811300Y-123825000D03*
X149701300Y-161925000D03*
D14*
X154781300Y-161925000D03*
D13*
X159861300Y-161925000D03*
X206851300Y-188118700D03*
D14*
X211931300Y-188118700D03*
D13*
X217011300Y-188118700D03*
X168751300Y-166687500D03*
D14*
X173831300Y-166687500D03*
D13*
X178911300Y-166687500D03*
X130651300Y-161925000D03*
D14*
X135731300Y-161925000D03*
D13*
X140811300Y-161925000D03*
X149701300Y-142875000D03*
D14*
X154781300Y-142875000D03*
D13*
X159861300Y-142875000D03*
X264001300Y-123825000D03*
D14*
X269081300Y-123825000D03*
D13*
X274161300Y-123825000D03*
X92551300Y-142875000D03*
D14*
X97631300Y-142875000D03*
D13*
X102711300Y-142875000D03*
X244951300Y-180975000D03*
D14*
X250031300Y-180975000D03*
D13*
X255111300Y-180975000D03*
X111601300Y-142875000D03*
D14*
X116681300Y-142875000D03*
D13*
X121761300Y-142875000D03*
M02*
