G04 #@! TF.GenerationSoftware,KiCad,Pcbnew,8.0.4*
G04 #@! TF.CreationDate,2024-09-22T19:21:53+09:00*
G04 #@! TF.ProjectId,first_keyboard,66697273-745f-46b6-9579-626f6172642e,rev?*
G04 #@! TF.SameCoordinates,Original*
G04 #@! TF.FileFunction,Copper,L2,Bot*
G04 #@! TF.FilePolarity,Positive*
%FSLAX46Y46*%
G04 Gerber Fmt 4.6, Leading zero omitted, Abs format (unit mm)*
G04 Created by KiCad (PCBNEW 8.0.4) date 2024-09-22 19:21:53*
%MOMM*%
%LPD*%
G01*
G04 APERTURE LIST*
G04 #@! TA.AperFunction,SMDPad,CuDef*
%ADD10R,3.300000X3.000000*%
G04 #@! TD*
G04 #@! TA.AperFunction,SMDPad,CuDef*
%ADD11R,3.000000X3.300000*%
G04 #@! TD*
G04 #@! TA.AperFunction,ComponentPad*
%ADD12O,1.700000X1.700000*%
G04 #@! TD*
G04 #@! TA.AperFunction,ComponentPad*
%ADD13R,1.700000X1.700000*%
G04 #@! TD*
G04 #@! TA.AperFunction,ComponentPad*
%ADD14R,1.397000X1.397000*%
G04 #@! TD*
G04 #@! TA.AperFunction,ComponentPad*
%ADD15C,1.397000*%
G04 #@! TD*
G04 APERTURE END LIST*
D10*
X185431300Y-185538700D03*
X199031300Y-182998700D03*
X223531300Y-145057500D03*
X237131300Y-142517500D03*
X223531300Y-183157500D03*
X237131300Y-180617500D03*
X147331300Y-178395000D03*
X160931300Y-175855000D03*
X299731300Y-159345000D03*
X313331300Y-156805000D03*
X223531300Y-126007500D03*
X237131300Y-123467500D03*
X261631300Y-140295000D03*
X275231300Y-137755000D03*
X71131300Y-126007500D03*
X84731300Y-123467500D03*
X166381300Y-126007500D03*
X179981300Y-123467500D03*
X109231300Y-159345000D03*
X122831300Y-156805000D03*
X166381300Y-145057500D03*
X179981300Y-142517500D03*
X242581300Y-140295000D03*
X256181300Y-137755000D03*
X90181300Y-121245000D03*
X103781300Y-118705000D03*
X280681300Y-121245000D03*
X294281300Y-118705000D03*
X147331300Y-121245000D03*
X160931300Y-118705000D03*
X242581300Y-159345000D03*
X256181300Y-156805000D03*
D11*
X323691300Y-164562500D03*
X321151300Y-151062500D03*
D10*
X280681300Y-140295000D03*
X294281300Y-137755000D03*
X299731300Y-121245000D03*
X313331300Y-118705000D03*
X318781300Y-126007500D03*
X332381300Y-123467500D03*
X71131300Y-164107500D03*
X84731300Y-161567500D03*
X71131300Y-145057500D03*
X84731300Y-142517500D03*
X166381300Y-183157500D03*
X179981300Y-180617500D03*
X109231300Y-121245000D03*
X122831300Y-118705000D03*
X242581300Y-121245000D03*
X256181300Y-118705000D03*
X90181300Y-159345000D03*
X103781300Y-156805000D03*
X223531300Y-164107500D03*
X237131300Y-161567500D03*
X299731300Y-140295000D03*
X313331300Y-137755000D03*
X128281300Y-140295000D03*
X141881300Y-137755000D03*
X280681300Y-159345000D03*
X294281300Y-156805000D03*
X261631300Y-159345000D03*
X275231300Y-156805000D03*
X128281300Y-121245000D03*
X141881300Y-118705000D03*
X147331300Y-159345000D03*
X160931300Y-156805000D03*
X204481300Y-185538700D03*
X218081300Y-182998700D03*
X166381300Y-164107500D03*
X179981300Y-161567500D03*
X128281300Y-159345000D03*
X141881300Y-156805000D03*
X147331300Y-140295000D03*
X160931300Y-137755000D03*
D12*
X193516300Y-120332500D03*
X193516300Y-122872500D03*
D13*
X193516300Y-125412500D03*
D12*
X193516300Y-127952500D03*
X193516300Y-130492500D03*
X193516300Y-133032500D03*
X193516300Y-135572500D03*
D13*
X193516300Y-138112500D03*
D12*
X193516300Y-140652500D03*
X193516300Y-143192500D03*
X193516300Y-145732500D03*
X193516300Y-148272500D03*
D13*
X193516300Y-150812500D03*
D12*
X193516300Y-153352500D03*
X193516300Y-155892500D03*
X193516300Y-158432500D03*
X193516300Y-160972500D03*
D13*
X193516300Y-163512500D03*
D12*
X193516300Y-166052500D03*
X193516300Y-168592500D03*
X211296300Y-168592500D03*
X211296300Y-166052500D03*
D13*
X211296300Y-163512500D03*
D12*
X211296300Y-160972500D03*
X211296300Y-158432500D03*
X211296300Y-155892500D03*
X211296300Y-153352500D03*
D13*
X211296300Y-150812500D03*
D12*
X211296300Y-148272500D03*
X211296300Y-145732500D03*
X211296300Y-143192500D03*
X211296300Y-140652500D03*
D13*
X211296300Y-138112500D03*
D12*
X211296300Y-135572500D03*
X211296300Y-133032500D03*
X211296300Y-130492500D03*
X211296300Y-127952500D03*
D13*
X211296300Y-125412500D03*
D12*
X211296300Y-122872500D03*
X211296300Y-120332500D03*
X199866300Y-168362500D03*
D13*
X202406300Y-168362500D03*
D12*
X204946300Y-168362500D03*
D10*
X261631300Y-121245000D03*
X275231300Y-118705000D03*
X90181300Y-140295000D03*
X103781300Y-137755000D03*
X242581300Y-178395000D03*
X256181300Y-175855000D03*
X109231300Y-140295000D03*
X122831300Y-137755000D03*
D14*
X297656250Y-153222500D03*
D15*
X297656250Y-145602500D03*
D14*
X157638750Y-190500000D03*
D15*
X150018750Y-190500000D03*
D14*
X240506250Y-136207500D03*
D15*
X240506250Y-128587500D03*
D14*
X107156250Y-172272500D03*
D15*
X107156250Y-164652500D03*
D14*
X183356250Y-136207500D03*
D15*
X183356250Y-128587500D03*
D14*
X145256250Y-172272500D03*
D15*
X145256250Y-164652500D03*
D14*
X107156250Y-134172500D03*
D15*
X107156250Y-126552500D03*
D14*
X126206250Y-153222500D03*
D15*
X126206250Y-145602500D03*
D14*
X195738750Y-197643750D03*
D15*
X188118750Y-197643750D03*
D14*
X88106250Y-153222500D03*
D15*
X88106250Y-145602500D03*
D14*
X126206250Y-134172500D03*
D15*
X126206250Y-126552500D03*
D14*
X126206250Y-172272500D03*
D15*
X126206250Y-164652500D03*
D14*
X217170000Y-197643750D03*
D15*
X209550000Y-197643750D03*
D14*
X259556250Y-172272500D03*
D15*
X259556250Y-164652500D03*
D14*
X82391250Y-176212500D03*
D15*
X74771250Y-176212500D03*
D14*
X183356250Y-174307500D03*
D15*
X183356250Y-166687500D03*
D14*
X157985000Y-152400000D03*
D15*
X150365000Y-152400000D03*
D14*
X297656250Y-172272500D03*
D15*
X297656250Y-164652500D03*
D14*
X310385000Y-152400000D03*
D15*
X302765000Y-152400000D03*
D14*
X145256250Y-153222500D03*
D15*
X145256250Y-145602500D03*
D14*
X259556250Y-153222500D03*
D15*
X259556250Y-145602500D03*
D14*
X259556250Y-134172500D03*
D15*
X259556250Y-126552500D03*
D14*
X176688750Y-195262500D03*
D15*
X169068750Y-195262500D03*
D14*
X278606250Y-153222500D03*
D15*
X278606250Y-145602500D03*
D14*
X316706250Y-138935000D03*
D15*
X316706250Y-131315000D03*
D14*
X145256250Y-134172500D03*
D15*
X145256250Y-126552500D03*
D14*
X335756250Y-138935000D03*
D15*
X335756250Y-131315000D03*
D14*
X310385000Y-171450000D03*
D15*
X302765000Y-171450000D03*
D14*
X183356250Y-155257500D03*
D15*
X183356250Y-147637500D03*
D14*
X107156250Y-153222500D03*
D15*
X107156250Y-145602500D03*
D14*
X278606250Y-134172500D03*
D15*
X278606250Y-126552500D03*
D14*
X297656250Y-134172500D03*
D15*
X297656250Y-126552500D03*
D14*
X88106250Y-134172500D03*
D15*
X88106250Y-126552500D03*
D14*
X278606250Y-172272500D03*
D15*
X278606250Y-164652500D03*
D14*
X240506250Y-174307500D03*
D15*
X240506250Y-166687500D03*
D14*
X236220000Y-195262500D03*
D15*
X228600000Y-195262500D03*
D14*
X240506250Y-155257500D03*
D15*
X240506250Y-147637500D03*
D14*
X157638750Y-133350000D03*
D15*
X150018750Y-133350000D03*
D14*
X330041250Y-176212500D03*
D15*
X322421250Y-176212500D03*
D14*
X157638750Y-171450000D03*
D15*
X150018750Y-171450000D03*
D14*
X255616250Y-190500000D03*
D15*
X247996250Y-190500000D03*
M02*
