G04 #@! TF.GenerationSoftware,KiCad,Pcbnew,8.0.4*
G04 #@! TF.CreationDate,2024-09-22T19:53:23+09:00*
G04 #@! TF.ProjectId,first_keyboard,66697273-745f-46b6-9579-626f6172642e,rev?*
G04 #@! TF.SameCoordinates,Original*
G04 #@! TF.FileFunction,Soldermask,Top*
G04 #@! TF.FilePolarity,Negative*
%FSLAX46Y46*%
G04 Gerber Fmt 4.6, Leading zero omitted, Abs format (unit mm)*
G04 Created by KiCad (PCBNEW 8.0.4) date 2024-09-22 19:53:23*
%MOMM*%
%LPD*%
G01*
G04 APERTURE LIST*
%ADD10C,2.000000*%
%ADD11C,3.000000*%
%ADD12C,4.000000*%
%ADD13C,3.050000*%
%ADD14C,1.800000*%
%ADD15O,1.800000X1.800000*%
%ADD16O,1.500000X1.500000*%
%ADD17O,1.700000X1.700000*%
%ADD18R,3.500000X1.700000*%
%ADD19R,1.700000X1.700000*%
%ADD20R,1.700000X3.500000*%
%ADD21R,1.397000X1.397000*%
%ADD22R,0.950000X1.300000*%
%ADD23C,1.397000*%
%ADD24R,1.300000X0.950000*%
G04 APERTURE END LIST*
D10*
X187801300Y-188118700D03*
D11*
X189071300Y-185578700D03*
D12*
X192881300Y-188118700D03*
D11*
X195421300Y-183038700D03*
D10*
X197961300Y-188118700D03*
X225901300Y-147637500D03*
D11*
X227171300Y-145097500D03*
D12*
X230981300Y-147637500D03*
D11*
X233521300Y-142557500D03*
D10*
X236061300Y-147637500D03*
X225901300Y-185737500D03*
D11*
X227171300Y-183197500D03*
D12*
X230981300Y-185737500D03*
D11*
X233521300Y-180657500D03*
D10*
X236061300Y-185737500D03*
X149701300Y-180975000D03*
D11*
X150971300Y-178435000D03*
D12*
X154781300Y-180975000D03*
D11*
X157321300Y-175895000D03*
D10*
X159861300Y-180975000D03*
X302101300Y-161925000D03*
D11*
X303371300Y-159385000D03*
D12*
X307181300Y-161925000D03*
D11*
X309721300Y-156845000D03*
D10*
X312261300Y-161925000D03*
X225901300Y-128587500D03*
D11*
X227171300Y-126047500D03*
D12*
X230981300Y-128587500D03*
D11*
X233521300Y-123507500D03*
D10*
X236061300Y-128587500D03*
X264001300Y-142875000D03*
D11*
X265271300Y-140335000D03*
D12*
X269081300Y-142875000D03*
D11*
X271621300Y-137795000D03*
D10*
X274161300Y-142875000D03*
X73501300Y-128587500D03*
D11*
X74771300Y-126047500D03*
D12*
X78581300Y-128587500D03*
D11*
X81121300Y-123507500D03*
D10*
X83661300Y-128587500D03*
X168751300Y-128587500D03*
D11*
X170021300Y-126047500D03*
D12*
X173831300Y-128587500D03*
D11*
X176371300Y-123507500D03*
D10*
X178911300Y-128587500D03*
X111601300Y-161925000D03*
D11*
X112871300Y-159385000D03*
D12*
X116681300Y-161925000D03*
D11*
X119221300Y-156845000D03*
D10*
X121761300Y-161925000D03*
X168751300Y-147637500D03*
D11*
X170021300Y-145097500D03*
D12*
X173831300Y-147637500D03*
D11*
X176371300Y-142557500D03*
D10*
X178911300Y-147637500D03*
X244951300Y-142875000D03*
D11*
X246221300Y-140335000D03*
D12*
X250031300Y-142875000D03*
D11*
X252571300Y-137795000D03*
D10*
X255111300Y-142875000D03*
X92551300Y-123825000D03*
D11*
X93821300Y-121285000D03*
D12*
X97631300Y-123825000D03*
D11*
X100171300Y-118745000D03*
D10*
X102711300Y-123825000D03*
X283051300Y-123825000D03*
D11*
X284321300Y-121285000D03*
D12*
X288131300Y-123825000D03*
D11*
X290671300Y-118745000D03*
D10*
X293211300Y-123825000D03*
X149701300Y-123825000D03*
D11*
X150971300Y-121285000D03*
D12*
X154781300Y-123825000D03*
D11*
X157321300Y-118745000D03*
D10*
X159861300Y-123825000D03*
X244951300Y-161925000D03*
D11*
X246221300Y-159385000D03*
D12*
X250031300Y-161925000D03*
D11*
X252571300Y-156845000D03*
D10*
X255111300Y-161925000D03*
D13*
X319231300Y-169062500D03*
D12*
X334471300Y-169062500D03*
D14*
X326231300Y-162242500D03*
D11*
X323691300Y-160972500D03*
D12*
X326231300Y-157162500D03*
D11*
X321151300Y-154622500D03*
D14*
X326231300Y-152082500D03*
D13*
X319231300Y-145262500D03*
D12*
X334471300Y-145262500D03*
D10*
X283051300Y-142875000D03*
D11*
X284321300Y-140335000D03*
D12*
X288131300Y-142875000D03*
D11*
X290671300Y-137795000D03*
D10*
X293211300Y-142875000D03*
X302101300Y-123825000D03*
D11*
X303371300Y-121285000D03*
D12*
X307181300Y-123825000D03*
D11*
X309721300Y-118745000D03*
D10*
X312261300Y-123825000D03*
X321151300Y-128587500D03*
D11*
X322421300Y-126047500D03*
D12*
X326231300Y-128587500D03*
D11*
X328771300Y-123507500D03*
D10*
X331311300Y-128587500D03*
X73501300Y-166687500D03*
D11*
X74771300Y-164147500D03*
D12*
X78581300Y-166687500D03*
D11*
X81121300Y-161607500D03*
D10*
X83661300Y-166687500D03*
X73501300Y-147637500D03*
D11*
X74771300Y-145097500D03*
D12*
X78581300Y-147637500D03*
D11*
X81121300Y-142557500D03*
D10*
X83661300Y-147637500D03*
X168751300Y-185737500D03*
D11*
X170021300Y-183197500D03*
D12*
X173831300Y-185737500D03*
D11*
X176371300Y-180657500D03*
D10*
X178911300Y-185737500D03*
X111601300Y-123825000D03*
D11*
X112871300Y-121285000D03*
D12*
X116681300Y-123825000D03*
D11*
X119221300Y-118745000D03*
D10*
X121761300Y-123825000D03*
X244951300Y-123825000D03*
D11*
X246221300Y-121285000D03*
D12*
X250031300Y-123825000D03*
D11*
X252571300Y-118745000D03*
D10*
X255111300Y-123825000D03*
X92551300Y-161925000D03*
D11*
X93821300Y-159385000D03*
D12*
X97631300Y-161925000D03*
D11*
X100171300Y-156845000D03*
D10*
X102711300Y-161925000D03*
X225901300Y-166687500D03*
D11*
X227171300Y-164147500D03*
D12*
X230981300Y-166687500D03*
D11*
X233521300Y-161607500D03*
D10*
X236061300Y-166687500D03*
X302101300Y-142875000D03*
D11*
X303371300Y-140335000D03*
D12*
X307181300Y-142875000D03*
D11*
X309721300Y-137795000D03*
D10*
X312261300Y-142875000D03*
X130651300Y-142875000D03*
D11*
X131921300Y-140335000D03*
D12*
X135731300Y-142875000D03*
D11*
X138271300Y-137795000D03*
D10*
X140811300Y-142875000D03*
X283051300Y-161925000D03*
D11*
X284321300Y-159385000D03*
D12*
X288131300Y-161925000D03*
D11*
X290671300Y-156845000D03*
D10*
X293211300Y-161925000D03*
X264001300Y-161925000D03*
D11*
X265271300Y-159385000D03*
D12*
X269081300Y-161925000D03*
D11*
X271621300Y-156845000D03*
D10*
X274161300Y-161925000D03*
X130651300Y-123825000D03*
D11*
X131921300Y-121285000D03*
D12*
X135731300Y-123825000D03*
D11*
X138271300Y-118745000D03*
D10*
X140811300Y-123825000D03*
X149701300Y-161925000D03*
D11*
X150971300Y-159385000D03*
D12*
X154781300Y-161925000D03*
D11*
X157321300Y-156845000D03*
D10*
X159861300Y-161925000D03*
X206851300Y-188118700D03*
D11*
X208121300Y-185578700D03*
D12*
X211931300Y-188118700D03*
D11*
X214471300Y-183038700D03*
D10*
X217011300Y-188118700D03*
X168751300Y-166687500D03*
D11*
X170021300Y-164147500D03*
D12*
X173831300Y-166687500D03*
D11*
X176371300Y-161607500D03*
D10*
X178911300Y-166687500D03*
X130651300Y-161925000D03*
D11*
X131921300Y-159385000D03*
D12*
X135731300Y-161925000D03*
D11*
X138271300Y-156845000D03*
D10*
X140811300Y-161925000D03*
X149701300Y-142875000D03*
D11*
X150971300Y-140335000D03*
D12*
X154781300Y-142875000D03*
D11*
X157321300Y-137795000D03*
D10*
X159861300Y-142875000D03*
D15*
X199681300Y-120462500D03*
D16*
X199981300Y-123492500D03*
X204831300Y-123492500D03*
D15*
X205131300Y-120462500D03*
D17*
X193516300Y-120332500D03*
D18*
X192616300Y-120332500D03*
D17*
X193516300Y-122872500D03*
D18*
X192616300Y-122872500D03*
D19*
X193516300Y-125412500D03*
D18*
X192616300Y-125412500D03*
D17*
X193516300Y-127952500D03*
D18*
X192616300Y-127952500D03*
D17*
X193516300Y-130492500D03*
D18*
X192616300Y-130492500D03*
D17*
X193516300Y-133032500D03*
D18*
X192616300Y-133032500D03*
D17*
X193516300Y-135572500D03*
D18*
X192616300Y-135572500D03*
D19*
X193516300Y-138112500D03*
D18*
X192616300Y-138112500D03*
D17*
X193516300Y-140652500D03*
D18*
X192616300Y-140652500D03*
D17*
X193516300Y-143192500D03*
D18*
X192616300Y-143192500D03*
D17*
X193516300Y-145732500D03*
D18*
X192616300Y-145732500D03*
D17*
X193516300Y-148272500D03*
D18*
X192616300Y-148272500D03*
D19*
X193516300Y-150812500D03*
D18*
X192616300Y-150812500D03*
D17*
X193516300Y-153352500D03*
D18*
X192616300Y-153352500D03*
D17*
X193516300Y-155892500D03*
D18*
X192616300Y-155892500D03*
D17*
X193516300Y-158432500D03*
D18*
X192616300Y-158432500D03*
D17*
X193516300Y-160972500D03*
D18*
X192616300Y-160972500D03*
D19*
X193516300Y-163512500D03*
D18*
X192616300Y-163512500D03*
D17*
X193516300Y-166052500D03*
D18*
X192616300Y-166052500D03*
D17*
X193516300Y-168592500D03*
D18*
X192616300Y-168592500D03*
D17*
X211296300Y-168592500D03*
D18*
X212196300Y-168592500D03*
D17*
X211296300Y-166052500D03*
D18*
X212196300Y-166052500D03*
D19*
X211296300Y-163512500D03*
D18*
X212196300Y-163512500D03*
D17*
X211296300Y-160972500D03*
D18*
X212196300Y-160972500D03*
D17*
X211296300Y-158432500D03*
D18*
X212196300Y-158432500D03*
D17*
X211296300Y-155892500D03*
D18*
X212196300Y-155892500D03*
D17*
X211296300Y-153352500D03*
D18*
X212196300Y-153352500D03*
D19*
X211296300Y-150812500D03*
D18*
X212196300Y-150812500D03*
D17*
X211296300Y-148272500D03*
D18*
X212196300Y-148272500D03*
D17*
X211296300Y-145732500D03*
D18*
X212196300Y-145732500D03*
D17*
X211296300Y-143192500D03*
D18*
X212196300Y-143192500D03*
D17*
X211296300Y-140652500D03*
D18*
X212196300Y-140652500D03*
D19*
X211296300Y-138112500D03*
D18*
X212196300Y-138112500D03*
D17*
X211296300Y-135572500D03*
D18*
X212196300Y-135572500D03*
D17*
X211296300Y-133032500D03*
D18*
X212196300Y-133032500D03*
D17*
X211296300Y-130492500D03*
D18*
X212196300Y-130492500D03*
D17*
X211296300Y-127952500D03*
D18*
X212196300Y-127952500D03*
D19*
X211296300Y-125412500D03*
D18*
X212196300Y-125412500D03*
D17*
X211296300Y-122872500D03*
D18*
X212196300Y-122872500D03*
D17*
X211296300Y-120332500D03*
D18*
X212196300Y-120332500D03*
D17*
X199866300Y-168362500D03*
D20*
X199866300Y-169262500D03*
D19*
X202406300Y-168362500D03*
D20*
X202406300Y-169262500D03*
D17*
X204946300Y-168362500D03*
D20*
X204946300Y-169262500D03*
D10*
X264001300Y-123825000D03*
D11*
X265271300Y-121285000D03*
D12*
X269081300Y-123825000D03*
D11*
X271621300Y-118745000D03*
D10*
X274161300Y-123825000D03*
X92551300Y-142875000D03*
D11*
X93821300Y-140335000D03*
D12*
X97631300Y-142875000D03*
D11*
X100171300Y-137795000D03*
D10*
X102711300Y-142875000D03*
X244951300Y-180975000D03*
D11*
X246221300Y-178435000D03*
D12*
X250031300Y-180975000D03*
D11*
X252571300Y-175895000D03*
D10*
X255111300Y-180975000D03*
X111601300Y-142875000D03*
D11*
X112871300Y-140335000D03*
D12*
X116681300Y-142875000D03*
D11*
X119221300Y-137795000D03*
D10*
X121761300Y-142875000D03*
D21*
X297656300Y-153222500D03*
D22*
X297656300Y-151187500D03*
X297656300Y-147637500D03*
D23*
X297656300Y-145602500D03*
D21*
X157638800Y-190500000D03*
D24*
X155603800Y-190500000D03*
X152053800Y-190500000D03*
D23*
X150018800Y-190500000D03*
D21*
X240506300Y-136207500D03*
D22*
X240506300Y-134172500D03*
X240506300Y-130622500D03*
D23*
X240506300Y-128587500D03*
D21*
X107156300Y-172272500D03*
D22*
X107156300Y-170237500D03*
X107156300Y-166687500D03*
D23*
X107156300Y-164652500D03*
D21*
X183356300Y-136207500D03*
D22*
X183356300Y-134172500D03*
X183356300Y-130622500D03*
D23*
X183356300Y-128587500D03*
D21*
X145256300Y-172272500D03*
D22*
X145256300Y-170237500D03*
X145256300Y-166687500D03*
D23*
X145256300Y-164652500D03*
D21*
X107156300Y-134172500D03*
D22*
X107156300Y-132137500D03*
X107156300Y-128587500D03*
D23*
X107156300Y-126552500D03*
D21*
X126206300Y-153222500D03*
D22*
X126206300Y-151187500D03*
X126206300Y-147637500D03*
D23*
X126206300Y-145602500D03*
D21*
X195738800Y-197643700D03*
D24*
X193703800Y-197643700D03*
X190153800Y-197643700D03*
D23*
X188118800Y-197643700D03*
D21*
X88106300Y-153222500D03*
D22*
X88106300Y-151187500D03*
X88106300Y-147637500D03*
D23*
X88106300Y-145602500D03*
D21*
X126206300Y-134172500D03*
D22*
X126206300Y-132137500D03*
X126206300Y-128587500D03*
D23*
X126206300Y-126552500D03*
D21*
X126206300Y-172272500D03*
D22*
X126206300Y-170237500D03*
X126206300Y-166687500D03*
D23*
X126206300Y-164652500D03*
D21*
X217170000Y-197643700D03*
D24*
X215135000Y-197643700D03*
X211585000Y-197643700D03*
D23*
X209550000Y-197643700D03*
D21*
X259556300Y-172272500D03*
D22*
X259556300Y-170237500D03*
X259556300Y-166687500D03*
D23*
X259556300Y-164652500D03*
D21*
X82391300Y-176212500D03*
D24*
X80356300Y-176212500D03*
X76806300Y-176212500D03*
D23*
X74771300Y-176212500D03*
D21*
X183356300Y-174307500D03*
D22*
X183356300Y-172272500D03*
X183356300Y-168722500D03*
D23*
X183356300Y-166687500D03*
D21*
X157985000Y-152400000D03*
D24*
X155950000Y-152400000D03*
X152400000Y-152400000D03*
D23*
X150365000Y-152400000D03*
D21*
X297656300Y-172272500D03*
D22*
X297656300Y-170237500D03*
X297656300Y-166687500D03*
D23*
X297656300Y-164652500D03*
D21*
X310385000Y-152400000D03*
D24*
X308350000Y-152400000D03*
X304800000Y-152400000D03*
D23*
X302765000Y-152400000D03*
D21*
X145256300Y-153222500D03*
D22*
X145256300Y-151187500D03*
X145256300Y-147637500D03*
D23*
X145256300Y-145602500D03*
D21*
X259556300Y-153222500D03*
D22*
X259556300Y-151187500D03*
X259556300Y-147637500D03*
D23*
X259556300Y-145602500D03*
D21*
X259556300Y-134172500D03*
D22*
X259556300Y-132137500D03*
X259556300Y-128587500D03*
D23*
X259556300Y-126552500D03*
D21*
X176688800Y-195262500D03*
D24*
X174653800Y-195262500D03*
X171103800Y-195262500D03*
D23*
X169068800Y-195262500D03*
D21*
X278606300Y-153222500D03*
D22*
X278606300Y-151187500D03*
X278606300Y-147637500D03*
D23*
X278606300Y-145602500D03*
D21*
X316706300Y-138935000D03*
D22*
X316706300Y-136900000D03*
X316706300Y-133350000D03*
D23*
X316706300Y-131315000D03*
D21*
X145256300Y-134172500D03*
D22*
X145256300Y-132137500D03*
X145256300Y-128587500D03*
D23*
X145256300Y-126552500D03*
D21*
X335756300Y-138935000D03*
D22*
X335756300Y-136900000D03*
X335756300Y-133350000D03*
D23*
X335756300Y-131315000D03*
D21*
X310385000Y-171450000D03*
D24*
X308350000Y-171450000D03*
X304800000Y-171450000D03*
D23*
X302765000Y-171450000D03*
D21*
X183356300Y-155257500D03*
D22*
X183356300Y-153222500D03*
X183356300Y-149672500D03*
D23*
X183356300Y-147637500D03*
D21*
X107156300Y-153222500D03*
D22*
X107156300Y-151187500D03*
X107156300Y-147637500D03*
D23*
X107156300Y-145602500D03*
D21*
X278606300Y-134172500D03*
D22*
X278606300Y-132137500D03*
X278606300Y-128587500D03*
D23*
X278606300Y-126552500D03*
D21*
X297656300Y-134172500D03*
D22*
X297656300Y-132137500D03*
X297656300Y-128587500D03*
D23*
X297656300Y-126552500D03*
D21*
X88106300Y-134172500D03*
D22*
X88106300Y-132137500D03*
X88106300Y-128587500D03*
D23*
X88106300Y-126552500D03*
D21*
X278606300Y-172272500D03*
D22*
X278606300Y-170237500D03*
X278606300Y-166687500D03*
D23*
X278606300Y-164652500D03*
D21*
X240506300Y-174307500D03*
D22*
X240506300Y-172272500D03*
X240506300Y-168722500D03*
D23*
X240506300Y-166687500D03*
D21*
X236220000Y-195262500D03*
D24*
X234185000Y-195262500D03*
X230635000Y-195262500D03*
D23*
X228600000Y-195262500D03*
D21*
X240506300Y-155257500D03*
D22*
X240506300Y-153222500D03*
X240506300Y-149672500D03*
D23*
X240506300Y-147637500D03*
D21*
X157638800Y-133350000D03*
D24*
X155603800Y-133350000D03*
X152053800Y-133350000D03*
D23*
X150018800Y-133350000D03*
D21*
X330041300Y-176212500D03*
D24*
X328006300Y-176212500D03*
X324456300Y-176212500D03*
D23*
X322421300Y-176212500D03*
D21*
X157638800Y-171450000D03*
D24*
X155603800Y-171450000D03*
X152053800Y-171450000D03*
D23*
X150018800Y-171450000D03*
D21*
X255616300Y-190500000D03*
D24*
X253581300Y-190500000D03*
X250031300Y-190500000D03*
D23*
X247996300Y-190500000D03*
M02*
