M48
; DRILL file {KiCad 8.0.4} date 2024-09-22T19:53:43+0900
; FORMAT={-:-/ absolute / metric / decimal}
; #@! TF.CreationDate,2024-09-22T19:53:43+09:00
; #@! TF.GenerationSoftware,Kicad,Pcbnew,8.0.4
; #@! TF.FileFunction,NonPlated,1,2,NPTH
FMAT,2
METRIC
; #@! TA.AperFunction,NonPlated,NPTH,ComponentDrill
T1C1.500
; #@! TA.AperFunction,NonPlated,NPTH,ComponentDrill
T2C1.800
; #@! TA.AperFunction,NonPlated,NPTH,ComponentDrill
T3C2.000
; #@! TA.AperFunction,NonPlated,NPTH,ComponentDrill
T4C3.000
; #@! TA.AperFunction,NonPlated,NPTH,ComponentDrill
T5C3.050
; #@! TA.AperFunction,NonPlated,NPTH,ComponentDrill
T6C4.000
%
G90
G05
T1
X199.981Y-123.492
X204.831Y-123.492
T2
X199.681Y-120.462
X205.131Y-120.462
X326.231Y-152.082
X326.231Y-162.243
T3
X73.501Y-128.588
X73.501Y-147.637
X73.501Y-166.688
X83.661Y-128.588
X83.661Y-147.637
X83.661Y-166.688
X92.551Y-123.825
X92.551Y-142.875
X92.551Y-161.925
X102.711Y-123.825
X102.711Y-142.875
X102.711Y-161.925
X111.601Y-123.825
X111.601Y-142.875
X111.601Y-161.925
X121.761Y-123.825
X121.761Y-142.875
X121.761Y-161.925
X130.651Y-123.825
X130.651Y-142.875
X130.651Y-161.925
X140.811Y-123.825
X140.811Y-142.875
X140.811Y-161.925
X149.701Y-123.825
X149.701Y-142.875
X149.701Y-161.925
X149.701Y-180.975
X159.861Y-123.825
X159.861Y-142.875
X159.861Y-161.925
X159.861Y-180.975
X168.751Y-128.588
X168.751Y-147.637
X168.751Y-166.688
X168.751Y-185.737
X178.911Y-128.588
X178.911Y-147.637
X178.911Y-166.688
X178.911Y-185.737
X187.801Y-188.119
X197.961Y-188.119
X206.851Y-188.119
X217.011Y-188.119
X225.901Y-128.588
X225.901Y-147.637
X225.901Y-166.688
X225.901Y-185.737
X236.061Y-128.588
X236.061Y-147.637
X236.061Y-166.688
X236.061Y-185.737
X244.951Y-123.825
X244.951Y-142.875
X244.951Y-161.925
X244.951Y-180.975
X255.111Y-123.825
X255.111Y-142.875
X255.111Y-161.925
X255.111Y-180.975
X264.001Y-123.825
X264.001Y-142.875
X264.001Y-161.925
X274.161Y-123.825
X274.161Y-142.875
X274.161Y-161.925
X283.051Y-123.825
X283.051Y-142.875
X283.051Y-161.925
X293.211Y-123.825
X293.211Y-142.875
X293.211Y-161.925
X302.101Y-123.825
X302.101Y-142.875
X302.101Y-161.925
X312.261Y-123.825
X312.261Y-142.875
X312.261Y-161.925
X321.151Y-128.588
X331.311Y-128.588
T4
X74.771Y-126.047
X74.771Y-145.097
X74.771Y-164.147
X81.121Y-123.507
X81.121Y-142.558
X81.121Y-161.607
X93.821Y-121.285
X93.821Y-140.335
X93.821Y-159.385
X100.171Y-118.745
X100.171Y-137.795
X100.171Y-156.845
X112.871Y-121.285
X112.871Y-140.335
X112.871Y-159.385
X119.221Y-118.745
X119.221Y-137.795
X119.221Y-156.845
X131.921Y-121.285
X131.921Y-140.335
X131.921Y-159.385
X138.271Y-118.745
X138.271Y-137.795
X138.271Y-156.845
X150.971Y-121.285
X150.971Y-140.335
X150.971Y-159.385
X150.971Y-178.435
X157.321Y-118.745
X157.321Y-137.795
X157.321Y-156.845
X157.321Y-175.895
X170.021Y-126.047
X170.021Y-145.097
X170.021Y-164.147
X170.021Y-183.197
X176.371Y-123.507
X176.371Y-142.558
X176.371Y-161.607
X176.371Y-180.657
X189.071Y-185.579
X195.421Y-183.039
X208.121Y-185.579
X214.471Y-183.039
X227.171Y-126.047
X227.171Y-145.097
X227.171Y-164.147
X227.171Y-183.197
X233.521Y-123.507
X233.521Y-142.558
X233.521Y-161.607
X233.521Y-180.657
X246.221Y-121.285
X246.221Y-140.335
X246.221Y-159.385
X246.221Y-178.435
X252.571Y-118.745
X252.571Y-137.795
X252.571Y-156.845
X252.571Y-175.895
X265.271Y-121.285
X265.271Y-140.335
X265.271Y-159.385
X271.621Y-118.745
X271.621Y-137.795
X271.621Y-156.845
X284.321Y-121.285
X284.321Y-140.335
X284.321Y-159.385
X290.671Y-118.745
X290.671Y-137.795
X290.671Y-156.845
X303.371Y-121.285
X303.371Y-140.335
X303.371Y-159.385
X309.721Y-118.745
X309.721Y-137.795
X309.721Y-156.845
X321.151Y-154.623
X322.421Y-126.047
X323.691Y-160.972
X328.771Y-123.507
T5
X319.231Y-145.262
X319.231Y-169.062
T6
X78.581Y-128.588
X78.581Y-147.637
X78.581Y-166.688
X97.631Y-123.825
X97.631Y-142.875
X97.631Y-161.925
X116.681Y-123.825
X116.681Y-142.875
X116.681Y-161.925
X135.731Y-123.825
X135.731Y-142.875
X135.731Y-161.925
X154.781Y-123.825
X154.781Y-142.875
X154.781Y-161.925
X154.781Y-180.975
X173.831Y-128.588
X173.831Y-147.637
X173.831Y-166.688
X173.831Y-185.737
X192.881Y-188.119
X211.931Y-188.119
X230.981Y-128.588
X230.981Y-147.637
X230.981Y-166.688
X230.981Y-185.737
X250.031Y-123.825
X250.031Y-142.875
X250.031Y-161.925
X250.031Y-180.975
X269.081Y-123.825
X269.081Y-142.875
X269.081Y-161.925
X288.131Y-123.825
X288.131Y-142.875
X288.131Y-161.925
X307.181Y-123.825
X307.181Y-142.875
X307.181Y-161.925
X326.231Y-128.588
X326.231Y-157.162
X334.471Y-145.262
X334.471Y-169.062
M30
