M48
; DRILL file {KiCad 8.0.4} date 2024-09-08T18:57:35+0900
; FORMAT={-:-/ absolute / metric / decimal}
; #@! TF.CreationDate,2024-09-08T18:57:35+09:00
; #@! TF.GenerationSoftware,Kicad,Pcbnew,8.0.4
; #@! TF.FileFunction,Plated,1,2,PTH
FMAT,2
METRIC
; #@! TA.AperFunction,Plated,PTH,ViaDrill
T1C0.400
; #@! TA.AperFunction,Plated,PTH,ComponentDrill
T2C0.813
; #@! TA.AperFunction,Plated,PTH,ComponentDrill
T3C1.020
%
G90
G05
T1
X71.581Y-150.339
X90.631Y-149.263
X109.833Y-154.639
X163.385Y-159.116
X172.445Y-171.71
X207.332Y-174.177
X217.909Y-160.972
X222.429Y-161.969
X228.126Y-158.433
X271.258Y-147.693
X275.956Y-135.647
X313.506Y-134.83
T2
X84.297Y-130.493
X84.297Y-138.112
X84.297Y-149.542
X84.297Y-157.162
X84.297Y-168.593
X84.297Y-176.213
X103.347Y-125.73
X103.347Y-133.35
X103.347Y-144.78
X103.347Y-152.4
X103.347Y-163.83
X103.347Y-171.45
X122.397Y-125.73
X122.397Y-133.35
X122.397Y-144.78
X122.397Y-152.4
X122.397Y-163.83
X122.397Y-171.45
X141.447Y-125.73
X141.447Y-133.35
X141.447Y-144.78
X141.447Y-152.4
X141.447Y-163.83
X141.447Y-171.45
X160.497Y-125.73
X160.497Y-133.35
X160.497Y-144.78
X160.497Y-152.4
X160.497Y-163.83
X160.497Y-171.45
X161.925Y-178.94
X161.925Y-186.56
X179.547Y-130.493
X179.547Y-138.112
X179.547Y-149.542
X179.547Y-157.162
X179.547Y-168.593
X179.547Y-176.213
X179.547Y-187.642
X179.547Y-195.262
X200.025Y-190.024
X200.025Y-197.644
X219.075Y-190.024
X219.075Y-197.644
X236.697Y-130.493
X236.697Y-138.112
X236.697Y-149.542
X236.697Y-157.162
X236.697Y-168.593
X236.697Y-176.213
X236.697Y-187.642
X236.697Y-195.262
X255.747Y-125.73
X255.747Y-133.35
X255.747Y-144.78
X255.747Y-152.4
X255.747Y-163.83
X255.747Y-171.45
X255.747Y-182.88
X255.747Y-190.5
X274.797Y-125.73
X274.797Y-133.35
X274.797Y-144.78
X274.797Y-152.4
X274.797Y-163.83
X274.797Y-171.45
X293.847Y-125.73
X293.847Y-133.35
X293.847Y-144.78
X293.847Y-152.4
X293.847Y-163.83
X293.847Y-171.45
X312.897Y-125.73
X312.897Y-133.35
X312.897Y-144.78
X312.897Y-152.4
X314.325Y-159.89
X314.325Y-167.51
X330.994Y-163.83
X330.994Y-171.45
X333.375Y-130.493
X333.375Y-138.112
T3
X193.516Y-120.332
X193.516Y-122.872
X193.516Y-125.412
X193.516Y-127.953
X193.516Y-130.493
X193.516Y-133.032
X193.516Y-135.572
X193.516Y-138.112
X193.516Y-140.653
X193.516Y-143.192
X193.516Y-145.732
X193.516Y-148.272
X193.516Y-150.812
X193.516Y-153.352
X193.516Y-155.892
X193.516Y-158.433
X193.516Y-160.972
X193.516Y-163.512
X193.516Y-166.052
X193.516Y-168.593
X199.866Y-168.362
X202.406Y-168.362
X204.946Y-168.362
X211.296Y-120.332
X211.296Y-122.872
X211.296Y-125.412
X211.296Y-127.953
X211.296Y-130.493
X211.296Y-133.032
X211.296Y-135.572
X211.296Y-138.112
X211.296Y-140.653
X211.296Y-143.192
X211.296Y-145.732
X211.296Y-148.272
X211.296Y-150.812
X211.296Y-153.352
X211.296Y-155.892
X211.296Y-158.433
X211.296Y-160.972
X211.296Y-163.512
X211.296Y-166.052
X211.296Y-168.593
M30
