M48
; DRILL file {KiCad 8.0.3} date 2024-08-04T13:44:54+0900
; FORMAT={-:-/ absolute / metric / decimal}
; #@! TF.CreationDate,2024-08-04T13:44:54+09:00
; #@! TF.GenerationSoftware,Kicad,Pcbnew,8.0.3
; #@! TF.FileFunction,NonPlated,1,2,NPTH
FMAT,2
METRIC
; #@! TA.AperFunction,NonPlated,NPTH,ComponentDrill
T1C1.500
; #@! TA.AperFunction,NonPlated,NPTH,ComponentDrill
T2C1.800
; #@! TA.AperFunction,NonPlated,NPTH,ComponentDrill
T3C2.000
; #@! TA.AperFunction,NonPlated,NPTH,ComponentDrill
T4C3.000
; #@! TA.AperFunction,NonPlated,NPTH,ComponentDrill
T5C3.050
; #@! TA.AperFunction,NonPlated,NPTH,ComponentDrill
T6C4.000
%
G90
G05
T1
X211.887Y-121.905
X216.737Y-121.905
T2
X211.587Y-118.875
X217.037Y-118.875
X350.608Y-158.595
X351.139Y-168.741
T3
X74.933Y-173.039
X75.93Y-154.015
X76.927Y-134.991
X85.079Y-173.571
X86.076Y-154.547
X87.073Y-135.523
X94.939Y-171.184
X95.936Y-152.16
X96.933Y-133.136
X105.086Y-171.716
X106.083Y-152.692
X107.08Y-133.668
X115.801Y-162.892
X117.461Y-143.915
X119.121Y-124.937
X125.922Y-163.778
X127.582Y-144.8
X129.243Y-125.823
X134.778Y-164.553
X136.439Y-145.575
X138.099Y-126.598
X144.9Y-165.438
X146.56Y-146.461
X148.22Y-127.483
X152.095Y-185.191
X153.756Y-166.213
X155.416Y-147.235
X157.076Y-128.258
X162.217Y-186.076
X163.877Y-167.098
X165.537Y-148.121
X167.198Y-129.143
X171.073Y-186.851
X172.733Y-167.873
X174.394Y-148.896
X176.054Y-129.918
X181.194Y-187.736
X182.855Y-168.759
X184.515Y-149.781
X186.175Y-130.804
X190.05Y-188.511
X200.172Y-189.397
X228.453Y-189.397
X238.575Y-188.511
X242.45Y-130.804
X244.11Y-149.781
X245.77Y-168.759
X247.431Y-187.736
X252.571Y-129.918
X254.231Y-148.896
X255.892Y-167.873
X257.552Y-186.851
X261.427Y-129.143
X263.088Y-148.121
X264.748Y-167.098
X266.408Y-186.076
X271.549Y-128.258
X273.209Y-147.235
X274.869Y-166.213
X276.53Y-185.191
X280.405Y-127.483
X282.065Y-146.461
X283.725Y-165.438
X290.526Y-126.598
X292.186Y-145.575
X293.847Y-164.553
X299.382Y-125.823
X301.043Y-144.8
X302.703Y-163.778
X309.504Y-124.937
X311.164Y-143.915
X312.824Y-162.892
X321.545Y-133.731
X322.542Y-152.755
X323.539Y-171.779
X331.692Y-133.199
X332.689Y-152.223
X333.686Y-171.247
X341.927Y-135.523
X352.073Y-134.991
T4
X76.334Y-170.569
X77.331Y-151.545
X78.328Y-132.521
X82.808Y-168.365
X83.805Y-149.341
X84.802Y-130.317
X96.341Y-168.714
X97.338Y-149.69
X98.335Y-130.666
X102.815Y-166.51
X103.812Y-147.486
X104.809Y-128.462
X117.287Y-160.473
X118.948Y-141.495
X120.608Y-122.518
X123.834Y-158.496
X125.495Y-139.518
X127.155Y-120.541
X136.265Y-162.133
X137.925Y-143.156
X139.585Y-124.178
X142.812Y-160.156
X144.472Y-141.179
X146.133Y-122.201
X153.582Y-182.771
X155.242Y-163.793
X156.903Y-144.816
X158.563Y-125.838
X160.129Y-180.794
X161.789Y-161.816
X163.45Y-142.839
X165.11Y-123.861
X172.559Y-184.431
X174.22Y-165.454
X175.88Y-146.476
X177.54Y-127.499
X179.107Y-182.454
X180.767Y-163.477
X182.427Y-144.499
X184.088Y-125.522
X191.537Y-186.091
X198.084Y-184.115
X229.497Y-186.756
X235.601Y-183.672
X243.494Y-128.163
X245.154Y-147.14
X246.814Y-166.118
X248.475Y-185.095
X249.598Y-125.079
X251.258Y-144.057
X252.919Y-163.034
X254.579Y-182.012
X262.471Y-126.502
X264.131Y-145.48
X265.792Y-164.457
X267.452Y-183.435
X268.576Y-123.419
X270.236Y-142.396
X271.896Y-161.374
X273.556Y-180.351
X281.449Y-124.842
X283.109Y-143.82
X284.769Y-162.797
X287.553Y-121.758
X289.213Y-140.736
X290.874Y-159.713
X300.426Y-123.182
X302.086Y-142.159
X303.747Y-161.137
X306.531Y-120.098
X308.191Y-139.076
X309.851Y-158.053
X322.681Y-131.128
X323.678Y-150.152
X324.675Y-169.176
X328.889Y-128.259
X329.886Y-147.283
X330.883Y-166.307
X343.062Y-132.92
X349.271Y-130.051
X353.211Y-159.731
X356.079Y-165.939
T5
X357.241Y-151.418
X358.487Y-175.186
T6
X80.006Y-173.305
X81.003Y-154.281
X82.0Y-135.257
X100.012Y-171.45
X101.01Y-152.426
X102.006Y-133.402
X120.861Y-163.335
X122.522Y-144.358
X124.182Y-125.38
X139.839Y-164.995
X141.499Y-146.018
X143.16Y-127.04
X157.156Y-185.633
X158.816Y-166.656
X160.477Y-147.678
X162.137Y-128.701
X176.134Y-187.294
X177.794Y-168.316
X179.454Y-149.339
X181.115Y-130.361
X195.111Y-188.954
X233.514Y-188.954
X247.51Y-130.361
X249.171Y-149.339
X250.831Y-168.316
X252.491Y-187.294
X266.488Y-128.701
X268.148Y-147.678
X269.809Y-166.656
X271.469Y-185.633
X285.465Y-127.04
X287.126Y-146.018
X288.786Y-164.995
X304.443Y-125.38
X306.103Y-144.358
X307.764Y-163.335
X326.619Y-133.465
X327.615Y-152.489
X328.613Y-171.513
X342.022Y-152.216
X343.268Y-175.983
X347.0Y-135.257
X350.873Y-163.668
M30
