G04 #@! TF.GenerationSoftware,KiCad,Pcbnew,8.0.3*
G04 #@! TF.CreationDate,2024-08-04T13:44:25+09:00*
G04 #@! TF.ProjectId,first_keyboard,66697273-745f-46b6-9579-626f6172642e,rev?*
G04 #@! TF.SameCoordinates,Original*
G04 #@! TF.FileFunction,Profile,NP*
%FSLAX46Y46*%
G04 Gerber Fmt 4.6, Leading zero omitted, Abs format (unit mm)*
G04 Created by KiCad (PCBNEW 8.0.3) date 2024-08-04 13:44:25*
%MOMM*%
%LPD*%
G01*
G04 APERTURE LIST*
G04 #@! TA.AperFunction,Profile*
%ADD10C,0.100000*%
G04 #@! TD*
G04 APERTURE END LIST*
D10*
X92868750Y-121443750D02*
X90487500Y-123350943D01*
X285750000Y-195262500D02*
X359568750Y-185263443D01*
X142875000Y-195262500D02*
X69056250Y-185263443D01*
X90487500Y-123350943D02*
X71437500Y-123350943D01*
X314325000Y-114300000D02*
X316706250Y-121443750D01*
X69056250Y-125732193D02*
X66675000Y-182882193D01*
X359568750Y-125732193D02*
X361950000Y-182882193D01*
X192881250Y-119062500D02*
X202406250Y-116681250D01*
X119062500Y-111918750D02*
X192881250Y-119062500D01*
X119062500Y-111918750D02*
X114300000Y-114300000D01*
X357187500Y-123350943D02*
X359568750Y-125732193D01*
X207168750Y-202406250D02*
X221456250Y-202406250D01*
X66675000Y-182882193D02*
X69056250Y-185263443D01*
X316706250Y-121443750D02*
X335756250Y-121443750D01*
X202406250Y-116681250D02*
X226218750Y-116681250D01*
X309562500Y-111918750D02*
X235743750Y-119062500D01*
X335756250Y-121443750D02*
X338137500Y-123350943D01*
X361950000Y-182882193D02*
X359568750Y-185263443D01*
X142875000Y-195262500D02*
X207168750Y-202406250D01*
X111918750Y-121443750D02*
X92868750Y-121443750D01*
X309562500Y-111918750D02*
X314325000Y-114300000D01*
X114300000Y-114300000D02*
X111918750Y-121443750D01*
X285750000Y-195262500D02*
X221456250Y-202406250D01*
X71437500Y-123350943D02*
X69056250Y-125732193D01*
X235743750Y-119062500D02*
X226218750Y-116681250D01*
X338137500Y-123350943D02*
X357187500Y-123350943D01*
M02*
