G04 #@! TF.GenerationSoftware,KiCad,Pcbnew,8.0.3*
G04 #@! TF.CreationDate,2024-08-04T13:44:25+09:00*
G04 #@! TF.ProjectId,first_keyboard,66697273-745f-46b6-9579-626f6172642e,rev?*
G04 #@! TF.SameCoordinates,Original*
G04 #@! TF.FileFunction,Soldermask,Top*
G04 #@! TF.FilePolarity,Negative*
%FSLAX46Y46*%
G04 Gerber Fmt 4.6, Leading zero omitted, Abs format (unit mm)*
G04 Created by KiCad (PCBNEW 8.0.3) date 2024-08-04 13:44:25*
%MOMM*%
%LPD*%
G01*
G04 APERTURE LIST*
G04 Aperture macros list*
%AMRotRect*
0 Rectangle, with rotation*
0 The origin of the aperture is its center*
0 $1 length*
0 $2 width*
0 $3 Rotation angle, in degrees counterclockwise*
0 Add horizontal line*
21,1,$1,$2,0,0,$3*%
G04 Aperture macros list end*
%ADD10RotRect,1.397000X1.397000X185.000000*%
%ADD11C,1.397000*%
%ADD12RotRect,1.397000X1.397000X183.000000*%
%ADD13RotRect,1.397000X1.397000X177.000000*%
%ADD14RotRect,1.397000X1.397000X175.000000*%
%ADD15C,2.000000*%
%ADD16C,3.000000*%
%ADD17C,4.000000*%
%ADD18C,3.050000*%
%ADD19C,1.800000*%
%ADD20O,1.800000X1.800000*%
%ADD21O,1.500000X1.500000*%
%ADD22O,1.700000X1.700000*%
%ADD23R,3.500000X1.700000*%
%ADD24R,1.700000X1.700000*%
%ADD25R,1.700000X3.500000*%
G04 APERTURE END LIST*
D10*
X255456745Y-177472751D03*
D11*
X247865741Y-178136881D03*
D12*
X351303278Y-144569738D03*
D11*
X343693722Y-144968542D03*
D10*
X271113621Y-137857416D03*
D11*
X263522617Y-138521546D03*
D13*
X103318780Y-181161302D03*
D11*
X95709224Y-180762498D03*
D10*
X312389272Y-172491800D03*
D11*
X304798268Y-173155930D03*
D14*
X160121436Y-195454073D03*
D11*
X152530432Y-194789943D03*
D15*
X138098864Y-126597656D03*
D16*
X139585407Y-124178010D03*
D17*
X143159533Y-127040407D03*
D16*
X146132619Y-122201114D03*
D15*
X148220202Y-127483158D03*
X119121355Y-124937340D03*
D16*
X120607898Y-122517694D03*
D17*
X124182024Y-125380091D03*
D16*
X127155110Y-120540798D03*
D15*
X129242693Y-125822842D03*
D10*
X291751447Y-155174608D03*
D11*
X284160443Y-155838738D03*
D15*
X228453222Y-189396636D03*
D16*
X229497014Y-186755614D03*
D17*
X233513891Y-188953885D03*
D16*
X235601477Y-183671840D03*
D15*
X238574560Y-188511134D03*
D10*
X274434254Y-175812434D03*
D11*
X266843250Y-176476564D03*
D13*
X85306277Y-144968541D03*
D11*
X77696721Y-144569737D03*
D14*
X123826735Y-173155930D03*
D11*
X116235731Y-172491800D03*
D15*
X245770414Y-168758810D03*
D16*
X246814206Y-166117788D03*
D17*
X250831083Y-168316059D03*
D16*
X252918669Y-163034014D03*
D15*
X255891752Y-167873308D03*
D14*
X180759262Y-178136881D03*
D11*
X173168258Y-177472751D03*
D12*
X330921779Y-142777540D03*
D11*
X323312223Y-143176344D03*
D10*
X252136112Y-139517733D03*
D11*
X244545108Y-140181863D03*
D15*
X341926961Y-135523060D03*
D16*
X343062288Y-132920075D03*
D17*
X347000000Y-135257193D03*
D16*
X349270653Y-130051222D03*
D15*
X352073039Y-134991326D03*
D12*
X331918779Y-161801432D03*
D11*
X324309223Y-162200236D03*
D14*
X184079895Y-140181863D03*
D11*
X176488891Y-139517733D03*
D15*
X75929960Y-154015220D03*
D16*
X77331153Y-151545171D03*
D17*
X81002999Y-154281088D03*
D16*
X83805385Y-149340983D03*
D15*
X86076038Y-154546956D03*
D13*
X84309277Y-163992433D03*
D11*
X76699721Y-163593629D03*
D15*
X155416056Y-147235483D03*
D16*
X156902599Y-144815837D03*
D17*
X160476725Y-147678234D03*
D16*
X163449811Y-142838941D03*
D15*
X165537394Y-148120985D03*
D14*
X144464560Y-155838738D03*
D11*
X136873556Y-155174608D03*
D13*
X105312780Y-143113516D03*
D11*
X97703224Y-142714712D03*
D15*
X95936464Y-152160194D03*
D16*
X97337657Y-149690143D03*
D17*
X101009502Y-152426061D03*
D16*
X103811888Y-147485956D03*
D15*
X106082540Y-152691928D03*
X247430732Y-187736320D03*
D16*
X248474524Y-185095298D03*
D17*
X252491401Y-187293569D03*
D16*
X254578987Y-182011524D03*
D15*
X257552070Y-186850818D03*
D14*
X142804244Y-174816247D03*
D11*
X135213240Y-174152117D03*
D10*
X293411763Y-174152117D03*
D11*
X285820759Y-174816247D03*
D15*
X323539462Y-171778646D03*
D16*
X324674788Y-169175660D03*
D17*
X328612500Y-171512779D03*
D16*
X330883155Y-166306807D03*
D15*
X333685538Y-171246912D03*
X261427289Y-129143477D03*
D16*
X262471081Y-126502455D03*
D17*
X266487958Y-128700726D03*
D16*
X268575544Y-123418681D03*
D15*
X271548627Y-128257975D03*
X280404799Y-127483159D03*
D16*
X281448591Y-124842137D03*
D17*
X285465468Y-127040408D03*
D16*
X287553054Y-121758363D03*
D15*
X290526137Y-126597657D03*
X134778231Y-164552675D03*
D16*
X136264774Y-162133029D03*
D17*
X139838900Y-164995426D03*
D16*
X142811986Y-160156133D03*
D15*
X144899569Y-165438177D03*
D13*
X104315780Y-162137409D03*
D11*
X96706224Y-161738605D03*
D14*
X198076454Y-198774707D03*
D11*
X190485450Y-198110577D03*
D12*
X353297276Y-182617522D03*
D11*
X345687720Y-183016326D03*
D10*
X257117062Y-196450260D03*
D11*
X249526058Y-197114390D03*
D15*
X299382308Y-125822842D03*
D16*
X300426100Y-123181820D03*
D17*
X304442977Y-125380091D03*
D16*
X306530563Y-120098046D03*
D15*
X309503646Y-124937340D03*
X136438547Y-145575167D03*
D16*
X137925090Y-143155521D03*
D17*
X141499216Y-146017918D03*
D16*
X144472302Y-141178625D03*
D15*
X146559885Y-146460669D03*
D18*
X357241097Y-151418364D03*
D17*
X342021982Y-152215964D03*
D19*
X350607620Y-158595368D03*
D16*
X353210605Y-159730695D03*
D17*
X350873487Y-163668407D03*
D16*
X356079458Y-165939060D03*
D19*
X351139354Y-168741446D03*
D17*
X343267577Y-175983346D03*
D18*
X358486692Y-175185747D03*
D10*
X309068639Y-134536782D03*
D11*
X301477635Y-135200912D03*
D15*
X190050440Y-188511136D03*
D16*
X191536983Y-186091490D03*
D17*
X195111109Y-188953887D03*
D16*
X198084195Y-184114594D03*
D15*
X200171778Y-189396638D03*
D10*
X290091130Y-136197099D03*
D11*
X282500126Y-136861229D03*
D15*
X242449780Y-130803793D03*
D16*
X243493572Y-128162771D03*
D17*
X247510449Y-130361042D03*
D16*
X249598035Y-125078997D03*
D15*
X252571118Y-129918291D03*
D10*
X253796429Y-158495242D03*
D11*
X246205425Y-159159372D03*
D14*
X161781753Y-176476564D03*
D11*
X154190749Y-175812434D03*
D15*
X302702941Y-163777860D03*
D16*
X303746733Y-161136838D03*
D17*
X307763610Y-163335109D03*
D16*
X309851196Y-158053064D03*
D15*
X312824279Y-162892358D03*
X322542461Y-152754755D03*
D16*
X323677787Y-150151769D03*
D17*
X327615499Y-152488888D03*
D16*
X329886154Y-147282916D03*
D15*
X332688537Y-152223021D03*
D10*
X310728956Y-153514291D03*
D11*
X303137952Y-154178421D03*
D10*
X238139553Y-198110577D03*
D11*
X230548549Y-198774707D03*
D15*
X74932959Y-173039112D03*
D16*
X76334152Y-170569063D03*
D17*
X80005998Y-173304980D03*
D16*
X82808384Y-168364875D03*
D15*
X85079037Y-173570848D03*
D14*
X146124877Y-136861229D03*
D11*
X138533873Y-136197099D03*
D15*
X263087607Y-148120984D03*
D16*
X264131399Y-145479962D03*
D17*
X268148276Y-147678233D03*
D16*
X270235862Y-142396188D03*
D15*
X273208945Y-147235482D03*
D12*
X332915779Y-180825325D03*
D11*
X325306223Y-181224129D03*
D15*
X96933462Y-133136301D03*
D16*
X98334655Y-130666250D03*
D17*
X102006500Y-133402168D03*
D16*
X104808886Y-128462063D03*
D15*
X107079538Y-133668035D03*
X283725434Y-165438177D03*
D16*
X284769226Y-162797155D03*
D17*
X288786103Y-164995426D03*
D16*
X290873689Y-159713381D03*
D15*
X293846772Y-164552675D03*
X282065115Y-146460670D03*
D16*
X283108907Y-143819648D03*
D17*
X287125784Y-146017919D03*
D16*
X289213370Y-140735874D03*
D15*
X292186453Y-145575168D03*
D14*
X163442069Y-157499055D03*
D11*
X155851065Y-156834925D03*
D15*
X264747926Y-167098494D03*
D16*
X265791718Y-164457472D03*
D17*
X269808595Y-166655743D03*
D16*
X271896181Y-161373698D03*
D15*
X274869264Y-166212992D03*
X176053882Y-129918291D03*
D16*
X177540425Y-127498645D03*
D17*
X181114551Y-130361042D03*
D16*
X184087637Y-125521749D03*
D15*
X186175220Y-130803793D03*
X321545463Y-133730862D03*
D16*
X322680789Y-131127876D03*
D17*
X326618501Y-133464995D03*
D16*
X328889156Y-128259023D03*
D15*
X331691539Y-133199128D03*
D14*
X182419578Y-159159372D03*
D11*
X174828574Y-158495242D03*
D13*
X83312277Y-183016327D03*
D11*
X75702721Y-182617523D03*
D14*
X125487051Y-154178421D03*
D11*
X117896047Y-153514291D03*
D15*
X153755738Y-166212990D03*
D16*
X155242281Y-163793344D03*
D17*
X158816407Y-166655741D03*
D16*
X161789493Y-161816448D03*
D15*
X163877076Y-167098492D03*
X266408242Y-186076003D03*
D16*
X267452034Y-183434981D03*
D17*
X271468911Y-185633252D03*
D16*
X273556497Y-180351207D03*
D15*
X276529580Y-185190501D03*
X76926961Y-134991325D03*
D16*
X78328154Y-132521276D03*
D17*
X82000000Y-135257193D03*
D16*
X84802386Y-130317088D03*
D15*
X87073039Y-135523061D03*
X117461039Y-143914849D03*
D16*
X118947582Y-141495203D03*
D17*
X122521708Y-144357600D03*
D16*
X125494794Y-139518307D03*
D15*
X127582377Y-144800351D03*
X301042625Y-144800351D03*
D16*
X302086417Y-142159329D03*
D17*
X306103294Y-144357600D03*
D16*
X308190880Y-139075555D03*
D15*
X311163963Y-143914849D03*
X244110097Y-149781300D03*
D16*
X245153889Y-147140278D03*
D17*
X249170766Y-149338549D03*
D16*
X251258352Y-144056504D03*
D15*
X254231435Y-148895798D03*
X172733248Y-167873308D03*
D16*
X174219791Y-165453662D03*
D17*
X177793917Y-168316059D03*
D16*
X180767003Y-163476766D03*
D15*
X182854586Y-168758810D03*
D14*
X127147368Y-135200912D03*
D11*
X119556364Y-134536782D03*
D14*
X165102386Y-138521546D03*
D11*
X157511382Y-137857416D03*
D15*
X94939462Y-171184083D03*
D16*
X96340655Y-168714032D03*
D17*
X100012500Y-171449950D03*
D16*
X102814886Y-166509845D03*
D15*
X105085538Y-171715817D03*
X152095423Y-185190501D03*
D16*
X153581966Y-182770855D03*
D17*
X157156092Y-185633252D03*
D16*
X160129178Y-180793959D03*
D15*
X162216761Y-186076003D03*
X157076374Y-128257974D03*
D16*
X158562917Y-125838328D03*
D17*
X162137043Y-128700725D03*
D16*
X165110129Y-123861432D03*
D15*
X167197712Y-129143476D03*
D10*
X272773938Y-156834925D03*
D11*
X265182934Y-157499055D03*
D14*
X179098945Y-197114390D03*
D11*
X171507941Y-196450260D03*
D15*
X174393566Y-148895801D03*
D16*
X175880109Y-146476155D03*
D17*
X179454235Y-149338552D03*
D16*
X182427321Y-144499259D03*
D15*
X184514904Y-149781303D03*
D10*
X276094571Y-194789943D03*
D11*
X268503567Y-195454073D03*
D15*
X115800722Y-162892358D03*
D16*
X117287265Y-160472712D03*
D17*
X120861391Y-163335109D03*
D16*
X123834477Y-158495816D03*
D15*
X125922060Y-163777860D03*
X171072932Y-186850817D03*
D16*
X172559475Y-184431171D03*
D17*
X176133601Y-187293568D03*
D16*
X179106687Y-182454275D03*
D15*
X181194270Y-187736319D03*
D20*
X211587500Y-118875000D03*
D21*
X211887500Y-121905000D03*
X216737500Y-121905000D03*
D20*
X217037500Y-118875000D03*
D22*
X205422500Y-118745000D03*
D23*
X204522500Y-118745000D03*
D22*
X205422500Y-121285000D03*
D23*
X204522500Y-121285000D03*
D24*
X205422500Y-123825000D03*
D23*
X204522500Y-123825000D03*
D22*
X205422500Y-126365000D03*
D23*
X204522500Y-126365000D03*
D22*
X205422500Y-128905000D03*
D23*
X204522500Y-128905000D03*
D22*
X205422500Y-131445000D03*
D23*
X204522500Y-131445000D03*
D22*
X205422500Y-133985000D03*
D23*
X204522500Y-133985000D03*
D24*
X205422500Y-136525000D03*
D23*
X204522500Y-136525000D03*
D22*
X205422500Y-139065000D03*
D23*
X204522500Y-139065000D03*
D22*
X205422500Y-141605000D03*
D23*
X204522500Y-141605000D03*
D22*
X205422500Y-144145000D03*
D23*
X204522500Y-144145000D03*
D22*
X205422500Y-146685000D03*
D23*
X204522500Y-146685000D03*
D24*
X205422500Y-149225000D03*
D23*
X204522500Y-149225000D03*
D22*
X205422500Y-151765000D03*
D23*
X204522500Y-151765000D03*
D22*
X205422500Y-154305000D03*
D23*
X204522500Y-154305000D03*
D22*
X205422500Y-156845000D03*
D23*
X204522500Y-156845000D03*
D22*
X205422500Y-159385000D03*
D23*
X204522500Y-159385000D03*
D24*
X205422500Y-161925000D03*
D23*
X204522500Y-161925000D03*
D22*
X205422500Y-164465000D03*
D23*
X204522500Y-164465000D03*
D22*
X205422500Y-167005000D03*
D23*
X204522500Y-167005000D03*
D22*
X223202500Y-167005000D03*
D23*
X224102500Y-167005000D03*
D22*
X223202500Y-164465000D03*
D23*
X224102500Y-164465000D03*
D24*
X223202500Y-161925000D03*
D23*
X224102500Y-161925000D03*
D22*
X223202500Y-159385000D03*
D23*
X224102500Y-159385000D03*
D22*
X223202500Y-156845000D03*
D23*
X224102500Y-156845000D03*
D22*
X223202500Y-154305000D03*
D23*
X224102500Y-154305000D03*
D22*
X223202500Y-151765000D03*
D23*
X224102500Y-151765000D03*
D24*
X223202500Y-149225000D03*
D23*
X224102500Y-149225000D03*
D22*
X223202500Y-146685000D03*
D23*
X224102500Y-146685000D03*
D22*
X223202500Y-144145000D03*
D23*
X224102500Y-144145000D03*
D22*
X223202500Y-141605000D03*
D23*
X224102500Y-141605000D03*
D22*
X223202500Y-139065000D03*
D23*
X224102500Y-139065000D03*
D24*
X223202500Y-136525000D03*
D23*
X224102500Y-136525000D03*
D22*
X223202500Y-133985000D03*
D23*
X224102500Y-133985000D03*
D22*
X223202500Y-131445000D03*
D23*
X224102500Y-131445000D03*
D22*
X223202500Y-128905000D03*
D23*
X224102500Y-128905000D03*
D22*
X223202500Y-126365000D03*
D23*
X224102500Y-126365000D03*
D24*
X223202500Y-123825000D03*
D23*
X224102500Y-123825000D03*
D22*
X223202500Y-121285000D03*
D23*
X224102500Y-121285000D03*
D22*
X223202500Y-118745000D03*
D23*
X224102500Y-118745000D03*
D22*
X211772500Y-166775000D03*
D25*
X211772500Y-167675000D03*
D24*
X214312500Y-166775000D03*
D25*
X214312500Y-167675000D03*
D22*
X216852500Y-166775000D03*
D25*
X216852500Y-167675000D03*
M02*
