M48
; DRILL file {KiCad 8.0.3} date 2024-08-04T13:44:54+0900
; FORMAT={-:-/ absolute / metric / decimal}
; #@! TF.CreationDate,2024-08-04T13:44:54+09:00
; #@! TF.GenerationSoftware,Kicad,Pcbnew,8.0.3
; #@! TF.FileFunction,Plated,1,2,PTH
FMAT,2
METRIC
; #@! TA.AperFunction,Plated,PTH,ViaDrill
T1C0.400
; #@! TA.AperFunction,Plated,PTH,ComponentDrill
T2C0.813
; #@! TA.AperFunction,Plated,PTH,ComponentDrill
T3C1.020
%
G90
G05
T1
X100.012Y-145.256
X116.681Y-135.731
X116.681Y-147.637
X126.337Y-146.965
X133.94Y-147.637
X135.863Y-166.556
X138.112Y-171.45
X142.875Y-171.45
X145.315Y-147.637
X146.424Y-166.07
X152.918Y-150.019
X157.162Y-173.831
X161.925Y-166.688
X161.925Y-178.594
X164.306Y-150.019
X164.306Y-169.069
X164.306Y-171.45
X171.45Y-192.881
X171.895Y-150.019
X176.213Y-176.213
X180.975Y-169.069
X181.115Y-173.971
X184.258Y-169.626
X188.119Y-142.875
X188.119Y-159.544
X190.5Y-147.637
X192.881Y-130.969
X192.881Y-150.019
X195.262Y-142.875
X195.262Y-176.213
X200.025Y-164.306
X200.025Y-166.688
X202.406Y-178.594
X207.169Y-176.213
X219.075Y-171.45
X228.6Y-154.781
X228.6Y-166.688
X230.981Y-142.875
X235.744Y-128.588
X235.744Y-138.112
X235.744Y-173.831
X238.125Y-164.306
X240.506Y-171.45
X242.887Y-142.875
X245.269Y-171.45
X257.175Y-159.544
X273.844Y-133.35
X295.275Y-150.019
X316.706Y-138.112
T2
X75.703Y-182.618
X76.7Y-163.594
X77.697Y-144.57
X83.312Y-183.016
X84.309Y-163.992
X85.306Y-144.969
X95.709Y-180.762
X96.706Y-161.739
X97.703Y-142.715
X103.319Y-181.161
X104.316Y-162.137
X105.313Y-143.114
X116.236Y-172.492
X117.896Y-153.514
X119.556Y-134.537
X123.827Y-173.156
X125.487Y-154.178
X127.147Y-135.201
X135.213Y-174.152
X136.874Y-155.175
X138.534Y-136.197
X142.804Y-174.816
X144.465Y-155.839
X146.125Y-136.861
X152.53Y-194.79
X154.191Y-175.812
X155.851Y-156.835
X157.511Y-137.857
X160.121Y-195.454
X161.782Y-176.477
X163.442Y-157.499
X165.102Y-138.522
X171.508Y-196.45
X173.168Y-177.473
X174.829Y-158.495
X176.489Y-139.518
X179.099Y-197.114
X180.759Y-178.137
X182.42Y-159.159
X184.08Y-140.182
X190.485Y-198.111
X198.076Y-198.775
X230.549Y-198.775
X238.14Y-198.111
X244.545Y-140.182
X246.205Y-159.159
X247.866Y-178.137
X249.526Y-197.114
X252.136Y-139.518
X253.796Y-158.495
X255.457Y-177.473
X257.117Y-196.45
X263.523Y-138.522
X265.183Y-157.499
X266.843Y-176.477
X268.504Y-195.454
X271.114Y-137.857
X272.774Y-156.835
X274.434Y-175.812
X276.095Y-194.79
X282.5Y-136.861
X284.16Y-155.839
X285.821Y-174.816
X290.091Y-136.197
X291.751Y-155.175
X293.412Y-174.152
X301.478Y-135.201
X303.138Y-154.178
X304.798Y-173.156
X309.069Y-134.537
X310.729Y-153.514
X312.389Y-172.492
X323.312Y-143.176
X324.309Y-162.2
X325.306Y-181.224
X330.922Y-142.778
X331.919Y-161.801
X332.916Y-180.825
X343.694Y-144.969
X345.688Y-183.016
X351.303Y-144.57
X353.297Y-182.618
T3
X205.422Y-118.745
X205.422Y-121.285
X205.422Y-123.825
X205.422Y-126.365
X205.422Y-128.905
X205.422Y-131.445
X205.422Y-133.985
X205.422Y-136.525
X205.422Y-139.065
X205.422Y-141.605
X205.422Y-144.145
X205.422Y-146.685
X205.422Y-149.225
X205.422Y-151.765
X205.422Y-154.305
X205.422Y-156.845
X205.422Y-159.385
X205.422Y-161.925
X205.422Y-164.465
X205.422Y-167.005
X211.772Y-166.775
X214.312Y-166.775
X216.852Y-166.775
X223.202Y-118.745
X223.202Y-121.285
X223.202Y-123.825
X223.202Y-126.365
X223.202Y-128.905
X223.202Y-131.445
X223.202Y-133.985
X223.202Y-136.525
X223.202Y-139.065
X223.202Y-141.605
X223.202Y-144.145
X223.202Y-146.685
X223.202Y-149.225
X223.202Y-151.765
X223.202Y-154.305
X223.202Y-156.845
X223.202Y-159.385
X223.202Y-161.925
X223.202Y-164.465
X223.202Y-167.005
M30
