G04 #@! TF.GenerationSoftware,KiCad,Pcbnew,8.0.3*
G04 #@! TF.CreationDate,2024-08-04T13:44:25+09:00*
G04 #@! TF.ProjectId,first_keyboard,66697273-745f-46b6-9579-626f6172642e,rev?*
G04 #@! TF.SameCoordinates,Original*
G04 #@! TF.FileFunction,Legend,Top*
G04 #@! TF.FilePolarity,Positive*
%FSLAX46Y46*%
G04 Gerber Fmt 4.6, Leading zero omitted, Abs format (unit mm)*
G04 Created by KiCad (PCBNEW 8.0.3) date 2024-08-04 13:44:25*
%MOMM*%
%LPD*%
G01*
G04 APERTURE LIST*
G04 Aperture macros list*
%AMRotRect*
0 Rectangle, with rotation*
0 The origin of the aperture is its center*
0 $1 length*
0 $2 width*
0 $3 Rotation angle, in degrees counterclockwise*
0 Add horizontal line*
21,1,$1,$2,0,0,$3*%
G04 Aperture macros list end*
%ADD10C,0.150000*%
%ADD11C,0.120000*%
%ADD12RotRect,1.397000X1.397000X185.000000*%
%ADD13C,1.397000*%
%ADD14RotRect,1.397000X1.397000X183.000000*%
%ADD15RotRect,1.397000X1.397000X177.000000*%
%ADD16RotRect,1.397000X1.397000X175.000000*%
%ADD17C,2.000000*%
%ADD18C,4.000000*%
G04 APERTURE END LIST*
D10*
X213550595Y-144711069D02*
X213550595Y-145520592D01*
X213550595Y-145520592D02*
X213598214Y-145615830D01*
X213598214Y-145615830D02*
X213645833Y-145663450D01*
X213645833Y-145663450D02*
X213741071Y-145711069D01*
X213741071Y-145711069D02*
X213931547Y-145711069D01*
X213931547Y-145711069D02*
X214026785Y-145663450D01*
X214026785Y-145663450D02*
X214074404Y-145615830D01*
X214074404Y-145615830D02*
X214122023Y-145520592D01*
X214122023Y-145520592D02*
X214122023Y-144711069D01*
X215122023Y-145711069D02*
X214550595Y-145711069D01*
X214836309Y-145711069D02*
X214836309Y-144711069D01*
X214836309Y-144711069D02*
X214741071Y-144853926D01*
X214741071Y-144853926D02*
X214645833Y-144949164D01*
X214645833Y-144949164D02*
X214550595Y-144996783D01*
X219213507Y-119826335D02*
X219967754Y-120203459D01*
X219967754Y-120203459D02*
X219590630Y-119449212D01*
X220237128Y-119341462D02*
X220344877Y-119287588D01*
X220344877Y-119287588D02*
X220398752Y-119287588D01*
X220398752Y-119287588D02*
X220479564Y-119314525D01*
X220479564Y-119314525D02*
X220560377Y-119395337D01*
X220560377Y-119395337D02*
X220587314Y-119476149D01*
X220587314Y-119476149D02*
X220587314Y-119530024D01*
X220587314Y-119530024D02*
X220560377Y-119610836D01*
X220560377Y-119610836D02*
X220344877Y-119826336D01*
X220344877Y-119826336D02*
X219779192Y-119260650D01*
X219779192Y-119260650D02*
X219967754Y-119072088D01*
X219967754Y-119072088D02*
X220048566Y-119045151D01*
X220048566Y-119045151D02*
X220102441Y-119045151D01*
X220102441Y-119045151D02*
X220183253Y-119072088D01*
X220183253Y-119072088D02*
X220237128Y-119125963D01*
X220237128Y-119125963D02*
X220264065Y-119206775D01*
X220264065Y-119206775D02*
X220264065Y-119260650D01*
X220264065Y-119260650D02*
X220237128Y-119341462D01*
X220237128Y-119341462D02*
X220048566Y-119530024D01*
X220344877Y-118694965D02*
X220802813Y-119152901D01*
X220802813Y-119152901D02*
X220883625Y-119179838D01*
X220883625Y-119179838D02*
X220937500Y-119179838D01*
X220937500Y-119179838D02*
X221018312Y-119152901D01*
X221018312Y-119152901D02*
X221126062Y-119045151D01*
X221126062Y-119045151D02*
X221152999Y-118964339D01*
X221152999Y-118964339D02*
X221152999Y-118910464D01*
X221152999Y-118910464D02*
X221126062Y-118829652D01*
X221126062Y-118829652D02*
X220668126Y-118371716D01*
X221449311Y-118668027D02*
X221557060Y-118614153D01*
X221557060Y-118614153D02*
X221691747Y-118479466D01*
X221691747Y-118479466D02*
X221718685Y-118398653D01*
X221718685Y-118398653D02*
X221718685Y-118344779D01*
X221718685Y-118344779D02*
X221691747Y-118263966D01*
X221691747Y-118263966D02*
X221637872Y-118210092D01*
X221637872Y-118210092D02*
X221557060Y-118183154D01*
X221557060Y-118183154D02*
X221503185Y-118183154D01*
X221503185Y-118183154D02*
X221422373Y-118210092D01*
X221422373Y-118210092D02*
X221287686Y-118290904D01*
X221287686Y-118290904D02*
X221206874Y-118317841D01*
X221206874Y-118317841D02*
X221152999Y-118317841D01*
X221152999Y-118317841D02*
X221072187Y-118290904D01*
X221072187Y-118290904D02*
X221018312Y-118237029D01*
X221018312Y-118237029D02*
X220991375Y-118156217D01*
X220991375Y-118156217D02*
X220991375Y-118102342D01*
X220991375Y-118102342D02*
X221018312Y-118021530D01*
X221018312Y-118021530D02*
X221152999Y-117886843D01*
X221152999Y-117886843D02*
X221260749Y-117832968D01*
X207583473Y-119060244D02*
X207502661Y-119087181D01*
X207502661Y-119087181D02*
X207421849Y-119167993D01*
X207421849Y-119167993D02*
X207367974Y-119275743D01*
X207367974Y-119275743D02*
X207367974Y-119383492D01*
X207367974Y-119383492D02*
X207394911Y-119464305D01*
X207394911Y-119464305D02*
X207475724Y-119598992D01*
X207475724Y-119598992D02*
X207556536Y-119679804D01*
X207556536Y-119679804D02*
X207691223Y-119760616D01*
X207691223Y-119760616D02*
X207772035Y-119787553D01*
X207772035Y-119787553D02*
X207879785Y-119787553D01*
X207879785Y-119787553D02*
X207987534Y-119733679D01*
X207987534Y-119733679D02*
X208041409Y-119679804D01*
X208041409Y-119679804D02*
X208095284Y-119572054D01*
X208095284Y-119572054D02*
X208095284Y-119518179D01*
X208095284Y-119518179D02*
X207906722Y-119329618D01*
X207906722Y-119329618D02*
X207798972Y-119437367D01*
X208391595Y-119329618D02*
X207825910Y-118763932D01*
X207825910Y-118763932D02*
X208041409Y-118548433D01*
X208041409Y-118548433D02*
X208122221Y-118521496D01*
X208122221Y-118521496D02*
X208176096Y-118521496D01*
X208176096Y-118521496D02*
X208256908Y-118548433D01*
X208256908Y-118548433D02*
X208337720Y-118629245D01*
X208337720Y-118629245D02*
X208364658Y-118710057D01*
X208364658Y-118710057D02*
X208364658Y-118763932D01*
X208364658Y-118763932D02*
X208337720Y-118844744D01*
X208337720Y-118844744D02*
X208122221Y-119060244D01*
X208499345Y-118090497D02*
X208553220Y-118036622D01*
X208553220Y-118036622D02*
X208634032Y-118009685D01*
X208634032Y-118009685D02*
X208687907Y-118009685D01*
X208687907Y-118009685D02*
X208768719Y-118036622D01*
X208768719Y-118036622D02*
X208903406Y-118117435D01*
X208903406Y-118117435D02*
X209038093Y-118252122D01*
X209038093Y-118252122D02*
X209118905Y-118386809D01*
X209118905Y-118386809D02*
X209145842Y-118467621D01*
X209145842Y-118467621D02*
X209145842Y-118521496D01*
X209145842Y-118521496D02*
X209118905Y-118602308D01*
X209118905Y-118602308D02*
X209065030Y-118656183D01*
X209065030Y-118656183D02*
X208984218Y-118683120D01*
X208984218Y-118683120D02*
X208930343Y-118683120D01*
X208930343Y-118683120D02*
X208849531Y-118656183D01*
X208849531Y-118656183D02*
X208714844Y-118575370D01*
X208714844Y-118575370D02*
X208580157Y-118440683D01*
X208580157Y-118440683D02*
X208499345Y-118305996D01*
X208499345Y-118305996D02*
X208472407Y-118225184D01*
X208472407Y-118225184D02*
X208472407Y-118171309D01*
X208472407Y-118171309D02*
X208499345Y-118090497D01*
D11*
X203812500Y-117375000D02*
X203812500Y-117675000D01*
X203812500Y-117375000D02*
X224812500Y-117375000D01*
X203812500Y-119775000D02*
X203812500Y-120175000D01*
X203812500Y-120042000D02*
X206819500Y-120042000D01*
X203812500Y-122375000D02*
X203812500Y-122775000D01*
X203812500Y-124875000D02*
X203812500Y-125275000D01*
X203812500Y-127475000D02*
X203812500Y-127875000D01*
X203812500Y-129975000D02*
X203812500Y-130375000D01*
X203812500Y-132475000D02*
X203812500Y-132875000D01*
X203812500Y-135075000D02*
X203812500Y-135475000D01*
X203812500Y-137575000D02*
X203812500Y-137975000D01*
X203812500Y-140175000D02*
X203812500Y-140575000D01*
X203812500Y-142675000D02*
X203812500Y-143075000D01*
X203812500Y-145175000D02*
X203812500Y-145575000D01*
X203812500Y-147775000D02*
X203812500Y-148175000D01*
X203812500Y-150275000D02*
X203812500Y-150675000D01*
X203812500Y-152875000D02*
X203812500Y-153275000D01*
X203812500Y-155375000D02*
X203812500Y-155775000D01*
X203812500Y-157975000D02*
X203812500Y-158375000D01*
X203812500Y-160475000D02*
X203812500Y-160875000D01*
X203812500Y-162975000D02*
X203812500Y-163375000D01*
X203812500Y-165575000D02*
X203812500Y-165975000D01*
X206819500Y-120042000D02*
X206819500Y-117375000D01*
X210612500Y-168375000D02*
X203812500Y-168375000D01*
X212812500Y-168375000D02*
X213212500Y-168375000D01*
X215412500Y-168375000D02*
X215812500Y-168375000D01*
X224812500Y-117375000D02*
X224812500Y-117675000D01*
X224812500Y-119775000D02*
X224812500Y-120175000D01*
X224812500Y-122375000D02*
X224812500Y-122775000D01*
X224812500Y-124875000D02*
X224812500Y-125275000D01*
X224812500Y-127475000D02*
X224812500Y-127875000D01*
X224812500Y-129975000D02*
X224812500Y-130375000D01*
X224812500Y-132475000D02*
X224812500Y-132875000D01*
X224812500Y-135075000D02*
X224812500Y-135475000D01*
X224812500Y-137575000D02*
X224812500Y-137975000D01*
X224812500Y-140175000D02*
X224812500Y-140575000D01*
X224812500Y-142675000D02*
X224812500Y-143075000D01*
X224812500Y-145175000D02*
X224812500Y-145575000D01*
X224812500Y-147775000D02*
X224812500Y-148175000D01*
X224812500Y-150275000D02*
X224812500Y-150675000D01*
X224812500Y-152875000D02*
X224812500Y-153275000D01*
X224812500Y-155375000D02*
X224812500Y-155775000D01*
X224812500Y-157975000D02*
X224812500Y-158375000D01*
X224812500Y-160475000D02*
X224812500Y-160875000D01*
X224812500Y-162975000D02*
X224812500Y-163375000D01*
X224812500Y-165575000D02*
X224812500Y-165975000D01*
X224812500Y-168375000D02*
X218012500Y-168375000D01*
D12*
X255456745Y-177472751D03*
D13*
X247865741Y-178136881D03*
D14*
X351303278Y-144569738D03*
D13*
X343693722Y-144968542D03*
D12*
X271113621Y-137857416D03*
D13*
X263522617Y-138521546D03*
D15*
X103318780Y-181161302D03*
D13*
X95709224Y-180762498D03*
D12*
X312389272Y-172491800D03*
D13*
X304798268Y-173155930D03*
D16*
X160121436Y-195454073D03*
D13*
X152530432Y-194789943D03*
D17*
X138098864Y-126597656D03*
D18*
X143159533Y-127040407D03*
D17*
X148220202Y-127483158D03*
X119121355Y-124937340D03*
D18*
X124182024Y-125380091D03*
D17*
X129242693Y-125822842D03*
D12*
X291751447Y-155174608D03*
D13*
X284160443Y-155838738D03*
D17*
X228453222Y-189396636D03*
D18*
X233513891Y-188953885D03*
D17*
X238574560Y-188511134D03*
D12*
X274434254Y-175812434D03*
D13*
X266843250Y-176476564D03*
D15*
X85306277Y-144968541D03*
D13*
X77696721Y-144569737D03*
D16*
X123826735Y-173155930D03*
D13*
X116235731Y-172491800D03*
D17*
X245770414Y-168758810D03*
D18*
X250831083Y-168316059D03*
D17*
X255891752Y-167873308D03*
D16*
X180759262Y-178136881D03*
D13*
X173168258Y-177472751D03*
D14*
X330921779Y-142777540D03*
D13*
X323312223Y-143176344D03*
D12*
X252136112Y-139517733D03*
D13*
X244545108Y-140181863D03*
D17*
X341926961Y-135523060D03*
D18*
X347000000Y-135257193D03*
D17*
X352073039Y-134991326D03*
D14*
X331918779Y-161801432D03*
D13*
X324309223Y-162200236D03*
D16*
X184079895Y-140181863D03*
D13*
X176488891Y-139517733D03*
D17*
X75929960Y-154015220D03*
D18*
X81002999Y-154281088D03*
D17*
X86076038Y-154546956D03*
D15*
X84309277Y-163992433D03*
D13*
X76699721Y-163593629D03*
D17*
X155416056Y-147235483D03*
D18*
X160476725Y-147678234D03*
D17*
X165537394Y-148120985D03*
D16*
X144464560Y-155838738D03*
D13*
X136873556Y-155174608D03*
D15*
X105312780Y-143113516D03*
D13*
X97703224Y-142714712D03*
D17*
X95936464Y-152160194D03*
D18*
X101009502Y-152426061D03*
D17*
X106082540Y-152691928D03*
X247430732Y-187736320D03*
D18*
X252491401Y-187293569D03*
D17*
X257552070Y-186850818D03*
D16*
X142804244Y-174816247D03*
D13*
X135213240Y-174152117D03*
D12*
X293411763Y-174152117D03*
D13*
X285820759Y-174816247D03*
D17*
X323539462Y-171778646D03*
D18*
X328612500Y-171512779D03*
D17*
X333685538Y-171246912D03*
X261427289Y-129143477D03*
D18*
X266487958Y-128700726D03*
D17*
X271548627Y-128257975D03*
X280404799Y-127483159D03*
D18*
X285465468Y-127040408D03*
D17*
X290526137Y-126597657D03*
X134778231Y-164552675D03*
D18*
X139838900Y-164995426D03*
D17*
X144899569Y-165438177D03*
D15*
X104315780Y-162137409D03*
D13*
X96706224Y-161738605D03*
D16*
X198076454Y-198774707D03*
D13*
X190485450Y-198110577D03*
D14*
X353297276Y-182617522D03*
D13*
X345687720Y-183016326D03*
D12*
X257117062Y-196450260D03*
D13*
X249526058Y-197114390D03*
D17*
X299382308Y-125822842D03*
D18*
X304442977Y-125380091D03*
D17*
X309503646Y-124937340D03*
X136438547Y-145575167D03*
D18*
X141499216Y-146017918D03*
D17*
X146559885Y-146460669D03*
D12*
X309068639Y-134536782D03*
D13*
X301477635Y-135200912D03*
D17*
X190050440Y-188511136D03*
D18*
X195111109Y-188953887D03*
D17*
X200171778Y-189396638D03*
D12*
X290091130Y-136197099D03*
D13*
X282500126Y-136861229D03*
D17*
X242449780Y-130803793D03*
D18*
X247510449Y-130361042D03*
D17*
X252571118Y-129918291D03*
D12*
X253796429Y-158495242D03*
D13*
X246205425Y-159159372D03*
D16*
X161781753Y-176476564D03*
D13*
X154190749Y-175812434D03*
D17*
X302702941Y-163777860D03*
D18*
X307763610Y-163335109D03*
D17*
X312824279Y-162892358D03*
X322542461Y-152754755D03*
D18*
X327615499Y-152488888D03*
D17*
X332688537Y-152223021D03*
D12*
X310728956Y-153514291D03*
D13*
X303137952Y-154178421D03*
D12*
X238139553Y-198110577D03*
D13*
X230548549Y-198774707D03*
D17*
X74932959Y-173039112D03*
D18*
X80005998Y-173304980D03*
D17*
X85079037Y-173570848D03*
D16*
X146124877Y-136861229D03*
D13*
X138533873Y-136197099D03*
D17*
X263087607Y-148120984D03*
D18*
X268148276Y-147678233D03*
D17*
X273208945Y-147235482D03*
D14*
X332915779Y-180825325D03*
D13*
X325306223Y-181224129D03*
D17*
X96933462Y-133136301D03*
D18*
X102006500Y-133402168D03*
D17*
X107079538Y-133668035D03*
X283725434Y-165438177D03*
D18*
X288786103Y-164995426D03*
D17*
X293846772Y-164552675D03*
X282065115Y-146460670D03*
D18*
X287125784Y-146017919D03*
D17*
X292186453Y-145575168D03*
D16*
X163442069Y-157499055D03*
D13*
X155851065Y-156834925D03*
D17*
X264747926Y-167098494D03*
D18*
X269808595Y-166655743D03*
D17*
X274869264Y-166212992D03*
X176053882Y-129918291D03*
D18*
X181114551Y-130361042D03*
D17*
X186175220Y-130803793D03*
X321545463Y-133730862D03*
D18*
X326618501Y-133464995D03*
D17*
X331691539Y-133199128D03*
D16*
X182419578Y-159159372D03*
D13*
X174828574Y-158495242D03*
D15*
X83312277Y-183016327D03*
D13*
X75702721Y-182617523D03*
D16*
X125487051Y-154178421D03*
D13*
X117896047Y-153514291D03*
D17*
X153755738Y-166212990D03*
D18*
X158816407Y-166655741D03*
D17*
X163877076Y-167098492D03*
X266408242Y-186076003D03*
D18*
X271468911Y-185633252D03*
D17*
X276529580Y-185190501D03*
X76926961Y-134991325D03*
D18*
X82000000Y-135257193D03*
D17*
X87073039Y-135523061D03*
X117461039Y-143914849D03*
D18*
X122521708Y-144357600D03*
D17*
X127582377Y-144800351D03*
X301042625Y-144800351D03*
D18*
X306103294Y-144357600D03*
D17*
X311163963Y-143914849D03*
X244110097Y-149781300D03*
D18*
X249170766Y-149338549D03*
D17*
X254231435Y-148895798D03*
X172733248Y-167873308D03*
D18*
X177793917Y-168316059D03*
D17*
X182854586Y-168758810D03*
D16*
X127147368Y-135200912D03*
D13*
X119556364Y-134536782D03*
D16*
X165102386Y-138521546D03*
D13*
X157511382Y-137857416D03*
D17*
X94939462Y-171184083D03*
D18*
X100012500Y-171449950D03*
D17*
X105085538Y-171715817D03*
X152095423Y-185190501D03*
D18*
X157156092Y-185633252D03*
D17*
X162216761Y-186076003D03*
X157076374Y-128257974D03*
D18*
X162137043Y-128700725D03*
D17*
X167197712Y-129143476D03*
D12*
X272773938Y-156834925D03*
D13*
X265182934Y-157499055D03*
D16*
X179098945Y-197114390D03*
D13*
X171507941Y-196450260D03*
D17*
X174393566Y-148895801D03*
D18*
X179454235Y-149338552D03*
D17*
X184514904Y-149781303D03*
D12*
X276094571Y-194789943D03*
D13*
X268503567Y-195454073D03*
D17*
X115800722Y-162892358D03*
D18*
X120861391Y-163335109D03*
D17*
X125922060Y-163777860D03*
X171072932Y-186850817D03*
D18*
X176133601Y-187293568D03*
D17*
X181194270Y-187736319D03*
M02*
