G04 #@! TF.GenerationSoftware,KiCad,Pcbnew,8.0.4*
G04 #@! TF.CreationDate,2024-09-08T18:40:02+09:00*
G04 #@! TF.ProjectId,first_keyboard,66697273-745f-46b6-9579-626f6172642e,rev?*
G04 #@! TF.SameCoordinates,Original*
G04 #@! TF.FileFunction,Copper,L2,Bot*
G04 #@! TF.FilePolarity,Positive*
%FSLAX46Y46*%
G04 Gerber Fmt 4.6, Leading zero omitted, Abs format (unit mm)*
G04 Created by KiCad (PCBNEW 8.0.4) date 2024-09-08 18:40:02*
%MOMM*%
%LPD*%
G01*
G04 APERTURE LIST*
G04 #@! TA.AperFunction,SMDPad,CuDef*
%ADD10R,3.300000X3.000000*%
G04 #@! TD*
G04 #@! TA.AperFunction,SMDPad,CuDef*
%ADD11R,3.000000X3.300000*%
G04 #@! TD*
G04 #@! TA.AperFunction,ComponentPad*
%ADD12O,1.700000X1.700000*%
G04 #@! TD*
G04 #@! TA.AperFunction,ComponentPad*
%ADD13R,1.700000X1.700000*%
G04 #@! TD*
G04 #@! TA.AperFunction,ComponentPad*
%ADD14R,1.397000X1.397000*%
G04 #@! TD*
G04 #@! TA.AperFunction,ComponentPad*
%ADD15C,1.397000*%
G04 #@! TD*
G04 #@! TA.AperFunction,ViaPad*
%ADD16C,0.800000*%
G04 #@! TD*
G04 #@! TA.AperFunction,Conductor*
%ADD17C,0.500000*%
G04 #@! TD*
G04 #@! TA.AperFunction,Conductor*
%ADD18C,0.250000*%
G04 #@! TD*
G04 APERTURE END LIST*
D10*
X185431300Y-185538700D03*
X199031300Y-182998700D03*
X223531300Y-145057500D03*
X237131300Y-142517500D03*
X223531300Y-183157500D03*
X237131300Y-180617500D03*
X147331300Y-178395000D03*
X160931300Y-175855000D03*
X299731300Y-159345000D03*
X313331300Y-156805000D03*
X223531300Y-126007500D03*
X237131300Y-123467500D03*
X261631300Y-140295000D03*
X275231300Y-137755000D03*
X71131300Y-126007500D03*
X84731300Y-123467500D03*
X166381300Y-126007500D03*
X179981300Y-123467500D03*
X109231300Y-159345000D03*
X122831300Y-156805000D03*
X166381300Y-145057500D03*
X179981300Y-142517500D03*
X242581300Y-140295000D03*
X256181300Y-137755000D03*
X90181300Y-121245000D03*
X103781300Y-118705000D03*
X280681300Y-121245000D03*
X294281300Y-118705000D03*
X147331300Y-121245000D03*
X160931300Y-118705000D03*
X242581300Y-159345000D03*
X256181300Y-156805000D03*
D11*
X323691300Y-164562500D03*
X321151300Y-151062500D03*
D10*
X280681300Y-140295000D03*
X294281300Y-137755000D03*
X299731300Y-121245000D03*
X313331300Y-118705000D03*
X318781300Y-126007500D03*
X332381300Y-123467500D03*
X71131300Y-164107500D03*
X84731300Y-161567500D03*
X71131300Y-145057500D03*
X84731300Y-142517500D03*
X166381300Y-183157500D03*
X179981300Y-180617500D03*
X109231300Y-121245000D03*
X122831300Y-118705000D03*
X242581300Y-121245000D03*
X256181300Y-118705000D03*
X90181300Y-159345000D03*
X103781300Y-156805000D03*
X223531300Y-164107500D03*
X237131300Y-161567500D03*
X299731300Y-140295000D03*
X313331300Y-137755000D03*
X128281300Y-140295000D03*
X141881300Y-137755000D03*
X280681300Y-159345000D03*
X294281300Y-156805000D03*
X261631300Y-159345000D03*
X275231300Y-156805000D03*
X128281300Y-121245000D03*
X141881300Y-118705000D03*
X147331300Y-159345000D03*
X160931300Y-156805000D03*
X204481300Y-185538700D03*
X218081300Y-182998700D03*
X166381300Y-164107500D03*
X179981300Y-161567500D03*
X128281300Y-159345000D03*
X141881300Y-156805000D03*
X147331300Y-140295000D03*
X160931300Y-137755000D03*
D12*
X193516300Y-120332500D03*
X193516300Y-122872500D03*
D13*
X193516300Y-125412500D03*
D12*
X193516300Y-127952500D03*
X193516300Y-130492500D03*
X193516300Y-133032500D03*
X193516300Y-135572500D03*
D13*
X193516300Y-138112500D03*
D12*
X193516300Y-140652500D03*
X193516300Y-143192500D03*
X193516300Y-145732500D03*
X193516300Y-148272500D03*
D13*
X193516300Y-150812500D03*
D12*
X193516300Y-153352500D03*
X193516300Y-155892500D03*
X193516300Y-158432500D03*
X193516300Y-160972500D03*
D13*
X193516300Y-163512500D03*
D12*
X193516300Y-166052500D03*
X193516300Y-168592500D03*
X211296300Y-168592500D03*
X211296300Y-166052500D03*
D13*
X211296300Y-163512500D03*
D12*
X211296300Y-160972500D03*
X211296300Y-158432500D03*
X211296300Y-155892500D03*
X211296300Y-153352500D03*
D13*
X211296300Y-150812500D03*
D12*
X211296300Y-148272500D03*
X211296300Y-145732500D03*
X211296300Y-143192500D03*
X211296300Y-140652500D03*
D13*
X211296300Y-138112500D03*
D12*
X211296300Y-135572500D03*
X211296300Y-133032500D03*
X211296300Y-130492500D03*
X211296300Y-127952500D03*
D13*
X211296300Y-125412500D03*
D12*
X211296300Y-122872500D03*
X211296300Y-120332500D03*
X199866300Y-168362500D03*
D13*
X202406300Y-168362500D03*
D12*
X204946300Y-168362500D03*
D10*
X261631300Y-121245000D03*
X275231300Y-118705000D03*
X90181300Y-140295000D03*
X103781300Y-137755000D03*
X242581300Y-178395000D03*
X256181300Y-175855000D03*
X109231300Y-140295000D03*
X122831300Y-137755000D03*
D14*
X293846800Y-152400000D03*
D15*
X293846800Y-144780000D03*
D14*
X161925000Y-186560000D03*
D15*
X161925000Y-178940000D03*
D14*
X236696800Y-138112500D03*
D15*
X236696800Y-130492500D03*
D14*
X103346800Y-171450000D03*
D15*
X103346800Y-163830000D03*
D14*
X179546800Y-138112500D03*
D15*
X179546800Y-130492500D03*
D14*
X141446800Y-171450000D03*
D15*
X141446800Y-163830000D03*
D14*
X103346800Y-133350000D03*
D15*
X103346800Y-125730000D03*
D14*
X122396800Y-152400000D03*
D15*
X122396800Y-144780000D03*
D14*
X200025000Y-197643700D03*
D15*
X200025000Y-190023700D03*
D14*
X84296800Y-157162500D03*
D15*
X84296800Y-149542500D03*
D14*
X122396800Y-133350000D03*
D15*
X122396800Y-125730000D03*
D14*
X122396800Y-171450000D03*
D15*
X122396800Y-163830000D03*
D14*
X219075000Y-197643700D03*
D15*
X219075000Y-190023700D03*
D14*
X255746800Y-171450000D03*
D15*
X255746800Y-163830000D03*
D14*
X84296800Y-176212500D03*
D15*
X84296800Y-168592500D03*
D14*
X179546800Y-176212500D03*
D15*
X179546800Y-168592500D03*
D14*
X160496800Y-152400000D03*
D15*
X160496800Y-144780000D03*
D14*
X293846800Y-171450000D03*
D15*
X293846800Y-163830000D03*
D14*
X312896800Y-152400000D03*
D15*
X312896800Y-144780000D03*
D14*
X141446800Y-152400000D03*
D15*
X141446800Y-144780000D03*
D14*
X255746800Y-152400000D03*
D15*
X255746800Y-144780000D03*
D14*
X255746800Y-133350000D03*
D15*
X255746800Y-125730000D03*
D14*
X179546800Y-195262500D03*
D15*
X179546800Y-187642500D03*
D14*
X274796800Y-152400000D03*
D15*
X274796800Y-144780000D03*
D14*
X312896800Y-133350000D03*
D15*
X312896800Y-125730000D03*
D14*
X141446800Y-133350000D03*
D15*
X141446800Y-125730000D03*
D14*
X333375000Y-138112500D03*
D15*
X333375000Y-130492500D03*
D14*
X314325000Y-167510000D03*
D15*
X314325000Y-159890000D03*
D14*
X179546800Y-157162500D03*
D15*
X179546800Y-149542500D03*
D14*
X103346800Y-152400000D03*
D15*
X103346800Y-144780000D03*
D14*
X274796800Y-133350000D03*
D15*
X274796800Y-125730000D03*
D14*
X293846800Y-133350000D03*
D15*
X293846800Y-125730000D03*
D14*
X84296800Y-138112500D03*
D15*
X84296800Y-130492500D03*
D14*
X274796800Y-171450000D03*
D15*
X274796800Y-163830000D03*
D14*
X236696800Y-176212500D03*
D15*
X236696800Y-168592500D03*
D14*
X236696800Y-195262500D03*
D15*
X236696800Y-187642500D03*
D14*
X236696800Y-157162500D03*
D15*
X236696800Y-149542500D03*
D14*
X160496800Y-133350000D03*
D15*
X160496800Y-125730000D03*
D14*
X330993800Y-171450000D03*
D15*
X330993800Y-163830000D03*
D14*
X160496800Y-171450000D03*
D15*
X160496800Y-163830000D03*
D14*
X255746800Y-190500000D03*
D15*
X255746800Y-182880000D03*
D16*
X222428800Y-161968500D03*
X275956300Y-135647100D03*
X207331900Y-174177500D03*
X71581300Y-150339400D03*
X90631300Y-149263100D03*
X109832800Y-154639400D03*
X163384600Y-159115700D03*
X172445200Y-171710200D03*
X217909300Y-160972500D03*
X228126200Y-158432500D03*
X271257800Y-147693200D03*
X313505800Y-134830000D03*
D17*
X84281300Y-123467500D02*
X84281300Y-125419400D01*
X85363800Y-129425500D02*
X85363800Y-126501900D01*
X84296800Y-130492500D02*
X85363800Y-129425500D01*
X85363800Y-126501900D02*
X84281300Y-125419400D01*
X179546800Y-138112500D02*
X179546800Y-139262900D01*
X293846800Y-133350000D02*
X293846800Y-134500400D01*
X180553400Y-139262900D02*
X190529300Y-149238800D01*
X239241800Y-140801300D02*
X239241800Y-148664200D01*
X226821900Y-157575400D02*
X222428800Y-161968500D01*
X296450100Y-162875700D02*
X296450100Y-136097100D01*
X190529300Y-149238800D02*
X190529300Y-163065500D01*
X230330600Y-157575400D02*
X226821900Y-157575400D01*
X239241800Y-148664200D02*
X230330600Y-157575400D01*
X236696800Y-138112500D02*
X236696800Y-139262900D01*
X257998500Y-181868700D02*
X274089100Y-165778100D01*
X294853400Y-134500400D02*
X293846800Y-134500400D01*
X190529300Y-163065500D02*
X193516300Y-166052500D01*
X293547700Y-165778100D02*
X296450100Y-162875700D01*
X255746800Y-189349600D02*
X257998500Y-187097900D01*
X179546800Y-139262900D02*
X180553400Y-139262900D01*
X236696800Y-139262900D02*
X237703400Y-139262900D01*
X237703400Y-139262900D02*
X239241800Y-140801300D01*
X257998500Y-187097900D02*
X257998500Y-181868700D01*
X296450100Y-136097100D02*
X294853400Y-134500400D01*
X274089100Y-165778100D02*
X293547700Y-165778100D01*
X255746800Y-190500000D02*
X255746800Y-189349600D01*
X84296800Y-149542500D02*
X85363800Y-148475500D01*
X84281300Y-142517500D02*
X84281300Y-144469400D01*
X85363800Y-148475500D02*
X85363800Y-145551900D01*
X85363800Y-145551900D02*
X84281300Y-144469400D01*
X180784400Y-157162500D02*
X179546800Y-157162500D01*
X274809600Y-134500400D02*
X275956300Y-135647100D01*
X274796800Y-133350000D02*
X274796800Y-134500400D01*
X193516300Y-168592500D02*
X192214400Y-168592500D01*
X274796800Y-134500400D02*
X274809600Y-134500400D01*
X192214400Y-168592500D02*
X180784400Y-157162500D01*
X84281300Y-161567500D02*
X84281300Y-163519400D01*
X84296800Y-168592500D02*
X85407500Y-167481800D01*
X85407500Y-164645600D02*
X84281300Y-163519400D01*
X85407500Y-167481800D02*
X85407500Y-164645600D01*
X207332000Y-173858700D02*
X211296300Y-169894400D01*
X207331900Y-174177500D02*
X207332000Y-174177500D01*
X207332000Y-174177500D02*
X207332000Y-173858700D01*
X211296300Y-168592500D02*
X211296300Y-169894400D01*
X103331300Y-118705000D02*
X103331300Y-120656900D01*
X104424800Y-124652000D02*
X104424800Y-121750400D01*
X103346800Y-125730000D02*
X104424800Y-124652000D01*
X104424800Y-121750400D02*
X103331300Y-120656900D01*
X201175400Y-195342900D02*
X201175400Y-176173400D01*
X203476200Y-197643700D02*
X201175400Y-195342900D01*
X200025000Y-197643700D02*
X200025000Y-196493300D01*
X200025000Y-196493300D02*
X201175400Y-195342900D01*
X219075000Y-197643700D02*
X203476200Y-197643700D01*
X201175400Y-176173400D02*
X211296300Y-166052500D01*
X104424800Y-140800400D02*
X103331300Y-139706900D01*
X104424800Y-143702000D02*
X104424800Y-140800400D01*
X103331300Y-137755000D02*
X103331300Y-139706900D01*
X103346800Y-144780000D02*
X104424800Y-143702000D01*
X104424800Y-159850400D02*
X103331300Y-158756900D01*
X103331300Y-156805000D02*
X103331300Y-158756900D01*
X103346800Y-163830000D02*
X104424800Y-162752000D01*
X104424800Y-162752000D02*
X104424800Y-159850400D01*
X122381300Y-118705000D02*
X122381300Y-120656900D01*
X123474800Y-121750400D02*
X122381300Y-120656900D01*
X123474800Y-124652000D02*
X123474800Y-121750400D01*
X122396800Y-125730000D02*
X123474800Y-124652000D01*
X123474800Y-143702000D02*
X123474800Y-140800400D01*
X123474800Y-140800400D02*
X122381300Y-139706900D01*
X122381300Y-137755000D02*
X122381300Y-139706900D01*
X122396800Y-144780000D02*
X123474800Y-143702000D01*
X123474800Y-159850400D02*
X122381300Y-158756900D01*
X122396800Y-163830000D02*
X123474800Y-162752000D01*
X123474800Y-162752000D02*
X123474800Y-159850400D01*
X122381300Y-156805000D02*
X122381300Y-158756900D01*
X142524800Y-121750400D02*
X141431300Y-120656900D01*
X141446800Y-125730000D02*
X142524800Y-124652000D01*
X142524800Y-124652000D02*
X142524800Y-121750400D01*
X141431300Y-118705000D02*
X141431300Y-120656900D01*
X141446800Y-144780000D02*
X142524800Y-143702000D01*
X141431300Y-137755000D02*
X141431300Y-139706900D01*
X142524800Y-140800400D02*
X141431300Y-139706900D01*
X142524800Y-143702000D02*
X142524800Y-140800400D01*
X141431300Y-156805000D02*
X141431300Y-158756900D01*
X142524800Y-159850400D02*
X141431300Y-158756900D01*
X141446800Y-163830000D02*
X142524800Y-162752000D01*
X142524800Y-162752000D02*
X142524800Y-159850400D01*
D18*
X160481300Y-175855000D02*
X161925000Y-177298700D01*
X161925000Y-177298700D02*
X161925000Y-178940000D01*
D17*
X160481300Y-120656900D02*
X161622600Y-121798200D01*
X161622600Y-121798200D02*
X161622600Y-124604200D01*
X160481300Y-118705000D02*
X160481300Y-120656900D01*
X161622600Y-124604200D02*
X160496800Y-125730000D01*
X161622600Y-143654200D02*
X161622600Y-140848200D01*
X160496800Y-144780000D02*
X161622600Y-143654200D01*
X161622600Y-140848200D02*
X160481300Y-139706900D01*
X160481300Y-137755000D02*
X160481300Y-139706900D01*
X161609700Y-159885300D02*
X160481300Y-158756900D01*
X161609700Y-162717100D02*
X161609700Y-159885300D01*
X160481300Y-156805000D02*
X160481300Y-158756900D01*
X160496800Y-163830000D02*
X161609700Y-162717100D01*
X177184600Y-186490000D02*
X177184600Y-182964200D01*
X177184600Y-182964200D02*
X179531300Y-180617500D01*
X178337100Y-187642500D02*
X177184600Y-186490000D01*
X179546800Y-187642500D02*
X178337100Y-187642500D01*
X180663800Y-126551900D02*
X179531300Y-125419400D01*
X179546800Y-130492500D02*
X180663800Y-129375500D01*
X179531300Y-123467500D02*
X179531300Y-125419400D01*
X180663800Y-129375500D02*
X180663800Y-126551900D01*
X180657500Y-145595600D02*
X179531300Y-144469400D01*
X180657500Y-148431800D02*
X180657500Y-145595600D01*
X179531300Y-142517500D02*
X179531300Y-144469400D01*
X179546800Y-149542500D02*
X180657500Y-148431800D01*
X180657500Y-167481800D02*
X180657500Y-164645600D01*
X179546800Y-168592500D02*
X180657500Y-167481800D01*
X180657500Y-164645600D02*
X179531300Y-163519400D01*
X179531300Y-161567500D02*
X179531300Y-163519400D01*
X200025000Y-190023700D02*
X200025000Y-186394300D01*
X198581300Y-182998700D02*
X198581300Y-184950600D01*
X200025000Y-186394300D02*
X198581300Y-184950600D01*
X237763800Y-129425500D02*
X237763800Y-126501900D01*
X236696800Y-130492500D02*
X237763800Y-129425500D01*
X236681300Y-123467500D02*
X236681300Y-125419400D01*
X237763800Y-126501900D02*
X236681300Y-125419400D01*
X236696800Y-149542500D02*
X237763800Y-148475500D01*
X237763800Y-145551900D02*
X236681300Y-144469400D01*
X237763800Y-148475500D02*
X237763800Y-145551900D01*
X236681300Y-142517500D02*
X236681300Y-144469400D01*
X237807500Y-164645600D02*
X236681300Y-163519400D01*
X236681300Y-161567500D02*
X236681300Y-163519400D01*
X237807500Y-167481800D02*
X237807500Y-164645600D01*
X236696800Y-168592500D02*
X237807500Y-167481800D01*
X219075000Y-186394300D02*
X217631300Y-184950600D01*
X219075000Y-190023700D02*
X219075000Y-186394300D01*
X217631300Y-182998700D02*
X217631300Y-184950600D01*
X256824800Y-124652000D02*
X256824800Y-121750400D01*
X256824800Y-121750400D02*
X255731300Y-120656900D01*
X255746800Y-125730000D02*
X256824800Y-124652000D01*
X255731300Y-118705000D02*
X255731300Y-120656900D01*
X255731300Y-137755000D02*
X255731300Y-139706900D01*
X256818700Y-143708100D02*
X256818700Y-140794300D01*
X256818700Y-140794300D02*
X255731300Y-139706900D01*
X255746800Y-144780000D02*
X256818700Y-143708100D01*
X255746800Y-163830000D02*
X256818700Y-162758100D01*
X256818700Y-162758100D02*
X256818700Y-159844300D01*
X256818700Y-159844300D02*
X255731300Y-158756900D01*
X255731300Y-156805000D02*
X255731300Y-158756900D01*
X236681300Y-180617500D02*
X236681300Y-182569400D01*
X237807500Y-183695600D02*
X236681300Y-182569400D01*
X236696800Y-187642500D02*
X237807500Y-186531800D01*
X237807500Y-186531800D02*
X237807500Y-183695600D01*
X255731300Y-175855000D02*
X255731300Y-177806900D01*
X255746800Y-182880000D02*
X256849900Y-181776900D01*
X256849900Y-181776900D02*
X256849900Y-178925500D01*
X256849900Y-178925500D02*
X255731300Y-177806900D01*
X275874800Y-124652000D02*
X275874800Y-121750400D01*
X274781300Y-118705000D02*
X274781300Y-120656900D01*
X274796800Y-125730000D02*
X275874800Y-124652000D01*
X275874800Y-121750400D02*
X274781300Y-120656900D01*
X275878600Y-140804200D02*
X274781300Y-139706900D01*
X275878600Y-143698200D02*
X275878600Y-140804200D01*
X274796800Y-144780000D02*
X275878600Y-143698200D01*
X274781300Y-137755000D02*
X274781300Y-139706900D01*
X274781300Y-156805000D02*
X274781300Y-158756900D01*
X275874800Y-162752000D02*
X275874800Y-159850400D01*
X275874800Y-159850400D02*
X274781300Y-158756900D01*
X274796800Y-163830000D02*
X275874800Y-162752000D01*
X293846800Y-125730000D02*
X294924800Y-124652000D01*
X294924800Y-124652000D02*
X294924800Y-121750400D01*
X294924800Y-121750400D02*
X293831300Y-120656900D01*
X293831300Y-118705000D02*
X293831300Y-120656900D01*
X294924800Y-143702000D02*
X294924800Y-140800400D01*
X293846800Y-144780000D02*
X294924800Y-143702000D01*
X294924800Y-140800400D02*
X293831300Y-139706900D01*
X293831300Y-137755000D02*
X293831300Y-139706900D01*
X293846800Y-163830000D02*
X294916300Y-162760500D01*
X294916300Y-159841900D02*
X293831300Y-158756900D01*
X294916300Y-162760500D02*
X294916300Y-159841900D01*
X293831300Y-156805000D02*
X293831300Y-158756900D01*
X312881300Y-118705000D02*
X312881300Y-120656900D01*
X314022600Y-124604200D02*
X314022600Y-121798200D01*
X314022600Y-121798200D02*
X312881300Y-120656900D01*
X312896800Y-125730000D02*
X314022600Y-124604200D01*
X314011200Y-140836800D02*
X312881300Y-139706900D01*
X314011200Y-143665600D02*
X314011200Y-140836800D01*
X312896800Y-144780000D02*
X314011200Y-143665600D01*
X312881300Y-137755000D02*
X312881300Y-139706900D01*
X312881300Y-156805000D02*
X312881300Y-158446300D01*
X312881300Y-158446300D02*
X314325000Y-159890000D01*
X71581300Y-150339400D02*
X71581300Y-147009400D01*
X71581300Y-126007500D02*
X71581300Y-145057500D01*
X71581300Y-162155600D02*
X71581300Y-150339400D01*
X71581300Y-145057500D02*
X71581300Y-147009400D01*
X71581300Y-164107500D02*
X71581300Y-162155600D01*
X90631300Y-159345000D02*
X90631300Y-157393100D01*
X90631300Y-121245000D02*
X90631300Y-140295000D01*
X90631300Y-140295000D02*
X90631300Y-149263100D01*
X90631300Y-149263100D02*
X90631300Y-157393100D01*
X109681300Y-159345000D02*
X109681300Y-154790900D01*
X109681300Y-154790900D02*
X109832800Y-154639400D01*
X109681300Y-121245000D02*
X109681300Y-140295000D01*
X109681300Y-154487900D02*
X109832800Y-154639400D01*
X109681300Y-140295000D02*
X109681300Y-154487900D01*
X128731300Y-121245000D02*
X128731300Y-140295000D01*
X163384600Y-162791700D02*
X163384600Y-159115700D01*
X144627700Y-178395000D02*
X128731300Y-162498600D01*
X128731300Y-159345000D02*
X128731300Y-140295000D01*
X147781300Y-178395000D02*
X144627700Y-178395000D01*
X147781300Y-178395000D02*
X163384600Y-162791700D01*
X128731300Y-162498600D02*
X128731300Y-159345000D01*
X172445200Y-171710200D02*
X171304900Y-172850500D01*
X147781300Y-154593900D02*
X162572000Y-154593900D01*
X166831300Y-177324100D02*
X166831300Y-183157500D01*
X171304900Y-172850500D02*
X166831300Y-177324100D01*
X164279400Y-156301300D02*
X164279400Y-165825000D01*
X164279400Y-165825000D02*
X171304900Y-172850500D01*
X162572000Y-154593900D02*
X164279400Y-156301300D01*
X147781300Y-140295000D02*
X147781300Y-154593900D01*
X147781300Y-154593900D02*
X147781300Y-159345000D01*
X147781300Y-140295000D02*
X147781300Y-121245000D01*
X185881300Y-169921200D02*
X169539500Y-169921200D01*
X166831300Y-164107500D02*
X166831300Y-145057500D01*
X194835300Y-162291500D02*
X194835300Y-169176800D01*
X193516300Y-160972500D02*
X194835300Y-162291500D01*
X166831300Y-145057500D02*
X166831300Y-126007500D01*
X194090900Y-169921200D02*
X185881300Y-169921200D01*
X169539500Y-169921200D02*
X166831300Y-167213000D01*
X166831300Y-167213000D02*
X166831300Y-164107500D01*
X185881300Y-169921200D02*
X185881300Y-185538700D01*
X194835300Y-169176800D02*
X194090900Y-169921200D01*
X212598200Y-162274400D02*
X212598200Y-177871800D01*
X212598200Y-177871800D02*
X204931300Y-185538700D01*
X223981300Y-145057500D02*
X223981300Y-147009400D01*
X211296300Y-160972500D02*
X212598200Y-162274400D01*
X221044300Y-164107500D02*
X217909300Y-160972500D01*
X221429400Y-164107500D02*
X221044300Y-164107500D01*
X223981300Y-145057500D02*
X223981300Y-126007500D01*
X217909300Y-160972500D02*
X217909300Y-153081400D01*
X223981300Y-164107500D02*
X221429400Y-164107500D01*
X217909300Y-153081400D02*
X223981300Y-147009400D01*
X223981300Y-183157500D02*
X223981300Y-181205600D01*
X243031300Y-158311400D02*
X243031300Y-157393100D01*
X242910200Y-158432500D02*
X228126200Y-158432500D01*
X243031300Y-158311400D02*
X242910200Y-158432500D01*
X243031300Y-140295000D02*
X243031300Y-157393100D01*
X213306700Y-160442900D02*
X211296300Y-158432500D01*
X223981300Y-181205600D02*
X213306700Y-170531000D01*
X243031300Y-159345000D02*
X243031300Y-158311400D01*
X243031300Y-121245000D02*
X243031300Y-140295000D01*
X213306700Y-170531000D02*
X213306700Y-160442900D01*
X262081300Y-159345000D02*
X262081300Y-161296900D01*
X211296300Y-155892500D02*
X212598200Y-155892500D01*
X239793800Y-173205600D02*
X243031300Y-176443100D01*
X260129400Y-161296900D02*
X262081300Y-161296900D01*
X243031300Y-176514000D02*
X243031300Y-176443100D01*
X228772100Y-173205600D02*
X239793800Y-173205600D01*
X212598200Y-155892500D02*
X212598200Y-157031700D01*
X262081300Y-140295000D02*
X262081300Y-121245000D01*
X243031300Y-178395000D02*
X243031300Y-176514000D01*
X243031300Y-176443100D02*
X244983200Y-176443100D01*
X262081300Y-159345000D02*
X262081300Y-140295000D01*
X244983200Y-176443100D02*
X260129400Y-161296900D01*
X212598200Y-157031700D02*
X228772100Y-173205600D01*
X271257800Y-147693200D02*
X275685000Y-147693200D01*
X281131300Y-153139500D02*
X275685000Y-147693200D01*
X281131300Y-140295000D02*
X281131300Y-142246900D01*
X281131300Y-159345000D02*
X281131300Y-153139500D01*
X275685000Y-147693200D02*
X281131300Y-142246900D01*
X281131300Y-121245000D02*
X281131300Y-140295000D01*
X300181300Y-140295000D02*
X300181300Y-121245000D01*
X300181300Y-121245000D02*
X300181300Y-119293100D01*
X226067500Y-119626900D02*
X240062200Y-119626900D01*
X218486200Y-141082600D02*
X218486200Y-127208200D01*
X243162900Y-116526200D02*
X297414400Y-116526200D01*
X211296300Y-148272500D02*
X218486200Y-141082600D01*
X240062200Y-119626900D02*
X243162900Y-116526200D01*
X297414400Y-116526200D02*
X300181300Y-119293100D01*
X218486200Y-127208200D02*
X226067500Y-119626900D01*
X300181300Y-140295000D02*
X300181300Y-159345000D01*
X320407100Y-162730200D02*
X320407100Y-161737600D01*
X315433200Y-135998900D02*
X313885100Y-134450700D01*
X317853500Y-159184000D02*
X317853500Y-148333900D01*
X313885100Y-134450700D02*
X313505800Y-134830000D01*
X319231300Y-129104500D02*
X313885100Y-134450700D01*
X320407100Y-161737600D02*
X317853500Y-159184000D01*
X317853500Y-148333900D02*
X315433200Y-145913600D01*
X315433200Y-145913600D02*
X315433200Y-135998900D01*
X319231300Y-126007500D02*
X319231300Y-129104500D01*
X323691300Y-164062500D02*
X321739400Y-164062500D01*
X321739400Y-164062500D02*
X320407100Y-162730200D01*
X333375000Y-130492500D02*
X333375000Y-126863100D01*
X331931300Y-123467500D02*
X331931300Y-125419400D01*
X333375000Y-126863100D02*
X331931300Y-125419400D01*
X330993800Y-158080900D02*
X327233100Y-154320200D01*
X321151300Y-151562500D02*
X323103200Y-151562500D01*
X325860900Y-154320200D02*
X323103200Y-151562500D01*
X330993800Y-163830000D02*
X330993800Y-158080900D01*
X327233100Y-154320200D02*
X325860900Y-154320200D01*
M02*
